<!-- Generated by IcoMoon.io -->
<svg version="1.1" xmlns="http://www.w3.org/2000/svg" width="32" height="32" viewBox="0 0 32 32">
<title>arch</title>
<path d="M3.446 3.085l0.517 1.454c0.022 0.062 0.066 0.112 0.121 0.136l1.291 0.582c0.182 0.082 0.182 0.373 0 0.455l-1.291 0.582c-0.055 0.025-0.099 0.074-0.121 0.136l-0.517 1.454c-0.073 0.205-0.331 0.205-0.404 0l-0.517-1.454c-0.022-0.062-0.066-0.112-0.121-0.136l-1.291-0.582c-0.182-0.082-0.182-0.373 0-0.455l1.291-0.582c0.055-0.025 0.099-0.074 0.121-0.136l0.517-1.454c0.073-0.205 0.331-0.205 0.404 0z"></path>
<path d="M27.853 0.114l0.383 1.078c0.016 0.046 0.049 0.083 0.090 0.101l0.958 0.432c0.135 0.061 0.135 0.277 0 0.338l-0.958 0.432c-0.041 0.018-0.073 0.055-0.090 0.101l-0.383 1.078c-0.054 0.152-0.246 0.152-0.3 0l-0.383-1.078c-0.016-0.046-0.049-0.083-0.090-0.101l-0.958-0.432c-0.135-0.061-0.135-0.277 0-0.338l0.958-0.432c0.041-0.018 0.073-0.055 0.090-0.101l0.383-1.078c0.054-0.152 0.246-0.152 0.3 0z"></path>
<path d="M31.005 5.006c0.062 0.262-0.1 0.524-0.362 0.586s-0.524-0.1-0.586-0.362c-0.062-0.262 0.1-0.524 0.362-0.586s0.524 0.1 0.586 0.362z"></path>
<path d="M29.083 11.178c0.012-0.356-0.079-0.7-0.259-0.997 0.595-0.692 0.586-1.739-0.052-2.421-0.331-0.354-0.78-0.558-1.264-0.574-0.194-0.006-0.383 0.019-0.564 0.072-0.93-1.567-2.257-2.896-3.85-3.864 0.014-0.277-0.041-0.555-0.165-0.812-0.195-0.406-0.537-0.712-0.962-0.861s-0.883-0.124-1.289 0.071c-0.003 0.001-0.005 0.003-0.008 0.004-0.168-0.162-0.372-0.292-0.607-0.374-0.425-0.149-0.883-0.124-1.289 0.071-0.148 0.071-0.283 0.162-0.402 0.27-0.487-0.060-0.983-0.092-1.486-0.092-0.139 0-0.278 0.003-0.416 0.008-0.138-0.125-0.295-0.23-0.469-0.309-0.443-0.203-0.938-0.22-1.394-0.050-0.317 0.118-0.588 0.318-0.792 0.577-0.052-0.030-0.105-0.059-0.161-0.085-0.914-0.418-1.998-0.014-2.416 0.9-0.066 0.144-0.111 0.292-0.137 0.441-1.245 0.687-2.342 1.589-3.235 2.651-0.327 0.061-0.636 0.233-0.859 0.513-0.237 0.296-0.335 0.658-0.306 1.010-0.163 0.089-0.308 0.21-0.427 0.36-0.239 0.299-0.347 0.673-0.304 1.054 0.008 0.075 0.024 0.147 0.043 0.219-0.426 1.138-0.658 2.363-0.658 3.638v0.165c-0.010 0.002-0.020 0.004-0.030 0.006-0.428 0.108-0.789 0.376-1.015 0.755-0.402 0.672-0.269 1.518 0.273 2.039-0.328 0.751-0.054 1.649 0.667 2.080 0.034 0.021 0.069 0.040 0.105 0.057v12.13c0 1.198 1.015 2.172 2.263 2.172s2.263-0.974 2.263-2.172v-14.233c0.153-0.121 0.288-0.27 0.394-0.447 0.226-0.379 0.292-0.824 0.184-1.252-0.090-0.358-0.293-0.668-0.578-0.893v-0.409c0-0.825 0.163-1.615 0.459-2.343 0.292-0.079 0.551-0.246 0.744-0.487 0.281-0.352 0.368-0.797 0.276-1.206 0.304-0.366 0.649-0.701 1.027-1 0.172 0.4 0.487 0.741 0.913 0.936 0.139 0.063 0.282 0.107 0.425 0.134l-0.102 0.473c-0.081 0.373 0.009 0.756 0.247 1.050 0.228 0.282 0.564 0.444 0.921 0.444h0.626c0.129 0.695 0.737 1.221 1.469 1.221s1.34-0.526 1.469-1.221h0.626c0.351 0 0.683-0.157 0.911-0.432 0.237-0.286 0.333-0.661 0.264-1.030l-0.25-1.335c0.102 0.019 0.205 0.029 0.307 0.029 0.384 0 0.754-0.133 1.050-0.368 0.534 0.402 1.003 0.877 1.392 1.407-0.010 0.009-0.019 0.017-0.029 0.025-0.354 0.331-0.558 0.78-0.574 1.264s0.157 0.946 0.488 1.3c0.166 0.177 0.361 0.317 0.576 0.414-0.050 0.503 0.107 1.024 0.479 1.421 0.091 0.097 0.191 0.182 0.296 0.255v3.416c-0.498 0.37-0.71 1.041-0.473 1.646 0.1 0.256 0.267 0.466 0.473 0.618v10.599c0 1.198 1.015 2.172 2.263 2.172s2.263-0.974 2.263-2.172v-10.555c0.14-0.13 0.254-0.288 0.333-0.468 0.151-0.346 0.159-0.73 0.022-1.081-0.059-0.152-0.144-0.289-0.247-0.409 0.003-0.007 0.007-0.013 0.010-0.020 0.151-0.346 0.159-0.73 0.022-1.081-0.037-0.095-0.085-0.184-0.14-0.268v-3.351c0-0.024-0.001-0.048-0.001-0.072 0.031-0.026 0.062-0.052 0.092-0.080 0.354-0.331 0.557-0.78 0.574-1.264zM9.072 7.912c0.095 0.075 0.154 0.183 0.168 0.304s-0.021 0.239-0.096 0.333c-0.075 0.095-0.183 0.154-0.304 0.168s-0.239-0.021-0.333-0.096c-0.195-0.156-0.227-0.442-0.072-0.637 0.089-0.112 0.222-0.17 0.355-0.17 0.099 0 0.199 0.032 0.282 0.099zM9.015 9.944c-0.022 0.101-0.066 0.196-0.132 0.279-0.113 0.142-0.274 0.231-0.454 0.251s-0.357-0.031-0.498-0.144c-0.117-0.093-0.195-0.218-0.231-0.352 0.32-0.070 0.605-0.246 0.812-0.505 0.007-0.008 0.012-0.018 0.019-0.026 0.043 0.009 0.087 0.017 0.131 0.021 0.081 0.178 0.199 0.341 0.353 0.477zM7.595 6.786c0.233-0.292 0.661-0.34 0.953-0.107 0.122 0.097 0.204 0.23 0.238 0.379-0.354 0.001-0.704 0.156-0.941 0.453-0.057 0.072-0.104 0.148-0.142 0.227-0-0-0-0-0-0-0.292-0.233-0.34-0.66-0.107-0.953zM6.861 8.156c0.031-0.039 0.067-0.074 0.105-0.105 0.074 0.102 0.161 0.196 0.264 0.279 0.119 0.095 0.249 0.167 0.385 0.218 0.044 0.184 0.13 0.358 0.258 0.507-0.24 0.244-0.632 0.272-0.906 0.054-0.141-0.113-0.231-0.274-0.251-0.454s0.031-0.357 0.144-0.498zM6.957 10.112c0.068 0.308 0.236 0.596 0.501 0.808 0.256 0.205 0.568 0.313 0.891 0.313 0.054 0 0.108-0.003 0.163-0.009 0.084-0.009 0.166-0.027 0.245-0.050-0.041 0.211-0.074 0.424-0.097 0.64-0.092-0.090-0.195-0.171-0.31-0.24-0.534-0.319-1.177-0.301-1.68-0.008 0.056-0.496 0.153-0.982 0.287-1.453zM6.732 12.532c0.168-0.281 0.467-0.437 0.773-0.437 0.157 0 0.315 0.041 0.459 0.127 0.196 0.117 0.331 0.299 0.394 0.501-0.388 0.121-0.713 0.377-0.924 0.729-0.015 0.026-0.030 0.052-0.044 0.078-0.082-0.009-0.163-0.012-0.245-0.007-0.129-0.218-0.311-0.409-0.539-0.553 0.003-0.15 0.043-0.301 0.125-0.438zM6.692 14.58c0.086-0.144 0.223-0.245 0.385-0.286 0.051-0.013 0.103-0.019 0.154-0.019 0.112 0 0.222 0.030 0.32 0.089 0.144 0.086 0.245 0.223 0.286 0.385s0.016 0.331-0.070 0.475c-0.086 0.144-0.223 0.245-0.385 0.286s-0.331 0.016-0.475-0.070c-0.144-0.086-0.245-0.223-0.286-0.385s-0.016-0.331 0.070-0.475zM4.956 13.908c0.123-0.206 0.319-0.352 0.552-0.41 0.073-0.018 0.147-0.028 0.221-0.028 0.16 0 0.318 0.043 0.459 0.127 0.087 0.052 0.162 0.117 0.224 0.191-0.144 0.106-0.27 0.242-0.368 0.405-0.189 0.317-0.244 0.689-0.154 1.046 0.001 0.004 0.002 0.007 0.003 0.011-0.208 0.040-0.431 0.007-0.627-0.11-0.425-0.254-0.564-0.807-0.311-1.232zM5.635 16.992c-0.365-0.218-0.518-0.655-0.394-1.044 0.159 0.049 0.322 0.074 0.484 0.074 0.195 0 0.389-0.035 0.571-0.102 0.069 0.063 0.144 0.12 0.226 0.169 0.008 0.005 0.016 0.009 0.024 0.013 0.003 0.121 0.019 0.242 0.050 0.363 0.034 0.134 0.083 0.261 0.146 0.379-0.283 0.294-0.741 0.367-1.106 0.149zM8.62 29.828c0 0.504-0.451 0.914-1.005 0.914s-1.005-0.41-1.005-0.914v-12.038c0.233-0.077 0.451-0.205 0.632-0.381 0.035 0.024 0.070 0.048 0.107 0.070 0.26 0.155 0.55 0.235 0.845 0.235 0.136 0 0.272-0.017 0.407-0.051 0.006-0.002 0.012-0.003 0.018-0.005zM8.969 16.52c-0.123 0.206-0.319 0.352-0.552 0.41s-0.474 0.023-0.68-0.1c-0.206-0.123-0.351-0.318-0.41-0.55 0.080-0.006 0.161-0.018 0.241-0.038 0.358-0.090 0.659-0.314 0.849-0.631 0.070-0.116 0.121-0.24 0.153-0.368 0.030 0.014 0.060 0.029 0.089 0.046 0.206 0.123 0.352 0.319 0.41 0.552s0.023 0.474-0.1 0.68zM9.625 14.761c-0.049 0.082-0.11 0.154-0.179 0.214-0.113-0.13-0.248-0.243-0.4-0.334-0.163-0.097-0.336-0.162-0.513-0.198-0.086-0.245-0.238-0.457-0.44-0.618 0.123-0.198 0.315-0.338 0.541-0.395 0.073-0.018 0.147-0.028 0.221-0.028 0.16 0 0.318 0.043 0.459 0.127 0.206 0.123 0.352 0.319 0.41 0.552s0.023 0.474-0.1 0.68zM10.492 9.293c-0.113 0.142-0.274 0.231-0.454 0.251s-0.357-0.031-0.498-0.144c-0.042-0.033-0.078-0.071-0.109-0.111 0.114-0.072 0.217-0.161 0.303-0.27 0.188-0.236 0.278-0.527 0.26-0.826 0.138 0.006 0.275 0.054 0.391 0.146 0.292 0.233 0.34 0.661 0.107 0.953zM9.549 7.049c-0.011-0.102-0.034-0.202-0.066-0.297 0.091-0.062 0.196-0.102 0.308-0.114 0.026-0.003 0.051-0.004 0.077-0.004 0.153 0 0.3 0.051 0.421 0.148 0.233 0.186 0.31 0.496 0.214 0.762-0.219-0.090-0.458-0.124-0.7-0.097-0.037 0.004-0.074 0.010-0.111 0.017-0.043-0.048-0.089-0.093-0.14-0.135 0.008-0.092 0.008-0.186-0.003-0.28zM10.644 6.108c-0.277-0.18-0.605-0.258-0.938-0.221-0.091 0.010-0.18 0.029-0.265 0.056 0.376-0.372 0.783-0.716 1.217-1.029-0.139 0.386-0.145 0.802-0.014 1.193zM26.561 10.098c-0.007 0.201-0.091 0.388-0.238 0.525s-0.338 0.209-0.54 0.203c-0.201-0.007-0.388-0.091-0.525-0.238s-0.209-0.339-0.203-0.54c0.007-0.201 0.091-0.388 0.238-0.525 0.141-0.132 0.322-0.203 0.514-0.203 0.009 0 0.017 0 0.026 0 0.201 0.007 0.388 0.091 0.525 0.238s0.209 0.339 0.203 0.54zM26.759 16.282c0.067-0.072 0.149-0.13 0.244-0.167 0.078-0.030 0.159-0.045 0.239-0.045 0.090 0 0.179 0.019 0.264 0.056 0.161 0.070 0.285 0.199 0.349 0.363 0.051 0.13 0.058 0.269 0.024 0.401-0.306-0.096-0.632-0.086-0.935 0.032-0.009 0.003-0.017 0.007-0.026 0.011-0.030-0.027-0.061-0.053-0.094-0.077 0.018-0.192-0.003-0.387-0.065-0.574zM26.119 19.008c0.144 0 0.29-0.026 0.432-0.082 0.080-0.031 0.156-0.071 0.226-0.118 0.061 0.161 0.056 0.336-0.013 0.494-0.071 0.161-0.2 0.285-0.363 0.349s-0.342 0.060-0.503-0.010c-0.161-0.070-0.285-0.199-0.349-0.363-0.055-0.141-0.058-0.29-0.017-0.425 0.178 0.1 0.38 0.155 0.587 0.155zM25.717 17.64c0.047-0.107 0.133-0.189 0.241-0.232s0.227-0.040 0.335 0.007c0.107 0.047 0.189 0.133 0.232 0.241s0.040 0.228-0.007 0.335c-0.047 0.107-0.133 0.189-0.241 0.232-0.224 0.088-0.479-0.024-0.566-0.248-0.042-0.109-0.040-0.228 0.007-0.335zM27.159 15.318c-0.146 0.009-0.291 0.039-0.431 0.094-0.147 0.057-0.279 0.138-0.396 0.236-0.321-0.271-0.756-0.391-1.182-0.308v-1.488c0.365-0.046 0.72-0.203 1.009-0.474 0.18-0.168 0.32-0.366 0.417-0.584 0.187 0.077 0.384 0.121 0.583 0.134zM25.157 7.46c0.283 0.009 0.545 0.128 0.738 0.335s0.295 0.476 0.285 0.759c-0.001 0.019-0.003 0.038-0.005 0.057-0.48-0.12-1.010-0.003-1.398 0.36-0.122 0.114-0.222 0.245-0.298 0.387-0.046-0.035-0.090-0.073-0.131-0.116-0.193-0.207-0.294-0.476-0.285-0.759s0.128-0.545 0.335-0.738c0.198-0.185 0.453-0.286 0.723-0.286 0.012 0 0.024 0 0.036 0.001zM20.441 3.868c0.073 0 0.146 0.012 0.217 0.037 0.165 0.058 0.297 0.176 0.372 0.333s0.085 0.334 0.027 0.499c-0.058 0.165-0.176 0.297-0.333 0.372s-0.334 0.085-0.499 0.027c-0.165-0.058-0.297-0.176-0.372-0.333s-0.085-0.334-0.028-0.499c0.058-0.165 0.176-0.297 0.333-0.372 0.090-0.043 0.186-0.065 0.282-0.065zM17.061 2.932c0.254 0.004 0.507 0.017 0.756 0.038-0.001 0.038-0.001 0.075 0 0.113-0.296 0.123-0.556 0.33-0.742 0.601-0.034-0.029-0.068-0.057-0.104-0.083 0.073-0.217 0.102-0.444 0.090-0.67zM16.887 4.694c0.1 0.267 0.089 0.557-0.030 0.817s-0.331 0.457-0.599 0.557-0.557 0.089-0.817-0.030c-0.126-0.058-0.236-0.138-0.329-0.235 0.162-0.139 0.297-0.313 0.392-0.52 0.184-0.401 0.176-0.842 0.017-1.22 0.265-0.096 0.552-0.085 0.808 0.032 0.259 0.119 0.457 0.331 0.557 0.598zM14.869 2.026c0.121-0.045 0.247-0.068 0.373-0.068 0.151 0 0.302 0.033 0.444 0.097 0.259 0.119 0.457 0.331 0.557 0.599 0.076 0.205 0.087 0.424 0.035 0.632-0.423-0.093-0.857-0.029-1.229 0.163-0.088-0.068-0.186-0.127-0.291-0.175-0.018-0.008-0.037-0.016-0.055-0.024-0.037-0.304-0.15-0.596-0.329-0.846 0.123-0.172 0.293-0.304 0.496-0.379zM14.127 3.892c0.108 0 0.215 0.023 0.316 0.069 0.381 0.174 0.55 0.626 0.375 1.008s-0.627 0.55-1.008 0.375c-0.185-0.085-0.325-0.236-0.396-0.426s-0.063-0.397 0.021-0.582c0.085-0.185 0.236-0.325 0.426-0.396 0.086-0.032 0.176-0.048 0.266-0.048zM11.923 3.025c0.245-0.535 0.88-0.772 1.415-0.527 0.259 0.119 0.457 0.331 0.557 0.599 0.007 0.019 0.013 0.038 0.019 0.056-0.106 0.015-0.212 0.042-0.315 0.080-0.379 0.141-0.681 0.422-0.849 0.79-0.070 0.153-0.113 0.314-0.13 0.476-0.057-0.015-0.114-0.034-0.169-0.059-0.259-0.119-0.457-0.331-0.557-0.599s-0.089-0.558 0.030-0.817zM11.929 6.503c-0.259-0.119-0.457-0.331-0.557-0.599s-0.089-0.557 0.030-0.817c0.055-0.12 0.131-0.225 0.22-0.313 0.146 0.142 0.318 0.263 0.514 0.352 0.198 0.090 0.406 0.143 0.616 0.16 0.129 0.28 0.337 0.512 0.601 0.669-0.003 0.007-0.005 0.014-0.009 0.020-0.245 0.536-0.88 0.772-1.415 0.527zM13.612 7.808c-0.264-0.121-0.455-0.337-0.552-0.589 0.415-0.169 0.77-0.489 0.971-0.928 0.018-0.040 0.035-0.081 0.050-0.123 0.014 0 0.029 0.001 0.043 0.001 0.098 0 0.195-0.010 0.29-0.029 0.176 0.242 0.412 0.444 0.701 0.579 0.021 0.186-0.005 0.38-0.088 0.562-0.245 0.535-0.88 0.772-1.415 0.527zM14.858 9.337l0.213-0.989c0.271-0.181 0.498-0.437 0.643-0.754 0.104-0.228 0.156-0.467 0.163-0.704 0.003 0 0.005 0 0.008 0 0.215 0 0.43-0.038 0.637-0.116 0.398-0.148 0.724-0.424 0.936-0.785 0.135 0.101 0.286 0.182 0.449 0.239 0.124 0.044 0.252 0.071 0.38 0.085 0.048 0.121 0.092 0.247 0.13 0.38l0.496 2.642h-4.055zM18.634 5.553c-0.154 0.029-0.318 0.020-0.476-0.035-0.185-0.065-0.34-0.184-0.451-0.341 0.015-0.25-0.022-0.504-0.112-0.746-0.007-0.018-0.015-0.035-0.022-0.053 0.005-0.016 0.009-0.032 0.014-0.048 0.080-0.227 0.239-0.404 0.436-0.51 0.2 0.368 0.524 0.644 0.922 0.784 0.031 0.011 0.062 0.020 0.093 0.029 0.007 0.087 0.022 0.174 0.045 0.259-0.199 0.179-0.353 0.404-0.449 0.661zM18.625 2.704c0.134-0.383 0.495-0.623 0.88-0.623 0.102 0 0.206 0.017 0.308 0.053 0.097 0.034 0.185 0.083 0.262 0.144-0.11 0.142-0.198 0.302-0.259 0.476-0.064 0.183-0.096 0.372-0.096 0.56-0.231 0.137-0.415 0.336-0.535 0.575-0.478-0.174-0.729-0.702-0.561-1.183zM21.092 6.451c-0.17 0.485-0.703 0.741-1.188 0.571s-0.741-0.703-0.57-1.188c0.036-0.103 0.089-0.195 0.154-0.276 0.139 0.128 0.303 0.228 0.487 0.292 0.153 0.054 0.31 0.080 0.467 0.080 0.208 0 0.416-0.047 0.609-0.14 0.007-0.003 0.013-0.007 0.019-0.010 0.091 0.214 0.099 0.45 0.022 0.671zM20.908 3.193c-0.134-0.047-0.272-0.073-0.41-0.079 0.008-0.037 0.018-0.074 0.030-0.111 0.082-0.235 0.251-0.423 0.476-0.531 0.128-0.061 0.265-0.092 0.403-0.092 0.104 0 0.208 0.018 0.309 0.053 0.235 0.082 0.423 0.251 0.531 0.476s0.122 0.477 0.039 0.712c-0.086 0.246-0.266 0.432-0.486 0.534-0.023-0.083-0.052-0.164-0.090-0.243-0.163-0.339-0.448-0.594-0.803-0.719zM21.891 6.317c0.033-0.308-0.020-0.619-0.157-0.905-0.027-0.056-0.056-0.109-0.088-0.16 0.050-0.083 0.092-0.171 0.125-0.264 0.004-0.010 0.006-0.021 0.009-0.031 0.122-0.028 0.243-0.069 0.358-0.125 0.129-0.062 0.248-0.139 0.356-0.229 0.149 0.092 0.269 0.225 0.346 0.386 0.108 0.224 0.122 0.477 0.039 0.712-0.147 0.419-0.564 0.666-0.988 0.616zM22.623 6.959c0.438-0.174 0.801-0.529 0.969-1.008 0.068-0.193 0.099-0.393 0.095-0.592 0.49 0.408 0.939 0.859 1.339 1.348-0.427 0.022-0.828 0.191-1.143 0.487-0.194 0.182-0.343 0.399-0.44 0.638-0.251-0.31-0.524-0.602-0.82-0.873zM23.091 10.942c-0.193-0.207-0.295-0.476-0.285-0.759s0.128-0.545 0.335-0.738c0.094-0.088 0.201-0.156 0.316-0.204 0.082 0.188 0.196 0.363 0.34 0.517 0.147 0.157 0.318 0.284 0.505 0.378 0.012 0.306 0.116 0.597 0.3 0.841-0.005 0.005-0.009 0.009-0.014 0.014-0.207 0.193-0.475 0.294-0.759 0.285s-0.545-0.128-0.738-0.335zM23.862 12.032c0.001 0 0.003 0 0.004 0 0.462 0 0.899-0.172 1.238-0.489 0.032-0.030 0.062-0.061 0.091-0.093 0.101 0.045 0.206 0.079 0.313 0.1 0.072 0.294 0.216 0.567 0.427 0.796-0.052 0.182-0.151 0.347-0.293 0.48-0.427 0.399-1.098 0.377-1.497-0.050-0.196-0.209-0.29-0.478-0.284-0.744zM24.779 18.752c-0.279 0.019-0.551-0.143-0.658-0.417-0.104-0.267-0.021-0.562 0.186-0.738 0.168 0.214 0.393 0.372 0.643 0.46 0.013 0.060 0.029 0.12 0.051 0.179-0.108 0.156-0.183 0.332-0.222 0.517zM24.806 16.965c-0.064-0.164-0.060-0.342 0.010-0.503s0.2-0.285 0.363-0.349c0.078-0.031 0.159-0.045 0.238-0.045 0.263 0 0.512 0.159 0.613 0.418 0.018 0.045 0.028 0.091 0.036 0.138-0.13 0.006-0.259 0.031-0.383 0.080-0.275 0.107-0.494 0.308-0.627 0.569-0.11-0.072-0.199-0.177-0.25-0.308zM27.159 29.828c0 0.504-0.451 0.914-1.005 0.914s-1.005-0.41-1.005-0.914v-9.803c0.125 0.129 0.275 0.233 0.445 0.308 0.182 0.080 0.374 0.12 0.567 0.12 0.174 0 0.348-0.032 0.514-0.098 0.185-0.072 0.348-0.181 0.484-0.318v9.791zM28.059 18.501c-0.071 0.161-0.2 0.285-0.363 0.349-0.043 0.017-0.087 0.027-0.131 0.034-0.014-0.122-0.042-0.242-0.087-0.359-0.054-0.139-0.128-0.263-0.217-0.373 0.053-0.18 0.064-0.367 0.030-0.55 0.055-0.015 0.111-0.022 0.167-0.022 0.090 0 0.179 0.019 0.264 0.056 0.161 0.070 0.285 0.199 0.349 0.363s0.060 0.342-0.010 0.503zM27.993 11.891c-0.426 0.399-1.098 0.377-1.497-0.050-0.093-0.1-0.165-0.215-0.213-0.339 0.201-0.066 0.391-0.175 0.556-0.328 0.294-0.275 0.464-0.649 0.477-1.051 0.001-0.021 0.001-0.041 0.001-0.062 0.267 0.011 0.529 0.123 0.726 0.333 0.193 0.207 0.294 0.476 0.285 0.759s-0.128 0.545-0.335 0.738zM28.3 9.625c-0.353-0.244-0.775-0.348-1.189-0.313-0.056-0.096-0.123-0.187-0.201-0.27v-0c-0.013-0.014-0.027-0.026-0.040-0.039 0.038-0.137 0.060-0.279 0.065-0.424 0.005-0.163-0.011-0.323-0.047-0.478 0.167-0.105 0.358-0.161 0.558-0.161 0.012 0 0.024 0 0.036 0.001 0.283 0.009 0.545 0.128 0.738 0.335 0.353 0.378 0.375 0.947 0.080 1.35z"></path>
</svg>
