<!-- Generated by IcoMoon.io -->
<svg version="1.1" xmlns="http://www.w3.org/2000/svg" width="32" height="32" viewBox="0 0 32 32">
<title>balloon</title>
<path d="M29.935 20.89l0.517 1.453c0.022 0.062 0.066 0.111 0.121 0.136l1.291 0.581c0.182 0.082 0.182 0.373 0 0.455l-1.291 0.581c-0.055 0.025-0.099 0.074-0.121 0.136l-0.517 1.453c-0.073 0.205-0.331 0.205-0.404 0l-0.517-1.453c-0.022-0.062-0.066-0.111-0.121-0.136l-1.291-0.581c-0.182-0.082-0.182-0.373 0-0.455l1.291-0.581c0.055-0.025 0.099-0.074 0.121-0.136l0.517-1.453c0.073-0.205 0.331-0.205 0.404 0z"></path>
<path d="M15.206 22.849c0 0.623-0.505 1.128-1.128 1.128s-1.128-0.505-1.128-1.128c0-0.623 0.505-1.128 1.128-1.128s1.128 0.505 1.128 1.128z"></path>
<path d="M18.584 26.498c0.103 0.248-0.015 0.533-0.263 0.636s-0.533-0.015-0.636-0.263c-0.103-0.248 0.015-0.533 0.263-0.636s0.533 0.015 0.636 0.263z"></path>
<path d="M2.781 16.407l0.383 1.078c0.016 0.046 0.049 0.083 0.090 0.101l0.957 0.431c0.135 0.061 0.135 0.276 0 0.337l-0.957 0.431c-0.041 0.018-0.074 0.055-0.090 0.101l-0.383 1.078c-0.054 0.152-0.246 0.152-0.3 0l-0.383-1.078c-0.016-0.046-0.049-0.083-0.090-0.101l-0.957-0.431c-0.135-0.061-0.135-0.276 0-0.337l0.957-0.431c0.041-0.018 0.073-0.055 0.090-0.101l0.383-1.078c0.054-0.152 0.246-0.152 0.3 0z"></path>
<path d="M31.874 9.978c-0.177-2.622-2.368-4.694-5.001-4.723-1.648-0.020-3.203 0.768-4.168 2.106-0.789-1.146-2.006-1.909-3.357-2.13-0.006-0.050-0.012-0.101-0.020-0.15-0.089-1.321-0.666-2.552-1.627-3.47-0.973-0.93-2.251-1.45-3.597-1.465-1.738-0.021-3.375 0.817-4.381 2.237-0.975-1.442-2.592-2.314-4.33-2.333-0.020-0-0.040-0-0.060-0-2.801 0-5.109 2.166-5.283 4.962-0.553 3.396 3.576 8.010 7.146 11.289 0.203 0.187 0.425 0.348 0.659 0.484l-0.41 0.71c-0.329 0.571-0.329 1.252 0 1.822s0.919 0.911 1.578 0.911h0.045c-0.037 0.357-0.131 0.574-0.245 0.832-0.172 0.392-0.368 0.836-0.368 1.683s0.195 1.291 0.368 1.683c0.146 0.332 0.261 0.594 0.261 1.177s-0.115 0.845-0.261 1.177c-0.172 0.392-0.368 0.836-0.368 1.683s0.195 1.291 0.368 1.683c0.146 0.332 0.261 0.594 0.261 1.177 0 0.347 0.282 0.629 0.629 0.629s0.629-0.282 0.629-0.629c0-0.847-0.195-1.291-0.368-1.683-0.146-0.332-0.261-0.594-0.261-1.177s0.115-0.845 0.261-1.177c0.172-0.392 0.368-0.836 0.368-1.683s-0.195-1.291-0.368-1.683c-0.146-0.332-0.261-0.594-0.261-1.177s0.115-0.845 0.261-1.177c0.147-0.335 0.311-0.709 0.355-1.338h0.020c0.659 0 1.249-0.341 1.578-0.911s0.329-1.252 0-1.822l-0.388-0.672c0.259-0.142 0.502-0.315 0.724-0.518 0.761-0.694 1.548-1.451 2.309-2.246 1.335 2.313 3.619 4.707 5.704 6.621 0.187 0.172 0.391 0.322 0.607 0.449l-0.375 0.649c-0.319 0.552-0.319 1.212 0 1.764 0.303 0.525 0.834 0.848 1.433 0.879 0.051 0.134 0.105 0.252 0.156 0.362 0.143 0.31 0.256 0.555 0.256 1.097s-0.113 0.787-0.256 1.097c-0.166 0.359-0.372 0.806-0.372 1.625s0.207 1.266 0.372 1.625c0.143 0.31 0.256 0.555 0.256 1.097 0 0.347 0.282 0.629 0.629 0.629s0.629-0.282 0.629-0.629c0-0.819-0.207-1.266-0.372-1.625-0.143-0.31-0.256-0.555-0.256-1.097s0.113-0.787 0.256-1.097c0.166-0.359 0.372-0.806 0.372-1.625 0-0.696-0.149-1.123-0.296-1.456 0.631-0.005 1.196-0.334 1.512-0.882 0.319-0.552 0.319-1.212 0-1.764l-0.353-0.612c0.238-0.134 0.462-0.295 0.668-0.482v-0c3.352-3.057 7.235-7.391 6.73-10.705zM10.84 18.122c0.147 0.255 0.049 0.48 0 0.564s-0.195 0.282-0.489 0.282h-1.327c-0.294 0-0.44-0.197-0.489-0.282s-0.147-0.31 0-0.564l0.518-0.897c0.222 0.041 0.448 0.062 0.677 0.062h0.001c0.202 0 0.402-0.017 0.599-0.049zM11.418 15.374v0c-0.964 0.879-2.413 0.879-3.371-0.001-4.669-4.288-7.13-8-6.751-10.184 0.004-0.024 0.007-0.048 0.008-0.072 0.119-2.145 1.885-3.81 4.030-3.81 0.015 0 0.030 0 0.046 0 1.33 0.015 2.567 0.684 3.31 1.791 0.228 0.339 0.609 0.545 1.020 0.549 0.411 0.006 0.797-0.192 1.032-0.527 0.758-1.078 1.991-1.718 3.304-1.718 0.015 0 0.030 0 0.045 0 2.105 0.023 3.855 1.686 3.984 3.785 0.001 0.020 0.004 0.041 0.007 0.061 0.361 2.244-2.068 5.935-6.664 10.126zM23.741 22.406c0.132 0.229 0.044 0.43 0 0.507s-0.175 0.253-0.439 0.253h-1.263c-0.264 0-0.395-0.177-0.439-0.253s-0.132-0.278 0-0.507l0.482-0.836c0.206 0.036 0.416 0.056 0.628 0.056h0.001c0.187 0 0.372-0.015 0.554-0.043zM24.297 19.753c-0.906 0.826-2.267 0.825-3.167-0.001-2.722-2.5-4.653-4.791-5.656-6.667 1.911-2.146 3.5-4.486 3.836-6.583 0.965 0.202 1.825 0.774 2.386 1.61 0.222 0.331 0.595 0.532 0.996 0.536 0.005 0 0.009 0 0.014 0 0.396 0 0.767-0.192 0.994-0.514 0.724-1.029 1.907-1.635 3.161-1.621 1.987 0.022 3.639 1.591 3.761 3.573 0.001 0.020 0.004 0.041 0.007 0.061 0.342 2.125-1.966 5.627-6.331 9.607z"></path>
<path d="M3.461 6.602c-0.314 0-0.585-0.235-0.624-0.554-0.219-1.827 0.796-2.791 0.84-2.831 0 0 0.479-0.469 0.928 0.034 0.402 0.451-0.066 0.882-0.066 0.882-0.024 0.024-0.592 0.601-0.452 1.765 0.041 0.345-0.205 0.658-0.55 0.699-0.025 0.003-0.051 0.005-0.076 0.005z"></path>
</svg>
