<!-- Generated by IcoMoon.io -->
<svg version="1.1" xmlns="http://www.w3.org/2000/svg" width="32" height="32" viewBox="0 0 32 32">
<title>bells</title>
<path d="M5.336 4.714l0.515 1.447c0.022 0.062 0.066 0.111 0.121 0.136l1.286 0.579c0.182 0.082 0.182 0.371 0 0.453l-1.286 0.579c-0.055 0.025-0.099 0.074-0.121 0.136l-0.515 1.447c-0.073 0.204-0.33 0.204-0.403 0l-0.515-1.447c-0.022-0.062-0.066-0.111-0.121-0.136l-1.286-0.579c-0.182-0.082-0.182-0.371 0-0.453l1.286-0.579c0.055-0.025 0.099-0.074 0.121-0.136l0.515-1.447c0.073-0.205 0.33-0.205 0.403 0z"></path>
<path d="M23.677 1.426l0.382 1.074c0.016 0.046 0.049 0.082 0.090 0.101l0.954 0.43c0.135 0.061 0.135 0.275 0 0.336l-0.954 0.43c-0.041 0.018-0.073 0.055-0.090 0.101l-0.382 1.074c-0.054 0.152-0.245 0.152-0.299 0l-0.382-1.074c-0.016-0.046-0.049-0.082-0.090-0.101l-0.954-0.43c-0.135-0.061-0.135-0.275 0-0.336l0.954-0.43c0.041-0.018 0.073-0.055 0.090-0.101l0.382-1.074c0.054-0.152 0.245-0.152 0.299 0z"></path>
<path d="M28.971 6.478c0.604 0.143 0.978 0.748 0.835 1.352s-0.748 0.978-1.352 0.835c-0.604-0.143-0.978-0.748-0.835-1.352s0.748-0.978 1.352-0.835z"></path>
<path d="M9.93 3.167c0.261 0.062 0.422 0.323 0.36 0.584s-0.323 0.422-0.584 0.36c-0.261-0.062-0.422-0.323-0.36-0.584s0.323-0.422 0.584-0.36z"></path>
<path d="M31.79 21.078l-0.017-0.030c-0.21-0.365-0.551-0.627-0.958-0.737-0.259-0.070-0.525-0.072-0.778-0.011-0.361-0.345-0.858-0.914-1.516-1.853-0.821-1.171-1.533-2.395-1.884-3.021l-0.025-0.045c-0.435-0.756-0.993-1.412-1.643-1.949 0.013-0.274-0.017-0.548-0.090-0.813 1.043-0.772 1.384-2.218 0.743-3.387-0.339-0.618-0.898-1.066-1.574-1.264-0.441-0.129-0.898-0.14-1.333-0.038-0.025-0.053-0.050-0.105-0.078-0.156-0.339-0.618-0.898-1.066-1.574-1.264s-1.389-0.119-2.006 0.22h0c-0.612 0.335-1.057 0.887-1.257 1.555-0.222 0.019-0.443 0.066-0.659 0.144 0.002-0.068 0.002-0.136-0.002-0.204-0.035-0.628-0.312-1.204-0.78-1.623s-1.072-0.631-1.699-0.596c-0.601 0.033-1.155 0.289-1.569 0.722-0.286-0.099-0.59-0.143-0.901-0.126-0.628 0.035-1.204 0.312-1.623 0.78s-0.631 1.072-0.597 1.7c0.015 0.275 0.078 0.537 0.179 0.778-0.008 0.009-0.017 0.018-0.026 0.027-0.419 0.468-0.631 1.072-0.597 1.699 0.005 0.098 0.017 0.193 0.034 0.287-1.193 0.49-2.247 1.293-3.059 2.352l-0.032 0.043c-0.451 0.603-1.359 1.779-2.374 2.885-0.823 0.896-1.422 1.424-1.847 1.734-0.659-0.261-1.438-0.067-1.889 0.523l-0.022 0.029c-0.545 0.711-0.409 1.733 0.302 2.278l5.477 4.194c-0.198 0.301-0.338 0.64-0.41 1.004-0.302 1.527 0.695 3.016 2.223 3.317 0.184 0.036 0.367 0.054 0.548 0.054 0.818 0 1.583-0.359 2.11-0.952l1.331 1.019c0.287 0.219 0.63 0.335 0.985 0.335 0.072 0 0.145-0.005 0.217-0.014 0.43-0.057 0.813-0.278 1.076-0.623l0.022-0.029c0.264-0.345 0.378-0.771 0.321-1.202-0.031-0.231-0.109-0.447-0.228-0.64 0.195-0.533 0.577-1.337 1.314-2.529 0.224-0.362 0.453-0.715 0.672-1.043 0.072 0.153 0.144 0.309 0.215 0.466 0.544 1.208 0.804 2.009 0.923 2.532-0.135 0.168-0.235 0.364-0.293 0.578-0.11 0.407-0.054 0.833 0.156 1.198l0.017 0.030c0.292 0.507 0.824 0.791 1.371 0.791 0.267 0 0.538-0.068 0.785-0.21l5.904-3.399c0.495 0.714 1.319 1.176 2.236 1.176 0.058 0 0.117-0.002 0.176-0.006 0.726-0.047 1.39-0.373 1.87-0.919s0.719-1.246 0.672-1.972c-0.023-0.353-0.113-0.685-0.255-0.986l1.137-0.655c0.754-0.434 1.015-1.401 0.58-2.156zM23.696 9.173c0.355 0.104 0.648 0.339 0.826 0.663s0.219 0.698 0.115 1.053c-0.070 0.241-0.202 0.452-0.38 0.619-0.319-0.342-0.725-0.593-1.186-0.727-0.175-0.051-0.352-0.083-0.529-0.097-0.017-0.044-0.036-0.088-0.056-0.131 0.162-0.232 0.287-0.492 0.369-0.771 0.060-0.204 0.094-0.412 0.103-0.62 0.243-0.064 0.496-0.060 0.738 0.011zM15.58 13.142c-0.196 0.219-0.466 0.348-0.759 0.365s-0.576-0.083-0.794-0.279c-0.219-0.196-0.348-0.466-0.365-0.759-0.009-0.168 0.020-0.332 0.083-0.482 0.588 0.179 1.288-0.012 1.699-0.44 0.010 0.008 0.020 0.017 0.030 0.025 0.076 0.295 0.21 0.588 0.386 0.841-0.001 0.27-0.098 0.527-0.279 0.729zM10.774 11.517c-0.013-0.234 0.048-0.46 0.173-0.653 0.481 0.352 1.14 0.516 1.751 0.409-0.192 0.348-0.293 0.739-0.291 1.143-0.141 0.079-0.302 0.129-0.474 0.139-0.606 0.034-1.126-0.432-1.159-1.038zM15.202 10.263c0.030 0.541-0.386 1.006-0.928 1.036-0.262 0.014-0.514-0.074-0.71-0.249s-0.311-0.416-0.326-0.678 0.074-0.514 0.249-0.71c0.345-0.401 1.001-0.438 1.388-0.077 0.196 0.175 0.312 0.416 0.326 0.678zM17.608 14.431c-0.159-0.291-0.208-0.621-0.142-0.943 0.187 0.041 0.377 0.062 0.565 0.062 0.437 0 0.87-0.11 1.265-0.326 0.114-0.063 0.221-0.133 0.323-0.211 0.029 0.019 0.058 0.038 0.088 0.056-0.047 0.495 0.047 0.993 0.278 1.444-0.121 0.189-0.288 0.351-0.498 0.466-0.669 0.367-1.512 0.121-1.879-0.548zM21.772 10.809c0.155 0.283 0.191 0.609 0.1 0.918s-0.296 0.565-0.578 0.72c-0.283 0.155-0.609 0.191-0.918 0.1s-0.565-0.296-0.72-0.578-0.191-0.609-0.101-0.918c0.090-0.309 0.296-0.565 0.578-0.72 0.18-0.099 0.378-0.149 0.579-0.149 0.113 0 0.228 0.016 0.34 0.049 0.31 0.090 0.565 0.296 0.72 0.578zM21.119 13.978c-0.11-0.201-0.166-0.421-0.169-0.644 0.244-0.030 0.484-0.106 0.706-0.228 0.454-0.249 0.784-0.658 0.933-1.153 0.044 0.008 0.087 0.018 0.131 0.031 0.355 0.104 0.648 0.339 0.826 0.663s0.219 0.698 0.115 1.053c-0.104 0.355-0.339 0.648-0.663 0.826s-0.698 0.219-1.053 0.115c-0.355-0.104-0.648-0.339-0.826-0.663zM18.994 8.657c0.103-0.355 0.339-0.648 0.663-0.826 0.207-0.113 0.434-0.171 0.664-0.171 0.13 0 0.261 0.019 0.389 0.056 0.355 0.104 0.648 0.339 0.826 0.663s0.219 0.698 0.115 1.053c-0.020 0.069-0.046 0.135-0.075 0.199-0.1-0.049-0.204-0.090-0.313-0.121-0.502-0.146-1.032-0.089-1.49 0.163-0.166 0.091-0.315 0.203-0.445 0.333-0.085-0.087-0.159-0.186-0.219-0.296-0.178-0.324-0.219-0.698-0.115-1.053zM17.736 9.561c0.052 0.26 0.144 0.513 0.275 0.751 0.189 0.345 0.448 0.637 0.757 0.863-0.032 0.285-0.001 0.571 0.092 0.842-0.052 0.040-0.107 0.077-0.166 0.109-0.324 0.178-0.698 0.219-1.053 0.115s-0.648-0.339-0.826-0.663c-0.178-0.324-0.219-0.698-0.115-1.053s0.339-0.648 0.663-0.826c0.12-0.066 0.246-0.111 0.373-0.138zM13.967 7.622c0.196-0.219 0.466-0.348 0.759-0.365s0.575 0.083 0.794 0.279 0.348 0.466 0.365 0.759-0.083 0.575-0.279 0.794c-0.026 0.029-0.054 0.057-0.083 0.083-0.045-0.051-0.094-0.101-0.146-0.147-0.345-0.309-0.791-0.465-1.253-0.44-0.136 0.008-0.269 0.031-0.397 0.069-0.021-0.077-0.035-0.156-0.039-0.237-0.016-0.293 0.083-0.576 0.279-0.794zM11.497 8.218c0.245-0.277 0.624-0.411 0.988-0.353-0.043 0.201-0.059 0.409-0.048 0.62 0.019 0.348 0.114 0.679 0.273 0.977-0.101 0.177-0.169 0.37-0.202 0.572-0.043 0.008-0.087 0.014-0.131 0.016-0.605 0.034-1.126-0.432-1.159-1.038-0.016-0.293 0.083-0.576 0.279-0.794zM8.169 29.003c-0.85-0.168-1.404-0.996-1.236-1.845 0.034-0.172 0.096-0.334 0.181-0.481l2.472 1.893c-0.358 0.359-0.883 0.539-1.416 0.433zM13.22 29.26l-0.022 0.029c-0.060 0.079-0.148 0.13-0.246 0.143s-0.196-0.013-0.275-0.073l-11.278-8.636c-0.163-0.125-0.194-0.358-0.069-0.521l0.022-0.029c0.125-0.163 0.359-0.194 0.521-0.069l11.278 8.636c0.163 0.125 0.194 0.358 0.069 0.521zM14.559 24.987c-0.585 0.945-0.982 1.696-1.245 2.298l-9.989-7.649c0.469-0.383 1.025-0.911 1.69-1.636 1.052-1.146 1.989-2.36 2.454-2.982l0.024-0.032c0.69-0.901 1.59-1.58 2.608-1.983 0.609 0.73 1.754 1.021 2.652 0.633 0.689 1.188 2.429 1.492 3.475 0.61 0.051 0.272 0.144 0.537 0.281 0.787 0.231 0.421 0.562 0.753 0.946 0.985 0.204 0.491 0.34 1.015 0.403 1.563 0.178 1.562-0.26 3.123-1.235 4.396-0.011 0.014-1.078 1.416-2.064 3.009zM17.618 22.74c1.173-1.532 1.7-3.414 1.485-5.3-0.041-0.355-0.107-0.703-0.198-1.040 0.402-0.012 0.808-0.116 1.184-0.322 0.288-0.158 0.535-0.363 0.737-0.6 0.232 0.161 0.49 0.285 0.768 0.366 0.245 0.071 0.494 0.107 0.742 0.107 0.437 0 0.87-0.11 1.264-0.326 0.391-0.214 0.714-0.517 0.949-0.882 0.375 0.37 0.704 0.793 0.975 1.264l0.018 0.033c0.363 0.646 1.098 1.913 1.951 3.128 0.528 0.753 0.98 1.314 1.372 1.733l-10.335 5.951c-0.174-0.599-0.454-1.348-0.881-2.297-0.177-0.393-0.359-0.774-0.535-1.129 0.301-0.419 0.499-0.68 0.503-0.685zM29.077 24.955c0.025 0.392-0.104 0.769-0.363 1.064s-0.617 0.471-1.009 0.496c-0.496 0.032-0.95-0.188-1.24-0.549l2.515-1.448c0.053 0.137 0.087 0.284 0.097 0.438zM30.736 21.951c-0.023 0.084-0.077 0.154-0.152 0.198l-11.74 6.76c-0.155 0.090-0.355 0.036-0.445-0.12l-0.017-0.030c-0.043-0.075-0.055-0.163-0.032-0.247s0.077-0.154 0.152-0.198l11.74-6.76c0.050-0.029 0.106-0.044 0.162-0.044 0.028 0 0.057 0.004 0.085 0.011 0.084 0.023 0.154 0.077 0.198 0.152l0.017 0.030c0.043 0.075 0.055 0.163 0.032 0.247z"></path>
<path d="M8.676 16.521c-0.153 0-0.307-0.056-0.428-0.169-0.253-0.236-0.266-0.633-0.030-0.886 0.151-0.161 0.936-0.979 1.57-1.243 0.319-0.133 0.686 0.018 0.819 0.338s-0.018 0.686-0.338 0.819c-0.234 0.097-0.733 0.511-1.136 0.942-0.123 0.132-0.29 0.199-0.458 0.199z"></path>
</svg>
