<!-- Generated by IcoMoon.io -->
<svg version="1.1" xmlns="http://www.w3.org/2000/svg" width="32" height="32" viewBox="0 0 32 32">
<title>bouquet</title>
<path d="M28.385 16.111l0.517 1.455c0.022 0.062 0.066 0.112 0.121 0.137l1.293 0.582c0.183 0.082 0.183 0.373 0 0.456l-1.293 0.582c-0.055 0.025-0.099 0.074-0.121 0.137l-0.517 1.455c-0.073 0.206-0.332 0.206-0.405 0l-0.517-1.455c-0.022-0.062-0.066-0.112-0.121-0.137l-1.293-0.582c-0.183-0.082-0.183-0.373 0-0.456l1.293-0.582c0.055-0.025 0.099-0.074 0.121-0.137l0.517-1.455c0.073-0.206 0.332-0.206 0.405 0z"></path>
<path d="M3.381 13.512l0.384 1.079c0.016 0.046 0.049 0.083 0.090 0.101l0.959 0.432c0.135 0.061 0.135 0.277 0 0.338l-0.959 0.432c-0.041 0.018-0.074 0.055-0.090 0.101l-0.384 1.079c-0.054 0.152-0.246 0.152-0.3 0l-0.384-1.079c-0.016-0.046-0.049-0.083-0.090-0.101l-0.959-0.432c-0.135-0.061-0.135-0.277 0-0.338l0.959-0.432c0.041-0.018 0.074-0.055 0.090-0.101l0.384-1.079c0.054-0.152 0.246-0.152 0.3 0z"></path>
<path d="M23.908 26.471l0.384 1.079c0.016 0.046 0.049 0.083 0.090 0.101l0.959 0.432c0.135 0.061 0.135 0.277 0 0.338l-0.959 0.432c-0.041 0.018-0.074 0.055-0.090 0.101l-0.384 1.079c-0.054 0.152-0.246 0.152-0.3 0l-0.384-1.079c-0.016-0.046-0.049-0.083-0.090-0.101l-0.959-0.432c-0.135-0.061-0.135-0.277 0-0.338l0.959-0.432c0.041-0.018 0.074-0.055 0.090-0.101l0.384-1.079c0.054-0.152 0.246-0.152 0.3 0z"></path>
<path d="M4.633 23.065c0 0.624-0.506 1.13-1.13 1.13s-1.13-0.506-1.13-1.13c0-0.624 0.506-1.13 1.13-1.13s1.13 0.506 1.13 1.13z"></path>
<path d="M28.796 24.959c0 0.269-0.218 0.487-0.487 0.487s-0.487-0.218-0.487-0.487c0-0.269 0.218-0.487 0.487-0.487s0.487 0.218 0.487 0.487z"></path>
<path d="M27.445 8.068c-0.195-0.381-0.476-0.699-0.82-0.934 0.016-0.042 0.031-0.084 0.045-0.126 0.428-1.322-0.299-2.746-1.621-3.174h-0c-0.645-0.209-1.313-0.142-1.879 0.133-0.253-0.221-0.55-0.392-0.879-0.498-0.36-0.117-0.727-0.147-1.080-0.104-0.050-0.235-0.134-0.466-0.255-0.687-0.324-0.59-0.858-1.019-1.504-1.207-0.411-0.12-0.835-0.132-1.242-0.043-0.019-0.040-0.040-0.080-0.061-0.12-0.668-1.218-2.203-1.666-3.421-0.998-0.594 0.326-1.004 0.858-1.192 1.459-0.334 0.033-0.662 0.131-0.965 0.298-0.59 0.324-1.019 0.858-1.207 1.504-0.016 0.055-0.030 0.11-0.042 0.166-0.279-0.074-0.572-0.1-0.869-0.074h-0c-0.675 0.059-1.264 0.381-1.677 0.855-0.319-0.105-0.66-0.145-1.004-0.115h-0c-1.384 0.121-2.412 1.346-2.29 2.731 0.027 0.304 0.107 0.594 0.234 0.862-0.446 0.5-0.694 1.175-0.631 1.894 0.091 1.041 0.807 1.88 1.745 2.18 0.367 1.144 0.923 2.651 1.693 4.171 0.918 1.812 1.952 3.263 3.073 4.311 0.148 0.138 0.298 0.269 0.449 0.394l-4.5 5.199c-0.008 0.009-0.016 0.019-0.023 0.029-0.274 0.357-0.381 0.803-0.301 1.257 0.085 0.484 0.379 0.918 0.806 1.191l0.79 0.504c0.297 0.189 0.634 0.288 0.973 0.288 0.101 0 0.203-0.009 0.303-0.026 0.288-0.051 0.548-0.171 0.762-0.348l-0.187 0.616c-0.003 0.011-0.006 0.022-0.009 0.033-0.116 0.472-0.028 0.976 0.241 1.381s0.698 0.682 1.178 0.76l0.925 0.15c0.094 0.015 0.188 0.023 0.28 0.023 0.842 0 1.586-0.612 1.724-1.469l0.361-2.229h3.079c0.4 0 0.784-0.18 1.053-0.495 0.302-0.351 0.433-0.824 0.36-1.297-0.123-0.799-0.294-1.508-0.511-2.122 0.639-0.25 1.093-0.872 1.093-1.599v-0.067c0-0.481-0.199-0.916-0.519-1.229 0.404-0.267 0.799-0.582 1.181-0.945 1.106-1.050 2.12-2.501 3.012-4.315 0.843-1.714 1.414-3.411 1.757-4.59 0.163-0.045 0.323-0.106 0.477-0.185 0.6-0.306 1.044-0.827 1.251-1.468s0.153-1.323-0.153-1.923zM24.661 5.032c0.661 0.214 1.025 0.926 0.811 1.587-0.104 0.32-0.326 0.581-0.626 0.734-0.051 0.026-0.102 0.048-0.155 0.066-0.029-0.087-0.066-0.173-0.108-0.257-0.227-0.444-0.613-0.773-1.087-0.926-0.159-0.052-0.321-0.080-0.481-0.088 0.007-0.102 0.026-0.204 0.058-0.306 0.172-0.533 0.668-0.872 1.2-0.872 0.128 0 0.259 0.020 0.388 0.061zM23.847 10.748c-0.214 0.661-0.927 1.025-1.587 0.811-0.114-0.037-0.219-0.090-0.314-0.154 0.058-0.561-0.070-1.143-0.403-1.647 0.058-0.107 0.131-0.203 0.215-0.287 0.173 0.138 0.371 0.245 0.588 0.316 0.19 0.062 0.384 0.091 0.574 0.091 0.279 0 0.551-0.064 0.798-0.181 0.189 0.304 0.249 0.685 0.13 1.051zM18.182 5.323c0.323 0.094 0.59 0.309 0.752 0.604 0.011 0.020 0.020 0.040 0.030 0.061-0.012 0.006-0.024 0.011-0.037 0.017-0.599 0.306-1.044 0.827-1.251 1.468-0.032 0.099-0.057 0.199-0.077 0.299-0.041-0.008-0.082-0.017-0.123-0.029-0.323-0.094-0.59-0.309-0.752-0.604-0.097-0.177-0.149-0.371-0.154-0.568 0.217-0.030 0.432-0.099 0.635-0.211 0.421-0.231 0.731-0.607 0.878-1.062 0.033 0.007 0.067 0.015 0.099 0.024zM21.865 7.67c0.091-0.282 0.287-0.512 0.551-0.647 0.159-0.081 0.331-0.122 0.504-0.122 0.115 0 0.231 0.018 0.343 0.055 0.282 0.091 0.512 0.287 0.647 0.551s0.159 0.565 0.067 0.847-0.287 0.512-0.551 0.646c-0.264 0.135-0.565 0.159-0.847 0.067s-0.512-0.287-0.646-0.551c-0.135-0.264-0.159-0.565-0.068-0.847zM21.085 8.35c0.002 0.010 0.004 0.019 0.006 0.029-0.193 0.151-0.361 0.328-0.501 0.527-0.52-0.265-1.121-0.344-1.695-0.218-0.096-0.257-0.11-0.546-0.019-0.826 0.089-0.275 0.265-0.505 0.503-0.662 0.303 0.487 0.773 0.874 1.36 1.064 0.115 0.037 0.23 0.066 0.347 0.086zM13.517 12.799c-0.399-0.569-0.261-1.357 0.308-1.756 0.091-0.064 0.187-0.113 0.286-0.15 0.075 0.225 0.183 0.442 0.326 0.646 0.218 0.311 0.496 0.557 0.806 0.735 0.004 0.251 0.058 0.497 0.16 0.726-0.041 0.038-0.083 0.074-0.13 0.107-0.569 0.399-1.357 0.261-1.756-0.308zM11.987 8.322c0.396-0.243 0.717-0.592 0.928-1.004 0.545 0.099 0.98 0.551 1.030 1.129 0.029 0.335-0.074 0.662-0.29 0.92-0.138 0.165-0.312 0.288-0.507 0.364-0.215-0.578-0.633-1.051-1.162-1.339 0.001-0.023 0.001-0.047 0-0.071zM16.037 10.716c-0.136 0.095-0.256 0.206-0.36 0.33-0.077-0.066-0.148-0.142-0.209-0.229-0.399-0.569-0.261-1.357 0.308-1.756s1.357-0.261 1.756 0.308c0.193 0.276 0.268 0.61 0.21 0.942-0.010 0.056-0.025 0.111-0.042 0.165-0.542-0.181-1.16-0.111-1.663 0.241zM16.917 13.337c-0.292-0.051-0.547-0.213-0.717-0.456s-0.236-0.537-0.185-0.829 0.213-0.547 0.456-0.717c0.194-0.136 0.416-0.201 0.636-0.201 0.35 0 0.695 0.165 0.91 0.472 0.352 0.501 0.23 1.195-0.271 1.546-0.243 0.17-0.537 0.236-0.829 0.184zM17.281 4.191c0.143 0.26 0.175 0.56 0.092 0.845s-0.272 0.52-0.532 0.663-0.56 0.175-0.845 0.092c-0.285-0.083-0.52-0.272-0.663-0.532s-0.175-0.56-0.092-0.845c0.083-0.285 0.272-0.52 0.532-0.663 0.166-0.091 0.348-0.137 0.532-0.137 0.104 0 0.209 0.015 0.312 0.045 0.285 0.083 0.52 0.272 0.663 0.532zM14.994 6.486c0.106-0.058 0.206-0.124 0.301-0.195 0.008 0.005 0.016 0.010 0.024 0.015-0.043 0.464 0.044 0.93 0.256 1.354-0.031 0.046-0.066 0.090-0.103 0.133-0.113 0.051-0.224 0.11-0.331 0.179-0.117-0.492-0.378-0.924-0.732-1.254 0.2-0.051 0.396-0.128 0.585-0.231zM11.228 8.243c0.026 0.295-0.065 0.583-0.255 0.81s-0.458 0.367-0.754 0.392c-0.61 0.054-1.149-0.399-1.203-1.009-0.026-0.295 0.065-0.583 0.255-0.81s0.458-0.367 0.754-0.392c0.033-0.003 0.065-0.004 0.098-0.004 0.569 0 1.054 0.436 1.105 1.013zM9.619 10.136c0.16 0.045 0.329 0.069 0.501 0.069 0.054 0 0.109-0.002 0.164-0.007 0.492-0.043 0.923-0.275 1.229-0.618 0.292 0.206 0.495 0.534 0.529 0.917 0.029 0.335-0.074 0.662-0.29 0.92s-0.52 0.416-0.856 0.446c-0.336 0.030-0.662-0.074-0.92-0.29s-0.416-0.52-0.446-0.856c-0.018-0.205 0.015-0.403 0.088-0.582zM14.329 14.584c0.074 0.007 0.149 0.011 0.224 0.011 0.5 0 1.004-0.148 1.444-0.456 0.099-0.070 0.192-0.146 0.278-0.227 0.009 0.004 0.018 0.008 0.027 0.012 0.008 0.466 0.145 0.919 0.402 1.317-0.090 0.175-0.222 0.331-0.394 0.451-0.569 0.399-1.356 0.261-1.756-0.308-0.17-0.243-0.242-0.525-0.225-0.8zM17.788 14.598c-0.116-0.166-0.189-0.353-0.216-0.548 0.212-0.054 0.419-0.146 0.608-0.279 0.405-0.284 0.662-0.701 0.755-1.151 0.356 0.033 0.696 0.215 0.917 0.53 0.399 0.569 0.261 1.357-0.308 1.756s-1.357 0.261-1.756-0.308zM18.75 11.358c-0.011-0.021-0.023-0.042-0.036-0.063 0.128-0.236 0.22-0.494 0.268-0.767 0.033-0.19 0.044-0.38 0.035-0.568 0.137-0.049 0.28-0.074 0.422-0.074 0.397 0 0.789 0.187 1.034 0.536 0.329 0.468 0.292 1.085-0.048 1.511-0.475-0.392-1.073-0.591-1.674-0.576zM21.903 4.667c0.105 0.034 0.203 0.081 0.292 0.138-0.134 0.195-0.243 0.412-0.32 0.649-0.117 0.362-0.147 0.732-0.102 1.087-0.194 0.151-0.36 0.342-0.483 0.564-0.055-0.010-0.109-0.023-0.163-0.041-0.661-0.214-1.025-0.926-0.811-1.587 0.172-0.533 0.668-0.872 1.2-0.872 0.128 0 0.259 0.020 0.388 0.061zM19.1 2.68c0.323 0.094 0.59 0.309 0.752 0.604 0.099 0.18 0.148 0.374 0.153 0.566-0.249 0.186-0.465 0.418-0.633 0.69-0.247-0.191-0.529-0.336-0.837-0.426-0.165-0.048-0.332-0.079-0.499-0.093-0.009-0.021-0.018-0.043-0.027-0.064 0.265-0.382 0.419-0.831 0.446-1.293 0.095-0.023 0.192-0.035 0.29-0.035 0.119 0 0.238 0.017 0.355 0.051zM15.334 1.415c0.609-0.334 1.377-0.11 1.711 0.499 0.196 0.358 0.199 0.77 0.045 1.116-0.083-0.038-0.17-0.071-0.26-0.097-0.479-0.139-0.983-0.084-1.42 0.155-0.146 0.080-0.277 0.177-0.394 0.289-0.069-0.075-0.131-0.159-0.182-0.252-0.334-0.609-0.11-1.377 0.499-1.711zM12.572 3.924c0.094-0.323 0.309-0.59 0.604-0.752 0.096-0.053 0.197-0.092 0.301-0.118 0.050 0.232 0.133 0.46 0.253 0.679 0.183 0.333 0.431 0.608 0.72 0.818-0.024 0.25 0.003 0.501 0.079 0.74-0.045 0.033-0.091 0.064-0.141 0.092-0.445 0.244-0.973 0.189-1.357-0.094-0.111-0.297-0.277-0.57-0.492-0.806-0.030-0.184-0.021-0.373 0.033-0.557zM10.562 4.917c0.692-0.061 1.305 0.453 1.366 1.146 0.036 0.407-0.128 0.785-0.409 1.041-0.379-0.427-0.948-0.677-1.56-0.623-0.165 0.014-0.325 0.051-0.477 0.106-0.033-0.096-0.056-0.198-0.066-0.303-0.061-0.692 0.453-1.305 1.146-1.366zM7.88 5.657c0.109-0.010 0.217-0.004 0.323 0.014-0.047 0.232-0.063 0.474-0.041 0.722 0.033 0.379 0.15 0.731 0.329 1.040-0.122 0.219-0.199 0.46-0.225 0.709-0.054 0.012-0.109 0.021-0.166 0.026-0.335 0.029-0.662-0.074-0.92-0.29s-0.416-0.52-0.446-0.856c-0.061-0.692 0.453-1.305 1.145-1.366zM6.543 8.976c0.424 0.299 0.924 0.457 1.443 0.457 0.075 0 0.149-0.003 0.225-0.010 0.12-0.011 0.239-0.030 0.354-0.056 0.006 0.009 0.011 0.017 0.017 0.026-0.22 0.397-0.335 0.856-0.312 1.339-0.165 0.106-0.358 0.175-0.567 0.194-0.693 0.061-1.305-0.453-1.366-1.145-0.026-0.295 0.053-0.574 0.205-0.803zM13.998 23.247c-0.252 0-0.457-0.205-0.457-0.457v-0.067c0-0.252 0.205-0.457 0.457-0.457h4.725c0.252 0 0.457 0.205 0.457 0.457v0.067c0 0.252-0.205 0.457-0.457 0.457zM10.115 27.991c-0.066 0.103-0.169 0.14-0.244 0.154-0.127 0.022-0.262-0.007-0.38-0.083l-0.79-0.504c-0.13-0.083-0.219-0.21-0.243-0.347-0.012-0.069-0.012-0.169 0.052-0.26l3.776-4.363c-0.003 0.044-0.006 0.089-0.006 0.134v0.067c0 0.3 0.078 0.582 0.213 0.828l-0.373 1.23zM13.2 30.734l-0.925-0.15c-0.136-0.022-0.253-0.097-0.329-0.212-0.074-0.111-0.098-0.243-0.070-0.372l0.848-2.798c0.061 0.222 0.17 0.429 0.321 0.606 0.268 0.312 0.647 0.491 1.043 0.494l-0.328 2.028c-0.043 0.266-0.294 0.447-0.56 0.404zM18.541 26.987c-0.022 0.025-0.056 0.055-0.098 0.055h-4.344c-0.041 0-0.076-0.030-0.098-0.055-0.061-0.071-0.088-0.178-0.071-0.285 0.068-0.44 0.238-1.36 0.577-2.195h3.527c0.339 0.835 0.51 1.755 0.577 2.195 0.016 0.107-0.010 0.214-0.071 0.285zM18.145 21.005h-0.762l1.292-2.591c0.093-0.187 0.017-0.414-0.17-0.507s-0.414-0.017-0.507 0.17l-1.46 2.928h-0.477l-1.559-2.966c-0.097-0.185-0.326-0.256-0.51-0.159s-0.256 0.326-0.159 0.51l1.374 2.615h-0.639c-3.354-1.29-5.415-5.998-6.393-8.885 0.167-0.040 0.328-0.096 0.48-0.167 0.138 0.217 0.309 0.415 0.511 0.584 0.458 0.384 1.024 0.589 1.615 0.589 0.075 0 0.149-0.003 0.225-0.010 0.409-0.036 0.786-0.169 1.113-0.373 0.075 0.271 0.196 0.534 0.366 0.778 0.177 0.253 0.393 0.462 0.634 0.627-0.136 0.657-0.012 1.366 0.403 1.957 0.49 0.698 1.272 1.072 2.067 1.072 0.5 0 1.004-0.148 1.444-0.456 0.247-0.173 0.453-0.384 0.617-0.618 0.363 0.19 0.767 0.288 1.174 0.288 0.5 0 1.004-0.148 1.444-0.456 0.963-0.676 1.309-1.909 0.907-2.961 0.122-0.115 0.23-0.241 0.324-0.374 0.119 0.061 0.244 0.113 0.374 0.155 0.256 0.083 0.518 0.124 0.779 0.124 0.393 0 0.783-0.093 1.143-0.277 0.216-0.11 0.411-0.248 0.582-0.41-0.942 2.89-2.927 7.532-6.232 8.811zM26.4 9.602c-0.104 0.32-0.326 0.581-0.626 0.734-0.191 0.098-0.399 0.142-0.608 0.136 0.020-0.432-0.072-0.863-0.273-1.259-0.078-0.153-0.171-0.296-0.276-0.428 0.009-0.021 0.019-0.041 0.028-0.062 0.266-0.040 0.527-0.122 0.774-0.248 0.171-0.088 0.33-0.193 0.474-0.314 0.462 0.304 0.686 0.889 0.507 1.44z"></path>
</svg>
