<!-- Generated by IcoMoon.io -->
<svg version="1.1" xmlns="http://www.w3.org/2000/svg" width="32" height="32" viewBox="0 0 32 32">
<title>bride-dress</title>
<path d="M3.674 10.153l0.516 1.452c0.022 0.062 0.066 0.111 0.121 0.136l1.29 0.581c0.182 0.082 0.182 0.373 0 0.455l-1.29 0.581c-0.055 0.025-0.099 0.074-0.121 0.136l-0.516 1.452c-0.073 0.205-0.331 0.205-0.404 0l-0.516-1.452c-0.022-0.062-0.066-0.111-0.121-0.136l-1.29-0.581c-0.182-0.082-0.182-0.373 0-0.455l1.29-0.581c0.055-0.025 0.099-0.074 0.121-0.136l0.516-1.452c0.073-0.205 0.331-0.205 0.404 0z"></path>
<path d="M7.417 1.654l0.383 1.077c0.016 0.046 0.049 0.083 0.090 0.101l0.957 0.431c0.135 0.061 0.135 0.276 0 0.337l-0.957 0.431c-0.041 0.018-0.073 0.055-0.090 0.101l-0.383 1.077c-0.054 0.152-0.245 0.152-0.3 0l-0.383-1.077c-0.016-0.046-0.049-0.083-0.090-0.101l-0.957-0.431c-0.135-0.061-0.135-0.276 0-0.337l0.957-0.431c0.041-0.018 0.073-0.055 0.090-0.101l0.383-1.077c0.054-0.152 0.245-0.152 0.3 0z"></path>
<path d="M29.263 11.084l0.383 1.077c0.016 0.046 0.049 0.083 0.090 0.101l0.957 0.431c0.135 0.061 0.135 0.276 0 0.337l-0.957 0.431c-0.041 0.018-0.073 0.055-0.090 0.101l-0.383 1.077c-0.054 0.152-0.245 0.152-0.3 0l-0.383-1.077c-0.016-0.046-0.049-0.083-0.090-0.101l-0.957-0.431c-0.135-0.061-0.135-0.276 0-0.337l0.957-0.431c0.041-0.018 0.073-0.055 0.090-0.101l0.383-1.077c0.054-0.152 0.245-0.152 0.3 0z"></path>
<path d="M27.093 5.781c0.606 0.143 0.981 0.751 0.838 1.357s-0.751 0.981-1.357 0.838c-0.606-0.143-0.981-0.751-0.838-1.357s0.751-0.981 1.357-0.838z"></path>
<path d="M3.818 5.021c0 0.269-0.218 0.486-0.486 0.486s-0.486-0.218-0.486-0.486c0-0.269 0.218-0.486 0.486-0.486s0.486 0.218 0.486 0.486z"></path>
<path d="M24.741 16.088c-1.074-1.521-2.329-2.701-3.699-3.506 0.029-0.102 0.045-0.209 0.045-0.32v-1.297c0-0.302-0.115-0.577-0.302-0.786 1.019-1.606 1.458-2.963 1.305-4.045-0.069-1.176-0.624-2.184-1.432-2.784v-2.72c0-0.347-0.282-0.629-0.629-0.629s-0.629 0.281-0.629 0.629v2.176c-0.168-0.029-0.34-0.043-0.516-0.041-0.917 0.014-1.769 0.485-2.348 1.248-0.601-0.745-1.463-1.191-2.382-1.178-0.143 0.002-0.283 0.016-0.421 0.039v-2.244c0-0.347-0.281-0.629-0.629-0.629s-0.629 0.281-0.629 0.629v2.789c-0.809 0.603-1.364 1.617-1.428 2.783-0.135 1.091 0.299 2.428 1.291 3.989-0.181 0.208-0.292 0.478-0.292 0.775v1.297c0 0.111 0.017 0.219 0.045 0.321-1.37 0.806-2.625 1.985-3.699 3.506-2.12 3.002-3.288 6.983-3.288 11.209 0 1.084 0.662 2.598 3.815 3.652 2.027 0.678 4.743 1.051 7.647 1.051s5.62-0.373 7.647-1.051c3.153-1.054 3.815-2.568 3.815-3.652 0-4.226-1.168-8.207-3.288-11.209zM13.304 12.185v-1.143h6.525v1.143zM12.298 6.339c0.002-0.017 0.004-0.035 0.005-0.052 0.059-1.217 0.88-2.182 1.87-2.196 0.007-0 0.015-0 0.022-0 0.76 0 1.467 0.579 1.765 1.448 0.087 0.254 0.326 0.425 0.595 0.425 0.003 0 0.006 0 0.009-0 0.272-0.004 0.51-0.182 0.591-0.441 0.277-0.887 0.98-1.49 1.748-1.501 0.008-0 0.015-0 0.023-0 1.009 0 1.845 0.965 1.91 2.208 0.001 0.021 0.003 0.042 0.006 0.062 0.144 0.949-0.457 2.234-1.298 3.493h-5.97c-0.82-1.226-1.404-2.483-1.276-3.445zM6.363 27.297c0-6.382 2.834-11.827 6.783-13.859 0.027 0.002 0.054 0.004 0.082 0.004h1.627c-0.443 0.816-1.179 2.298-1.904 4.32-1.006 2.808-2.168 7.218-2.069 12.421-0.558-0.123-1.082-0.265-1.562-0.426-1.104-0.369-2.956-1.179-2.956-2.459zM12.144 30.419c-0.139-5.108 0.996-9.448 1.977-12.196 0.976-2.733 1.995-4.474 2.18-4.781h0.532c0.186 0.307 1.205 2.048 2.18 4.781 0.981 2.748 2.116 7.087 1.977 12.196-1.354 0.212-2.857 0.324-4.423 0.324s-3.069-0.112-4.423-0.324zM23.815 29.756c-0.48 0.161-1.004 0.303-1.562 0.426 0.099-5.203-1.063-9.612-2.069-12.421-0.724-2.022-1.461-3.504-1.904-4.32h1.627c0.027 0 0.053-0.002 0.080-0.004 3.95 2.031 6.785 7.476 6.785 13.859 0 1.28-1.852 2.090-2.956 2.459z"></path>
<path d="M8.459 24.911c-0.026 0-0.052-0.002-0.078-0.005-0.345-0.043-0.59-0.356-0.547-0.701 0.057-0.462 0.146-0.948 0.266-1.444 0.081-0.338 0.42-0.546 0.758-0.464s0.545 0.421 0.464 0.758c-0.108 0.45-0.189 0.889-0.24 1.304-0.039 0.319-0.31 0.552-0.623 0.552z"></path>
<path d="M9.274 21.723c-0.065 0-0.131-0.010-0.196-0.031-0.33-0.108-0.51-0.463-0.402-0.793 0.021-0.063 0.036-0.12 0.048-0.174 0.072-0.34 0.406-0.557 0.746-0.484s0.556 0.406 0.484 0.746c-0.021 0.099-0.048 0.198-0.083 0.304-0.087 0.265-0.333 0.433-0.597 0.433z"></path>
</svg>
