<!-- Generated by IcoMoon.io -->
<svg version="1.1" xmlns="http://www.w3.org/2000/svg" width="32" height="32" viewBox="0 0 32 32">
<title>bride</title>
<path d="M3.325 0.426l0.38 1.069c0.016 0.046 0.049 0.082 0.089 0.1l0.95 0.428c0.134 0.060 0.134 0.274 0 0.335l-0.95 0.428c-0.041 0.018-0.073 0.055-0.089 0.1l-0.38 1.070c-0.054 0.151-0.244 0.151-0.297 0l-0.38-1.069c-0.016-0.046-0.049-0.082-0.089-0.1l-0.95-0.428c-0.134-0.060-0.134-0.274 0-0.335l0.95-0.428c0.041-0.018 0.073-0.055 0.089-0.1l0.38-1.069c0.054-0.151 0.244-0.151 0.298 0z"></path>
<path d="M1.542 6.192c0 0.267-0.216 0.483-0.483 0.483s-0.483-0.216-0.483-0.483c0-0.267 0.216-0.483 0.483-0.483s0.483 0.216 0.483 0.483z"></path>
<path d="M30.568 4.404c0.602 0.142 0.974 0.745 0.832 1.347s-0.745 0.974-1.347 0.832c-0.602-0.142-0.974-0.745-0.832-1.347s0.745-0.974 1.347-0.832z"></path>
<path d="M30.51 18.466c0-0.86-0.343-1.641-0.899-2.215 0.145-0.464 0.129-1.319 0.124-1.811 0-3.401-1.634-6.45-4.203-8.492 0.158-0.109 0.299-0.248 0.413-0.417 0.492-0.73 0.298-1.725-0.432-2.217-0.169-0.114-0.352-0.19-0.539-0.233-0.064-0.428-0.299-0.828-0.686-1.089-0.641-0.432-1.486-0.335-2.016 0.19-0.018-0.054-0.039-0.107-0.064-0.159-0.169-0.351-0.464-0.616-0.832-0.745-0.355-0.125-0.736-0.107-1.078 0.046-0.057-0.044-0.112-0.089-0.172-0.129-1.063-0.771-2.429-1.194-3.87-1.194-1.514 0-2.945 0.466-4.029 1.313-0.896 0.7-1.473 1.591-1.679 2.567-4.713 1.466-8.123 5.645-8.123 10.56-0.008 0.488-0.023 1.339 0.14 1.793-0.566 0.575-0.916 1.364-0.916 2.233 0 1.163 0.627 2.182 1.56 2.739v5.992c0 1.338 1.089 2.427 2.427 2.427h2.081v1.752c0 0.345 0.279 0.624 0.624 0.624s0.624-0.279 0.624-0.624v-2.092c0-1.67 0.579-3.208 1.546-4.423 0.584 0.2 1.19 0.35 1.815 0.445-0.513 0.473-0.936 1.042-1.242 1.677-0.009 0.016-0.018 0.033-0.025 0.051-0.334 0.712-0.52 1.506-0.52 2.342v2.236c0 0.207 0.168 0.375 0.375 0.375s0.375-0.168 0.375-0.375v-2.236c0-0.694 0.149-1.354 0.415-1.95 0.472-0.288 1.013-0.44 1.57-0.44 0.866 0 1.692 0.373 2.266 1.023 0.137 0.155 0.334 0.244 0.54 0.244h0c0.206 0 0.403-0.089 0.54-0.244 0.574-0.65 1.399-1.023 2.265-1.023 0.557 0 1.098 0.152 1.57 0.44 0.267 0.596 0.416 1.255 0.416 1.949v2.236c0 0.207 0.168 0.375 0.375 0.375s0.375-0.168 0.375-0.375v-2.236c0-1.608-0.689-3.058-1.787-4.071 0.625-0.095 1.231-0.244 1.815-0.445 0.968 1.215 1.547 2.753 1.547 4.423v2.092c0 0.345 0.279 0.624 0.624 0.624s0.624-0.279 0.624-0.624v-1.752h1.937c1.338 0 2.427-1.089 2.427-2.427v-5.912c1.012-0.534 1.703-1.597 1.703-2.819zM18.549 4.458c-0.11 0.015-0.222 0.004-0.329-0.033-0.179-0.063-0.323-0.192-0.405-0.363s-0.093-0.364-0.030-0.543c0.052-0.149 0.151-0.273 0.281-0.358 0.175 0.29 0.442 0.509 0.766 0.623 0.014 0.005 0.027 0.008 0.041 0.013 0.006 0.050 0.014 0.099 0.026 0.147-0.151 0.143-0.27 0.317-0.349 0.514zM21.524 3.971c0.098-0.047 0.187-0.104 0.271-0.17 0.251 0.179 0.366 0.508 0.259 0.814-0.063 0.179-0.192 0.323-0.363 0.405-0.105 0.050-0.218 0.074-0.331 0.070 0.018-0.293-0.055-0.58-0.199-0.827 0.034-0.061 0.064-0.125 0.088-0.193 0.094-0.024 0.186-0.057 0.275-0.099zM23.364 4.642c0.13 0.088 0.219 0.221 0.249 0.375s-0.002 0.311-0.090 0.441c-0.181 0.269-0.547 0.34-0.816 0.159l0 0c-0.105-0.071-0.18-0.17-0.221-0.281 0.119-0.137 0.213-0.296 0.275-0.473 0.033-0.094 0.056-0.189 0.069-0.284 0.030-0.011 0.061-0.021 0.094-0.027 0.154-0.030 0.311 0.002 0.441 0.089zM20.544 3.817c-0.088 0.25-0.362 0.381-0.611 0.294-0.121-0.042-0.218-0.129-0.273-0.245s-0.063-0.246-0.020-0.366c0.042-0.121 0.129-0.218 0.245-0.273 0.066-0.032 0.136-0.048 0.207-0.048 0.053 0 0.107 0.009 0.159 0.027 0.249 0.088 0.381 0.362 0.294 0.611zM19.008 1.767c0.171-0.082 0.364-0.093 0.543-0.030 0.055 0.019 0.105 0.045 0.151 0.075-0.077 0.11-0.141 0.23-0.186 0.36-0.052 0.149-0.078 0.301-0.082 0.45-0.167 0.106-0.31 0.253-0.411 0.432-0.329-0.14-0.504-0.546-0.378-0.882 0.063-0.179 0.192-0.323 0.363-0.405zM19.233 4.766c0.020-0.057 0.048-0.11 0.081-0.159 0.108 0.089 0.232 0.161 0.371 0.21 0.134 0.047 0.271 0.069 0.406 0.069 0.169 0 0.335-0.036 0.488-0.102 0.046 0.142 0.048 0.3-0.005 0.452-0.13 0.37-0.536 0.565-0.906 0.435s-0.565-0.536-0.435-0.906zM21.085 6.044c0.172 0.063 0.353 0.095 0.537 0.095 0.103 0 0.206-0.010 0.309-0.030 0.053-0.010 0.104-0.024 0.155-0.039 0.061 0.062 0.128 0.119 0.203 0.169l0 0c0.006 0.004 0.012 0.007 0.017 0.011-0.006 0.244 0.045 0.487 0.147 0.708-0.282 0.258-0.715 0.301-1.046 0.079-0.329-0.222-0.452-0.635-0.323-0.992zM24.145 5.876c0.070-0.104 0.124-0.217 0.162-0.333 0.023 0.013 0.046 0.026 0.069 0.041 0.388 0.261 0.491 0.789 0.23 1.177s-0.789 0.491-1.177 0.23c-0.189-0.128-0.31-0.319-0.354-0.526 0.416-0.012 0.821-0.217 1.071-0.588zM25.324 5.112c-0.048 0.072-0.107 0.132-0.171 0.184-0.099-0.126-0.22-0.239-0.36-0.333-0.15-0.101-0.311-0.173-0.477-0.217-0.070-0.234-0.202-0.441-0.382-0.604 0.165-0.228 0.423-0.351 0.687-0.351 0.163 0 0.328 0.047 0.473 0.144 0.388 0.261 0.491 0.79 0.23 1.177zM23.397 2.469c0.163 0 0.328 0.047 0.473 0.144 0.176 0.118 0.292 0.291 0.343 0.481-0.362 0.095-0.692 0.317-0.917 0.651-0.015 0.022-0.028 0.044-0.042 0.066-0.073-0.012-0.146-0.018-0.219-0.017-0.112-0.213-0.274-0.403-0.483-0.552 0.012-0.138 0.058-0.276 0.141-0.399 0.164-0.243 0.432-0.374 0.705-0.374zM20.892 1.944c0.079 0 0.159 0.013 0.236 0.040 0.179 0.063 0.323 0.192 0.405 0.363s0.093 0.364 0.030 0.543c-0.056 0.159-0.164 0.291-0.308 0.375-0.117-0.346-0.385-0.637-0.756-0.767-0.093-0.033-0.188-0.052-0.282-0.062 0.002-0.006 0.003-0.011 0.005-0.017 0.063-0.179 0.192-0.323 0.363-0.405 0.097-0.047 0.202-0.070 0.307-0.070zM16.255 1.469c0.626 0 1.221 0.101 1.759 0.28-0.028 0.056-0.055 0.114-0.076 0.175-0.057 0.163-0.083 0.332-0.081 0.5-0.011 0.005-0.022 0.010-0.033 0.015-0.351 0.169-0.616 0.464-0.745 0.832-0.006 0.016-0.009 0.032-0.014 0.048h-2.806c-0.685 0-1.357 0.056-2.011 0.161 0.642-1.178 2.197-2.012 4.009-2.012zM3.894 14.439c0-5.322 4.649-9.651 10.364-9.651h3.169c0.152 0.152 0.337 0.27 0.546 0.343 0.158 0.056 0.322 0.083 0.484 0.083 0.001 0 0.002-0 0.003-0 0.078 0.518 0.432 0.978 0.96 1.164 0.159 0.056 0.322 0.082 0.482 0.082 0.131 0 0.26-0.019 0.385-0.053 0.024 0.487 0.268 0.957 0.703 1.249 0.273 0.184 0.583 0.272 0.89 0.272 0.376 0 0.747-0.133 1.039-0.383 0.029 0.023 0.060 0.045 0.091 0.066 0.273 0.184 0.583 0.272 0.89 0.272 0.41 0 0.815-0.158 1.118-0.455 1.999 1.761 3.248 4.252 3.248 7.010v0.991c-0.137 1.090-0.552 1.853-1.355 2.459-2.359-2.675-4.026-5.306-5.514-8.688-0.094-0.214-0.284-0.37-0.512-0.421s-0.466 0.009-0.642 0.162c-3.802 3.306-9.345 6.691-14.901 9.106-0.629-0.551-1.232-1.319-1.448-2.632v-0.977zM18.264 24.175h-4.368c-3.458 0-6.476-1.918-8.048-4.745 5.359-2.321 10.724-5.536 14.609-8.744 1.544 3.305 3.308 5.937 5.785 8.658 0.024 0.026 0.050 0.050 0.076 0.072-1.57 2.835-4.591 4.759-8.055 4.759zM3.101 17.603c0.343 0.621 0.764 1.094 1.183 1.472 0.197 0.459 0.426 0.902 0.684 1.325-0.044 0.003-0.088 0.005-0.132 0.005-1.069 0-1.939-0.87-1.939-1.939 0-0.31 0.074-0.603 0.203-0.863zM7.766 28.375h-2.13c-0.65 0-1.178-0.529-1.178-1.178v-5.567c0.124 0.015 0.251 0.023 0.379 0.023 0.319 0 0.627-0.049 0.917-0.136 0.961 1.193 2.177 2.171 3.566 2.85-0.839 1.15-1.392 2.521-1.554 4.008zM19.788 26.347c-0.293-0.072-0.596-0.109-0.902-0.109-1.070 0-2.091 0.456-2.806 1.253-0.715-0.796-1.736-1.253-2.806-1.253-0.307 0-0.61 0.037-0.903 0.11 0.294-0.359 0.64-0.675 1.025-0.936 0.166 0.008 0.332 0.012 0.5 0.012h4.368c0.168 0 0.335-0.004 0.501-0.012 0.385 0.261 0.73 0.577 1.024 0.936zM27.558 27.197c0 0.65-0.529 1.178-1.178 1.178h-1.986c-0.162-1.487-0.715-2.858-1.554-4.008 1.389-0.679 2.605-1.657 3.566-2.85 0.291 0.088 0.598 0.136 0.917 0.136 0.079 0 0.157-0.004 0.235-0.010v5.553zM27.323 20.404c-0.044 0-0.088-0.002-0.131-0.005 0.279-0.457 0.523-0.937 0.73-1.436 0.481-0.384 0.863-0.822 1.153-1.323 0.119 0.251 0.186 0.53 0.186 0.826 0 1.069-0.87 1.939-1.939 1.939z"></path>
<path d="M21.928 17.932c-0.606 0-1.097 0.491-1.097 1.097s0.491 1.097 1.097 1.097c0.606 0 1.097-0.491 1.097-1.097s-0.491-1.097-1.097-1.097z"></path>
<path d="M11.301 18.77c0.139 0.59-0.226 1.18-0.815 1.32s-1.18-0.226-1.32-0.815c-0.139-0.59 0.226-1.18 0.815-1.32s1.18 0.226 1.32 0.815z"></path>
<path d="M23.002 15.449c-0.049-0.025-0.494-0.244-1.059-0.244s-1.010 0.219-1.059 0.244c-0.184 0.094-0.256 0.318-0.163 0.502s0.318 0.258 0.502 0.166c0.003-0.002 0.331-0.163 0.72-0.163s0.717 0.161 0.718 0.162c0.055 0.028 0.113 0.041 0.17 0.041 0.136 0 0.268-0.075 0.334-0.204 0.094-0.184 0.021-0.41-0.163-0.504z"></path>
<path d="M17.177 18.655c-0.207 0-0.375 0.168-0.375 0.375 0 0.398-0.324 0.723-0.723 0.723s-0.723-0.324-0.723-0.723c0-0.207-0.168-0.375-0.375-0.375s-0.375 0.168-0.375 0.375c0 0.811 0.66 1.472 1.472 1.472s1.472-0.66 1.472-1.472c0-0.207-0.168-0.375-0.374-0.375z"></path>
<path d="M6.77 12.953c-0.062 0-0.124-0.009-0.186-0.029-0.329-0.103-0.513-0.453-0.41-0.782 0.291-0.933 0.794-1.804 1.493-2.591 0.229-0.258 0.624-0.281 0.881-0.052s0.281 0.624 0.052 0.881c-0.581 0.653-0.996 1.371-1.234 2.134-0.083 0.267-0.33 0.438-0.596 0.438z"></path>
<path d="M9.474 9.387c-0.193 0-0.384-0.089-0.506-0.258-0.202-0.279-0.14-0.669 0.139-0.872 0.156-0.114 0.32-0.225 0.486-0.331 0.29-0.186 0.676-0.101 0.862 0.189s0.101 0.676-0.189 0.862c-0.145 0.093-0.289 0.191-0.426 0.29-0.111 0.080-0.239 0.119-0.366 0.119z"></path>
</svg>
