<!-- Generated by IcoMoon.io -->
<svg version="1.1" xmlns="http://www.w3.org/2000/svg" width="32" height="32" viewBox="0 0 32 32">
<title>cake</title>
<path d="M3.412 6.269l0.515 1.448c0.022 0.062 0.066 0.111 0.121 0.136l1.287 0.58c0.182 0.082 0.182 0.372 0 0.453l-1.287 0.58c-0.055 0.025-0.099 0.074-0.121 0.136l-0.515 1.448c-0.073 0.205-0.33 0.205-0.403 0l-0.515-1.448c-0.022-0.062-0.066-0.111-0.121-0.136l-1.287-0.58c-0.182-0.082-0.182-0.372 0-0.453l1.287-0.58c0.055-0.025 0.099-0.074 0.121-0.136l0.515-1.448c0.073-0.205 0.33-0.205 0.403 0z"></path>
<path d="M7.317 0.114l0.382 1.074c0.016 0.046 0.049 0.082 0.090 0.101l0.954 0.43c0.135 0.061 0.135 0.276 0 0.336l-0.955 0.43c-0.041 0.018-0.073 0.055-0.090 0.101l-0.382 1.074c-0.054 0.152-0.245 0.152-0.299 0l-0.382-1.074c-0.016-0.046-0.049-0.082-0.090-0.101l-0.955-0.43c-0.135-0.061-0.135-0.276 0-0.336l0.955-0.43c0.041-0.018 0.073-0.055 0.090-0.101l0.382-1.074c0.054-0.152 0.245-0.152 0.299 0z"></path>
<path d="M31.050 7.324c0 0.621-0.504 1.125-1.125 1.125s-1.125-0.504-1.125-1.125c0-0.621 0.504-1.125 1.125-1.125s1.125 0.504 1.125 1.125z"></path>
<path d="M3.582 3.183c0 0.268-0.217 0.485-0.485 0.485s-0.485-0.217-0.485-0.485c0-0.268 0.217-0.485 0.485-0.485s0.485 0.217 0.485 0.485z"></path>
<path d="M28.605 22.2h-0.344v-6.696c0-0.985-0.801-1.786-1.786-1.786h-0.621v-5.615c0-0.844-0.686-1.53-1.53-1.53h-3.033c0.584-0.3 0.985-0.662 1.211-1.090 0.634-1.025 0.377-2.383-0.593-3.104-0.483-0.359-1.081-0.509-1.659-0.445-0.105-0.573-0.42-1.102-0.903-1.461-0.813-0.605-1.889-0.606-2.69-0.072-0.801-0.535-1.877-0.533-2.69 0.072-0.483 0.359-0.798 0.888-0.903 1.461-0.579-0.065-1.176 0.085-1.659 0.445-0.97 0.721-1.227 2.079-0.593 3.104 0.226 0.428 0.627 0.79 1.211 1.090h-2.869c-0.844 0-1.53 0.686-1.53 1.53v5.615h-0.621c-0.985 0-1.786 0.801-1.786 1.786v6.696h-0.51c-1.027 0-1.862 0.835-1.862 1.862v0.069c0 1.027 0.835 1.862 1.862 1.862h9.995v2.213h-1.851c-1.343 0-2.436 1.093-2.436 2.436v0.731c0 0.346 0.281 0.627 0.627 0.627h11.225c0.346 0 0.627-0.281 0.627-0.627v-0.731c0-1.343-1.093-2.436-2.436-2.436h-2.071v-2.213h10.216c1.027 0 1.862-0.835 1.862-1.862v-0.069c0-1.027-0.835-1.862-1.862-1.862zM6.473 18.235h20.534v0.874h-20.534zM8.88 10.134h15.721v0.874h-15.721zM18.6 1.478c0.357 0.266 0.516 0.732 0.397 1.161-0.070 0.25 0.022 0.517 0.23 0.672s0.49 0.166 0.709 0.027c0.376-0.238 0.869-0.219 1.226 0.046 0.453 0.337 0.571 0.974 0.268 1.45-0.011 0.017-0.021 0.035-0.030 0.053-0.366 0.723-2.249 1.183-3.873 1.359 0.093-0.439 0.197-1.007 0.268-1.612 0.174-1.478 0.082-2.559-0.279-3.277 0.138-0.061 0.287-0.093 0.438-0.093 0.225 0 0.452 0.070 0.647 0.215zM11.887 4.834c-0.303-0.476-0.185-1.113 0.268-1.45 0.19-0.141 0.418-0.213 0.647-0.213 0.201 0 0.403 0.055 0.579 0.166 0.219 0.139 0.501 0.128 0.709-0.027s0.299-0.422 0.23-0.672c-0.12-0.429 0.040-0.895 0.397-1.161 0.466-0.347 1.119-0.266 1.485 0.184 0.015 0.019 0.032 0.037 0.049 0.054 0.608 0.59 0.371 2.91-0.015 4.573-1.704-0.133-3.917-0.609-4.319-1.401-0.009-0.018-0.019-0.036-0.030-0.053zM9.156 7.827h15.169c0.152 0 0.276 0.124 0.276 0.276v1.279h-15.721v-1.279c0-0.152 0.124-0.276 0.276-0.276zM8.88 11.76h15.721v1.957h-15.721zM7.005 14.972h19.471c0.293 0 0.532 0.239 0.532 0.532v1.979h-20.534v-1.979c0-0.293 0.239-0.532 0.532-0.532zM6.473 19.861h20.534v2.338h-20.534zM21.643 30.642v0.104h-9.971v-0.104c0-0.652 0.53-1.182 1.182-1.182h7.607c0.652 0 1.182 0.53 1.182 1.182zM17.136 28.206h-1.177v-2.213h1.177zM29.214 24.131c0 0.335-0.273 0.608-0.608 0.608h-23.896c-0.335 0-0.608-0.273-0.608-0.608v-0.069c0-0.335 0.273-0.608 0.608-0.608h23.896c0.335 0 0.608 0.273 0.608 0.608z"></path>
<path d="M12.142 16.681c-0.001 0-0.003 0-0.004 0-0.745-0.005-1.54-0.005-2.299 0-0.001 0-0.003 0-0.004 0-0.345 0-0.625-0.278-0.627-0.623-0.002-0.346 0.277-0.629 0.623-0.631 0.764-0.005 1.565-0.005 2.315 0 0.346 0.002 0.625 0.285 0.623 0.631-0.002 0.345-0.283 0.623-0.627 0.623z"></path>
<path d="M8.194 16.681h-0.185c-0.346 0-0.627-0.281-0.627-0.627s0.281-0.627 0.627-0.627h0.185c0.346 0 0.627 0.281 0.627 0.627s-0.281 0.627-0.627 0.627z"></path>
</svg>
