<!-- Generated by IcoMoon.io -->
<svg version="1.1" xmlns="http://www.w3.org/2000/svg" width="32" height="32" viewBox="0 0 32 32">
<title>calendar</title>
<path d="M29.345 1.419l0.522 1.467c0.022 0.063 0.067 0.113 0.122 0.138l1.303 0.587c0.184 0.083 0.184 0.376 0 0.459l-1.303 0.587c-0.056 0.025-0.1 0.075-0.122 0.138l-0.522 1.467c-0.074 0.207-0.334 0.207-0.408 0l-0.522-1.467c-0.022-0.063-0.067-0.113-0.122-0.138l-1.303-0.587c-0.184-0.083-0.184-0.376 0-0.459l1.303-0.587c0.056-0.025 0.1-0.075 0.122-0.138l0.522-1.467c0.074-0.207 0.334-0.207 0.408 0z"></path>
<path d="M2.419 4.017l0.387 1.088c0.017 0.047 0.049 0.083 0.091 0.102l0.966 0.435c0.137 0.061 0.137 0.279 0 0.341l-0.966 0.435c-0.041 0.019-0.074 0.056-0.091 0.102l-0.387 1.088c-0.055 0.154-0.248 0.154-0.303 0l-0.387-1.088c-0.017-0.047-0.049-0.083-0.091-0.102l-0.967-0.435c-0.137-0.061-0.137-0.279 0-0.341l0.967-0.435c0.041-0.019 0.074-0.056 0.091-0.102l0.387-1.088c0.055-0.154 0.248-0.154 0.303 0z"></path>
<path d="M19.875 0.035c0.615 0.133 1.005 0.738 0.872 1.353s-0.738 1.005-1.353 0.872c-0.615-0.133-1.005-0.738-0.872-1.353s0.738-1.005 1.353-0.872z"></path>
<path d="M7.708 2.062c0 0.271-0.22 0.491-0.491 0.491s-0.491-0.22-0.491-0.491c0-0.271 0.22-0.491 0.491-0.491s0.491 0.22 0.491 0.491z"></path>
<path d="M26.090 7.373h-0.775v-0.94c0-1.276-1.038-2.314-2.314-2.314h-0.023c-1.276 0-2.314 1.038-2.314 2.314v0.94h-8.817v-0.94c0-1.276-1.038-2.314-2.314-2.314h-0.023c-1.276 0-2.314 1.038-2.314 2.314v0.94h-0.775c-1.46 0-2.647 1.187-2.647 2.647v4.678c0 0.478 0.284 0.89 0.692 1.078v14.28c0 1.072 0.872 1.944 1.944 1.944h19.689c1.072 0 1.944-0.872 1.944-1.944v-14.28c0.408-0.188 0.692-0.6 0.692-1.078v-4.678c0-1.46-1.187-2.647-2.647-2.647zM21.934 6.433c0-0.576 0.468-1.044 1.044-1.044h0.023c0.576 0 1.044 0.468 1.044 1.044v3.39c0 0.576-0.468 1.044-1.044 1.044h-0.023c-0.576 0-1.044-0.468-1.044-1.044zM8.467 6.433c0-0.576 0.468-1.044 1.044-1.044h0.023c0.576 0 1.044 0.468 1.044 1.044v3.39c0 0.576-0.468 1.044-1.044 1.044h-0.023c-0.576 0-1.044-0.468-1.044-1.044zM5.045 10.020c0-0.759 0.618-1.377 1.377-1.377h0.775v1.18c0 1.276 1.038 2.314 2.314 2.314h0.023c1.276 0 2.314-1.038 2.314-2.314v-1.18h8.817v1.18c0 1.276 1.038 2.314 2.314 2.314h0.023c1.276 0 2.314-1.038 2.314-2.314v-1.18h0.775c0.759 0 1.377 0.618 1.377 1.377v4.596h-22.422zM26.1 30.73h-19.689c-0.372 0-0.674-0.302-0.674-0.674v-14.17h21.037v14.17c-0 0.372-0.302 0.674-0.674 0.674z"></path>
<path d="M17.499 23.175c-0.474 0.008-0.922 0.187-1.27 0.485-0.358-0.286-0.811-0.451-1.286-0.442-1.035 0.017-1.892 0.832-1.965 1.86-0.109 0.803 0.36 1.708 1.432 2.763 0.721 0.709 1.46 1.229 1.491 1.251 0.109 0.077 0.237 0.115 0.364 0.115 0.132 0 0.263-0.041 0.375-0.122 0.031-0.023 0.769-0.565 1.486-1.29 1.066-1.080 1.526-1.988 1.404-2.775-0.083-1.055-0.971-1.862-2.031-1.845zM16.259 27.777c-0.999-0.779-2.113-1.945-2.022-2.536 0.003-0.020 0.005-0.041 0.007-0.062 0.021-0.382 0.338-0.686 0.72-0.692 0.004-0 0.008-0 0.012-0 0.297 0 0.57 0.183 0.681 0.459 0.098 0.243 0.335 0.401 0.599 0.397 0.263-0.004 0.495-0.17 0.586-0.417 0.104-0.283 0.376-0.477 0.677-0.482 0.004-0 0.008-0 0.013-0 0.388 0 0.709 0.3 0.732 0.688 0.002 0.025 0.004 0.049 0.009 0.073 0.095 0.528-0.912 1.685-2.015 2.571z"></path>
<path d="M10.38 17.349h-1.362c-0.882 0-1.6 0.718-1.6 1.6v1.362c0 0.882 0.718 1.6 1.6 1.6h1.362c0.882 0 1.6-0.718 1.6-1.6v-1.362c0-0.882-0.718-1.6-1.6-1.6zM10.71 20.311c0 0.182-0.148 0.33-0.33 0.33h-1.362c-0.182 0-0.33-0.148-0.33-0.33v-1.362c0-0.182 0.148-0.33 0.33-0.33h1.362c0.182 0 0.33 0.148 0.33 0.33z"></path>
<path d="M15.575 21.91h1.362c0.882 0 1.6-0.718 1.6-1.6v-1.362c0-0.882-0.718-1.6-1.6-1.6h-1.362c-0.882 0-1.6 0.718-1.6 1.6v1.362c0 0.882 0.718 1.6 1.6 1.6zM15.245 18.949c0-0.182 0.148-0.33 0.33-0.33h1.362c0.182 0 0.33 0.148 0.33 0.33v1.362c0 0.182-0.148 0.33-0.33 0.33h-1.362c-0.182 0-0.33-0.148-0.33-0.33z"></path>
<path d="M23.493 17.349h-1.362c-0.882 0-1.6 0.718-1.6 1.6v1.362c0 0.882 0.718 1.6 1.6 1.6h1.362c0.882 0 1.6-0.718 1.6-1.6v-1.362c0-0.882-0.718-1.6-1.6-1.6zM23.823 20.311c0 0.182-0.148 0.33-0.33 0.33h-1.362c-0.182 0-0.33-0.148-0.33-0.33v-1.362c0-0.182 0.148-0.33 0.33-0.33h1.362c0.182 0 0.33 0.148 0.33 0.33z"></path>
<path d="M10.38 24.488h-1.362c-0.882 0-1.6 0.718-1.6 1.6v1.362c0 0.882 0.718 1.6 1.6 1.6h1.362c0.882 0 1.6-0.718 1.6-1.6v-1.362c0-0.882-0.718-1.6-1.6-1.6zM10.71 27.45c0 0.182-0.148 0.33-0.33 0.33h-1.362c-0.182 0-0.33-0.148-0.33-0.33v-1.362c0-0.182 0.148-0.33 0.33-0.33h1.362c0.182 0 0.33 0.148 0.33 0.33z"></path>
<path d="M23.493 24.488h-1.362c-0.882 0-1.6 0.718-1.6 1.6v1.362c0 0.882 0.718 1.6 1.6 1.6h1.362c0.882 0 1.6-0.718 1.6-1.6v-1.362c0-0.882-0.718-1.6-1.6-1.6zM23.823 27.45c0 0.182-0.148 0.33-0.33 0.33h-1.362c-0.182 0-0.33-0.148-0.33-0.33v-1.362c0-0.182 0.148-0.33 0.33-0.33h1.362c0.182 0 0.33 0.148 0.33 0.33z"></path>
<path d="M17.176 10.964c-0.381 0-0.765-0.004-1.148-0.011-0.351-0.007-0.63-0.296-0.623-0.647s0.298-0.63 0.647-0.623c0.75 0.014 1.502 0.014 2.234 0 0.349-0.007 0.64 0.272 0.647 0.623s-0.272 0.64-0.623 0.647c-0.374 0.007-0.753 0.011-1.135 0.011z"></path>
<path d="M14.063 10.954h-0.243c-0.351 0-0.635-0.284-0.635-0.635s0.284-0.635 0.635-0.635h0.243c0.351 0 0.635 0.284 0.635 0.635s-0.284 0.635-0.635 0.635z"></path>
</svg>
