<!-- Generated by IcoMoon.io -->
<svg version="1.1" xmlns="http://www.w3.org/2000/svg" width="32" height="32" viewBox="0 0 32 32">
<title>camera</title>
<path d="M4.398 3.662l0.519 1.461c0.022 0.063 0.066 0.112 0.122 0.137l1.298 0.585c0.183 0.083 0.183 0.375 0 0.457l-1.298 0.585c-0.056 0.025-0.1 0.075-0.122 0.137l-0.519 1.461c-0.073 0.206-0.333 0.206-0.406 0l-0.519-1.461c-0.022-0.063-0.066-0.112-0.122-0.137l-1.298-0.585c-0.183-0.083-0.183-0.375 0-0.457l1.298-0.585c0.056-0.025 0.1-0.075 0.122-0.137l0.519-1.461c0.073-0.206 0.333-0.206 0.406 0z"></path>
<path d="M8.959 0.115l0.385 1.083c0.017 0.046 0.049 0.083 0.090 0.102l0.963 0.434c0.136 0.061 0.136 0.278 0 0.339l-0.963 0.434c-0.041 0.019-0.074 0.055-0.090 0.102l-0.385 1.083c-0.054 0.153-0.247 0.153-0.301 0l-0.385-1.083c-0.017-0.046-0.049-0.083-0.090-0.102l-0.963-0.434c-0.136-0.061-0.136-0.278 0-0.339l0.963-0.434c0.041-0.019 0.074-0.055 0.090-0.102l0.385-1.083c0.054-0.153 0.247-0.153 0.301 0z"></path>
<path d="M27.33 0.455c0.61 0.144 0.987 0.755 0.843 1.365s-0.755 0.987-1.365 0.843c-0.61-0.144-0.987-0.755-0.843-1.365s0.755-0.987 1.365-0.843z"></path>
<path d="M2.073 1.929c0.267 0.043 0.448 0.295 0.405 0.561s-0.295 0.448-0.561 0.405c-0.267-0.043-0.448-0.294-0.405-0.561s0.294-0.448 0.561-0.405z"></path>
<path d="M29.699 6.228l0.385 1.083c0.017 0.046 0.049 0.083 0.090 0.102l0.963 0.434c0.136 0.061 0.136 0.278 0 0.339l-0.963 0.434c-0.041 0.019-0.074 0.055-0.090 0.102l-0.385 1.083c-0.054 0.153-0.247 0.153-0.301 0l-0.385-1.084c-0.017-0.046-0.049-0.083-0.090-0.102l-0.963-0.434c-0.136-0.061-0.136-0.278 0-0.339l0.963-0.434c0.041-0.019 0.074-0.055 0.090-0.102l0.385-1.083c0.054-0.153 0.247-0.153 0.301 0z"></path>
<path d="M27.116 13.313h-2.34l-0.198-1.014c-0.227-1.161-1.251-2.003-2.433-2.003h-0.945v-1.214h1.245c1.089 0 1.975-0.886 1.975-1.975v-3.117c0-1.089-0.886-1.975-1.975-1.975h-8.729c-1.089 0-1.975 0.886-1.975 1.975v3.117c0 1.089 0.886 1.975 1.975 1.975h1.245v1.214h-1.084c-1.185 0-2.209 0.845-2.434 2.008l-0.195 1.008h-2.4c-0.265-0.295-0.604-0.521-0.988-0.65v-0.178c0-1.198-0.974-2.172-2.172-2.172h-1.175c-1.198 0-2.172 0.975-2.172 2.172v0.178c-0.916 0.306-1.578 1.172-1.578 2.19v14.838c0 1.273 1.036 2.309 2.309 2.309h24.047c1.62 0 2.938-1.318 2.938-2.938v-12.811c0-1.62-1.318-2.938-2.938-2.938zM13.006 7.108v-3.117c0-0.392 0.319-0.71 0.71-0.71h8.728c0.392 0 0.71 0.319 0.71 0.71v3.117c0 0.392-0.319 0.71-0.71 0.71h-8.729c-0.392 0-0.71-0.319-0.71-0.71zM16.225 9.083h3.71v1.214h-3.71zM11.768 14.578c0.303 0 0.563-0.215 0.621-0.512l0.294-1.521c0.11-0.57 0.612-0.984 1.193-0.984h8.268c0.579 0 1.081 0.413 1.192 0.982l0.299 1.524c0.058 0.297 0.318 0.511 0.621 0.511h2.86c0.922 0 1.673 0.751 1.673 1.673v1.691h-5.242c-1.298-1.581-3.267-2.591-5.467-2.591s-4.169 1.010-5.467 2.591h-3.177v-3.089c0-0.093-0.006-0.185-0.017-0.275h2.349zM18.080 16.616c3.202 0 5.807 2.605 5.807 5.807s-2.605 5.807-5.807 5.807-5.807-2.605-5.807-5.807 2.605-5.807 5.807-5.807zM4.511 11.578h1.175c0.5 0 0.908 0.407 0.908 0.908v0.059h-2.99v-0.059c0-0.5 0.407-0.908 0.907-0.908zM2.025 29.691v-14.838c0-0.576 0.468-1.044 1.044-1.044h4.058c0.576 0 1.044 0.468 1.044 1.044v14.838c0 0.576-0.468 1.044-1.044 1.044h-4.058c-0.576-0-1.044-0.468-1.044-1.044zM27.116 30.735h-17.93c0.16-0.314 0.251-0.668 0.251-1.044v-10.99h2.633c-0.672 1.082-1.061 2.357-1.061 3.722 0 3.899 3.172 7.072 7.072 7.072s7.072-3.172 7.072-7.072c0-1.365-0.389-2.64-1.061-3.722h4.699v10.361c0 0.922-0.75 1.673-1.673 1.673z"></path>
<path d="M18.080 26.645c2.328 0 4.222-1.894 4.222-4.222s-1.894-4.222-4.222-4.222-4.222 1.894-4.222 4.222 1.894 4.222 4.222 4.222zM18.080 18.96c1.91 0 3.463 1.553 3.463 3.463s-1.553 3.463-3.463 3.463-3.463-1.553-3.463-3.463 1.553-3.463 3.463-3.463z"></path>
<path d="M22.546 4.772c0-0.488-0.397-0.885-0.885-0.885h-7.161c-0.488 0-0.885 0.397-0.885 0.885v1.554c0 0.488 0.397 0.885 0.885 0.885h7.161c0.488 0 0.885-0.397 0.885-0.885zM21.787 6.326c0 0.070-0.057 0.127-0.127 0.127h-7.161c-0.070 0-0.127-0.057-0.127-0.127v-1.553c0-0.070 0.057-0.127 0.127-0.127h7.161c0.070 0 0.127 0.057 0.127 0.127z"></path>
<path d="M3.59 21.359c-0.006 0-0.011-0-0.017-0-0.349-0.009-0.625-0.299-0.616-0.648 0.021-0.838 0.021-1.585 0-2.422-0.009-0.349 0.267-0.639 0.616-0.648 0.347-0.009 0.639 0.267 0.648 0.616 0.022 0.859 0.022 1.626 0 2.486-0.009 0.344-0.29 0.616-0.632 0.616z"></path>
<path d="M3.59 16.754c-0.349 0-0.632-0.283-0.632-0.632v-0.237c0-0.349 0.283-0.632 0.632-0.632s0.632 0.283 0.632 0.632v0.237c0 0.349-0.283 0.632-0.632 0.632z"></path>
<path d="M19.741 22.416c0.461 0.461 0.461 1.209 0 1.67s-1.209 0.461-1.67 0c-0.461-0.461-0.461-1.209 0-1.67s1.209-0.461 1.67 0z"></path>
</svg>
