<!-- Generated by IcoMoon.io -->
<svg version="1.1" xmlns="http://www.w3.org/2000/svg" width="32" height="32" viewBox="0 0 32 32">
<title>carriage</title>
<path d="M27.216 1.913l0.519 1.458c0.022 0.062 0.066 0.112 0.122 0.137l1.296 0.584c0.183 0.082 0.183 0.374 0 0.457l-1.296 0.584c-0.055 0.025-0.099 0.074-0.122 0.137l-0.519 1.458c-0.073 0.206-0.332 0.206-0.406 0l-0.519-1.458c-0.022-0.062-0.066-0.112-0.122-0.137l-1.296-0.584c-0.183-0.082-0.183-0.374 0-0.457l1.296-0.584c0.055-0.025 0.099-0.075 0.122-0.137l0.519-1.458c0.073-0.206 0.332-0.206 0.406 0z"></path>
<path d="M2.916 6.321l0.385 1.082c0.017 0.046 0.049 0.083 0.090 0.102l0.961 0.433c0.136 0.061 0.136 0.278 0 0.339l-0.961 0.433c-0.041 0.019-0.074 0.055-0.090 0.102l-0.385 1.082c-0.054 0.153-0.247 0.153-0.301 0l-0.385-1.082c-0.017-0.046-0.049-0.083-0.090-0.102l-0.961-0.433c-0.136-0.061-0.136-0.277 0-0.339l0.961-0.433c0.041-0.019 0.074-0.055 0.090-0.102l0.385-1.082c0.054-0.153 0.247-0.153 0.301 0z"></path>
<path d="M30.818 9.327c0.609 0.144 0.985 0.754 0.841 1.362s-0.754 0.985-1.362 0.841c-0.609-0.144-0.985-0.754-0.841-1.362s0.754-0.985 1.362-0.841z"></path>
<path d="M2.958 3.216c0 0.27-0.219 0.489-0.489 0.489s-0.489-0.219-0.489-0.489c0-0.27 0.219-0.489 0.489-0.489s0.489 0.219 0.489 0.489z"></path>
<path d="M8.235 0.22l0.385 1.082c0.017 0.046 0.049 0.083 0.090 0.102l0.961 0.433c0.136 0.061 0.136 0.278 0 0.339l-0.961 0.433c-0.041 0.019-0.074 0.055-0.090 0.102l-0.385 1.082c-0.054 0.153-0.247 0.153-0.301 0l-0.385-1.082c-0.016-0.046-0.049-0.083-0.090-0.102l-0.961-0.433c-0.136-0.061-0.136-0.278 0-0.339l0.961-0.433c0.041-0.019 0.074-0.055 0.090-0.102l0.385-1.082c0.054-0.153 0.247-0.153 0.301 0z"></path>
<path d="M18.391 18.194h4.466c0.475 0 0.925-0.206 1.235-0.567 0.308-0.358 0.445-0.831 0.374-1.297-0.428-2.836-2.231-5.273-4.824-6.518-0.221-0.106-0.467-0.162-0.709-0.162h-0.542c-0.897 0-1.626 0.729-1.626 1.626v5.292c0 0.896 0.729 1.626 1.626 1.626zM18.028 11.276c0-0.2 0.163-0.363 0.363-0.363 0.125 0.011 0.596-0.031 0.704 0.038 2.216 1.064 3.757 3.145 4.122 5.568-0 0.271-0.090 0.372-0.36 0.412h-4.466c-0.2 0-0.363-0.163-0.363-0.363z"></path>
<path d="M7.695 17.627c0.31 0.36 0.76 0.567 1.235 0.567h4.466c0.897 0 1.626-0.729 1.626-1.626v-5.292c0-0.897-0.729-1.626-1.626-1.626h-0.542c-0.243 0-0.488 0.056-0.709 0.162-2.593 1.245-4.397 3.682-4.824 6.518-0.070 0.466 0.066 0.939 0.374 1.297zM8.569 16.519c0.365-2.422 1.906-4.504 4.122-5.568 0.106-0.069 0.582-0.027 0.704-0.038 0.2 0 0.363 0.163 0.363 0.363v5.292c0 0.2-0.163 0.363-0.363 0.363h-4.466c-0.27-0.040-0.36-0.142-0.36-0.412z"></path>
<path d="M12.885 19.962c-0.349 0-0.631 0.283-0.631 0.631s0.283 0.631 0.631 0.631h1.806c0.349 0 0.631-0.283 0.631-0.631s-0.283-0.631-0.631-0.631z"></path>
<path d="M6.022 22.976c-1.829 0-3.317 1.488-3.317 3.317s1.488 3.317 3.317 3.317c1.829 0 3.317-1.488 3.317-3.317s-1.488-3.317-3.317-3.317zM6.022 23.733c0.227 0 0.446 0.030 0.656 0.085l-0.853 1.976-1.975-0.853c0.452-0.725 1.257-1.209 2.173-1.209zM3.462 26.293c0-0.227 0.030-0.446 0.086-0.656l1.976 0.853-0.853 1.975c-0.725-0.452-1.209-1.257-1.209-2.173zM6.022 28.853c-0.227 0-0.446-0.030-0.656-0.085l0.853-1.976 1.975 0.853c-0.452 0.725-1.257 1.209-2.173 1.209zM8.496 26.949l-1.976-0.853 0.853-1.975c0.725 0.452 1.209 1.257 1.209 2.173 0 0.227-0.030 0.446-0.085 0.656z"></path>
<path d="M25.765 22.976c-1.829 0-3.317 1.488-3.317 3.317s1.488 3.317 3.317 3.317 3.317-1.488 3.317-3.317c0-1.829-1.488-3.317-3.317-3.317zM28.325 26.293c0 0.227-0.030 0.446-0.085 0.656l-1.976-0.853 0.853-1.975c0.725 0.453 1.209 1.257 1.209 2.173zM25.765 23.733c0.227 0 0.446 0.030 0.656 0.085l-0.853 1.976-1.975-0.853c0.452-0.725 1.257-1.209 2.173-1.209zM23.205 26.293c0-0.227 0.030-0.446 0.085-0.656l1.976 0.853-0.853 1.975c-0.725-0.452-1.209-1.257-1.209-2.173zM25.765 28.853c-0.227 0-0.446-0.030-0.656-0.085l0.853-1.976 1.975 0.853c-0.452 0.725-1.257 1.209-2.173 1.209z"></path>
<path d="M27.007 20.722c0.296-1.027 0.452-2.103 0.452-3.203 0-4.425-2.532-8.457-6.486-10.392 0.149-0.278 0.234-0.595 0.234-0.931 0-1.043-0.813-1.899-1.838-1.969-0.209-1.334-1.366-2.4-2.843-2.64v-0.955c0-0.349-0.283-0.631-0.631-0.631s-0.631 0.283-0.631 0.631v0.955c-1.477 0.24-2.634 1.306-2.844 2.64-1.025 0.070-1.838 0.926-1.838 1.969 0 0.336 0.085 0.653 0.234 0.931-3.954 1.935-6.486 5.967-6.486 10.392 0 1.1 0.156 2.176 0.452 3.203-2.552 0.569-4.465 2.85-4.465 5.571 0 3.147 2.56 5.707 5.707 5.707 2.804 0 5.143-2.033 5.619-4.703h8.507c0.476 2.669 2.814 4.703 5.619 4.703 3.147 0 5.707-2.56 5.707-5.707 0-2.72-1.913-5.002-4.465-5.571zM15.893 2.798c1.056 0 1.944 0.608 2.183 1.423h-4.366c0.239-0.816 1.127-1.423 2.183-1.423zM12.555 5.484h6.677c0.392 0 0.712 0.319 0.712 0.712s-0.319 0.712-0.712 0.712h-6.677c-0.392 0-0.712-0.319-0.712-0.712s0.319-0.712 0.712-0.712zM11.598 8.152h0.695c0.086 0.011 0.173 0.018 0.262 0.018h6.677c0.089 0 0.176-0.007 0.262-0.018h0.695c3.654 1.678 6.007 5.34 6.007 9.367 0 1.056-0.162 2.088-0.466 3.067-3.044 0.019-5.53 2.433-5.665 5.448h-8.342c-0.135-3.016-2.621-5.43-5.665-5.448-0.305-0.979-0.466-2.011-0.466-3.067-0-4.027 2.353-7.689 6.007-9.367zM6.022 30.737c-2.451 0-4.444-1.994-4.444-4.444s1.994-4.444 4.444-4.444 4.444 1.994 4.444 4.444c0 2.451-1.994 4.444-4.444 4.444zM25.765 30.737c-2.451 0-4.444-1.994-4.444-4.444s1.994-4.444 4.444-4.444 4.444 1.994 4.444 4.444c0 2.451-1.994 4.444-4.444 4.444z"></path>
</svg>
