<!-- Generated by IcoMoon.io -->
<svg version="1.1" xmlns="http://www.w3.org/2000/svg" width="32" height="32" viewBox="0 0 32 32">
<title>certificate</title>
<path d="M28.227 0.154l0.516 1.451c0.022 0.062 0.066 0.111 0.121 0.136l1.289 0.581c0.182 0.082 0.182 0.372 0 0.454l-1.289 0.581c-0.055 0.025-0.099 0.074-0.121 0.136l-0.516 1.451c-0.073 0.205-0.331 0.205-0.404 0l-0.516-1.451c-0.022-0.062-0.066-0.111-0.121-0.136l-1.289-0.581c-0.182-0.082-0.182-0.372 0-0.454l1.289-0.581c0.055-0.025 0.099-0.074 0.121-0.136l0.516-1.451c0.073-0.205 0.331-0.205 0.404 0z"></path>
<path d="M31.078 7.705c0.606 0.143 0.981 0.75 0.837 1.356s-0.75 0.981-1.356 0.837c-0.606-0.143-0.981-0.75-0.837-1.356s0.75-0.981 1.356-0.837z"></path>
<path d="M5.537 2.392c0 0.268-0.218 0.486-0.486 0.486s-0.486-0.218-0.486-0.486c0-0.268 0.218-0.486 0.486-0.486s0.486 0.218 0.486 0.486z"></path>
<path d="M1.89 2.735l0.383 1.077c0.016 0.046 0.049 0.083 0.090 0.101l0.956 0.431c0.135 0.061 0.135 0.276 0 0.337l-0.956 0.431c-0.041 0.018-0.073 0.055-0.090 0.101l-0.383 1.077c-0.054 0.152-0.245 0.152-0.299 0l-0.383-1.077c-0.016-0.046-0.049-0.083-0.090-0.101l-0.956-0.431c-0.135-0.061-0.135-0.276 0-0.337l0.956-0.431c0.041-0.018 0.073-0.055 0.090-0.101l0.383-1.077c0.054-0.152 0.245-0.152 0.299 0z"></path>
<path d="M23.448 32h-15.047c-1.879 0-3.407-1.528-3.407-3.407v-20.088c0-1.879 1.528-3.407 3.407-3.407h15.047c1.879 0 3.407 1.528 3.407 3.407v20.088c0 1.879-1.528 3.407-3.407 3.407zM8.401 6.355c-1.186 0-2.15 0.965-2.15 2.15v20.088c0 1.186 0.965 2.15 2.15 2.15h15.047c1.186 0 2.15-0.965 2.15-2.15v-20.088c0-1.186-0.965-2.15-2.15-2.15h-15.047z"></path>
<path d="M22.268 29.953h-12.688c-0.347 0-0.628-0.281-0.628-0.628 0-0.666-0.542-1.208-1.208-1.208-0.347 0-0.628-0.281-0.628-0.628v-17.88c0-0.347 0.281-0.628 0.628-0.628 0.666 0 1.208-0.542 1.208-1.208 0-0.347 0.281-0.628 0.628-0.628h12.688c0.347 0 0.628 0.281 0.628 0.628 0 0.666 0.542 1.208 1.208 1.208 0.347 0 0.628 0.281 0.628 0.628v17.88c0 0.347-0.281 0.628-0.628 0.628-0.666 0-1.208 0.542-1.208 1.208 0 0.347-0.281 0.628-0.628 0.628zM10.127 28.697h11.593c0.226-0.855 0.9-1.529 1.755-1.755v-16.786c-0.855-0.226-1.529-0.9-1.755-1.755h-11.593c-0.226 0.855-0.9 1.529-1.755 1.755v16.786c0.855 0.225 1.529 0.9 1.755 1.755z"></path>
<path d="M19.076 11.335c-0.067-0.935-0.85-1.673-1.79-1.684-0.516-0.007-1.006 0.214-1.348 0.581-0.335-0.374-0.818-0.604-1.335-0.61-0.007-0-0.014-0-0.020-0-0.957 0-1.746 0.738-1.81 1.692-0.065 0.417 0.078 0.882 0.329 1.347v3.828c0 0.34 0.168 0.654 0.448 0.838 0.161 0.106 0.345 0.16 0.531 0.16 0.13 0 0.26-0.026 0.383-0.079l1.46-0.631 1.46 0.631c0.299 0.129 0.641 0.099 0.914-0.080 0.281-0.185 0.448-0.498 0.448-0.838v-3.793c0.251-0.465 0.393-0.934 0.331-1.361zM13.519 11.42c0.002-0.014 0.004-0.029 0.005-0.043 0.031-0.563 0.495-1.001 1.059-1.001 0.004 0 0.008 0 0.012 0 0.436 0.005 0.83 0.282 0.982 0.691 0.054 0.146 0.193 0.244 0.349 0.245h0.004c0.154 0 0.293-0.094 0.35-0.238 0.16-0.402 0.555-0.669 0.986-0.669 0.004 0 0.008 0 0.012 0 0.553 0.006 1.013 0.443 1.047 0.994 0.001 0.012 0.002 0.025 0.004 0.037 0.138 0.857-1.309 2.401-2.393 3.308-1.096-0.928-2.561-2.494-2.417-3.324zM17.992 16.488c-0.032 0.208-0.121 0.271-0.309 0.226l-1.609-0.695c-0.095-0.041-0.204-0.041-0.299 0l-1.609 0.695c-0.188 0.045-0.277-0.018-0.309-0.226v-2.751c0.761 0.906 1.667 1.647 1.843 1.788 0.137 0.11 0.331 0.11 0.469 0.002 0.174-0.137 1.069-0.859 1.824-1.754z"></path>
<path d="M21.095 19.756h-10.341c-0.208 0-0.377-0.169-0.377-0.377s0.169-0.377 0.377-0.377h10.341c0.208 0 0.377 0.169 0.377 0.377s-0.169 0.377-0.377 0.377z"></path>
<path d="M21.095 22.437h-10.341c-0.208 0-0.377-0.169-0.377-0.377s0.169-0.377 0.377-0.377h10.341c0.208 0 0.377 0.169 0.377 0.377s-0.169 0.377-0.377 0.377z"></path>
<path d="M12.347 25.931c-0.11 0-0.216-0.048-0.289-0.135l-0.499-0.597-0.617 0.355c-0.18 0.104-0.411 0.042-0.515-0.139s-0.042-0.411 0.138-0.515l0.891-0.514c0.159-0.091 0.36-0.056 0.477 0.085l0.532 0.636 0.637-0.234c0.042-0.015 0.086-0.023 0.13-0.023h1.008c0.208 0 0.377 0.169 0.377 0.377s-0.169 0.377-0.377 0.377h-0.941l-0.823 0.303c-0.043 0.016-0.087 0.023-0.13 0.023z"></path>
<path d="M20.056 26.125c-0.112 0-0.221-0.050-0.295-0.142l-0.666-0.835-0.427 0.377c-0.071 0.062-0.163 0.096-0.256 0.094l-0.919-0.016c-0.208-0.004-0.374-0.175-0.37-0.383s0.175-0.374 0.383-0.37l0.772 0.013 0.614-0.543c0.077-0.068 0.179-0.102 0.282-0.093s0.198 0.060 0.262 0.14l0.723 0.906 0.766-0.384c0.186-0.093 0.413-0.018 0.506 0.168s0.018 0.413-0.168 0.506l-1.039 0.521c-0.054 0.027-0.112 0.040-0.169 0.040z"></path>
</svg>
