<!-- Generated by IcoMoon.io -->
<svg version="1.1" xmlns="http://www.w3.org/2000/svg" width="32" height="32" viewBox="0 0 32 32">
<title>champagne</title>
<path d="M4.314 6.449l0.52 1.463c0.022 0.063 0.066 0.112 0.122 0.137l1.3 0.586c0.184 0.083 0.184 0.375 0 0.458l-1.3 0.586c-0.056 0.025-0.1 0.075-0.122 0.137l-0.52 1.463c-0.074 0.207-0.333 0.207-0.407 0l-0.52-1.463c-0.022-0.063-0.066-0.112-0.122-0.137l-1.3-0.586c-0.184-0.083-0.184-0.375 0-0.458l1.3-0.586c0.056-0.025 0.1-0.075 0.122-0.137l0.52-1.463c0.074-0.207 0.333-0.207 0.407 0z"></path>
<path d="M28.63 8.119l0.386 1.085c0.017 0.046 0.049 0.083 0.090 0.102l0.964 0.434c0.136 0.061 0.136 0.278 0 0.34l-0.964 0.434c-0.041 0.019-0.074 0.055-0.090 0.102l-0.386 1.085c-0.055 0.153-0.247 0.153-0.302 0l-0.386-1.085c-0.017-0.046-0.049-0.083-0.090-0.102l-0.964-0.434c-0.136-0.061-0.136-0.278 0-0.34l0.964-0.434c0.041-0.019 0.074-0.055 0.090-0.102l0.386-1.085c0.055-0.153 0.247-0.153 0.302 0z"></path>
<path d="M10.341 1.743c0 0.627-0.509 1.136-1.136 1.136s-1.136-0.509-1.136-1.136c0-0.627 0.509-1.136 1.136-1.136s1.136 0.509 1.136 1.136z"></path>
<path d="M7.652 5.918c0 0.271-0.219 0.49-0.49 0.49s-0.49-0.219-0.49-0.49c0-0.271 0.219-0.49 0.49-0.49s0.49 0.219 0.49 0.49z"></path>
<path d="M15.017 3.461l0.386 1.085c0.017 0.046 0.049 0.083 0.091 0.102l0.964 0.434c0.136 0.061 0.136 0.278 0 0.34l-0.964 0.434c-0.041 0.019-0.074 0.055-0.091 0.102l-0.386 1.085c-0.055 0.153-0.247 0.153-0.302 0l-0.386-1.085c-0.017-0.046-0.049-0.083-0.091-0.102l-0.964-0.434c-0.136-0.061-0.136-0.278 0-0.34l0.964-0.434c0.041-0.019 0.074-0.055 0.091-0.102l0.386-1.085c0.055-0.153 0.247-0.153 0.302 0z"></path>
<path d="M25.339 14.229c-0.257-0.286-0.623-0.451-1.007-0.457-0.034-0.398-0.091-0.788-0.176-1.156-0.494-2.143-0.511-4.792-0.052-7.31 0.328-0.247 0.568-0.598 0.678-1l0.445-1.624c0.132-0.482 0.069-0.987-0.179-1.422s-0.649-0.747-1.132-0.879l-1.151-0.316c-0.995-0.273-2.027 0.315-2.3 1.311l-0.445 1.624c-0.114 0.417-0.080 0.856 0.091 1.246-0.861 2.353-2.231 4.636-3.784 6.298-0.295 0.316-0.573 0.674-0.831 1.054-0.075-0.28-0.227-0.534-0.446-0.736-0.305-0.281-0.701-0.426-1.114-0.41l-1.926 0.077c-0.414 0.017-0.797 0.194-1.078 0.498-0.008 0.009-0.016 0.019-0.024 0.028l-0.243-0.289c-0.267-0.317-0.642-0.511-1.054-0.546s-0.815 0.093-1.132 0.36l-1.474 1.242c-0.317 0.267-0.511 0.642-0.546 1.054-0.029 0.338 0.052 0.668 0.228 0.951-0.252 0.070-0.483 0.21-0.661 0.409-0.262 0.292-0.388 0.682-0.347 1.066l1.507 15.457c0.075 0.706 0.667 1.238 1.377 1.237l14.257-0.008c0.71-0 1.301-0.533 1.377-1.245l1.491-15.447c0.041-0.39-0.086-0.78-0.348-1.072zM21.4 4.403c0.066-0.19 0.039-0.4-0.075-0.566-0.101-0.147-0.131-0.33-0.084-0.501l0.445-1.624c0.074-0.269 0.318-0.445 0.584-0.445 0.066-0.025 1.216 0.319 1.311 0.337 0.316 0.079 0.516 0.432 0.424 0.744l-0.445 1.624c-0.046 0.167-0.157 0.303-0.312 0.381-0.175 0.088-0.299 0.252-0.337 0.444-0.337 1.718-0.466 3.463-0.387 5.114l-0.588 0.162c-0.024-0.632-0.364-1.158-0.903-1.306-0.353-0.097-0.741-0.007-1.065 0.247-0.145 0.113-0.272 0.255-0.377 0.417l-0.444-0.46c0.917-1.404 1.697-2.976 2.253-4.567zM21.13 10.484c-0.066 0.241-0.199 0.453-0.364 0.583-0.078 0.061-0.233 0.157-0.395 0.113s-0.247-0.206-0.282-0.298c-0.076-0.196-0.082-0.446-0.016-0.687s0.199-0.453 0.364-0.583c0.064-0.050 0.18-0.124 0.309-0.124 0.028 0 0.057 0.003 0.086 0.011 0.282 0.077 0.421 0.537 0.299 0.985zM17.252 11.411c0.508-0.544 0.997-1.149 1.458-1.799l0.583 0.605c-0.052 0.328-0.023 0.655 0.088 0.94 0.149 0.383 0.437 0.659 0.79 0.755 0.093 0.025 0.188 0.038 0.284 0.038 0.269 0 0.542-0.098 0.781-0.285 0.241-0.189 0.432-0.455 0.554-0.764l0.787-0.217c0.069 0.769 0.182 1.512 0.345 2.217 0.064 0.277 0.109 0.57 0.139 0.872l-6.944 0.004c-0.072-0.112-0.156-0.217-0.249-0.312 0.381-0.747 0.855-1.486 1.385-2.053zM10.741 14.167h3.778c0.348 0 0.631 0.283 0.631 0.631v8.337c0 0.348-0.283 0.631-0.631 0.631h-3.778c-0.348 0-0.631-0.283-0.631-0.631v-8.337c0-0.348 0.283-0.631 0.631-0.631zM11.788 12.093c-0.006-0.157 0.116-0.29 0.273-0.296l1.926-0.077c0.004-0 0.008-0 0.012-0 0.152 0 0.278 0.12 0.284 0.273l0.036 0.908h-2.085c-0.054-0.24-0.165-0.465-0.328-0.658l-0.118-0.141zM7.721 12.987c0.004-0.044 0.022-0.127 0.1-0.193l1.474-1.243c0.154-0.1 0.256-0.1 0.401 0.034l1.109 1.315h-0.063c-0.672 0-1.262 0.351-1.6 0.879l-0.861 0-0.493-0.585c-0.066-0.078-0.070-0.164-0.066-0.207zM22.936 30.62c-0.006 0.060-0.057 0.105-0.117 0.105l-14.256 0.008c-0.060 0-0.111-0.045-0.117-0.099l-1.507-15.457c-0.005-0.043 0.013-0.073 0.029-0.091s0.044-0.039 0.088-0.039l1.787-0.001v8.089c0 1.047 0.851 1.898 1.898 1.898h3.778c1.047 0 1.898-0.851 1.898-1.898v-8.093l7.893-0.004c0.043 0 0.071 0.021 0.087 0.039s0.034 0.048 0.029 0.097z"></path>
<path d="M11.558 20.665c-0.004 0-0.008 0-0.011-0-0.35-0.006-0.628-0.295-0.622-0.645 0.008-0.464 0.011-0.955 0.008-1.459-0.002-0.35 0.28-0.635 0.629-0.637 0.352-0.003 0.635 0.28 0.637 0.629 0.003 0.515 0.001 1.016-0.008 1.49-0.006 0.346-0.289 0.622-0.633 0.622z"></path>
<path d="M11.558 16.997c-0.35 0-0.633-0.284-0.633-0.633v-0.251c0-0.35 0.284-0.633 0.633-0.633s0.633 0.284 0.633 0.633v0.251c0 0.35-0.284 0.633-0.633 0.633z"></path>
</svg>
