<!-- Generated by IcoMoon.io -->
<svg version="1.1" xmlns="http://www.w3.org/2000/svg" width="32" height="32" viewBox="0 0 32 32">
<title>couple2</title>
<path d="M14.44 0.154l0.516 1.452c0.022 0.062 0.066 0.111 0.121 0.136l1.29 0.581c0.182 0.082 0.182 0.372 0 0.455l-1.29 0.581c-0.055 0.025-0.099 0.074-0.121 0.136l-0.516 1.452c-0.073 0.205-0.331 0.205-0.404 0l-0.516-1.452c-0.022-0.062-0.066-0.111-0.121-0.136l-1.29-0.581c-0.182-0.082-0.182-0.372 0-0.455l1.29-0.581c0.055-0.025 0.099-0.074 0.121-0.136l0.516-1.452c0.073-0.205 0.331-0.205 0.404 0z"></path>
<path d="M2.359 1.934l0.383 1.077c0.016 0.046 0.049 0.083 0.090 0.101l0.957 0.431c0.135 0.061 0.135 0.276 0 0.337l-0.957 0.431c-0.041 0.018-0.073 0.055-0.090 0.101l-0.383 1.077c-0.054 0.152-0.245 0.152-0.3 0l-0.383-1.077c-0.016-0.046-0.049-0.083-0.090-0.101l-0.957-0.431c-0.135-0.061-0.135-0.276 0-0.337l0.957-0.431c0.041-0.018 0.073-0.055 0.090-0.101l0.383-1.077c0.054-0.152 0.245-0.152 0.3-0z"></path>
<path d="M25.52 0.209c0.606 0.143 0.981 0.75 0.838 1.356s-0.75 0.981-1.356 0.838c-0.606-0.143-0.981-0.75-0.838-1.356s0.75-0.981 1.356-0.838z"></path>
<path d="M19.875 4.092c0 0.269-0.218 0.486-0.486 0.486s-0.486-0.218-0.486-0.486c0-0.269 0.218-0.486 0.486-0.486s0.486 0.218 0.486 0.486z"></path>
<path d="M30.354 1.877l0.383 1.077c0.016 0.046 0.049 0.083 0.090 0.101l0.957 0.431c0.135 0.061 0.135 0.276 0 0.337l-0.957 0.431c-0.041 0.018-0.073 0.055-0.090 0.101l-0.383 1.077c-0.054 0.152-0.245 0.152-0.3 0l-0.383-1.077c-0.016-0.046-0.049-0.083-0.090-0.101l-0.957-0.431c-0.135-0.061-0.135-0.276 0-0.337l0.957-0.431c0.041-0.018 0.073-0.055 0.090-0.101l0.383-1.077c0.054-0.152 0.245-0.152 0.3 0z"></path>
<path d="M12.010 16.935c0.245 0.245 0.245 0.642 0 0.886s-0.642 0.245-0.886 0c-0.245-0.245-0.245-0.642 0-0.886s0.642-0.245 0.886 0z"></path>
<path d="M5.513 17.378c0 0.346-0.281 0.627-0.627 0.627s-0.627-0.281-0.627-0.627c0-0.346 0.281-0.627 0.627-0.627s0.627 0.281 0.627 0.627z"></path>
<path d="M8.855 17.001c-0.208 0-0.377 0.169-0.377 0.377 0 0.138-0.112 0.25-0.25 0.25s-0.25-0.112-0.25-0.25c0-0.208-0.169-0.377-0.377-0.377s-0.377 0.169-0.377 0.377c0 0.554 0.45 1.004 1.004 1.004s1.004-0.45 1.004-1.004c-0-0.208-0.169-0.377-0.377-0.377z"></path>
<path d="M3.608 13.905c-0.071 0-0.143-0.012-0.214-0.038-0.326-0.118-0.495-0.479-0.377-0.805 0.203-0.561 0.533-1.079 0.979-1.537 0.242-0.249 0.64-0.254 0.889-0.012s0.254 0.64 0.012 0.889c-0.321 0.33-0.556 0.697-0.699 1.089-0.093 0.256-0.334 0.415-0.591 0.415z"></path>
<path d="M24.91 6.095h-2.601c-3.333 0-6.128 2.348-6.819 5.476-0.692-1.197-1.762-2.173-3.057-2.785-0.001-2.317-1.887-4.202-4.205-4.202s-4.204 1.885-4.205 4.202c-2.32 1.097-3.917 3.36-3.917 5.969v0.592c0 0.038 0.003 0.076 0.009 0.113 0.173 1.119 0.716 1.788 1.198 2.215 0.57 1.231 1.53 2.246 2.72 2.886-0.469 0.761-0.741 1.656-0.741 2.614v2.445c0 0.076 0.005 0.15 0.013 0.222-0.706 1.12-1.098 2.473-1.098 3.901 0 0.829 0.721 1.444 2.143 1.827 1.025 0.276 2.394 0.428 3.854 0.428 1.407 0 5.997-0.163 5.997-2.255 0-1.338-0.344-2.61-0.968-3.686 0.038-0.138 0.059-0.285 0.059-0.437v-2.445c0-0.98-0.284-1.894-0.773-2.666 1.169-0.656 2.106-1.677 2.657-2.907 0.052-0.041 0.101-0.083 0.149-0.126v3.814c0 0.972 0.79 1.762 1.762 1.762h1.589c-0.001 0.041-0.003 0.082-0.003 0.123v2.445c0 0.076 0.005 0.15 0.014 0.223-0.706 1.121-1.098 2.474-1.098 3.901 0 0.829 0.721 1.444 2.143 1.827 1.025 0.276 2.394 0.428 3.854 0.428 1.407 0 5.997-0.163 5.997-2.255 0-1.336-0.344-2.607-0.968-3.684 0.038-0.139 0.059-0.286 0.059-0.44v-2.445c0-0.041-0.002-0.082-0.003-0.123h1.46c0.972 0 1.762-0.791 1.762-1.762v-8.211c-0-3.851-3.133-6.984-6.984-6.984zM8.228 6.063c1.322 0 2.426 0.947 2.673 2.198-0.524-0.117-1.070-0.179-1.632-0.179h-2.082c-0.562 0-1.109 0.062-1.633 0.179 0.247-1.251 1.351-2.198 2.674-2.198zM12.944 29.745c0 0.047-0.211 0.343-1.212 0.613-0.909 0.245-2.194 0.385-3.527 0.385s-2.619-0.14-3.527-0.385c-1.002-0.27-1.212-0.566-1.212-0.613 0-0.116 0.003-0.231 0.009-0.346 0.354 0.181 0.866 0.325 1.547 0.437 0.898 0.148 2.053 0.229 3.232 0.229 0.181 0 0.363-0.002 0.544-0.006 1.181-0.025 2.266-0.132 3.055-0.3 0.458-0.098 0.816-0.215 1.082-0.355 0.006 0.113 0.009 0.226 0.009 0.341zM12.817 28.474c-0.020 0.038-0.034 0.079-0.041 0.123-0.13 0.24-1.516 0.689-4.315 0.713-1.219 0.010-2.394-0.067-3.307-0.216-1.132-0.185-1.495-0.429-1.545-0.513-0.005-0.027-0.013-0.053-0.023-0.077 0.087-0.439 0.219-0.86 0.393-1.255 0.319 0.172 0.786 0.307 1.414 0.411 0.794 0.131 1.813 0.202 2.854 0.202 0.159 0 0.319-0.002 0.479-0.005 1.043-0.022 2.002-0.116 2.7-0.265 0.324-0.069 0.707-0.17 1.007-0.339 0.169 0.386 0.299 0.795 0.385 1.221zM7.861 22.483c0.105 0.119 0.256 0.187 0.414 0.187s0.309-0.068 0.414-0.187c0.254-0.288 0.62-0.453 1.004-0.453 0.258 0 0.509 0.074 0.725 0.213 0.027 0.018 0.056 0.031 0.086 0.041 0.155 0.322 0.241 0.682 0.241 1.061v0.555h-4.916v-0.555c0-0.383 0.088-0.745 0.245-1.069 0.017-0.008 0.033-0.017 0.049-0.027 0.218-0.144 0.472-0.22 0.735-0.22 0.384 0 0.749 0.165 1.003 0.453zM7.194 21.303h2.162c-0.403 0.066-0.779 0.248-1.081 0.526-0.302-0.278-0.678-0.46-1.081-0.526zM10.664 21.189c0.232-0.045 0.46-0.103 0.683-0.173 0.433 0.611 0.689 1.356 0.689 2.16v1.374c-0.17-0.158-0.349-0.307-0.536-0.446v-0.758c0-0.83-0.317-1.586-0.835-2.156zM5.074 23.345v0.642c-0.015 0.009-0.029 0.018-0.043 0.028-0.167 0.117-0.328 0.243-0.482 0.376v-1.215c0-0.79 0.247-1.523 0.666-2.127 0.221 0.065 0.446 0.119 0.676 0.159-0.508 0.568-0.818 1.317-0.818 2.137zM5.598 25.158h5.212c0.507 0.387 0.936 0.872 1.273 1.425-0.139 0.083-0.447 0.212-1.103 0.326-0.706 0.123-1.636 0.193-2.617 0.198-1.039 0.005-2.042-0.061-2.823-0.187-0.713-0.115-1.055-0.249-1.215-0.338 0.337-0.553 0.766-1.037 1.273-1.424zM9.476 20.046h-2.496c-1.769 0-3.325-0.927-4.211-2.319 1.932-1.167 3.689-2.944 5.572-5.642 0.515 0.731 1.246 1.679 1.965 2.533 1.767 2.098 2.779 2.865 3.34 3.168-0.891 1.36-2.428 2.26-4.172 2.26zM14.871 15.302c-0.075 0.565-0.29 0.892-0.601 1.137-0.521-0.307-1.464-1.149-2.832-2.773-1.256-1.491-2.272-2.942-2.407-3.235-0.112-0.244-0.348-0.408-0.616-0.428-0.019-0.001-0.037-0.002-0.056-0.002-0.247 0-0.48 0.124-0.617 0.333-1.965 2.984-3.72 4.878-5.629 6.062-0.24-0.259-0.44-0.598-0.529-1.107v-0.532c0-2.864 2.513-5.194 5.602-5.194h2.082c3.089 0 5.602 2.33 5.602 5.194zM22.309 7.352h2.601c2.148 0 4.024 1.189 5.003 2.944-1.297-1.358-3.176-2.214-5.263-2.214h-2.082c-2.087 0-3.966 0.856-5.263 2.214 0.98-1.755 2.855-2.944 5.003-2.944zM16.967 14.756c0-2.864 2.513-5.194 5.602-5.194h2.082c3.089 0 5.602 2.33 5.602 5.194v0.542c-0.041 0.254-0.196 0.524-0.376 0.761l-1.102-1.903c-0.132-0.229-0.376-0.369-0.64-0.369-0.002 0-0.003 0-0.005 0l-9.332 0.065c-0.275 0.002-0.527 0.156-0.652 0.401l-0.886 1.721c-0.134-0.216-0.246-0.455-0.292-0.689v-0.528zM26.046 21.189c0.232-0.045 0.459-0.103 0.681-0.173 0.433 0.611 0.689 1.355 0.689 2.16v1.373c-0.17-0.158-0.349-0.307-0.536-0.445v-0.759c0-0.83-0.316-1.586-0.835-2.157zM21.21 23.345c0-0.124 0.009-0.245 0.027-0.364h4.862c0.042 0.231 0.023 0.702 0.027 0.942h-4.916zM20.456 23.345v0.647c-0.027 0.014-0.054 0.030-0.079 0.048-0.154 0.11-0.303 0.228-0.446 0.351v-1.216c0-0.79 0.247-1.522 0.666-2.127 0.221 0.065 0.447 0.118 0.677 0.159-0.508 0.568-0.818 1.317-0.818 2.138zM21.481 22.227c0.139-0.271 0.327-0.514 0.553-0.715v0.715zM22.788 22.227v-0.924h1.761v0.924zM25.303 22.227v-0.715c0.226 0.201 0.414 0.444 0.553 0.715zM24.858 20.046h-2.495c-1.818 0-3.41-0.978-4.282-2.436l1.175-2.284 8.454-0.059 1.377 2.378c0.005 0.008 0.011 0.016 0.016 0.024-0.879 1.424-2.452 2.376-4.245 2.376zM17.088 21.795c-0.278 0-0.505-0.227-0.505-0.505v-3.767c0.029 0.032 0.057 0.062 0.083 0.090 0.567 1.26 1.538 2.298 2.749 2.949-0.235 0.381-0.42 0.795-0.546 1.233zM20.059 30.358c-1.002-0.27-1.212-0.566-1.212-0.613 0-1.849 0.783-3.539 2.104-4.565h1.13c-0.668 1.333-1.378 3.238-1.387 5.32-0.227-0.043-0.44-0.090-0.635-0.142zM23.586 30.743c-0.747 0-1.479-0.044-2.139-0.126-0.019-2.101 0.75-4.038 1.422-5.323 0.019-0.036 0.031-0.075 0.038-0.113h1.358c0.007 0.041 0.020 0.082 0.041 0.12 0.709 1.291 1.173 2.719 1.34 4.129 0.047 0.395 0.071 0.793 0.072 1.188-0.658 0.081-1.387 0.125-2.132 0.125zM27.113 30.358c-0.197 0.053-0.413 0.101-0.642 0.144-0.005-0.386-0.030-0.775-0.076-1.161-0.168-1.418-0.616-2.85-1.298-4.16h1.124c1.321 1.026 2.104 2.716 2.104 4.565 0 0.047-0.211 0.343-1.212 0.613zM30.637 21.29c0 0.278-0.227 0.505-0.505 0.505h-1.653c-0.132-0.459-0.328-0.891-0.579-1.285 1.215-0.681 2.181-1.758 2.721-3.054 0.005-0.005 0.010-0.010 0.015-0.015v3.849z"></path>
<path d="M27.39 16.936c0.245 0.245 0.245 0.642 0 0.886s-0.642 0.245-0.886 0c-0.245-0.245-0.245-0.642 0-0.886s0.642-0.245 0.886 0z"></path>
<path d="M20.268 16.752c-0.346 0-0.627 0.281-0.627 0.627s0.281 0.627 0.627 0.627 0.627-0.281 0.627-0.627c0-0.346-0.281-0.627-0.627-0.627z"></path>
<path d="M24.237 17.001c-0.208 0-0.377 0.169-0.377 0.377 0 0.138-0.112 0.25-0.25 0.25s-0.25-0.112-0.25-0.25c0-0.208-0.169-0.377-0.377-0.377s-0.377 0.169-0.377 0.377c0 0.554 0.45 1.004 1.004 1.004s1.004-0.45 1.004-1.004c-0-0.208-0.169-0.377-0.377-0.377z"></path>
<path d="M19.697 12.767c-0.16 0-0.319-0.060-0.442-0.181-0.247-0.244-0.249-0.642-0.005-0.889 0.325-0.329 1.116-0.778 1.459-0.896 0.328-0.113 0.686 0.062 0.799 0.39s-0.062 0.686-0.39 0.799c-0.19 0.066-0.805 0.42-0.973 0.591-0.123 0.124-0.285 0.187-0.447 0.187z"></path>
</svg>
