<!-- Generated by IcoMoon.io -->
<svg version="1.1" xmlns="http://www.w3.org/2000/svg" width="32" height="32" viewBox="0 0 32 32">
<title>couple</title>
<path d="M18.488 0.314l0.514 1.447c0.022 0.062 0.066 0.111 0.121 0.136l1.285 0.579c0.182 0.082 0.182 0.371 0 0.453l-1.285 0.579c-0.055 0.025-0.099 0.074-0.121 0.136l-0.514 1.447c-0.073 0.204-0.33 0.204-0.402 0l-0.515-1.447c-0.022-0.062-0.066-0.111-0.121-0.136l-1.285-0.579c-0.182-0.082-0.182-0.371 0-0.453l1.285-0.579c0.055-0.025 0.099-0.074 0.121-0.136l0.514-1.447c0.073-0.204 0.33-0.204 0.402 0z"></path>
<path d="M29.977 3.4l0.382 1.073c0.016 0.046 0.049 0.082 0.090 0.101l0.953 0.43c0.135 0.061 0.135 0.275 0 0.336l-0.953 0.43c-0.041 0.018-0.073 0.055-0.090 0.101l-0.382 1.073c-0.054 0.152-0.245 0.152-0.299 0l-0.382-1.073c-0.016-0.046-0.049-0.082-0.090-0.101l-0.953-0.43c-0.135-0.061-0.135-0.275 0-0.336l0.953-0.43c0.041-0.018 0.073-0.055 0.090-0.101l0.382-1.073c0.054-0.152 0.245-0.152 0.299 0z"></path>
<path d="M1.996 0.835l0.382 1.073c0.016 0.046 0.049 0.082 0.090 0.101l0.953 0.43c0.135 0.061 0.135 0.275 0 0.336l-0.953 0.43c-0.041 0.018-0.073 0.055-0.090 0.101l-0.382 1.073c-0.054 0.152-0.245 0.152-0.298 0l-0.382-1.073c-0.016-0.046-0.049-0.082-0.089-0.101l-0.953-0.43c-0.135-0.061-0.135-0.275 0-0.336l0.953-0.43c0.041-0.018 0.073-0.055 0.089-0.101l0.382-1.073c0.054-0.152 0.245-0.152 0.299 0z"></path>
<path d="M7.841 3.141c0.609 0.121 1.004 0.712 0.883 1.321s-0.712 1.004-1.321 0.883c-0.609-0.121-1.004-0.712-0.883-1.321s0.712-1.004 1.321-0.883z"></path>
<path d="M26.733 2.414c0.266 0.033 0.455 0.275 0.422 0.54s-0.275 0.455-0.54 0.422c-0.266-0.033-0.455-0.275-0.422-0.54s0.275-0.455 0.54-0.422z"></path>
<path d="M20.387 16.733c-0.341 0-0.617 0.276-0.617 0.617s0.276 0.617 0.617 0.617 0.617-0.276 0.617-0.617-0.276-0.617-0.617-0.617z"></path>
<path d="M26.987 16.733c-0.341 0-0.617 0.276-0.617 0.617s0.276 0.617 0.617 0.617 0.617-0.276 0.617-0.617-0.276-0.617-0.617-0.617z"></path>
<path d="M21.058 15.189c-0.031-0.016-0.315-0.155-0.671-0.155s-0.64 0.139-0.671 0.155c-0.185 0.094-0.26 0.321-0.165 0.506 0.067 0.13 0.198 0.206 0.334 0.206 0.057 0 0.115-0.013 0.17-0.041 0.002-0.001 0.155-0.075 0.332-0.075s0.329 0.073 0.329 0.073c0.185 0.094 0.411 0.021 0.506-0.164s0.021-0.411-0.164-0.506z"></path>
<path d="M27.658 15.189c-0.031-0.016-0.315-0.155-0.671-0.155s-0.64 0.139-0.671 0.155c-0.185 0.094-0.26 0.321-0.165 0.506 0.067 0.13 0.198 0.206 0.334 0.206 0.057 0 0.115-0.013 0.17-0.041 0.002-0.001 0.155-0.075 0.332-0.075s0.329 0.073 0.329 0.073c0.185 0.094 0.411 0.021 0.506-0.164s0.021-0.411-0.164-0.506z"></path>
<path d="M24.304 16.975c-0.207 0-0.376 0.168-0.376 0.376 0 0.133-0.108 0.242-0.242 0.242s-0.242-0.108-0.242-0.242c0-0.208-0.168-0.376-0.376-0.376s-0.376 0.168-0.376 0.376c0 0.548 0.446 0.993 0.993 0.993s0.993-0.446 0.993-0.993c0-0.208-0.168-0.376-0.376-0.376z"></path>
<path d="M19.828 11.986c-0.115 0-0.231-0.031-0.335-0.097-0.292-0.185-0.379-0.572-0.194-0.864 0.338-0.534 0.731-0.913 1-1.137 0.266-0.221 0.661-0.185 0.882 0.081s0.185 0.661-0.081 0.882c-0.283 0.235-0.547 0.535-0.743 0.845-0.119 0.188-0.322 0.291-0.53 0.291z"></path>
<path d="M5.013 16.733c-0.341 0-0.617 0.276-0.617 0.617s0.276 0.617 0.617 0.617c0.341 0 0.617-0.276 0.617-0.617s-0.277-0.617-0.617-0.617z"></path>
<path d="M11.613 16.733c-0.341 0-0.617 0.276-0.617 0.617s0.277 0.617 0.617 0.617c0.341 0 0.617-0.276 0.617-0.617s-0.276-0.617-0.617-0.617z"></path>
<path d="M8.931 16.975c-0.207 0-0.376 0.168-0.376 0.376 0 0.133-0.108 0.242-0.242 0.242s-0.242-0.108-0.242-0.242c0-0.208-0.168-0.376-0.376-0.376s-0.376 0.168-0.376 0.376c0 0.548 0.446 0.993 0.993 0.993s0.993-0.446 0.993-0.993c0-0.208-0.168-0.376-0.376-0.376z"></path>
<path d="M24.755 7.27h-2.137c-2.946 0-5.487 1.768-6.618 4.299-1.131-2.531-3.672-4.299-6.618-4.299h-2.137c-3.995 0-7.245 3.25-7.245 7.245v0.649c0 0.010 0 0.020 0.001 0.030 0.061 1.515 1.017 2.305 1.477 2.685 0.137 0.113 0.303 0.169 0.469 0.169 0.013 0 0.026-0.001 0.039-0.002 0.541 0.923 1.325 1.686 2.264 2.202-0.577 0.813-0.918 1.805-0.918 2.875v2.437c0 0.495 0.19 0.934 0.535 1.238 0.301 0.265 0.701 0.411 1.125 0.411 0.167 0 0.336-0.025 0.499-0.073v3.069c0 0.902 0.734 1.635 1.635 1.635h0.729c0.179 0 0.34-0.075 0.454-0.195 0.114 0.12 0.275 0.195 0.454 0.195h0.729c0.902 0 1.635-0.734 1.635-1.635v-3.089c0.147 0.037 0.304 0.057 0.467 0.057 0.971 0 1.703-0.694 1.703-1.613v-2.437c0-1.071-0.341-2.063-0.918-2.876 0.95-0.522 1.742-1.297 2.284-2.235 0.11-0.010 0.218-0.045 0.318-0.107 0.414-0.256 0.75-0.56 1.010-0.907 0.298 0.414 0.638 0.696 0.862 0.88 0.058 0.048 0.122 0.085 0.19 0.113 0.57 1.053 1.438 1.921 2.49 2.492-0.481 0.766-0.76 1.671-0.76 2.64v2.437c0 0.495 0.19 0.934 0.535 1.238 0.301 0.265 0.701 0.411 1.125 0.411 0.167 0 0.336-0.025 0.499-0.073v3.069c0 0.902 0.734 1.635 1.635 1.635h0.729c0.179 0 0.34-0.075 0.454-0.195 0.114 0.12 0.275 0.195 0.454 0.195h0.729c0.902 0 1.635-0.734 1.635-1.635v-3.089c0.148 0.037 0.304 0.058 0.467 0.058 0.971 0 1.703-0.694 1.703-1.613v-2.437c0-0.992-0.293-1.916-0.795-2.693 1.046-0.592 1.903-1.481 2.454-2.552 0.988-0.627 1.528-1.523 1.605-2.665 0.001-0.016 0.002-0.033 0.002-0.049v-0.649c0-3.995-3.25-7.245-7.245-7.245zM4.99 25.955c-0.152 0-0.407-0.051-0.407-0.396v-0.286h0.687c0.041 0.124 0.090 0.246 0.145 0.363-0.053 0.293-0.333 0.319-0.425 0.319zM5.107 23.292v0.974c0 0.087 0.004 0.172 0.011 0.257h-0.534v-1.399c0-0.905 0.325-1.734 0.862-2.381 0.194 0.056 0.392 0.103 0.594 0.139v0.155c-0.576 0.579-0.934 1.376-0.934 2.256zM7.869 30.588c-0.005-0-0.010-0.001-0.015-0.001h-0.729c-0.211 0-0.383-0.172-0.383-0.383v-0.415h1.127v0.798zM7.869 29.038h-1.127v-1.982c0.342 0.193 0.722 0.324 1.127 0.38zM7.869 24.684v1.99c-1.142-0.207-2.011-1.208-2.011-2.409v-0.974c0-0.399 0.096-0.776 0.266-1.109l1.757 2.405c-0.008 0.031-0.013 0.063-0.013 0.096zM6.792 21.627v-0.961c0-0.12 0.085-0.173 0.121-0.19 0.018-0.009 0.052-0.021 0.092-0.021 0.039 0 0.086 0.012 0.131 0.050l0.772 0.642-0.772 0.642c-0.093 0.077-0.187 0.046-0.224 0.029s-0.121-0.070-0.121-0.19zM8.285 23.867l-0.971-1.329c0.108-0.037 0.211-0.094 0.303-0.171l0.732-0.609 0.732 0.609c0.073 0.061 0.153 0.109 0.236 0.145zM8.789 21.146l0.772-0.642c0.093-0.077 0.187-0.046 0.224-0.029s0.121 0.070 0.121 0.19v0.961c0 0.121-0.085 0.173-0.121 0.19s-0.131 0.048-0.224-0.029zM9.873 30.204c0 0.211-0.172 0.383-0.383 0.383h-0.729c-0.049 0-0.095 0.006-0.141 0.017v-0.814h1.253zM9.873 29.038h-1.253v-1.587c0.452-0.044 0.876-0.183 1.253-0.395zM10.757 24.265c0 1.245-0.933 2.274-2.136 2.429v-2.010c0-0.005-0.001-0.010-0.001-0.016l1.878-2.47c0.165 0.329 0.259 0.7 0.259 1.093zM12.043 25.559c0 0.334-0.344 0.36-0.45 0.36-0.088 0-0.344-0.019-0.424-0.221 0.069-0.136 0.128-0.278 0.176-0.425h0.698zM12.043 24.522h-0.545c0.007-0.085 0.011-0.17 0.011-0.257v-0.974c0-0.837-0.324-1.599-0.851-2.169v-0.255c0.177-0.034 0.352-0.076 0.523-0.125 0.538 0.646 0.863 1.476 0.863 2.38zM10.497 20.132c-0.095-0.143-0.229-0.26-0.393-0.337-0.341-0.16-0.734-0.11-1.023 0.131l-0.356 0.296h-0.75l-0.356-0.296c-0.29-0.241-0.682-0.291-1.023-0.131-0.169 0.079-0.306 0.201-0.402 0.35-1.513-0.265-2.8-1.192-3.552-2.47l1.946-1.782c0.033-0.007 0.065-0.017 0.096-0.033 0.002-0.001 0.155-0.075 0.332-0.075s0.329 0.073 0.329 0.073c0.185 0.094 0.411 0.021 0.506-0.164s0.021-0.411-0.164-0.506c-0.016-0.008-0.103-0.051-0.233-0.089l3.834-3.511 2.683 3.489c-0.102-0.025-0.224-0.044-0.355-0.044-0.356 0-0.64 0.14-0.671 0.155-0.185 0.094-0.26 0.321-0.165 0.506 0.067 0.13 0.198 0.206 0.334 0.206 0.057 0 0.115-0.013 0.17-0.041 0.002-0.001 0.155-0.075 0.332-0.075s0.329 0.073 0.329 0.073c0.184 0.094 0.408 0.022 0.503-0.16l1.532 1.991c-0.744 1.252-2.001 2.164-3.481 2.442zM15.153 15.138c-0.034 0.443-0.173 0.797-0.437 1.094l-4.752-6.179c-0.126-0.164-0.315-0.267-0.52-0.285s-0.409 0.051-0.562 0.191l-6.932 6.349c-0.262-0.294-0.453-0.649-0.476-1.16v-0.633c0-3.182 2.589-5.771 5.771-5.771h2.137c3.182 0 5.771 2.589 5.771 5.771v0.623zM20.43 25.955c-0.152 0-0.407-0.051-0.407-0.396v-0.286h0.687c0.041 0.124 0.090 0.246 0.145 0.363-0.053 0.293-0.333 0.319-0.425 0.319zM20.546 23.292v0.974c0 0.087 0.004 0.172 0.011 0.257h-0.534v-1.399c0-0.801 0.255-1.543 0.687-2.151 0.196 0.058 0.395 0.107 0.599 0.145-0 0.035-0 0.070-0 0.106-0.475 0.558-0.762 1.281-0.762 2.070zM23.308 30.588c-0.005-0-0.010-0.001-0.015-0.001h-0.729c-0.211 0-0.383-0.172-0.383-0.383v-0.415h1.127zM23.308 29.038h-1.127v-1.982c0.342 0.193 0.722 0.324 1.127 0.38zM25.312 30.204c0 0.211-0.172 0.383-0.383 0.383h-0.729c-0.049 0-0.096 0.006-0.141 0.017v-0.814h1.253v0.415zM25.312 29.038h-1.253v-1.587c0.451-0.044 0.876-0.183 1.253-0.395zM26.196 24.265c0 1.351-1.099 2.449-2.449 2.449s-2.449-1.099-2.449-2.449v-0.974c0-0.377 0.086-0.734 0.238-1.053l0.721 0.892c0.071 0.088 0.179 0.14 0.292 0.14h0.002c0.093-0 0.181-0.036 0.249-0.097 0.019 0.021 0.039 0.041 0.059 0.061l-0.221 0.728c-0.006 0.021-0.011 0.042-0.014 0.064-0.045 0.373 0.010 0.753 0.158 1.098l0.102 0.238c0.003 0.007 0.006 0.015 0.010 0.022 0.234 0.462 0.518 0.696 0.846 0.696h0.004c0.328-0.002 0.61-0.237 0.838-0.699 0.006-0.011 0.011-0.023 0.015-0.035l0.101-0.272c0.119-0.321 0.16-0.669 0.119-1.009-0.003-0.022-0.007-0.044-0.014-0.065l-0.233-0.751c0.024-0.021 0.048-0.044 0.070-0.068 0.066 0.056 0.149 0.088 0.237 0.089 0.114 0.003 0.222-0.049 0.295-0.137l0.767-0.929c0.163 0.328 0.256 0.697 0.256 1.087zM24.131 22.543v0.027c0 0.083-0.068 0.151-0.151 0.151h-0.513c-0.083 0-0.151-0.068-0.151-0.151v-0.038l0.405-0.51zM24.053 21.225h0.863c0.046 0 0.092-0.002 0.138-0.003 0.118 0.075 0.229 0.159 0.332 0.252v0.221l-0.495 0.6zM23.995 24.812l-0.094 0.253c-0.071 0.141-0.127 0.211-0.16 0.243-0.034-0.033-0.094-0.105-0.17-0.253l-0.097-0.227c-0.092-0.214-0.128-0.449-0.106-0.681l0.205-0.675h0.281l0.222 0.717c0.021 0.21-0.006 0.425-0.080 0.623zM22.546 22.293l-0.488-0.604c0-0.047 0-0.106 0.001-0.17 0.116-0.11 0.242-0.209 0.377-0.295 0.007 0 0.014 0 0.021 0h0.937zM27.482 25.559c0 0.334-0.344 0.36-0.45 0.36-0.088 0-0.344-0.019-0.424-0.221 0.069-0.136 0.128-0.278 0.176-0.425h0.698v0.286zM27.482 24.522h-0.545c0.007-0.085 0.011-0.17 0.011-0.257v-0.974c0-0.815-0.306-1.559-0.81-2.125v-0.065c0.216-0.044 0.427-0.098 0.634-0.164 0.446 0.614 0.71 1.369 0.71 2.184v1.399zM24.916 19.972h-2.458c-1.899 0-3.549-1.086-4.363-2.668l0.947-3.012 0.741 0.52c0.262 0.184 0.613 0.177 0.868-0.016l1.268-0.962 1.332 0.979c0.264 0.194 0.625 0.19 0.885-0.009l1.399-1.073 1.443 1.086c0.284 0.214 0.681 0.194 0.942-0.047l0.413-0.38 0.898 3.005c-0.83 1.533-2.452 2.577-4.314 2.577zM30.526 15.138c-0.022 0.288-0.088 0.539-0.205 0.761l-0.914-3.060c-0.073-0.243-0.266-0.432-0.511-0.5-0.064-0.018-0.13-0.026-0.195-0.026-0.183 0-0.361 0.068-0.499 0.195l-0.829 0.763-1.4-1.054c-0.264-0.199-0.629-0.197-0.891 0.004l-1.405 1.077-1.329-0.977c-0.263-0.193-0.622-0.191-0.882 0.007l-1.278 0.97-1.125-0.789c-0.192-0.135-0.438-0.17-0.66-0.094s-0.396 0.253-0.466 0.477l-0.927 2.95c-0.091-0.197-0.15-0.422-0.163-0.691v-0.633c0-3.182 2.589-5.771 5.771-5.771h2.137c3.182 0 5.771 2.589 5.771 5.771v0.623z"></path>
<path d="M3.611 12.539c-0.115 0-0.231-0.031-0.335-0.097-0.292-0.185-0.379-0.572-0.194-0.864 0.339-0.534 0.731-0.913 1-1.137 0.266-0.221 0.661-0.185 0.882 0.081s0.185 0.661-0.081 0.882c-0.283 0.235-0.547 0.535-0.743 0.844-0.119 0.188-0.322 0.291-0.53 0.291z"></path>
</svg>
