<!-- Generated by IcoMoon.io -->
<svg version="1.1" xmlns="http://www.w3.org/2000/svg" width="32" height="32" viewBox="0 0 32 32">
<title>couple1</title>
<path d="M5.641 17.365c0 0.342-0.277 0.619-0.619 0.619s-0.619-0.277-0.619-0.619c0-0.342 0.277-0.619 0.619-0.619s0.619 0.277 0.619 0.619z"></path>
<path d="M12.253 17.365c0 0.342-0.277 0.619-0.619 0.619s-0.619-0.277-0.619-0.619c0-0.342 0.277-0.619 0.619-0.619s0.619 0.277 0.619 0.619z"></path>
<path d="M5.695 15.199c-0.031-0.016-0.315-0.156-0.672-0.156s-0.641 0.14-0.672 0.156c-0.185 0.095-0.26 0.322-0.166 0.507 0.067 0.131 0.198 0.206 0.335 0.206 0.057 0 0.115-0.013 0.17-0.041 0.002-0.001 0.155-0.075 0.333-0.075s0.33 0.073 0.33 0.073c0.185 0.095 0.412 0.021 0.506-0.164s0.021-0.412-0.164-0.506z"></path>
<path d="M12.306 15.199c-0.031-0.016-0.315-0.156-0.672-0.156s-0.641 0.14-0.672 0.156c-0.185 0.095-0.26 0.322-0.166 0.507 0.067 0.131 0.198 0.206 0.335 0.206 0.057 0 0.115-0.013 0.17-0.041 0.002-0.001 0.155-0.075 0.333-0.075s0.33 0.073 0.33 0.073c0.185 0.095 0.412 0.021 0.506-0.164s0.021-0.412-0.164-0.506z"></path>
<path d="M8.947 16.988c-0.208 0-0.376 0.169-0.376 0.376 0 0.134-0.109 0.242-0.242 0.242s-0.242-0.109-0.242-0.242c0-0.208-0.169-0.376-0.376-0.376s-0.376 0.169-0.376 0.376c0 0.549 0.446 0.995 0.995 0.995s0.995-0.446 0.995-0.995c-0-0.208-0.169-0.376-0.377-0.376z"></path>
<path d="M4.857 11.525c-0.174 0-0.346-0.072-0.47-0.212-0.229-0.26-0.205-0.656 0.054-0.886 0.429-0.379 0.997-0.696 1.601-0.892 0.33-0.107 0.684 0.073 0.791 0.403s-0.073 0.684-0.403 0.791c-0.438 0.142-0.86 0.375-1.158 0.638-0.119 0.106-0.268 0.157-0.415 0.157z"></path>
<path d="M25.029 6.097h-2.596c-3.138 0-5.798 2.085-6.669 4.941-1.235-2.247-3.625-3.773-6.365-3.773h-2.141c-4.002 0-7.258 3.256-7.258 7.258v0.65c0 0.010 0 0.020 0.001 0.030 0.061 1.518 1.019 2.309 1.479 2.689 0.134 0.11 0.3 0.169 0.47 0.169 0.013 0 0.026-0.002 0.038-0.002 0.542 0.924 1.327 1.69 2.267 2.207-0.578 0.814-0.918 1.808-0.918 2.88v2.441c0 0.941 0.715 1.651 1.662 1.651 0.167 0 0.336-0.025 0.5-0.073v3.075c0 0.903 0.735 1.638 1.638 1.638h0.731c0.179 0 0.34-0.075 0.454-0.196 0.114 0.12 0.275 0.196 0.454 0.196h0.73c0.903 0 1.638-0.735 1.638-1.638v-3.094c0.148 0.037 0.304 0.057 0.468 0.057 0.972 0 1.706-0.695 1.706-1.616v-2.441c0-1.073-0.342-2.066-0.921-2.88 0.952-0.523 1.746-1.301 2.289-2.241 0.112-0.011 0.221-0.046 0.318-0.107 0.165-0.102 0.316-0.212 0.456-0.328v3.673c0 0.97 0.789 1.759 1.759 1.759h1.586c-0.001 0.041-0.003 0.082-0.003 0.123v2.441c0 0.079 0.005 0.156 0.015 0.231-0.698 1.114-1.098 2.464-1.098 3.885 0 0.828 0.72 1.441 2.139 1.823 1.024 0.276 2.39 0.427 3.847 0.427 1.404 0 5.986-0.162 5.986-2.251 0-1.331-0.351-2.598-0.968-3.668 0.040-0.142 0.062-0.292 0.062-0.449v-2.441c0-0.041-0.002-0.082-0.003-0.123h1.458c0.97 0 1.759-0.789 1.759-1.759v-8.197c-0-3.844-3.127-6.971-6.971-6.971zM22.433 7.352h2.596c2.144 0 4.016 1.187 4.994 2.939-1.295-1.356-3.17-2.21-5.253-2.21h-2.078c-2.083 0-3.959 0.854-5.253 2.21 0.978-1.751 2.85-2.938 4.994-2.938zM17.1 14.742c0-2.859 2.508-5.185 5.592-5.185h2.078c3.083 0 5.592 2.326 5.592 5.185v0.545c-0.059 0.449-0.207 0.747-0.421 0.973-1.214-1.419-2.094-2.838-2.885-4.634-0.095-0.215-0.285-0.372-0.514-0.423s-0.469 0.009-0.646 0.163c-2.101 1.827-5.149 3.699-8.224 5.057-0.259-0.264-0.478-0.612-0.571-1.151zM26.996 23.437v-0.12c0-0.828-0.316-1.583-0.833-2.153 0.231-0.045 0.458-0.103 0.68-0.172 0.433 0.61 0.688 1.353 0.688 2.156v1.375c-0.146-0.137-0.299-0.267-0.457-0.389v-0.367c-0-0.118-0.029-0.23-0.078-0.329zM23.365 22.456c0.105 0.119 0.255 0.187 0.413 0.187s0.308-0.068 0.413-0.187c0.254-0.288 0.619-0.452 1.002-0.452 0.258 0 0.508 0.074 0.724 0.213 0.027 0.018 0.056 0.031 0.085 0.041 0.114 0.237 0.19 0.494 0.223 0.765h-4.87c0.033-0.274 0.111-0.534 0.227-0.773 0.016-0.008 0.033-0.016 0.048-0.026 0.218-0.144 0.471-0.219 0.734-0.219 0.383-0 0.748 0.165 1.002 0.452zM22.699 21.278h2.158c-0.402 0.066-0.778 0.247-1.079 0.525-0.301-0.277-0.677-0.459-1.079-0.525zM20.584 23.264c-0.122 0.133-0.197 0.309-0.197 0.503v0.33c-0.113 0.085-0.222 0.174-0.329 0.266v-1.215c0-0.788 0.246-1.52 0.664-2.124 0.221 0.065 0.447 0.118 0.677 0.159-0.496 0.555-0.802 1.283-0.815 2.081zM21.14 23.775h5.18v0.646h-5.181zM24.976 20.023h-2.491c-1.746 0-3.284-0.905-4.172-2.269 0.521-0.231 1.042-0.477 1.557-0.734-0.064 0.098-0.101 0.215-0.101 0.34 0 0.346 0.28 0.626 0.626 0.626s0.626-0.28 0.626-0.626c0-0.334-0.262-0.606-0.592-0.624 2.094-1.086 4.083-2.354 5.685-3.631 0.332 0.679 0.684 1.311 1.069 1.916-0.035-0.003-0.071-0.005-0.108-0.005-0.36 0-0.647 0.141-0.678 0.157-0.185 0.095-0.26 0.322-0.166 0.507 0.067 0.131 0.198 0.206 0.335 0.206 0.057 0 0.115-0.013 0.17-0.041 0.002-0.001 0.158-0.076 0.339-0.076s0.336 0.075 0.336 0.075c0.108 0.055 0.23 0.053 0.331 0.005 0.44 0.615 0.924 1.211 1.466 1.814-0.878 1.416-2.446 2.361-4.232 2.361zM5 25.985c-0.152 0-0.407-0.052-0.407-0.397v-0.286h0.688c0.042 0.125 0.090 0.246 0.146 0.363-0.053 0.294-0.334 0.32-0.426 0.32zM5.116 23.316v0.975c0 0.087 0.004 0.172 0.011 0.257h-0.535v-1.402c0-0.906 0.325-1.737 0.863-2.385 0.149 0.043 0.301 0.080 0.455 0.112-0 0.107-0.001 0.223-0.001 0.334-0.493 0.564-0.793 1.302-0.793 2.108zM7.883 30.625c-0.005-0-0.745-0.001-0.745-0.001-0.211 0-0.383-0.172-0.383-0.383v-0.415h1.129zM7.883 29.073h-1.129v-1.986c0.343 0.193 0.724 0.325 1.129 0.38zM7.883 25.873v0.832c-1.144-0.208-2.014-1.211-2.014-2.413v-0.975c0-0.425 0.109-0.825 0.3-1.174l0.691 0.855c0.072 0.088 0.179 0.14 0.293 0.14h0.002c0.093-0 0.181-0.036 0.249-0.097 0.019 0.021 0.039 0.041 0.060 0.061l-0.221 0.73c-0.006 0.021-0.011 0.043-0.013 0.064-0.045 0.374 0.010 0.754 0.158 1.1 0.104 0.28 0.307 0.64 0.507 0.787-0.007 0.029-0.012 0.060-0.012 0.091zM6.661 21.553c0-0.139 0.001-0.366 0.002-0.574 0.143 0.010 0.288 0.016 0.434 0.016h0.986c-0.017 0.015-0.033 0.031-0.047 0.049l-0.885 1.115zM7.923 22.435v-0.038l0.406-0.511 0.41 0.523v0.027c0 0.083-0.068 0.151-0.151 0.151h-0.514c-0.083 0-0.151-0.068-0.151-0.151zM8.578 20.995h0.982c0.147 0 0.292-0.006 0.436-0.016v0.58l-0.496 0.601-0.873-1.114c-0.015-0.019-0.031-0.035-0.049-0.051zM8.507 24.935c-0.071 0.141-0.127 0.211-0.16 0.244-0.034-0.033-0.094-0.105-0.17-0.253l-0.098-0.227c-0.092-0.215-0.129-0.45-0.106-0.682l0.205-0.676h0.282l0.222 0.718c0.021 0.211-0.007 0.426-0.081 0.624zM9.891 30.241c0 0.211-0.172 0.383-0.383 0.383l-0.872 0.001v-0.8h1.255zM9.891 29.073h-1.255v-1.59c0.452-0.044 0.877-0.183 1.255-0.396zM10.776 24.292c0 1.247-0.935 2.279-2.14 2.433v-0.839c0.28-0.108 0.567-0.578 0.671-0.942 0.12-0.321 0.161-0.671 0.119-1.011-0.003-0.022-0.007-0.044-0.014-0.065l-0.233-0.752c0.025-0.021 0.048-0.044 0.070-0.069 0.066 0.056 0.15 0.088 0.238 0.089h0.005c0.112 0 0.219-0.050 0.29-0.137l0.699-0.847c0.188 0.346 0.295 0.743 0.295 1.163zM12.064 25.588c0 0.335-0.345 0.361-0.451 0.361-0.089 0-0.344-0.019-0.425-0.222 0.069-0.137 0.128-0.279 0.177-0.426h0.699zM12.064 24.549h-0.546c0.007-0.085 0.011-0.171 0.011-0.257v-0.975c0-0.799-0.295-1.531-0.781-2.093v-0.349c0.153-0.031 0.304-0.068 0.452-0.111 0.539 0.647 0.863 1.478 0.863 2.384v1.402zM9.56 20.242h-2.463c-1.916 0-3.589-1.049-4.481-2.602 0.007-0.014 0.014-0.027 0.020-0.042l1.602-4.006c2.752 0.467 5.517 0.469 8.239 0.004l1.448 3.95c0.020 0.056 0.047 0.108 0.080 0.156-0.9 1.518-2.554 2.54-4.444 2.54zM15.18 15.148c-0.025 0.326-0.106 0.603-0.253 0.846l-1.279-3.49c-0.108-0.295-0.388-0.484-0.693-0.484-0.047 0-0.095 0.005-0.143 0.014-2.931 0.579-5.924 0.578-8.895-0-0.348-0.068-0.695 0.121-0.827 0.45l-1.392 3.482c-0.125-0.223-0.207-0.484-0.222-0.807v-0.634c0-3.188 2.594-5.781 5.781-5.781h2.141c3.188 0 5.781 2.594 5.781 5.781zM17.22 21.769c-0.278 0-0.504-0.226-0.504-0.504v-3.71c0.037 0.036 0.075 0.070 0.112 0.103 0.57 1.229 1.528 2.242 2.716 2.881-0.234 0.38-0.419 0.793-0.545 1.231zM20.186 30.316c-1-0.269-1.21-0.565-1.21-0.612 0-1.843 0.799-3.53 2.073-4.536 0.027 0.003 0.055 0.005 0.083 0.005h1.049c-0.609 1.175-1.326 3.029-1.354 5.286-0.229-0.043-0.444-0.090-0.64-0.143zM23.707 30.701c-0.743 0-1.471-0.044-2.128-0.125 0.007-2.382 0.862-4.327 1.464-5.402h1.326c0.602 1.075 1.457 3.020 1.464 5.402-0.656 0.081-1.384 0.125-2.127 0.125zM27.228 30.316c-0.197 0.053-0.412 0.101-0.64 0.143-0.028-2.257-0.745-4.111-1.354-5.286h1.097c0.013 0 0.026-0.001 0.039-0.002 1.272 1.006 2.070 2.692 2.070 4.533-0 0.047-0.21 0.342-1.21 0.612zM30.745 21.265c0 0.278-0.226 0.504-0.504 0.504h-1.65c-0.132-0.458-0.327-0.89-0.577-1.284 1.167-0.654 2.102-1.673 2.652-2.901 0.027-0.021 0.052-0.042 0.078-0.064v3.745z"></path>
<path d="M27.317 16.784c0.319 0.132 0.471 0.498 0.338 0.818s-0.498 0.471-0.818 0.338c-0.319-0.132-0.471-0.498-0.338-0.818s0.498-0.471 0.818-0.338z"></path>
<path d="M24.356 16.984c-0.208 0-0.376 0.169-0.376 0.376 0 0.137-0.112 0.249-0.249 0.249s-0.249-0.112-0.249-0.249c0-0.208-0.169-0.376-0.376-0.376s-0.376 0.169-0.376 0.376c0 0.553 0.45 1.002 1.002 1.002s1.002-0.45 1.002-1.002c-0-0.208-0.169-0.376-0.377-0.376z"></path>
<path d="M18.962 13.807c-0.094 0-0.19-0.021-0.28-0.066-0.31-0.155-0.436-0.532-0.281-0.842 0.256-0.512 0.665-1.018 1.152-1.426 0.265-0.222 0.661-0.188 0.884 0.078s0.188 0.661-0.078 0.884c-0.353 0.295-0.657 0.669-0.835 1.025-0.11 0.22-0.332 0.347-0.562 0.347z"></path>
<path d="M12.707 0.198l0.515 1.449c0.022 0.062 0.066 0.111 0.121 0.136l1.288 0.58c0.182 0.082 0.182 0.372 0 0.454l-1.288 0.58c-0.055 0.025-0.099 0.074-0.121 0.136l-0.515 1.449c-0.073 0.205-0.33 0.205-0.403 0l-0.515-1.449c-0.022-0.062-0.066-0.111-0.121-0.136l-1.288-0.58c-0.182-0.082-0.182-0.372 0-0.454l1.288-0.58c0.055-0.025 0.099-0.074 0.121-0.136l0.515-1.449c0.073-0.205 0.33-0.205 0.403 0z"></path>
<path d="M1.921 2.705l0.382 1.075c0.016 0.046 0.049 0.083 0.090 0.101l0.955 0.43c0.135 0.061 0.135 0.276 0 0.337l-0.955 0.43c-0.041 0.018-0.073 0.055-0.090 0.101l-0.382 1.075c-0.054 0.152-0.245 0.152-0.299 0l-0.382-1.075c-0.016-0.046-0.049-0.082-0.090-0.101l-0.955-0.43c-0.135-0.061-0.135-0.276 0-0.337l0.955-0.43c0.041-0.018 0.073-0.055 0.090-0.101l0.382-1.075c0.054-0.152 0.245-0.152 0.299-0z"></path>
<path d="M22.158 1.192c0.605 0.143 0.979 0.749 0.836 1.354s-0.749 0.979-1.354 0.836c-0.605-0.143-0.979-0.749-0.836-1.354s0.749-0.979 1.354-0.836z"></path>
<path d="M8.187 4.945c0 0.268-0.217 0.486-0.486 0.486s-0.486-0.217-0.486-0.486c0-0.268 0.217-0.486 0.486-0.486s0.486 0.217 0.486 0.486z"></path>
<path d="M30.442 1.967l0.382 1.075c0.016 0.046 0.049 0.083 0.090 0.101l0.955 0.43c0.135 0.061 0.135 0.276 0 0.337l-0.955 0.43c-0.041 0.018-0.073 0.055-0.090 0.101l-0.382 1.075c-0.054 0.152-0.245 0.152-0.299 0l-0.382-1.075c-0.016-0.046-0.049-0.082-0.090-0.101l-0.955-0.43c-0.135-0.061-0.135-0.276 0-0.337l0.955-0.43c0.041-0.018 0.073-0.055 0.090-0.101l0.382-1.075c0.054-0.152 0.245-0.152 0.299-0z"></path>
</svg>
