<!-- Generated by IcoMoon.io -->
<svg version="1.1" xmlns="http://www.w3.org/2000/svg" width="32" height="32" viewBox="0 0 32 32">
<title>dance-floor</title>
<path d="M6.607 15.252l0.52 1.462c0.022 0.063 0.066 0.112 0.122 0.137l1.299 0.585c0.184 0.083 0.184 0.375 0 0.458l-1.299 0.585c-0.056 0.025-0.1 0.075-0.122 0.137l-0.52 1.462c-0.073 0.206-0.333 0.206-0.407 0l-0.52-1.462c-0.022-0.063-0.066-0.112-0.122-0.137l-1.299-0.585c-0.184-0.083-0.184-0.375 0-0.458l1.299-0.585c0.056-0.025 0.1-0.075 0.122-0.137l0.52-1.462c0.073-0.207 0.333-0.207 0.407 0z"></path>
<path d="M3.859 6.934l0.386 1.084c0.016 0.046 0.049 0.083 0.090 0.102l0.963 0.434c0.136 0.061 0.136 0.278 0 0.339l-0.963 0.434c-0.041 0.019-0.074 0.055-0.090 0.102l-0.386 1.084c-0.054 0.153-0.247 0.153-0.302 0l-0.386-1.084c-0.017-0.046-0.049-0.083-0.090-0.102l-0.963-0.434c-0.136-0.061-0.136-0.278 0-0.339l0.963-0.434c0.041-0.019 0.074-0.055 0.090-0.102l0.386-1.084c0.054-0.153 0.247-0.153 0.302 0z"></path>
<path d="M26.98 14.595c0.61 0.144 0.988 0.756 0.843 1.366s-0.756 0.988-1.366 0.843c-0.61-0.144-0.988-0.756-0.843-1.366s0.756-0.988 1.366-0.843z"></path>
<path d="M8.432 4.126c0 0.27-0.219 0.49-0.49 0.49s-0.49-0.219-0.49-0.49 0.219-0.49 0.49-0.49 0.49 0.219 0.49 0.49z"></path>
<path d="M27.394 6.579l0.386 1.084c0.017 0.046 0.049 0.083 0.090 0.102l0.963 0.434c0.136 0.061 0.136 0.278 0 0.339l-0.963 0.434c-0.041 0.019-0.074 0.055-0.090 0.102l-0.386 1.084c-0.055 0.153-0.247 0.153-0.302 0l-0.386-1.084c-0.017-0.046-0.049-0.083-0.090-0.102l-0.963-0.434c-0.136-0.061-0.136-0.278 0-0.339l0.963-0.434c0.041-0.019 0.074-0.055 0.090-0.102l0.386-1.084c0.055-0.153 0.247-0.153 0.302 0z"></path>
<path d="M31.867 31.039l-3.116-5.145c-0.114-0.188-0.317-0.304-0.538-0.305 0 0-24.506 0-24.507 0-0.224 0-0.431 0.119-0.545 0.312l-3.033 5.145c-0.115 0.196-0.117 0.438-0.004 0.635s0.322 0.319 0.549 0.319h30.652c0.229 0 0.439-0.123 0.551-0.322s0.108-0.443-0.010-0.639zM16.475 26.853h5.486l0.348 1.49h-5.866zM8.354 30.734h-6.572l0.962-1.632h5.992zM3.19 28.342l0.878-1.49h5.191l-0.348 1.49zM15.63 30.734h-6.497l0.381-1.632h6.152zM15.683 28.342h-5.991l0.348-1.49h5.676zM16.39 30.734l0.036-1.632h6.060l0.381 1.632zM22.741 26.853h5.111l0.902 1.49h-5.666zM23.646 30.734l-0.381-1.632h5.949l0.989 1.632z"></path>
<path d="M16 17.065c3.333 0 6.044-2.711 6.044-6.044 0-2.36-1.36-4.408-3.337-5.403 0.003-0.041 0.005-0.082 0.005-0.124v-0.611c0-1.006-0.819-1.825-1.825-1.825h-0.254v-2.424c0-0.35-0.283-0.633-0.633-0.633s-0.633 0.283-0.633 0.633v2.424h-0.254c-1.006 0-1.825 0.819-1.825 1.825v0.611c0 0.042 0.002 0.083 0.005 0.124-1.977 0.995-3.337 3.043-3.337 5.403 0 3.333 2.711 6.044 6.044 6.044zM11.238 11.4h1.897c0.093 1.442 0.736 2.885 1.917 4.304-2.061-0.417-3.644-2.165-3.813-4.304zM18.11 11.4c-0.103 1.411-0.806 2.819-2.108 4.239-1.302-1.421-2.004-2.829-2.108-4.239zM13.897 10.641c0.111-1.402 0.813-2.809 2.105-4.236 1.293 1.427 1.994 2.834 2.105 4.236zM16.954 15.704c1.18-1.419 1.823-2.862 1.916-4.303h1.892c-0.169 2.138-1.75 3.884-3.808 4.303zM20.762 10.641h-1.895c-0.1-1.435-0.745-2.878-1.922-4.304 2.063 0.416 3.647 2.164 3.816 4.304zM14.554 4.883c0-0.308 0.251-0.559 0.559-0.559h1.773c0.308 0 0.559 0.251 0.559 0.559v0.269c-0.464-0.114-0.948-0.175-1.446-0.175s-0.983 0.061-1.446 0.175zM15.059 6.336c-1.178 1.426-1.822 2.87-1.922 4.305h-1.899c0.169-2.142 1.756-3.891 3.821-4.305z"></path>
</svg>
