<!-- Generated by IcoMoon.io -->
<svg version="1.1" xmlns="http://www.w3.org/2000/svg" width="32" height="32" viewBox="0 0 32 32">
<title>gift</title>
<path d="M29.725 13.182l0.515 1.449c0.022 0.062 0.066 0.111 0.121 0.136l1.287 0.58c0.182 0.082 0.182 0.372 0 0.454l-1.287 0.58c-0.055 0.025-0.099 0.074-0.121 0.136l-0.515 1.449c-0.073 0.205-0.33 0.205-0.403 0l-0.515-1.449c-0.022-0.062-0.066-0.111-0.121-0.136l-1.287-0.58c-0.182-0.082-0.182-0.372 0-0.454l1.287-0.58c0.055-0.025 0.099-0.074 0.121-0.136l0.515-1.449c0.073-0.205 0.33-0.205 0.403 0z"></path>
<path d="M29.488 7.688c0.605 0.143 0.979 0.749 0.836 1.354s-0.749 0.979-1.354 0.836c-0.605-0.143-0.979-0.749-0.836-1.354s0.749-0.979 1.354-0.836z"></path>
<path d="M20.223 1.397c0 0.268-0.217 0.485-0.485 0.485s-0.485-0.217-0.485-0.485c0-0.268 0.217-0.485 0.485-0.485s0.485 0.217 0.485 0.485z"></path>
<path d="M3.099 18.458l0.382 1.075c0.016 0.046 0.049 0.082 0.090 0.101l0.955 0.43c0.135 0.061 0.135 0.276 0 0.337l-0.955 0.43c-0.041 0.018-0.073 0.055-0.090 0.101l-0.382 1.075c-0.054 0.152-0.245 0.152-0.299 0l-0.382-1.075c-0.016-0.046-0.049-0.082-0.090-0.101l-0.955-0.43c-0.135-0.061-0.135-0.276 0-0.337l0.955-0.43c0.041-0.018 0.073-0.055 0.090-0.101l0.382-1.075c0.054-0.152 0.245-0.152 0.299 0z"></path>
<path d="M24.808 13.72c1.202-1.297 1.725-2.36 1.598-3.249-0.086-1.141-1.042-2.040-2.19-2.053-0.008-0-0.016-0-0.024-0-0.549 0-1.070 0.207-1.47 0.559-0.397-0.366-0.923-0.585-1.481-0.592-0.008-0-0.017-0-0.025-0-1.168 0-2.132 0.898-2.215 2.061-0.057 0.379 0.010 0.794 0.203 1.249-0.058-0.005-0.116-0.009-0.175-0.010-0.52-0.008-1.016 0.184-1.399 0.51-0.376-0.335-0.867-0.535-1.387-0.541-0.008-0-0.016-0-0.024-0-1.114 0-2.034 0.856-2.114 1.966-0.068 0.453 0.050 0.958 0.356 1.525h-5.436c-1.469 0-2.664 1.195-2.664 2.664v11.526c0 1.469 1.195 2.664 2.664 2.664h13.602c1.469 0 2.664-1.195 2.664-2.664v-11.526c0-1.266-0.888-2.328-2.074-2.597 0.263-0.216 0.933-0.785 1.589-1.493zM21.112 14.213c0.423 0.417 0.804 0.749 1.022 0.933h-1.352c0.174-0.33 0.284-0.64 0.33-0.933zM15.349 13.799c0.004-0.024 0.007-0.048 0.008-0.072 0.026-0.459 0.404-0.816 0.863-0.816 0.003 0 0.006 0 0.010 0 0.355 0.004 0.677 0.23 0.802 0.564 0.091 0.243 0.322 0.406 0.581 0.408 0.002 0 0.005 0 0.007 0 0.257 0 0.488-0.156 0.583-0.396 0.13-0.328 0.453-0.546 0.804-0.546h0.009c0.451 0.005 0.826 0.361 0.854 0.811 0.001 0.020 0.004 0.041 0.007 0.061 0.053 0.33-0.194 0.815-0.581 1.334h-3.341c-0.412-0.547-0.66-1.038-0.606-1.348zM17.757 16.401v14.344h-3.857v-14.344zM7.618 29.336v-11.526c0-0.777 0.632-1.409 1.409-1.409h3.618v14.344h-3.618c-0.777 0-1.409-0.632-1.409-1.409zM24.038 17.81v11.526c0 0.777-0.632 1.409-1.409 1.409h-3.618v-14.344h3.618c0.777 0 1.409 0.632 1.409 1.409zM22.718 13.998c-1.189-1.035-2.605-2.618-2.474-3.373 0.004-0.024 0.007-0.048 0.008-0.072 0.029-0.513 0.451-0.912 0.965-0.912 0.004 0 0.007 0 0.011 0 0.397 0.004 0.757 0.257 0.895 0.63 0.091 0.243 0.322 0.405 0.581 0.408 0.002 0 0.005 0 0.007 0 0.257 0 0.488-0.157 0.583-0.396 0.145-0.366 0.506-0.61 0.898-0.61 0.003 0 0.007 0 0.011 0 0.504 0.006 0.923 0.403 0.953 0.906 0.001 0.020 0.004 0.041 0.007 0.061 0.126 0.783-1.271 2.345-2.445 3.358z"></path>
<path d="M29.494 2.58c-0.090-1.202-1.097-2.15-2.306-2.163-0.6-0.008-1.174 0.224-1.605 0.617-0.422-0.402-0.988-0.645-1.591-0.652-0.009-0-0.018-0-0.026-0-1.231 0-2.246 0.947-2.332 2.173-0.14 0.922 0.42 2.050 1.711 3.447 0.889 0.962 1.801 1.696 1.84 1.727 0.115 0.092 0.253 0.138 0.392 0.138 0.137 0 0.275-0.045 0.389-0.135 0.038-0.030 0.943-0.747 1.825-1.698 1.282-1.383 1.84-2.513 1.704-3.453zM25.578 6.424c-1.292-1.119-2.848-2.857-2.703-3.693 0.004-0.024 0.007-0.048 0.008-0.072 0.032-0.576 0.506-1.023 1.082-1.023 0.004 0 0.008 0 0.012 0 0.445 0.005 0.849 0.289 1.005 0.706 0.091 0.243 0.322 0.406 0.581 0.408 0.002 0 0.005 0 0.007 0 0.257 0 0.488-0.157 0.583-0.396 0.165-0.414 0.573-0.687 1.020-0.684 0.565 0.006 1.035 0.453 1.070 1.016 0.001 0.020 0.004 0.041 0.007 0.061 0.141 0.876-1.371 2.564-2.672 3.676z"></path>
<path d="M19.525 8.487c0.443-0.223 0.772-0.606 0.927-1.077s0.117-0.974-0.106-1.417l-1.169-2.317c-0.461-0.914-1.58-1.282-2.493-0.821l-0.828 0.418c-0.072-1.396-0.813-2.615-2.025-3.081-1.744-0.671-3.812 0.469-4.609 2.541-0.151 0.392-0.247 0.795-0.29 1.196-0.161 0.014-0.319 0.059-0.466 0.134l-1.361 0.697c-0.131 0.067-0.246 0.156-0.344 0.261-0.344-0.208-0.726-0.377-1.138-0.496-1.011-0.29-2.059-0.24-2.952 0.141-0.938 0.4-1.596 1.113-1.852 2.007-0.366 1.275 0.192 2.631 1.308 3.53l-0.89 0.45c-0.443 0.223-0.772 0.606-0.927 1.077s-0.117 0.974 0.106 1.417l1.169 2.317c0.326 0.646 0.981 1.020 1.66 1.020 0.281 0 0.566-0.064 0.833-0.199l15.447-7.797s0-0 0-0zM10.392 3.184c0.451-1.172 1.435-1.932 2.382-1.932 0.206 0 0.41 0.036 0.606 0.111 0.893 0.344 1.355 1.403 1.202 2.553l-3.796 1.916-0.618-1.207c-0.034-0.47 0.042-0.965 0.226-1.443zM9.54 12.121l-1.769-3.361 3.444-1.738 1.769 3.361zM9.041 5.181l0.623 1.218-1.368 0.691-0.619-1.212zM2.024 7.019c0.15-0.524 0.555-0.95 1.138-1.199 0.354-0.151 0.747-0.227 1.153-0.227 0.316 0 0.64 0.046 0.961 0.138 0.487 0.14 0.913 0.372 1.255 0.661 0.009 0.020 0.017 0.040 0.027 0.060l0.616 1.202-3.767 1.901c-1.055-0.563-1.655-1.595-1.385-2.537zM3.513 15.163c-0.296 0.15-0.659 0.030-0.808-0.266l-1.169-2.317c-0.072-0.143-0.085-0.306-0.034-0.459s0.157-0.277 0.3-0.349l4.849-2.447 1.77 3.361zM18.96 7.367l0-0-4.856 2.451-1.77-3.361 4.914-2.48c0.286-0.152 0.668-0.026 0.808 0.266l1.169 2.317c0.149 0.296 0.030 0.658-0.266 0.808z"></path>
<path d="M9.34 22.868c-0.346 0-0.627-0.281-0.627-0.627v-1.244c0-0.346 0.281-0.627 0.627-0.627s0.627 0.281 0.627 0.627v1.244c0 0.346-0.281 0.627-0.627 0.627z"></path>
<path d="M9.34 19.422c-0.346 0-0.627-0.281-0.627-0.627v-0.378c0-0.346 0.281-0.627 0.627-0.627s0.627 0.281 0.627 0.627v0.378c0 0.346-0.281 0.627-0.627 0.627z"></path>
</svg>
