<!-- Generated by IcoMoon.io -->
<svg version="1.1" xmlns="http://www.w3.org/2000/svg" width="32" height="32" viewBox="0 0 32 32">
<title>groom-suit</title>
<path d="M29.229 0.292l0.52 1.462c0.022 0.063 0.066 0.112 0.122 0.137l1.299 0.585c0.183 0.083 0.183 0.375 0 0.458l-1.299 0.585c-0.056 0.025-0.1 0.075-0.122 0.137l-0.52 1.462c-0.073 0.207-0.333 0.207-0.407 0l-0.52-1.462c-0.022-0.063-0.066-0.112-0.122-0.137l-1.299-0.585c-0.183-0.083-0.183-0.375 0-0.458l1.299-0.585c0.056-0.025 0.1-0.075 0.122-0.137l0.52-1.462c0.073-0.206 0.333-0.206 0.407 0z"></path>
<path d="M2.536 5.479l0.386 1.084c0.017 0.046 0.049 0.083 0.090 0.102l0.963 0.434c0.136 0.061 0.136 0.278 0 0.34l-0.963 0.434c-0.041 0.019-0.074 0.055-0.090 0.102l-0.386 1.084c-0.054 0.153-0.247 0.153-0.302 0l-0.386-1.084c-0.016-0.046-0.049-0.083-0.090-0.102l-0.963-0.434c-0.136-0.061-0.136-0.278 0-0.34l0.963-0.434c0.041-0.019 0.074-0.055 0.090-0.102l0.386-1.084c0.054-0.153 0.247-0.153 0.302 0z"></path>
<path d="M6.028 0.462c0.533 0.33 0.699 1.030 0.369 1.563s-1.030 0.699-1.563 0.369c-0.533-0.33-0.699-1.030-0.369-1.563s1.030-0.699 1.563-0.369z"></path>
<path d="M31.142 8.212c0 0.27-0.219 0.49-0.49 0.49s-0.49-0.219-0.49-0.49c0-0.27 0.219-0.49 0.49-0.49s0.49 0.219 0.49 0.49z"></path>
<path d="M16.965 23.117h-1.35c-0.34 0-0.619 0.268-0.632 0.608l-0.304 7.617c-0.014 0.349 0.258 0.644 0.607 0.658 0.009 0 0.017 0 0.026 0 0.338 0 0.618-0.267 0.632-0.608l0.279-7.009h0.134l0.281 7.009c0.014 0.349 0.308 0.622 0.658 0.607s0.621-0.308 0.607-0.658l-0.305-7.617c-0.014-0.339-0.293-0.608-0.632-0.608z"></path>
<path d="M31.205 18.601l-0.657-1.381c0.112-0.339 0.090-0.702-0.064-1.025l-6.338-13.293c-0.098-0.208-0.219-0.401-0.361-0.575-0.251-0.479-0.672-0.867-1.208-1.079h0l-3.042-1.203c-0.074-0.029-0.153-0.044-0.233-0.044h-5.958c-0.082 0-0.163 0.016-0.239 0.047l-2.928 1.197c-0.54 0.221-0.962 0.622-1.207 1.115-0.13 0.163-0.243 0.343-0.336 0.539l-6.34 13.296c-0.151 0.316-0.174 0.669-0.071 1l-0.668 1.406c-0.15 0.316-0.016 0.693 0.3 0.843l3.157 1.501c0.304 0.152 0.703 0.010 0.843-0.3l0.651-1.37c0.339-0.116 0.633-0.362 0.799-0.709l1.989-4.171c-0.079 2.288-0.264 4.711-0.556 7.312-0.069 0.57 0.521 0.764 0.986 0.725l-0.125 8.927c-0.005 0.349 0.274 0.637 0.624 0.642 0.35 0.004 0.637-0.274 0.642-0.624l0.125-8.931c1.914-0.053 3.726-0.441 5.406-1.161 1.707 0.693 3.496 1.076 5.339 1.147l0.125 8.945c0.005 0.346 0.287 0.624 0.633 0.624 0.003 0 0.006 0 0.009-0 0.349-0.005 0.629-0.292 0.624-0.642l-0.125-8.926c0.475 0.037 1.105-0.121 1.040-0.719-0.255-2.488-0.416-4.871-0.484-7.165l1.916 4.018c0.162 0.34 0.447 0.583 0.776 0.702l0.655 1.377c0.14 0.31 0.539 0.452 0.843 0.3l3.157-1.501c0.316-0.15 0.45-0.528 0.3-0.843zM4.984 19.53l-2.014-0.958 0.205-0.432 2.019 0.948zM6.17 18.007l-2.72-1.294 5.516-11.568c0.23 1.983 0.354 4.042 0.372 6.22zM19.6 1.882c0.658 1.153 1.233 2.238 1.315 2.541-0.090 0.199-0.544 0.676-1.061 1.153 0.017-0.086 0.027-0.175 0.027-0.266v-1.548c0-0.424-0.195-0.809-0.524-1.055zM18.99 1.266l-0.347 1.176c-0.332-0.023-0.664 0.081-0.932 0.304l-1.322 1.1-1.322-1.1c-0.3-0.249-0.679-0.35-1.048-0.292l-0.365-1.189zM19.121 3.764v1.547c0 0.224-0.121 0.415-0.324 0.51s-0.427 0.066-0.6-0.077l-1.451-1.207 1.451-1.207c0.172-0.143 0.396-0.172 0.6-0.077s0.324 0.286 0.324 0.51zM16.033 4.537l-1.451 1.207c-0.172 0.143-0.397 0.172-0.6 0.077s-0.324-0.286-0.324-0.51v-1.548c0-0.224 0.121-0.415 0.324-0.51 0.079-0.037 0.161-0.055 0.243-0.055 0.127 0 0.252 0.045 0.357 0.132zM13.491 6.49c0.006-0.023 0.009-0.046 0.010-0.069 0.295 0.191 0.659 0.261 0.997 0.185l1.522 4.962c0.014 0.043 0.035 0.084 0.063 0.12-1.467-0.959-3.008-1.983-3.255-2.352 0.067-0.455 0.425-1.92 0.662-2.846zM13.327 2.788c-0.27 0.246-0.428 0.594-0.428 0.976v1.547c0 0.159 0.028 0.313 0.079 0.455-0.598-0.536-1.167-1.117-1.27-1.343 0.083-0.306 0.667-1.407 1.332-2.571zM16.010 20.071c-1.818 0.799-3.811 1.171-5.941 1.108 0.736-6.919 0.713-12.611-0.068-17.857 0.017-0.397 0.27-0.749 0.655-0.907l1.554-0.635c-0.080 0.142-0.163 0.29-0.245 0.438-1.021 1.841-1.021 2.076-1.021 2.216 0 0.263 0.173 0.605 1.016 1.42 0.283 0.273 0.563 0.523 0.738 0.676-0.164 0.649-0.591 2.358-0.633 2.803-0.028 0.293 0.106 0.647 2.038 2.022 0.87 0.619 1.755 1.092 1.908 1.191zM16.376 10.138l-1.197-3.903 1.211-1.007 1.151 0.958zM16.747 11.564l1.466-4.974c0.307 0.083 0.63 0.053 0.922-0.089 0.237 0.926 0.593 2.382 0.66 2.835-0.239 0.357-1.696 1.425-3.122 2.366 0.034-0.040 0.059-0.087 0.074-0.138zM22.716 21.175c-2.064 0.047-4.060-0.325-5.947-1.107v-7.522c0.325-0.212 1.044-0.686 1.752-1.191 1.932-1.375 2.066-1.729 2.038-2.022-0.043-0.444-0.469-2.153-0.633-2.803 0.175-0.153 0.455-0.402 0.738-0.676 0.844-0.815 1.016-1.157 1.016-1.42 0-0.14 0-0.375-1.021-2.216-0.089-0.161-0.179-0.32-0.265-0.474l1.718 0.679c0.394 0.156 0.653 0.514 0.667 0.918-0.675 5.438-0.696 11.278-0.063 17.832zM26.606 18l-3.082-6.464c0.016-2.181 0.124-4.283 0.322-6.324l5.481 11.494zM27.776 19.53l-0.206-0.434 2.018-0.949 0.202 0.425z"></path>
<path d="M11.677 17.091h2.555c0.21 0 0.38-0.17 0.38-0.38s-0.17-0.38-0.38-0.38h-2.555c-0.21 0-0.38 0.17-0.38 0.38s0.17 0.38 0.38 0.38z"></path>
<path d="M20.95 16.332h-2.555c-0.21 0-0.38 0.17-0.38 0.38s0.17 0.38 0.38 0.38h2.555c0.21 0 0.38-0.17 0.38-0.38s-0.17-0.38-0.38-0.38z"></path>
</svg>
