<!-- Generated by IcoMoon.io -->
<svg version="1.1" xmlns="http://www.w3.org/2000/svg" width="32" height="32" viewBox="0 0 32 32">
<title>groom</title>
<path d="M2.473 0.215l0.517 1.455c0.022 0.062 0.066 0.112 0.121 0.137l1.292 0.582c0.183 0.082 0.183 0.373 0 0.455l-1.292 0.582c-0.055 0.025-0.099 0.074-0.121 0.137l-0.517 1.455c-0.073 0.205-0.332 0.205-0.405 0l-0.517-1.455c-0.022-0.062-0.066-0.112-0.121-0.137l-1.292-0.582c-0.183-0.082-0.183-0.373 0-0.456l1.292-0.582c0.055-0.025 0.099-0.074 0.121-0.137l0.517-1.455c0.073-0.205 0.332-0.205 0.405 0z"></path>
<path d="M30.466 2.873l0.384 1.079c0.016 0.046 0.049 0.083 0.090 0.101l0.959 0.432c0.135 0.061 0.135 0.277 0 0.338l-0.959 0.432c-0.041 0.019-0.074 0.055-0.090 0.101l-0.384 1.079c-0.054 0.152-0.246 0.152-0.3 0l-0.384-1.079c-0.016-0.046-0.049-0.083-0.090-0.101l-0.959-0.432c-0.135-0.061-0.135-0.277 0-0.338l0.959-0.432c0.041-0.019 0.074-0.055 0.090-0.101l0.384-1.079c0.054-0.152 0.246-0.152 0.3 0z"></path>
<path d="M6.961 0.508c0 0.269-0.218 0.487-0.487 0.487s-0.487-0.218-0.487-0.487 0.218-0.487 0.487-0.487c0.269 0 0.487 0.218 0.487 0.487z"></path>
<path d="M29.952 16.542c0.164-0.473 0.265-0.98 0.302-1.521 0.001-0.016 0.002-0.033 0.002-0.049v-1.163c0-6.841-5.566-12.407-12.407-12.407h-3.831c-6.841 0-12.407 5.566-12.407 12.407v1.163c0 0.010 0 0.020 0.001 0.030 0.023 0.583 0.131 1.1 0.29 1.56-0.333 0.506-0.528 1.112-0.528 1.762 0 1.773 1.443 3.216 3.216 3.216 0.322 0 0.632-0.049 0.926-0.137 0.969 1.203 2.197 2.19 3.599 2.875-1.017 1.394-1.618 3.109-1.618 4.962v2.111c0 0.348 0.282 0.63 0.63 0.63s0.63-0.282 0.63-0.63v-2.111c0-1.686 0.585-3.238 1.561-4.464 0.341 0.117 0.69 0.217 1.045 0.299v1.048c-0.64 0.909-1.018 2.016-1.018 3.21v2.257c0 0.209 0.169 0.378 0.378 0.378s0.378-0.169 0.378-0.378v-2.257c0-0.3 0.028-0.594 0.081-0.88 0.884 1.653 2.538 2.886 4.717 3.5 0.001 0 0.001 0 0.002 0s0.002 0.001 0.003 0.001c0.008 0.002 0.017 0.003 0.025 0.005 0.005 0.001 0.011 0.002 0.016 0.003 0.002 0 0.004 0.001 0.006 0.001 0 0 0.001 0 0.001 0 0.016 0.002 0.032 0.003 0.048 0.003 0 0 0.001 0 0.001 0h0s0 0 0 0c0 0 0.001-0 0.001-0 0.016 0 0.031-0.001 0.047-0.003 0.001-0 0.001-0 0.002-0 0.002-0 0.004-0.001 0.006-0.001 0.005-0.001 0.010-0.002 0.015-0.003 0.008-0.002 0.016-0.003 0.024-0.005 0.002-0 0.003-0.001 0.005-0.001s0.002-0 0.003-0.001c2.208-0.622 3.759-1.715 4.623-3.251 0.027 0.206 0.042 0.417 0.042 0.631v2.257c0 0.209 0.169 0.378 0.378 0.378s0.378-0.169 0.378-0.378v-2.257c0-1.109-0.325-2.143-0.884-3.012v-1.277c0.309-0.076 0.613-0.165 0.911-0.268 0.977 1.226 1.561 2.778 1.561 4.464v2.111c0 0.348 0.282 0.63 0.63 0.63s0.63-0.282 0.63-0.63v-2.111c0-1.853-0.601-3.569-1.617-4.962 1.401-0.685 2.629-1.671 3.598-2.874 0.293 0.088 0.604 0.137 0.926 0.137 1.773 0 3.216-1.443 3.216-3.216 0-0.658-0.199-1.271-0.541-1.781zM3.093 13.808c0-6.024 4.901-10.925 10.925-10.925h3.831c6.024 0 10.925 4.901 10.925 10.925v1.138c-0.076 1.063-0.456 1.903-1.182 2.584l-1.96-6.561c-0.073-0.245-0.267-0.435-0.514-0.502-0.065-0.018-0.131-0.027-0.196-0.027-0.184 0-0.363 0.068-0.502 0.196l-1.841 1.695-2.895-2.179c-0.266-0.2-0.632-0.198-0.896 0.004l-2.863 2.195-2.734-2.010c-0.264-0.194-0.625-0.192-0.887 0.007l-2.628 1.994-2.363-1.657c-0.193-0.136-0.44-0.171-0.664-0.095s-0.398 0.254-0.469 0.479l-2.016 6.413c-0.566-0.616-1.022-1.399-1.071-2.525zM4.589 20.279c-1.079 0-1.956-0.877-1.956-1.956 0-0.113 0.010-0.224 0.029-0.332 0.483 0.652 1.027 1.101 1.386 1.398 0.077 0.064 0.166 0.11 0.259 0.138 0.128 0.255 0.266 0.504 0.414 0.747-0.044 0.003-0.088 0.005-0.133 0.005zM19.883 24.948v2.119c0 0.364-0.197 0.673-0.526 0.828s-0.693 0.108-0.973-0.125l-0.871-0.725c0.068-0.151 0.106-0.319 0.106-0.495v-1.085c0-0.177-0.039-0.344-0.106-0.495l0.871-0.725c0.28-0.233 0.643-0.279 0.973-0.125s0.526 0.464 0.526 0.828zM15.136 26.55v-1.085c0-0.254 0.207-0.461 0.461-0.461h0.806c0.254 0 0.461 0.207 0.461 0.461v1.085c0 0.254-0.207 0.461-0.461 0.461h-0.806c-0.254-0-0.461-0.207-0.461-0.461zM14.994 27.606c0.178 0.102 0.383 0.161 0.603 0.161h0.806c0.219 0 0.425-0.059 0.603-0.161l0.546 0.454-1.546 2.749-1.516-2.782zM14.486 24.97c-0.068 0.151-0.106 0.319-0.106 0.495v1.085c0 0.177 0.039 0.344 0.106 0.495l-0.871 0.725c-0.28 0.233-0.643 0.279-0.973 0.125s-0.526-0.464-0.526-0.828v-2.12c0-0.364 0.197-0.673 0.526-0.828 0.128-0.060 0.262-0.090 0.394-0.090 0.206 0 0.408 0.073 0.579 0.215zM12.016 28.394c0.094 0.071 0.196 0.133 0.306 0.185 0.23 0.108 0.472 0.16 0.713 0.16 0.297 0 0.59-0.082 0.851-0.239l1.321 2.424c-1.425-0.561-2.508-1.42-3.191-2.53zM16.806 30.927l1.35-2.401c0.25 0.141 0.528 0.213 0.809 0.213 0.241 0 0.483-0.053 0.713-0.16 0.146-0.069 0.279-0.156 0.395-0.257-0.644 1.16-1.722 2.020-3.267 2.605zM20.226 23.845c-0.149-0.169-0.333-0.309-0.548-0.41-0.593-0.278-1.273-0.19-1.777 0.228l-0.505 0.42h-2.793l-0.505-0.42c-0.503-0.419-1.184-0.506-1.777-0.228-0.225 0.105-0.417 0.255-0.57 0.434-2.851-0.621-5.217-2.554-6.43-5.133l1.967-6.259 1.977 1.386c0.264 0.185 0.617 0.178 0.873-0.016l2.618-1.986 2.736 2.012c0.266 0.195 0.628 0.192 0.89-0.009l2.858-2.191 2.939 2.212c0.286 0.215 0.684 0.195 0.948-0.047l1.423-1.31 1.907 6.384c-1.22 2.457-3.497 4.301-6.232 4.933zM27.277 20.279c-0.045 0-0.089-0.002-0.133-0.005 0.183-0.3 0.351-0.609 0.504-0.928 0.629-0.399 1.146-0.866 1.55-1.396 0.023 0.121 0.036 0.245 0.036 0.373 0 1.079-0.877 1.956-1.956 1.956z"></path>
<path d="M10.017 17.785c-0.611 0-1.107 0.496-1.107 1.107s0.496 1.107 1.107 1.107c0.611 0 1.107-0.496 1.107-1.107s-0.496-1.107-1.107-1.107z"></path>
<path d="M22.925 18.628c0.141 0.595-0.228 1.191-0.822 1.332s-1.191-0.228-1.332-0.822c-0.141-0.595 0.228-1.191 0.822-1.332s1.191 0.228 1.332 0.822z"></path>
<path d="M11.086 15.279c-0.049-0.025-0.499-0.246-1.069-0.246s-1.019 0.221-1.069 0.246c-0.185 0.095-0.258 0.321-0.165 0.506s0.321 0.26 0.507 0.168c0.003-0.002 0.334-0.164 0.726-0.164s0.723 0.163 0.725 0.164c0.055 0.028 0.114 0.041 0.171 0.041 0.137 0 0.27-0.075 0.337-0.206 0.095-0.186 0.021-0.414-0.165-0.508z"></path>
<path d="M22.917 15.279c-0.049-0.025-0.499-0.246-1.069-0.246s-1.019 0.221-1.069 0.246c-0.185 0.095-0.258 0.321-0.165 0.506s0.321 0.26 0.507 0.168c0.003-0.002 0.334-0.164 0.727-0.164s0.723 0.163 0.725 0.164c0.055 0.028 0.114 0.041 0.172 0.041 0.137 0 0.27-0.075 0.337-0.206 0.095-0.186 0.021-0.414-0.165-0.508z"></path>
<path d="M17.040 18.514c-0.209 0-0.378 0.169-0.378 0.378 0 0.402-0.327 0.729-0.729 0.729s-0.729-0.327-0.729-0.729c0-0.209-0.169-0.378-0.378-0.378s-0.378 0.169-0.378 0.378c0 0.819 0.666 1.485 1.485 1.485s1.485-0.666 1.485-1.485c-0-0.209-0.169-0.378-0.378-0.378z"></path>
<path d="M9.487 6.587c-0.204 0-0.403-0.098-0.525-0.281-0.193-0.289-0.115-0.68 0.175-0.873 0.107-0.071 0.436-0.277 0.675-0.374 0.322-0.131 0.69 0.024 0.821 0.346s-0.024 0.69-0.346 0.821c-0.098 0.040-0.322 0.17-0.451 0.255-0.107 0.072-0.229 0.106-0.349 0.106z"></path>
<path d="M6.498 9.388c-0.115 0-0.232-0.032-0.337-0.098-0.294-0.186-0.381-0.575-0.195-0.869 0.572-0.903 1.236-1.545 1.692-1.924 0.267-0.222 0.665-0.186 0.887 0.082s0.186 0.665-0.082 0.887c-0.386 0.321-0.949 0.864-1.433 1.629-0.12 0.189-0.324 0.293-0.533 0.293z"></path>
</svg>
