<!-- Generated by IcoMoon.io -->
<svg version="1.1" xmlns="http://www.w3.org/2000/svg" width="32" height="32" viewBox="0 0 32 32">
<title>honey-moon</title>
<path d="M22.922 0.167l0.517 1.453c0.022 0.062 0.066 0.111 0.121 0.136l1.291 0.582c0.182 0.082 0.182 0.373 0 0.455l-1.291 0.582c-0.055 0.025-0.099 0.074-0.121 0.136l-0.517 1.453c-0.073 0.205-0.331 0.205-0.404 0l-0.517-1.453c-0.022-0.062-0.066-0.111-0.121-0.136l-1.291-0.582c-0.182-0.082-0.182-0.373 0-0.455l1.291-0.582c0.055-0.025 0.099-0.074 0.121-0.136l0.517-1.453c0.073-0.205 0.331-0.205 0.404-0z"></path>
<path d="M4.595 3.753c0 0.623-0.505 1.128-1.128 1.128s-1.128-0.505-1.128-1.128c0-0.623 0.505-1.128 1.128-1.128s1.128 0.505 1.128 1.128z"></path>
<path d="M30.072 3.838c0.262 0.062 0.423 0.324 0.362 0.586s-0.324 0.423-0.585 0.362c-0.262-0.062-0.423-0.324-0.362-0.585s0.324-0.423 0.585-0.362z"></path>
<path d="M30.468 14.493l0.383 1.078c0.016 0.046 0.049 0.083 0.090 0.101l0.957 0.431c0.135 0.061 0.135 0.276 0 0.337l-0.957 0.431c-0.041 0.018-0.073 0.055-0.090 0.101l-0.383 1.078c-0.054 0.152-0.246 0.152-0.3 0l-0.383-1.078c-0.016-0.046-0.049-0.083-0.090-0.101l-0.957-0.431c-0.135-0.061-0.135-0.276 0-0.337l0.957-0.431c0.041-0.018 0.073-0.055 0.090-0.101l0.383-1.078c0.054-0.152 0.246-0.152 0.3 0z"></path>
<path d="M14.037 31.986c-3.753 0-7.28-1.462-9.932-4.118s-4.11-6.185-4.105-9.938c0.005-3.756 1.487-7.289 4.173-9.947s6.235-4.104 9.993-4.070c1.637 0.015 3.24 0.31 4.764 0.877 0.327 0.122 0.52 0.459 0.458 0.802s-0.36 0.592-0.709 0.592c-0 0-0 0-0 0-4.948 0-9.014 4.021-9.067 8.962-0.026 2.418 0.911 4.711 2.638 6.457s4.008 2.707 6.425 2.707c3.256 0 6.277-1.761 7.887-4.596 0.172-0.303 0.535-0.439 0.863-0.324s0.527 0.449 0.472 0.793c-0.521 3.259-2.194 6.246-4.709 8.41-2.542 2.188-5.792 3.393-9.15 3.393zM14.037 5.171c-3.377 0-6.561 1.314-8.98 3.707-2.445 2.42-3.795 5.636-3.799 9.054-0.005 3.417 1.322 6.63 3.737 9.048s5.626 3.749 9.042 3.749c5.412 0 10.083-3.319 11.935-8.186-1.912 1.909-4.531 3.026-7.298 3.026-2.755 0-5.354-1.094-7.319-3.080s-3.031-4.599-3.001-7.355c0.030-2.733 1.116-5.297 3.060-7.221 1.267-1.254 2.803-2.141 4.477-2.607-0.572-0.083-1.151-0.128-1.736-0.133-0.039-0-0.079-0-0.118-0zM18.674 4.926c-0-0 0 0 0 0s-0 0-0 0z"></path>
<path d="M29.361 10.398c-0.108-1.491-1.356-2.668-2.854-2.684-0.011-0-0.021-0-0.031-0-0.8 0-1.555 0.338-2.093 0.899-0.532-0.58-1.292-0.936-2.104-0.945-0.011-0-0.022-0-0.033-0-1.525 0-2.784 1.176-2.887 2.697-0.044 0.284-0.033 0.585 0.032 0.904-0.381 0.155-0.727 0.389-1.012 0.687-0.532-0.58-1.292-0.936-2.104-0.945-1.539-0.019-2.816 1.164-2.92 2.696-0.18 1.156 0.544 2.598 2.212 4.404 1.166 1.263 2.362 2.224 2.413 2.265 0.115 0.092 0.254 0.138 0.393 0.138 0.138 0 0.275-0.045 0.39-0.135 0.050-0.039 1.236-0.979 2.393-2.227 0.719-0.775 1.265-1.497 1.636-2.161 0.66 0.616 1.161 1.018 1.193 1.044 0.115 0.092 0.254 0.138 0.393 0.138 0.138 0 0.275-0.045 0.39-0.135 0.050-0.039 1.236-0.979 2.393-2.227 1.633-1.761 2.374-3.245 2.204-4.411zM18.377 19.066c-0.437-0.377-1.181-1.046-1.897-1.821-1.318-1.43-2.003-2.655-1.881-3.363 0.004-0.024 0.007-0.048 0.008-0.072 0.048-0.869 0.764-1.544 1.633-1.544 0.006 0 0.012 0 0.019 0 0.672 0.007 1.281 0.436 1.516 1.066 0.091 0.244 0.322 0.407 0.583 0.409 0.002 0 0.005 0 0.007 0 0.257 0 0.489-0.157 0.584-0.397 0.248-0.625 0.869-1.037 1.539-1.032 0.853 0.009 1.562 0.683 1.615 1.534 0.001 0.021 0.004 0.041 0.007 0.061 0.214 1.329-2.034 3.732-3.733 5.159zM24.381 15.725c-0.27-0.232-0.657-0.577-1.082-0.989 0.083-0.354 0.103-0.687 0.058-0.997-0.104-1.447-1.283-2.598-2.723-2.68-0.045-0.194-0.056-0.368-0.030-0.518 0.004-0.024 0.007-0.048 0.008-0.072 0.048-0.869 0.764-1.544 1.633-1.544 0.006 0 0.012 0 0.019 0 0.672 0.007 1.281 0.436 1.516 1.066 0.091 0.244 0.322 0.407 0.583 0.409 0.262 0.005 0.495-0.155 0.591-0.397 0.246-0.619 0.856-1.032 1.521-1.032 0.006 0 0.012 0 0.018 0 0.853 0.009 1.562 0.683 1.615 1.534 0.001 0.021 0.004 0.041 0.007 0.061 0.214 1.329-2.034 3.732-3.733 5.159z"></path>
<path d="M4.838 22.027c-0.933 0-1.821-0.716-2.105-1.775-0.158-0.588-0.108-1.197 0.14-1.714 0.257-0.537 0.695-0.912 1.233-1.056 1.088-0.291 2.243 0.477 2.574 1.713 0.158 0.588 0.108 1.197-0.14 1.714-0.257 0.537-0.695 0.912-1.233 1.056-0.156 0.042-0.313 0.062-0.469 0.062zM4.578 18.174c-0.093 0-0.185 0.012-0.277 0.037-0.322 0.086-0.587 0.318-0.748 0.653-0.17 0.355-0.203 0.778-0.091 1.193 0.223 0.834 0.963 1.363 1.649 1.179 0.322-0.086 0.587-0.318 0.748-0.653 0.17-0.355 0.202-0.778 0.091-1.193-0.193-0.722-0.774-1.216-1.372-1.216z"></path>
<path d="M9.843 26.888c-0.493 0-1.006-0.227-1.377-0.66-0.298-0.348-0.461-0.777-0.461-1.209 0-0.454 0.179-0.857 0.503-1.135s0.75-0.392 1.199-0.323c0.427 0.066 0.826 0.294 1.124 0.642 0.629 0.734 0.61 1.786-0.042 2.344-0.268 0.23-0.602 0.34-0.946 0.34zM9.457 24.296c-0.175 0-0.334 0.055-0.457 0.161-0.154 0.132-0.239 0.332-0.239 0.562-0 0.252 0.099 0.507 0.28 0.718 0.358 0.418 0.923 0.524 1.259 0.237s0.318-0.862-0.040-1.28c-0.181-0.211-0.417-0.348-0.666-0.387-0.046-0.007-0.091-0.011-0.135-0.011z"></path>
<path d="M3.748 15.008c-0.046 0-0.094-0.005-0.141-0.016-0.339-0.077-0.55-0.415-0.473-0.753 0.387-1.692 1.342-2.799 1.382-2.845 0.229-0.261 0.626-0.288 0.888-0.059s0.288 0.625 0.061 0.886c-0.014 0.017-0.792 0.933-1.104 2.299-0.067 0.291-0.326 0.489-0.613 0.489z"></path>
</svg>
