<!-- Generated by IcoMoon.io -->
<svg version="1.1" xmlns="http://www.w3.org/2000/svg" width="32" height="32" viewBox="0 0 32 32">
<title>invitation</title>
<path d="M3.971 5.019l0.521 1.464c0.022 0.063 0.066 0.112 0.122 0.137l1.301 0.586c0.184 0.083 0.184 0.376 0 0.458l-1.301 0.586c-0.056 0.025-0.1 0.075-0.122 0.137l-0.521 1.464c-0.074 0.207-0.334 0.207-0.407 0l-0.521-1.464c-0.022-0.063-0.066-0.112-0.122-0.137l-1.301-0.586c-0.184-0.083-0.184-0.376 0-0.458l1.301-0.586c0.056-0.025 0.1-0.075 0.122-0.137l0.521-1.464c0.074-0.207 0.334-0.207 0.407 0z"></path>
<path d="M9.173 2.264l0.386 1.086c0.017 0.046 0.049 0.083 0.091 0.102l0.965 0.435c0.136 0.061 0.136 0.279 0 0.34l-0.965 0.435c-0.041 0.019-0.074 0.055-0.091 0.102l-0.386 1.086c-0.055 0.153-0.248 0.153-0.302 0l-0.386-1.086c-0.017-0.046-0.049-0.083-0.091-0.102l-0.965-0.435c-0.136-0.061-0.136-0.279 0-0.34l0.965-0.435c0.041-0.019 0.074-0.055 0.091-0.102l0.386-1.086c0.055-0.153 0.248-0.153 0.302 0z"></path>
<path d="M5.219 1.78c0 0.271-0.22 0.49-0.49 0.49s-0.49-0.22-0.49-0.49 0.22-0.49 0.49-0.49 0.49 0.22 0.49 0.49z"></path>
<path d="M31.244 0h-17.988c-0.35 0-0.634 0.284-0.634 0.634v11.819h-10.483c-1.112 0-2.018 0.905-2.018 2.018v15.512c0 1.112 0.905 2.017 2.018 2.017h22.649c1.112 0 2.018-0.905 2.018-2.017v-2.716h4.438c0.35 0 0.634-0.284 0.634-0.634v-25.999c0-0.35-0.284-0.634-0.634-0.634zM12.622 21.349l-10.054-7.629h10.054zM1.39 14.471c0-0.017 0.001-0.034 0.003-0.051l8.483 6.437-8.486 7.88zM24.788 30.732h-22.649c-0.273 0-0.511-0.147-0.642-0.365l9.404-8.733 1.722 1.306v3.692c0 0.35 0.284 0.634 0.634 0.634h8.73l3.417 3.144c-0.136 0.194-0.361 0.322-0.615 0.322zM25.538 28.812l-1.679-1.545h1.679zM30.61 25.999h-16.72v-24.731h16.72z"></path>
<path d="M20.17 8.046c0.835 0.822 1.692 1.425 1.728 1.45 0.109 0.077 0.236 0.115 0.364 0.115 0.131 0 0.263-0.041 0.374-0.122 0.036-0.026 0.891-0.654 1.723-1.496 1.221-1.237 1.748-2.268 1.609-3.152-0.091-1.177-1.078-2.079-2.263-2.059-0.56 0.009-1.086 0.232-1.483 0.6-0.409-0.355-0.944-0.561-1.502-0.551-1.154 0.019-2.11 0.929-2.19 2.076-0.124 0.903 0.413 1.931 1.641 3.139zM19.786 5.069c0.003-0.020 0.005-0.041 0.006-0.062 0.028-0.502 0.444-0.901 0.947-0.91 0.005-0 0.011-0 0.016-0 0.39 0 0.749 0.241 0.895 0.604 0.098 0.243 0.334 0.401 0.598 0.396 0.262-0.004 0.495-0.17 0.585-0.416 0.136-0.373 0.494-0.627 0.891-0.634 0.515-0.008 0.948 0.389 0.979 0.905 0.002 0.024 0.004 0.049 0.009 0.073 0.134 0.747-1.28 2.219-2.459 3.158-1.176-0.903-2.588-2.338-2.468-3.115z"></path>
<path d="M16.71 12.767h11.081c0.35 0 0.634-0.284 0.634-0.634s-0.284-0.634-0.634-0.634h-11.081c-0.35 0-0.634 0.284-0.634 0.634s0.284 0.634 0.634 0.634z"></path>
<path d="M16.71 16.61h11.081c0.35 0 0.634-0.284 0.634-0.634s-0.284-0.634-0.634-0.634h-11.081c-0.35 0-0.634 0.284-0.634 0.634s0.284 0.634 0.634 0.634z"></path>
<path d="M16.71 20.453h11.081c0.35 0 0.634-0.284 0.634-0.634s-0.284-0.634-0.634-0.634h-11.081c-0.35 0-0.634 0.284-0.634 0.634s0.284 0.634 0.634 0.634z"></path>
<path d="M24.51 23.029h-4.52c-0.35 0-0.634 0.284-0.634 0.634s0.284 0.634 0.634 0.634h4.52c0.35 0 0.634-0.284 0.634-0.634s-0.284-0.634-0.634-0.634z"></path>
<path d="M3.497 23.431c-0.005 0-0.011-0-0.016-0-0.35-0.009-0.627-0.299-0.618-0.649 0.011-0.458 0.014-0.935 0.007-1.416-0.005-0.35 0.275-0.638 0.625-0.642 0.003 0 0.006-0 0.009-0 0.346 0 0.629 0.278 0.634 0.625 0.007 0.497 0.004 0.99-0.007 1.465-0.008 0.345-0.29 0.618-0.633 0.618z"></path>
<path d="M3.496 19.792c-0.35 0-0.634-0.284-0.634-0.634v-0.531c0-0.35 0.284-0.634 0.634-0.634s0.634 0.284 0.634 0.634v0.531c0 0.35-0.284 0.634-0.634 0.634z"></path>
</svg>
