<!-- Generated by IcoMoon.io -->
<svg version="1.1" xmlns="http://www.w3.org/2000/svg" width="32" height="32" viewBox="0 0 32 32">
<title>location</title>
<path d="M28.080 24.769l0.515 1.449c0.022 0.062 0.066 0.111 0.121 0.136l1.287 0.58c0.182 0.082 0.182 0.372 0 0.454l-1.287 0.58c-0.055 0.025-0.099 0.074-0.121 0.136l-0.515 1.449c-0.073 0.205-0.33 0.205-0.403 0l-0.515-1.449c-0.022-0.062-0.066-0.111-0.121-0.136l-1.287-0.58c-0.182-0.082-0.182-0.372 0-0.454l1.287-0.58c0.055-0.025 0.099-0.074 0.121-0.136l0.515-1.449c0.073-0.205 0.33-0.205 0.403 0z"></path>
<path d="M1.827 22.949l0.382 1.075c0.016 0.046 0.049 0.082 0.090 0.101l0.955 0.43c0.135 0.061 0.135 0.276 0 0.337l-0.955 0.43c-0.041 0.018-0.073 0.055-0.090 0.101l-0.382 1.075c-0.054 0.152-0.245 0.152-0.299 0l-0.382-1.075c-0.016-0.046-0.049-0.082-0.090-0.101l-0.955-0.43c-0.135-0.061-0.135-0.276 0-0.337l0.955-0.43c0.041-0.018 0.073-0.055 0.090-0.101l0.382-1.075c0.054-0.152 0.245-0.152 0.299 0z"></path>
<path d="M4.411 19.011c0 0.621-0.504 1.125-1.125 1.125s-1.125-0.504-1.125-1.125c0-0.621 0.504-1.125 1.125-1.125s1.125 0.504 1.125 1.125z"></path>
<path d="M6.619 24.086c0.265 0.043 0.444 0.292 0.401 0.557s-0.292 0.444-0.557 0.401c-0.265-0.043-0.444-0.292-0.401-0.557s0.292-0.444 0.557-0.401z"></path>
<path d="M27.961 19.165c0.264 0.047 0.44 0.299 0.393 0.563s-0.299 0.44-0.563 0.393c-0.264-0.047-0.44-0.299-0.393-0.563s0.299-0.44 0.563-0.393z"></path>
<path d="M30.472 15.537l0.382 1.075c0.016 0.046 0.049 0.082 0.090 0.101l0.955 0.43c0.135 0.061 0.135 0.276 0 0.337l-0.955 0.43c-0.041 0.018-0.073 0.055-0.090 0.101l-0.382 1.075c-0.054 0.152-0.245 0.152-0.299 0l-0.382-1.075c-0.016-0.046-0.049-0.082-0.090-0.101l-0.955-0.43c-0.135-0.061-0.135-0.276 0-0.337l0.955-0.43c0.041-0.018 0.073-0.055 0.090-0.101l0.382-1.075c0.054-0.152 0.245-0.152 0.299 0z"></path>
<path d="M19.846 25.048c0.82-0.919 1.665-1.96 2.461-3.038 1.806-2.446 4.835-7.082 4.835-10.654 0-6.167-5.017-11.184-11.184-11.184s-11.184 5.017-11.184 11.184c0 3.572 3.030 8.209 4.835 10.654 0.796 1.078 1.64 2.119 2.461 3.038-2.319 0.555-4.099 1.63-4.099 3.172 0 2.345 4.115 3.61 7.987 3.61s7.987-1.265 7.987-3.61c-0-1.542-1.78-2.616-4.099-3.171zM6.028 11.355c0-5.475 4.454-9.93 9.93-9.93s9.93 4.454 9.93 9.93c0 2.3-1.62 5.839-4.444 9.71-1.111 1.523-2.338 2.992-3.454 4.135-1.316 1.348-1.886 1.647-2.032 1.707-0.146-0.060-0.716-0.359-2.032-1.707-1.116-1.143-2.342-2.611-3.454-4.135-2.824-3.871-4.444-7.411-4.444-9.71zM15.958 30.575c-4.171 0-6.733-1.372-6.733-2.355 0-0.729 1.408-1.671 3.836-2.11 0.056 0.057 0.112 0.114 0.167 0.169 1.891 1.894 2.479 1.894 2.73 1.894s0.839 0 2.73-1.894c0.055-0.055 0.111-0.112 0.167-0.169 2.427 0.439 3.835 1.381 3.835 2.11 0 0.983-2.561 2.355-6.732 2.355z"></path>
<path d="M23.438 11.217c0-4.125-3.356-7.48-7.48-7.48s-7.48 3.356-7.48 7.48 3.356 7.48 7.48 7.48 7.48-3.356 7.48-7.48zM9.23 11.217c0-3.71 3.018-6.728 6.728-6.728s6.727 3.018 6.727 6.728-3.018 6.728-6.727 6.728-6.727-3.018-6.727-6.727z"></path>
<path d="M17.79 15.86c0.069 0.055 0.152 0.083 0.235 0.083s0.165-0.027 0.233-0.081c0.349-0.275 3.387-2.729 3.127-4.497-0.071-0.994-0.902-1.779-1.901-1.79-0.561-0.004-1.090 0.237-1.455 0.642-0.204-0.236-0.463-0.42-0.752-0.536-0.001-0.008-0.002-0.016-0.003-0.024-0.071-0.994-0.902-1.779-1.901-1.79-0.562-0.008-1.090 0.237-1.455 0.642-0.356-0.412-0.88-0.667-1.441-0.674-0.007-0-0.014-0-0.022-0-1.017 0-1.856 0.784-1.923 1.799-0.27 1.727 2.795 4.237 3.147 4.518 0.069 0.055 0.152 0.083 0.235 0.083s0.165-0.027 0.233-0.081c0.122-0.096 0.572-0.459 1.096-0.965 0.852 1.287 2.311 2.482 2.548 2.671zM17.191 10.478c0.214 0.135 0.385 0.338 0.477 0.583 0.054 0.146 0.193 0.243 0.349 0.245h0.004c0.154 0 0.293-0.094 0.35-0.237 0.178-0.449 0.62-0.747 1.105-0.741 0.613 0.007 1.122 0.491 1.16 1.101 0.001 0.012 0.002 0.024 0.004 0.037 0.151 0.942-1.436 2.633-2.613 3.614-0.773-0.652-1.72-1.603-2.247-2.44 0.6-0.65 1.185-1.425 1.411-2.162zM13.915 13.372c-1.19-1.004-2.797-2.719-2.638-3.632 0.002-0.014 0.004-0.029 0.005-0.043 0.035-0.624 0.549-1.109 1.173-1.109 0.004 0 0.009 0 0.013 0 0.483 0.005 0.92 0.313 1.088 0.765 0.054 0.146 0.193 0.243 0.349 0.245 0.154 0 0.296-0.093 0.354-0.237 0.177-0.445 0.615-0.741 1.092-0.741 0.004 0 0.008 0 0.013 0 0.613 0.007 1.122 0.491 1.16 1.101 0.001 0.012 0.002 0.024 0.004 0.037 0.152 0.942-1.436 2.633-2.612 3.614z"></path>
</svg>
