<!-- Generated by IcoMoon.io -->
<svg version="1.1" xmlns="http://www.w3.org/2000/svg" width="32" height="32" viewBox="0 0 32 32">
<title>menu</title>
<path d="M4.28 0.581l0.519 1.459c0.022 0.062 0.066 0.112 0.122 0.137l1.296 0.584c0.183 0.083 0.183 0.374 0 0.457l-1.296 0.584c-0.056 0.025-0.099 0.075-0.122 0.137l-0.519 1.459c-0.073 0.206-0.333 0.206-0.406 0l-0.519-1.459c-0.022-0.062-0.066-0.112-0.122-0.137l-1.296-0.584c-0.183-0.083-0.183-0.374 0-0.457l1.296-0.584c0.055-0.025 0.099-0.075 0.122-0.137l0.519-1.459c0.073-0.206 0.332-0.206 0.406 0z"></path>
<path d="M30.462 5.473l0.385 1.082c0.017 0.046 0.049 0.083 0.090 0.102l0.961 0.433c0.136 0.061 0.136 0.278 0 0.339l-0.961 0.433c-0.041 0.019-0.074 0.055-0.090 0.102l-0.385 1.082c-0.054 0.153-0.247 0.153-0.301 0l-0.385-1.082c-0.017-0.046-0.049-0.083-0.090-0.102l-0.961-0.433c-0.136-0.061-0.136-0.278 0-0.339l0.961-0.433c0.041-0.019 0.074-0.055 0.090-0.102l0.385-1.082c0.054-0.153 0.247-0.153 0.301 0z"></path>
<path d="M24.491 0.21l0.385 1.082c0.017 0.046 0.049 0.083 0.090 0.102l0.961 0.433c0.136 0.061 0.136 0.278 0 0.339l-0.961 0.433c-0.041 0.019-0.074 0.055-0.090 0.102l-0.385 1.082c-0.054 0.153-0.247 0.153-0.301 0l-0.385-1.082c-0.017-0.046-0.049-0.083-0.090-0.102l-0.961-0.433c-0.136-0.061-0.136-0.278 0-0.339l0.961-0.433c0.041-0.019 0.074-0.055 0.090-0.102l0.385-1.082c0.054-0.153 0.247-0.153 0.301 0z"></path>
<path d="M2.265 9.383c0 0.626-0.507 1.133-1.133 1.133s-1.133-0.507-1.133-1.133c0-0.626 0.507-1.133 1.133-1.133s1.133 0.507 1.133 1.133z"></path>
<path d="M10.068 2.031c0.266 0.043 0.447 0.294 0.404 0.56s-0.294 0.447-0.56 0.404c-0.266-0.043-0.447-0.294-0.404-0.56s0.294-0.447 0.56-0.404z"></path>
<path d="M25.718 8.36c-2.605-2.605-6.068-4.040-9.752-4.040s-7.148 1.435-9.752 4.040c-2.605 2.605-4.040 6.069-4.040 9.752s1.435 7.148 4.040 9.753c2.605 2.605 6.068 4.040 9.752 4.040s7.148-1.435 9.752-4.040c2.605-2.605 4.040-6.069 4.040-9.753s-1.435-7.148-4.040-9.752zM25.147 17.599c0.009 0.17 0.014 0.341 0.014 0.513 0 0.169-0.005 0.337-0.014 0.503zM6.86 19.401c-0.059-0.421-0.090-0.851-0.090-1.288 0-0.436 0.031-0.865 0.090-1.285zM8.123 9.419l7.249 1.548v16.831l-7.249-1.548zM13.453 9.266c0.799-0.227 1.641-0.35 2.512-0.35 0.883 0 1.736 0.126 2.545 0.359l-2.506 0.535zM16.635 10.967l7.249-1.548v16.831l-7.249 1.548zM23.603 8.188l-3.69 0.788c-1.211-0.525-2.546-0.817-3.948-0.817-1.392 0-2.718 0.288-3.922 0.807l-3.699-0.79c2.113-1.624 4.756-2.592 7.621-2.592 2.873 0 5.522 0.973 7.638 2.605zM3.436 18.112c0-3.325 1.302-6.352 3.424-8.597v4.58c-0.545 1.229-0.848 2.588-0.848 4.017s0.304 2.788 0.848 4.017v4.58c-2.121-2.245-3.424-5.272-3.424-8.597zM7.598 27.43l8.273 1.767c0.003 0.001 0.007 0.001 0.010 0.002 0.014 0.003 0.028 0.005 0.043 0.007 0.006 0.001 0.012 0.002 0.018 0.002 0.020 0.002 0.040 0.003 0.061 0.003s0.041-0.001 0.061-0.003c0.006-0.001 0.012-0.002 0.018-0.002 0.014-0.002 0.028-0.004 0.043-0.007 0.003-0.001 0.007-0.001 0.010-0.002l8.172-1.745c-2.217 1.983-5.141 3.19-8.342 3.19-3.213 0-6.147-1.216-8.367-3.211zM25.147 26.627v-4.676c0.496-1.182 0.772-2.479 0.772-3.839s-0.276-2.657-0.772-3.839v-4.676c2.076 2.237 3.347 5.23 3.347 8.515s-1.271 6.278-3.347 8.515z"></path>
<path d="M22.438 14.267l-4.591 0.978c-0.205 0.044-0.335 0.245-0.292 0.45 0.038 0.178 0.195 0.3 0.37 0.3 0.026 0 0.053-0.003 0.079-0.008l4.591-0.978c0.205-0.044 0.335-0.245 0.292-0.45s-0.245-0.335-0.45-0.292z"></path>
<path d="M22.438 17.666l-4.591 0.978c-0.205 0.044-0.335 0.245-0.292 0.45 0.038 0.178 0.195 0.3 0.37 0.3 0.026 0 0.053-0.003 0.079-0.008l4.591-0.978c0.205-0.044 0.335-0.245 0.292-0.45s-0.245-0.335-0.45-0.292z"></path>
<path d="M14.177 16.205c0.004-0.528-0.192-1.057-0.572-1.525-0.358-0.44-0.845-0.779-1.373-0.963l0.053-0.695c0.016-0.209-0.14-0.391-0.349-0.407-0.208-0.016-0.391 0.14-0.407 0.349l-0.046 0.604c-0.515-0.025-0.989 0.12-1.386 0.428-0.359 0.279-0.631 0.674-0.801 1.155-0.296-0.005-0.563 0.2-0.627 0.5-0.073 0.341 0.145 0.677 0.486 0.749l4.591 0.978c0.044 0.009 0.089 0.014 0.132 0.014 0.292 0 0.554-0.203 0.617-0.5 0.060-0.281-0.077-0.558-0.318-0.687zM10.562 14.595c0.321-0.249 0.712-0.328 1.163-0.234 0.486 0.102 0.968 0.4 1.292 0.798 0.22 0.27 0.352 0.564 0.39 0.856l-3.357-0.715c0.122-0.295 0.297-0.539 0.512-0.705z"></path>
<path d="M14.124 20.863l-4.591-0.978c-0.205-0.044-0.406 0.087-0.45 0.292s0.087 0.406 0.292 0.45l4.591 0.978c0.027 0.006 0.053 0.008 0.079 0.008 0.175 0 0.332-0.122 0.37-0.3 0.044-0.205-0.087-0.406-0.292-0.45z"></path>
<path d="M22.438 21.066l-4.591 0.978c-0.205 0.044-0.335 0.245-0.292 0.45 0.038 0.178 0.195 0.3 0.37 0.3 0.026 0 0.053-0.003 0.079-0.008l4.591-0.978c0.205-0.044 0.335-0.245 0.292-0.45s-0.245-0.335-0.45-0.292z"></path>
</svg>
