<!-- Generated by IcoMoon.io -->
<svg version="1.1" xmlns="http://www.w3.org/2000/svg" width="32" height="32" viewBox="0 0 32 32">
<title>ring1</title>
<path d="M6.256 0.155l0.519 1.458c0.022 0.062 0.066 0.112 0.122 0.137l1.296 0.584c0.183 0.083 0.183 0.374 0 0.457l-1.296 0.584c-0.056 0.025-0.099 0.075-0.122 0.137l-0.519 1.458c-0.073 0.206-0.332 0.206-0.406 0l-0.519-1.458c-0.022-0.062-0.066-0.112-0.122-0.137l-1.296-0.584c-0.183-0.083-0.183-0.374 0-0.457l1.296-0.584c0.056-0.025 0.099-0.075 0.122-0.137l0.519-1.458c0.073-0.206 0.332-0.206 0.406 0z"></path>
<path d="M2.436 9.943l0.385 1.082c0.017 0.046 0.049 0.083 0.090 0.102l0.961 0.433c0.136 0.061 0.136 0.278 0 0.339l-0.961 0.433c-0.041 0.019-0.074 0.055-0.090 0.102l-0.385 1.082c-0.054 0.153-0.247 0.153-0.301 0l-0.385-1.082c-0.016-0.046-0.049-0.083-0.090-0.102l-0.961-0.433c-0.136-0.061-0.136-0.278 0-0.339l0.961-0.433c0.041-0.019 0.074-0.055 0.090-0.102l0.385-1.082c0.054-0.153 0.247-0.153 0.301 0z"></path>
<path d="M7.327 7.692c0.609 0.144 0.985 0.754 0.842 1.362s-0.754 0.985-1.362 0.841c-0.609-0.144-0.985-0.754-0.841-1.362s0.754-0.985 1.362-0.841z"></path>
<path d="M15.74 1.994c0 0.27-0.219 0.489-0.489 0.489s-0.489-0.219-0.489-0.489c0-0.27 0.219-0.489 0.489-0.489s0.489 0.219 0.489 0.489z"></path>
<path d="M31.369 19.806l-0.643-0.531c0.019-0.497-0.026-1.42-0.487-2.401-0.843-1.794-2.343-2.803-4.467-3.008v-7.524c0-2.705-2.201-4.907-4.907-4.907h-0.262c-1.538 0-2.79 1.252-2.79 2.79v7.655h-2.532v-3.149c0-0.133-0.016-0.262-0.045-0.386 0.054-0.061 0.103-0.128 0.143-0.202l0.764-1.383c0.225-0.408 0.183-0.906-0.108-1.27l-0.708-0.887c-0.219-0.274-0.545-0.431-0.896-0.431h-1.661c-0.351 0-0.677 0.157-0.896 0.431l-0.708 0.887c-0.291 0.364-0.333 0.863-0.108 1.27l0.764 1.382c0.041 0.073 0.089 0.141 0.143 0.203-0.029 0.124-0.045 0.253-0.045 0.385v3.149h-0.762c-1.747 0-3.237 1.12-3.791 2.679-1.183 0.472-2.022 1.628-2.022 2.978v3.273c-0.459-0.201-0.918-0.404-1.369-0.605-0.017-0.007-0.034-0.014-0.051-0.020-1.336-0.463-2.545 0.117-3.234 1.551-0.562 1.17-0.365 2.768 1.095 3.555 0.294 0.162 7.239 3.96 9.618 4.223 0.044 0.005 0.103 0.007 0.177 0.007 1.463-0 8.482-0.948 12.001-1.832l5.861 4.192c0.111 0.080 0.24 0.118 0.367 0.118 0.197 0 0.391-0.092 0.514-0.264 0.203-0.284 0.137-0.678-0.146-0.881l-6.101-4.364c-0.153-0.11-0.347-0.145-0.529-0.097-3.601 0.955-11.257 1.941-12.005 1.864-1.769-0.195-7.204-3.007-9.153-4.077-1.156-0.623-0.585-1.847-0.56-1.899 0.402-0.837 0.96-1.144 1.659-0.913 0.239 0.107 2.018 0.897 3.876 1.682 4.116 1.738 4.591 1.755 4.82 1.764 0.014 0 0.029 0.001 0.045 0.001 1.241-0 5.769-1.652 6.904-2.172 0.3-0.137 1.053-0.53 1.759-1.037 0.999-0.716 1.451-1.334 1.422-1.944-0.014-0.298-0.167-0.843-1.033-1.143-0.122-0.042-0.447-0.155-3.592 0.178-0.006 0.001-0.012 0.001-0.018 0.002-2.644 0.356-2.765-0.516-2.831-0.984-0.104-0.747 0.245-1.322 2.291-1.695 1.845-0.336 5.298-0.905 7.692-0.934 2.127-0.026 3.525 0.733 4.271 2.321 0.496 1.056 0.352 2.030 0.351 2.037-0.037 0.222 0.047 0.447 0.221 0.591l0.897 0.741c0.269 0.222 0.667 0.184 0.889-0.084s0.184-0.667-0.084-0.889zM20.603 2.698h0.262c2.009 0 3.644 1.635 3.644 3.644v7.491c-1.493 0.042-3.303 0.26-4.9 0.499h-0.532v-10.106c-0-0.842 0.685-1.527 1.527-1.527zM12.827 5.436h1.549l0.625 0.782-0.579 1.048c-0.243-0.136-0.522-0.214-0.82-0.214s-0.577 0.078-0.82 0.214l-0.579-1.048zM13.184 8.731c0-0.23 0.187-0.417 0.417-0.417s0.417 0.187 0.417 0.417v3.149h-0.834zM11.159 13.143h6.654v1.189h-8.921c0.499-0.718 1.329-1.189 2.267-1.189zM17.832 19.955c1.246-0.132 2.744-0.252 3.077-0.225 0.047 0.018 0.083 0.034 0.109 0.048-0.075 0.127-0.299 0.414-0.955 0.87-0.561 0.391-1.178 0.721-1.455 0.848-1.454 0.665-5.627 2.085-6.372 2.058-0.449-0.040-2.9-1.023-5.627-2.196v-3.821c0-1.071 0.871-1.942 1.942-1.942h6.040c-0.788 0.543-1.134 1.336-1 2.298 0.36 2.577 3.27 2.193 4.241 2.062z"></path>
<path d="M10.986 18.175h-2.485c-0.349 0-0.631-0.283-0.631-0.631s0.283-0.631 0.631-0.631h2.485c0.349 0 0.631 0.283 0.631 0.631s-0.283 0.631-0.631 0.631z"></path>
</svg>
