<!-- Generated by IcoMoon.io -->
<svg version="1.1" xmlns="http://www.w3.org/2000/svg" width="32" height="32" viewBox="0 0 32 32">
<title>rings</title>
<path d="M26.866 4.576l0.517 1.454c0.022 0.062 0.066 0.112 0.121 0.137l1.292 0.582c0.183 0.082 0.183 0.373 0 0.455l-1.292 0.582c-0.055 0.025-0.099 0.074-0.121 0.137l-0.517 1.454c-0.073 0.205-0.331 0.205-0.405 0l-0.517-1.454c-0.022-0.062-0.066-0.112-0.121-0.137l-1.292-0.582c-0.183-0.082-0.183-0.373 0-0.455l1.292-0.582c0.055-0.025 0.099-0.074 0.121-0.137l0.517-1.454c0.073-0.205 0.331-0.205 0.405 0z"></path>
<path d="M2.671 0.282l0.384 1.079c0.016 0.046 0.049 0.083 0.090 0.101l0.958 0.432c0.135 0.061 0.135 0.277 0 0.338l-0.958 0.432c-0.041 0.018-0.074 0.055-0.090 0.101l-0.384 1.079c-0.054 0.152-0.246 0.152-0.3 0l-0.384-1.079c-0.016-0.046-0.049-0.083-0.090-0.101l-0.958-0.432c-0.135-0.061-0.135-0.277 0-0.338l0.958-0.432c0.041-0.018 0.074-0.055 0.090-0.101l0.384-1.079c0.054-0.152 0.246-0.152 0.3 0z"></path>
<path d="M22.287 3.889c0 0.624-0.506 1.129-1.129 1.129s-1.129-0.506-1.129-1.129c0-0.624 0.506-1.129 1.129-1.129s1.129 0.506 1.129 1.129z"></path>
<path d="M28.566 1.883c0.103 0.249-0.015 0.534-0.264 0.637s-0.534-0.015-0.637-0.264c-0.103-0.249 0.015-0.534 0.264-0.637s0.534 0.015 0.637 0.264z"></path>
<path d="M21.323 10.479c-0.593 0-1.174 0.049-1.741 0.143-1.275-1.927-3.095-3.353-5.189-4.127l0.37-0.605c0.349-0.572 0.286-1.294-0.157-1.797l-1.257-1.424c-0.288-0.327-0.703-0.514-1.139-0.514h-3.111c-0.435 0-0.851 0.187-1.139 0.514l-1.257 1.424c-0.444 0.503-0.507 1.225-0.157 1.797l0.381 0.623c-4.043 1.522-6.927 5.428-6.927 9.996 0 5.887 4.789 10.677 10.677 10.677 0.595 0 1.178-0.050 1.746-0.144 1.913 2.884 5.188 4.79 8.901 4.79 5.887 0 10.677-4.789 10.677-10.677s-4.789-10.677-10.676-10.677zM7.62 5.234c-0.060-0.098-0.049-0.221 0.027-0.307l1.257-1.424c0.049-0.056 0.12-0.088 0.195-0.088h3.111c0.074 0 0.145 0.032 0.195 0.088l1.257 1.424c0.076 0.086 0.087 0.209 0.027 0.307l-0.541 0.886c-0.799-0.188-1.626-0.287-2.47-0.287-0.864 0-1.703 0.104-2.508 0.298zM1.259 16.51c0-5.193 4.225-9.417 9.417-9.417 3.024 0 5.81 1.422 7.584 3.835-0.567 0.17-1.114 0.386-1.637 0.643-1.475-1.779-3.622-2.792-5.948-2.792-4.263 0-7.731 3.468-7.731 7.731s3.468 7.731 7.731 7.731 7.731-3.468 7.731-7.731c0-0.365-0.026-0.731-0.077-1.091 0.503-0.263 1.044-0.462 1.613-0.586 0.099 0.551 0.15 1.113 0.15 1.677 0 5.193-4.225 9.417-9.417 9.417s-9.417-4.224-9.417-9.417zM15.51 12.205c-2.925 1.906-4.863 5.206-4.863 8.95 0 0.622 0.054 1.231 0.157 1.824-0.042 0.001-0.085 0.002-0.127 0.002-3.569 0-6.472-2.903-6.472-6.472s2.903-6.472 6.472-6.472c1.871 0 3.605 0.784 4.833 2.168zM14.851 21.155c0-1.976 0.89-3.747 2.29-4.935 0.004 0.096 0.007 0.193 0.007 0.289 0 1.976-0.89 3.747-2.29 4.935-0.004-0.096-0.007-0.192-0.007-0.289zM21.198 14.685c0.042-0.001 0.084-0.002 0.126-0.002 3.569 0 6.472 2.903 6.472 6.472s-2.903 6.472-6.472 6.472c-1.918 0-3.643-0.84-4.829-2.17 2.923-1.907 4.859-5.205 4.859-8.948 0-0.613-0.052-1.224-0.155-1.824zM21.323 30.573c-3.105 0-5.863-1.512-7.579-3.837 0.566-0.17 1.113-0.386 1.636-0.644 1.419 1.706 3.556 2.795 5.943 2.795 4.263 0 7.731-3.468 7.731-7.731s-3.468-7.731-7.731-7.731-7.731 3.468-7.731 7.731c0 0.37 0.027 0.734 0.078 1.091-0.503 0.263-1.044 0.462-1.613 0.587-0.098-0.545-0.151-1.105-0.151-1.677 0-5.193 4.225-9.417 9.417-9.417s9.417 4.225 9.417 9.417c0 5.193-4.225 9.417-9.417 9.417z"></path>
</svg>
