<!-- Generated by IcoMoon.io -->
<svg version="1.1" xmlns="http://www.w3.org/2000/svg" width="32" height="32" viewBox="0 0 32 32">
<title>ring</title>
<path d="M5.885 5.264l0.532 1.495c0.023 0.064 0.068 0.115 0.125 0.14l1.329 0.599c0.188 0.085 0.188 0.384 0 0.468l-1.329 0.599c-0.057 0.026-0.102 0.076-0.125 0.14l-0.532 1.495c-0.075 0.211-0.341 0.211-0.416 0l-0.532-1.495c-0.023-0.064-0.068-0.115-0.125-0.14l-1.329-0.599c-0.188-0.085-0.188-0.384 0-0.468l1.329-0.599c0.057-0.026 0.102-0.076 0.125-0.14l0.532-1.495c0.075-0.211 0.341-0.211 0.416 0z"></path>
<path d="M23.774 0.118l0.395 1.109c0.017 0.048 0.050 0.085 0.093 0.104l0.986 0.444c0.139 0.063 0.139 0.285 0 0.347l-0.986 0.444c-0.042 0.019-0.076 0.057-0.093 0.104l-0.395 1.109c-0.056 0.157-0.253 0.157-0.309 0l-0.395-1.109c-0.017-0.047-0.050-0.085-0.093-0.104l-0.986-0.444c-0.139-0.063-0.139-0.285 0-0.347l0.986-0.444c0.042-0.019 0.076-0.057 0.093-0.104l0.395-1.109c0.056-0.157 0.253-0.157 0.309 0z"></path>
<path d="M27.951 8.584c0.593 0.246 0.874 0.925 0.628 1.518s-0.925 0.874-1.518 0.628c-0.593-0.246-0.874-0.925-0.628-1.518s0.925-0.874 1.518-0.628z"></path>
<path d="M7.347 2.219c0 0.277-0.224 0.501-0.501 0.501s-0.501-0.224-0.501-0.501c0-0.277 0.224-0.501 0.501-0.501s0.501 0.224 0.501 0.501z"></path>
<path d="M19.366 10.661l1.783-3.348c0.354-0.665 0.286-1.482-0.173-2.079l-1.74-2.262c-0.362-0.471-0.933-0.752-1.526-0.752h-3.993c-0.594 0-1.164 0.281-1.526 0.752l-1.74 2.262c-0.46 0.598-0.528 1.414-0.173 2.079l1.79 3.362c-4.255 1.513-7.31 5.58-7.31 10.347 0 6.053 4.925 10.978 10.978 10.978s10.978-4.925 10.978-10.978c0-4.782-3.073-8.858-7.348-10.361zM15.976 3.516l1.233 2.449h-2.992l1.233-2.449zM17.153 6.741l-1.134 3.306c-0.094-0.002-0.189-0.004-0.283-0.004-0.11 0-0.219 0.002-0.328 0.005l-1.134-3.308h2.879zM16.823 10.098l1.151-3.356h2.012l-1.858 3.49c-0.012 0.023-0.027 0.045-0.041 0.066-0.413-0.090-0.834-0.158-1.263-0.2zM18.209 3.762l1.694 2.202h-1.825l-1.233-2.449h0.864c0.195-0 0.381 0.092 0.5 0.246zM13.217 3.762c0.119-0.154 0.306-0.246 0.5-0.246h0.864l-1.233 2.449h-1.825zM13.298 10.231l-1.858-3.49h2.012l1.152 3.36c-0.427 0.044-0.847 0.113-1.259 0.205-0.017-0.024-0.033-0.049-0.047-0.075zM15.736 30.705c-5.339 0-9.683-4.344-9.683-9.683s4.344-9.683 9.683-9.683c5.339 0 9.683 4.344 9.683 9.683s-4.344 9.683-9.683 9.683z"></path>
<path d="M15.736 13.072c-4.383 0-7.95 3.566-7.95 7.95s3.566 7.95 7.95 7.95 7.95-3.566 7.95-7.95-3.566-7.95-7.95-7.95zM15.736 27.677c-3.67 0-6.655-2.985-6.655-6.655s2.985-6.655 6.655-6.655c3.669 0 6.655 2.985 6.655 6.655s-2.985 6.655-6.655 6.655z"></path>
</svg>
