<!-- Generated by IcoMoon.io -->
<svg version="1.1" xmlns="http://www.w3.org/2000/svg" width="32" height="32" viewBox="0 0 32 32">
<title>romantic-dinner</title>
<path d="M10.070 0.341l0.382 1.075c0.016 0.046 0.049 0.083 0.090 0.101l0.956 0.43c0.135 0.061 0.135 0.276 0 0.337l-0.956 0.43c-0.041 0.018-0.073 0.055-0.090 0.101l-0.382 1.075c-0.054 0.152-0.245 0.152-0.299 0l-0.383-1.075c-0.016-0.046-0.049-0.083-0.090-0.101l-0.956-0.43c-0.135-0.061-0.135-0.276 0-0.337l0.956-0.43c0.041-0.018 0.073-0.055 0.090-0.101l0.383-1.075c0.054-0.152 0.245-0.152 0.299 0z"></path>
<path d="M29.385 0.114l0.383 1.075c0.016 0.046 0.049 0.083 0.090 0.101l0.956 0.431c0.135 0.061 0.135 0.276 0 0.337l-0.956 0.43c-0.041 0.018-0.073 0.055-0.090 0.101l-0.383 1.075c-0.054 0.152-0.245 0.152-0.299 0l-0.382-1.075c-0.016-0.046-0.049-0.083-0.090-0.101l-0.956-0.43c-0.135-0.061-0.135-0.276 0-0.337l0.956-0.43c0.041-0.018 0.073-0.055 0.090-0.101l0.382-1.075c0.054-0.152 0.245-0.152 0.299 0z"></path>
<path d="M6.026 1.614c0.103 0.248-0.015 0.532-0.263 0.635s-0.532-0.015-0.635-0.263c-0.103-0.248 0.015-0.532 0.263-0.635s0.532 0.015 0.635 0.263z"></path>
<path d="M22.77 2.083c0.575 0.238 0.847 0.897 0.609 1.472s-0.897 0.847-1.472 0.609c-0.575-0.238-0.847-0.897-0.609-1.472s0.897-0.847 1.472-0.609z"></path>
<path d="M28.761 17.988c0-2.214-0.519-4.348-1.497-6.265v-6.655c0-0.348-0.178-0.67-0.475-0.862-0.308-0.199-0.692-0.227-1.026-0.076-0.883 0.399-1.682 1.454-2.306 2.982-2.417-1.896-5.377-2.925-8.497-2.925-2.103 0-4.133 0.468-5.973 1.353v-0.040c0-0.802-0.619-1.455-1.379-1.455l-0.123-0c-0.539 0-1.005 0.339-1.224 0.829-0.219-0.49-0.685-0.829-1.224-0.829s-1.005 0.339-1.224 0.829c-0.219-0.49-0.685-0.829-1.224-0.829h-0.146c-0.748 0-1.356 0.653-1.356 1.455v4.733c0 1.051 0.391 2.020 1.029 2.689-0.628 1.592-0.957 3.304-0.957 5.066 0 1.841 0.359 3.627 1.043 5.279v5.892c0 1.567 1.275 2.841 2.841 2.841 1.347 0 2.477-0.942 2.768-2.202 2.134 1.297 4.588 1.991 7.15 1.991 2.636 0 5.158-0.735 7.334-2.106 0.247 1.317 1.405 2.316 2.792 2.316 1.567 0 2.841-1.275 2.841-2.841v-6.432c0.547-1.498 0.834-3.097 0.834-4.739zM27.505 17.988c0 0.756-0.068 1.496-0.196 2.216-0.015-0.009-0.030-0.019-0.045-0.028v-4.643c0.158 0.794 0.242 1.615 0.242 2.455zM22.244 23.611c-1.085 1.402-2.564 2.483-4.27 3.076l4.27-4.27zM7.883 22.625l4.063 4.063c-1.6-0.556-3-1.541-4.063-2.817zM7.736 20.703c-0.121-0.229-0.309-0.417-0.538-0.538l-0.091-0.091v-4.171l7.853-7.853 7.222 7.222c0.053 1.639 0.276 3.26 0.663 4.771l-7.885 7.885zM22.189 13.503l-4.216-4.216c1.716 0.596 3.203 1.687 4.29 3.1-0.033 0.37-0.058 0.743-0.073 1.116zM26.008 5.443v14.574h-1.873c-0.795-2.902-0.934-6.276-0.375-9.358 0.515-2.836 1.472-4.607 2.247-5.215zM14.959 5.441c3.063 0 5.873 1.104 8.054 2.935-0.19 0.633-0.354 1.322-0.487 2.057-0.055 0.303-0.103 0.61-0.146 0.918-1.413-1.579-3.32-2.705-5.476-3.134l-1.501-1.5c-0.245-0.245-0.643-0.245-0.888 0l-1.501 1.501c-1.488 0.296-2.858 0.924-4.028 1.804v-3.064c1.777-0.966 3.812-1.517 5.973-1.517zM8.896 11.066c0.884-0.775 1.916-1.385 3.049-1.779l-4.839 4.839v-0.591c0.889-0.458 1.558-1.39 1.79-2.47zM2.341 5.499c0-0.131 0.075-0.2 0.101-0.2h0.146c0.054-0.014 0.117 0.177 0.106 0.279l0.495 3.894c0.040 0.313 0.307 0.548 0.623 0.548s0.583-0.235 0.623-0.549l0.495-3.894c-0.011-0.102 0.052-0.294 0.106-0.279 0.054-0.014 0.117 0.177 0.106 0.279l0.495 3.894c0.040 0.313 0.307 0.548 0.623 0.548s0.583-0.235 0.623-0.548l0.495-3.894c-0.011-0.101 0.053-0.294 0.104-0.279l0.123 0c0.038 0 0.126 0.075 0.126 0.199v4.733c0 1.046-0.619 2.029-1.44 2.287-0.262 0.082-0.44 0.325-0.44 0.599v6.899h-1.647l-0.018-6.901c-0.001-0.274-0.179-0.515-0.44-0.597-0.814-0.256-1.405-1.217-1.405-2.287zM2.413 17.988c0-1.242 0.182-2.441 0.52-3.574l0.015 5.721c-0.115 0.053-0.22 0.122-0.314 0.204-0.145-0.762-0.222-1.548-0.222-2.351zM6.628 29.159c0 0.875-0.712 1.586-1.586 1.586s-1.586-0.712-1.586-1.586v-7.861c0-0.014 0.011-0.025 0.025-0.025h3.122c0.014 0 0.025 0.011 0.025 0.025zM7.883 28.342v-3.353c1.372 1.386 3.146 2.373 5.131 2.768l1.501 1.501c0.118 0.118 0.277 0.184 0.444 0.184s0.326-0.066 0.444-0.184l1.503-1.503c2.087-0.415 3.941-1.484 5.338-2.983v3.423c-2.055 1.471-4.57 2.338-7.285 2.338-2.623 0-5.061-0.81-7.076-2.192zM26.672 29.158c0 0.875-0.711 1.586-1.586 1.586s-1.586-0.712-1.586-1.586v-7.861c0-0.014 0.011-0.025 0.025-0.025h3.122c0.014 0 0.025 0.011 0.025 0.025v7.861z"></path>
<path d="M15.342 21.602c0.040-0.029 0.991-0.727 1.915-1.663 1.347-1.364 1.928-2.495 1.775-3.457-0.096-1.261-1.142-2.23-2.406-2.23-0.014 0-0.028 0-0.041 0-0.63 0.011-1.222 0.272-1.656 0.7-0.449-0.413-1.049-0.655-1.679-0.644-1.249 0.021-2.283 1.006-2.368 2.248-0.134 0.97 0.475 2.128 1.81 3.442 0.929 0.914 1.88 1.584 1.92 1.612 0.108 0.076 0.234 0.114 0.36 0.114 0.13 0 0.26-0.040 0.37-0.121zM12.127 16.717c0.003-0.020 0.005-0.041 0.006-0.061 0.034-0.603 0.533-1.083 1.138-1.093 0.006-0 0.013-0 0.019-0 0.469 0 0.899 0.29 1.075 0.725 0.097 0.241 0.333 0.396 0.592 0.392 0.26-0.004 0.49-0.168 0.579-0.412 0.164-0.447 0.594-0.753 1.070-0.761 0.007-0 0.013-0 0.020-0 0.613 0 1.119 0.474 1.156 1.087 0.001 0.024 0.004 0.048 0.009 0.072 0.159 0.888-1.455 2.567-2.826 3.646-1.367-1.037-2.981-2.675-2.838-3.596z"></path>
<path d="M12.914 24.35c-0.146 0-0.293-0.051-0.412-0.154-0.381-0.331-0.722-0.694-1.051-1.044-0.152-0.162-0.31-0.33-0.466-0.489-0.243-0.247-0.24-0.644 0.007-0.888s0.644-0.24 0.888 0.007c0.167 0.169 0.33 0.343 0.487 0.511 0.322 0.343 0.625 0.666 0.959 0.956 0.262 0.227 0.289 0.624 0.062 0.886-0.124 0.143-0.299 0.216-0.474 0.216z"></path>
<path d="M9.634 21.069c-0.161 0-0.321-0.061-0.444-0.184l-0.325-0.325c-0.245-0.245-0.245-0.642-0-0.888s0.642-0.245 0.888-0l0.325 0.325c0.245 0.245 0.245 0.642 0 0.888-0.123 0.123-0.283 0.184-0.444 0.184z"></path>
</svg>
