<!-- Generated by IcoMoon.io -->
<svg version="1.1" xmlns="http://www.w3.org/2000/svg" width="32" height="32" viewBox="0 0 32 32">
<title>table</title>
<path d="M23.109 7.894l0.514 1.445c0.022 0.062 0.066 0.111 0.12 0.136l1.284 0.578c0.181 0.082 0.181 0.371 0 0.452l-1.284 0.578c-0.055 0.025-0.099 0.074-0.12 0.136l-0.514 1.445c-0.073 0.204-0.329 0.204-0.402 0l-0.514-1.445c-0.022-0.062-0.066-0.111-0.12-0.136l-1.284-0.578c-0.181-0.082-0.181-0.371 0-0.452l1.284-0.578c0.055-0.025 0.099-0.074 0.12-0.136l0.514-1.445c0.073-0.204 0.329-0.204 0.402 0z"></path>
<path d="M7.111 3.21l0.381 1.072c0.016 0.046 0.049 0.082 0.089 0.101l0.952 0.429c0.135 0.061 0.135 0.275 0 0.336l-0.952 0.429c-0.041 0.018-0.073 0.055-0.089 0.101l-0.381 1.072c-0.054 0.151-0.244 0.151-0.298 0l-0.381-1.072c-0.016-0.046-0.049-0.082-0.089-0.101l-0.952-0.429c-0.135-0.061-0.135-0.275 0-0.336l0.952-0.429c0.041-0.018 0.073-0.055 0.089-0.101l0.381-1.072c0.054-0.151 0.244-0.151 0.298 0z"></path>
<path d="M15.93 4.595c0.603 0.143 0.976 0.747 0.834 1.35s-0.747 0.976-1.35 0.834c-0.603-0.143-0.976-0.747-0.834-1.35s0.747-0.976 1.35-0.834z"></path>
<path d="M1.674 8.671c0.264 0.043 0.443 0.291 0.4 0.555s-0.291 0.443-0.555 0.4c-0.264-0.043-0.443-0.291-0.4-0.555s0.291-0.443 0.555-0.4z"></path>
<path d="M30.212 2.29l0.381 1.072c0.016 0.046 0.049 0.082 0.089 0.101l0.952 0.429c0.135 0.061 0.135 0.275 0 0.336l-0.952 0.429c-0.041 0.018-0.073 0.055-0.089 0.101l-0.381 1.072c-0.054 0.151-0.244 0.151-0.298 0l-0.381-1.072c-0.016-0.046-0.049-0.082-0.089-0.101l-0.952-0.429c-0.135-0.061-0.135-0.275 0-0.336l0.952-0.429c0.041-0.018 0.073-0.055 0.089-0.101l0.381-1.072c0.054-0.151 0.244-0.151 0.298 0z"></path>
<path d="M29.721 14.388c-1.256 0-2.279 1.022-2.279 2.279v5.080h-2.512c-0.051 0-0.101 0.003-0.151 0.006l-0.201-1.988c-0.128-1.265-1.183-2.22-2.455-2.22h-0.828v-1.17c0-0.693-0.564-1.257-1.257-1.257h-2.068c-0.039-0.248-0.14-0.487-0.301-0.697-0.101-0.132-0.223-0.248-0.359-0.347 0.188-0.391 0.219-0.839 0.085-1.277-0.187-0.614-0.675-1.151-1.337-1.473-0.992-0.482-2.104-0.367-2.774 0.225-0.175-0.044-0.358-0.068-0.547-0.068-1.167 0-2.117 0.892-2.117 1.988 0 0.227 0.041 0.444 0.116 0.647-0.113 0.089-0.214 0.191-0.301 0.304-0.292 0.379-0.391 0.854-0.272 1.303l0.483 1.821h-0.768c-1.272 0-2.327 0.954-2.455 2.22l-0.201 1.988c-0.050-0.004-0.1-0.006-0.151-0.006h-2.512v-5.080c0-1.256-1.022-2.279-2.279-2.279s-2.279 1.022-2.279 2.279v11.582c0 0.868 0.706 1.575 1.575 1.575h6.828c0.285 0 0.525-0.191 0.601-0.451 0.287-0.126 0.561-0.218 1.084-0.218 0.604 0 0.876 0.123 1.22 0.279 0.404 0.183 0.862 0.39 1.736 0.39s1.332-0.207 1.736-0.39c0.344-0.156 0.616-0.279 1.22-0.279s0.876 0.123 1.22 0.279c0.404 0.183 0.862 0.39 1.736 0.39s1.332-0.207 1.736-0.39c0.344-0.156 0.616-0.279 1.22-0.279 0.522 0 0.796 0.092 1.083 0.218 0.076 0.261 0.316 0.451 0.601 0.451h6.788c0.891 0 1.615-0.724 1.615-1.615v-11.542c0-1.256-1.022-2.279-2.279-2.279zM20.043 16.376v1.17h-3.275v-1.17c0-0.003 0.003-0.006 0.006-0.006h3.264c0.003-0 0.006 0.002 0.006 0.006zM15.51 12.451c0.345 0.168 0.602 0.434 0.687 0.713 0.046 0.151 0.035 0.286-0.032 0.402-0.027 0.046-0.064 0.089-0.108 0.127h-1.219c0.009-0.073 0.014-0.146 0.014-0.221 0-0.43-0.146-0.828-0.394-1.154 0.1-0.026 0.21-0.040 0.327-0.040 0.226 0 0.477 0.052 0.725 0.173zM11.871 13.472c0-0.406 0.388-0.737 0.865-0.737s0.865 0.331 0.865 0.737c0 0.077-0.014 0.151-0.040 0.221h-1.553c-0.032 0-0.065 0.001-0.097 0.003-0.026-0.070-0.041-0.146-0.041-0.223zM11.899 17.392l-0.527-1.987c-0.007-0.027-0.029-0.11 0.054-0.219 0.090-0.117 0.29-0.242 0.582-0.242h4.086c0.245 0 0.425 0.088 0.529 0.185-0.622 0.075-1.107 0.605-1.107 1.247v1.17h-3.598c-0-0.051-0.007-0.103-0.020-0.154zM1.251 28.249v-11.582c0-0.567 0.461-1.027 1.028-1.027s1.027 0.461 1.027 1.027v5.706c0 0.346 0.28 0.626 0.626 0.626h3.138c0.008 0 0.017 0.001 0.025 0.001l-0.564 5.573h-4.956c-0.178 0-0.324-0.145-0.324-0.324zM20.177 28.294c-0.192 0.087-0.362 0.164-0.58 0.215l-0.309-5.869c-0.011-0.207-0.186-0.367-0.395-0.355-0.207 0.011-0.366 0.188-0.355 0.395l0.31 5.892c-0.529-0.014-0.789-0.131-1.112-0.277-0.404-0.183-0.862-0.39-1.736-0.39s-1.332 0.207-1.736 0.39c-0.323 0.146-0.582 0.264-1.113 0.277l0.31-5.892c0.011-0.207-0.148-0.384-0.355-0.395s-0.384 0.148-0.395 0.355l-0.309 5.869c-0.218-0.051-0.387-0.128-0.58-0.215-0.404-0.183-0.862-0.39-1.736-0.39s-1.332 0.207-1.736 0.39c-0.188 0.085-0.351 0.159-0.555 0.209l0.871-8.611c0.063-0.624 0.583-1.094 1.21-1.094h12.246c0.627 0 1.147 0.47 1.21 1.094l0.871 8.611c-0.204-0.050-0.367-0.124-0.555-0.209-0.404-0.183-0.862-0.39-1.736-0.39s-1.332 0.207-1.736 0.39zM30.749 28.209c0 0.201-0.163 0.364-0.364 0.364h-4.916l-0.564-5.573c0.008-0 0.017-0.001 0.025-0.001h3.138c0.346 0 0.626-0.28 0.626-0.626v-5.706c0-0.567 0.461-1.027 1.027-1.027s1.027 0.461 1.027 1.027v11.542z"></path>
<path d="M12.371 21.126c-0.343 0-0.623-0.277-0.626-0.621-0.003-0.346 0.276-0.628 0.621-0.63l1.575-0.011c0.002-0 0.003-0 0.005-0 0.343 0 0.623 0.277 0.626 0.621 0.003 0.346-0.276 0.628-0.621 0.63l-1.575 0.011c-0.002 0-0.003 0-0.005 0z"></path>
<path d="M10.649 21.115h-0.202c-0.345 0-0.626-0.28-0.626-0.626s0.28-0.626 0.626-0.626h0.202c0.345 0 0.626 0.28 0.626 0.626s-0.28 0.626-0.626 0.626z"></path>
</svg>
