<!-- Generated by IcoMoon.io -->
<svg version="1.1" xmlns="http://www.w3.org/2000/svg" width="32" height="32" viewBox="0 0 32 32">
<title>viola</title>
<path d="M7.416 5.669l0.514 1.446c0.022 0.062 0.066 0.111 0.121 0.136l1.285 0.579c0.181 0.082 0.181 0.371 0 0.453l-1.285 0.579c-0.055 0.025-0.099 0.074-0.121 0.136l-0.514 1.446c-0.073 0.204-0.33 0.204-0.402 0l-0.514-1.446c-0.022-0.062-0.066-0.111-0.121-0.136l-1.285-0.579c-0.182-0.082-0.182-0.371 0-0.453l1.285-0.579c0.055-0.025 0.099-0.074 0.121-0.136l0.514-1.446c0.073-0.204 0.33-0.204 0.402 0z"></path>
<path d="M1.973 2.099l0.381 1.073c0.016 0.046 0.049 0.082 0.090 0.101l0.953 0.429c0.135 0.061 0.135 0.275 0 0.336l-0.953 0.429c-0.041 0.018-0.073 0.055-0.090 0.101l-0.381 1.073c-0.054 0.152-0.244 0.152-0.298 0l-0.381-1.073c-0.016-0.046-0.049-0.082-0.089-0.101l-0.953-0.429c-0.135-0.061-0.135-0.275 0-0.336l0.953-0.429c0.041-0.018 0.073-0.055 0.089-0.101l0.381-1.073c0.054-0.151 0.244-0.151 0.298 0z"></path>
<path d="M29.446 28.567c0 0.62-0.503 1.123-1.123 1.123s-1.123-0.503-1.123-1.123c0-0.62 0.503-1.123 1.123-1.123s1.123 0.503 1.123 1.123z"></path>
<path d="M6.411 0.727c0.266 0.033 0.455 0.274 0.422 0.54s-0.274 0.455-0.54 0.422c-0.266-0.033-0.455-0.274-0.422-0.54s0.274-0.455 0.54-0.422z"></path>
<path d="M22.859 24.032l0.381 1.073c0.016 0.046 0.049 0.082 0.090 0.101l0.953 0.429c0.135 0.061 0.135 0.275 0 0.336l-0.953 0.429c-0.041 0.018-0.073 0.055-0.090 0.101l-0.381 1.073c-0.054 0.152-0.244 0.152-0.298 0l-0.381-1.073c-0.016-0.046-0.049-0.082-0.090-0.101l-0.953-0.429c-0.135-0.061-0.135-0.275 0-0.336l0.953-0.429c0.041-0.018 0.073-0.055 0.090-0.101l0.381-1.073c0.054-0.152 0.244-0.152 0.298 0z"></path>
<path d="M27.511 7.647c0.558 0 1.116-0.212 1.54-0.637l2.25-2.25c0.412-0.411 0.638-0.958 0.638-1.54s-0.227-1.129-0.638-1.54l-1.043-1.043c-0.849-0.849-2.231-0.849-3.081 0l-2.25 2.25c-0.466 0.466-0.675 1.092-0.63 1.702l-2.95 2.84c-1.763-1.58-3.53-2.874-5.105-3.728-3.172-1.719-4.756-1.196-5.529-0.441l-0.982-0.982c-0.147-0.147-0.385-0.147-0.531 0s-0.147 0.385 0 0.531l5.583 5.583c-1.46 0.273-2.809 0.969-3.894 2.027-0.182 0.178-0.239 0.448-0.143 0.684 0.17 0.42 0.257 0.863 0.257 1.317 0 1.935-1.574 3.509-3.509 3.509-0.989 0-1.937-0.421-2.601-1.154-0.213-0.235-0.569-0.274-0.828-0.089-2.506 1.79-4.003 4.695-4.003 7.771 0 5.262 4.281 9.543 9.543 9.543 3.113 0 6.038-1.525 7.824-4.080 0.19-0.272 0.135-0.646-0.126-0.851-0.854-0.671-1.343-1.677-1.343-2.76 0-1.935 1.574-3.509 3.509-3.509 0.549 0 1.075 0.124 1.565 0.368 0.249 0.124 0.55 0.069 0.739-0.134 0.983-1.060 1.633-2.36 1.896-3.757l5.46 5.46c0.073 0.073 0.169 0.11 0.266 0.11s0.192-0.037 0.266-0.11c0.147-0.147 0.147-0.385 0-0.531l-0.982-0.982c0.755-0.773 1.279-2.357-0.441-5.529-0.892-1.645-2.263-3.499-3.939-5.34l2.673-2.777c0.177 0.045 0.359 0.068 0.541 0.068zM25.813 3.772l2.25-2.25c0.361-0.361 0.949-0.361 1.31 0l1.043 1.043c0.175 0.175 0.271 0.407 0.271 0.655s-0.096 0.48-0.271 0.655l-2.25 2.25c-0.361 0.361-0.948 0.361-1.31 0h0l-1.043-1.043c-0.361-0.361-0.361-0.949 0-1.31zM11.599 4.147c1.21-1.148 4.901 0.639 8.844 4.153l-0.815 0.784c-1.032-0.525-2.199-0.822-3.433-0.822-0.156 0-0.311 0.005-0.465 0.014zM22.085 9.853c0.164 0.164 0.325 0.328 0.484 0.493l-2.34 2.432-1.291-1.291 2.427-2.336c0.24 0.228 0.48 0.462 0.72 0.702zM21.823 12.927c0.339 0.647 0.57 1.359 0.669 2.112l-1.376-1.376zM19.708 13.319l-4.576 4.756-1.49-1.49 4.755-4.577zM18.053 10.601l-1.031-1.031c0.574 0.075 1.124 0.227 1.64 0.445zM2.113 18.913c0.559 0.552 1.439 1.634 1.655 3.132 0.21 1.455-0.24 2.988-1.338 4.564-0.71-1.222-1.117-2.64-1.117-4.151 0-1.241 0.281-2.45 0.799-3.544zM21.14 19.851c-0.533-0.201-1.094-0.303-1.672-0.303-2.625 0-4.761 2.136-4.761 4.761 0 1.263 0.491 2.449 1.364 3.335-1.569 1.953-3.947 3.103-6.467 3.103-1.855 0-3.57-0.613-4.953-1.646l4.077-2.547c0.002-0.001 0.004-0.003 0.006-0.004 0.32-0.205 0.526-0.537 0.567-0.912 0.039-0.364-0.085-0.72-0.341-0.976l-1.683-1.683c-0.256-0.256-0.612-0.381-0.976-0.341-0.375 0.041-0.708 0.247-0.912 0.567-0.001 0.002-0.003 0.004-0.004 0.006l-1.504 2.407c0.594-1.253 0.807-2.488 0.631-3.69-0.273-1.867-1.408-3.137-2.029-3.706 0.494-0.831 1.133-1.579 1.897-2.201 0.86 0.743 1.968 1.161 3.115 1.161 2.625 0 4.761-2.136 4.761-4.761 0-0.468-0.068-0.927-0.201-1.37 1.081-0.932 2.429-1.467 3.858-1.529l1.6 1.601-5.197 5.003c-0.121 0.117-0.19 0.277-0.192 0.445s0.065 0.33 0.183 0.449l2.392 2.392c0.117 0.117 0.277 0.183 0.443 0.183h0.006c0.168-0.002 0.329-0.071 0.445-0.192l5.002-5.198 1.946 1.946c-0.060 1.356-0.549 2.647-1.399 3.701zM3.749 28.189l2.679-4.288 1.608 1.608zM27.135 16.293c1.055 1.947 1.287 3.381 0.656 4.046l-4.007-4.007c0.009-0.154 0.015-0.309 0.015-0.465 0-1.417-0.391-2.745-1.069-3.882l0.697-0.725c1.583 1.745 2.873 3.491 3.708 5.032zM22.971 8.967c-0.233-0.233-0.468-0.462-0.703-0.686l2.54-2.445c0.038 0.045 0.078 0.089 0.12 0.131l0.945 0.945-2.434 2.53c-0.154-0.159-0.31-0.317-0.468-0.475z"></path>
<path d="M9.758 19.847c-0.329-0.328-0.863-0.328-1.191 0l-0.368 0.368c-0.159 0.159-0.247 0.371-0.247 0.596s0.088 0.437 0.247 0.596l2.333 2.333c0.159 0.159 0.371 0.247 0.596 0.247s0.437-0.088 0.596-0.247l0.368-0.368c0.159-0.159 0.247-0.371 0.247-0.596s-0.088-0.437-0.247-0.596zM11.559 22.84l-0.368 0.368c-0.047 0.037-0.082 0.037-0.129 0 0 0 0 0-0 0l-2.333-2.333c-0.037-0.047-0.037-0.082 0-0.129l0.368-0.368c0.036-0.035 0.093-0.035 0.129 0l2.333 2.333c0.037 0.047 0.037 0.082 0 0.129z"></path>
</svg>
