<!-- Generated by IcoMoon.io -->
<svg version="1.1" xmlns="http://www.w3.org/2000/svg" width="32" height="32" viewBox="0 0 32 32">
<title>wedding-car</title>
<path d="M13.835 3.533l0.515 1.449c0.022 0.062 0.066 0.111 0.121 0.136l1.287 0.58c0.182 0.082 0.182 0.372 0 0.454l-1.287 0.58c-0.055 0.025-0.099 0.074-0.121 0.136l-0.515 1.449c-0.073 0.205-0.33 0.205-0.403 0l-0.515-1.449c-0.022-0.062-0.066-0.111-0.121-0.136l-1.287-0.58c-0.182-0.082-0.182-0.372 0-0.454l1.287-0.58c0.055-0.025 0.099-0.074 0.121-0.136l0.515-1.449c0.073-0.205 0.33-0.205 0.403 0z"></path>
<path d="M6.103 7.826l0.382 1.075c0.016 0.046 0.049 0.082 0.090 0.101l0.955 0.43c0.135 0.061 0.135 0.276 0 0.336l-0.955 0.43c-0.041 0.018-0.073 0.055-0.090 0.101l-0.382 1.075c-0.054 0.152-0.245 0.152-0.299 0l-0.382-1.075c-0.016-0.046-0.049-0.082-0.090-0.101l-0.955-0.43c-0.135-0.061-0.135-0.276 0-0.336l0.955-0.43c0.041-0.018 0.073-0.055 0.090-0.101l0.382-1.075c0.054-0.152 0.245-0.152 0.299 0z"></path>
<path d="M20.843 10.145c0 0.621-0.504 1.125-1.125 1.125s-1.125-0.504-1.125-1.125c0-0.621 0.504-1.125 1.125-1.125s1.125 0.504 1.125 1.125z"></path>
<path d="M2.712 6.178c0.266 0.033 0.455 0.275 0.423 0.541s-0.275 0.455-0.541 0.423c-0.266-0.033-0.455-0.275-0.423-0.541s0.275-0.455 0.541-0.423z"></path>
<path d="M31.559 23.156c-0.156-2.049-1.348-3.812-3.052-4.766-0.089-0.681-0.279-1.344-0.565-1.95-0.406-0.862-0.999-1.609-1.716-2.16-0.425-0.327-0.89-0.583-1.381-0.761-0.828-0.3-1.747 0.129-2.048 0.958s0.129 1.747 0.958 2.048c0.182 0.066 0.358 0.164 0.523 0.291 0.269 0.207 0.503 0.487 0.683 0.816h-9.838l-0.313-1.313c-0.002-0.009-0.005-0.018-0.007-0.027-0.208-0.727-0.926-1.235-1.746-1.235h-0.336c-1.848 0-3.352 1.351-3.352 3.012 0 0.034 0.003 0.068 0.008 0.102l0.382 2.321c0.027 0.165 0.117 0.306 0.243 0.4-0.022 0.086-0.041 0.172-0.058 0.26-0.895-0.717-1.711-0.964-2.453-1.187-0.482-0.145-0.948-0.287-1.434-0.555 0.189-0.367 0.234-0.784 0.126-1.185-0.115-0.428-0.389-0.785-0.772-1.006l-1.444-0.834c-0.791-0.457-1.807-0.185-2.264 0.607l-0.392 0.68c-0.221 0.383-0.28 0.83-0.166 1.258s0.389 0.785 0.772 1.006l1.444 0.834c0.255 0.147 0.539 0.223 0.826 0.223 0.144 0 0.289-0.019 0.432-0.057 0.299-0.080 0.564-0.239 0.772-0.458 0.624 0.354 1.204 0.529 1.738 0.69 0.931 0.28 1.738 0.524 2.74 1.645v0.369c-1.595-0.135-2.435 0.244-3.181 0.581-0.549 0.248-0.984 0.444-1.715 0.425-0.083-0.837-0.791-1.493-1.649-1.493h-1.668c-0.914 0-1.657 0.743-1.657 1.657v0.785c0 0.914 0.743 1.657 1.657 1.657h1.668c0.81 0 1.485-0.584 1.629-1.352 0.039 0.001 0.077 0.002 0.115 0.002 0.947 0 1.578-0.285 2.137-0.537 0.616-0.278 1.201-0.543 2.303-0.491v0.144c0 0.802 0.652 1.454 1.454 1.454h0.975c0.382 1.501 1.745 2.614 3.363 2.614 1.641 0 3.019-1.146 3.378-2.679h3.83c0.359 1.533 1.736 2.679 3.378 2.679 1.627 0 2.995-1.126 3.368-2.639 0.087 0.016 0.175 0.026 0.267 0.026h1.026c0.802 0 1.454-0.652 1.454-1.454v-0.355c-0-0.408-0.169-0.777-0.441-1.041zM4.54 19.532c-0.054 0.093-0.141 0.16-0.245 0.188s-0.213 0.014-0.306-0.040l-1.444-0.834c-0.093-0.054-0.16-0.141-0.188-0.245s-0.014-0.212 0.040-0.306l0.392-0.68c0.075-0.129 0.21-0.201 0.349-0.201 0.068 0 0.138 0.017 0.201 0.054l1.444 0.834c0.093 0.054 0.16 0.141 0.188 0.245s0.014 0.212-0.040 0.306zM3.728 25.131c0 0.222-0.181 0.403-0.403 0.403h-1.668c-0.222 0-0.403-0.181-0.403-0.403v-0.785c0-0.222 0.181-0.403 0.403-0.403h1.668c0.222 0 0.403 0.181 0.403 0.403zM30.24 22.743h-0.719c-0.331 0-0.637 0.112-0.882 0.299-0.635-0.827-1.633-1.362-2.753-1.362-0.456 0-0.89 0.089-1.289 0.249v-3.046h0.995c2.311-0 4.238 1.666 4.648 3.859zM24.183 15.344c-0.086-0.031-0.155-0.094-0.194-0.178s-0.043-0.177-0.012-0.263c0.051-0.14 0.183-0.227 0.324-0.227 0.039 0 0.078 0.007 0.117 0.021 0.369 0.134 0.721 0.328 1.044 0.577 0.559 0.43 1.024 1.017 1.345 1.7 0.128 0.272 0.232 0.558 0.312 0.854-0.25-0.066-0.506-0.116-0.767-0.15-0.049-0.14-0.104-0.278-0.167-0.411-0.275-0.584-0.67-1.084-1.142-1.447-0.267-0.205-0.556-0.365-0.859-0.475zM12.722 16.309h0.336c0.25 0 0.478 0.135 0.537 0.316l0.776 3.256-3.457-0.105-0.289-1.757c0.030-0.948 0.959-1.711 2.097-1.711zM10.763 24.553v-0.355c0-0.11 0.089-0.2 0.2-0.2h1.025c0.013 0 0.026 0.001 0.039 0.004-0.084 0.239-0.143 0.491-0.173 0.751h-0.892c-0.11-0-0.2-0.090-0.2-0.2zM15.3 27.366c-1.221 0-2.215-0.994-2.215-2.215s0.994-2.215 2.215-2.215 2.215 0.994 2.215 2.215-0.994 2.215-2.215 2.215zM22.448 24.687h-3.71c-0.228-1.695-1.682-3.006-3.438-3.006-1.058 0-2.006 0.477-2.643 1.226-0.2-0.104-0.428-0.163-0.669-0.163h-0.863v-0.794c0-0.316 0.049-0.62 0.138-0.907 0 0 3.004 0.1 3.062 0.1 0.349 0 0.687-0.129 0.936-0.364 0.274-0.258 0.41-0.615 0.374-0.979-0.003-0.028-0.008-0.056-0.014-0.084l-0.198-0.831h8.421v3.464c-0.746 0.545-1.267 1.381-1.396 2.339zM25.885 27.366c-1.221 0-2.215-0.994-2.215-2.215s0.994-2.215 2.215-2.215 2.215 0.994 2.215 2.215-0.994 2.215-2.215 2.215zM30.746 24.553c0 0.11-0.090 0.2-0.2 0.2h-1.026c-0.11 0-0.2-0.090-0.2-0.2v-0.355c0-0.11 0.090-0.2 0.2-0.2h1.026c0.11 0 0.2 0.090 0.2 0.2z"></path>
<path d="M15.3 23.696c-0.802 0-1.454 0.652-1.454 1.454s0.652 1.454 1.454 1.454c0.802 0 1.454-0.652 1.454-1.454s-0.652-1.454-1.454-1.454zM15.3 25.852c-0.387 0-0.702-0.315-0.702-0.702s0.315-0.702 0.702-0.702 0.702 0.315 0.702 0.702-0.315 0.702-0.702 0.702z"></path>
<path d="M25.885 23.696c-0.802 0-1.454 0.652-1.454 1.454s0.652 1.454 1.454 1.454c0.802 0 1.454-0.652 1.454-1.454s-0.652-1.454-1.454-1.454zM25.885 25.852c-0.387 0-0.702-0.315-0.702-0.702s0.315-0.702 0.702-0.702 0.702 0.315 0.702 0.702-0.315 0.702-0.702 0.702z"></path>
<path d="M19.948 20.068h-1.352c-0.208 0-0.376 0.169-0.376 0.376s0.169 0.376 0.376 0.376h1.352c0.208 0 0.376-0.169 0.376-0.376s-0.169-0.376-0.376-0.376z"></path>
</svg>
