<!-- Generated by IcoMoon.io -->
<svg version="1.1" xmlns="http://www.w3.org/2000/svg" width="32" height="32" viewBox="0 0 32 32">
<title>backpack</title>
<path fill="#b2f0fb" d="M9.39 16.794v7.135c0 0.594 0.482 1.076 1.076 1.076h11.069c0.594 0 1.076-0.482 1.076-1.076v-7.135z"></path>
<path fill="#b2f0fb" d="M22.61 14.153h-13.221c0-1.852 1.502-3.354 3.354-3.354h6.513c1.852 0 3.354 1.502 3.354 3.354z"></path>
<path fill="#020288" d="M28.657 17.403h-1.991v-3.692c0-1.855-0.437-3.616-1.255-5.131v-7.955c0-0.345-0.28-0.625-0.625-0.625h-3.654c-0.345 0-0.625 0.28-0.625 0.625v3.686c-0.439-0.157-0.894-0.281-1.36-0.369-0.238-1.523-1.559-2.692-3.148-2.692s-2.909 1.169-3.148 2.692c-0.466 0.089-0.92 0.212-1.36 0.369v-3.686c0-0.345-0.28-0.625-0.625-0.625h-3.654c-0.345 0-0.625 0.28-0.625 0.625v7.955c-0.818 1.515-1.255 3.276-1.255 5.131v3.692h-1.991c-0.345 0-0.625 0.28-0.625 0.625v9.796c0 0.345 0.28 0.625 0.625 0.625h1.991v1.441c0 1.163 0.947 2.11 2.11 2.11h17.112c1.163 0 2.11-0.947 2.11-2.11v-1.441h1.991c0.345 0 0.625-0.28 0.625-0.625v-9.796c0-0.345-0.28-0.625-0.625-0.625zM21.757 1.25h2.404v5.537c-0.024-0.027-0.048-0.054-0.072-0.081-0.68-0.75-1.467-1.366-2.332-1.836v-3.62zM16 2.5c0.84 0 1.556 0.537 1.823 1.286-0.156-0.007-0.312-0.011-0.469-0.011h-2.708c-0.157 0-0.314 0.004-0.469 0.011 0.268-0.749 0.984-1.286 1.823-1.286zM7.839 1.25h2.404v3.62c-0.865 0.471-1.652 1.087-2.332 1.836-0.024 0.027-0.048 0.054-0.072 0.081v-5.537zM6.584 13.711c0-4.952 3.466-8.687 8.062-8.687h2.708c4.596 0 8.062 3.734 8.062 8.687v13.488h-18.832zM3.968 18.653h1.366v8.546h-1.366zM24.556 30.75h-17.112c-0.474 0-0.86-0.386-0.86-0.86v-1.441h18.832v1.441c0 0.474-0.386 0.86-0.86 0.86zM28.032 27.199h-1.366v-8.546h1.366z"></path>
</svg>
