<!-- Generated by IcoMoon.io -->
<svg version="1.1" xmlns="http://www.w3.org/2000/svg" width="32" height="32" viewBox="0 0 32 32">
<title>box1</title>
<path fill="#020288" d="M27.695 17.88l-0.95-3.57c-0-0.001-0-0.002-0.001-0.004-0.054-0.226-0.232-0.401-0.458-0.453-0.014-0.003-0.023-0.005-0.028-0.006l-8.164-1.803c-0.209 0.098-0.306 0.149-0.527 0.223-0.367 0.124-0.722 0.418-0.943 0.734l6.634 1.464-7.259 1.625-7.268-1.627 6.793-1.51c-0.219-0.315-0.657-0.677-1.021-0.8-0.223-0.075 0.004-0.091-0.207-0.189l-8.559 1.884c-0.23 0.046-0.415 0.217-0.478 0.443-0.003 0.010-0.005 0.017-0.005 0.019l-0.95 3.57c-0.024 0.091-0.032 0.186-0.016 0.278 0.045 0.256 0.236 0.448 0.474 0.504l0.473 0.111v10.332c0 0.293 0.203 0.546 0.488 0.61l10.139 2.27c0.045 0.010 0.091 0.015 0.137 0.015s0.092-0.005 0.137-0.015l10.139-2.27c0.285-0.064 0.488-0.317 0.488-0.61v-10.332l0.473-0.111c0.238-0.056 0.429-0.247 0.474-0.504 0.016-0.092 0.008-0.187-0.016-0.278zM25.689 15.202l0.636 2.39-8.531 2-0.945-2.41zM5.675 17.592l0.636-2.39 8.841 1.979-0.946 2.41zM25.514 28.605l-8.889 1.99v-7.301c0-0.345-0.28-0.625-0.625-0.625s-0.625 0.28-0.625 0.625v7.301l-8.889-1.99v-9.539l7.962 1.866c0.048 0.011 0.096 0.017 0.143 0.017 0.252 0 0.486-0.153 0.582-0.397l0.828-2.11 0.828 2.11c0.096 0.244 0.329 0.397 0.582 0.397 0.047 0 0.095-0.005 0.143-0.017l7.962-1.866z"></path>
<path fill="#ffbdbc" d="M16.027 0c-3.521-0.015-6.4 2.853-6.4 6.374 0 2.807 1.814 5.19 4.333 6.040 0.384 0.13 0.715 0.383 0.935 0.724l1.105 1.716 1.105-1.716c0.221-0.343 0.555-0.596 0.941-0.727 2.516-0.853 4.327-3.234 4.327-6.038-0-3.511-2.839-6.359-6.346-6.374zM16 9.016c-1.401 0-2.536-1.135-2.536-2.536s1.135-2.536 2.536-2.536 2.536 1.135 2.536 2.536-1.135 2.536-2.536 2.536z"></path>
<path fill="#020288" d="M16 9.641c-1.743 0-3.161-1.418-3.161-3.161s1.418-3.161 3.161-3.161 3.161 1.418 3.161 3.161-1.418 3.161-3.161 3.161zM16 4.569c-1.054 0-1.911 0.857-1.911 1.911s0.857 1.911 1.911 1.911 1.911-0.857 1.911-1.911c0-1.054-0.857-1.911-1.911-1.911z"></path>
</svg>
