<!-- Generated by IcoMoon.io -->
<svg version="1.1" xmlns="http://www.w3.org/2000/svg" width="32" height="32" viewBox="0 0 32 32">
<title>calculator</title>
<path fill="#a4fcc4" d="M7.911 4.403h16.178v6.354h-16.178z"></path>
<path fill="#020288" d="M24.943 0h-17.886c-1.443 0-2.617 1.174-2.617 2.617v26.765c0 1.443 1.174 2.617 2.617 2.617h17.886c1.443 0 2.617-1.174 2.617-2.617v-26.765c0-1.443-1.174-2.617-2.617-2.617zM26.311 29.383c0 0.754-0.613 1.367-1.367 1.367h-17.886c-0.754 0-1.367-0.613-1.367-1.367v-26.765c0-0.754 0.613-1.367 1.367-1.367h17.886c0.754 0 1.367 0.613 1.367 1.367z"></path>
<path fill="#020288" d="M23.513 13.621h-15.026c-0.345 0-0.625 0.28-0.625 0.625v13.285c0 0.345 0.28 0.625 0.625 0.625h15.026c0.345 0 0.625-0.28 0.625-0.625v-13.285c0-0.345-0.28-0.625-0.625-0.625zM9.112 19.3h3.759v3.178h-3.759zM14.121 19.3h3.759v3.178h-3.759zM17.879 18.050h-3.759v-3.178h3.759zM9.112 14.871h3.759v3.178h-3.759zM9.112 23.728h3.759v3.178h-3.759zM14.121 23.728h3.759v3.178h-3.759zM22.888 26.907h-3.759v-12.035h3.759z"></path>
<path fill="#020288" d="M20.769 20.384h0.48c0.345 0 0.625-0.28 0.625-0.625s-0.28-0.625-0.625-0.625h-0.48c-0.345 0-0.625 0.28-0.625 0.625s0.28 0.625 0.625 0.625z"></path>
<path fill="#020288" d="M20.769 22.644h0.48c0.345 0 0.625-0.28 0.625-0.625s-0.28-0.625-0.625-0.625h-0.48c-0.345 0-0.625 0.28-0.625 0.625s0.28 0.625 0.625 0.625z"></path>
</svg>
