<!-- Generated by IcoMoon.io -->
<svg version="1.1" xmlns="http://www.w3.org/2000/svg" width="32" height="32" viewBox="0 0 32 32">
<title>chat</title>
<path fill="#020288" d="M20.894 24.329c-1.173 0-2.328-0.182-3.433-0.541-0.328-0.107-0.508-0.459-0.401-0.788s0.459-0.508 0.788-0.401c0.981 0.318 2.006 0.48 3.047 0.48 1.801 0 3.563-0.49 5.095-1.417 0.124-0.075 0.27-0.105 0.414-0.084l3.006 0.438-0.481-2.765c-0.028-0.161 0.008-0.326 0.1-0.461 1.126-1.642 1.722-3.567 1.722-5.566 0-5.433-4.422-9.854-9.856-9.854-4.968 0-9.173 3.711-9.781 8.632-0.042 0.343-0.355 0.585-0.697 0.544s-0.586-0.354-0.544-0.697c0.686-5.546 5.424-9.728 11.022-9.728 6.124 0 11.106 4.981 11.106 11.104 0 2.167-0.621 4.256-1.798 6.059l0.586 3.368c0.034 0.197-0.028 0.399-0.168 0.543s-0.34 0.212-0.538 0.183l-3.642-0.53c-1.681 0.97-3.593 1.482-5.546 1.482z"></path>
<path fill="#fff59b" d="M9.37 11.143c-5.175 0-9.37 4.194-9.37 9.368 0 1.964 0.604 3.786 1.637 5.292l-0.562 3.231 3.451-0.503c1.413 0.855 3.071 1.347 4.844 1.347 5.175 0 9.37-4.194 9.37-9.368s-4.195-9.368-9.37-9.368z"></path>
<path fill="#020288" d="M7.697 25.798c-0.080 0-0.162-0.016-0.241-0.049-0.318-0.133-0.468-0.5-0.335-0.818l3.457-8.252c0.133-0.318 0.5-0.468 0.818-0.335s0.468 0.5 0.335 0.818l-3.457 8.252c-0.1 0.239-0.332 0.384-0.577 0.384z"></path>
<path fill="#020288" d="M7.036 20.718c-1.187 0-2.152-1.078-2.152-2.403s0.966-2.403 2.152-2.403 2.152 1.078 2.152 2.403c0 1.325-0.966 2.403-2.152 2.403zM7.036 17.161c-0.498 0-0.902 0.517-0.902 1.153s0.405 1.153 0.902 1.153 0.902-0.517 0.902-1.153c0-0.636-0.405-1.153-0.902-1.153z"></path>
<path fill="#020288" d="M11.705 26.36c-1.187 0-2.152-1.078-2.152-2.403s0.966-2.403 2.152-2.403c1.187 0 2.152 1.078 2.152 2.403s-0.966 2.403-2.152 2.403zM11.705 22.803c-0.498 0-0.902 0.517-0.902 1.153s0.405 1.153 0.902 1.153c0.498 0 0.902-0.517 0.902-1.153s-0.405-1.153-0.902-1.153z"></path>
</svg>
