<!-- Generated by IcoMoon.io -->
<svg version="1.1" xmlns="http://www.w3.org/2000/svg" width="32" height="32" viewBox="0 0 32 32">
<title>closed</title>
<path fill="#e2c4ff" d="M28.459 12.565v14.050h-24.919v-14.050z"></path>
<path fill="#020288" d="M29.501 8.895h-27.002c-1.378 0-2.499 1.121-2.499 2.499v16.392c0 1.378 1.121 2.499 2.499 2.499h27.001c1.378 0 2.499-1.121 2.499-2.499v-16.392c0-1.378-1.121-2.499-2.499-2.499zM30.75 27.786c0 0.689-0.56 1.249-1.249 1.249h-27.002c-0.689 0-1.249-0.56-1.249-1.249v-16.392c0-0.689 0.56-1.249 1.249-1.249h27.001c0.689 0 1.249 0.56 1.249 1.249v16.392z"></path>
<path fill="#020288" d="M10.444 7.896c0.148 0 0.296-0.052 0.415-0.158l5.142-4.563 5.142 4.563c0.258 0.229 0.653 0.206 0.882-0.053s0.206-0.653-0.053-0.882l-5.557-4.932c-0.237-0.21-0.593-0.21-0.83 0l-5.557 4.932c-0.258 0.229-0.282 0.624-0.053 0.882 0.123 0.139 0.295 0.21 0.468 0.21z"></path>
<path fill="#020288" d="M11.324 20.972c-0.237 0.001-0.486 0.002-0.702 0.003v-3.175c0-0.345-0.28-0.625-0.625-0.625s-0.625 0.28-0.625 0.625v3.215c-0.013-0.161-0.088-0.317-0.221-0.429-0.265-0.222-0.659-0.187-0.88 0.077-0.028 0.034-0.059 0.066-0.091 0.094-0.163 0.145-0.374 0.219-0.627 0.219-0.703 0-1.275-0.572-1.275-1.275s0.572-1.275 1.275-1.275c0.256 0 0.502 0.075 0.713 0.217 0.286 0.193 0.675 0.118 0.868-0.168s0.118-0.675-0.168-0.868c-0.418-0.282-0.906-0.432-1.412-0.432-1.393 0-2.525 1.133-2.525 2.525s1.133 2.525 2.525 2.525c0.561 0 1.065-0.185 1.459-0.536 0.077-0.069 0.15-0.144 0.217-0.224 0.087-0.103 0.134-0.226 0.144-0.351v0.483c0 0.304 0.219 0.565 0.519 0.616 0.045 0.008 0.073 0.012 0.504 0.012 0.205 0 0.502-0.001 0.936-0.003 0.345-0.002 0.623-0.283 0.621-0.628s-0.28-0.624-0.629-0.621z"></path>
<path fill="#020288" d="M22.225 18.459c0.345 0 0.625-0.28 0.625-0.625s-0.28-0.625-0.625-0.625h-1.587c-0.345 0-0.625 0.28-0.625 0.625v3.766c0 0.345 0.28 0.625 0.625 0.625h1.587c0.345 0 0.625-0.28 0.625-0.625s-0.28-0.625-0.625-0.625h-0.962v-0.633h0.845c0.345 0 0.625-0.28 0.625-0.625s-0.28-0.625-0.625-0.625h-0.845v-0.633z"></path>
<path fill="#020288" d="M24.86 17.287h-1.045c-0.166 0-0.325 0.066-0.442 0.183s-0.183 0.277-0.183 0.443c0 0 0.003 1.419 0.003 1.839 0 0.513 0.005 1.851 0.005 1.851 0.001 0.166 0.067 0.325 0.185 0.441s0.275 0.181 0.44 0.181h0.002c0.032-0 0.777-0.003 1.076-0.008 1.201-0.021 2.073-1.056 2.073-2.461 0-1.477-0.85-2.469-2.114-2.469zM24.879 20.967c-0.103 0.002-0.266 0.003-0.434 0.005-0.001-0.418-0.003-0.941-0.003-1.22 0-0.234-0.001-0.779-0.002-1.215h0.419c0.802 0 0.864 0.933 0.864 1.219 0 0.596-0.261 1.201-0.845 1.211z"></path>
<path fill="#020288" d="M18.692 19.143c-0.44-0.162-0.851-0.338-1.004-0.405-0.024-0.025-0.033-0.058-0.027-0.099 0.012-0.082 0.084-0.148 0.197-0.182 0.462-0.139 0.904 0.211 0.909 0.215l0.046 0.023c0.248 0.124 0.549 0.062 0.727-0.15 0.235-0.28 0.167-0.703-0.143-0.895-0.557-0.345-1.249-0.585-1.899-0.39-0.581 0.175-0.993 0.636-1.074 1.202-0.077 0.535 0.155 1.049 0.605 1.343 0.028 0.018 0.057 0.034 0.087 0.047 0.022 0.010 0.55 0.245 1.144 0.464 0.201 0.074 0.428 0.211 0.403 0.351-0.022 0.124-0.202 0.309-0.516 0.309-0.329 0-0.645-0.128-0.849-0.344-0.229-0.243-0.608-0.291-0.868-0.081-0.282 0.228-0.311 0.642-0.071 0.907 0.443 0.488 1.094 0.769 1.788 0.769 0.874 0 1.608-0.563 1.747-1.339 0.105-0.59-0.155-1.357-1.201-1.743z"></path>
<path fill="#020288" d="M13.905 17.174c-1.393 0-2.525 1.133-2.525 2.525s1.133 2.525 2.525 2.525 2.525-1.133 2.525-2.525-1.133-2.525-2.525-2.525zM13.905 20.975c-0.703 0-1.275-0.572-1.275-1.275s0.572-1.275 1.275-1.275c0.703 0 1.275 0.572 1.275 1.275s-0.572 1.275-1.275 1.275z"></path>
</svg>
