<!-- Generated by IcoMoon.io -->
<svg version="1.1" xmlns="http://www.w3.org/2000/svg" width="32" height="32" viewBox="0 0 32 32">
<title>coin</title>
<path fill="#fff59b" d="M16 0c-8.837 0-16 7.163-16 16s7.163 16 16 16 16-7.163 16-16-7.163-16-16-16zM16 27.052c-6.094 0-11.052-4.958-11.052-11.052s4.958-11.052 11.052-11.052 11.052 4.958 11.052 11.052-4.958 11.052-11.052 11.052z"></path>
<path fill="#020288" d="M29.258 15.375h-1.597c-0.146-2.75-1.247-5.25-2.977-7.174l1.133-1.133c0.244-0.244 0.244-0.64 0-0.884s-0.64-0.244-0.884 0l-1.133 1.133c-1.924-1.73-4.425-2.831-7.174-2.977v-1.597c0-0.345-0.28-0.625-0.625-0.625s-0.625 0.28-0.625 0.625v1.597c-2.75 0.146-5.25 1.247-7.174 2.977l-1.133-1.133c-0.244-0.244-0.64-0.244-0.884 0s-0.244 0.64 0 0.884l1.133 1.133c-1.73 1.924-2.831 4.425-2.977 7.174h-1.597c-0.345 0-0.625 0.28-0.625 0.625s0.28 0.625 0.625 0.625h1.597c0.146 2.75 1.247 5.25 2.977 7.174l-1.133 1.133c-0.244 0.244-0.244 0.64 0 0.884 0.122 0.122 0.282 0.183 0.442 0.183s0.32-0.061 0.442-0.183l1.133-1.133c1.924 1.73 4.425 2.831 7.174 2.977v1.597c0 0.345 0.28 0.625 0.625 0.625s0.625-0.28 0.625-0.625v-1.597c2.75-0.146 5.25-1.247 7.174-2.977l1.133 1.133c0.122 0.122 0.282 0.183 0.442 0.183s0.32-0.061 0.442-0.183c0.244-0.244 0.244-0.64 0-0.884l-1.133-1.133c1.73-1.924 2.831-4.425 2.977-7.174h1.597c0.345 0 0.625-0.28 0.625-0.625s-0.28-0.625-0.625-0.625zM16 26.427c-5.749 0-10.427-4.677-10.427-10.427s4.677-10.427 10.427-10.427 10.427 4.677 10.427 10.427-4.677 10.427-10.427 10.427z"></path>
<path fill="#020288" d="M17.002 15.564c-0.153-0.054-0.296-0.105-0.43-0.154v-2.601c0.4 0.088 0.676 0.28 0.802 0.46 0.198 0.283 0.588 0.351 0.871 0.153s0.351-0.588 0.153-0.871c-0.346-0.493-0.987-0.902-1.825-1.013v-0.254c0-0.345-0.28-0.625-0.625-0.625s-0.625 0.28-0.625 0.625v0.305c-0.138 0.028-0.279 0.063-0.423 0.106-0.883 0.266-1.55 1.126-1.622 2.090-0.070 0.949 0.437 1.774 1.356 2.208 0.147 0.069 0.384 0.167 0.689 0.285v3.071c-0.457-0.113-0.889-0.326-1.16-0.662-0.216-0.269-0.61-0.311-0.879-0.095s-0.311 0.61-0.095 0.879c0.541 0.672 1.353 1.019 2.133 1.155v0.199c0 0.345 0.28 0.625 0.625 0.625s0.625-0.28 0.625-0.625v-0.15c1.64-0.168 2.35-1.206 2.468-2.13 0.162-1.274-0.676-2.499-2.038-2.981zM15.166 14.863c-0.572-0.27-0.665-0.684-0.643-0.985 0.034-0.453 0.343-0.867 0.736-0.986 0.021-0.006 0.042-0.012 0.063-0.018v2.058c-0.066-0.028-0.118-0.051-0.156-0.069zM17.8 18.388c-0.070 0.552-0.514 0.921-1.228 1.028v-2.678c0.004 0.002 0.009 0.003 0.013 0.005 0.936 0.331 1.286 1.085 1.215 1.645z"></path>
</svg>
