<!-- Generated by IcoMoon.io -->
<svg version="1.1" xmlns="http://www.w3.org/2000/svg" width="32" height="32" viewBox="0 0 32 32">
<title>hanger</title>
<path fill="#b2f0fb" d="M7.573 18.201h16.855v3.093h-16.855z"></path>
<path fill="#b2f0fb" d="M7.573 24.775h16.855v3.093h-16.855z"></path>
<path fill="#020288" d="M27.572 10.764l-10.947-4.512v-1.616c0-0.345-0.28-0.625-0.625-0.625-0.761 0-1.38-0.619-1.38-1.381s0.619-1.381 1.38-1.381 1.38 0.619 1.38 1.381c0 0.345 0.28 0.625 0.625 0.625s0.625-0.28 0.625-0.625c0-1.45-1.18-2.631-2.63-2.631s-2.63 1.18-2.63 2.631c0 1.235 0.856 2.274 2.005 2.556v1.066l-10.947 4.512c-0.234 0.097-0.387 0.325-0.387 0.578v3.439c0 0.345 0.28 0.625 0.625 0.625h2.282v15.969c0 0.345 0.28 0.625 0.625 0.625h16.855c0.345 0 0.625-0.28 0.625-0.625v-15.969h2.282c0.345 0 0.625-0.28 0.625-0.625v-3.439c0-0.253-0.153-0.481-0.387-0.578zM23.802 30.75h-15.605v-17.51h15.605v17.51zM26.709 14.156h-1.657v-1.541c0-0.345-0.28-0.625-0.625-0.625h-16.855c-0.345 0-0.625 0.28-0.625 0.625v1.541h-1.657v-2.396l10.709-4.414 10.709 4.414z"></path>
</svg>
