<!-- Generated by IcoMoon.io -->
<svg version="1.1" xmlns="http://www.w3.org/2000/svg" width="32" height="32" viewBox="0 0 32 32">
<title>mobile-phone</title>
<path fill="#fff59b" d="M12.078 17.983h8.843l1.688-5.648h-11.328z"></path>
<path fill="#020288" d="M21.15 20.411c0-0.345-0.28-0.625-0.625-0.625h-7.698l-1.221-9.462c-0.040-0.312-0.306-0.545-0.62-0.545h-2.349c-0.345 0-0.625 0.28-0.625 0.625s0.28 0.625 0.625 0.625h1.8l1.221 9.462c0.024 0.186 0.128 0.344 0.275 0.441-0.131 0.268-0.204 0.57-0.204 0.888 0 1.121 0.911 2.033 2.031 2.033s2.031-0.912 2.031-2.033c0-0.278-0.056-0.543-0.157-0.784h1.895c-0.101 0.241-0.157 0.506-0.157 0.783 0 1.121 0.911 2.033 2.031 2.033s2.031-0.912 2.031-2.033c0-0.42-0.128-0.81-0.346-1.134 0.040-0.083 0.063-0.175 0.063-0.274zM13.759 22.604c-0.431 0-0.781-0.351-0.781-0.783s0.35-0.783 0.781-0.783 0.781 0.351 0.781 0.783c0 0.432-0.35 0.783-0.781 0.783zM19.402 22.603c-0.431 0-0.781-0.351-0.781-0.783s0.35-0.783 0.781-0.783 0.781 0.351 0.781 0.783c0 0.432-0.35 0.783-0.781 0.783z"></path>
<path fill="#020288" d="M23.52 0h-15.040c-1.664 0-3.018 1.349-3.018 3.006v25.982c0 1.661 1.351 3.012 3.012 3.012h15.052c1.661 0 3.012-1.351 3.012-3.012v-25.982c-0-1.658-1.354-3.006-3.018-3.006zM6.712 3.006c0-0.969 0.793-1.756 1.768-1.756h15.040c0.975 0 1.768 0.788 1.768 1.756v22.754h-18.576zM25.288 28.988c0 0.972-0.79 1.762-1.762 1.762h-15.052c-0.972 0-1.762-0.79-1.762-1.762v-1.977h18.576z"></path>
<path fill="#020288" d="M15.583 29.505h0.833c0.345 0 0.625-0.28 0.625-0.625s-0.28-0.625-0.625-0.625h-0.833c-0.345 0-0.625 0.28-0.625 0.625s0.28 0.625 0.625 0.625z"></path>
<path fill="#020288" d="M13.032 3.722h5.936c0.345 0 0.625-0.28 0.625-0.625s-0.28-0.625-0.625-0.625h-5.936c-0.345 0-0.625 0.28-0.625 0.625s0.28 0.625 0.625 0.625z"></path>
</svg>
