<!-- Generated by IcoMoon.io -->
<svg version="1.1" xmlns="http://www.w3.org/2000/svg" width="32" height="32" viewBox="0 0 32 32">
<title>money</title>
<path fill="#a4fcc4" d="M31.109 5.624l-0.73-0.191c-0.337-0.088-0.602-0.354-0.689-0.692l-0.19-0.732h-16.601l-0.189 0.734c-0.043 0.166-0.127 0.313-0.251 0.438s-0.27 0.209-0.435 0.251l-0.733 0.19 0.002 8.294 0.73 0.191c0.337 0.088 0.601 0.354 0.69 0.692l0.19 0.732h16.601l0.189-0.734c0.043-0.166 0.127-0.313 0.251-0.438s0.27-0.209 0.435-0.251l0.733-0.19z"></path>
<path fill="#020288" d="M31.277 18.59c-0.479-0.497-1.122-0.777-1.811-0.788-0.69-0.010-1.341 0.247-1.841 0.732l-3.644 3.609c-0.552-1.757-2.192-3.035-4.123-3.035h-3.191c-0.66-1.117-1.869-1.819-3.182-1.819-1.768 0-3.255 1.244-3.615 2.924h-0.858v-0.328c0-0.345-0.28-0.625-0.625-0.625h-7.762c-0.345 0-0.625 0.28-0.625 0.625v6.192c0 0.345 0.28 0.625 0.625 0.625h7.762c0.345 0 0.625-0.28 0.625-0.625v-0.328h1.198c0.676 1.357 2.077 2.242 3.613 2.242h10.512c0.673 0 1.31-0.259 1.797-0.732l5.084-5.014c1.020-0.991 1.047-2.631 0.060-3.655zM7.762 25.452h-6.512v-4.942h6.512zM30.342 21.351l-5.084 5.014c-0.249 0.242-0.577 0.375-0.923 0.375h-10.512c-1.163 0-2.214-0.736-2.616-1.832-0.090-0.246-0.325-0.41-0.587-0.41h-1.609v-3.036h1.404c0.333 0 0.607-0.261 0.624-0.593 0.067-1.307 1.14-2.331 2.444-2.331 0.961 0 1.837 0.569 2.233 1.45 0.101 0.225 0.324 0.369 0.57 0.369h3.57c1.481 0 2.72 1.058 3.009 2.461h-6.309c-0.345 0-0.625 0.28-0.625 0.625s0.28 0.625 0.625 0.625h6.997c0.154 0 0.295-0.056 0.404-0.148 0.001-0.001 0.002-0.002 0.003-0.002 0.002-0.002 0.005-0.004 0.007-0.006s0.004-0.003 0.006-0.005c0.001-0.001 0.002-0.002 0.004-0.003 0.003-0.003 0.005-0.005 0.008-0.008 0-0 0-0 0-0 0.003-0.003 0.006-0.006 0.009-0.008l4.506-4.462c0.255-0.248 0.593-0.379 0.945-0.375 0.354 0.006 0.685 0.15 0.932 0.406v0c0.511 0.53 0.497 1.378-0.035 1.894z"></path>
<path fill="#020288" d="M19.956 11.58c-0.217-0.269-0.61-0.311-0.879-0.095s-0.311 0.61-0.095 0.879c0.39 0.484 0.957 0.752 1.515 0.874v0.006c0 0.345 0.28 0.625 0.625 0.625 0.332 0 0.603-0.258 0.624-0.585 0.988-0.155 1.685-0.798 1.797-1.679 0.128-1.007-0.528-1.974-1.596-2.352-0.069-0.024-0.136-0.048-0.2-0.071v-1.546c0.131 0.057 0.224 0.132 0.275 0.204 0.198 0.283 0.588 0.351 0.871 0.153s0.351-0.588 0.153-0.871c-0.255-0.364-0.709-0.67-1.298-0.784v-0.041c0-0.345-0.28-0.625-0.625-0.625s-0.625 0.28-0.625 0.625v0.086c-0.062 0.015-0.124 0.032-0.187 0.051-0.709 0.214-1.244 0.901-1.301 1.672-0.057 0.764 0.349 1.427 1.084 1.774 0.091 0.043 0.23 0.101 0.404 0.17v1.892c-0.216-0.079-0.41-0.198-0.542-0.361zM22.303 11.447c-0.034 0.269-0.232 0.465-0.555 0.559v-1.479c0.43 0.235 0.593 0.623 0.555 0.92zM20.256 8.198c0.014-0.185 0.109-0.362 0.242-0.472v0.949c-0.175-0.12-0.256-0.28-0.242-0.477z"></path>
</svg>
