<!-- Generated by IcoMoon.io -->
<svg version="1.1" xmlns="http://www.w3.org/2000/svg" width="32" height="32" viewBox="0 0 32 32">
<title>open</title>
<path fill="#b2f0fb" d="M28.459 12.565v14.050h-24.919v-14.050z"></path>
<path fill="#020288" d="M29.501 8.894h-27.002c-1.378 0-2.499 1.121-2.499 2.499v16.392c0 1.378 1.121 2.499 2.499 2.499h27.001c1.378 0 2.499-1.121 2.499-2.499v-16.392c0-1.378-1.121-2.499-2.499-2.499zM30.75 27.786c0 0.689-0.56 1.249-1.249 1.249h-27.002c-0.689 0-1.249-0.56-1.249-1.249v-16.392c0-0.689 0.56-1.249 1.249-1.249h27.001c0.689 0 1.249 0.56 1.249 1.249v16.392z"></path>
<path fill="#020288" d="M10.858 7.739l5.142-4.563 5.142 4.563c0.119 0.106 0.267 0.158 0.415 0.158 0.172 0 0.344-0.071 0.468-0.21 0.229-0.258 0.206-0.653-0.053-0.882l-5.557-4.932c-0.237-0.21-0.593-0.21-0.83 0l-5.557 4.932c-0.258 0.229-0.282 0.624-0.053 0.882s0.624 0.282 0.882 0.053z"></path>
<path fill="#020288" d="M23.425 17.085c-0.345 0.003-0.622 0.286-0.619 0.631l0.017 1.784-1.475-2.138c-0.155-0.225-0.439-0.323-0.7-0.242s-0.439 0.323-0.439 0.597v3.753c0 0.345 0.28 0.625 0.625 0.625s0.625-0.28 0.625-0.625v-1.746l1.396 2.023c0.175 0.253 0.48 0.364 0.761 0.276 0.289-0.090 0.476-0.357 0.476-0.686l-0.035-3.633c-0.003-0.345-0.286-0.621-0.631-0.619z"></path>
<path fill="#020288" d="M19.040 18.369c0.345 0 0.625-0.28 0.625-0.625s-0.28-0.625-0.625-0.625h-1.568c-0.345 0-0.625 0.28-0.625 0.625v3.726c0 0.345 0.28 0.625 0.625 0.625h1.568c0.345 0 0.625-0.28 0.625-0.625s-0.28-0.625-0.625-0.625h-0.943v-0.613h0.828c0.345 0 0.625-0.28 0.625-0.625s-0.28-0.625-0.625-0.625h-0.828v-0.613z"></path>
<path fill="#020288" d="M14.882 17.085h-1.046c-0.005 0-0.011 0-0.016 0s-0.010 0-0.015 0.001c-0 0-0 0-0 0-0.155 0.008-0.295 0.072-0.4 0.172-0.001 0-0.001 0.001-0.002 0.002-0.003 0.003-0.006 0.006-0.009 0.009-0 0-0 0-0 0s-0.002 0.002-0.002 0.002-0.005 0.006-0.008 0.008c-0.001 0.001-0.002 0.002-0.003 0.003-0.003 0.003-0.005 0.006-0.008 0.008-0.001 0.001-0.001 0.001-0.002 0.002-0.003 0.003-0.006 0.006-0.009 0.010-0 0-0.001 0.001-0.001 0.001-0.003 0.003-0.006 0.007-0.009 0.011-0 0-0 0.001-0.001 0.001-0.079 0.097-0.129 0.218-0.139 0.35-0 0.001-0 0.002-0 0.002-0 0.004-0.001 0.008-0.001 0.013-0 0.002-0 0.004-0 0.006s-0 0.006-0 0.009c-0 0.003-0 0.006-0 0.009 0 0.002-0 0.004-0 0.005v3.76c0 0.345 0.28 0.625 0.625 0.625s0.625-0.28 0.625-0.625v-1.012c0.162-0.001 0.319-0.001 0.421-0.001 0.941 0 1.706-0.756 1.706-1.686s-0.765-1.686-1.706-1.686zM14.882 19.207c-0.101 0-0.256 0.001-0.417 0.001-0.001-0.168-0.001-0.333-0.001-0.437 0-0.090-0-0.259-0.001-0.436h0.419c0.247 0 0.456 0.2 0.456 0.436s-0.209 0.436-0.456 0.436z"></path>
<path fill="#020288" d="M10.412 17.085c-1.38 0-2.503 1.124-2.503 2.505s1.123 2.505 2.503 2.505 2.503-1.124 2.503-2.505-1.123-2.505-2.503-2.505zM10.412 20.845c-0.691 0-1.253-0.563-1.253-1.255s0.562-1.255 1.253-1.255 1.253 0.563 1.253 1.255-0.562 1.255-1.253 1.255z"></path>
</svg>
