<!-- Generated by IcoMoon.io -->
<svg version="1.1" xmlns="http://www.w3.org/2000/svg" width="32" height="32" viewBox="0 0 32 32">
<title>pay</title>
<path fill="#fff59b" d="M21.7 20.001h-11.401c-0.874 0-1.583-0.709-1.583-1.583v-5.903c0-0.874 0.709-1.583 1.583-1.583h11.401c0.874 0 1.583 0.709 1.583 1.583v5.903c0 0.874-0.709 1.583-1.583 1.583z"></path>
<path fill="#020288" d="M16.673 13.488c-0.002-0.006-0.004-0.011-0.007-0.017-0.11-0.266-0.366-0.438-0.654-0.438h-0.001c-0.288 0-0.545 0.173-0.654 0.439-0.002 0.005-0.004 0.009-0.006 0.014l-1.358 3.566c-0.123 0.323 0.039 0.684 0.362 0.806 0.073 0.028 0.148 0.041 0.222 0.041 0.252 0 0.489-0.153 0.584-0.403l0.185-0.486h1.319l0.183 0.484c0.122 0.323 0.482 0.486 0.805 0.364s0.486-0.483 0.364-0.805zM15.824 15.762l0.187-0.49 0.185 0.49z"></path>
<path fill="#020288" d="M21.030 13.143c-0.289-0.188-0.676-0.107-0.865 0.183l-0.623 0.957-0.631-0.967c-0.189-0.289-0.576-0.37-0.865-0.182s-0.37 0.576-0.182 0.865l1.053 1.613-0.004 1.661c-0.001 0.345 0.278 0.626 0.623 0.627h0.002c0.344 0 0.624-0.279 0.625-0.623l0.004-1.663 1.045-1.606c0.188-0.289 0.107-0.676-0.183-0.865z"></path>
<path fill="#020288" d="M12.318 13.033h-1.007c-0.005 0-0.011 0-0.016 0s-0.010 0-0.015 0.001c-0 0-0 0-0 0-0.138 0.007-0.264 0.058-0.364 0.14-0.001 0.001-0.001 0.001-0.002 0.001-0.003 0.002-0.006 0.005-0.009 0.007-0.001 0.001-0.002 0.002-0.003 0.003s-0.003 0.003-0.005 0.004c-0.010 0.009-0.020 0.018-0.029 0.027-0.006 0.006-0.012 0.012-0.017 0.018-0.001 0.001-0.002 0.002-0.003 0.003s-0.004 0.004-0.006 0.006c-0.002 0.002-0.003 0.004-0.005 0.005s-0.003 0.004-0.005 0.005c-0.002 0.002-0.004 0.004-0.005 0.007s-0.002 0.003-0.003 0.004-0.004 0.005-0.006 0.008c-0.001 0.001-0.001 0.002-0.002 0.003-0.003 0.003-0.005 0.007-0.008 0.010-0 0-0 0-0.001 0.001-0.068 0.092-0.111 0.204-0.12 0.325-0 0.001-0 0.002-0 0.003-0 0.004-0.001 0.008-0.001 0.012-0 0.002-0 0.004-0 0.007s-0 0.006-0 0.009c-0 0.003-0 0.006-0 0.009 0 0.002-0 0.004-0 0.005v3.617c0 0.345 0.28 0.625 0.625 0.625s0.625-0.28 0.625-0.625v-0.95c0.148-0.001 0.289-0.001 0.382-0.001 0.918 0 1.666-0.738 1.666-1.646s-0.747-1.646-1.666-1.646zM12.318 15.074c-0.092 0-0.232 0.001-0.379 0.001-0.001-0.154-0.001-0.301-0.001-0.397 0-0.082-0-0.234-0.001-0.396h0.38c0.225 0 0.416 0.181 0.416 0.396s-0.19 0.396-0.416 0.396z"></path>
<path fill="#020288" d="M23.52 0h-15.040c-1.664 0-3.018 1.349-3.018 3.006v25.982c0 1.661 1.351 3.012 3.012 3.012h15.052c1.661 0 3.012-1.351 3.012-3.012v-25.982c-0-1.658-1.354-3.006-3.018-3.006zM6.712 3.006c0-0.969 0.793-1.756 1.768-1.756h15.040c0.975 0 1.768 0.788 1.768 1.756v22.754h-18.576zM25.288 28.988c0 0.972-0.79 1.762-1.762 1.762h-15.052c-0.972 0-1.762-0.79-1.762-1.762v-1.977h18.576z"></path>
<path fill="#020288" d="M15.583 29.505h0.833c0.345 0 0.625-0.28 0.625-0.625s-0.28-0.625-0.625-0.625h-0.833c-0.345 0-0.625 0.28-0.625 0.625s0.28 0.625 0.625 0.625z"></path>
<path fill="#020288" d="M13.032 3.722h5.936c0.345 0 0.625-0.28 0.625-0.625s-0.28-0.625-0.625-0.625h-5.936c-0.345 0-0.625 0.28-0.625 0.625s0.28 0.625 0.625 0.625z"></path>
</svg>
