<!-- Generated by IcoMoon.io -->
<svg version="1.1" xmlns="http://www.w3.org/2000/svg" width="32" height="32" viewBox="0 0 32 32">
<title>present</title>
<path fill="#b2f0fb" d="M20.078 1.52c-1.059 0.654-1.307 1.33-1.973 1.879 0.471 0.51 0.759 1.192 0.759 1.941 0 0.39-0.078 0.762-0.219 1.101h5.627v-2.574c0-2.156-2.36-3.477-4.193-2.347z"></path>
<path fill="#b2f0fb" d="M13.136 5.34c0-0.756 0.293-1.443 0.771-1.955-0.679-0.553-0.93-1.231-2.001-1.882-1.833-1.113-4.177 0.209-4.177 2.356v2.581h5.627c-0.141-0.339-0.219-0.711-0.219-1.101z"></path>
<path fill="#b2f0fb" d="M18.864 5.34c0-1.582-1.282-2.864-2.864-2.864s-2.864 1.282-2.864 2.864c0 0.39 0.078 0.762 0.219 1.101h5.289c0.141-0.339 0.219-0.711 0.219-1.101z"></path>
<path fill="#b2f0fb" d="M13.625 6.441h4.749v23.834h-4.749z"></path>
<path fill="#020288" d="M31.375 21.601h-4.030v-10.541h1.062c0.345 0 0.625-0.28 0.625-0.625v-3.994c0-0.345-0.28-0.625-0.625-0.625h-24.814c-0.345 0-0.625 0.28-0.625 0.625v3.994c0 0.345 0.28 0.625 0.625 0.625h1.062v10.541h-4.030c-0.345 0-0.625 0.28-0.625 0.625v8.049c0 0.345 0.28 0.625 0.625 0.625h30.75c0.345 0 0.625-0.28 0.625-0.625v-8.049c0-0.345-0.28-0.625-0.625-0.625zM4.218 7.066h23.564v2.744h-23.564zM5.905 11.060h20.19v10.541h-20.19zM30.75 29.65h-29.5v-6.799h29.5z"></path>
</svg>
