<!-- Generated by IcoMoon.io -->
<svg version="1.1" xmlns="http://www.w3.org/2000/svg" width="32" height="32" viewBox="0 0 32 32">
<title>sale2</title>
<path fill="#ffbdbc" d="M28.459 12.565v14.050h-24.919v-14.050z"></path>
<path fill="#020288" d="M29.501 8.894h-27.002c-1.378 0-2.499 1.121-2.499 2.499v16.392c0 1.378 1.121 2.499 2.499 2.499h27.001c1.378 0 2.499-1.121 2.499-2.499v-16.392c0-1.378-1.121-2.499-2.499-2.499zM30.75 27.786c0 0.689-0.56 1.249-1.249 1.249h-27.002c-0.689 0-1.249-0.56-1.249-1.249v-16.392c0-0.689 0.56-1.249 1.249-1.249h27.001c0.689 0 1.249 0.56 1.249 1.249v16.392z"></path>
<path fill="#020288" d="M10.858 7.739l5.142-4.563 5.142 4.563c0.119 0.106 0.267 0.158 0.415 0.158 0.172 0 0.344-0.071 0.468-0.21 0.229-0.258 0.206-0.653-0.053-0.882l-5.557-4.932c-0.237-0.21-0.593-0.21-0.83 0l-5.557 4.932c-0.258 0.229-0.282 0.624-0.053 0.882s0.624 0.282 0.882 0.053z"></path>
<path fill="#020288" d="M15.448 17.209c-0.002-0.006-0.004-0.012-0.007-0.017-0.111-0.269-0.37-0.442-0.66-0.442h-0.001c-0.291 0-0.55 0.174-0.66 0.443-0.002 0.005-0.004 0.009-0.006 0.014l-1.472 3.864c-0.123 0.323 0.039 0.684 0.362 0.806s0.684-0.039 0.806-0.362l0.213-0.56h1.501l0.21 0.558c0.094 0.25 0.332 0.404 0.585 0.404 0.073 0 0.148-0.013 0.221-0.040 0.323-0.122 0.486-0.483 0.364-0.805zM14.501 19.707l0.278-0.73 0.275 0.73z"></path>
<path fill="#020288" d="M19.545 20.666h-0.004c-0.252 0.001-0.517 0.003-0.744 0.003v-3.293c0-0.345-0.28-0.625-0.625-0.625s-0.625 0.28-0.625 0.625v3.915c0 0.305 0.219 0.565 0.52 0.616 0.045 0.008 0.074 0.013 0.512 0.013 0.212 0 0.519-0.001 0.97-0.004 0.345-0.002 0.623-0.283 0.622-0.628-0.002-0.344-0.281-0.622-0.625-0.622z"></path>
<path fill="#020288" d="M22.805 18.036c0.345 0 0.625-0.28 0.625-0.625s-0.28-0.625-0.625-0.625h-1.636c-0.345 0-0.625 0.28-0.625 0.625v3.883c0 0.345 0.28 0.625 0.625 0.625h1.636c0.345 0 0.625-0.28 0.625-0.625s-0.28-0.625-0.625-0.625h-1.011v-0.691h0.89c0.345 0 0.625-0.28 0.625-0.625s-0.28-0.625-0.625-0.625h-0.89v-0.691z"></path>
<path fill="#020288" d="M11.117 18.779c-0.457-0.169-0.885-0.352-1.040-0.42-0.038-0.038-0.041-0.085-0.036-0.12 0.013-0.092 0.092-0.166 0.217-0.204 0.486-0.146 0.95 0.221 0.955 0.225 0.26 0.188 0.621 0.143 0.827-0.102l0.009-0.011c0.24-0.285 0.172-0.718-0.145-0.914-0.643-0.397-1.306-0.606-2.006-0.395-0.592 0.178-1.011 0.647-1.094 1.223-0.078 0.544 0.158 1.067 0.616 1.365 0.028 0.018 0.057 0.034 0.087 0.047 0.023 0.010 0.566 0.252 1.178 0.478 0.225 0.083 0.455 0.227 0.428 0.383-0.024 0.135-0.216 0.334-0.552 0.334-0.347 0-0.68-0.137-0.893-0.366-0.226-0.243-0.606-0.286-0.865-0.076-0.281 0.228-0.31 0.642-0.071 0.906 0.453 0.5 1.119 0.786 1.829 0.786 0.891 0 1.641-0.574 1.782-1.364 0.107-0.6-0.159-1.382-1.226-1.775z"></path>
</svg>
