<!-- Generated by IcoMoon.io -->
<svg version="1.1" xmlns="http://www.w3.org/2000/svg" width="32" height="32" viewBox="0 0 32 32">
<title>sale1</title>
<path fill="#a4fcc4" d="M12.227 21.069c-0.894 0-1.704 0.36-2.295 0.945-0.255-0.068-0.523-0.105-0.799-0.105-1.709 0-3.094 1.392-3.094 3.108 0 0.025 0 0.049 0.001 0.074h-0.155c-1.048 0-1.915 0.772-2.071 1.781h10.464v-5.078c-0.561-0.454-1.274-0.726-2.051-0.726z"></path>
<path fill="#a4fcc4" d="M28.816 24.415c0.023-0.169 0.034-0.342 0.034-0.518 0-2.145-1.731-3.884-3.866-3.884-1.057 0-2.015 0.426-2.713 1.117-0.301-0.081-0.618-0.124-0.944-0.124-1.809 0-3.311 1.32-3.605 3.054v2.814h12.689c-0.028-1.087-0.672-2.020-1.595-2.458z"></path>
<path fill="#020288" d="M15.526 11.724l0.21 0.557c0.122 0.323 0.483 0.486 0.805 0.364s0.486-0.482 0.364-0.805l-1.457-3.859c-0.002-0.006-0.004-0.011-0.007-0.017-0.111-0.269-0.37-0.442-0.66-0.442h-0.001c-0.291 0-0.55 0.174-0.66 0.444-0.002 0.005-0.004 0.009-0.006 0.014l-1.47 3.859c-0.123 0.323 0.039 0.684 0.362 0.806 0.073 0.028 0.148 0.041 0.222 0.041 0.252 0 0.489-0.153 0.584-0.403l0.213-0.559h1.499zM15.055 10.474h-0.551l0.277-0.727z"></path>
<path fill="#020288" d="M18.064 12.672c0.045 0.008 0.074 0.013 0.513 0.013 0.211 0 0.518-0.001 0.968-0.004 0.345-0.002 0.623-0.283 0.622-0.629-0.002-0.344-0.281-0.621-0.625-0.621h-0.004c-0.251 0.001-0.515 0.002-0.742 0.003v-3.289c0-0.345-0.28-0.625-0.625-0.625s-0.625 0.28-0.625 0.625v3.911c0 0.304 0.219 0.564 0.519 0.616z"></path>
<path fill="#020288" d="M21.163 12.685h1.634c0.345 0 0.625-0.28 0.625-0.625s-0.28-0.625-0.625-0.625h-1.009v-0.689h0.889c0.345 0 0.625-0.28 0.625-0.625s-0.28-0.625-0.625-0.625h-0.889v-0.689h1.009c0.345 0 0.625-0.28 0.625-0.625s-0.28-0.625-0.625-0.625h-1.634c-0.345 0-0.625 0.28-0.625 0.625v3.879c0 0.345 0.28 0.625 0.625 0.625z"></path>
<path fill="#020288" d="M11.123 9.547c-0.457-0.168-0.883-0.351-1.039-0.419-0.037-0.038-0.041-0.085-0.036-0.12 0.013-0.092 0.092-0.165 0.216-0.203 0.485-0.146 0.948 0.221 0.953 0.225l0.043 0.031c0.264 0.187 0.627 0.141 0.835-0.106 0.243-0.29 0.173-0.727-0.148-0.927-0.671-0.418-1.338-0.631-2.043-0.419-0.591 0.178-1.010 0.647-1.093 1.222-0.078 0.543 0.158 1.066 0.615 1.364 0.028 0.018 0.057 0.034 0.087 0.047 0.023 0.010 0.566 0.252 1.177 0.477 0.214 0.079 0.454 0.226 0.427 0.382-0.024 0.134-0.215 0.333-0.55 0.333-0.346 0-0.679-0.136-0.892-0.365-0.227-0.243-0.606-0.286-0.865-0.077-0.281 0.228-0.31 0.642-0.071 0.906 0.452 0.499 1.118 0.786 1.827 0.786 0.891 0 1.64-0.573 1.781-1.363 0.107-0.6-0.158-1.381-1.225-1.774z"></path>
<path fill="#020288" d="M31.375 26.248h-13.028v-9.146h9.572c0.345 0 0.625-0.28 0.625-0.625v-12.749c0-0.345-0.28-0.625-0.625-0.625h-9.572v-1.524c0-0.345-0.28-0.625-0.625-0.625h-3.444c-0.345 0-0.625 0.28-0.625 0.625v1.524h-9.572c-0.345 0-0.625 0.28-0.625 0.625v12.749c0 0.345 0.28 0.625 0.625 0.625h9.572v9.146h-13.028c-0.345 0-0.625 0.28-0.625 0.625v3.548c0 0.345 0.28 0.625 0.625 0.625h30.75c0.345 0 0.625-0.28 0.625-0.625v-3.548c0-0.345-0.28-0.625-0.625-0.625zM14.903 2.204h2.194v0.899h-2.194zM4.706 4.353h22.587v11.499h-22.587zM14.903 17.102h2.194v9.146h-2.194zM30.75 29.796h-29.5v-2.298h29.5z"></path>
</svg>
