<!-- Generated by IcoMoon.io -->
<svg version="1.1" xmlns="http://www.w3.org/2000/svg" width="32" height="32" viewBox="0 0 32 32">
<title>shopping-bag3</title>
<path fill="#020288" d="M22.243 6.714h-4.191v-1.295c0-2.988-2.459-5.418-5.482-5.418s-5.482 2.431-5.482 5.418v1.295h-4.191c-0.345 0-0.625 0.28-0.625 0.625v20.627c0 2.225 1.83 4.034 4.080 4.034h11.075c0.345 0 0.625-0.28 0.625-0.625s-0.28-0.625-0.625-0.625h-11.075c-1.56 0-2.83-1.249-2.83-2.784v-20.002h3.566v4.004c0 0.345 0.28 0.625 0.625 0.625s0.625-0.28 0.625-0.625v-4.004h8.465v4.004c0 0.345 0.28 0.625 0.625 0.625s0.625-0.28 0.625-0.625v-4.004h3.566v8.208c0 0.345 0.28 0.625 0.625 0.625s0.625-0.28 0.625-0.625v-8.833c-0-0.345-0.28-0.625-0.625-0.625zM8.338 6.714v-1.295c0-2.299 1.899-4.168 4.232-4.168s4.232 1.87 4.232 4.168v1.295z"></path>
<path fill="#e2c4ff" d="M14.757 15.463v13.127c0 1.883 1.547 3.409 3.455 3.409h8.061c1.908 0 3.455-1.526 3.455-3.409v-13.127z"></path>
<path fill="#020288" d="M22.243 23.921c-2.212 0-4.011-1.8-4.011-4.011v-1.709c0-0.345 0.28-0.625 0.625-0.625s0.625 0.28 0.625 0.625v1.709c0 1.523 1.239 2.761 2.761 2.761s2.761-1.239 2.761-2.761v-1.709c0-0.345 0.28-0.625 0.625-0.625s0.625 0.28 0.625 0.625v1.709c0 2.212-1.799 4.011-4.011 4.011z"></path>
</svg>
