<!-- Generated by IcoMoon.io -->
<svg version="1.1" xmlns="http://www.w3.org/2000/svg" width="32" height="32" viewBox="0 0 32 32">
<title>shopping-bag2</title>
<path fill="#b2f0fb" d="M21.206 20.544c0 3.829-3.104 6.934-6.934 6.934s-6.934-3.104-6.934-6.934c0-3.829 3.104-6.934 6.934-6.934s6.934 3.104 6.934 6.934z"></path>
<path fill="#020288" d="M27.235 5.463h-2.83v-0.045c0-2.988-2.459-5.418-5.482-5.418-0.831 0-1.619 0.184-2.325 0.512-0.706-0.328-1.495-0.512-2.325-0.512-3.023 0-5.482 2.431-5.482 5.418v0.045h-4.026c-0.345 0-0.625 0.28-0.625 0.625v21.877c0 2.225 1.83 4.034 4.080 4.034h15.561c2.25 0 4.080-1.81 4.080-4.034v-21.877c0-0.345-0.28-0.625-0.625-0.625zM18.923 1.25c2.334 0 4.232 1.87 4.232 4.168v0.045h-3.401v-0.045c0-1.608-0.713-3.055-1.842-4.048 0.324-0.078 0.662-0.12 1.011-0.12zM16.598 1.937c1.148 0.746 1.907 2.028 1.907 3.481v0.045h-3.814v-0.045c0-1.453 0.759-2.735 1.907-3.481zM10.040 5.418c0-2.299 1.899-4.168 4.232-4.168 0.348 0 0.687 0.042 1.011 0.12-1.13 0.993-1.842 2.44-1.842 4.048v0.045h-3.401zM23.156 30.75h-14.936c-1.56 0-2.83-1.249-2.83-2.784v-21.252h3.401v4.004c0 0.345 0.28 0.625 0.625 0.625s0.625-0.28 0.625-0.625v-4.004h8.465v4.004c0 0.345 0.28 0.625 0.625 0.625s0.625-0.28 0.625-0.625v-4.004h3.401zM26.61 27.966c0 1.324-0.944 2.435-2.205 2.716v-23.968h2.205z"></path>
<path fill="#020288" d="M15.916 16.393c-0.318-0.133-0.685 0.017-0.818 0.335l-2.995 7.149c-0.133 0.318 0.017 0.685 0.335 0.818 0.079 0.033 0.161 0.049 0.241 0.049 0.244 0 0.476-0.144 0.577-0.384l2.995-7.149c0.133-0.318-0.017-0.684-0.335-0.818z"></path>
<path fill="#020288" d="M14.055 18.177c0-1.194-0.874-2.165-1.948-2.165s-1.948 0.971-1.948 2.165 0.874 2.165 1.948 2.165 1.948-0.971 1.948-2.165zM11.408 18.177c0-0.496 0.32-0.915 0.698-0.915s0.698 0.419 0.698 0.915c0 0.496-0.32 0.915-0.698 0.915s-0.698-0.419-0.698-0.915z"></path>
<path fill="#020288" d="M16.151 20.899c-1.074 0-1.948 0.971-1.948 2.165s0.874 2.165 1.948 2.165 1.948-0.971 1.948-2.165-0.874-2.165-1.948-2.165zM16.151 23.98c-0.378 0-0.698-0.419-0.698-0.915s0.32-0.915 0.698-0.915 0.698 0.419 0.698 0.915-0.32 0.915-0.698 0.915z"></path>
</svg>
