<!-- Generated by IcoMoon.io -->
<svg version="1.1" xmlns="http://www.w3.org/2000/svg" width="32" height="32" viewBox="0 0 32 32">
<title>star</title>
<path fill="#b2f0fb" d="M22.584 2.576l2.017 3.927 4.362 0.699c0.798 0.128 1.115 1.106 0.544 1.678l-3.116 3.122 0.682 4.355c0.125 0.797-0.705 1.401-1.426 1.037l-3.945-1.994-3.945 1.994c-0.72 0.364-1.55-0.24-1.426-1.037l0.682-4.355-3.116-3.122c-0.571-0.572-0.254-1.55 0.544-1.678l4.362-0.699 2.017-3.927c0.369-0.717 1.394-0.717 1.762 0z"></path>
<path fill="#020288" d="M31.277 20.561c-0.479-0.497-1.122-0.777-1.811-0.788-0.686-0.011-1.341 0.247-1.841 0.732l-3.644 3.609c-0.552-1.757-2.192-3.035-4.123-3.035h-3.191c-0.66-1.117-1.869-1.819-3.182-1.819-1.768 0-3.255 1.244-3.615 2.924h-0.858v-0.328c0-0.345-0.28-0.625-0.625-0.625h-7.762c-0.345 0-0.625 0.28-0.625 0.625v6.192c0 0.345 0.28 0.625 0.625 0.625h7.762c0.345 0 0.625-0.28 0.625-0.625v-0.328h1.198c0.676 1.357 2.077 2.242 3.613 2.242h10.512c0.673 0 1.31-0.259 1.797-0.732l5.084-5.014c1.021-0.991 1.047-2.631 0.060-3.655zM7.762 27.423h-6.512v-4.942h6.512zM30.342 23.323l-5.084 5.014c-0.249 0.242-0.577 0.375-0.923 0.375h-10.512c-1.163 0-2.214-0.736-2.616-1.832-0.090-0.246-0.325-0.41-0.587-0.41h-1.609v-3.036h1.404c0.333 0 0.607-0.261 0.624-0.593 0.067-1.307 1.14-2.331 2.444-2.331 0.961 0 1.837 0.569 2.233 1.45 0.101 0.225 0.324 0.369 0.57 0.369h3.57c1.481 0 2.72 1.058 3.009 2.461h-6.309c-0.345 0-0.625 0.28-0.625 0.625s0.28 0.625 0.625 0.625h6.997c0.154 0 0.295-0.056 0.404-0.148 0.001-0.001 0.002-0.002 0.003-0.002 0.002-0.002 0.005-0.004 0.007-0.006s0.004-0.003 0.005-0.005c0.001-0.001 0.002-0.002 0.004-0.003 0.003-0.003 0.005-0.005 0.008-0.008 0-0 0-0 0-0 0.003-0.003 0.006-0.006 0.009-0.008l4.506-4.462c0.255-0.248 0.59-0.381 0.945-0.375s0.685 0.15 0.932 0.406v0c0.511 0.53 0.497 1.378-0.034 1.894z"></path>
</svg>
