<!-- Generated by IcoMoon.io -->
<svg version="1.1" xmlns="http://www.w3.org/2000/svg" width="32" height="32" viewBox="0 0 32 32">
<title>wallet</title>
<path fill="#e2c4ff" d="M5 23.118v-14.236h20.981v3.744h-1.73c-1.86 0-3.374 1.513-3.374 3.374s1.513 3.374 3.374 3.374h1.73v3.744h-20.981z"></path>
<path fill="#020288" d="M31.375 12.626h-0.394v-5.901c0-1.568-1.276-2.844-2.843-2.844h-25.294c-1.568 0-2.844 1.276-2.844 2.844v18.549c0 1.568 1.276 2.844 2.844 2.844h25.294c1.568 0 2.843-1.276 2.843-2.844v-5.901h0.394c0.345 0 0.625-0.28 0.625-0.625v-5.497c0-0.345-0.28-0.625-0.625-0.625zM30.75 13.876v4.247h-6.499c-1.171 0-2.124-0.953-2.124-2.124s0.953-2.124 2.124-2.124zM29.731 25.274c0 0.879-0.715 1.594-1.593 1.594h-25.294c-0.879 0-1.593-0.715-1.593-1.594v-18.549c0-0.879 0.715-1.594 1.593-1.594h25.294c0.879 0 1.593 0.715 1.593 1.594v5.901h-5.48c-1.86 0-3.374 1.513-3.374 3.374s1.513 3.374 3.374 3.374h5.48z"></path>
<path fill="#020288" d="M25.747 16.625h1.383c0.345 0 0.625-0.28 0.625-0.625s-0.28-0.625-0.625-0.625h-1.383c-0.345 0-0.625 0.28-0.625 0.625s0.28 0.625 0.625 0.625z"></path>
</svg>
