<!-- Generated by IcoMoon.io -->
<svg version="1.1" xmlns="http://www.w3.org/2000/svg" width="32" height="32" viewBox="0 0 32 32">
<title>watch</title>
<path fill="#a4fcc4" d="M9.568 10.73h10.358v10.539h-10.358z"></path>
<path fill="#020288" d="M25.752 13.594h-1.882v-1.473h1.757c0.345 0 0.625-0.28 0.625-0.625s-0.28-0.625-0.625-0.625h-1.757v-1.173c0-1.577-1.283-2.86-2.86-2.86h-0.974l-0.573-6.271c-0.029-0.322-0.299-0.568-0.622-0.568h-8.188c-0.323 0-0.593 0.246-0.622 0.568l-0.573 6.271h-0.974c-1.577 0-2.86 1.283-2.86 2.86v12.603c0 1.577 1.283 2.86 2.86 2.86h0.974l0.573 6.271c0.029 0.322 0.299 0.568 0.622 0.568h8.188c0.323 0 0.593-0.246 0.622-0.568l0.573-6.271h0.974c1.577 0 2.86-1.283 2.86-2.86v-4.686h1.882c0.345 0 0.625-0.28 0.625-0.625v-2.771c0-0.345-0.28-0.625-0.625-0.625zM11.223 1.25h7.047l0.511 5.589h-8.068zM18.27 30.75h-7.047l-0.511-5.589h8.068zM22.619 22.302c0 0.888-0.722 1.61-1.61 1.61h-12.527c-0.888 0-1.61-0.722-1.61-1.61v-12.603c0-0.888 0.722-1.61 1.61-1.61h12.527c0.888 0 1.61 0.722 1.61 1.61v12.603zM25.127 16.366h-1.257v-1.521h1.257z"></path>
<path fill="#020288" d="M16.993 15.834h-1.622v-2.8c0-0.345-0.28-0.625-0.625-0.625s-0.625 0.28-0.625 0.625v3.425c0 0.345 0.28 0.625 0.625 0.625h2.247c0.345 0 0.625-0.28 0.625-0.625s-0.28-0.625-0.625-0.625z"></path>
</svg>
