<!-- Generated by IcoMoon.io -->
<svg version="1.1" xmlns="http://www.w3.org/2000/svg" width="32" height="32" viewBox="0 0 32 32">
<title>devil</title>
<path fill="#d789b9" d="M27.991 15.809c0.036-0.342 0.054-0.689 0.054-1.041 0-5.471-4.435-9.905-9.905-9.905h-4.402c-5.471 0-9.905 4.435-9.905 9.905 0 0.351 0.019 0.699 0.054 1.041-1.076 0.312-1.864 1.304-1.864 2.481 0 1.427 1.157 2.583 2.583 2.583 0.407 0 0.791-0.094 1.133-0.262 1.103 1.507 2.621 2.69 4.387 3.382-1.236 1.38-1.987 3.203-1.987 5.201v2.109h15.601v-2.109c0-1.998-0.752-3.821-1.987-5.201 1.765-0.692 3.284-1.875 4.387-3.382 0.342 0.167 0.727 0.262 1.133 0.262 1.427 0 2.583-1.157 2.583-2.583-0-1.177-0.787-2.169-1.864-2.481z"></path>
<path fill="#c668b9" d="M18.503 24.754c-0.254 0.084-0.51 0.163-0.768 0.229 0.809 0.822 1.316 1.989 1.316 3.285v0.451c0 0.703-0.57 1.272-1.272 1.272h-7.046v1.286h10.414v-1.992c0-1.943-1.065-3.637-2.643-4.531z"></path>
<path fill="#c668b9" d="M18.14 4.861h-1.27c4.435 0 8.030 3.595 8.030 8.030v0.682c0 4.435-3.595 8.031-8.030 8.031h-5.007c-4.244 0-7.719-3.293-8.010-7.463-0.013 0.207-0.020 0.415-0.020 0.626v0c0 5.471 4.435 9.905 9.905 9.905h4.402c5.471 0 9.905-4.435 9.905-9.905v-0c0-5.471-4.435-9.905-9.905-9.905z"></path>
<path fill="#f6e06e" d="M4.306 1.010c0.001-0.28 0.342-0.418 0.537-0.217l5.452 5.601-3.008 1.216-2.627 4.71z"></path>
<path fill="#f6e06e" d="M27.572 1.010c-0.001-0.28-0.342-0.418-0.537-0.217l-5.452 5.601 3.008 1.216 2.627 4.71z"></path>
<path fill="#9781dd" d="M11.925 11.202c1.442 0 2.804 1.227 4.014 1.605 1.209-0.379 2.572-1.605 4.014-1.605 3.47 0 6.482 3.345 7.998 5.154 0.062-0.448 0.095-3.018 0.095-3.484v-0c0-5.471-4.435-9.905-9.905-9.905h-4.402c-5.471 0-9.905 4.435-9.905 9.905v0c0 0.466 0.033 3.035 0.095 3.484 1.516-1.809 4.528-5.154 7.998-5.154z"></path>
<path fill="#9781dd" d="M16.715 27.341l1.408-4.205c0.188-0.56-0.164-1.153-0.745-1.265-0.846-0.162-2.060-0.161-2.899 0.004-0.571 0.112-0.908 0.708-0.723 1.26l1.408 4.205c0.249 0.745 1.303 0.745 1.552 0z"></path>
<path fill="#e8c2d8" d="M2.47 22.838l0.517 1.453c0.022 0.062 0.066 0.112 0.121 0.136l1.291 0.582c0.182 0.082 0.182 0.373 0 0.455l-1.291 0.582c-0.055 0.025-0.099 0.074-0.121 0.136l-0.517 1.453c-0.073 0.205-0.331 0.205-0.404 0l-0.517-1.453c-0.022-0.062-0.066-0.112-0.121-0.136l-1.291-0.582c-0.182-0.082-0.182-0.373 0-0.455l1.291-0.582c0.055-0.025 0.099-0.074 0.121-0.136l0.517-1.453c0.073-0.205 0.331-0.205 0.404 0z"></path>
<path fill="#e8c2d8" d="M30.467 27.27l0.383 1.078c0.016 0.046 0.049 0.083 0.090 0.101l0.958 0.431c0.135 0.061 0.135 0.277 0 0.337l-0.958 0.431c-0.041 0.018-0.073 0.055-0.090 0.101l-0.383 1.078c-0.054 0.152-0.246 0.152-0.3 0l-0.383-1.078c-0.016-0.046-0.049-0.083-0.090-0.101l-0.958-0.431c-0.135-0.061-0.135-0.277 0-0.337l0.958-0.431c0.041-0.018 0.073-0.055 0.090-0.101l0.383-1.078c0.054-0.152 0.246-0.152 0.3 0z"></path>
<path fill="#d789b9" d="M5.562 28.971c0.116 0.242 0.014 0.533-0.228 0.65s-0.533 0.014-0.65-0.228c-0.116-0.242-0.014-0.533 0.228-0.65s0.533-0.014 0.65 0.228z"></path>
<path fill="#d789b9" d="M28.385 24.278c0 0.269-0.218 0.487-0.487 0.487s-0.487-0.218-0.487-0.487 0.218-0.487 0.487-0.487c0.269-0 0.487 0.218 0.487 0.487z"></path>
<path fill="#3c122c" d="M28.632 15.381c0.031-1.014 0.043-2.352 0.043-2.508 0-1.354-0.257-2.65-0.725-3.84l0.25-8.003c0-0.007 0-0.015 0-0.022-0.001-0.385-0.233-0.726-0.589-0.87s-0.76-0.059-1.028 0.216l-3.26 3.35c-1.531-0.869-3.3-1.366-5.183-1.366h-4.402c-1.883 0-3.652 0.497-5.183 1.366l-3.26-3.35c-0.268-0.276-0.672-0.361-1.028-0.216s-0.588 0.486-0.589 0.87c0 0.007 0 0.015 0 0.022l0.251 8.003c-0.468 1.19-0.725 2.486-0.725 3.84 0 0.156 0.012 1.494 0.043 2.508-1.093 0.513-1.852 1.623-1.852 2.909 0 1.771 1.441 3.212 3.212 3.212 0.322 0 0.632-0.048 0.925-0.137 0.968 1.202 2.194 2.188 3.594 2.873-1.015 1.392-1.616 3.105-1.616 4.956v2.109c0 0.348 0.282 0.629 0.629 0.629s0.629-0.282 0.629-0.629v-2.109c0-1.684 0.584-3.233 1.559-4.458 0.588 0.202 1.2 0.353 1.829 0.448-1.107 1.021-1.802 2.482-1.802 4.103v2.254c0 0.209 0.169 0.378 0.377 0.378s0.377-0.169 0.377-0.378v-2.254c0-1.661 0.843-3.127 2.123-3.996 0.167 0.008 0.336 0.012 0.505 0.012h0.345l0.723 2.158c0.166 0.496 0.611 0.816 1.134 0.816s0.968-0.32 1.134-0.816l0.723-2.158h0.345c0.169 0 0.337-0.004 0.505-0.012 1.28 0.869 2.123 2.336 2.123 3.996v2.254c0 0.209 0.169 0.378 0.378 0.378s0.378-0.169 0.378-0.378v-2.254c0-1.621-0.695-3.082-1.802-4.103 0.63-0.095 1.241-0.246 1.829-0.448 0.975 1.225 1.559 2.775 1.559 4.458v2.109c0 0.348 0.282 0.629 0.629 0.629s0.629-0.282 0.629-0.629v-2.109c0-1.851-0.6-3.564-1.616-4.956 1.4-0.684 2.626-1.67 3.594-2.872 0.293 0.088 0.603 0.136 0.925 0.136 1.771 0 3.212-1.441 3.212-3.212 0-1.285-0.759-2.396-1.852-2.909zM26.917 1.816l-0.157 5.008c-0.653-0.928-1.451-1.745-2.362-2.42zM18.14 3.596c5.115 0 9.276 4.161 9.276 9.276 0 0.336-0.010 1.141-0.027 1.889-1.894-2.050-4.464-4.189-7.437-4.189-1.062 0-2.035 0.535-2.894 1.008-0.397 0.218-0.775 0.426-1.12 0.56-0.345-0.134-0.723-0.342-1.12-0.56-0.859-0.472-1.832-1.008-2.894-1.008-2.973 0-5.543 2.139-7.437 4.189-0.017-0.748-0.027-1.553-0.027-1.889 0-5.115 4.161-9.276 9.276-9.276zM4.961 1.816l2.519 2.588c-0.911 0.675-1.709 1.493-2.362 2.42zM4.606 20.243c-1.077 0-1.954-0.877-1.954-1.954 0-0.619 0.29-1.171 0.741-1.529 0.241 1.252 0.703 2.425 1.346 3.478-0.044 0.003-0.088 0.005-0.133 0.005zM16.357 27.221c-0.093 0.279-0.344 0.301-0.418 0.301s-0.325-0.022-0.418-0.301l-1.408-4.205c-0.055-0.163-0.036-0.343 0.050-0.492 0.085-0.147 0.223-0.246 0.388-0.278 0.401-0.079 0.894-0.118 1.388-0.118 0.485 0 0.97 0.038 1.368 0.114 0.172 0.033 0.32 0.138 0.407 0.287s0.105 0.322 0.050 0.487zM18.217 24.043l0.264-0.787c0.123-0.369 0.082-0.772-0.114-1.108-0.197-0.338-0.532-0.574-0.917-0.648-0.9-0.173-2.152-0.171-3.044 0.005-0.375 0.074-0.701 0.307-0.895 0.639-0.196 0.337-0.237 0.742-0.114 1.111l0.264 0.787c-4.487-0.037-8.225-3.276-9.036-7.539 1.196-1.412 4.126-4.673 7.3-4.673 0.739 0 1.526 0.433 2.287 0.852 0.527 0.29 1.024 0.564 1.539 0.725 0.122 0.038 0.254 0.038 0.376 0 0.514-0.161 1.012-0.435 1.539-0.725 0.761-0.419 1.548-0.852 2.287-0.852 3.175 0 6.105 3.261 7.3 4.673-0.811 4.264-4.548 7.502-9.036 7.539zM27.272 20.243c-0.044 0-0.088-0.002-0.132-0.005 0.642-1.052 1.105-2.226 1.346-3.477 0.45 0.358 0.741 0.909 0.741 1.528 0 1.077-0.877 1.954-1.954 1.954z"></path>
<path fill="#3c122c" d="M10.823 15.627c-0.525-0.219-1.025-0.188-1.080-0.184-0.207 0.016-0.362 0.196-0.347 0.403s0.196 0.364 0.403 0.35c0.004-0 0.371-0.023 0.733 0.128s0.604 0.428 0.605 0.43c0.075 0.088 0.181 0.133 0.288 0.133 0.086 0 0.173-0.029 0.244-0.090 0.159-0.135 0.179-0.373 0.044-0.532-0.036-0.042-0.365-0.419-0.89-0.638z"></path>
<path fill="#3c122c" d="M21.345 16.323c0.358-0.15 0.723-0.129 0.733-0.128 0.207 0.015 0.388-0.14 0.404-0.348s-0.14-0.389-0.348-0.405c-0.055-0.004-0.555-0.035-1.080 0.184s-0.855 0.596-0.89 0.638c-0.134 0.158-0.115 0.395 0.043 0.53 0.071 0.061 0.158 0.090 0.245 0.090 0.106 0 0.212-0.044 0.287-0.131 0.002-0.003 0.245-0.28 0.607-0.431z"></path>
<path fill="#3c122c" d="M17.045 18.48c-0.209 0-0.378 0.169-0.378 0.378 0 0.402-0.327 0.728-0.728 0.728s-0.728-0.327-0.728-0.728c0-0.209-0.169-0.378-0.377-0.378s-0.377 0.169-0.377 0.378c0 0.818 0.665 1.483 1.483 1.483s1.483-0.665 1.483-1.483c-0-0.208-0.169-0.378-0.378-0.378z"></path>
<path fill="#3c122c" d="M24.664 10.545c0.209 0 0.378-0.169 0.378-0.377v-0.693c0-0.209-0.169-0.377-0.378-0.377s-0.378 0.169-0.378 0.377v0.693c-0 0.208 0.169 0.377 0.378 0.377z"></path>
<path fill="#3c122c" d="M22.262 9.382c0.209 0 0.378-0.169 0.378-0.377v-0.693c0-0.209-0.169-0.378-0.378-0.378s-0.378 0.169-0.378 0.378v0.693c-0 0.209 0.169 0.377 0.378 0.377z"></path>
<path fill="#3c122c" d="M10.029 17.752c-0.611 0-1.106 0.495-1.106 1.106s0.495 1.106 1.106 1.106c0.611 0 1.106-0.495 1.106-1.106s-0.495-1.106-1.106-1.106z"></path>
<path fill="#3c122c" d="M22.281 17.839c0.564 0.234 0.832 0.881 0.598 1.445s-0.881 0.832-1.445 0.598c-0.564-0.234-0.832-0.881-0.598-1.445s0.881-0.832 1.445-0.598z"></path>
<path fill="#fff" d="M10.397 6.84c-0.203 0-0.403-0.098-0.524-0.28-0.193-0.289-0.115-0.68 0.175-0.873 0.107-0.071 0.435-0.277 0.675-0.374 0.322-0.131 0.689 0.024 0.82 0.346s-0.024 0.689-0.346 0.82c-0.098 0.040-0.322 0.17-0.45 0.255-0.107 0.072-0.229 0.106-0.348 0.106z"></path>
<path fill="#fff" d="M7.411 9.639c-0.115 0-0.232-0.032-0.336-0.098-0.293-0.186-0.381-0.575-0.195-0.868 0.572-0.902 1.235-1.543 1.69-1.922 0.267-0.222 0.664-0.186 0.886 0.082s0.185 0.664-0.082 0.886c-0.386 0.321-0.948 0.863-1.432 1.627-0.12 0.189-0.324 0.292-0.532 0.292z"></path>
</svg>
