<!-- Generated by IcoMoon.io -->
<svg version="1.1" xmlns="http://www.w3.org/2000/svg" width="32" height="32" viewBox="0 0 32 32">
<title>firefighter</title>
<path fill="#d789b9" d="M23.769 31.299v-2.112c0-4.314-3.498-7.812-7.812-7.812s-7.812 3.498-7.812 7.812v2.112z"></path>
<path fill="#f6e06e" d="M8.107 28.155h15.712v1.815h-15.712z"></path>
<path fill="#c668b9" d="M16.504 24.118c1.508 0.678 2.569 2.288 2.569 4.167v0.452c0 0.704-0.57 1.274-1.274 1.274h-7.057v1.288h10.429v-1.995c0-2.695-2.045-4.913-4.668-5.186z"></path>
<path fill="#dda86a" d="M18.129 29.967h3.043v-0.663c0-0.368-0.039-0.727-0.112-1.073h-1.987c0 0.018 0.001 0.036 0.001 0.054v0.452c0 0.59-0.401 1.084-0.945 1.23z"></path>
<path fill="#a07575" d="M28.028 15.782c0.036-0.343 0.054-0.69 0.054-1.042v-0c0-5.479-4.442-9.92-9.92-9.92h-4.409c-5.479 0-9.92 4.441-9.92 9.92v0c0 0.352 0.019 0.7 0.054 1.042-1.078 0.312-1.866 1.306-1.866 2.485 0 1.429 1.158 2.587 2.587 2.587 0.407 0 0.792-0.094 1.135-0.262 1.805 2.466 4.72 4.068 8.010 4.068h4.409c3.29 0 6.206-1.602 8.010-4.068 0.343 0.168 0.728 0.262 1.135 0.262 1.429 0 2.587-1.158 2.587-2.587-0-1.179-0.788-2.172-1.866-2.485z"></path>
<path fill="#925873" d="M18.162 5.005h-1.272c4.442 0 8.043 3.601 8.043 8.043v0.683c0 4.442-3.601 8.043-8.043 8.043h-5.015c-4.251 0-7.731-3.298-8.022-7.474-0.013 0.207-0.020 0.416-0.020 0.626v0c0 5.479 4.441 9.92 9.92 9.92h4.409c5.479 0 9.92-4.441 9.92-9.92v-0c-0-5.479-4.442-9.92-9.921-9.92z"></path>
<path fill="#9781dd" d="M4.273 12.106s-1.361 7.388 1.008 13.718l3.788-1.134c-1.672-1.85-2.521-9.847 0.071-10.959 3.205-1.374-4.867-1.626-4.867-1.626z"></path>
<path fill="#9781dd" d="M27.641 12.106s1.361 7.388-1.009 13.718l-3.788-1.134c1.672-1.85 2.521-9.847-0.071-10.959-3.205-1.374 4.867-1.626 4.867-1.626z"></path>
<path fill="#d789b9" d="M28.747 9.116h-0.512c-1.448-4.345-5.399-7.463-10.046-7.463h-4.346c-4.648 0-8.598 3.118-10.046 7.463h-0.63c-0.567 0-1.026 0.46-1.026 1.026v2.737c0 0.567 0.46 1.026 1.026 1.026h25.581c0.567 0 1.026-0.46 1.026-1.026v-2.737c0-0.567-0.459-1.026-1.026-1.026z"></path>
<path fill="#f6e06e" d="M10.171 9.618v-6.824c0-0.646-0.64-1.098-1.249-0.881l-1.305 0.465c-0.373 0.133-0.621 0.486-0.621 0.881v6.359z"></path>
<path fill="#f6e06e" d="M25.309 9.618v-6.359c0-0.396-0.249-0.748-0.621-0.881l-1.305-0.465c-0.609-0.217-1.249 0.235-1.249 0.881v6.824h3.176z"></path>
<path fill="#c668b9" d="M28.747 9.116h-4.233c0.4 0 0.725 0.325 0.725 0.725v1.409c0 0.4-0.325 0.725-0.725 0.725h-21.649c-0.4 0-0.725-0.325-0.725-0.725v1.629c0 0.567 0.46 1.026 1.026 1.026h25.581c0.567 0 1.026-0.46 1.026-1.026v-2.737c0-0.567-0.459-1.026-1.026-1.026z"></path>
<path fill="#f6e06e" d="M17.869 7.217l-1.279 0.767c-0.396 0.237-0.871 0.237-1.267 0l-1.279-0.767c-0.434-0.26-0.704-0.765-0.704-1.314v-2.473c0-0.824 0.599-1.492 1.337-1.492h2.558c0.739 0 1.337 0.668 1.337 1.492v2.473c0 0.549-0.27 1.054-0.704 1.314z"></path>
<path fill="#dda86a" d="M17.236 1.938h-0.909c0.566 0 1.025 0.512 1.025 1.144v1.896c0 0.421-0.207 0.808-0.54 1.007l-0.98 0.588c-0.303 0.182-0.668 0.182-0.971 0l-0.98-0.588c-0.332-0.199-0.54-0.586-0.54-1.007v0.926c0 0.549 0.27 1.054 0.704 1.314l1.279 0.767c0.396 0.237 0.871 0.237 1.267 0l1.279-0.767c0.434-0.26 0.704-0.765 0.704-1.314v-2.473c0-0.824-0.599-1.492-1.337-1.492z"></path>
<path fill="#e8c2d8" d="M29.91 0.154l0.518 1.456c0.022 0.062 0.066 0.112 0.121 0.137l1.293 0.583c0.183 0.082 0.183 0.373 0 0.456l-1.293 0.583c-0.055 0.025-0.099 0.074-0.121 0.137l-0.518 1.456c-0.073 0.206-0.332 0.206-0.405 0l-0.518-1.455c-0.022-0.062-0.066-0.112-0.121-0.137l-1.293-0.583c-0.183-0.082-0.183-0.373 0-0.456l1.293-0.583c0.055-0.025 0.099-0.074 0.121-0.137l0.518-1.456c0.073-0.206 0.332-0.206 0.405 0z"></path>
<path fill="#d789b9" d="M2.282 24.598c0 0.624-0.506 1.13-1.13 1.13s-1.13-0.506-1.13-1.13c0-0.624 0.506-1.13 1.13-1.13s1.13 0.506 1.13 1.13z"></path>
<path fill="#e8c2d8" d="M4.372 27.532l0.384 1.080c0.016 0.046 0.049 0.083 0.090 0.101l0.959 0.432c0.136 0.061 0.136 0.277 0 0.338l-0.959 0.432c-0.041 0.018-0.074 0.055-0.090 0.101l-0.384 1.080c-0.054 0.152-0.246 0.152-0.3 0l-0.384-1.080c-0.016-0.046-0.049-0.083-0.090-0.101l-0.959-0.432c-0.135-0.061-0.135-0.277 0-0.338l0.959-0.432c0.041-0.018 0.074-0.055 0.090-0.101l0.384-1.080c0.054-0.153 0.246-0.153 0.3 0z"></path>
<path fill="#3c122c" d="M10.935 15.936c-0.058 0-0.117-0.013-0.172-0.041-0.002-0.001-0.333-0.164-0.725-0.164s-0.724 0.163-0.727 0.165c-0.186 0.093-0.413 0.018-0.507-0.168s-0.021-0.412 0.165-0.507c0.049-0.025 0.499-0.246 1.069-0.246s1.020 0.221 1.069 0.246c0.186 0.095 0.26 0.323 0.165 0.509-0.067 0.131-0.2 0.206-0.337 0.206z"></path>
<path fill="#3c122c" d="M22.773 15.936c-0.058 0-0.116-0.013-0.172-0.041-0.002-0.001-0.333-0.164-0.725-0.164s-0.724 0.163-0.727 0.165c-0.186 0.093-0.413 0.018-0.507-0.168s-0.020-0.412 0.165-0.507c0.049-0.025 0.499-0.246 1.069-0.246s1.020 0.221 1.069 0.246c0.186 0.095 0.26 0.323 0.165 0.509-0.067 0.131-0.199 0.206-0.337 0.206z"></path>
<path fill="#3c122c" d="M15.957 20.322c-0.819 0-1.486-0.666-1.486-1.486 0-0.209 0.169-0.378 0.378-0.378s0.378 0.169 0.378 0.378c0 0.402 0.327 0.729 0.729 0.729s0.729-0.327 0.729-0.729c0-0.209 0.169-0.378 0.378-0.378s0.378 0.169 0.378 0.378c0 0.819-0.666 1.486-1.486 1.486z"></path>
<path fill="#3c122c" d="M28.727 15.382c0.002-0.324-0.001-0.631-0.007-0.918 0.968-0.252 1.684-1.134 1.684-2.179v-1.238c0-1.008-0.665-1.863-1.58-2.149-0.638-1.896-1.729-3.57-3.136-4.882v-0.756c0-0.554-0.351-1.051-0.873-1.237l-1.305-0.465c-0.402-0.143-0.849-0.082-1.198 0.164-0.035 0.024-0.067 0.051-0.099 0.078-1.25-0.501-2.606-0.776-4.023-0.776h-4.346c-1.349 0-2.643 0.249-3.842 0.704-0.003-0.002-0.005-0.004-0.008-0.006-0.348-0.246-0.796-0.307-1.198-0.164l-1.305 0.465c-0.522 0.186-0.873 0.683-0.873 1.237v0.508c-1.531 1.338-2.716 3.092-3.396 5.094-0.981 0.243-1.711 1.131-1.711 2.186v1.238c0 1.046 0.716 1.927 1.684 2.179-0.006 0.287-0.009 0.593-0.007 0.917-1.064 0.525-1.798 1.622-1.798 2.886 0 1.475 0.998 2.72 2.354 3.099 0.272 1.45 0.672 2.981 1.254 4.48 0.096 0.246 0.332 0.402 0.587 0.402 0.041 0 0.082-0.004 0.123-0.012l2.548-0.506c-0.476 1.056-0.742 2.226-0.742 3.457v2.112c0 0.348 0.282 0.63 0.63 0.63s0.63-0.282 0.63-0.63v-0.784h1.589v1.023c0 0.209 0.169 0.378 0.378 0.378s0.378-0.169 0.378-0.378v-1.023h4.459v1.107c0 0.209 0.169 0.378 0.378 0.378s0.378-0.169 0.378-0.378v-1.107h4.459v1.023c0 0.209 0.169 0.378 0.378 0.378s0.378-0.169 0.378-0.378v-1.023h1.589v0.784c0 0.348 0.282 0.63 0.63 0.63s0.63-0.282 0.63-0.63v-2.112c0-1.231-0.265-2.401-0.741-3.457l2.548 0.506c0.041 0.008 0.082 0.012 0.123 0.012 0.256 0 0.492-0.156 0.587-0.402 0.582-1.5 0.982-3.031 1.254-4.481 1.356-0.378 2.354-1.623 2.354-3.098 0-1.264-0.733-2.36-1.797-2.885zM25.688 5.838c0.733 0.87 1.331 1.867 1.758 2.957h-1.758zM22.512 2.794c0-0.184 0.086-0.349 0.236-0.455s0.335-0.131 0.508-0.070l1.305 0.465c0.221 0.079 0.37 0.29 0.37 0.525v5.535h-2.419zM16.003 1.56h-0.489c0.16-0.013 0.324-0.013 0.489 0zM13.719 3.43c0-0.614 0.43-1.114 0.959-1.114h2.558c0.529 0 0.959 0.5 0.959 1.114v2.473c0 0.418-0.199 0.797-0.52 0.99l-1.279 0.767c-0.275 0.165-0.603 0.165-0.878 0l-1.279-0.767c-0.321-0.193-0.52-0.572-0.52-0.99v-2.473zM10.549 2.869c0.873-0.32 1.801-0.517 2.765-0.571-0.22 0.314-0.351 0.707-0.351 1.132v2.473c0 0.682 0.34 1.31 0.888 1.638l1.279 0.767c0.259 0.156 0.544 0.233 0.828 0.233s0.569-0.078 0.828-0.233l1.279-0.767c0.547-0.328 0.888-0.956 0.888-1.638v-2.473c0-0.428-0.133-0.822-0.355-1.137 1.109 0.047 2.171 0.283 3.159 0.68v5.822h-11.207zM7.373 3.259c0-0.235 0.149-0.446 0.37-0.525l1.305-0.465c0.173-0.062 0.358-0.036 0.508 0.070s0.236 0.272 0.236 0.455v6h-2.419v-5.535zM6.617 5.527v3.267h-2.032c0.48-1.221 1.174-2.327 2.032-3.267zM2.65 18.267c0-0.541 0.221-1.030 0.577-1.384 0.042 0.888 0.125 1.906 0.276 2.999-0.514-0.353-0.853-0.945-0.853-1.614zM5.989 24.895c-1.377-3.833-1.577-7.856-1.531-10.359h3.073c-0.639 1.319-0.881 2.861-0.718 4.605 0.183 1.947 0.814 3.693 1.231 4.848 0.056 0.154 0.115 0.317 0.166 0.465zM10.364 29.281v0.478h-1.589v-0.571c0-0.219 0.010-0.436 0.030-0.651h1.609c-0.033 0.244-0.050 0.492-0.050 0.744zM10.569 27.781h-1.655c0.227-1.139 0.725-2.182 1.423-3.059 0.589 0.202 1.201 0.354 1.831 0.45-0.754 0.695-1.316 1.595-1.599 2.61zM15.579 29.759h-4.459v-0.478c0-0.253 0.020-0.501 0.057-0.744h4.401zM11.36 27.781c0.337-1.029 1.009-1.907 1.889-2.503 0.167 0.008 0.335 0.013 0.505 0.013h1.826v0.766h-0.626c-0.223 0-0.404 0.181-0.404 0.404v0.452c0 0.223 0.181 0.404 0.404 0.404h0.626v0.464h-4.22zM16.335 27.316h0.626c0.223 0 0.404-0.181 0.404-0.404v-0.452c0-0.223-0.181-0.404-0.404-0.404h-0.626v-0.766h1.826c0.169 0 0.337-0.005 0.504-0.013 0.879 0.596 1.552 1.474 1.889 2.503h-4.219zM20.794 29.759h-4.459v-1.222h4.401c0.038 0.243 0.057 0.491 0.057 0.744zM21.345 27.781c-0.283-1.015-0.846-1.915-1.6-2.61 0.631-0.095 1.243-0.247 1.832-0.449 0.698 0.877 1.196 1.92 1.423 3.059zM23.139 29.759h-1.589v-0.478c0-0.252-0.017-0.5-0.050-0.744h1.609c0.019 0.214 0.030 0.431 0.030 0.651zM23 22.667c-1.41 0.864-3.067 1.363-4.839 1.363h-4.409c-1.772 0-3.429-0.499-4.839-1.363-0.728-2.142-1.594-5.497 0.055-8.131h13.976c1.649 2.634 0.783 5.989 0.055 8.131zM25.925 24.895l-2.222-0.441c0.051-0.147 0.11-0.31 0.166-0.465 0.417-1.155 1.048-2.901 1.231-4.848 0.164-1.745-0.079-3.286-0.719-4.605h3.075c0.046 2.503-0.154 6.527-1.531 10.359zM28.152 13.276h-24.39c-0.547 0-0.992-0.445-0.992-0.992v-1.238c0-0.547 0.445-0.992 0.992-0.992h24.39c0.547 0 0.992 0.445 0.992 0.992v1.238c0 0.547-0.445 0.992-0.992 0.992zM28.411 19.881c0.151-1.093 0.234-2.111 0.276-2.999 0.356 0.354 0.577 0.845 0.577 1.385-0 0.67-0.338 1.261-0.853 1.614z"></path>
<path fill="#fff" d="M15.196 5.759c-0.348 0-0.63-0.282-0.63-0.63v-1.366c0-0.348 0.282-0.63 0.63-0.63s0.63 0.282 0.63 0.63v1.366c0 0.348-0.282 0.63-0.63 0.63z"></path>
<path fill="#3c122c" d="M10.964 18.219c0.336 0.511 0.195 1.197-0.316 1.534s-1.197 0.195-1.534-0.316c-0.336-0.511-0.195-1.197 0.316-1.534s1.197-0.195 1.534 0.316z"></path>
<path fill="#3c122c" d="M21.993 17.746c0.609 0.061 1.053 0.603 0.992 1.212s-0.603 1.053-1.212 0.992c-0.609-0.061-1.053-0.603-0.992-1.212s0.603-1.053 1.212-0.992z"></path>
</svg>
