<!-- Generated by IcoMoon.io -->
<svg version="1.1" xmlns="http://www.w3.org/2000/svg" width="32" height="32" viewBox="0 0 32 32">
<title>harlequin</title>
<path fill="#d789b9" d="M23.676 31.372v-2.105c0-4.3-3.485-7.785-7.785-7.785s-7.785 3.485-7.785 7.785v2.105z"></path>
<path fill="#c668b9" d="M16.436 24.187c1.503 0.676 2.56 2.281 2.56 4.153v0.451c0 0.701-0.569 1.27-1.27 1.27h-7.033v1.283h10.393v-1.989c0-2.686-2.038-4.895-4.651-5.168z"></path>
<path fill="#9781dd" d="M8.357 27.301c-0.164 0.628-0.251 1.287-0.251 1.967v1.040l1.633-1.579c-0.463-0.473-0.924-0.948-1.383-1.428z"></path>
<path fill="#9781dd" d="M12.181 22.422c-1.031 0.56-1.921 1.345-2.604 2.29l2.167 2.078 2.369-2.29z"></path>
<path fill="#9781dd" d="M13.835 28.795l2.1 2.014 2.079-2.11-1.945-2.093z"></path>
<path fill="#9781dd" d="M20.062 22.694l-1.845 1.808 1.958 2.003 1.916-1.945c-0.559-0.736-1.247-1.369-2.029-1.866z"></path>
<path fill="#9781dd" d="M22.445 28.828l1.231 1.259v-0.82c0-0.509-0.049-1.007-0.143-1.489z"></path>
<path fill="#9781dd" d="M14.113 24.5l1.957 2.106 2.147-2.104-1.995-2.041z"></path>
<path fill="#9781dd" d="M20.175 26.506l-2.16 2.193 2.158 2.322 2.273-2.192z"></path>
<path fill="#9781dd" d="M9.739 28.728c0.68 0.694 1.367 1.38 2.067 2.055l2.029-1.988-2.091-2.005z"></path>
<path fill="#8962de" d="M18.997 28.791c0 0.294-0.102 0.563-0.269 0.778 0.688 0.415 1.205 1.102 1.768 1.655 0.041 0.040 0.081 0.080 0.121 0.12h0.471v-1.989c0-1.038-0.306-2.004-0.831-2.815-0.423 0.472-0.849 0.941-1.276 1.409 0.010 0.129 0.016 0.259 0.016 0.391v0.451z"></path>
<path fill="#8962de" d="M12.649 30.061h-1.466c0.187 0.238 0.374 0.477 0.561 0.715 0.298-0.242 0.606-0.474 0.905-0.715z"></path>
<path fill="#a07575" d="M29.593 17.391c0.545 1.316-0.079 2.824-1.395 3.37s-2.824-0.079-3.37-1.395c-0.545-1.316 0.079-2.824 1.395-3.37s2.824 0.079 3.37 1.395z"></path>
<path fill="#a07575" d="M6.969 17.398c0.545 1.316-0.079 2.824-1.395 3.37s-2.824-0.079-3.37-1.395c-0.545-1.316 0.079-2.824 1.395-3.37s2.824 0.079 3.37 1.395z"></path>
<path fill="#fff" d="M18.088 24.756h-4.394c-5.46 0-9.886-4.426-9.886-9.886s4.426-9.886 9.886-9.886h4.394c5.46 0 9.886 4.426 9.886 9.886s-4.426 9.886-9.886 9.886z"></path>
<path fill="#e1bdfc" d="M18.088 4.979h-1.268c4.426 0 8.015 3.588 8.015 8.015v0.681c0 4.426-3.588 8.015-8.015 8.015h-4.997c-4.236 0-7.704-3.286-7.995-7.448-0.013 0.207-0.020 0.415-0.020 0.624v0c0 5.46 4.426 9.886 9.886 9.886h4.394c5.46 0 9.886-4.426 9.886-9.886v-0c0-5.46-4.426-9.886-9.886-9.886z"></path>
<path fill="#f6e06e" d="M17.063 27.058c0 0.647-0.525 1.172-1.172 1.172s-1.172-0.525-1.172-1.172c0-0.647 0.525-1.172 1.172-1.172s1.172 0.525 1.172 1.172z"></path>
<path fill="#f6e06e" d="M17.063 30.387c0 0.647-0.525 1.172-1.172 1.172s-1.172-0.525-1.172-1.172c0-0.647 0.525-1.172 1.172-1.172s1.172 0.525 1.172 1.172z"></path>
<path fill="#d789b9" d="M3.184 13.256v-0.33c0-1.378 0.24-2.698 0.68-3.916 0.567-1.572-3.005-6.509-1.864-7.647 1.902-1.896 8.948 0.476 11.784 0.476h4.331c3.111 0 10.017-2.521 11.956-0.289 0.905 1.041-2.486 6.186-2.010 7.531 0.423 1.198 0.655 2.493 0.655 3.845v0.33z"></path>
<path fill="#c668b9" d="M30.071 1.55c-0.923-1.062-2.97-1.048-5.198-0.741 0.322 0.086 0.594 0.206 0.8 0.368 0.789 0.62-0.574 4.603-0.577 4.61-0.557 1.362-1.395 2.167-2.562 2.178l-18.812 0.023c0.064 0.345 0.223 0.796 0.141 1.022-0.44 1.218-0.68 2.537-0.68 3.916v0.33h25.531v-0.33c0-1.352-0.231-2.647-0.655-3.845-0.476-1.345 2.915-6.49 2.010-7.531z"></path>
<path fill="#9781dd" d="M6.432 5.779l-4.398-4.447c-0.011 0.010-0.023 0.020-0.034 0.031-1.009 1.006 1.666 4.983 1.907 6.977z"></path>
<path fill="#9781dd" d="M5.322 13.256h6.46l1.026-1.031-3.221-3.257z"></path>
<path fill="#9781dd" d="M9.624 2.541l-3.191 3.238 3.155 3.19 3.201-3.218z"></path>
<path fill="#9781dd" d="M16.006 9.014l-3.197 3.212 1.019 1.031h4.348l1.004-1.022z"></path>
<path fill="#9781dd" d="M10.706 1.443c-0.837-0.151-1.734-0.322-2.626-0.468l1.544 1.566z"></path>
<path fill="#9781dd" d="M19.24 5.763l-3.133-3.349-3.319 3.337 3.217 3.263z"></path>
<path fill="#9781dd" d="M22.312 9.047l-3.131 3.186 1.008 1.022h6.060z"></path>
<path fill="#9781dd" d="M29.873 1.353l-4.38 4.457 2.548 2.651c0.283-1.879 2.829-5.992 2.030-6.911-0.061-0.070-0.128-0.136-0.198-0.197z"></path>
<path fill="#9781dd" d="M21.285 1.432l1.114 1.159 1.65-1.658c-0.932 0.151-1.876 0.336-2.764 0.499z"></path>
<path fill="#9781dd" d="M15.57 1.839l0.538 0.575 0.572-0.575z"></path>
<path fill="#9781dd" d="M25.493 5.81l-3.095-3.22-3.158 3.173 3.072 3.284z"></path>
<path fill="#f6e06e" d="M28.105 14.049h-24.428c-0.5 0-0.906-0.406-0.906-0.906v-2.118c0-0.5 0.406-0.906 0.906-0.906h24.428c0.5 0 0.906 0.406 0.906 0.906v2.118c-0 0.5-0.406 0.906-0.906 0.906z"></path>
<path fill="#dda86a" d="M28.105 10.12h-3.693c0.397 0 0.719 0.322 0.719 0.719v1.465c0 0.397-0.322 0.719-0.719 0.719h-20.923c-0.397 0-0.719-0.322-0.719-0.719v0.839c0 0.5 0.406 0.906 0.906 0.906h24.428c0.5 0 0.906-0.406 0.906-0.906v-2.118c0-0.5-0.406-0.906-0.906-0.906z"></path>
<path fill="#faf1a9" d="M28.65 23.692l0.516 1.45c0.022 0.062 0.066 0.111 0.121 0.136l1.289 0.581c0.182 0.082 0.182 0.372 0 0.454l-1.289 0.581c-0.055 0.025-0.099 0.074-0.121 0.136l-0.516 1.45c-0.073 0.205-0.331 0.205-0.404 0l-0.516-1.45c-0.022-0.062-0.066-0.111-0.121-0.136l-1.289-0.581c-0.182-0.082-0.182-0.372 0-0.454l1.289-0.581c0.055-0.025 0.099-0.074 0.121-0.136l0.516-1.45c0.073-0.205 0.331-0.205 0.404 0z"></path>
<path fill="#faf1a9" d="M4.342 26.469l0.383 1.076c0.016 0.046 0.049 0.083 0.090 0.101l0.956 0.431c0.135 0.061 0.135 0.276 0 0.337l-0.956 0.431c-0.041 0.018-0.073 0.055-0.090 0.101l-0.383 1.076c-0.054 0.152-0.245 0.152-0.299 0l-0.383-1.076c-0.016-0.046-0.049-0.083-0.090-0.101l-0.956-0.431c-0.135-0.061-0.135-0.276 0-0.337l0.956-0.431c0.041-0.018 0.073-0.055 0.090-0.101l0.383-1.076c0.054-0.152 0.245-0.152 0.299 0z"></path>
<path fill="#f6e06e" d="M2.78 22.46c0.605 0.143 0.98 0.75 0.837 1.355s-0.75 0.98-1.355 0.837c-0.605-0.143-0.98-0.75-0.837-1.355s0.75-0.98 1.355-0.837z"></path>
<path fill="#3c122c" d="M10.94 18.375c0.321 0.519 0.16 1.199-0.359 1.52s-1.199 0.16-1.52-0.359c-0.321-0.519-0.16-1.199 0.359-1.52s1.199-0.16 1.52 0.359z"></path>
<path fill="#3c122c" d="M22.382 18.010c0.519 0.321 0.679 1.001 0.359 1.52s-1.001 0.679-1.52 0.359c-0.519-0.321-0.679-1.001-0.359-1.52s1.001-0.679 1.52-0.359z"></path>
<path fill="#3c122c" d="M10.887 16.062c-0.058 0-0.116-0.013-0.171-0.041-0.002-0.001-0.332-0.163-0.723-0.163s-0.721 0.162-0.724 0.164c-0.186 0.093-0.412 0.018-0.505-0.167s-0.020-0.411 0.164-0.505c0.049-0.025 0.497-0.246 1.065-0.246s1.016 0.22 1.065 0.246c0.185 0.095 0.259 0.322 0.164 0.507-0.067 0.13-0.199 0.205-0.336 0.205z"></path>
<path fill="#3c122c" d="M22.683 16.062c-0.058 0-0.116-0.013-0.171-0.041-0.002-0.001-0.332-0.163-0.723-0.163s-0.721 0.162-0.724 0.164c-0.186 0.093-0.412 0.018-0.505-0.167s-0.020-0.411 0.164-0.505c0.049-0.025 0.497-0.246 1.065-0.246s1.016 0.22 1.065 0.246c0.185 0.095 0.259 0.322 0.164 0.507-0.067 0.13-0.199 0.206-0.336 0.206z"></path>
<path fill="#3c122c" d="M15.891 20.432c-0.816 0-1.48-0.664-1.48-1.48 0-0.208 0.169-0.377 0.377-0.377s0.377 0.169 0.377 0.377c0 0.401 0.326 0.727 0.727 0.727s0.727-0.326 0.727-0.727c0-0.208 0.169-0.377 0.377-0.377s0.377 0.169 0.377 0.377c-0 0.816-0.664 1.48-1.481 1.48z"></path>
<path fill="#3c122c" d="M28.583 15.493c0.012-0.206 0.019-0.414 0.019-0.623 0-0.14-0.003-0.279-0.009-0.418 0.621-0.328 1.046-0.98 1.046-1.73v-1.274c0-0.578-0.252-1.097-0.651-1.456-0.094-0.378-0.204-0.752-0.335-1.12-0.008-0.023-0.069-0.245 0.203-1.067 0.2-0.605 0.516-1.344 0.821-2.058 0.996-2.33 1.571-3.799 0.868-4.608-1.552-1.787-5.329-1.080-8.661-0.457-1.454 0.272-2.827 0.529-3.769 0.529h-4.331c-0.864 0-2.223-0.249-3.662-0.513-1.532-0.281-3.268-0.599-4.763-0.678-1.878-0.1-3.086 0.186-3.802 0.899-0.912 0.909-0.155 2.653 0.722 4.673 0.496 1.143 1.175 2.707 0.995 3.206-0.127 0.353-0.237 0.711-0.33 1.074-0.485 0.356-0.8 0.93-0.8 1.577v1.274c0 0.75 0.425 1.402 1.046 1.73-0.006 0.139-0.009 0.278-0.009 0.418 0 0.209 0.007 0.417 0.019 0.623-1.078 0.517-1.825 1.619-1.825 2.892 0 1.768 1.438 3.206 3.206 3.206 0.321 0 0.63-0.048 0.923-0.137 0.966 1.2 2.19 2.184 3.587 2.867-1.013 1.389-1.612 3.099-1.612 4.946v2.105c0 0.347 0.281 0.628 0.628 0.628s0.628-0.281 0.628-0.628v-1.186l0.898-0.898 0.686 0.686v1.636c0 0.208 0.169 0.377 0.377 0.377 0.050 0 0.097-0.010 0.14-0.027 0.039 0.013 0.080 0.021 0.121 0.021 0.096 0 0.193-0.037 0.266-0.11l0.496-0.496 0.496 0.496c0.074 0.074 0.17 0.11 0.266 0.11s0.193-0.037 0.266-0.11c0.147-0.147 0.147-0.386 0-0.533l-0.496-0.496 1.538-1.538 0.623 0.623c-0.045 0.146-0.070 0.3-0.070 0.461 0 0.854 0.695 1.549 1.549 1.549s1.549-0.695 1.549-1.549c0-0.16-0.024-0.315-0.070-0.461l0.623-0.623 1.538 1.538-0.496 0.496c-0.147 0.147-0.147 0.386 0 0.533 0.074 0.074 0.17 0.11 0.266 0.11s0.193-0.037 0.266-0.11l0.496-0.496 0.496 0.496c0.073 0.074 0.17 0.11 0.266 0.11 0.041 0 0.082-0.008 0.121-0.021 0.043 0.017 0.091 0.027 0.14 0.027 0.208 0 0.377-0.169 0.377-0.377v-1.636l0.686-0.686 0.898 0.898v1.186c0 0.347 0.281 0.628 0.628 0.628s0.628-0.281 0.628-0.628v-2.105c0-1.847-0.599-3.557-1.612-4.947 1.397-0.683 2.62-1.667 3.587-2.867 0.292 0.088 0.602 0.137 0.923 0.137 1.768 0 3.206-1.438 3.206-3.206 0-1.273-0.746-2.375-1.824-2.892zM29.389 3.066c-0.208 0.646-0.543 1.429-0.866 2.187-0.348 0.813-0.637 1.502-0.837 2.090l-1.61-1.61 3.514-3.514c-0.018 0.172-0.070 0.44-0.201 0.847zM4.508 8.098l1.832-1.832 2.668 2.668-0.558 0.558h-4.086c0.030-0.090 0.060-0.179 0.092-0.268 0.117-0.323 0.123-0.702 0.053-1.126zM9.54 8.401l-2.668-2.668 2.645-2.645 2.668 2.668zM12.717 6.289l2.691 2.691-0.512 0.512h-4.266l-0.558-0.558zM9.566 9.492h-0.051l0.025-0.025zM27.683 10.748c0.386 0 0.7 0.314 0.7 0.7v1.274c0 0.386-0.314 0.7-0.7 0.7h-23.584c-0.386 0-0.7-0.314-0.7-0.7v-1.274c0-0.386 0.314-0.7 0.7-0.7zM16.474 8.98l2.691-2.691 2.645 2.645-0.558 0.558h-4.266zM22.317 9.492l0.025-0.025 0.025 0.025zM27.469 9.29c0.024 0.067 0.047 0.134 0.069 0.201h-4.104l-0.558-0.558 2.668-2.668 1.855 1.855c0.017 0.017 0.036 0.032 0.056 0.046-0.091 0.446-0.094 0.815 0.015 1.124zM23.852 1.603c2.071-0.349 4.179-0.57 5.284 0.005l-3.592 3.592-2.645-2.645zM22.554 1.835l-0.188 0.188-0.129-0.129c0.105-0.020 0.211-0.039 0.318-0.059zM22.366 3.088l2.645 2.645-2.668 2.668-2.645-2.645zM16.54 2.467h1.576c0.875 0 2.003-0.183 3.223-0.406l0.495 0.495-2.668 2.668-2.691-2.691zM18.633 5.756l-2.691 2.691-2.691-2.691 2.691-2.691zM10.552 2.053c1.248 0.225 2.398 0.414 3.232 0.414h1.559l0.066 0.066-2.691 2.691-2.668-2.668zM9.651 1.888l-0.134 0.134-0.194-0.194c0.111 0.020 0.221 0.040 0.329 0.060zM8.033 1.604l0.951 0.951-2.645 2.645-3.606-3.606c1.015-0.559 3.208-0.332 5.299 0.010zM2.53 2.78c-0.046-0.166-0.077-0.304-0.097-0.42l3.373 3.373-1.514 1.514c-0.21-0.653-0.526-1.38-0.862-2.155-0.351-0.809-0.714-1.645-0.901-2.312zM4.58 20.335c-1.075 0-1.95-0.875-1.95-1.95 0-0.618 0.289-1.169 0.739-1.527 0.24 1.25 0.702 2.421 1.343 3.472-0.043 0.003-0.087 0.005-0.132 0.005zM8.736 29.118c0.005-0.229 0.020-0.456 0.046-0.68l0.317 0.317zM10.335 28.926l-0.171-0.171 0.214-0.214c-0.019 0.127-0.033 0.255-0.043 0.384zM10.833 27.021l-1.201 1.201-0.686-0.686c0.193-0.772 0.511-1.495 0.931-2.145l1.186 1.186c-0.083 0.144-0.16 0.292-0.231 0.444zM10.409 24.858c0.55 0.181 1.12 0.319 1.706 0.407-0.225 0.208-0.434 0.434-0.622 0.676zM11.071 30.956v-0.229l0.114 0.114zM11.718 30.309l-0.647-0.647v-0.302c0-0.677 0.141-1.321 0.394-1.905l0.238-0.238 1.554 1.554zM12.236 26.684l1.302-1.302c0.052 0.001 0.104 0.002 0.156 0.002h0.379l0.654 0.654c-0.239 0.273-0.385 0.63-0.385 1.020 0 0.187 0.033 0.366 0.094 0.533l-0.647 0.647zM15.139 25.384h1.505l-0.22 0.22c-0.166-0.061-0.346-0.094-0.533-0.094s-0.367 0.033-0.533 0.094zM15.096 27.058c0-0.439 0.357-0.795 0.795-0.795s0.795 0.357 0.795 0.795-0.357 0.795-0.795 0.795c-0.438 0-0.795-0.357-0.795-0.795zM15.891 31.182c-0.439 0-0.795-0.357-0.795-0.795s0.357-0.795 0.795-0.795 0.795 0.357 0.795 0.795c0 0.439-0.357 0.795-0.795 0.795zM16.961 29.269c-0.278-0.267-0.655-0.431-1.070-0.431s-0.792 0.164-1.070 0.431l-0.498-0.498 0.549-0.549c0.273 0.239 0.63 0.385 1.020 0.385s0.747-0.146 1.020-0.385l0.549 0.549zM17.345 27.591c0.061-0.166 0.094-0.346 0.094-0.533 0-0.39-0.146-0.747-0.385-1.020l0.654-0.654h0.379c0.052 0 0.104-0.001 0.156-0.002l1.302 1.302-1.554 1.554zM20.711 30.956l-0.114-0.114 0.114-0.114zM20.711 29.662l-0.647 0.647-1.538-1.538 1.554-1.554 0.238 0.238c0.253 0.585 0.394 1.229 0.394 1.905zM19.666 25.265c0.586-0.089 1.156-0.226 1.706-0.407l-1.083 1.083c-0.189-0.242-0.397-0.468-0.622-0.676zM21.447 28.926c-0.010-0.129-0.024-0.257-0.043-0.384l0.213 0.213zM23.046 29.119l-0.363-0.363 0.317-0.317c0.026 0.224 0.042 0.451 0.046 0.68zM22.836 27.537l-0.686 0.686-1.201-1.201c-0.070-0.152-0.148-0.3-0.231-0.444l1.186-1.186c0.421 0.651 0.739 1.373 0.932 2.145zM18.088 24.128h-4.394c-5.105 0-9.258-4.153-9.258-9.258 0-0.064 0.001-0.129 0.002-0.193h22.905c0.001 0.064 0.002 0.128 0.002 0.193 0 5.105-4.153 9.258-9.258 9.258zM27.201 20.335c-0.044 0-0.088-0.002-0.131-0.005 0.641-1.050 1.102-2.222 1.342-3.471 0.45 0.357 0.739 0.908 0.739 1.525 0 1.075-0.875 1.95-1.95 1.95z"></path>
<path fill="#fff" d="M8.032 12.688c-0.338 0-0.618-0.269-0.627-0.61-0.010-0.347 0.263-0.636 0.61-0.646 0.763-0.022 1.469-0.022 2.221 0 0.347 0.010 0.619 0.299 0.609 0.646s-0.299 0.621-0.646 0.609c-0.727-0.021-1.409-0.021-2.148 0-0.006 0-0.012 0-0.018 0z"></path>
<path fill="#fff" d="M5.723 12.688h-0.663c-0.347 0-0.628-0.281-0.628-0.628s0.281-0.628 0.628-0.628h0.663c0.347 0 0.628 0.281 0.628 0.628s-0.281 0.628-0.628 0.628z"></path>
</svg>
