<!-- Generated by IcoMoon.io -->
<svg version="1.1" xmlns="http://www.w3.org/2000/svg" width="32" height="32" viewBox="0 0 32 32">
<title>mime</title>
<path fill="#9781dd" d="M23.768 31.029v-2.108c0-4.306-3.491-7.797-7.797-7.797s-7.797 3.491-7.797 7.797v2.108z"></path>
<path fill="#fff" d="M20.832 27.108l-9.715 0.036-0.437 2.11h10.333z"></path>
<path fill="#f3d4d2" d="M28.018 15.541c0.036-0.342 0.054-0.689 0.054-1.040v-0c0-5.469-4.433-9.902-9.902-9.902h-4.401c-5.469 0-9.902 4.433-9.902 9.902v0c0 0.351 0.019 0.698 0.054 1.040-1.076 0.312-1.863 1.304-1.863 2.48 0 1.426 1.156 2.582 2.582 2.582 0.406 0 0.791-0.094 1.133-0.261 1.801 2.462 4.711 4.061 7.995 4.061h4.401c3.284 0 6.194-1.599 7.995-4.061 0.342 0.167 0.726 0.261 1.133 0.261 1.426 0 2.582-1.156 2.582-2.582 0-1.176-0.787-2.168-1.863-2.48z"></path>
<path fill="#fff" d="M19.090 22.462h-6.239c-3.768 0-6.822-3.055-6.822-6.822s3.055-6.822 6.822-6.822h6.239c3.768 0 6.823 3.055 6.823 6.822s-3.055 6.822-6.822 6.822z"></path>
<path fill="#9781dd" d="M22.716 15.639l1.681 2.35c0.256 0.359 0.256 0.84 0 1.199l-1.681 2.35c-0.411 0.575-1.266 0.575-1.677 0l-1.681-2.35c-0.256-0.359-0.256-0.84 0-1.199l1.681-2.35c0.411-0.575 1.266-0.575 1.677 0z"></path>
<path fill="#9781dd" d="M10.901 15.639l1.681 2.35c0.256 0.359 0.256 0.84 0 1.199l-1.681 2.35c-0.411 0.575-1.266 0.575-1.677 0l-1.681-2.35c-0.256-0.359-0.256-0.84 0-1.199l1.681-2.35c0.411-0.575 1.266-0.575 1.677 0z"></path>
<path fill="#da9fd0" d="M25.304 14.216c-0.141-0.377-0.271-0.762-0.376-1.152v0.271c0 1.435-0.377 2.782-1.037 3.948l0.505 0.706c0.256 0.359 0.256 0.84 0 1.199l-1.681 2.35c-0.411 0.575-1.266 0.575-1.677 0l-0.683-0.956c-1.046 0.5-2.218 0.78-3.455 0.78h-5.005c-0.283 0-0.562-0.015-0.837-0.044l-0.157 0.22c-0.411 0.575-1.266 0.575-1.677 0l-0.634-0.886c-2.622-1.186-4.492-3.739-4.703-6.75-0.013 0.207-0.020 0.415-0.020 0.625 0 5.266 4.112 9.572 9.3 9.883h5.596c3.569-0.211 6.629-2.312 8.194-5.317-0.633-1.601-1.226-3.217-1.654-4.878z"></path>
<path fill="#e1bdfc" d="M24.908 12.075c0.014 0.191 0.021 0.384 0.021 0.578v0.682c0 1.435-0.377 2.782-1.037 3.948l0.505 0.706c0.256 0.359 0.256 0.84 0 1.199l-1.522 2.128c1.831-1.224 3.037-3.309 3.037-5.677 0-1.307-0.368-2.527-1.005-3.565z"></path>
<path fill="#e1bdfc" d="M21.040 21.539l-0.683-0.956c-1.046 0.5-2.218 0.78-3.455 0.78h-5.005c-0.283 0-0.562-0.015-0.838-0.043l-0.157 0.219c-0.164 0.229-0.398 0.365-0.647 0.412 0.8 0.33 1.677 0.512 2.596 0.512h6.239c0.919 0 1.796-0.182 2.596-0.512-0.248-0.046-0.483-0.183-0.647-0.412z"></path>
<path fill="#8962de" d="M24.397 19.188c0.256-0.359 0.256-0.84 0-1.199l-0.505-0.706c-0.81 1.431-2.046 2.588-3.536 3.3l0.683 0.956c0.164 0.229 0.398 0.365 0.647 0.412 0.419-0.172 0.817-0.385 1.189-0.634z"></path>
<path fill="#8962de" d="M11.058 21.319c-0.872-0.090-1.702-0.321-2.468-0.668l0.475 0.664c0.372 0.249 0.771 0.462 1.19 0.635 0.248-0.047 0.483-0.183 0.647-0.412z"></path>
<path fill="#e1bdfc" d="M19.081 28.476c0 0.304-0.107 0.582-0.284 0.801h2.379v-0.235c0-0.626-0.111-1.227-0.314-1.783h-1.841c0.040 0.249 0.060 0.505 0.060 0.766v0.451z"></path>
<path fill="#8962de" d="M18.735 29.346c-0.232 0.247-0.56 0.401-0.926 0.401h-7.044v1.285h10.41v-1.687z"></path>
<path fill="#8962de" d="M18.995 27.119h1.813c-0.416-1.044-1.159-1.922-2.103-2.506h-1.069c0.683 0.638 1.172 1.512 1.36 2.506z"></path>
<path fill="#a07575" d="M9.312 11.751c1.462-0.014 3.231 1.552 6.735 1.552s4.77-1.579 6.231-1.605c4.112-0.071 3.115 5.274 4.364 7.126 0.178 0.265 1.393-2.2 1.586-1.974 0.063-0.448 0.096-3.017 0.096-3.482v-0c0-5.469-4.497-9.902-10.045-9.902h-4.465c-5.548 0-10.045 4.433-10.045 9.902v0c0 0.465 0.033 3.034 0.096 3.482 0.215-0.253 1.194 2.685 1.376 2.387 1.118-1.832-0.168-7.445 4.070-7.487z"></path>
<path fill="#9781dd" d="M19.662 5.281c-0.525-2.080-4.211-3.554-8.333-2.661l-0.284-1.282c-0.099-0.448-0.558-0.717-0.998-0.585l-0.476 0.143c-0.44 0.132-0.674 0.61-0.509 1.039l0.47 1.223c-3.52 1.356-5.85 4.129-5.37 6.033 0.542 2.147 4.451 2.376 8.731 1.296s7.311-3.060 6.77-5.207z"></path>
<path fill="#8962de" d="M19.662 5.281c-0.516-2.047-4.095-3.507-8.137-2.702v0.206c2.584-0.1 4.648 0.872 4.979 2.184 0.416 1.648-2.062 3.207-5.543 4.085-3.137 0.791-6.018 0.76-6.861-0.46-0.007 0.206 0.013 0.406 0.061 0.597 0.542 2.147 4.451 2.376 8.731 1.296s7.311-3.060 6.77-5.207z"></path>
<path fill="#c2b2eb" d="M29.935 1.568l0.517 1.453c0.022 0.062 0.066 0.111 0.121 0.136l1.291 0.582c0.182 0.082 0.182 0.373 0 0.455l-1.291 0.582c-0.055 0.025-0.099 0.074-0.121 0.136l-0.517 1.453c-0.073 0.205-0.331 0.205-0.404 0l-0.517-1.453c-0.022-0.062-0.066-0.112-0.121-0.136l-1.291-0.582c-0.182-0.082-0.182-0.373 0-0.455l1.291-0.582c0.055-0.025 0.099-0.074 0.121-0.136l0.517-1.453c0.073-0.205 0.331-0.205 0.404 0z"></path>
<path fill="#c2b2eb" d="M1.832 1.182l0.383 1.078c0.016 0.046 0.049 0.083 0.090 0.101l0.957 0.431c0.135 0.061 0.135 0.276 0 0.337l-0.957 0.431c-0.041 0.018-0.074 0.055-0.090 0.101l-0.383 1.078c-0.054 0.152-0.246 0.152-0.3 0l-0.383-1.078c-0.016-0.046-0.049-0.083-0.090-0.101l-0.957-0.431c-0.135-0.061-0.135-0.276 0-0.337l0.957-0.431c0.041-0.018 0.073-0.055 0.090-0.101l0.383-1.078c0.054-0.152 0.246-0.152 0.3 0z"></path>
<path fill="#9781dd" d="M29.157 25.941c0 0.623-0.505 1.128-1.128 1.128s-1.128-0.505-1.128-1.128c0-0.623 0.505-1.128 1.128-1.128s1.128 0.505 1.128 1.128z"></path>
<path fill="#9781dd" d="M25.079 1.563c0 0.269-0.218 0.487-0.487 0.487s-0.487-0.218-0.487-0.487c0-0.269 0.218-0.487 0.487-0.487s0.487 0.218 0.487 0.487z"></path>
<path fill="#3c122c" d="M28.953 15.27c0.007-0.46 0.005-1.018 0.002-1.575-0.001-0.138-0.001-0.251-0.001-0.327 0-5.78-4.744-10.486-10.593-10.53-0.431-0.255-0.924-0.474-1.47-0.65-1.602-0.515-3.467-0.6-5.328-0.254l-0.15-0.677c-0.070-0.316-0.27-0.591-0.549-0.754s-0.617-0.204-0.926-0.111l-0.476 0.143c-0.31 0.093-0.569 0.313-0.711 0.603s-0.158 0.63-0.042 0.932l0.246 0.641c-1.403 0.586-2.666 1.407-3.661 2.394-1.43 1.419-2.065 2.964-1.743 4.239 0.043 0.169 0.105 0.346 0.196 0.525-0.392 1.095-0.606 2.272-0.606 3.498 0 0.153-0.034 0.549-0.067 0.933-0.032 0.369-0.059 0.69-0.077 0.965-0.937 0.561-1.566 1.586-1.566 2.755 0 1.771 1.441 3.211 3.211 3.211 0.321 0 0.631-0.049 0.924-0.137 0.968 1.202 2.194 2.188 3.593 2.872-1.015 1.392-1.615 3.104-1.615 4.954v2.108c0 0.347 0.282 0.629 0.629 0.629s0.629-0.282 0.629-0.629v-2.108c0-1.683 0.583-3.232 1.558-4.457 0.588 0.202 1.199 0.353 1.828 0.448-1.106 1.021-1.8 2.482-1.8 4.102v2.253c0 0.208 0.169 0.377 0.377 0.377s0.377-0.169 0.377-0.377v-1.672c0.004 0 0.007 0.001 0.011 0.001h9.533c0.039 0 0.076-0.006 0.111-0.017v1.689c0 0.208 0.169 0.377 0.377 0.377s0.377-0.169 0.377-0.377v-2.253c0-1.62-0.694-3.081-1.8-4.102 0.629-0.095 1.24-0.246 1.828-0.448 0.975 1.224 1.558 2.773 1.558 4.456v2.108c0 0.347 0.282 0.629 0.629 0.629s0.629-0.282 0.629-0.629v-2.108c0-1.85-0.6-3.563-1.615-4.954 1.399-0.684 2.624-1.67 3.592-2.871 0.293 0.089 0.603 0.137 0.925 0.137 1.771 0 3.211-1.441 3.211-3.211-0-1.166-0.625-2.188-1.557-2.75zM27.696 13.368c0 0.078 0.001 0.194 0.001 0.334 0.003 0.568 0.010 1.865-0.030 2.262-0.129 0.385-0.491 1.172-0.808 1.777-0.115-0.43-0.207-0.935-0.302-1.455-0.204-1.124-0.436-2.399-1.004-3.397-0.688-1.209-1.764-1.822-3.197-1.822-0.029 0-0.059 0-0.089 0.001-0.697 0.012-1.302 0.286-2.003 0.604-0.984 0.446-2.208 1.001-4.218 1.001-2.001 0-3.41-0.543-4.542-0.98-0.162-0.062-0.319-0.123-0.473-0.18 0.653-0.104 1.328-0.243 2.014-0.416 5.064-1.278 7.833-3.566 7.226-5.971-0.079-0.313-0.213-0.613-0.396-0.897 4.434 0.749 7.819 4.561 7.819 9.138zM5.207 16.592c-0.051 0.431-0.101 0.851-0.166 1.225-0.303-0.626-0.642-1.402-0.811-1.858-0.014-0.273 0.055-1.064 0.097-1.55 0.040-0.466 0.072-0.835 0.072-1.041 0-0.843 0.116-1.66 0.331-2.437 0.529 0.342 1.274 0.617 2.32 0.743 0.059 0.007 0.121 0.013 0.182 0.019-0.501 0.327-0.905 0.795-1.209 1.4-0.524 1.043-0.679 2.348-0.815 3.499zM9.428 1.47c0.085-0.236 0.531-0.279 0.728-0.356 0.221-0.072 0.476 0.077 0.521 0.305l0.724 3.271c0.046 0.209-0.078 0.422-0.284 0.483s-0.426-0.047-0.503-0.247l-1.201-3.127c-0.041-0.108-0.036-0.225 0.015-0.329zM6.181 5.998c0.859-0.853 1.987-1.583 3.227-2.109l0.502 1.308c0.176 0.459 0.621 0.748 1.092 0.748 0.11 0 0.223-0.016 0.333-0.049 0.582-0.175 0.934-0.776 0.803-1.369l-0.302-1.366c0.656-0.12 1.31-0.18 1.948-0.18 0.961 0 1.885 0.135 2.722 0.405 1.383 0.445 2.335 1.211 2.546 2.049 0.239 0.949-0.596 1.798-1.339 2.343-1.134 0.831-2.9 1.577-4.975 2.101-4.225 1.066-7.576 0.712-7.968-0.841-0.207-0.821 0.32-1.957 1.41-3.039zM4.642 19.974c-1.077 0-1.953-0.876-1.953-1.953 0-0.496 0.186-0.949 0.492-1.293 0.166 0.409 0.406 0.963 0.648 1.472 0.212 0.446 0.382 0.775 0.528 1.018 0.129 0.257 0.268 0.508 0.417 0.752-0.044 0.003-0.088 0.005-0.132 0.005zM11.154 28.841c-0.003 0-0.005 0-0.008 0 0.015-0.419 0.084-0.825 0.199-1.21h9.25c0.117 0.39 0.186 0.801 0.2 1.226-0.034-0.010-0.071-0.016-0.108-0.016h-9.533zM20.297 26.876h-8.653c0.372-0.75 0.934-1.39 1.623-1.857 0.167 0.008 0.335 0.012 0.504 0.012h4.401c0.169 0 0.337-0.004 0.504-0.012 0.688 0.467 1.25 1.107 1.622 1.857zM18.171 23.773h-4.401c-3.327 0-6.25-1.763-7.886-4.402 0.34-0.686 0.453-1.633 0.572-2.631 0.311-2.62 0.678-4.34 2.862-4.361 0.005-0 0.009-0 0.014-0 0.455 0 1.014 0.216 1.72 0.488 1.164 0.449 2.759 1.064 4.995 1.064 2.281 0 3.7-0.643 4.737-1.113 0.597-0.271 1.069-0.484 1.505-0.492 2.102-0.036 2.567 1.633 3.030 4.185 0.192 1.053 0.373 2.050 0.805 2.749-1.623 2.701-4.58 4.513-7.954 4.513zM27.299 19.974c-0.045 0-0.089-0.002-0.133-0.005 0.33-0.54 0.612-1.113 0.841-1.711 0.031-0.060 0.063-0.123 0.097-0.189 0.244-0.483 0.475-0.987 0.63-1.371 0.321 0.348 0.518 0.812 0.518 1.322 0 1.077-0.876 1.953-1.953 1.953z"></path>
<path fill="#3c122c" d="M23.023 15.42c-0.268-0.374-0.685-0.589-1.145-0.589s-0.878 0.215-1.145 0.589l-1.681 2.35c-0.35 0.49-0.35 1.148 0 1.638l1.681 2.35c0.268 0.374 0.685 0.589 1.145 0.589s0.878-0.215 1.145-0.589l1.681-2.35c0.35-0.49 0.35-1.148-0-1.638zM24.090 18.969l-1.681 2.35c-0.124 0.174-0.318 0.273-0.531 0.273s-0.407-0.1-0.531-0.273l-1.681-2.35c-0.163-0.227-0.163-0.533 0-0.76l1.681-2.35c0.124-0.174 0.318-0.273 0.531-0.273s0.407 0.1 0.531 0.273l1.681 2.35c0.163 0.227 0.163 0.533 0 0.76z"></path>
<path fill="#3c122c" d="M11.208 15.42c-0 0-0 0 0 0-0.268-0.374-0.685-0.589-1.145-0.589s-0.878 0.215-1.145 0.589l-1.681 2.35c-0.35 0.49-0.35 1.148 0 1.638l1.681 2.35c0.268 0.374 0.685 0.589 1.145 0.589s0.878-0.215 1.145-0.589l1.681-2.35c0.35-0.49 0.35-1.148 0-1.638zM12.275 18.969l-1.681 2.35c-0.124 0.174-0.318 0.273-0.531 0.273s-0.407-0.1-0.531-0.273l-1.681-2.35c-0.163-0.227-0.163-0.533-0-0.76l1.681-2.35c0.124-0.174 0.318-0.273 0.531-0.273s0.407 0.1 0.531 0.273l1.681 2.35c0.163 0.227 0.163 0.533 0 0.76z"></path>
<path fill="#3c122c" d="M10.063 17.483c-0.611 0-1.105 0.495-1.105 1.105s0.495 1.105 1.105 1.105 1.105-0.495 1.105-1.105c-0-0.61-0.495-1.105-1.105-1.105z"></path>
<path fill="#3c122c" d="M22.311 17.571c0.564 0.234 0.832 0.881 0.598 1.445s-0.881 0.832-1.445 0.598c-0.564-0.234-0.832-0.881-0.598-1.445s0.881-0.832 1.445-0.598z"></path>
<path fill="#3c122c" d="M17.076 18.212c-0.208 0-0.377 0.169-0.377 0.377 0 0.401-0.327 0.728-0.728 0.728s-0.728-0.327-0.728-0.728c0-0.208-0.169-0.377-0.377-0.377s-0.377 0.169-0.377 0.377c0 0.818 0.665 1.483 1.483 1.483s1.483-0.665 1.483-1.483c0-0.208-0.169-0.377-0.377-0.377z"></path>
<path fill="#3c122c" d="M13.805 8.25c0.208 0 0.377-0.169 0.377-0.377v-0.713c0-0.208-0.169-0.377-0.377-0.377s-0.377 0.169-0.377 0.377v0.713c0 0.208 0.169 0.377 0.377 0.377z"></path>
<path fill="#3c122c" d="M15.799 6.72c0.208 0 0.377-0.169 0.377-0.377v-0.713c0-0.208-0.169-0.377-0.377-0.377s-0.377 0.169-0.377 0.377v0.713c0 0.208 0.169 0.377 0.377 0.377z"></path>
<path fill="#fff" d="M6.691 8.141c-0.093 0-0.188-0.021-0.278-0.065-0.312-0.154-0.44-0.531-0.286-0.842 0.376-0.763 1.107-1.211 1.694-1.571l0.014-0.008c0.296-0.182 0.683-0.089 0.865 0.207s0.089 0.683-0.207 0.865l-0.014 0.009c-0.495 0.304-1.008 0.618-1.223 1.055-0.109 0.222-0.333 0.351-0.565 0.351z"></path>
</svg>
