<!-- Generated by IcoMoon.io -->
<svg version="1.1" xmlns="http://www.w3.org/2000/svg" width="32" height="32" viewBox="0 0 32 32">
<title>monster</title>
<path fill="#efc5b4" d="M29.495 16.939c0.749 1.211 0.374 2.8-0.837 3.548s-2.8 0.374-3.548-0.837c-0.749-1.211-0.374-2.8 0.837-3.548s2.8-0.374 3.548 0.837z"></path>
<path fill="#efc5b4" d="M6.049 16.119c1.204 0.759 1.565 2.349 0.807 3.553s-2.349 1.565-3.553 0.807c-1.204-0.759-1.565-2.349-0.807-3.553s2.349-1.565 3.553-0.807z"></path>
<path fill="#a1e8c3" d="M25.028 7.71c0.178-1.205 0.563-4.738-0.953-5.191-1.168-0.349-2.395 1.447-3.131 2.797-0.903-0.269-1.859-0.414-2.849-0.414h-4.222c-0.99 0-1.947 0.145-2.85 0.414-0.737-1.349-1.963-3.146-3.131-2.797-1.517 0.453-1.131 3.986-0.953 5.191-1.869 1.812-3.032 4.348-3.032 7.157l0.109 11.024c1.991 0 1.991 1.255 3.982 1.255 0.174 0 0.333-0.010 0.479-0.028-0.179 0.654-0.274 1.343-0.274 2.053v2.104h15.562v-2.104c0-0.709-0.095-1.396-0.273-2.049 0.134 0.014 0.278 0.023 0.435 0.023 1.991 0 1.991-1.255 3.982-1.255l0.151-11.024c0-2.809-1.162-5.345-3.032-7.157z"></path>
<path fill="#85adc2" d="M18.98 4.941c3.512 1.126 6.054 4.417 6.054 8.302l-0.099 7.184c-0.024 1.719-1.246 3.211-2.939 3.51-0.17 0.030-0.361 0.047-0.578 0.047-1.742 0-1.742-1.098-3.483-1.098s-1.742 1.098-3.483 1.098c-1.742 0-1.742-1.098-3.483-1.098s-1.742 1.098-3.483 1.098c-1.742 0-1.742-1.098-3.483-1.098l-0-0.028h-0.016l0.030 3.033c1.991 0 1.991 1.255 3.982 1.255s1.991-1.255 3.982-1.255c1.991 0 1.991 1.255 3.982 1.255 1.413 0 1.824-0.632 2.655-0.999 0.3 0.622 0.471 1.329 0.471 2.079v0.45c0 0.701-0.568 1.269-1.269 1.269h-7.029v1.283h10.388v-1.988c0-1.277-0.461-2.445-1.226-3.35 1.983 0.003 1.986 1.255 3.975 1.255 1.991 0 1.991-1.255 3.982-1.255l0.151-11.024c-0-5.205-3.991-9.478-9.080-9.926z"></path>
<path fill="#fff" d="M21.164 14.127c0 2.501-2.32 4.528-5.181 4.528s-5.181-2.027-5.181-4.528c0-2.501 2.32-4.528 5.181-4.528s5.181 2.027 5.181 4.528z"></path>
<path fill="#fff" d="M15.983 23.037c-1.563 0-3.125-0.391-4.677-1.173-0.619-0.312-0.868-1.067-0.556-1.686s1.067-0.868 1.686-0.556c2.387 1.203 4.708 1.203 7.096 0 0.619-0.312 1.374-0.063 1.686 0.556s0.063 1.374-0.556 1.686c-1.552 0.782-3.115 1.173-4.678 1.173z"></path>
<path fill="#96b4eb" d="M19.202 14.127c0 1.778-1.441 3.219-3.219 3.219s-3.219-1.441-3.219-3.219c0-1.778 1.441-3.219 3.219-3.219s3.219 1.441 3.219 3.219z"></path>
<path fill="#3c122c" d="M16.857 13.013c0.609 0.484 0.711 1.37 0.227 1.979s-1.37 0.711-1.979 0.227c-0.609-0.484-0.711-1.37-0.227-1.979s1.37-0.711 1.979-0.227z"></path>
<path fill="#ccf3e2" d="M29.939 0.992l0.516 1.45c0.022 0.062 0.066 0.111 0.121 0.136l1.288 0.58c0.182 0.082 0.182 0.372 0 0.454l-1.288 0.58c-0.055 0.025-0.099 0.074-0.121 0.136l-0.516 1.45c-0.073 0.205-0.33 0.205-0.403 0l-0.516-1.45c-0.022-0.062-0.066-0.111-0.121-0.136l-1.288-0.58c-0.182-0.082-0.182-0.372 0-0.454l1.288-0.58c0.055-0.025 0.099-0.074 0.121-0.136l0.516-1.45c0.073-0.205 0.33-0.205 0.403 0z"></path>
<path fill="#ccf3e2" d="M1.828 5.453l0.382 1.075c0.016 0.046 0.049 0.082 0.090 0.101l0.955 0.43c0.135 0.061 0.135 0.276 0 0.337l-0.955 0.431c-0.041 0.018-0.073 0.055-0.090 0.101l-0.382 1.075c-0.054 0.152-0.245 0.152-0.299 0l-0.382-1.075c-0.016-0.046-0.049-0.082-0.090-0.101l-0.955-0.43c-0.135-0.061-0.135-0.276 0-0.337l0.955-0.43c0.041-0.018 0.073-0.055 0.090-0.101l0.382-1.075c0.054-0.152 0.245-0.152 0.299-0z"></path>
<path fill="#a1e8c3" d="M3.712 0.183c0.574 0.239 0.845 0.899 0.606 1.472s-0.899 0.845-1.472 0.606c-0.574-0.239-0.845-0.899-0.606-1.472s0.899-0.845 1.472-0.606z"></path>
<path fill="#a1e8c3" d="M31.048 10.114c0.103 0.248-0.015 0.532-0.263 0.635s-0.532-0.015-0.635-0.263c-0.103-0.248 0.015-0.532 0.263-0.635s0.532 0.015 0.635 0.263z"></path>
<path fill="#3c122c" d="M30.492 18.295c0-1.268-0.741-2.366-1.812-2.885l0.007-0.534c0-0.003 0-0.006 0-0.009 0-2.864-1.143-5.465-2.995-7.374 0.066-0.509 0.138-1.225 0.142-1.969 0.011-2.077-0.52-3.29-1.579-3.607s-2.169 0.406-3.299 2.149c-0.112 0.173-0.218 0.346-0.318 0.517-0.815-0.202-1.667-0.309-2.543-0.309h-4.222c-0.877 0-1.728 0.108-2.543 0.309-0.1-0.171-0.206-0.344-0.318-0.517-1.13-1.742-2.24-2.465-3.299-2.149s-1.59 1.53-1.579 3.607c0.004 0.745 0.076 1.462 0.142 1.97-1.853 1.909-2.995 4.512-2.995 7.379l0.005 0.538c-1.070 0.519-1.81 1.616-1.81 2.884 0 1.29 0.766 2.403 1.867 2.911l0.046 4.691c0.003 0.344 0.283 0.621 0.628 0.621 0.814 0 1.186 0.234 1.656 0.531 0.49 0.309 1.041 0.654 2.021 0.714-0.078 0.458-0.119 0.928-0.119 1.408v2.104c0 0.347 0.281 0.628 0.628 0.628s0.628-0.281 0.628-0.628v-2.104c0-0.517 0.056-1.022 0.16-1.508 0.576-0.139 0.971-0.387 1.333-0.615 0.247-0.156 0.468-0.294 0.739-0.391-0.414 0.778-0.649 1.665-0.649 2.606v2.249c0 0.208 0.169 0.377 0.377 0.377s0.377-0.169 0.377-0.377v-2.249c0-1.020 0.32-1.966 0.863-2.746 0.779 0.010 1.146 0.24 1.606 0.53 0.538 0.34 1.149 0.724 2.326 0.724s1.787-0.385 2.326-0.724c0.469-0.296 0.84-0.529 1.649-0.531 0.544 0.78 0.864 1.726 0.864 2.746v2.249c0 0.208 0.169 0.377 0.377 0.377s0.377-0.169 0.377-0.377v-2.249c0-0.933-0.231-1.813-0.639-2.587 0.247 0.095 0.454 0.225 0.685 0.371 0.371 0.234 0.776 0.489 1.377 0.625 0.103 0.483 0.159 0.984 0.159 1.497v2.104c0 0.347 0.281 0.628 0.628 0.628s0.628-0.281 0.628-0.628v-2.104c0-0.481-0.041-0.952-0.119-1.411 0.955-0.067 1.496-0.407 1.979-0.712 0.471-0.297 0.842-0.531 1.656-0.531 0.343 0 0.623-0.276 0.628-0.619l0.064-4.682c1.114-0.502 1.892-1.623 1.892-2.922zM2.73 18.295c0-0.536 0.218-1.022 0.57-1.374l0.027 2.775c-0.367-0.355-0.597-0.851-0.597-1.401zM22.016 4.737c0.732-1.125 1.452-1.745 1.879-1.617s0.689 1.041 0.683 2.383c-0.001 0.33-0.018 0.658-0.041 0.962-0.806-0.619-1.703-1.126-2.668-1.495 0.048-0.078 0.097-0.155 0.147-0.233zM8.071 3.12c0.427-0.128 1.147 0.492 1.879 1.617 0.050 0.077 0.099 0.155 0.147 0.233-0.965 0.37-1.863 0.876-2.67 1.497-0.113-1.562 0.024-3.161 0.644-3.346zM27.289 25.303c-0.789 0.107-1.271 0.41-1.706 0.685-0.471 0.297-0.842 0.531-1.656 0.531s-1.186-0.234-1.656-0.531c-0.539-0.34-1.149-0.724-2.326-0.724s-1.787 0.385-2.326 0.724c-0.471 0.297-0.842 0.531-1.656 0.531s-1.186-0.234-1.656-0.531c-0.539-0.34-1.149-0.724-2.326-0.724s-1.787 0.385-2.326 0.724c-0.47 0.297-0.842 0.531-1.656 0.531s-1.186-0.234-1.656-0.531c-0.434-0.274-0.916-0.577-1.704-0.684l-0.103-10.436c0-5.149 4.189-9.338 9.338-9.338h4.222c5.147 0 9.336 4.187 9.338 9.334zM28.621 19.714l0.038-2.801c0.356 0.353 0.577 0.842 0.577 1.382 0 0.559-0.237 1.063-0.616 1.419z"></path>
<path fill="#fff" d="M8.902 9.803c-0.263-0.226-0.659-0.195-0.885 0.068-0.547 0.638-0.99 1.348-1.315 2.11-0.136 0.319 0.012 0.688 0.331 0.824 0.080 0.034 0.164 0.051 0.246 0.051 0.244 0 0.476-0.143 0.577-0.381 0.275-0.644 0.65-1.245 1.113-1.786 0.226-0.263 0.195-0.659-0.068-0.885z"></path>
<path fill="#fff" d="M10.608 9.284c0.295-0.183 0.385-0.569 0.203-0.864s-0.57-0.385-0.864-0.203c-0.109 0.068-0.219 0.139-0.325 0.212-0.286 0.196-0.358 0.587-0.162 0.873 0.122 0.177 0.318 0.273 0.518 0.273 0.122 0 0.246-0.036 0.355-0.11 0.090-0.062 0.183-0.123 0.276-0.18z"></path>
<path fill="#3c122c" d="M15.983 19.032c3.065 0 5.558-2.2 5.558-4.905s-2.493-4.905-5.558-4.905c-3.065 0-5.558 2.2-5.558 4.905s2.493 4.905 5.558 4.905zM15.983 9.975c2.649 0 4.805 1.863 4.805 4.152s-2.155 4.152-4.805 4.152-4.805-1.863-4.805-4.152c0-2.289 2.155-4.152 4.805-4.152z"></path>
<path fill="#3c122c" d="M20.607 19.194c-0.414-0.137-0.856-0.104-1.246 0.092-2.273 1.145-4.484 1.145-6.757 0-0.804-0.405-1.787-0.080-2.191 0.723s-0.081 1.787 0.723 2.192c1.598 0.805 3.228 1.213 4.847 1.213s3.249-0.408 4.847-1.213c0.804-0.405 1.128-1.388 0.723-2.192-0.196-0.389-0.532-0.679-0.946-0.816zM12.604 22.024c-0.378-0.142-0.754-0.307-1.129-0.496-0.433-0.218-0.607-0.747-0.389-1.18 0.154-0.306 0.464-0.483 0.786-0.483 0.133 0 0.268 0.030 0.394 0.094 0.279 0.141 0.557 0.265 0.835 0.374zM15.607 22.652c-0.761-0.032-1.525-0.162-2.287-0.388l0.494-1.685c0.599 0.178 1.197 0.283 1.793 0.314zM16.36 22.652v-1.758c0.597-0.031 1.194-0.136 1.793-0.314l0.494 1.685c-0.762 0.226-1.527 0.356-2.287 0.388zM20.491 21.528c-0.375 0.189-0.752 0.354-1.129 0.496l-0.496-1.692c0.278-0.109 0.556-0.233 0.835-0.374 0.21-0.106 0.448-0.123 0.671-0.050s0.404 0.23 0.509 0.439c0.218 0.433 0.043 0.962-0.389 1.18z"></path>
<path fill="#3c122c" d="M15.983 17.722c1.983 0 3.595-1.613 3.595-3.595s-1.613-3.595-3.595-3.595-3.595 1.613-3.595 3.595 1.613 3.596 3.595 3.596zM15.983 11.284c1.567 0 2.842 1.275 2.842 2.842s-1.275 2.842-2.842 2.842-2.842-1.275-2.842-2.842c0-1.567 1.275-2.842 2.842-2.842z"></path>
<path fill="#3c122c" d="M23.72 17.996c-0.208 0-0.377 0.169-0.377 0.377v0.711c0 0.208 0.169 0.377 0.377 0.377s0.377-0.169 0.377-0.377v-0.711c0-0.208-0.169-0.377-0.377-0.377z"></path>
<path fill="#3c122c" d="M25.408 21.836c0.208 0 0.377-0.169 0.377-0.377v-0.711c0-0.208-0.169-0.377-0.377-0.377s-0.377 0.169-0.377 0.377v0.711c0 0.208 0.169 0.377 0.377 0.377z"></path>
<path fill="#3c122c" d="M23.684 22.412c-0.208 0-0.377 0.169-0.377 0.377v0.711c0 0.208 0.169 0.377 0.377 0.377s0.377-0.169 0.377-0.377v-0.711c0-0.208-0.169-0.377-0.377-0.377z"></path>
</svg>
