<!-- Generated by IcoMoon.io -->
<svg version="1.1" xmlns="http://www.w3.org/2000/svg" width="32" height="32" viewBox="0 0 32 32">
<title>nun</title>
<path fill="#9781dd" d="M18.769 2.889h-4.978c-6.214 0-11.252 5.037-11.252 11.252v14.161c0 1.108 0.898 2.007 2.007 2.007h3.907v1.060h15.654v-1.060h3.907c1.108 0 2.007-0.898 2.007-2.007v-14.161c0-6.214-5.038-11.252-11.252-11.252z"></path>
<path fill="#fff" d="M19.999 25.669c0.094 0.319 0.144 0.656 0.144 1.004 0 2.045-1.73 3.702-3.863 3.702s-3.863-1.658-3.863-3.702c0-0.322 0.043-0.634 0.123-0.931l0.929-0.911h5.795z"></path>
<path fill="#8962de" d="M20.225 25.942c-0.011 0.28-0.063 0.553-0.138 0.822-0.052 0.278-0.132 0.546-0.254 0.798-0.107 0.415-0.248 0.82-0.431 1.211v0.025c0 0.705-0.572 1.277-1.277 1.277h-7.070v1.29h10.449v-1.999c0-1.31-0.483-2.507-1.279-3.423z"></path>
<path fill="#e1bdfc" d="M19.402 28.781h0.087c0.24-0.572 0.844-2.496 0.848-2.705-0.849-1.047-2.094-1.759-3.509-1.906 1.511 0.68 2.574 2.293 2.574 4.175z"></path>
<path fill="#a07575" d="M28.373 15.822c0.036-0.343 0.055-0.692 0.055-1.044v-0c0-5.489-4.45-9.939-9.939-9.939h-4.418c-5.489 0-9.939 4.45-9.939 9.939v0c0 0.353 0.019 0.701 0.055 1.044-1.080 0.313-1.87 1.309-1.87 2.489 0 1.431 1.161 2.592 2.592 2.592 0.408 0 0.794-0.095 1.137-0.262 1.808 2.471 4.729 4.076 8.026 4.076h4.418c3.296 0 6.217-1.605 8.026-4.076 0.343 0.168 0.729 0.262 1.137 0.262 1.431 0 2.592-1.16 2.592-2.592 0-1.181-0.79-2.177-1.87-2.489z"></path>
<path fill="#fff" d="M28.211 12.706c-0.953-4.495-4.944-7.868-9.723-7.868h-4.418c-4.779 0-8.77 3.373-9.723 7.868z"></path>
<path fill="#925873" d="M25.269 12.696c0.002 0.073 0.003 0.146 0.003 0.219v0.684c0 4.45-3.608 8.058-8.058 8.058h-5.024c-4.259 0-7.745-3.304-8.038-7.489-0.013 0.208-0.020 0.417-0.020 0.628v0c0 5.489 4.45 9.939 9.939 9.939h4.418c5.489 0 9.939-4.45 9.939-9.939v-0c0-0.721-0.077-1.423-0.223-2.101z"></path>
<path fill="#e1bdfc" d="M25.27 12.758h2.948c-0.941-4.511-4.939-7.901-9.73-7.901h-1.275c4.398 0 7.972 3.523 8.056 7.901z"></path>
<path fill="#c2b2eb" d="M29.947 0.835l0.385 1.082c0.017 0.046 0.049 0.083 0.090 0.102l0.961 0.433c0.136 0.061 0.136 0.277 0 0.339l-0.961 0.433c-0.041 0.019-0.074 0.055-0.090 0.102l-0.385 1.082c-0.054 0.153-0.247 0.153-0.301 0l-0.385-1.082c-0.017-0.046-0.049-0.083-0.090-0.102l-0.961-0.433c-0.136-0.061-0.136-0.277 0-0.339l0.961-0.433c0.041-0.019 0.074-0.055 0.090-0.102l0.385-1.082c0.054-0.153 0.247-0.153 0.301 0z"></path>
<path fill="#9781dd" d="M2.78 4.754c0 0.625-0.507 1.132-1.132 1.132s-1.132-0.507-1.132-1.132c0-0.625 0.507-1.132 1.132-1.132s1.132 0.507 1.132 1.132z"></path>
<path fill="#9781dd" d="M5.717 0.488c0 0.27-0.219 0.488-0.489 0.488s-0.489-0.219-0.489-0.488c0-0.27 0.219-0.488 0.489-0.488s0.489 0.219 0.489 0.488z"></path>
<path fill="#3c122c" d="M11.46 18.881c0 0.613-0.497 1.11-1.11 1.11s-1.11-0.497-1.11-1.11 0.497-1.11 1.11-1.11c0.613-0 1.11 0.497 1.11 1.11z"></path>
<path fill="#3c122c" d="M22.466 17.812c0.596 0.141 0.965 0.739 0.824 1.335s-0.739 0.965-1.335 0.824c-0.596-0.141-0.965-0.739-0.824-1.335s0.739-0.965 1.335-0.824z"></path>
<path fill="#3c122c" d="M11.249 15.976c-0.058 0-0.117-0.013-0.172-0.041-0.002-0.001-0.334-0.164-0.727-0.164s-0.725 0.163-0.728 0.165c-0.186 0.093-0.414 0.018-0.508-0.168s-0.021-0.413 0.165-0.508c0.050-0.025 0.5-0.247 1.071-0.247s1.022 0.222 1.071 0.247c0.186 0.095 0.26 0.323 0.165 0.51-0.067 0.131-0.2 0.207-0.338 0.207z"></path>
<path fill="#3c122c" d="M23.108 15.976c-0.058 0-0.117-0.013-0.172-0.041-0.002-0.001-0.333-0.164-0.727-0.164s-0.725 0.163-0.728 0.165c-0.186 0.093-0.414 0.018-0.508-0.168s-0.021-0.413 0.165-0.508c0.049-0.025 0.5-0.247 1.071-0.247s1.022 0.222 1.071 0.247c0.186 0.095 0.26 0.323 0.165 0.51-0.067 0.131-0.2 0.207-0.338 0.207z"></path>
<path fill="#3c122c" d="M16.28 20.37c-0.821 0-1.488-0.668-1.488-1.488 0-0.209 0.17-0.379 0.379-0.379s0.379 0.17 0.379 0.379c0 0.403 0.328 0.731 0.731 0.731s0.731-0.328 0.731-0.731c0-0.209 0.17-0.379 0.379-0.379s0.379 0.17 0.379 0.379c-0 0.821-0.668 1.488-1.488 1.488z"></path>
<path fill="#3c122c" d="M30.652 17.135v-2.995c0-6.552-5.331-11.883-11.883-11.883h-4.978c-6.552 0-11.883 5.331-11.883 11.883v2.993c-0.144 0.365-0.223 0.762-0.223 1.177s0.080 0.811 0.223 1.175v8.815c0 1.455 1.184 2.638 2.638 2.638h3.275v0.429c0 0.349 0.283 0.631 0.631 0.631s0.631-0.283 0.631-0.631v-2.116c0-1.689 0.586-3.244 1.564-4.473 0.59 0.202 1.203 0.354 1.835 0.45-1.11 1.024-1.807 2.491-1.807 4.117v2.262c0 0.209 0.17 0.379 0.379 0.379s0.379-0.17 0.379-0.379v-2.262c0-0.858 0.225-1.663 0.617-2.363 0.166 2.106 1.998 3.77 4.229 3.77s4.063-1.665 4.229-3.771c0.393 0.699 0.617 1.505 0.617 2.363v2.262c0 0.209 0.17 0.379 0.379 0.379s0.379-0.17 0.379-0.379v-2.262c0-1.504-0.596-2.871-1.563-3.878-0.030-0.048-0.070-0.088-0.117-0.118-0.042-0.041-0.084-0.081-0.127-0.121 0.632-0.096 1.245-0.247 1.836-0.45 0.978 1.229 1.564 2.784 1.564 4.474v2.116c0 0.349 0.283 0.631 0.631 0.631s0.631-0.283 0.631-0.631v-0.429h3.275c1.455 0 2.638-1.183 2.638-2.638v-8.815c0.143-0.364 0.223-0.761 0.223-1.175s-0.080-0.811-0.223-1.176zM3.171 14.141c0-5.856 4.764-10.62 10.62-10.62h4.978c5.856 0 10.62 4.764 10.62 10.62v1.458c-0.112-0.072-0.229-0.137-0.35-0.195 0.012-0.207 0.020-0.416 0.020-0.626 0-5.829-4.742-10.571-10.571-10.571h-4.418c-5.829 0-10.571 4.742-10.571 10.571 0 0.21 0.008 0.419 0.020 0.626-0.121 0.058-0.238 0.123-0.35 0.195v-1.457zM27.396 12.075h-22.232c1.161-3.818 4.715-6.605 8.907-6.605h4.417c4.193 0 7.746 2.787 8.907 6.605zM3.691 16.777c0.242 1.256 0.706 2.433 1.351 3.489-0.044 0.003-0.089 0.005-0.134 0.005-1.081 0-1.961-0.88-1.961-1.961 0-0.621 0.291-1.174 0.744-1.534zM7.822 29.253v0.425h-3.275c-0.758 0-1.375-0.617-1.375-1.375v-7.278c0.502 0.323 1.098 0.511 1.738 0.511 0.323 0 0.635-0.048 0.929-0.137 0.971 1.206 2.201 2.195 3.605 2.882-1.019 1.397-1.621 3.116-1.621 4.973zM16.28 29.997c-1.921 0-3.484-1.491-3.484-3.323 0-0.267 0.034-0.533 0.1-0.79 0.206-0.202 0.43-0.385 0.67-0.548 0.168 0.008 0.336 0.012 0.506 0.012h4.418c0.17 0 0.338-0.004 0.506-0.012 0.24 0.163 0.465 0.347 0.671 0.549 0.065 0.257 0.098 0.521 0.098 0.788-0 1.832-1.563 3.323-3.485 3.323zM18.489 24.085h-4.418c-5.133 0-9.308-4.176-9.308-9.308 0-0.49 0.038-0.971 0.112-1.44h22.81c0.073 0.47 0.111 0.95 0.111 1.44 0 5.133-4.175 9.308-9.308 9.308zM29.389 28.302c0 0.759-0.617 1.375-1.376 1.375h-3.275v-0.425c0-1.857-0.602-3.576-1.621-4.973 1.404-0.687 2.634-1.676 3.605-2.882 0.294 0.089 0.606 0.137 0.929 0.137 0.64 0 1.236-0.188 1.738-0.511zM27.651 20.272c-0.045 0-0.090-0.002-0.134-0.005 0.645-1.057 1.11-2.235 1.351-3.491 0.453 0.359 0.743 0.914 0.743 1.536 0 1.081-0.88 1.961-1.961 1.961z"></path>
<path fill="#3c122c" d="M17.373 27.831c-0 0-0.001 0-0.001 0l-0.713 0.003v-1.464c0-0.209-0.17-0.379-0.379-0.379s-0.379 0.17-0.379 0.379v1.467l-0.715 0.003c-0.209 0.001-0.378 0.171-0.377 0.38s0.17 0.378 0.379 0.378h0.001l0.713-0.003v0.566c0 0.209 0.17 0.379 0.379 0.379s0.379-0.17 0.379-0.379v-0.568l0.715-0.003c0.209-0.001 0.378-0.171 0.377-0.38s-0.17-0.378-0.379-0.378z"></path>
<path fill="#3c122c" d="M25.95 25.687c-0.209 0-0.379-0.17-0.379-0.379v-0.696c0-0.209 0.17-0.379 0.379-0.379s0.379 0.17 0.379 0.379v0.696c0 0.209-0.17 0.379-0.379 0.379z"></path>
<path fill="#3c122c" d="M27.956 26.926c-0.209 0-0.379-0.17-0.379-0.379v-0.696c0-0.209 0.17-0.379 0.379-0.379s0.379 0.17 0.379 0.379v0.696c0 0.209-0.17 0.379-0.379 0.379z"></path>
<path fill="#3c122c" d="M26.569 28.684c-0.209 0-0.379-0.17-0.379-0.379v-0.696c0-0.209 0.17-0.379 0.379-0.379s0.379 0.17 0.379 0.379v0.696c0 0.209-0.17 0.379-0.379 0.379z"></path>
<path fill="#3c122c" d="M5.996 27.629c-0.209 0-0.379-0.17-0.379-0.379v-0.696c0-0.209 0.17-0.379 0.379-0.379s0.379 0.17 0.379 0.379v0.696c0 0.209-0.17 0.379-0.379 0.379z"></path>
</svg>
