<!-- Generated by IcoMoon.io -->
<svg version="1.1" xmlns="http://www.w3.org/2000/svg" width="32" height="32" viewBox="0 0 32 32">
<title>pirate</title>
<path fill="#a07575" d="M23.808 30.985v-2.131c0-4.354-3.53-7.884-7.884-7.884s-7.884 3.53-7.884 7.884v2.131z"></path>
<path fill="#d789b9" d="M21.187 30.985v-2.014c0-2.906-2.356-5.263-5.263-5.263s-5.263 2.356-5.263 5.263v2.014z"></path>
<path fill="#fff" d="M20.736 26.765h-9.646l-0.445 2.497h10.467z"></path>
<path fill="#c668b9" d="M16.476 23.743c1.522 0.685 2.593 2.309 2.593 4.206v0.456c0 0.71-0.576 1.286-1.286 1.286h-7.122v1.3h10.525v-2.014c0-2.72-2.064-4.958-4.71-5.234z"></path>
<path fill="#e1bdfc" d="M19.069 28.405c0 0.29-0.097 0.556-0.259 0.771h2.376v-0.2c0-0.768-0.165-1.497-0.46-2.155h-1.788c0.085 0.36 0.131 0.738 0.131 1.127v0.456z"></path>
<path fill="#a07575" d="M28.105 15.326c0.036-0.346 0.055-0.697 0.055-1.052 0-5.529-4.482-10.012-10.012-10.012h-4.45c-5.529 0-10.012 4.482-10.012 10.012 0 0.355 0.019 0.706 0.055 1.052-1.088 0.315-1.883 1.318-1.883 2.507 0 1.442 1.169 2.611 2.611 2.611 0.411 0 0.799-0.095 1.145-0.264 1.821 2.489 4.764 4.106 8.084 4.106h4.45c3.32 0 6.263-1.617 8.084-4.106 0.346 0.169 0.734 0.264 1.145 0.264 1.442 0 2.611-1.169 2.611-2.611-0-1.189-0.796-2.192-1.884-2.507z"></path>
<path fill="#d789b9" d="M3.629 10.29h24.312v2.708h-24.312z"></path>
<path fill="#925873" d="M24.981 12.902v0.194c0 4.483-3.634 8.116-8.117 8.116h-5.061c-4.29 0-7.802-3.328-8.096-7.543-0.013 0.209-0.020 0.42-0.020 0.632v0c0 5.529 4.482 10.012 10.012 10.012h4.45c5.529 0 10.012-4.482 10.012-10.012v-0c0-0.475-0.034-0.943-0.098-1.4h-3.081z"></path>
<path fill="#c668b9" d="M24.981 13.086h3.105c-0.121-0.994-0.386-1.943-0.776-2.825h-2.616c0.187 0.684 0.287 1.403 0.287 2.146v0.679z"></path>
<path fill="#9781dd" d="M27.863 4.973h-1.819c-0.208-2.217-2.422-3.958-10.121-3.958s-9.913 1.742-10.121 3.958h-1.83c-0.805 0-1.424 0.577-1.311 1.222l0.66 3.329c0.088 0.441 0.558 0.766 1.11 0.766h23.018c0.557 0 1.030-0.33 1.112-0.776l0.61-3.311c0.119-0.648-0.501-1.23-1.31-1.23z"></path>
<path fill="#8962de" d="M27.863 4.973h-4.205v0.271c0.471 0.111 0.785 0.43 0.706 0.777l-0.499 2.205c-0.067 0.297-0.454 0.517-0.91 0.517h-18.845c-0.452 0-0.837-0.216-0.909-0.51l-0.061-0.252h-0.123l0.306 1.543c0.088 0.441 0.558 0.766 1.11 0.766h23.018c0.557 0 1.030-0.33 1.112-0.776l0.61-3.311c0.119-0.648-0.501-1.23-1.31-1.23z"></path>
<path fill="#c2b2eb" d="M12.73 16.572c0 2.286-1.404 4.14-3.135 4.14s-3.135-1.853-3.135-4.14c0-2.286 6.27-2.286 6.27 0z"></path>
<path fill="#e8c2d8" d="M2.497 22.374l0.522 1.469c0.022 0.063 0.067 0.113 0.123 0.138l1.305 0.588c0.184 0.083 0.184 0.377 0 0.46l-1.305 0.588c-0.056 0.025-0.1 0.075-0.123 0.138l-0.522 1.469c-0.074 0.207-0.335 0.207-0.409 0l-0.522-1.469c-0.022-0.063-0.067-0.113-0.123-0.138l-1.305-0.588c-0.184-0.083-0.184-0.377 0-0.46l1.305-0.588c0.056-0.025 0.1-0.075 0.123-0.138l0.522-1.469c0.074-0.207 0.335-0.207 0.409 0z"></path>
<path fill="#e8c2d8" d="M27.988 27.213l0.387 1.090c0.017 0.047 0.049 0.084 0.091 0.102l0.968 0.436c0.137 0.062 0.137 0.279 0 0.341l-0.968 0.436c-0.041 0.019-0.074 0.056-0.091 0.102l-0.387 1.090c-0.055 0.154-0.248 0.154-0.303 0l-0.387-1.090c-0.017-0.047-0.049-0.084-0.091-0.102l-0.968-0.436c-0.137-0.062-0.137-0.279 0-0.341l0.968-0.436c0.041-0.019 0.074-0.056 0.091-0.102l0.387-1.090c0.055-0.154 0.248-0.154 0.303 0z"></path>
<path fill="#d789b9" d="M31.115 23.695c0.615 0.137 1.002 0.746 0.866 1.361s-0.746 1.003-1.361 0.866c-0.615-0.137-1.003-0.746-0.866-1.361s0.746-1.003 1.361-0.866z"></path>
<path fill="#d789b9" d="M29.889 2.137c0 0.272-0.22 0.492-0.492 0.492s-0.492-0.22-0.492-0.492c0-0.272 0.22-0.492 0.492-0.492s0.492 0.22 0.492 0.492z"></path>
<path fill="#d789b9" d="M5.523 28.78c0 0.272-0.22 0.492-0.492 0.492s-0.492-0.22-0.492-0.492c0-0.272 0.22-0.492 0.492-0.492s0.492 0.22 0.492 0.492z"></path>
<path fill="#3c122c" d="M28.777 14.905c0.012-0.209 0.019-0.419 0.019-0.631 0-1.224-0.208-2.401-0.59-3.496 0.51-0.211 0.887-0.631 0.982-1.149l0.61-3.311c0.084-0.455-0.040-0.908-0.348-1.278-0.366-0.44-0.96-0.703-1.588-0.703h-1.283c-0.274-1.112-1.027-1.991-2.253-2.622-1.747-0.9-4.496-1.337-8.403-1.337s-6.656 0.437-8.403 1.337c-1.225 0.631-1.979 1.51-2.253 2.622h-1.294c-0.624 0-1.216 0.26-1.583 0.697-0.308 0.367-0.434 0.818-0.355 1.271 0.001 0.005 0.002 0.010 0.003 0.014l0.66 3.329c0.099 0.498 0.461 0.903 0.948 1.115-0.385 1.1-0.596 2.281-0.596 3.511 0 0.212 0.007 0.422 0.019 0.631-1.092 0.524-1.848 1.639-1.848 2.928 0 1.79 1.456 3.247 3.247 3.247 0.325 0 0.639-0.049 0.935-0.138 0.979 1.215 2.217 2.211 3.632 2.903-1.026 1.407-1.632 3.139-1.632 5.009v2.131c0 0.351 0.285 0.636 0.636 0.636s0.636-0.285 0.636-0.636v-2.131c0-1.702 0.59-3.268 1.576-4.506 0.594 0.204 1.212 0.357 1.849 0.453-1.118 1.032-1.821 2.509-1.821 4.147v2.278c0 0.211 0.171 0.382 0.382 0.382s0.382-0.171 0.382-0.382v-1.584h9.762v1.584c0 0.211 0.171 0.382 0.382 0.382s0.382-0.171 0.382-0.382v-2.278c0-1.638-0.702-3.115-1.821-4.147 0.636-0.096 1.254-0.249 1.849-0.453 0.986 1.238 1.575 2.804 1.575 4.506v2.131c0 0.351 0.285 0.636 0.636 0.636s0.636-0.285 0.636-0.636v-2.131c0-1.871-0.606-3.602-1.632-5.009 1.415-0.692 2.654-1.688 3.632-2.903 0.296 0.089 0.609 0.139 0.934 0.139 1.79 0 3.247-1.456 3.247-3.247-0-1.289-0.756-2.405-1.848-2.928zM9.595 15.493c0.716 0 1.401 0.133 1.877 0.365 0.413 0.201 0.622 0.441 0.622 0.714 0 1.932-1.121 3.504-2.499 3.504s-2.499-1.572-2.499-3.504c0-0.595 1.121-1.079 2.499-1.079zM11.945 14.675c-0.643-0.293-1.472-0.454-2.349-0.454-0.916 0-1.78 0.175-2.434 0.493-0.863 0.419-1.338 1.079-1.338 1.858 0 0.495 0.060 0.979 0.173 1.438-0.371-0.075-0.724-0.199-1.050-0.374-0.402-1.044-0.624-2.178-0.624-3.362 0-0.282 0.013-0.561 0.038-0.837h7.922c-0.053 0.42-0.169 0.836-0.338 1.238zM4.461 12.674c0.104-0.605 0.267-1.189 0.482-1.749h21.962c0.215 0.559 0.377 1.144 0.482 1.749zM8.103 2.846c1.541-0.793 4.173-1.196 7.821-1.196s6.28 0.402 7.821 1.196c0.767 0.395 1.257 0.881 1.499 1.491h-18.641c0.242-0.61 0.732-1.096 1.499-1.491zM3.364 5.852c0.099-0.117 0.311-0.243 0.609-0.243h23.89c0.3 0 0.512 0.126 0.61 0.245 0.096 0.115 0.079 0.205 0.074 0.234l-0.61 3.311c-0.019 0.104-0.204 0.255-0.487 0.255h-23.018c-0.281 0-0.466-0.15-0.486-0.254l-0.659-3.32c-0.012-0.077 0.014-0.154 0.077-0.228zM4.47 19.808c-1.089 0-1.975-0.886-1.975-1.975 0-0.626 0.293-1.184 0.748-1.546 0.243 1.265 0.71 2.452 1.36 3.516-0.044 0.003-0.088 0.005-0.133 0.005zM20.804 28.88h-9.759c0.008-0.581 0.118-1.139 0.313-1.654h9.134c0.195 0.516 0.305 1.073 0.313 1.654zM20.122 26.463h-8.396c0.368-0.619 0.869-1.15 1.464-1.554 0.169 0.008 0.339 0.012 0.51 0.012h4.45c0.171 0 0.341-0.004 0.51-0.012 0.595 0.404 1.096 0.935 1.464 1.554zM18.149 23.649h-4.45c-3.335 0-6.268-1.75-7.93-4.38 0.251 0.051 0.506 0.084 0.764 0.099 0.102 0.18 0.215 0.352 0.338 0.514 0.715 0.944 1.683 1.465 2.724 1.465s2.009-0.52 2.724-1.465c0.675-0.892 1.047-2.068 1.047-3.311 0-0.409-0.133-0.785-0.382-1.111 0.312-0.646 0.51-1.33 0.578-2.023h13.924c0.024 0.276 0.038 0.555 0.038 0.837 0 5.17-4.206 9.376-9.376 9.376zM27.378 19.808c-0.045 0-0.089-0.003-0.133-0.006 0.649-1.064 1.116-2.25 1.359-3.514 0.455 0.362 0.749 0.919 0.749 1.545 0 1.089-0.886 1.975-1.975 1.975z"></path>
<path fill="#3c122c" d="M21.897 17.29c-0.617 0-1.118 0.5-1.118 1.118s0.5 1.118 1.118 1.118 1.118-0.5 1.118-1.118c0-0.617-0.5-1.118-1.118-1.118z"></path>
<path fill="#3c122c" d="M22.976 14.76c-0.050-0.025-0.504-0.249-1.079-0.249s-1.029 0.223-1.079 0.249c-0.188 0.096-0.262 0.326-0.166 0.513s0.326 0.262 0.513 0.166c0.003-0.002 0.335-0.165 0.732-0.165 0.396 0 0.73 0.164 0.732 0.165 0.056 0.028 0.115 0.042 0.173 0.042 0.139 0 0.273-0.076 0.34-0.208 0.096-0.188 0.021-0.418-0.166-0.513z"></path>
<path fill="#3c122c" d="M17.042 18.026c-0.211 0-0.382 0.171-0.382 0.382 0 0.406-0.33 0.736-0.736 0.736s-0.736-0.33-0.736-0.736c0-0.211-0.171-0.382-0.382-0.382s-0.382 0.171-0.382 0.382c0 0.827 0.673 1.499 1.499 1.499s1.499-0.673 1.499-1.499c0-0.211-0.171-0.382-0.382-0.382z"></path>
<path fill="#3c122c" d="M14.166 21.125c-0.211 0-0.382 0.171-0.382 0.382v0.721c0 0.211 0.171 0.382 0.382 0.382s0.382-0.171 0.382-0.382v-0.721c0-0.211-0.171-0.382-0.382-0.382z"></path>
<path fill="#3c122c" d="M15.924 21.655c-0.211 0-0.382 0.171-0.382 0.382v0.721c0 0.211 0.171 0.382 0.382 0.382s0.382-0.171 0.382-0.382v-0.721c0-0.211-0.171-0.382-0.382-0.382z"></path>
<path fill="#3c122c" d="M17.681 21.125c-0.211 0-0.382 0.171-0.382 0.382v0.721c0 0.211 0.171 0.382 0.382 0.382s0.382-0.171 0.382-0.382v-0.721c0-0.211-0.171-0.382-0.382-0.382z"></path>
<path fill="#fff" d="M10.27 7.938c-0.001 0-0.003 0-0.004 0l-2.499-0.016c-0.351-0.002-0.634-0.289-0.632-0.64 0.002-0.35 0.287-0.632 0.636-0.632h0.004l2.499 0.016c0.351 0.002 0.634 0.289 0.632 0.64-0.002 0.35-0.287 0.632-0.636 0.632z"></path>
<path fill="#fff" d="M5.419 7.922h-0.394c-0.351 0-0.636-0.285-0.636-0.636s0.285-0.636 0.636-0.636h0.394c0.351 0 0.636 0.285 0.636 0.636s-0.285 0.636-0.636 0.636z"></path>
</svg>
