<!-- Generated by IcoMoon.io -->
<svg version="1.1" xmlns="http://www.w3.org/2000/svg" width="32" height="32" viewBox="0 0 32 32">
<title>princess</title>
<path fill="#c49a8b" d="M28.066 15.944c0.036-0.341 0.054-0.686 0.054-1.037 0-5.448-4.416-9.865-9.865-9.865h-4.384c-5.448 0-9.865 4.417-9.865 9.865 0 0.35 0.019 0.696 0.054 1.037-1.072 0.311-1.856 1.299-1.856 2.471 0 1.421 1.152 2.572 2.572 2.572 0.405 0 0.788-0.094 1.128-0.26 1.098 1.501 2.611 2.679 4.368 3.368-1.23 1.374-1.979 3.189-1.979 5.179v2.1h15.536v-2.1c0-1.99-0.749-3.805-1.979-5.179 1.758-0.689 3.27-1.867 4.368-3.368 0.341 0.167 0.724 0.26 1.128 0.26 1.421 0 2.572-1.152 2.572-2.572 0-1.172-0.784-2.16-1.856-2.471z"></path>
<path fill="#ccf3e2" d="M8.358 28.279c-0.042 0.326-0.063 0.658-0.063 0.995v2.1h15.536v-2.1c0-0.337-0.021-0.669-0.063-0.995z"></path>
<path fill="#a1e8c3" d="M11.032 28.19c-0.091 0.385-0.141 0.786-0.141 1.199v1.984h10.371v-1.984c0-0.413-0.050-0.814-0.141-1.199z"></path>
<path fill="#ccf3e2" d="M16.075 29.593c-0.326-0-0.635-0.144-0.848-0.396-0.47-0.557-1.143-0.876-1.846-0.876-0.481 0-0.947 0.146-1.347 0.422-0.356 0.245-0.844 0.156-1.089-0.201s-0.156-0.844 0.2-1.089c0.663-0.457 1.437-0.699 2.236-0.699 0.999 0 1.957 0.384 2.694 1.066 0.737-0.683 1.695-1.066 2.694-1.066 0.786 0 1.549 0.234 2.205 0.678 0.358 0.242 0.453 0.729 0.211 1.087s-0.729 0.453-1.087 0.211c-0.396-0.268-0.856-0.409-1.328-0.409-0.703 0-1.376 0.319-1.846 0.876-0.212 0.252-0.521 0.396-0.848 0.396z"></path>
<path fill="#85adc2" d="M20.121 28.975c-0.108-0.061-0.152-0.154-0.152-0.248-0.011-0.007-0.022-0.015-0.033-0.022h-0.774v0.121c0 0.7-0.567 1.267-1.267 1.267h-7.017v1.281h10.371v-1.732c-0.383-0.207-0.746-0.451-1.127-0.667z"></path>
<path fill="#b1b6e1" d="M19.162 28.587c0.416 0.178 0.824 0.371 1.23 0.57h0.851c-0.040-0.895-0.305-1.73-0.742-2.451h-1.636c0.192 0.516 0.297 1.080 0.297 1.671v0.21z"></path>
<path fill="#af30fa" opacity="0.3" d="M13.871 24.842h3.698c0.571 0.483 1.021 1.125 1.295 1.864h1.636c-0.474-0.782-1.15-1.428-1.954-1.868 5.314-0.154 9.574-4.509 9.574-9.86v-0c0-5.448-4.416-9.865-9.865-9.865h-1.265c4.417 0 7.997 3.581 7.997 7.997v0.679c0 4.417-3.581 7.997-7.997 7.997h-4.987c-4.227 0-7.687-3.279-7.977-7.432-0.013 0.206-0.020 0.414-0.020 0.623v0c0 5.448 4.417 9.865 9.865 9.865z"></path>
<path fill="#e8a284" d="M29.72 14.745c-0.106-4.965-3.45-9.133-8.005-10.477 0.008-0.113 0.008-0.224-0.001-0.333-0.168-2.079-3.003-3.546-6.333-3.278-3.123 0.252-5.572 1.941-5.726 3.864-4.164 1.562-7.148 5.538-7.248 10.223 0 0 0.020 1.334 0.233 1.989l1.431-1.158c2.589 0.836 5.932 0.14 8.661-2.064 1.55-1.252 2.664-2.8 3.29-4.401 0.027-0.004 0.053-0.007 0.080-0.011 0.624 1.604 1.741 3.157 3.294 4.412 2.727 2.202 6.068 2.898 8.656 2.065l1.297 1.009c0.399-0.665 0.371-1.84 0.371-1.84z"></path>
<path fill="#fff" d="M22.451 5.775c-0.067-0.887-0.808-1.586-1.712-1.586-0.39 0-0.75 0.13-1.039 0.35l-1.132-0.434c-0.13-1.288-1.218-2.294-2.541-2.294s-2.411 1.006-2.541 2.294l-1.132 0.434c-0.288-0.219-0.648-0.35-1.039-0.35-0.885 0-1.613 0.669-1.707 1.529-1.147 0.788-1.86 2.101-1.86 3.535v0.22c5.371-2.312 10.886-2.385 16.557 0v-0.008c0-1.478-0.707-2.837-1.855-3.69z"></path>
<path fill="#faf1a9" d="M17.59 4.788c0 1.1-0.7 1.992-1.563 1.992s-1.563-0.892-1.563-1.992c0-1.1 0.7-1.992 1.563-1.992s1.563 0.892 1.563 1.992z"></path>
<path fill="#faf1a9" d="M12.266 5.946c0.197 0.566-0.016 1.154-0.475 1.313s-0.99-0.17-1.187-0.736 0.016-1.154 0.475-1.313 0.99 0.17 1.187 0.736z"></path>
<path fill="#faf1a9" d="M20.982 5.191c0.459 0.159 0.672 0.748 0.476 1.314s-0.728 0.896-1.187 0.737c-0.459-0.159-0.672-0.748-0.476-1.314s0.728-0.896 1.187-0.737z"></path>
<path fill="#ccf3e2" d="M28.662 23.601l0.515 1.447c0.022 0.062 0.066 0.111 0.121 0.136l1.286 0.579c0.182 0.082 0.182 0.371 0 0.453l-1.286 0.579c-0.055 0.025-0.099 0.074-0.121 0.136l-0.515 1.447c-0.073 0.204-0.33 0.204-0.403 0l-0.515-1.447c-0.022-0.062-0.066-0.111-0.121-0.136l-1.286-0.579c-0.182-0.082-0.182-0.371 0-0.453l1.286-0.579c0.055-0.025 0.099-0.074 0.121-0.136l0.515-1.447c0.073-0.204 0.33-0.204 0.403 0z"></path>
<path fill="#ccf3e2" d="M5.522 0.307l0.382 1.074c0.016 0.046 0.049 0.082 0.090 0.101l0.954 0.43c0.135 0.061 0.135 0.275 0 0.336l-0.954 0.43c-0.041 0.018-0.073 0.055-0.090 0.101l-0.382 1.074c-0.054 0.152-0.245 0.152-0.299 0l-0.382-1.074c-0.016-0.046-0.049-0.082-0.090-0.101l-0.954-0.43c-0.135-0.061-0.135-0.275 0-0.336l0.954-0.43c0.041-0.018 0.073-0.055 0.090-0.101l0.382-1.074c0.054-0.152 0.245-0.152 0.299 0z"></path>
<path fill="#a1e8c3" d="M2.251 5.752c0 0.268-0.217 0.485-0.485 0.485s-0.485-0.217-0.485-0.485c0-0.268 0.217-0.485 0.485-0.485s0.485 0.217 0.485 0.485z"></path>
<path fill="#3c122c" d="M30.017 16.652c0.344-0.783 0.332-1.797 0.329-1.92-0.066-3.099-1.323-6.001-3.539-8.173-1.287-1.262-2.815-2.194-4.477-2.755-0.128-1.195-0.945-2.238-2.309-2.944-1.299-0.672-2.965-0.966-4.691-0.827s-3.323 0.696-4.498 1.567c-0.954 0.708-1.551 1.562-1.744 2.467-1.389 0.571-2.667 1.41-3.77 2.491-2.216 2.172-3.473 5.075-3.539 8.173-0 0.008-0 0.015-0 0.023 0.002 0.139 0.026 1.319 0.23 2.058-0.274 0.471-0.431 1.018-0.431 1.601 0 1.764 1.435 3.199 3.199 3.199 0.32 0 0.629-0.048 0.92-0.136 0.964 1.197 2.186 2.179 3.58 2.86-1.011 1.386-1.609 3.092-1.609 4.936v2.1c0 0.346 0.281 0.627 0.627 0.627s0.627-0.281 0.627-0.627v-2.1c0-0.208 0.009-0.415 0.027-0.619h1.599c-0.030 0.233-0.046 0.47-0.046 0.711v2.245c0 0.208 0.168 0.376 0.376 0.376s0.376-0.168 0.376-0.376v-1.914c0.015-0.007 0.030-0.015 0.044-0.024 0.491-0.324 1.36-0.659 1.962-0.659 0.652 0 1.274 0.204 1.797 0.59 0.305 0.225 0.662 0.337 1.019 0.337s0.714-0.112 1.019-0.337c0.523-0.386 1.145-0.59 1.797-0.59 0.623 0 1.438 0.309 1.888 0.601 0.029 0.019 0.060 0.033 0.092 0.043v1.954c0 0.208 0.168 0.376 0.376 0.376s0.376-0.168 0.376-0.376v-2.245c0-0.241-0.016-0.478-0.046-0.711h1.599c0.018 0.204 0.027 0.41 0.027 0.619v2.1c0 0.346 0.281 0.627 0.627 0.627s0.627-0.281 0.627-0.627v-2.1c0-1.843-0.598-3.549-1.609-4.935 1.394-0.682 2.615-1.663 3.579-2.86 0.292 0.088 0.601 0.136 0.921 0.136 1.764 0 3.199-1.435 3.199-3.199 0-0.651-0.196-1.256-0.531-1.762zM9.822 6.028c0.090-0.062 0.149-0.16 0.161-0.269 0.074-0.681 0.647-1.194 1.333-1.194 0.296 0 0.576 0.095 0.811 0.273 0.104 0.079 0.241 0.098 0.362 0.052l1.132-0.434c0.133-0.051 0.225-0.172 0.24-0.313 0.113-1.115 1.044-1.956 2.167-1.956s2.054 0.841 2.167 1.956c0.014 0.141 0.107 0.263 0.24 0.313l1.132 0.434c0.121 0.046 0.258 0.027 0.362-0.052 0.235-0.179 0.515-0.273 0.811-0.273 0.697 0 1.285 0.544 1.337 1.239 0.008 0.109 0.063 0.208 0.151 0.273 0.914 0.679 1.512 1.706 1.665 2.822-2.664-1.046-5.343-1.573-7.978-1.563-2.593 0.008-5.205 0.535-7.773 1.567 0.104-1.155 0.716-2.211 1.681-2.875zM11.579 2.608c0.989-0.734 2.357-1.204 3.852-1.325 0.242-0.019 0.481-0.029 0.716-0.029 2.302 0 4.269 0.902 4.803 2.177-0.729-0.15-1.477-0.232-2.237-0.243-0.454-1.042-1.489-1.753-2.685-1.753s-2.232 0.711-2.686 1.754c-0.917 0.018-1.817 0.141-2.687 0.362 0.219-0.331 0.529-0.65 0.924-0.943zM9.295 5.362c-0.012 0.047-0.024 0.094-0.033 0.143-1.185 0.878-1.888 2.267-1.888 3.748-0.059 0.331 0.146 0.714 0.525 0.565 5.331-2.295 10.802-2.295 16.263 0.001 0.116 0.049 0.249 0.036 0.354-0.033s0.168-0.187 0.168-0.313v-0.008c0-1.51-0.698-2.953-1.876-3.891-0.014-0.084-0.033-0.167-0.056-0.248 3.649 1.608 6.254 5.23 6.344 9.433 0.004 0.2-0.012 0.497-0.060 0.788l-0.598-0.465c-0.164-0.127-0.38-0.165-0.577-0.102-2.491 0.802-5.583 0.053-8.071-1.956-1.45-1.171-2.535-2.637-3.139-4.24-0.092-0.244-0.326-0.406-0.586-0.406s-0.495 0.162-0.586 0.406c-0.604 1.603-1.689 3.069-3.139 4.24-2.489 2.010-5.583 2.759-8.074 1.955-0.201-0.065-0.422-0.024-0.587 0.109l-0.599 0.485c-0.029-0.335-0.042-0.654-0.045-0.826 0.094-4.166 2.659-7.761 6.262-9.385zM4.777 20.36c-1.073 0-1.946-0.873-1.946-1.946 0-0.616 0.288-1.167 0.737-1.523 0.24 1.247 0.7 2.416 1.34 3.464-0.044 0.003-0.087 0.005-0.132 0.005zM9.054 27.903c0.223-1.143 0.72-2.19 1.419-3.069 0.586 0.201 1.195 0.351 1.822 0.446-0.756 0.698-1.319 1.602-1.598 2.623h-1.644zM18.255 25.398c0.168 0 0.336-0.004 0.502-0.012 0.415 0.282 0.785 0.627 1.094 1.021-0.311-0.081-0.633-0.123-0.959-0.123-1.074 0-2.099 0.458-2.816 1.257-0.718-0.799-1.742-1.257-2.816-1.257-0.338 0-0.671 0.045-0.992 0.132 0.31-0.398 0.682-0.746 1.101-1.030 0.166 0.008 0.334 0.012 0.502 0.012zM18.892 28.262c-0.814 0-1.59 0.255-2.244 0.737-0.343 0.253-0.803 0.253-1.146-0-0.654-0.482-1.429-0.737-2.244-0.737-0.623 0-1.389 0.252-1.974 0.551 0.052-0.455 0.168-0.891 0.339-1.298 0.488-0.313 1.052-0.479 1.635-0.479 0.869 0 1.698 0.374 2.274 1.027 0.137 0.156 0.335 0.245 0.542 0.245s0.405-0.089 0.542-0.245c0.576-0.653 1.405-1.027 2.274-1.027 0.568 0 1.12 0.158 1.599 0.456 0.172 0.405 0.291 0.838 0.346 1.291-0.545-0.277-1.289-0.521-1.945-0.521zM23.072 27.903h-1.644c-0.279-1.021-0.842-1.925-1.598-2.623 0.627-0.095 1.236-0.245 1.822-0.446 0.7 0.879 1.197 1.926 1.42 3.069zM18.255 24.145h-4.384c-4.587 0-8.402-3.36-9.117-7.748 0.517 0.101 1.049 0.151 1.589 0.151 0.954-0 1.933-0.155 2.899-0.455 0.071 0.009 0.145-0.003 0.213-0.037 0.003-0.002 0.332-0.164 0.723-0.164s0.719 0.162 0.721 0.163c0.055 0.028 0.113 0.041 0.171 0.041 0.137 0 0.269-0.075 0.335-0.205 0.094-0.185 0.021-0.411-0.164-0.506-0.014-0.007-0.063-0.031-0.137-0.061 0.7-0.364 1.38-0.807 2.021-1.325 1.231-0.995 2.23-2.184 2.938-3.491 0.708 1.307 1.707 2.497 2.938 3.491 0.641 0.518 1.32 0.961 2.021 1.325-0.074 0.030-0.122 0.053-0.137 0.061-0.184 0.094-0.257 0.319-0.164 0.504s0.319 0.259 0.504 0.167c0.003-0.002 0.332-0.164 0.723-0.164s0.72 0.162 0.721 0.163c0.055 0.028 0.113 0.041 0.171 0.041 0.015 0 0.030-0.001 0.045-0.003 0.966 0.299 1.945 0.454 2.898 0.454 0.54 0 1.073-0.050 1.589-0.151-0.715 4.388-4.53 7.748-9.117 7.748zM27.349 20.36c-0.044 0-0.088-0.002-0.132-0.005 0.64-1.049 1.101-2.218 1.34-3.465 0.449 0.357 0.738 0.907 0.738 1.524 0 1.073-0.873 1.946-1.946 1.946z"></path>
<path fill="#3c122c" d="M17.164 18.604c-0.208 0-0.376 0.168-0.376 0.376 0 0.4-0.325 0.725-0.725 0.725s-0.725-0.325-0.725-0.725c0-0.208-0.168-0.376-0.376-0.376s-0.376 0.168-0.376 0.376c0 0.814 0.663 1.477 1.477 1.477s1.477-0.663 1.477-1.477c-0-0.208-0.168-0.376-0.376-0.376z"></path>
<path fill="#3c122c" d="M16.028 7.156c1.069 0 1.939-1.062 1.939-2.368s-0.87-2.368-1.939-2.368c-1.069 0-1.939 1.062-1.939 2.368s0.87 2.367 1.939 2.367zM16.028 3.173c0.654 0 1.187 0.725 1.187 1.616s-0.532 1.616-1.187 1.616c-0.654 0-1.187-0.725-1.187-1.616s0.532-1.616 1.187-1.616z"></path>
<path fill="#3c122c" d="M11.556 7.675c0.12 0 0.241-0.019 0.359-0.060 0.654-0.227 0.971-1.031 0.707-1.792s-1.011-1.195-1.665-0.968c-0.654 0.227-0.971 1.031-0.707 1.792 0.217 0.624 0.758 1.028 1.307 1.028zM11.203 5.565c0.038-0.013 0.077-0.019 0.116-0.019 0.232 0 0.484 0.214 0.592 0.524 0.126 0.363 0.015 0.745-0.243 0.835s-0.582-0.141-0.708-0.504c-0.126-0.363-0.015-0.745 0.243-0.835z"></path>
<path fill="#3c122c" d="M20.145 7.603c0.118 0.041 0.238 0.060 0.359 0.060 0.549 0 1.090-0.404 1.307-1.028 0.264-0.761-0.053-1.565-0.707-1.792s-1.401 0.207-1.665 0.968c-0.264 0.761 0.053 1.565 0.707 1.792zM20.148 6.058c0.108-0.31 0.36-0.524 0.592-0.524 0.040 0 0.079 0.006 0.116 0.019 0.258 0.090 0.37 0.472 0.244 0.835s-0.451 0.594-0.708 0.504c-0.258-0.090-0.369-0.472-0.243-0.835z"></path>
<path fill="#3c122c" d="M26.43 14.012c0.208 0 0.376-0.168 0.376-0.376v-0.71c0-0.208-0.168-0.376-0.376-0.376s-0.376 0.168-0.376 0.376v0.71c0 0.208 0.168 0.376 0.376 0.376z"></path>
<path fill="#3c122c" d="M24.087 13.226c0.208 0 0.376-0.168 0.376-0.376v-0.71c0-0.208-0.168-0.376-0.376-0.376s-0.376 0.168-0.376 0.376v0.71c0 0.208 0.168 0.376 0.376 0.376z"></path>
<path fill="#3c122c" d="M10.178 17.879c-0.608 0-1.101 0.493-1.101 1.101s0.493 1.101 1.101 1.101c0.608 0 1.101-0.493 1.101-1.101s-0.493-1.101-1.101-1.101z"></path>
<path fill="#3c122c" d="M21.948 17.879c-0.608 0-1.101 0.493-1.101 1.101s0.493 1.101 1.101 1.101 1.101-0.493 1.101-1.101-0.493-1.101-1.101-1.101z"></path>
<path fill="#fff" d="M7.552 14.419c-0.296 0-0.559-0.21-0.615-0.512-0.064-0.34 0.161-0.668 0.501-0.731 0.2-0.037 0.401-0.083 0.597-0.136 0.334-0.090 0.678 0.107 0.768 0.441s-0.107 0.678-0.441 0.768c-0.228 0.062-0.462 0.115-0.694 0.158-0.039 0.007-0.078 0.011-0.116 0.011z"></path>
<path fill="#fff" d="M10.115 13.477c-0.216 0-0.426-0.112-0.542-0.312-0.174-0.299-0.072-0.683 0.227-0.857 0.687-0.399 1.279-0.898 1.761-1.482 0.22-0.267 0.615-0.305 0.882-0.085s0.305 0.615 0.085 0.882c-0.576 0.7-1.282 1.295-2.098 1.769-0.099 0.057-0.207 0.085-0.314 0.085z"></path>
</svg>
