<!-- Generated by IcoMoon.io -->
<svg version="1.1" xmlns="http://www.w3.org/2000/svg" width="32" height="32" viewBox="0 0 32 32">
<title>prisioner</title>
<path fill="#fff" d="M23.868 31.371v-2.107c0-4.305-3.49-7.795-7.795-7.795s-7.795 3.49-7.795 7.795v2.107z"></path>
<path fill="#9781dd" d="M21.277 30.124v-0.744c0-0.181-0.009-0.36-0.027-0.536h-10.352c-0.018 0.176-0.027 0.355-0.027 0.536v0.744h-2.592v1.168h2.648v-0.663h10.238v0.663h2.704v-1.168z"></path>
<path fill="#9781dd" d="M11.651 26.913v-0.172h8.906c-0.008-0.013-0.016-0.025-0.023-0.038 0.4 0.457 0.717 0.992 0.989 1.546h2.279c-0.082-0.631-0.24-1.237-0.463-1.811h-2.816v0.248c-0.912-1.504-2.563-2.51-4.451-2.51-1.868 0-3.504 0.985-4.422 2.463v-0.201h-2.844c-0.223 0.574-0.381 1.181-0.463 1.811h2.61c0.154-0.469 0.382-0.947 0.697-1.337z"></path>
<path fill="#efc5b4" d="M28.122 15.89c0.062-0.446 0.094-0.902 0.094-1.365 0-5.467-4.432-9.899-9.899-9.899h-4.399c-5.467 0-9.899 4.432-9.899 9.899 0 0.455 0.031 0.902 0.091 1.341-1.117 0.284-1.944 1.296-1.944 2.502 0 1.426 1.156 2.581 2.581 2.581 0.489 0 0.947-0.136 1.337-0.373 1.81 2.34 4.646 3.847 7.833 3.847h4.399c3.171 0 5.994-1.492 7.806-3.811 0.376 0.214 0.811 0.337 1.274 0.337 1.426 0 2.581-1.156 2.581-2.581 0-1.174-0.784-2.165-1.857-2.478z"></path>
<path fill="#d994b3" d="M18.273 4.941h-1.269c4.432 0 8.025 3.593 8.025 8.025v0.681c0 4.432-3.593 8.025-8.025 8.025h-5.004c-4.241 0-7.714-3.291-8.005-7.458-0.013 0.207-0.020 0.415-0.020 0.625v0c0 5.467 4.432 9.899 9.899 9.899h4.399c5.467 0 9.899-4.432 9.899-9.899v-0c0-5.467-4.432-9.899-9.899-9.899z"></path>
<path fill="#f6e06e" d="M27.308 18.769c1.182-0.732 2.309-2.185 2.324-3.784v-1.161c0-6.432-5.214-11.646-11.646-11.646h-3.824c-6.432 0-11.646 5.214-11.646 11.646v1.161c0.082 2.039 1.302 3.127 2.165 3.84 5.133-2.337 11.516-6.129 16.268-10.544 1.68 4.080 3.599 7.247 6.36 10.488z"></path>
<path fill="#fff" d="M24.677 7.709h-17.208v-4.537c0-1.343 1.089-2.431 2.431-2.431h12.345c1.343 0 2.431 1.089 2.431 2.431v4.537z"></path>
<path fill="#9781dd" d="M24.666 2.947c-0.113-1.238-1.153-2.208-2.421-2.208h-12.345c-1.267 0-2.308 0.97-2.421 2.208z"></path>
<path fill="#9781dd" d="M7.469 5.33h17.208v2.379h-17.208z"></path>
<path fill="#8962de" d="M22.246 0.74h-2.524c1.069 0 1.935 0.866 1.935 1.935v1.58c0 1.015-0.823 1.837-1.837 1.837h-12.35v1.617h17.208v-4.537c0-1.343-1.089-2.431-2.431-2.431z"></path>
<path fill="#e1bdfc" d="M24.677 5.181v-1.821h-3.021v0.894c0 0.338-0.092 0.654-0.251 0.927h3.272z"></path>
<path fill="#e1bdfc" d="M16.619 24.174c1.505 0.677 2.564 2.283 2.564 4.158v0.451c0 0.702-0.569 1.271-1.271 1.271h-7.041v1.285h10.407v-1.991c-0-2.689-2.040-4.902-4.657-5.175z"></path>
<path fill="#8962de" d="M18.927 26.776h1.669c-0.81-1.421-2.271-2.424-3.977-2.602 1.066 0.479 1.907 1.425 2.308 2.602z"></path>
<path fill="#8962de" d="M21.277 30.605v-1.256c0-0.149-0.007-0.297-0.020-0.443h-2.080c-0.062 0.645-0.604 1.149-1.265 1.149h-7.041v0.55h10.407z"></path>
<path fill="#faf1a9" d="M2.593 25.538l0.516 1.452c0.022 0.062 0.066 0.111 0.121 0.136l1.29 0.581c0.182 0.082 0.182 0.373 0 0.455l-1.29 0.581c-0.055 0.025-0.099 0.074-0.121 0.136l-0.516 1.452c-0.073 0.205-0.331 0.205-0.404 0l-0.516-1.452c-0.022-0.062-0.066-0.111-0.121-0.136l-1.29-0.581c-0.182-0.082-0.182-0.373 0-0.455l1.29-0.581c0.055-0.025 0.099-0.074 0.121-0.136l0.516-1.452c0.073-0.205 0.331-0.205 0.404 0z"></path>
<path fill="#faf1a9" d="M27.784 23.471l0.383 1.077c0.016 0.046 0.049 0.083 0.090 0.101l0.957 0.431c0.135 0.061 0.135 0.276 0 0.337l-0.957 0.431c-0.041 0.018-0.073 0.055-0.090 0.101l-0.383 1.077c-0.054 0.152-0.246 0.152-0.3 0l-0.383-1.077c-0.016-0.046-0.049-0.083-0.090-0.101l-0.957-0.431c-0.135-0.061-0.135-0.276 0-0.337l0.957-0.431c0.041-0.018 0.073-0.055 0.090-0.101l0.383-1.077c0.054-0.152 0.246-0.152 0.3 0z"></path>
<path fill="#f6e06e" d="M31.875 29.523c0 0.623-0.505 1.128-1.128 1.128s-1.128-0.505-1.128-1.128 0.505-1.128 1.128-1.128c0.623 0 1.128 0.505 1.128 1.128z"></path>
<path fill="#f6e06e" d="M6.805 25.267c0 0.269-0.218 0.486-0.487 0.486s-0.487-0.218-0.487-0.486 0.218-0.486 0.487-0.486 0.487 0.218 0.487 0.486z"></path>
<path fill="#3c122c" d="M30.043 16.552c0.157-0.454 0.264-0.948 0.324-1.486 0.003-0.027 0.005-0.054 0.005-0.081v-1.161c0-4.043-1.948-7.638-4.954-9.9v-0.752c-0-1.749-1.423-3.171-3.171-3.171h-12.345c-1.749 0-3.171 1.423-3.171 3.171v0.752c-3.006 2.262-4.954 5.857-4.954 9.9v1.161c0 0.036 0.003 0.071 0.008 0.106 0.077 0.531 0.196 1.002 0.346 1.425-0.371 0.524-0.59 1.162-0.59 1.852 0 1.77 1.44 3.21 3.21 3.21 0.321 0 0.631-0.049 0.924-0.137 0.967 1.201 2.193 2.186 3.591 2.87-1.015 1.391-1.614 3.103-1.614 4.953v2.107c0 0.347 0.282 0.629 0.629 0.629s0.629-0.282 0.629-0.629v-0.828h1.586v1.066c0 0.208 0.169 0.377 0.377 0.377s0.377-0.169 0.377-0.377v-0.59h9.652v0.59c0 0.208 0.169 0.377 0.377 0.377s0.377-0.169 0.377-0.377v-1.066h1.586v0.828c0 0.347 0.282 0.629 0.629 0.629s0.629-0.282 0.629-0.629v-2.107c0-1.85-0.6-3.561-1.615-4.953 1.399-0.684 2.625-1.669 3.592-2.871 0.293 0.088 0.602 0.137 0.923 0.137 1.77 0 3.21-1.44 3.21-3.21 0-0.674-0.209-1.298-0.565-1.815zM25.417 7.709v-1.86c2.137 1.992 3.475 4.83 3.475 7.975v1.12c-0.174 1.492-0.78 2.3-1.451 2.834-2.388-2.89-4.101-5.735-5.621-9.328h2.858c0.409 0 0.74-0.331 0.74-0.74zM23.937 3.584v1.28h-15.728v-1.28zM8.209 5.619h15.728v1.35h-15.728zM9.901 1.48h12.345c0.816 0 1.499 0.581 1.657 1.35h-15.659c0.158-0.77 0.841-1.35 1.657-1.35zM3.255 13.823c0-3.144 1.339-5.981 3.475-7.973v1.859c0 0.409 0.331 0.74 0.74 0.74h12.19c-3.947 3.478-9.395 6.968-14.853 9.505-0.674-0.63-1.32-1.509-1.551-3.023zM4.748 20.32c-1.077 0-1.953-0.876-1.953-1.953 0-0.148 0.017-0.292 0.048-0.431 0.427 0.627 0.916 1.089 1.365 1.459 0.071 0.059 0.152 0.102 0.236 0.131 0.134 0.27 0.28 0.533 0.436 0.789-0.044 0.003-0.088 0.005-0.133 0.005zM12.293 25.257c-0.252 0.233-0.483 0.488-0.689 0.764-0.017-0.002-0.035-0.004-0.052-0.004h-1.865c0.219-0.429 0.48-0.833 0.778-1.207 0.588 0.202 1.199 0.352 1.829 0.448zM18.273 25.375c0.169 0 0.337-0.005 0.504-0.012 0.453 0.308 0.852 0.69 1.177 1.13h-3.503v-1.117zM23.11 27.903h-1.649c-0.107-0.396-0.257-0.775-0.444-1.132h1.775c0.136 0.364 0.243 0.742 0.318 1.132zM9.355 26.771h1.775c-0.187 0.356-0.337 0.735-0.444 1.132h-1.648c0.075-0.389 0.182-0.767 0.318-1.132zM11.735 27.248h3.962v0.592c0 0.208 0.169 0.377 0.377 0.377s0.377-0.169 0.377-0.377v-0.592h3.962c0.174 0.355 0.305 0.734 0.387 1.132h-9.452c0.082-0.397 0.214-0.776 0.387-1.132zM15.696 26.493h-3.503c0.326-0.44 0.724-0.822 1.177-1.13 0.167 0.008 0.335 0.012 0.504 0.012h1.822v1.117zM8.907 29.789v-0.525c0-0.204 0.009-0.407 0.026-0.607h1.604c-0.029 0.229-0.044 0.463-0.044 0.7v0.432h-1.586zM11.247 30.266v-0.909c0-0.075 0.002-0.149 0.006-0.223h9.641c0.003 0.074 0.006 0.148 0.006 0.223v0.909zM21.654 29.789v-0.432c0-0.237-0.015-0.471-0.044-0.7h1.603c0.017 0.2 0.026 0.402 0.026 0.607v0.525h-1.586zM22.46 26.016h-1.857c-0.020 0-0.040 0.002-0.059 0.005-0.206-0.276-0.437-0.531-0.69-0.764 0.629-0.095 1.24-0.247 1.828-0.448 0.298 0.374 0.559 0.778 0.778 1.208zM18.273 24.118h-4.399c-3.549 0-6.636-2.005-8.194-4.941 5.512-2.591 10.999-6.124 14.993-9.649 1.579 3.619 3.378 6.517 5.878 9.491-1.529 3.022-4.665 5.099-8.277 5.099zM27.398 20.32c-0.044 0-0.088-0.002-0.132-0.005 0.193-0.316 0.369-0.643 0.528-0.979 0.617-0.396 1.119-0.852 1.512-1.379 0.029 0.133 0.044 0.27 0.044 0.411 0 1.077-0.876 1.953-1.953 1.953z"></path>
<path fill="#3c122c" d="M11.258 18.759c0.098 0.602-0.31 1.17-0.913 1.269s-1.17-0.31-1.269-0.913c-0.098-0.602 0.31-1.17 0.913-1.269s1.17 0.31 1.269 0.913z"></path>
<path fill="#3c122c" d="M23.084 18.935c0 0.61-0.495 1.105-1.105 1.105s-1.105-0.495-1.105-1.105c0-0.61 0.495-1.105 1.105-1.105s1.105 0.495 1.105 1.105z"></path>
<path fill="#3c122c" d="M23.046 15.329c-0.049-0.025-0.498-0.246-1.067-0.246s-1.017 0.221-1.067 0.246c-0.185 0.094-0.258 0.32-0.165 0.506s0.32 0.26 0.506 0.167c0.003-0.002 0.334-0.164 0.725-0.164s0.722 0.162 0.724 0.163c0.055 0.028 0.113 0.041 0.171 0.041 0.137-0 0.27-0.075 0.336-0.206 0.095-0.186 0.021-0.413-0.165-0.508z"></path>
<path fill="#3c122c" d="M16.073 18.558c-0.817 0-1.482 0.665-1.482 1.482 0 0.208 0.169 0.377 0.377 0.377s0.377-0.169 0.377-0.377c0-0.401 0.326-0.728 0.728-0.728s0.728 0.326 0.728 0.728c0 0.208 0.169 0.377 0.377 0.377s0.377-0.169 0.377-0.377c0-0.817-0.665-1.482-1.482-1.482z"></path>
<path fill="#fff" d="M8.254 14.64c-0.221 0-0.436-0.117-0.55-0.324-0.168-0.304-0.059-0.686 0.245-0.855 0.838-0.465 1.673-0.955 2.48-1.456 0.295-0.183 0.683-0.092 0.866 0.203s0.092 0.683-0.203 0.866c-0.825 0.512-1.677 1.012-2.533 1.487-0.097 0.054-0.201 0.079-0.304 0.079z"></path>
<path fill="#fff" d="M5.814 15.919c-0.232 0-0.455-0.129-0.564-0.35-0.154-0.311-0.026-0.688 0.285-0.842 0.153-0.076 0.306-0.152 0.458-0.229 0.31-0.157 0.688-0.032 0.845 0.277s0.032 0.688-0.277 0.845c-0.156 0.079-0.312 0.157-0.468 0.234-0.090 0.044-0.185 0.065-0.278 0.065z"></path>
</svg>
