<!-- Generated by IcoMoon.io -->
<svg version="1.1" xmlns="http://www.w3.org/2000/svg" width="32" height="32" viewBox="0 0 32 32">
<title>scarecrow</title>
<path fill="#a1e8c3" d="M23.744 31.321v-2.099c0-4.289-3.477-7.765-7.765-7.765s-7.765 3.477-7.765 7.765v2.099z"></path>
<path fill="#85adc2" d="M16.523 24.183c1.499 0.674 2.554 2.275 2.554 4.142v0.449c0 0.7-0.567 1.267-1.267 1.267h-7.015v1.28h10.367v-1.983c0-2.679-2.032-4.883-4.639-5.155z"></path>
<path fill="#f3d4d2" d="M29.646 17.376c0.544 1.312-0.079 2.817-1.391 3.361s-2.817-0.079-3.361-1.391c-0.544-1.312 0.079-2.817 1.391-3.361s2.817 0.079 3.361 1.391z"></path>
<path fill="#f3d4d2" d="M7.080 17.383c0.544 1.312-0.079 2.817-1.391 3.361s-2.817-0.079-3.361-1.391c-0.544-1.312 0.079-2.817 1.391-3.361s2.817 0.079 3.361 1.391z"></path>
<path fill="#c49a8b" d="M26.467 28.781c-0.498 0.285-1.027 0.552-2.020 0.552-2.125 0-2.125-1.226-4.251-1.226s-2.125 1.226-4.251 1.226c-2.125 0-2.125-1.226-4.251-1.226s-2.125 1.226-4.251 1.226c-1.009 0-1.539-0.276-2.044-0.566-0.56-0.321 2.492-4.272 2.492-4.272-3.279-1.574-4.528-5.002-4.713-9.402 0-6.084 4.689-11.017 10.473-11.017h4.655c5.784 0 10.473 4.932 10.473 11.017-0.124 4.416-1.631 7.641-4.769 9.462 0 0 3.026 3.901 2.457 4.227z"></path>
<path fill="#f3d4d2" d="M13.201 19.581c-0.324 1.728-2.254 3.547-3.982 3.223s-2.601-2.668-2.277-4.396c0.324-1.728 1.988-2.867 3.716-2.543s2.867 1.988 2.543 3.716z"></path>
<path fill="#f3d4d2" d="M18.745 19.581c0.324 1.728 2.254 3.547 3.982 3.223s2.601-2.668 2.277-4.396c-0.324-1.728-1.988-2.867-3.716-2.543s-2.867 1.988-2.543 3.716z"></path>
<path fill="#b2748a" d="M28.779 15.093c0-6.084-4.689-11.017-10.473-11.017h-2.14c4.966 0 8.992 4.366 8.992 9.751-0.091 3.364-1.063 7.037-3.050 9.023-0.483 0.482-0.466 1.268 0.047 1.719 0.643 0.566 1.282 1.218 1.018 1.374-0.428 0.252-0.882 0.489-1.734 0.489-1.825 0-1.825-1.085-3.65-1.085s-1.825 1.085-3.65 1.085-1.825-1.085-3.649-1.085c-1.825 0-1.825 1.085-3.649 1.085-0.122 0-0.235-0.005-0.342-0.014-0.718 1.056-1.388 2.184-1.099 2.35 0.506 0.29 1.036 0.566 2.044 0.566 2.125 0 2.125-1.226 4.251-1.226s2.125 1.226 4.251 1.226c2.125 0 2.125-1.226 4.251-1.226s2.126 1.226 4.251 1.226c0.992 0 1.521-0.267 2.020-0.552 0.569-0.325-2.457-4.227-2.457-4.227 3.138-1.821 4.645-5.046 4.769-9.462z"></path>
<path fill="#da9fd0" d="M25.004 18.408c-0.059-0.315-0.163-0.61-0.303-0.88-0.475 2.105-1.322 4.042-2.577 5.305 0.202 0.016 0.404 0.009 0.603-0.029 1.728-0.324 2.601-2.668 2.277-4.396z"></path>
<path fill="#f6e06e" d="M11.804 7.499c-0.495-0.358-1.186-0.247-1.544 0.248l-0.721 0.997c-0.039-0.183-0.123-0.359-0.257-0.509-0.407-0.455-1.106-0.495-1.562-0.088l-6.975 6.235c-0.455 0.407-0.495 1.106-0.088 1.562s1.106 0.495 1.562 0.087l5.792-5.178-3.236 4.472c-0.358 0.495-0.247 1.186 0.248 1.544s1.186 0.247 1.544-0.248l5.484-7.579c0.358-0.495 0.247-1.186-0.248-1.544z"></path>
<path fill="#f6e06e" d="M16.242 6.872c-0.561-0.241-1.212 0.018-1.453 0.579l-3.698 8.593c-0.242 0.561 0.018 1.212 0.579 1.453s1.212-0.018 1.453-0.579l3.698-8.593c0.241-0.561-0.018-1.212-0.579-1.453z"></path>
<path fill="#f6e06e" d="M31.255 14.382l-6.975-6.235c-0.455-0.407-1.155-0.368-1.562 0.088-0.134 0.15-0.218 0.325-0.257 0.509l-0.721-0.997c-0.358-0.495-1.049-0.606-1.544-0.248s-0.606 1.050-0.248 1.544l5.484 7.579c0.358 0.495 1.049 0.606 1.544 0.248s0.606-1.050 0.248-1.544l-3.236-4.472 5.792 5.177c0.455 0.407 1.155 0.368 1.562-0.088s0.368-1.155-0.087-1.562z"></path>
<path fill="#f4dab5" d="M28.66 7.505h-2.562v-4.7c0-1.174-0.952-2.126-2.126-2.126h-15.782c-1.174 0-2.126 0.952-2.126 2.126v4.7h-2.765c-1.071 0-1.94 0.868-1.94 1.94v0.050c0 1.071 0.869 1.94 1.94 1.94h25.362c1.071 0 1.94-0.869 1.94-1.94v-0.050c0-1.071-0.869-1.94-1.94-1.94z"></path>
<path fill="#a1e8c3" d="M6.021 4.274h19.985v3.265h-19.985z"></path>
<path fill="#dba2b3" d="M26.098 7.539v-4.734c0-1.174-0.952-2.126-2.126-2.126h-3.207c0.851 0 1.541 0.69 1.541 1.541v1.872c0 0.927-0.751 1.678-1.678 1.678h-14.564v1.77z"></path>
<path fill="#85adc2" d="M22.283 4.362c-0.13 0.798-0.822 1.407-1.656 1.407h-14.564v1.77h20.035v-3.177z"></path>
<path fill="#ccf3e2" d="M2.274 23.332l0.382 1.073c0.016 0.046 0.049 0.082 0.090 0.101l0.954 0.43c0.135 0.061 0.135 0.275 0 0.336l-0.954 0.43c-0.041 0.018-0.073 0.055-0.090 0.101l-0.382 1.073c-0.054 0.152-0.245 0.152-0.298 0l-0.382-1.073c-0.016-0.046-0.049-0.082-0.089-0.101l-0.954-0.43c-0.135-0.061-0.135-0.275 0-0.336l0.954-0.43c0.041-0.018 0.073-0.055 0.089-0.101l0.382-1.073c0.054-0.152 0.245-0.152 0.298 0z"></path>
<path fill="#a1e8c3" d="M31.3 27.371c0 0.62-0.503 1.123-1.123 1.123s-1.123-0.503-1.123-1.123c0-0.62 0.503-1.123 1.123-1.123s1.123 0.503 1.123 1.123z"></path>
<path fill="#a1e8c3" d="M29.308 24.040c0.102 0.247-0.015 0.531-0.262 0.633s-0.531-0.015-0.633-0.262c-0.102-0.247 0.015-0.531 0.262-0.633s0.531 0.015 0.633 0.262z"></path>
<path fill="#3c122c" d="M18.213 21.791l-0.894 0.893-0.971-0.903c-0.14-0.13-0.355-0.135-0.5-0.010l-1.092 0.934-1.024-0.936c-0.153-0.14-0.391-0.13-0.531 0.024s-0.129 0.391 0.024 0.531l1.269 1.161c0.14 0.128 0.354 0.132 0.498 0.008l1.090-0.932 0.991 0.922c0.072 0.067 0.164 0.101 0.256 0.101 0.096 0 0.193-0.037 0.266-0.11l1.15-1.15c0.147-0.147 0.147-0.385 0-0.531s-0.385-0.147-0.531-0z"></path>
<path fill="#3c122c" d="M24.027 15.85c-0.84-0.575-1.853-0.788-2.854-0.6s-1.868 0.753-2.442 1.593c-0.575 0.84-0.788 1.853-0.6 2.854 0.184 0.98 0.809 2.005 1.674 2.742 0.784 0.668 1.677 1.028 2.52 1.028 0.176 0 0.35-0.016 0.52-0.048 1-0.188 1.838-0.906 2.36-2.022 0.446-0.955 0.602-2.116 0.417-3.105-0.188-1-0.753-1.868-1.593-2.442zM24.068 20.867c-0.2 0.429-0.656 1.171-1.456 1.321-0.099 0.019-0.2 0.028-0.301 0.028-1.292-0-2.705-1.447-2.95-2.75-0.126-0.671 0.017-1.352 0.403-1.916s0.968-0.944 1.639-1.070c0.159-0.030 0.318-0.044 0.477-0.044 0.51 0 1.009 0.153 1.439 0.448 0.564 0.386 0.944 0.968 1.070 1.639 0.139 0.741 0.019 1.617-0.32 2.344z"></path>
<path fill="#3c122c" d="M31.998 15.124c-0.022-0.395-0.197-0.758-0.492-1.022l-2.339-2.091c1.173-0.236 2.060-1.274 2.060-2.516v-0.050c0-1.415-1.151-2.566-2.566-2.566h-1.936v-4.074c0-1.518-1.235-2.753-2.753-2.753h-15.782c-1.518 0-2.753 1.235-2.753 2.753v4.074h-2.139c-1.415 0-2.566 1.151-2.566 2.566v0.050c0 1.254 0.904 2.3 2.095 2.522l-2.332 2.085c-0.295 0.264-0.47 0.627-0.492 1.022s0.111 0.775 0.375 1.071c0.292 0.327 0.698 0.494 1.106 0.494 0.194 0 0.389-0.039 0.572-0.116-0.349 0.512-0.555 1.13-0.555 1.795 0 1.521 1.067 2.796 2.492 3.119 0.717 1.392 1.701 2.46 2.961 3.215-0.251 0.339-0.58 0.792-0.907 1.269-1.348 1.968-1.393 2.473-1.324 2.822 0.045 0.224 0.175 0.408 0.366 0.518 0.596 0.342 1.225 0.65 2.356 0.65 0.049 0 0.096-0.002 0.143-0.003v1.364c0 0.346 0.28 0.626 0.626 0.626s0.626-0.28 0.626-0.626v-1.564c0.419-0.136 0.742-0.321 1.043-0.494 0.183-0.105 0.356-0.205 0.548-0.29-0.007 0.113-0.011 0.227-0.011 0.341v2.244c0 0.208 0.168 0.376 0.376 0.376s0.376-0.168 0.376-0.376v-2.244c0-0.187 0.012-0.371 0.034-0.552 0.147-0.018 0.309-0.029 0.49-0.029 0.895 0 1.32 0.245 1.812 0.529 0.566 0.327 1.208 0.697 2.438 0.697s1.872-0.37 2.438-0.697c0.492-0.284 0.917-0.529 1.813-0.529 0.21 0 0.394 0.014 0.559 0.038 0.020 0.178 0.031 0.359 0.031 0.543v2.244c0 0.208 0.168 0.376 0.376 0.376s0.376-0.168 0.376-0.376v-2.244c0-0.104-0.003-0.208-0.009-0.31 0.165 0.077 0.319 0.166 0.48 0.258 0.316 0.182 0.656 0.378 1.109 0.516v1.543c0 0.346 0.28 0.626 0.626 0.626s0.626-0.28 0.626-0.626v-1.363c0.026 0 0.051 0.001 0.077 0.001 1.126 0 1.769-0.314 2.33-0.635 0.193-0.111 0.325-0.296 0.37-0.522 0.070-0.351 0.026-0.856-1.308-2.8-0.333-0.485-0.667-0.944-0.918-1.281 1.227-0.833 2.205-1.906 2.931-3.213 1.481-0.279 2.606-1.581 2.606-3.142 0-0.676-0.211-1.303-0.57-1.82 0.199 0.094 0.415 0.141 0.63 0.141 0.407 0 0.813-0.167 1.106-0.494 0.264-0.295 0.397-0.675 0.375-1.070zM8.19 1.305h15.782c0.827 0 1.5 0.673 1.5 1.5v1.159h-18.782v-1.159c0-0.827 0.673-1.5 1.5-1.5zM6.689 4.715h18.782v2.163h-18.782zM1.984 9.495v-0.050c0-0.724 0.589-1.313 1.314-1.313h25.362c0.724 0 1.314 0.589 1.314 1.313v0.050c0 0.724-0.589 1.313-1.314 1.313h-25.362c-0.724 0-1.313-0.589-1.313-1.313zM24.399 12.061l2.521 3.485c0.236 0.326 0.163 0.784-0.163 1.020-0.158 0.114-0.351 0.16-0.544 0.129s-0.362-0.135-0.476-0.293l-3.141-4.341zM12.585 19.466c-0.264 1.405-1.887 2.979-3.251 2.722-0.8-0.15-1.255-0.892-1.456-1.321-0.34-0.727-0.459-1.603-0.32-2.344 0.23-1.228 1.307-2.087 2.513-2.087 0.156 0 0.314 0.014 0.472 0.044 0.028 0.005 0.055 0.012 0.082 0.018 0.002 0.18 0.037 0.359 0.105 0.531 0.146 0.368 0.427 0.656 0.791 0.813 0.188 0.081 0.387 0.122 0.586 0.122 0.097 0 0.194-0.010 0.29-0.030 0.212 0.463 0.289 0.994 0.188 1.532zM12.777 16.77c-0.077 0.179-0.219 0.317-0.4 0.39s-0.38 0.070-0.559-0.008v0c-0.179-0.077-0.318-0.219-0.39-0.401s-0.069-0.38 0.008-0.559l1.778-4.131h1.59zM5.080 15.546l2.521-3.485h1.803l-3.141 4.341c-0.236 0.326-0.693 0.399-1.020 0.163h0c-0.326-0.236-0.399-0.693-0.163-1.020zM0.938 15.693c-0.13-0.145-0.196-0.333-0.185-0.527s0.097-0.374 0.243-0.504l2.91-2.601h2.191l-4.128 3.69c-0.3 0.268-0.763 0.242-1.031-0.058zM2.752 18.367c0-0.189 0.027-0.372 0.078-0.544 0.113 0.66 0.258 1.279 0.436 1.858-0.318-0.346-0.514-0.807-0.514-1.313zM23.696 24.013c-0.156 0.091-0.266 0.244-0.3 0.422s0.009 0.361 0.12 0.504c0.97 1.251 2.030 2.805 2.322 3.471-0.361 0.177-0.756 0.298-1.389 0.298-0.895 0-1.32-0.245-1.813-0.529-0.566-0.327-1.208-0.697-2.439-0.697s-1.872 0.37-2.438 0.697c-0.492 0.284-0.917 0.529-1.812 0.529s-1.32-0.245-1.812-0.529c-0.566-0.327-1.208-0.697-2.438-0.697s-1.872 0.37-2.438 0.697c-0.492 0.284-0.917 0.529-1.812 0.529-0.643 0-1.035-0.121-1.41-0.308 0.297-0.673 1.37-2.249 2.353-3.521 0.116-0.15 0.157-0.343 0.114-0.527s-0.168-0.338-0.338-0.42c-2.765-1.327-4.15-4.129-4.356-8.815l1.858-1.661-1.194 1.65c-0.479 0.662-0.33 1.59 0.332 2.069 0.262 0.19 0.566 0.281 0.867 0.281 0.46 0 0.913-0.213 1.202-0.613l3.46-4.781h2.064l-1.394 3.239c-0.075-0.019-0.151-0.036-0.228-0.051-2.065-0.387-4.060 0.978-4.447 3.043-0.185 0.989-0.030 2.15 0.417 3.105 0.522 1.116 1.36 1.834 2.36 2.022 0.17 0.032 0.344 0.048 0.52 0.048 0.842 0 1.736-0.36 2.52-1.028 0.864-0.737 1.49-1.762 1.674-2.742 0.168-0.896 0.005-1.778-0.401-2.522 0.019-0.035 0.037-0.071 0.053-0.108l2.154-5.006h6.046l3.46 4.781c0.232 0.321 0.575 0.532 0.966 0.594 0.079 0.013 0.159 0.019 0.238 0.019 0.309 0 0.61-0.097 0.866-0.282 0.662-0.479 0.811-1.407 0.332-2.069l-1.194-1.65 1.818 1.625c0 0.002 0 0.003 0 0.005-0.123 4.34-1.581 7.26-4.457 8.929zM28.632 19.744c0.206-0.602 0.372-1.24 0.497-1.916 0.049 0.171 0.077 0.352 0.077 0.539 0 0.538-0.22 1.024-0.573 1.377zM31.063 15.693c-0.268 0.3-0.731 0.326-1.031 0.058l-4.128-3.69h2.191l2.91 2.601c0.145 0.13 0.232 0.309 0.242 0.504s-0.055 0.382-0.185 0.527z"></path>
<path fill="#fff" d="M7.863 10.162c0.561 0.004 1.111 0.006 1.661 0.006s1.096-0.002 1.649-0.006c0.346-0.002 0.624-0.285 0.622-0.631-0.002-0.345-0.282-0.622-0.626-0.622-0.001 0-0.003 0-0.004 0-1.1 0.007-2.178 0.007-3.293 0-0.001 0-0.003 0-0.004 0-0.344 0-0.624 0.278-0.626 0.622-0.002 0.346 0.276 0.628 0.622 0.63z"></path>
<path fill="#fff" d="M4.391 10.162h0.994c0.346 0 0.626-0.28 0.626-0.626s-0.28-0.626-0.626-0.626h-0.994c-0.346 0-0.626 0.28-0.626 0.626s0.281 0.626 0.626 0.626z"></path>
<path fill="#3c122c" d="M21.942 25.448c-0.208 0-0.376 0.168-0.376 0.376v0.71c0 0.208 0.168 0.376 0.376 0.376s0.376-0.168 0.376-0.376v-0.71c0-0.208-0.168-0.376-0.376-0.376z"></path>
<path fill="#3c122c" d="M19.994 24.692c-0.208 0-0.376 0.168-0.376 0.376v0.71c0 0.208 0.168 0.376 0.376 0.376s0.376-0.168 0.376-0.376v-0.71c0-0.208-0.168-0.376-0.376-0.376z"></path>
<path fill="#3c122c" d="M16.956 25.398c-0.208 0-0.376 0.168-0.376 0.376v0.71c0 0.208 0.168 0.376 0.376 0.376s0.376-0.168 0.376-0.376v-0.71c0-0.207-0.168-0.376-0.376-0.376z"></path>
<path fill="#3c122c" d="M17.766 15.256c0.208 0 0.376-0.168 0.376-0.376v-0.71c0-0.208-0.168-0.376-0.376-0.376s-0.376 0.168-0.376 0.376v0.71c0 0.207 0.168 0.376 0.376 0.376z"></path>
<path fill="#3c122c" d="M19.756 14.15c0.208 0 0.376-0.168 0.376-0.376v-0.71c0-0.208-0.168-0.376-0.376-0.376s-0.376 0.168-0.376 0.376v0.71c0 0.208 0.168 0.376 0.376 0.376z"></path>
<path fill="#3c122c" d="M10.268 17.844c0.6 0.097 1.008 0.663 0.91 1.263s-0.663 1.008-1.263 0.91c-0.6-0.097-1.008-0.663-0.91-1.263s0.663-1.008 1.263-0.91z"></path>
<path fill="#3c122c" d="M21.978 17.849c0.605 0.060 1.047 0.599 0.986 1.204s-0.599 1.047-1.204 0.986c-0.605-0.060-1.047-0.599-0.986-1.204s0.599-1.047 1.204-0.986z"></path>
</svg>
