<!-- Generated by IcoMoon.io -->
<svg version="1.1" xmlns="http://www.w3.org/2000/svg" width="32" height="32" viewBox="0 0 32 32">
<title>superheroine</title>
<path fill="#f6e06e" d="M26.826 24.618h-23.010c-1.112 0-2.013-0.901-2.013-2.013v-8.287c0-6.232 5.052-11.284 11.284-11.284h4.467c6.232 0 11.284 5.052 11.284 11.284v8.287c0 1.112-0.901 2.013-2.013 2.013z"></path>
<path fill="#96b4eb" d="M28.96 31.293c0.173-0.286 0.207-1.073-0.052-1.367l-6.559-7.447h-3.728l-0.348 8.808z"></path>
<path fill="#efc5b4" d="M23.323 31.355v-2.163c0-4.42-3.583-8.003-8.003-8.003s-8.003 3.583-8.003 8.003v2.163z"></path>
<path fill="#d789b9" d="M10.124 28.075c-0.094 0.397-0.145 0.81-0.145 1.235v2.044h10.684v-2.044c0-0.425-0.051-0.839-0.145-1.235z"></path>
<path fill="#96b4eb" d="M15.32 29.52c-0.336-0-0.654-0.149-0.873-0.408-0.484-0.574-1.177-0.903-1.902-0.903-0.495 0-0.975 0.15-1.388 0.435-0.367 0.253-0.869 0.16-1.122-0.207s-0.16-0.869 0.207-1.122c0.683-0.471 1.48-0.72 2.304-0.72 1.030 0 2.016 0.395 2.775 1.098 0.759-0.703 1.746-1.098 2.775-1.098 0.81 0 1.596 0.241 2.272 0.698 0.369 0.249 0.466 0.751 0.217 1.12s-0.751 0.466-1.12 0.217c-0.408-0.276-0.882-0.422-1.369-0.422-0.725 0-1.418 0.329-1.902 0.903-0.219 0.259-0.537 0.408-0.873 0.408z"></path>
<path fill="#d994b3" d="M15.881 24.015c1.545 0.695 2.632 2.344 2.632 4.269v0.463c0 0.721-0.584 1.305-1.305 1.305h-7.229v1.319h10.684v-2.044c0-2.761-2.095-5.032-4.781-5.313z"></path>
<path fill="#8286ea" d="M20.221 27.2c-0.607-0.374-1.293-0.58-2.001-0.602 0.185 0.512 0.288 1.067 0.293 1.649 0.338 0.059 0.661 0.188 0.951 0.384 0.369 0.249 0.87 0.152 1.12-0.216-0.073-0.424-0.196-0.831-0.363-1.215z"></path>
<path fill="#c668b9" d="M19.425 28.754c-0.299-0.099-0.602-0.189-0.912-0.241v0.234c0 0.721-0.584 1.305-1.305 1.305h-7.229v1.302h10.684v-2.027c0-0.041-0.001-0.083-0.002-0.124-0.401-0.17-0.825-0.313-1.236-0.449z"></path>
<path fill="#efc5b4" d="M27.686 15.459c0.011-0.102 0.019-0.205 0.027-0.308-0.814 0.142-1.646 0.168-2.469 0.074-0.808-0.092-1.599-0.286-2.363-0.56-0.517-0.088-1.023-0.208-1.501-0.406-0.376-0.1-0.745-0.227-1.103-0.391-0.75-0.344-1.406-0.87-2.032-1.402-0.839-0.713-1.846-1.653-2.278-2.751-0.12-0.212-0.609-0.819-0.7-1.046-0.581 0.902-1.146 1.933-1.917 2.655-0.392 0.367-0.743 0.773-1.141 1.134-0.389 0.352-0.804 0.679-1.24 0.972-0.821 0.552-1.73 0.978-2.679 1.258-1.751 0.517-3.595 0.514-5.379 0.197 0.009 0.192 0.023 0.383 0.043 0.573-1.104 0.32-1.912 1.338-1.912 2.545 0 1.464 1.187 2.65 2.65 2.65 0.417 0 0.811-0.097 1.162-0.268 1.849 2.526 4.835 4.168 8.206 4.168h4.517c3.37 0 6.357-1.641 8.206-4.168 0.351 0.172 0.745 0.268 1.163 0.268 1.464 0 2.65-1.187 2.65-2.65-0-1.207-0.808-2.225-1.912-2.545z"></path>
<path fill="#d789b9" d="M20.485 21.905c-1.19-0.323-3.053-0.511-5.164-0.511-2.063 0-3.856 0.17-5.049 0.48 0 0-0.817 0.208-1.216 0.208-1.918 0-3.472-1.555-3.472-3.472s1.555-3.472 3.472-3.472c1.012 0 2.266 0.84 2.266 0.84 0.122 0.106 2.596 0.714 3.999 0.714 1.339 0 3.936-0.659 4.002-0.716 0.608-0.523 1.399-0.839 2.263-0.839 1.918 0 3.472 1.555 3.472 3.472s-1.555 3.472-3.472 3.472z"></path>
<path fill="#d994b3" d="M17.579 4.269h-1.303c4.55 0 8.239 3.689 8.239 8.239v0.7c0 4.55-3.689 8.239-8.239 8.239h-5.137c-4.354 0-7.919-3.378-8.218-7.657-0.013 0.212-0.021 0.426-0.021 0.642v0c0 5.613 4.55 10.162 10.162 10.162h4.517c5.613 0 10.162-4.55 10.162-10.162v-0c0-5.612-4.55-10.162-10.162-10.162z"></path>
<path fill="#c668b9" d="M23.99 16.106c-1.111 2.955-3.87 5.102-7.157 5.322 1.478 0.068 2.756 0.235 3.652 0.477l1.101 0.177c1.918 0 3.472-1.555 3.472-3.472 0-0.984-0.41-1.872-1.068-2.504z"></path>
<path fill="#c668b9" d="M11.139 21.447c-2.1 0-4.017-0.786-5.472-2.080 0.346 1.554 1.731 2.715 3.389 2.715 0.399 0 1.216-0.208 1.216-0.208 0.806-0.209 1.887-0.355 3.14-0.427z"></path>
<path fill="#f6e06e" d="M1.492 16.172c-0.22-0.675-0.24-2.049-0.24-2.049 0.133-6.243 5.236-11.263 11.511-11.263h5.117c6.275 0 11.377 5.020 11.511 11.263 0 0 0.029 1.211-0.382 1.896l-1.337-1.039c-2.666 0.859-6.109 0.141-8.918-2.127-1.632-1.318-2.797-2.956-3.432-4.643-0.635 1.687-1.8 3.325-3.432 4.643-2.811 2.27-6.255 2.987-8.922 2.126z"></path>
<path fill="#e8c2d8" d="M29.616 0.785l0.53 1.491c0.023 0.064 0.068 0.114 0.124 0.14l1.325 0.597c0.187 0.084 0.187 0.382 0 0.467l-1.325 0.597c-0.057 0.026-0.102 0.076-0.124 0.14l-0.53 1.491c-0.075 0.211-0.34 0.211-0.415 0l-0.53-1.491c-0.023-0.064-0.068-0.114-0.124-0.14l-1.325-0.597c-0.187-0.084-0.187-0.382 0-0.467l1.325-0.597c0.057-0.026 0.102-0.076 0.124-0.14l0.53-1.491c0.075-0.211 0.34-0.211 0.415 0z"></path>
<path fill="#e8c2d8" d="M2.144 26.718l0.393 1.106c0.017 0.047 0.050 0.085 0.092 0.104l0.983 0.443c0.139 0.063 0.139 0.284 0 0.346l-0.983 0.443c-0.042 0.019-0.075 0.056-0.092 0.104l-0.393 1.106c-0.056 0.156-0.252 0.156-0.308 0l-0.393-1.106c-0.017-0.047-0.050-0.085-0.092-0.104l-0.983-0.443c-0.139-0.063-0.139-0.284 0-0.346l0.983-0.443c0.042-0.019 0.075-0.056 0.092-0.104l0.393-1.106c0.056-0.156 0.252-0.156 0.308 0z"></path>
<path fill="#d789b9" d="M4.050 0.472c0.544 0.336 0.713 1.050 0.376 1.594s-1.050 0.713-1.594 0.376c-0.544-0.336-0.713-1.050-0.376-1.594s1.050-0.713 1.594-0.376z"></path>
<path fill="#d789b9" d="M25.37 0.499c0 0.276-0.224 0.499-0.499 0.499s-0.499-0.224-0.499-0.499c0-0.276 0.224-0.499 0.499-0.499s0.499 0.224 0.499 0.499z"></path>
<path fill="#3c122c" d="M10.373 18.406c0.1 0.618-0.32 1.201-0.938 1.301s-1.201-0.32-1.301-0.938c-0.1-0.618 0.32-1.201 0.938-1.301s1.201 0.32 1.301 0.938z"></path>
<path fill="#3c122c" d="M22.517 18.462c0.076 0.622-0.366 1.189-0.988 1.265s-1.189-0.366-1.265-0.988c-0.076-0.622 0.366-1.189 0.988-1.265s1.189 0.366 1.265 0.988z"></path>
<path fill="#3c122c" d="M15.32 20.109c-0.839 0-1.522-0.683-1.522-1.522 0-0.214 0.173-0.387 0.387-0.387s0.387 0.173 0.387 0.387c0 0.412 0.335 0.747 0.747 0.747s0.747-0.335 0.747-0.747c0-0.214 0.173-0.387 0.387-0.387s0.387 0.173 0.387 0.387c-0 0.839-0.683 1.522-1.522 1.522z"></path>
<path fill="#fff" d="M8.239 7.437c-0.226 0-0.445-0.119-0.563-0.33-0.175-0.311-0.064-0.704 0.247-0.879 0.223-0.125 0.454-0.244 0.688-0.353 0.323-0.151 0.707-0.011 0.858 0.313s0.011 0.707-0.312 0.858c-0.204 0.095-0.406 0.199-0.601 0.308-0.1 0.056-0.209 0.083-0.316 0.083z"></path>
<path fill="#fff" d="M4.928 10.858c-0.094 0-0.19-0.021-0.28-0.064-0.321-0.155-0.456-0.541-0.301-0.862 0.448-0.929 1.085-1.77 1.893-2.499 0.265-0.239 0.673-0.218 0.912 0.046s0.218 0.673-0.046 0.912c-0.684 0.617-1.221 1.325-1.596 2.102-0.111 0.231-0.342 0.365-0.582 0.365z"></path>
<path fill="#3c122c" d="M25.662 25.264h1.163c1.466 0 2.658-1.192 2.658-2.658v-2.5c0.474-0.571 0.759-1.303 0.759-2.102 0-0.688-0.213-1.326-0.575-1.855 0.383-0.814 0.37-1.909 0.367-2.039-0.068-3.192-1.363-6.182-3.646-8.42-2.286-2.241-5.309-3.475-8.51-3.475h-5.117c-3.202 0-6.224 1.234-8.51 3.475-2.283 2.237-3.577 5.228-3.646 8.42-0 0.008-0 0.016-0 0.023 0.002 0.147 0.028 1.435 0.257 2.189-0.294 0.493-0.464 1.067-0.464 1.682 0 0.798 0.285 1.531 0.759 2.102v2.5c0 1.466 1.192 2.658 2.658 2.658h3.802c-0.604 1.179-0.945 2.514-0.945 3.927v2.163c0 0.357 0.289 0.645 0.646 0.645s0.646-0.289 0.646-0.645v-2.163c0-1.727 0.598-3.317 1.599-4.574 0.604 0.207 1.231 0.362 1.877 0.46-1.136 1.047-1.848 2.547-1.848 4.21v2.313c0 0.214 0.173 0.387 0.387 0.387s0.387-0.173 0.387-0.387v-1.978c0.011-0.006 0.021-0.012 0.032-0.019 0.506-0.334 1.401-0.679 2.021-0.679 0.672 0 1.312 0.21 1.851 0.608 0.314 0.232 0.682 0.348 1.050 0.348s0.736-0.116 1.050-0.348c0.539-0.398 1.179-0.608 1.852-0.608 0.642 0 1.481 0.319 1.945 0.619 0.034 0.022 0.071 0.038 0.108 0.048v2.009c0 0.214 0.173 0.387 0.387 0.387s0.387-0.173 0.387-0.387v-2.313c0-1.663-0.713-3.162-1.848-4.21 0.646-0.098 1.273-0.253 1.877-0.46 1 1.257 1.599 2.846 1.599 4.574v2.163c0 0.357 0.289 0.645 0.645 0.645s0.645-0.289 0.645-0.645v-2.163c0-1.899-0.616-3.657-1.657-5.085 0.142-0.069 0.282-0.142 0.42-0.217l5.692 6.463c0.076 0.087 0.037 0.174 0.017 0.208-0.184 0.305-0.086 0.702 0.22 0.886 0.104 0.063 0.219 0.093 0.333 0.093 0.219 0 0.432-0.111 0.553-0.312 0.332-0.551 0.27-1.245-0.154-1.727zM17.579 23.908h-4.517c-2.025 0-3.905-0.636-5.449-1.719 0.446 0.18 0.933 0.281 1.442 0.281 0.435 0 1.223-0.198 1.313-0.221 1.161-0.302 2.919-0.468 4.952-0.468 2.051 0 3.897 0.181 5.063 0.498 0.003 0.001 0.007 0.002 0.010 0.003 0.080 0.019 0.79 0.188 1.192 0.188 0.51 0 0.997-0.1 1.442-0.281-1.545 1.083-3.424 1.719-5.449 1.719zM1.689 18.004c0-0.635 0.297-1.202 0.76-1.569 0.247 1.284 0.722 2.489 1.381 3.569-0.045 0.003-0.090 0.005-0.136 0.005-1.105 0-2.005-0.899-2.005-2.005zM3.654 15.822c0.846 0.167 1.732 0.2 2.629 0.107-0.672 0.695-1.087 1.64-1.087 2.681 0 0.579 0.129 1.128 0.358 1.621-0.979-1.257-1.651-2.764-1.9-4.409zM21.586 21.695c-0.26 0-0.809-0.118-1.005-0.165-1.23-0.332-3.146-0.523-5.26-0.523-2.097 0-3.924 0.175-5.145 0.492-0.298 0.076-0.865 0.196-1.12 0.196-1.701 0-3.085-1.384-3.085-3.085s1.384-3.085 3.085-3.085c0.637 0 0.914 0.134 1.417 0.377 0.212 0.103 0.452 0.219 0.763 0.347 1.262 0.52 2.789 0.83 4.085 0.83 1.349 0 3.078-0.412 4.114-0.795 0.329-0.122 0.606-0.254 0.849-0.37 0.472-0.226 0.813-0.389 1.302-0.389 1.701 0 3.085 1.384 3.085 3.085s-1.384 3.085-3.085 3.085zM19.949 15.215c-0.24 0.115-0.488 0.233-0.784 0.343-1.004 0.371-2.647 0.747-3.845 0.747-1.2 0-2.617-0.288-3.79-0.772-0.289-0.119-0.518-0.23-0.721-0.328-0.302-0.146-0.558-0.27-0.865-0.351 0.816-0.399 1.607-0.9 2.349-1.499 1.269-1.024 2.297-2.25 3.027-3.597 0.73 1.347 1.758 2.572 3.027 3.597 0.758 0.612 1.567 1.121 2.401 1.525-0.28 0.088-0.536 0.209-0.799 0.335zM24.358 15.929c0.897 0.093 1.784 0.060 2.63-0.107-0.249 1.646-0.922 3.154-1.902 4.411 0.23-0.494 0.359-1.043 0.359-1.623 0-1.041-0.415-1.986-1.087-2.681zM28.192 16.435c0.462 0.367 0.76 0.934 0.76 1.569 0 1.105-0.899 2.005-2.005 2.005-0.046 0-0.091-0.002-0.136-0.005 0.659-1.080 1.134-2.284 1.381-3.568zM12.762 3.506h5.117c5.866 0 10.74 4.769 10.865 10.632 0.004 0.206-0.013 0.512-0.062 0.812l-0.616-0.479c-0.169-0.131-0.391-0.17-0.594-0.105-2.566 0.826-5.752 0.054-8.314-2.015-1.494-1.206-2.612-2.717-3.234-4.368-0.095-0.252-0.335-0.418-0.604-0.418s-0.509 0.167-0.604 0.418c-0.622 1.651-1.74 3.162-3.234 4.368-2.564 2.071-5.751 2.842-8.318 2.014-0.207-0.067-0.435-0.025-0.604 0.113l-0.617 0.499c-0.030-0.345-0.043-0.674-0.046-0.851 0.132-5.857 5.003-10.619 10.865-10.619zM2.448 22.606v-1.551c0.385 0.158 0.805 0.245 1.246 0.245 0.33 0 0.648-0.050 0.949-0.141 0.932 1.157 2.097 2.119 3.423 2.814h-4.25c-0.754-0-1.367-0.613-1.367-1.367zM18.222 28.149c-0.839 0-1.638 0.262-2.311 0.759-0.353 0.26-0.827 0.26-1.18 0-0.673-0.497-1.473-0.759-2.311-0.759-0.637 0-1.419 0.255-2.019 0.561 0.055-0.47 0.176-0.921 0.353-1.342 0.498-0.315 1.073-0.482 1.666-0.482 0.896 0 1.749 0.386 2.343 1.058 0.142 0.161 0.345 0.253 0.559 0.253s0.417-0.092 0.559-0.253c0.593-0.672 1.447-1.058 2.343-1.058 0.592 0 1.167 0.166 1.666 0.481 0.176 0.416 0.296 0.861 0.352 1.326-0.563-0.288-1.337-0.543-2.018-0.543zM19.227 26.243c-0.326-0.087-0.663-0.131-1.005-0.131-1.107 0-2.162 0.472-2.902 1.295-0.739-0.824-1.795-1.295-2.902-1.295-0.342 0-0.679 0.045-1.004 0.131 0.319-0.408 0.7-0.765 1.13-1.056 0.172 0.008 0.344 0.012 0.518 0.012h4.517c0.174 0 0.347-0.004 0.519-0.012 0.429 0.292 0.811 0.648 1.129 1.057zM25.999 21.159c0.301 0.091 0.619 0.141 0.948 0.141 0.441 0 0.861-0.088 1.246-0.245v1.551c0 0.754-0.613 1.367-1.367 1.367h-2.3l-0.685-0.777c0.809-0.577 1.536-1.263 2.158-2.036z"></path>
<path fill="#3c122c" d="M22.71 12.060c-0.214 0-0.387-0.173-0.387-0.387v-0.731c0-0.214 0.173-0.387 0.387-0.387s0.387 0.173 0.387 0.387v0.731c0 0.214-0.173 0.387-0.387 0.387z"></path>
<path fill="#3c122c" d="M24.577 10.623c-0.214 0-0.387-0.173-0.387-0.387v-0.731c0-0.214 0.173-0.387 0.387-0.387s0.387 0.173 0.387 0.387v0.731c0 0.214-0.173 0.387-0.387 0.387z"></path>
<path fill="#3c122c" d="M26.229 13.219c-0.214 0-0.387-0.173-0.387-0.387v-0.731c0-0.214 0.173-0.387 0.387-0.387s0.387 0.173 0.387 0.387v0.731c0 0.214-0.173 0.387-0.387 0.387z"></path>
</svg>
