<!-- Generated by IcoMoon.io -->
<svg version="1.1" xmlns="http://www.w3.org/2000/svg" width="32" height="32" viewBox="0 0 32 32">
<title>troglodyte</title>
<path fill="#efc5b4" d="M23.918 31.109v-2.182c0-4.457-3.613-8.070-8.070-8.070s-8.070 3.613-8.070 8.070v2.182z"></path>
<path fill="#e8a284" d="M21.234 31.109v-2.061c0-2.975-2.412-5.387-5.387-5.387s-5.387 2.412-5.387 5.387v2.061z"></path>
<path fill="#9781dd" d="M11.127 29.413l0.158 1.106c0.086 0.605 0.796 0.89 1.276 0.513l0.879-0.689c0.481-0.377 0.373-1.134-0.194-1.362l-1.036-0.416c-0.567-0.228-1.168 0.244-1.082 0.849z"></path>
<path fill="#9781dd" d="M16.043 28.935l-0.781 0.798c-0.428 0.437-0.222 1.173 0.37 1.325l1.082 0.278c0.592 0.152 1.127-0.394 0.962-0.983l-0.3-1.076c-0.164-0.589-0.905-0.779-1.332-0.342z"></path>
<path fill="#9781dd" d="M20.040 26.73l-1.111 0.11c-0.608 0.060-0.923 0.757-0.567 1.253l0.651 0.907c0.357 0.497 1.117 0.421 1.369-0.136l0.46-1.018c0.252-0.557-0.194-1.178-0.802-1.117z"></path>
<path fill="#d57b84" d="M16.412 23.707c1.33 0.598 2.323 1.898 2.586 3.472 0.045 0.27 0.462 0.536 0.462 0.82l-0.393 0.48c0 0.727-0.589 1.316-1.316 1.316l-1.274 0.302-1.154-0.302h-1.784l-1.229 0.422-0.944-0.422h-0.904v1.33h10.774v-2.061c0-2.784-2.112-5.075-4.822-5.358z"></path>
<path fill="#8962de" d="M13.13 30.678c0.249-0.29 0.458-0.61 0.719-0.882h-2.673c0.139 0.442 0.273 0.886 0.407 1.33h1.149c0.134-0.148 0.268-0.296 0.398-0.448z"></path>
<path fill="#8962de" d="M17.593 29.795h-2.46c-0.091 0.227-0.099 0.433-0.050 0.621 0.008 0.018 0.013 0.037 0.017 0.058 0.080 0.243 0.256 0.458 0.476 0.651h2.021c0.135-0.394 0.085-0.882-0.005-1.33z"></path>
<path fill="#8962de" d="M20.36 27.835c-0.475-0.297-0.937-0.613-1.411-0.91 0.077 0.349 0.118 0.712 0.118 1.087v0.467c0 0.159-0.029 0.31-0.081 0.451 0.215 0.199 0.474 0.348 0.771 0.345 0.372-0.003 0.664-0.216 0.864-0.514 0.126-0.188 0.221-0.392 0.299-0.605-0.19-0.101-0.377-0.207-0.56-0.321z"></path>
<path fill="#efc5b4" d="M28.317 15.079c0.037-0.354 0.056-0.713 0.056-1.077 0-5.66-4.588-10.248-10.248-10.248h-4.555c-5.66 0-10.248 4.588-10.248 10.248 0 0.364 0.019 0.723 0.056 1.077-1.114 0.323-1.928 1.349-1.928 2.567 0 1.476 1.197 2.673 2.673 2.673 0.421 0 0.818-0.097 1.172-0.27 1.864 2.548 4.876 4.203 8.275 4.203h4.555c3.399 0 6.411-1.655 8.275-4.203 0.354 0.173 0.752 0.27 1.172 0.27 1.476 0 2.673-1.197 2.673-2.673 0-1.218-0.814-2.244-1.928-2.567z"></path>
<path fill="#a07575" d="M17.827 1.006h-3.959c-6.659 0-12.058 5.399-12.058 12.058v1.203c0.085 2.111 1.198 3.219 2.092 3.957l0.065 2.182c-0.29 3.755 1.903 5.471 3.591 4.206 0 1.614 1.267 2.922 2.83 2.922 1.239 0 2.291-0.822 2.675-1.966 0.217 1.588 1.381 2.801 2.784 2.801s2.566-1.213 2.784-2.801c0.384 1.144 1.436 1.966 2.675 1.966 1.563 0 2.83-1.308 2.83-2.922 1.754 0.835 3.374-0.785 3.591-4.206l0.162-2.228c1.224-0.758 1.861-1.916 1.995-3.911v-1.203c0-6.659-5.399-12.058-12.058-12.058zM25.074 17.987c0 1.717-1.392 3.109-3.109 3.109s-3.109-1.392-3.109-3.109h0c0-1.66-1.346-3.005-3.005-3.005s-3.005 1.346-3.005 3.005h0c0 1.717-1.392 3.109-3.109 3.109s-3.109-1.392-3.109-3.109c0 0-0.306-3.098 1.531-4.932l4.4-2.959 4.708 2.543c0.503 0.272 1.121-0.049 1.189-0.616l0.22-1.835c0.024-0.201 0.251-0.306 0.42-0.196l4.858 3.184c1.332 1.826 1.121 4.81 1.121 4.81z"></path>
<path fill="#925873" d="M17.827 1.006h-2.259c5.72 0 10.358 4.637 10.358 10.357v1.033c-0.115 1.713-0.055 2.344-1.107 2.995l0.221 2.379c-0.067 2.059-1.204 2.846-2.34 3.327 0 1.386-1.088 2.51-2.431 2.51-0.325 0-0.635-0.066-0.919-0.185-0.79-0.333-1.706-0.19-2.358 0.365-0.398 0.338-0.885 0.538-1.412 0.538s-1.015-0.199-1.412-0.538c-0.653-0.555-1.569-0.698-2.358-0.365-0.283 0.119-0.593 0.185-0.918 0.185-0.858 0-1.612-0.459-2.045-1.151-0.347-0.555-0.931-0.928-1.579-1.019-0.646-0.090-2.532 1.147-3.31-1.327l0.009 0.295c-0.29 3.755 1.903 5.471 3.591 4.206 0 1.614 1.267 2.922 2.83 2.922 1.239 0 2.291-0.822 2.675-1.966 0.217 1.588 1.381 2.801 2.784 2.801s2.566-1.213 2.784-2.801c0.384 1.144 1.436 1.966 2.675 1.966 1.563 0 2.83-1.308 2.83-2.922 1.754 0.835 3.374-0.785 3.591-4.206l0.162-2.228c1.224-0.758 1.861-1.916 1.995-3.911v-1.203c0-6.659-5.398-12.058-12.058-12.058z"></path>
<path fill="#efc5b4" d="M29.862 25.765l0.535 1.504c0.023 0.064 0.068 0.115 0.125 0.141l1.336 0.602c0.189 0.085 0.189 0.386 0 0.471l-1.336 0.602c-0.057 0.026-0.102 0.077-0.125 0.141l-0.535 1.504c-0.076 0.212-0.343 0.212-0.418 0l-0.535-1.504c-0.023-0.064-0.068-0.115-0.125-0.141l-1.336-0.602c-0.189-0.085-0.189-0.386 0-0.471l1.336-0.602c0.057-0.026 0.102-0.077 0.125-0.141l0.535-1.504c0.076-0.212 0.343-0.212 0.418 0z"></path>
<path fill="#efc5b4" d="M2.886 26.191l0.397 1.115c0.017 0.048 0.051 0.086 0.093 0.105l0.991 0.446c0.14 0.063 0.14 0.286 0 0.349l-0.991 0.446c-0.042 0.019-0.076 0.057-0.093 0.105l-0.397 1.115c-0.056 0.158-0.254 0.158-0.31 0l-0.397-1.115c-0.017-0.048-0.051-0.086-0.093-0.105l-0.991-0.446c-0.14-0.063-0.14-0.286 0-0.349l0.991-0.446c0.042-0.019 0.076-0.057 0.093-0.105l0.397-1.115c0.056-0.158 0.254-0.158 0.31 0z"></path>
<path fill="#e8a284" d="M0.582 22.516c0.275 0.044 0.461 0.303 0.417 0.578s-0.303 0.461-0.578 0.417c-0.275-0.044-0.461-0.303-0.417-0.578s0.303-0.461 0.578-0.417z"></path>
<path fill="#3c122c" d="M12.074 31.593c-0.149 0-0.3-0.029-0.445-0.087-0.397-0.16-0.671-0.508-0.731-0.932l-0.158-1.106c-0.060-0.424 0.104-0.835 0.441-1.099s0.775-0.327 1.173-0.167l1.036 0.416c0.398 0.16 0.671 0.508 0.731 0.932s-0.105 0.835-0.441 1.099l-0.879 0.689c-0.214 0.168-0.469 0.254-0.728 0.254zM11.513 29.358l0.158 1.106c0.030 0.208 0.184 0.291 0.249 0.317s0.234 0.073 0.399-0.057l0.879-0.689c0.165-0.13 0.16-0.305 0.15-0.375s-0.054-0.239-0.249-0.317l-1.036-0.416c-0.195-0.078-0.344 0.014-0.4 0.057s-0.18 0.166-0.15 0.374z"></path>
<path fill="#3c122c" d="M9.994 17.127c0.615 0.145 0.995 0.762 0.85 1.376s-0.762 0.995-1.376 0.85c-0.615-0.145-0.995-0.762-0.85-1.376s0.762-0.995 1.376-0.85z"></path>
<path fill="#3c122c" d="M23.027 17.791c0.242 0.584-0.035 1.253-0.619 1.495s-1.253-0.035-1.495-0.619c-0.242-0.584 0.035-1.253 0.619-1.495s1.253 0.035 1.495 0.619z"></path>
<path fill="#3c122c" d="M21.965 21.486c-1.93 0-3.5-1.57-3.5-3.5 0-0.004 0-0.009 0-0.013-0.007-1.436-1.177-2.601-2.615-2.601s-2.608 1.167-2.615 2.603c0 0.004 0 0.008 0 0.012 0 1.93-1.57 3.5-3.5 3.5-1.924 0-3.49-1.56-3.5-3.481-0.027-0.301-0.242-3.342 1.645-5.227 0.018-0.018 0.037-0.034 0.058-0.048l4.4-2.959c0.12-0.081 0.276-0.089 0.404-0.020l4.707 2.543c0.124 0.067 0.267 0.068 0.392 0.003s0.207-0.182 0.223-0.322l0.22-1.835c0.027-0.229 0.169-0.425 0.379-0.522s0.45-0.080 0.643 0.047l4.858 3.184c0.039 0.026 0.074 0.059 0.101 0.096 1.367 1.873 1.212 4.796 1.196 5.054-0.007 1.924-1.574 3.486-3.5 3.486zM19.246 18c0.007 1.493 1.224 2.705 2.718 2.705 1.499 0 2.718-1.22 2.718-2.718 0-0.009 0-0.018 0.001-0.028 0.002-0.028 0.18-2.804-1.006-4.496l-4.638-3.040-0.198 1.646c-0.047 0.395-0.287 0.74-0.64 0.923s-0.773 0.179-1.123-0.010l-4.5-2.43-4.172 2.806c-1.652 1.682-1.395 4.562-1.392 4.591 0.001 0.012 0.002 0.025 0.002 0.038 0 1.499 1.22 2.718 2.719 2.718 1.495 0 2.712-1.213 2.718-2.707-0-0.004-0-0.008-0-0.012 0-1.873 1.524-3.396 3.396-3.396s3.396 1.523 3.396 3.396c0 0.004 0 0.009-0 0.013z"></path>
<path fill="#3c122c" d="M10.659 15.238c-0.060 0-0.12-0.014-0.177-0.043-0.002-0.001-0.344-0.169-0.749-0.169s-0.747 0.168-0.751 0.17c-0.192 0.096-0.427 0.019-0.524-0.173s-0.021-0.426 0.17-0.523c0.051-0.026 0.516-0.255 1.104-0.255s1.053 0.229 1.104 0.255c0.192 0.098 0.268 0.333 0.17 0.525-0.069 0.135-0.206 0.213-0.348 0.213z"></path>
<path fill="#3c122c" d="M22.888 15.238c-0.060 0-0.12-0.014-0.177-0.043-0.002-0.001-0.344-0.169-0.749-0.169s-0.747 0.168-0.751 0.17c-0.192 0.096-0.427 0.019-0.524-0.173s-0.021-0.426 0.17-0.523c0.051-0.026 0.516-0.255 1.105-0.255s1.053 0.229 1.104 0.255c0.192 0.098 0.268 0.333 0.17 0.525-0.069 0.135-0.206 0.213-0.348 0.213z"></path>
<path fill="#3c122c" d="M15.847 19.768c-0.846 0-1.535-0.689-1.535-1.535 0-0.216 0.175-0.391 0.391-0.391s0.391 0.175 0.391 0.391c0 0.416 0.338 0.753 0.754 0.753s0.753-0.338 0.753-0.753c0-0.216 0.175-0.391 0.391-0.391s0.391 0.175 0.391 0.391c0 0.846-0.688 1.535-1.535 1.535z"></path>
<path fill="#3c122c" d="M30.896 17.646c0-0.636-0.18-1.23-0.492-1.735 0.125-0.478 0.205-1.007 0.245-1.593 0.001-0.017 0.002-0.034 0.002-0.051v-1.203c0-7.071-5.753-12.824-12.824-12.824h-3.959c-7.071 0-12.824 5.753-12.824 12.824v1.203c0 0.010 0 0.021 0.001 0.031 0.024 0.59 0.119 1.114 0.265 1.582-0.323 0.512-0.511 1.118-0.511 1.767 0 1.507 1.009 2.782 2.387 3.188-0.036 2.586 0.907 3.768 1.733 4.306 0.599 0.39 1.313 0.545 2.004 0.458 0.107 0.394 0.276 0.761 0.495 1.091-0.19 0.715-0.292 1.465-0.292 2.24v2.182c0 0.36 0.292 0.651 0.651 0.651s0.651-0.291 0.651-0.651v-2.182c0-0.397 0.032-0.786 0.092-1.166 0.472 0.296 1.015 0.483 1.597 0.527-0.031 0.241-0.048 0.486-0.048 0.735v2.332c0 0.216 0.175 0.391 0.391 0.391s0.391-0.175 0.391-0.391v-2.332c0-0.26 0.021-0.514 0.059-0.763 0.737-0.11 1.412-0.452 1.942-0.962 0.555 0.965 1.453 1.63 2.489 1.795l-0.358 0.366c-0.3 0.306-0.41 0.735-0.295 1.148s0.432 0.722 0.847 0.829l1.082 0.278c0.1 0.026 0.201 0.038 0.3 0.038 0.313 0 0.614-0.125 0.841-0.357 0.3-0.306 0.41-0.735 0.295-1.148l-0.3-1.076c-0.052-0.185-0.144-0.349-0.267-0.483 0.192-0.112 0.374-0.243 0.544-0.391 0.005 0.008 0.010 0.016 0.016 0.024l0.651 0.907c0.226 0.315 0.578 0.494 0.958 0.494 0.040 0 0.081-0.002 0.121-0.006 0.426-0.042 0.786-0.301 0.962-0.691l0.101-0.223c0.003 0.073 0.005 0.147 0.005 0.221v2.332c0 0.216 0.175 0.391 0.391 0.391s0.391-0.175 0.391-0.391v-2.332c0-0.249-0.016-0.494-0.047-0.735 0.581-0.045 1.125-0.231 1.596-0.527 0.060 0.38 0.093 0.769 0.093 1.166v2.182c0 0.36 0.291 0.651 0.651 0.651s0.651-0.291 0.651-0.651v-2.182c0-0.774-0.102-1.525-0.292-2.24 0.24-0.36 0.419-0.764 0.523-1.199 0.66 0.014 1.303-0.178 1.848-0.563 1.061-0.75 1.673-2.122 1.822-4.080 1.398-0.392 2.427-1.678 2.427-3.2zM2.1 17.646c0-0.061 0.004-0.121 0.009-0.18 0.321 0.441 0.682 0.807 1.037 1.12l0.025 0.843c-0.637-0.341-1.071-1.012-1.071-1.783zM17.199 30.848c-0.049 0.050-0.185 0.161-0.389 0.108l-1.082-0.278c-0.204-0.052-0.27-0.215-0.288-0.282s-0.047-0.241 0.1-0.391l0.781-0.798c0.096-0.098 0.203-0.122 0.284-0.122 0.044 0 0.081 0.007 0.104 0.013 0.068 0.017 0.232 0.080 0.288 0.282l0.3 1.076c0.057 0.203-0.051 0.341-0.1 0.391zM19.698 28.939c-0.069 0.007-0.245 0.005-0.368-0.166l-0.651-0.907c-0.050-0.069-0.070-0.138-0.075-0.199 0.085-0.117 0.165-0.24 0.239-0.368 0.406 0.391 0.897 0.682 1.435 0.847l-0.252 0.558c-0.087 0.192-0.258 0.228-0.328 0.235zM27.126 18.121l-0.162 2.228c-0.001 0.008-0.001 0.016-0.001 0.024-0.088 2.089-0.701 2.948-1.2 3.301-0.565 0.4-1.169 0.277-1.402 0.205s-0.485-0.028-0.68 0.116-0.311 0.373-0.311 0.616c0 1.189-0.926 2.156-2.064 2.156-0.876 0-1.659-0.58-1.948-1.444-0.113-0.337-0.444-0.552-0.798-0.519s-0.639 0.306-0.687 0.659c-0.167 1.22-1.038 2.139-2.025 2.139s-1.858-0.92-2.025-2.139c-0.048-0.352-0.333-0.625-0.687-0.659-0.024-0.002-0.048-0.003-0.072-0.003-0.326 0-0.62 0.208-0.726 0.523-0.29 0.864-1.073 1.444-1.949 1.444-1.138 0-2.065-0.967-2.065-2.156 0-0.267-0.139-0.514-0.366-0.653s-0.511-0.15-0.748-0.029c-0.347 0.177-0.936 0.264-1.455-0.074-0.756-0.493-1.12-1.703-1.023-3.407 0.001-0.022 0.002-0.044 0.001-0.066l-0.065-2.182c-0.007-0.22-0.108-0.427-0.278-0.568-0.899-0.742-1.74-1.666-1.813-3.383v-1.187c0-6.226 5.066-11.292 11.292-11.292h3.959c6.226 0 11.292 5.066 11.292 11.292v1.177c-0.117 1.688-0.591 2.641-1.632 3.286-0.209 0.129-0.343 0.351-0.361 0.596zM28.569 19.403l0.058-0.799c0.378-0.275 0.699-0.589 0.967-0.948-0.004 0.748-0.416 1.401-1.025 1.747z"></path>
<path fill="#3c122c" d="M16.518 24.34c-0.216 0-0.391-0.175-0.391-0.391v-0.738c0-0.216 0.175-0.391 0.391-0.391s0.391 0.175 0.391 0.391v0.738c-0 0.216-0.175 0.391-0.391 0.391z"></path>
<path fill="#3c122c" d="M18.686 23.266c-0.216 0-0.391-0.175-0.391-0.391v-0.738c0-0.216 0.175-0.391 0.391-0.391s0.391 0.175 0.391 0.391v0.738c0 0.216-0.175 0.391-0.391 0.391z"></path>
<path fill="#3c122c" d="M21.214 24.992c-0.216 0-0.391-0.175-0.391-0.391v-0.738c0-0.216 0.175-0.391 0.391-0.391s0.391 0.175 0.391 0.391v0.738c0 0.216-0.175 0.391-0.391 0.391z"></path>
<path fill="#fff" d="M10.095 5.904c-0.228 0-0.449-0.12-0.568-0.332-0.176-0.314-0.065-0.71 0.249-0.886 0.225-0.126 0.458-0.246 0.693-0.356 0.326-0.152 0.713-0.011 0.865 0.315s0.011 0.713-0.315 0.865c-0.206 0.096-0.41 0.2-0.606 0.311-0.101 0.057-0.21 0.083-0.318 0.083z"></path>
<path fill="#fff" d="M6.755 9.354c-0.095 0-0.191-0.021-0.282-0.065-0.324-0.156-0.46-0.545-0.303-0.869 0.452-0.936 1.094-1.784 1.909-2.521 0.267-0.241 0.678-0.22 0.919 0.047s0.22 0.678-0.047 0.919c-0.69 0.623-1.231 1.336-1.609 2.12-0.112 0.233-0.345 0.368-0.587 0.368z"></path>
</svg>
