<!-- Generated by IcoMoon.io -->
<svg version="1.1" xmlns="http://www.w3.org/2000/svg" width="32" height="32" viewBox="0 0 32 32">
<title>unicorn</title>
<path fill="#fff" d="M24.341 31.372v-2.103c0-4.296-3.483-7.779-7.779-7.779s-7.779 3.483-7.779 7.779v2.103z"></path>
<path fill="#e1bdfc" d="M17.106 24.221c1.502 0.676 2.559 2.279 2.559 4.15v0.45c0 0.701-0.568 1.269-1.269 1.269h-7.027v1.282h10.386v-1.987c-0-2.684-2.036-4.892-4.648-5.164z"></path>
<path fill="#a07575" d="M28.581 15.92c0.036-0.341 0.054-0.687 0.054-1.038v-0c0-5.456-4.423-9.879-9.879-9.879h-4.391c-5.456 0-9.879 4.423-9.879 9.879v0c0 0.351 0.019 0.697 0.054 1.038-1.073 0.311-1.859 1.301-1.859 2.474 0 1.423 1.153 2.576 2.576 2.576 0.405 0 0.789-0.094 1.13-0.261 1.797 2.456 4.701 4.051 7.977 4.051h4.391c3.276 0 6.18-1.595 7.977-4.051 0.341 0.167 0.725 0.261 1.13 0.261 1.423 0 2.576-1.153 2.576-2.576 0-1.174-0.785-2.163-1.858-2.474z"></path>
<path fill="#fff" d="M27.932 9.077c0.68-0.777 1.541-1.975 1.584-3.102 0.067-1.715-0.362-2.598-0.928-2.805-0.575-0.21-1.417 0.261-2.485 1.638-0.384 0.495-0.564 1.080-0.635 1.638-1.828-1.397-4.112-2.227-6.59-2.227h-4.829c-2.399 0-4.616 0.778-6.414 2.095-0.082-0.517-0.263-1.050-0.617-1.505-1.069-1.377-1.91-1.848-2.485-1.638-0.566 0.207-0.994 1.090-0.928 2.805 0.041 1.067 0.815 2.198 1.475 2.975-1.196 1.745-1.896 3.857-1.896 6.133v0c0 1.359 1.334 2.495 1.388 2.399 1.861-3.312 5.407-5.549 9.477-5.549h4.829c4.061 0 7.602 2.229 9.466 5.53 0.266 0.472 1.398-1.022 1.398-2.38v-0c-0-2.221-0.667-4.285-1.81-6.006z"></path>
<path fill="#faf1a9" d="M15.945 0.839l-1.481 7.778c0 2.038 4.078 2.038 4.078 0l-1.481-7.778c-0.117-0.616-0.999-0.616-1.117 0z"></path>
<path fill="#925873" d="M25.458 14.587c-0.404 4.045-3.817 7.204-7.968 7.204h-4.994c-3.192 0-5.947-1.868-7.234-4.57-0.183 0.095-0.307 0.27-0.395 0.474 1.182 4.131 4.987 7.156 9.498 7.156h4.391c4.655 0 8.558-3.221 9.603-7.555-0.599-1.291-1.576-2.386-2.901-2.709z"></path>
<path fill="#dfb5a7" d="M14.87 9.577c0.054 0.053 0.113 0.102 0.175 0.147 0.771 0.559 2.127 0.562 2.904 0.009 0.365-0.249 0.602-0.671 0.593-1.116l-1.481-7.778c-0.053-0.363-0.477-0.565-0.801-0.41 0.119 0.054 0.214 0.181 0.227 0.378l0.41 6.388c-0.108 1.222-1.598 1.41-2.306 0.756l-0.091 0.477c-0.108 0.412 0.070 0.861 0.37 1.149z"></path>
<path fill="#e1bdfc" d="M27.932 9.077c0.038-0.043 0.076-0.088 0.114-0.133-0.688-1.042-1.551-1.958-2.547-2.707-0.012 0.070-0.023 0.14-0.032 0.209-1.769-1.352-3.966-2.173-6.352-2.225 4.389 0.741 7.692 3.959 7.692 7.816-0.012 0.694-0.671 0.476-0.983 0.151-1.704-1.775-4.592-2.377-7.877-2.454-0.778 0.553-2.133 0.55-2.904-0.009h-2.138c-3.605 0-6.138 2.194-8.395 4.074-0.52 0.433-0.887-0.033-1.078-0.686-0.099 0.589-0.151 1.195-0.151 1.812 0 1.32 1.258 2.43 1.38 2.404 0.121-0.207 0.248-0.409 0.382-0.607-0.001-0.003-0.002-0.006-0.004-0.009 1.938-2.973 5.293-4.938 9.106-4.938h4.829c2.493 0 4.789 0.841 6.622 2.253h-0.103c-0.002 0.050-0.004 0.1-0.006 0.15 1.149 0.883 2.117 1.989 2.838 3.255 0.020-0.076 0.038-0.152 0.056-0.229 0.020 0.034 0.040 0.067 0.059 0.101 0.133 0.235 0.48-0.017 0.795-0.497 0.276-0.475 0.506-1.113 0.506-1.724v-0c0-2.221-0.667-4.285-1.81-6.005z"></path>
<path fill="#e8c2d8" d="M20.29 12.047c-1.099-1.261-2.968-2.43-3.657-2.005-0.021-0.003-0.043-0.005-0.065-0.005-0.026 0-0.052 0.002-0.077 0.006-0.688-0.428-2.559 0.742-3.659 2.004-1.115 1.28-1.013 2.17-0.35 2.651 0.625 0.454 1.525 0.383 2.562-0.702 0.082 1.409 0.733 1.966 1.524 1.966 0.789 0 1.438-0.554 1.523-1.952 1.031 1.071 1.926 1.14 2.549 0.688 0.663-0.481 0.765-1.371-0.35-2.651z"></path>
<path fill="#d789b9" d="M20.41 28.553c0 0.743-0.603 1.346-1.346 1.346s-1.346-0.603-1.346-1.346c0-0.743 0.603-1.346 1.346-1.346s1.346 0.603 1.346 1.346z"></path>
<path fill="#e8c2d8" d="M3.375 22.552l0.515 1.449c0.022 0.062 0.066 0.111 0.121 0.136l1.288 0.58c0.182 0.082 0.182 0.372 0 0.454l-1.288 0.58c-0.055 0.025-0.099 0.074-0.121 0.136l-0.515 1.449c-0.073 0.205-0.33 0.205-0.403 0l-0.515-1.449c-0.022-0.062-0.066-0.111-0.121-0.136l-1.288-0.58c-0.182-0.082-0.182-0.372 0-0.454l1.288-0.58c0.055-0.025 0.099-0.074 0.121-0.136l0.515-1.449c0.073-0.205 0.33-0.205 0.403 0z"></path>
<path fill="#e8c2d8" d="M29.546 26.862l0.382 1.075c0.016 0.046 0.049 0.082 0.090 0.101l0.955 0.43c0.135 0.061 0.135 0.276 0 0.337l-0.955 0.43c-0.041 0.018-0.073 0.055-0.090 0.101l-0.382 1.075c-0.054 0.152-0.245 0.152-0.299 0l-0.382-1.075c-0.016-0.046-0.049-0.082-0.090-0.101l-0.955-0.43c-0.135-0.061-0.135-0.276 0-0.337l0.955-0.43c0.041-0.018 0.073-0.055 0.090-0.101l0.382-1.075c0.054-0.152 0.245-0.152 0.299 0z"></path>
<path fill="#d789b9" d="M27.902 25.564c0 0.268-0.217 0.486-0.485 0.486s-0.485-0.217-0.485-0.486c0-0.268 0.217-0.485 0.485-0.485s0.485 0.217 0.485 0.485z"></path>
<path fill="#d789b9" d="M31.088 23.422c0 0.268-0.217 0.485-0.485 0.485s-0.485-0.217-0.485-0.485 0.217-0.486 0.485-0.486c0.268 0 0.485 0.217 0.485 0.486z"></path>
<path fill="#d789b9" d="M6.185 28.627c0 0.268-0.217 0.486-0.486 0.486s-0.486-0.217-0.486-0.486c0-0.268 0.217-0.485 0.486-0.485s0.486 0.217 0.486 0.485z"></path>
<path fill="#3c122c" d="M30.187 16.192c0.115-0.369 0.183-0.751 0.183-1.11 0-2.177-0.609-4.215-1.665-5.952 0.674-0.841 1.394-1.995 1.438-3.131 0.098-2.513-0.797-3.22-1.339-3.419 0 0 0 0-0 0-0.913-0.334-1.989 0.286-3.196 1.843-0.239 0.308-0.412 0.643-0.535 0.984-1.789-1.149-3.915-1.816-6.195-1.816h-0.91l-0.537-2.822c-0.086-0.452-0.468-0.768-0.928-0.768s-0.842 0.316-0.928 0.768l-0.537 2.822h-0.988c-2.213 0-4.281 0.629-6.036 1.717-0.12-0.307-0.282-0.606-0.498-0.885-1.208-1.557-2.283-2.176-3.196-1.843 0 0 0 0-0 0-0.542 0.198-1.437 0.906-1.339 3.419 0.042 1.075 0.689 2.166 1.329 2.993-1.109 1.767-1.751 3.855-1.751 6.090 0 0.453 0.114 0.87 0.27 1.23-0.481 0.561-0.772 1.288-0.772 2.082 0 1.767 1.437 3.204 3.204 3.204 0.321 0 0.63-0.049 0.922-0.137 0.966 1.199 2.188 2.182 3.584 2.865-1.012 1.388-1.611 3.097-1.611 4.943v2.103c0 0.347 0.281 0.628 0.627 0.628s0.627-0.281 0.627-0.628v-2.103c0-1.679 0.582-3.224 1.555-4.446 0.587 0.201 1.196 0.352 1.824 0.447-1.104 1.018-1.796 2.476-1.796 4.092v2.248c0 0.208 0.169 0.377 0.377 0.377s0.377-0.169 0.377-0.377v-2.248c0-1.656 0.841-3.119 2.118-3.986 0.167 0.008 0.334 0.012 0.503 0.012h1.819v6.197c0 0.208 0.169 0.377 0.377 0.377s0.377-0.169 0.377-0.377v-6.197h1.819c0.169 0 0.336-0.004 0.503-0.012 1.277 0.867 2.118 2.329 2.118 3.986v2.248c0 0.208 0.169 0.377 0.377 0.377s0.377-0.169 0.377-0.377v-2.248c0-1.616-0.693-3.074-1.796-4.092 0.628-0.095 1.237-0.246 1.824-0.447 0.973 1.222 1.555 2.767 1.555 4.446v2.103c0 0.347 0.281 0.627 0.628 0.627s0.628-0.281 0.628-0.628v-2.103c0-1.846-0.598-3.555-1.611-4.943 1.395-0.683 2.618-1.666 3.583-2.864 0.292 0.088 0.602 0.136 0.923 0.136 1.767 0 3.204-1.437 3.204-3.204 0-0.853-0.335-1.628-0.88-2.203zM26.599 5.192c0.995-1.283 1.595-1.498 1.774-1.433 0.165 0.060 0.579 0.572 0.516 2.191-0.026 0.674-0.448 1.438-0.932 2.095-0.532-0.684-1.139-1.308-1.809-1.857 0.080-0.352 0.219-0.699 0.451-0.997zM18.878 4.845c5.645 0 10.237 4.592 10.237 10.237 0 0.591-0.278 1.212-0.522 1.575-1.867-2.949-4.978-4.884-8.418-5.276-0.58-0.559-1.291-1.058-1.952-1.388 0.419-0.319 0.696-0.779 0.696-1.376 0-0.024-0.002-0.047-0.007-0.070l-0.705-3.701h0.671zM13.116 12.294c0.757-0.869 1.879-1.592 2.651-1.856 0.026 0.006 0.052 0.012 0.079 0.018-0.56 1.26-1.061 2.442-1.152 3.359-0.472 0.471-1.291 1.086-1.991 0.578-0.201-0.146-0.31-0.321-0.335-0.535-0.032-0.285 0.071-0.788 0.747-1.564zM17.918 7.351l-3.037 1.089 0.331-1.736 2.421-0.85zM17.49 5.105l-2.116 0.743 0.354-1.862 1.443-0.555zM15.027 9.187l3.033-1.087 0.105 0.55c-0.015 0.503-0.384 0.827-0.858 0.991-0.131-0.032-0.254-0.053-0.368-0.060-0.128-0.008-0.632-0.006-0.747 0.001-0.134 0.008-0.282 0.035-0.438 0.077-0.299-0.094-0.561-0.25-0.726-0.471zM15.432 14.099c0.001-0.806 0.551-2.097 1.125-3.387 0.034 0.078 0.068 0.156 0.102 0.233 0.506 1.161 1.080 2.478 1.040 3.183-0.001 0.017-0 0.034 0.001 0.051-0.074 0.681-0.339 1.406-1.131 1.406-0.814 0-1.072-0.764-1.137-1.464 0.001-0.008 0.001-0.015 0.001-0.023zM18.442 13.829c-0.079-0.857-0.574-1.992-1.094-3.185-0.030-0.070-0.061-0.14-0.092-0.21 0.017-0.004 0.034-0.008 0.051-0.013 0.771 0.249 1.925 0.985 2.698 1.873 0.676 0.776 0.78 1.279 0.747 1.564-0.024 0.214-0.134 0.389-0.335 0.535-0.695 0.504-1.508-0.099-1.977-0.564zM16.503 0.753c0.059 0 0.163 0.020 0.189 0.156l0.337 1.77-1.134 0.436 0.42-2.206c0.026-0.136 0.129-0.156 0.188-0.156zM4.233 5.95c-0.063-1.62 0.351-2.131 0.516-2.191 0.178-0.065 0.779 0.15 1.774 1.433 0.203 0.261 0.335 0.56 0.418 0.866-0.692 0.546-1.319 1.17-1.87 1.858-0.444-0.627-0.814-1.336-0.839-1.966zM14.049 4.845h0.749l-0.705 3.701c-0.004 0.023-0.007 0.047-0.007 0.070 0 0.619 0.298 1.092 0.744 1.412-0.632 0.325-1.302 0.799-1.858 1.328-3.477 0.328-6.637 2.23-8.554 5.167-0.286-0.351-0.608-0.886-0.608-1.441 0-5.645 4.592-10.237 10.237-10.237zM5.259 20.343c-1.075 0-1.949-0.874-1.949-1.949 0-0.344 0.091-0.667 0.248-0.947 0.216 0.246 0.524 0.548 0.8 0.636 0.256 0.797 0.604 1.553 1.032 2.255-0.044 0.003-0.087 0.005-0.132 0.005zM18.757 24.134h-4.391c-4.274 0-7.88-2.913-8.937-6.858 1.476-2.3 3.804-3.899 6.432-4.477-0.2 0.407-0.28 0.789-0.24 1.144 0.048 0.424 0.269 0.79 0.64 1.060 0.364 0.265 1.277 0.706 2.514-0.253 0.249 1.008 0.889 1.589 1.794 1.589 0.902 0 1.541-0.578 1.791-1.58 1.231 0.947 2.139 0.507 2.502 0.244 0.371-0.269 0.592-0.636 0.64-1.060 0.039-0.34-0.035-0.706-0.216-1.093 2.619 0.636 4.92 2.292 6.347 4.642-1.129 3.835-4.681 6.642-8.876 6.642zM27.864 20.343c-0.044 0-0.089-0.002-0.132-0.005 0.419-0.686 0.761-1.424 1.015-2.201 0.283-0.091 0.569-0.343 0.821-0.688 0.156 0.28 0.246 0.603 0.246 0.946-0 1.075-0.874 1.949-1.949 1.949z"></path>
<path fill="#3c122c" d="M11.732 15.362c-0.049-0.025-0.497-0.245-1.065-0.245s-1.015 0.22-1.065 0.245c-0.185 0.094-0.258 0.319-0.164 0.505s0.32 0.259 0.505 0.167c0.003-0.002 0.333-0.164 0.724-0.164s0.721 0.162 0.722 0.163c0.055 0.028 0.113 0.041 0.171 0.041 0.137 0 0.269-0.075 0.336-0.205 0.095-0.185 0.021-0.412-0.164-0.506z"></path>
<path fill="#3c122c" d="M23.52 15.362c-0.049-0.025-0.497-0.245-1.065-0.245s-1.015 0.22-1.065 0.245c-0.185 0.094-0.258 0.319-0.164 0.505s0.32 0.259 0.505 0.167c0.003-0.002 0.333-0.164 0.724-0.164s0.721 0.162 0.722 0.163c0.055 0.028 0.113 0.041 0.171 0.041 0.137 0 0.269-0.075 0.336-0.205 0.095-0.185 0.021-0.412-0.164-0.506z"></path>
<path fill="#3c122c" d="M17.664 18.585c-0.208 0-0.377 0.169-0.377 0.377 0 0.401-0.326 0.726-0.726 0.726s-0.726-0.326-0.726-0.726c0-0.208-0.169-0.377-0.377-0.377s-0.377 0.169-0.377 0.377c0 0.816 0.664 1.479 1.479 1.479s1.479-0.664 1.479-1.479c0-0.208-0.169-0.377-0.377-0.377z"></path>
<path fill="#3c122c" d="M19.064 26.83c-0.95 0-1.722 0.773-1.722 1.722s0.773 1.722 1.722 1.722 1.722-0.773 1.722-1.722c-0-0.95-0.773-1.722-1.722-1.722zM19.064 29.522c-0.535 0-0.969-0.435-0.969-0.969s0.435-0.969 0.969-0.969c0.535 0 0.969 0.435 0.969 0.969s-0.435 0.969-0.969 0.969z"></path>
<path fill="#3c122c" d="M24.195 10.558c0.208 0 0.377-0.169 0.377-0.377v-0.711c0-0.208-0.169-0.377-0.377-0.377s-0.377 0.169-0.377 0.377v0.711c0 0.208 0.169 0.377 0.377 0.377z"></path>
<path fill="#3c122c" d="M26.018 12.098c0.208 0 0.377-0.169 0.377-0.377v-0.711c0-0.208-0.169-0.377-0.377-0.377s-0.377 0.169-0.377 0.377v0.711c0 0.208 0.169 0.377 0.377 0.377z"></path>
<path fill="#3c122c" d="M10.668 17.858c-0.609 0-1.103 0.494-1.103 1.103s0.494 1.103 1.103 1.103 1.103-0.494 1.103-1.103c-0-0.609-0.494-1.103-1.103-1.103z"></path>
<path fill="#3c122c" d="M22.778 17.912c0.583 0.177 0.912 0.792 0.736 1.375s-0.792 0.912-1.375 0.736c-0.583-0.177-0.912-0.792-0.736-1.375s0.792-0.912 1.375-0.736z"></path>
</svg>
