<!-- Generated by IcoMoon.io -->
<svg version="1.1" xmlns="http://www.w3.org/2000/svg" width="32" height="32" viewBox="0 0 32 32">
<title>alien</title>
<path d="M29.611 26.949l0.514 1.446c0.022 0.062 0.066 0.111 0.121 0.136l1.285 0.579c0.181 0.082 0.181 0.371 0 0.453l-1.285 0.579c-0.055 0.025-0.099 0.074-0.121 0.136l-0.514 1.446c-0.073 0.204-0.33 0.204-0.402 0l-0.514-1.446c-0.022-0.062-0.066-0.111-0.121-0.136l-1.285-0.579c-0.181-0.082-0.181-0.371 0-0.453l1.285-0.579c0.055-0.025 0.099-0.074 0.121-0.136l0.514-1.446c0.073-0.204 0.33-0.204 0.402 0z"></path>
<path d="M1.905 26.536l0.381 1.073c0.016 0.046 0.049 0.082 0.090 0.101l0.953 0.429c0.135 0.061 0.135 0.275 0 0.336l-0.953 0.429c-0.041 0.018-0.073 0.055-0.090 0.101l-0.381 1.073c-0.054 0.152-0.244 0.152-0.298 0l-0.381-1.073c-0.016-0.046-0.049-0.082-0.089-0.101l-0.953-0.429c-0.135-0.061-0.135-0.275 0-0.336l0.953-0.429c0.041-0.018 0.073-0.055 0.089-0.101l0.381-1.073c0.054-0.152 0.244-0.152 0.298 0z"></path>
<path d="M5.74 24.57c0.528 0.326 0.691 1.019 0.365 1.546s-1.019 0.691-1.546 0.365c-0.528-0.326-0.691-1.019-0.365-1.546s1.019-0.691 1.546-0.365z"></path>
<path d="M25.695 26.050c0-0.268 0.217-0.484 0.484-0.484s0.484 0.217 0.484 0.484-0.217 0.484-0.484 0.484c-0.267 0-0.484-0.217-0.484-0.484z"></path>
<path d="M31.402 20.558c0.528 0.326 0.691 1.019 0.365 1.546s-1.019 0.691-1.546 0.365c-0.528-0.326-0.691-1.019-0.365-1.546s1.019-0.691 1.546-0.365z"></path>
<path d="M1.7 21.297c0-0.268 0.217-0.484 0.484-0.484s0.484 0.217 0.484 0.484-0.217 0.484-0.484 0.484-0.484-0.217-0.484-0.484z"></path>
<path d="M28.652 14.921c0-3.389-1.617-6.407-4.12-8.325l0.876-2.137c0.882-0.122 1.645-0.766 1.871-1.681 0.297-1.199-0.438-2.416-1.636-2.712-0.581-0.144-1.183-0.053-1.695 0.257s-0.873 0.799-1.017 1.38c-0.168 0.68-0.005 1.365 0.387 1.885l-0.746 1.82c-1.339-0.622-2.831-0.971-4.402-0.971h-4.381c-1.572 0-3.063 0.348-4.402 0.971l-0.746-1.82c0.391-0.52 0.555-1.206 0.387-1.885-0.297-1.199-1.513-1.933-2.712-1.636s-1.933 1.513-1.636 2.712c0.144 0.581 0.505 1.071 1.017 1.38 0.266 0.16 0.556 0.262 0.855 0.303l0.875 2.135c-2.503 1.918-4.12 4.936-4.12 8.325 0 4.135 2.407 7.718 5.893 9.423-1.010 1.385-1.607 3.090-1.607 4.932v2.098c0 0.346 0.28 0.626 0.626 0.626s0.626-0.28 0.626-0.626v-2.098c0-1.675 0.581-3.218 1.551-4.436 0.585 0.201 1.194 0.351 1.82 0.446-1.101 1.016-1.792 2.47-1.792 4.083v2.243c0 0.207 0.168 0.376 0.376 0.376s0.376-0.168 0.376-0.376v-2.243c0-1.653 0.84-3.112 2.114-3.977 0.166 0.008 0.333 0.012 0.501 0.012h4.381c0.168 0 0.335-0.004 0.502-0.012 1.274 0.865 2.114 2.324 2.114 3.977v2.243c0 0.207 0.168 0.376 0.376 0.376s0.376-0.168 0.376-0.376v-2.243c0-1.613-0.691-3.067-1.791-4.083 0.626-0.095 1.234-0.245 1.819-0.446 0.97 1.219 1.551 2.761 1.551 4.436v2.098c0 0.346 0.28 0.626 0.626 0.626s0.626-0.28 0.626-0.626v-2.098c0-1.842-0.597-3.547-1.608-4.932 3.486-1.705 5.892-5.288 5.892-9.423zM24.147 2.003c0.063-0.256 0.223-0.472 0.448-0.608s0.491-0.176 0.747-0.113c0.529 0.131 0.852 0.667 0.722 1.196s-0.667 0.852-1.196 0.721c-0.529-0.131-0.852-0.667-0.722-1.196zM23.907 4.132c0.199 0.126 0.42 0.223 0.661 0.283 0.014 0.004 0.029 0.006 0.043 0.009l-0.707 1.726c-0.215-0.141-0.435-0.274-0.66-0.399zM5.894 2.478c-0.131-0.529 0.193-1.065 0.721-1.196 0.079-0.020 0.159-0.029 0.237-0.029 0.443 0 0.848 0.301 0.959 0.75 0.063 0.256 0.023 0.522-0.113 0.747s-0.352 0.385-0.608 0.448-0.521 0.023-0.747-0.113c-0.226-0.136-0.385-0.352-0.448-0.608zM7.347 4.424c0.014-0.003 0.029-0.006 0.043-0.009 0.241-0.059 0.462-0.157 0.661-0.283l0.663 1.619c-0.225 0.125-0.445 0.258-0.66 0.399zM18.169 24.151h-4.381c-5.090 0-9.231-4.141-9.231-9.231s4.141-9.231 9.231-9.231h4.381c5.090 0 9.231 4.141 9.231 9.231s-4.141 9.231-9.231 9.231z"></path>
<path d="M11.8 18.265c0.837 0.837 1.132 1.898 0.659 2.37s-1.534 0.177-2.37-0.659c-0.837-0.837-1.132-1.898-0.659-2.37s1.534-0.177 2.37 0.659z"></path>
<path d="M21.477 17.445c-0.926 0.258-1.885 1.217-2.143 2.143s0.284 1.468 1.21 1.21 1.885-1.217 2.143-2.143c0.257-0.926-0.284-1.468-1.21-1.21z"></path>
<path d="M10.098 15.906c0.39 0 0.719 0.162 0.721 0.163 0.055 0.028 0.113 0.041 0.171 0.041 0.137 0 0.268-0.075 0.335-0.205 0.094-0.185 0.021-0.411-0.164-0.505-0.049-0.025-0.496-0.245-1.062-0.245s-1.013 0.22-1.062 0.245c-0.184 0.094-0.257 0.319-0.164 0.503s0.319 0.259 0.504 0.167c0.003-0.002 0.332-0.164 0.722-0.164z"></path>
<path d="M22.922 15.399c-0.049-0.025-0.496-0.245-1.062-0.245s-1.013 0.22-1.062 0.245c-0.184 0.094-0.257 0.319-0.164 0.503s0.319 0.259 0.504 0.167c0.003-0.002 0.332-0.163 0.722-0.163s0.719 0.162 0.721 0.163c0.055 0.028 0.113 0.041 0.171 0.041 0.137 0 0.268-0.075 0.335-0.205 0.094-0.185 0.021-0.411-0.164-0.505z"></path>
<path d="M17.079 18.615c-0.207 0-0.376 0.168-0.376 0.376 0 0.4-0.325 0.725-0.725 0.725s-0.725-0.325-0.725-0.725c0-0.207-0.168-0.376-0.376-0.376s-0.376 0.168-0.376 0.376c0 0.814 0.662 1.476 1.476 1.476s1.476-0.662 1.476-1.476c0-0.207-0.168-0.376-0.376-0.376z"></path>
<path d="M9.836 21.106c-0.206 0.007-0.367 0.178-0.362 0.385s0.177 0.368 0.383 0.366c0.050-0.001 1.242-0.005 1.844 1.397 0.061 0.142 0.2 0.228 0.345 0.228 0.049 0 0.1-0.010 0.148-0.030 0.191-0.082 0.279-0.303 0.197-0.493-0.809-1.887-2.485-1.855-2.556-1.852z"></path>
<path d="M22.122 21.106c-0.071-0.002-1.747-0.035-2.556 1.852-0.082 0.191 0.007 0.412 0.197 0.493 0.048 0.021 0.098 0.030 0.148 0.030 0.146 0 0.284-0.085 0.345-0.228 0.599-1.399 1.786-1.398 1.843-1.397 0.205 0.007 0.379-0.157 0.385-0.363s-0.156-0.381-0.363-0.388z"></path>
<path d="M10.344 9.035c-0.202 0-0.401-0.098-0.521-0.279-0.192-0.288-0.114-0.676 0.174-0.868 0.106-0.071 0.433-0.275 0.671-0.372 0.32-0.13 0.685 0.024 0.816 0.344s-0.024 0.686-0.344 0.816c-0.097 0.040-0.321 0.169-0.448 0.254-0.107 0.071-0.227 0.105-0.347 0.105z"></path>
<path d="M7.373 11.82c-0.115 0-0.231-0.031-0.335-0.097-0.292-0.185-0.379-0.572-0.194-0.864 0.569-0.898 1.229-1.535 1.682-1.912 0.266-0.221 0.661-0.185 0.882 0.081s0.185 0.661-0.081 0.882c-0.384 0.319-0.943 0.859-1.425 1.619-0.119 0.188-0.322 0.291-0.529 0.291z"></path>
</svg>
