<!-- Generated by IcoMoon.io -->
<svg version="1.1" xmlns="http://www.w3.org/2000/svg" width="32" height="32" viewBox="0 0 32 32">
<title>angel</title>
<path d="M2.15 2.209l0.383 1.077c0.016 0.046 0.049 0.083 0.090 0.101l0.957 0.431c0.135 0.061 0.135 0.276 0 0.337l-0.957 0.431c-0.041 0.018-0.073 0.055-0.090 0.101l-0.383 1.077c-0.054 0.152-0.245 0.152-0.3 0l-0.383-1.077c-0.016-0.046-0.049-0.083-0.090-0.101l-0.956-0.431c-0.135-0.061-0.135-0.276 0-0.337l0.956-0.431c0.041-0.018 0.073-0.055 0.090-0.101l0.383-1.077c0.054-0.152 0.245-0.152 0.299 0z"></path>
<path d="M30.145 0.55c0.528 0.329 0.69 1.025 0.361 1.553s-1.025 0.69-1.553 0.361c-0.528-0.329-0.69-1.025-0.361-1.553s1.025-0.69 1.553-0.361z"></path>
<path d="M31.68 7.070c0 0.269-0.218 0.486-0.486 0.486s-0.486-0.218-0.486-0.486c0-0.269 0.218-0.486 0.486-0.486s0.486 0.218 0.486 0.486z"></path>
<path d="M30.009 20.422c0.461-0.556 0.739-1.269 0.739-2.046 0-0.682-0.215-1.314-0.579-1.834 0.187-0.502 0.301-1.045 0.34-1.627 0.001-0.016 0.002-0.033 0.002-0.049v-1.161c0-3.721-1.651-7.062-4.258-9.333v-0c0-1.296-1.133-2.453-3.191-3.258-1.839-0.719-4.268-1.115-6.839-1.115s-5.001 0.396-6.839 1.115c-2.058 0.805-3.191 1.962-3.191 3.258v0c-2.607 2.271-4.258 5.612-4.258 9.332v1.161c0 0.010 0 0.020 0.001 0.030 0.025 0.628 0.148 1.18 0.329 1.666-0.356 0.517-0.566 1.142-0.566 1.815 0 0.777 0.278 1.49 0.739 2.046v3.222c-0.421 0.479-0.678 1.107-0.678 1.794 0 1.384 1.040 2.529 2.379 2.697-0.148 0.297-0.231 0.631-0.231 0.985 0 1.224 0.996 2.22 2.22 2.22h1.678v0.032c0 0.347 0.281 0.628 0.628 0.628s0.628-0.281 0.628-0.628v-2.106c0-1.681 0.583-3.229 1.557-4.452 0.587 0.201 1.198 0.352 1.826 0.448-1.105 1.020-1.799 2.479-1.799 4.098v2.251c0 0.208 0.169 0.377 0.377 0.377s0.377-0.169 0.377-0.377v-2.251c0-1.659 0.842-3.123 2.121-3.991 0.167 0.008 0.335 0.012 0.504 0.012h4.396c0.169 0 0.337-0.005 0.504-0.012 1.279 0.868 2.121 2.333 2.121 3.991v2.251c0 0.208 0.169 0.377 0.377 0.377s0.377-0.169 0.377-0.377v-2.251c0-1.619-0.694-3.078-1.799-4.098 0.629-0.095 1.24-0.246 1.828-0.448 0.974 1.223 1.556 2.771 1.556 4.452v2.106c0 0.347 0.281 0.628 0.628 0.628s0.628-0.281 0.628-0.628v-0.032h1.678c1.224 0 2.22-0.996 2.22-2.22 0-0.354-0.084-0.688-0.231-0.985 1.34-0.168 2.38-1.313 2.38-2.697 0-0.687-0.256-1.314-0.678-1.794v-3.222zM27.968 22.718h-2.561c0.437-0.389 0.842-0.814 1.209-1.27 0.293 0.088 0.602 0.137 0.924 0.137 0.429 0 0.838-0.085 1.213-0.239v1.488c-0.249-0.075-0.512-0.116-0.785-0.116zM4.905 21.584c0.321 0 0.631-0.048 0.924-0.136 0.367 0.456 0.771 0.881 1.208 1.27h-2.561c-0.273 0-0.536 0.041-0.785 0.116v-1.488c0.374 0.154 0.784 0.239 1.213 0.239zM5.605 18.723l1.994-6.345 1.972 1.383c0.263 0.184 0.615 0.178 0.871-0.016l2.612-1.981 2.73 2.007c0.265 0.195 0.627 0.191 0.888-0.009l2.851-2.185 2.932 2.207c0.285 0.214 0.683 0.195 0.945-0.047l1.419-1.307 1.921 6.43c0.004 0.014 0.010 0.027 0.015 0.040-1.503 3.090-4.674 5.224-8.335 5.224h-4.396c-3.73-0-6.952-2.216-8.419-5.4zM29.491 18.376c0 1.076-0.875 1.951-1.951 1.951-0.045 0-0.089-0.002-0.133-0.005 0.228-0.373 0.433-0.762 0.614-1.164 0.562-0.372 1.030-0.8 1.404-1.282 0.043 0.16 0.066 0.327 0.066 0.5zM16.222 1.479c5.299 0 8.552 1.685 8.552 2.894s-3.253 2.894-8.552 2.894-8.552-1.686-8.552-2.894c0-1.208 3.254-2.894 8.552-2.894zM3.412 13.705c0-3.072 1.278-5.85 3.329-7.833 0.527 0.68 1.422 1.281 2.642 1.758 1.839 0.719 4.268 1.115 6.839 1.115s5.001-0.396 6.839-1.115c1.22-0.477 2.115-1.078 2.642-1.758 2.051 1.983 3.329 4.761 3.329 7.833v1.135c-0.076 1.061-0.456 1.899-1.179 2.578l-1.955-6.546c-0.137-0.512-0.828-0.703-1.209-0.332l-1.837 1.691-2.888-2.174c-0.265-0.2-0.631-0.198-0.894 0.004l-2.857 2.189-2.728-2.005c-0.264-0.194-0.624-0.191-0.885 0.007l-2.622 1.989-2.357-1.653c-0.193-0.135-0.439-0.171-0.662-0.095s-0.397 0.254-0.468 0.478l-2.011 6.398c-0.564-0.614-1.020-1.396-1.069-2.519zM4.365 19.274c0.049 0.040 0.102 0.073 0.158 0.099 0.156 0.326 0.327 0.643 0.514 0.95-0.044 0.003-0.088 0.005-0.133 0.005-1.076 0-1.951-0.875-1.951-1.951 0-0.159 0.020-0.313 0.056-0.461 0.475 0.631 1.004 1.068 1.356 1.359zM6.126 30.083c-0.531 0-0.963-0.432-0.963-0.963s0.432-0.963 0.963-0.963h1.752c-0.048 0.363-0.073 0.733-0.073 1.109v0.817h-1.678zM8.143 26.9h-3.666c-0.806 0-1.462-0.656-1.462-1.462s0.656-1.462 1.462-1.462h4.3c0.209 0.121 0.423 0.235 0.641 0.342-0.564 0.772-0.999 1.644-1.274 2.583zM26.319 30.083h-1.678v-0.817c0-0.376-0.025-0.746-0.073-1.109h1.751c0.531 0 0.963 0.432 0.963 0.963s-0.432 0.963-0.963 0.963zM27.968 26.9h-3.666c-0.276-0.939-0.711-1.811-1.274-2.584 0.218-0.107 0.432-0.22 0.641-0.341h4.299c0.806 0 1.462 0.656 1.462 1.462s-0.656 1.462-1.462 1.462z"></path>
<path d="M11.386 15.339c-0.049-0.025-0.498-0.246-1.066-0.246s-1.017 0.221-1.066 0.246c-0.185 0.094-0.258 0.32-0.164 0.505s0.32 0.26 0.506 0.167c0.003-0.002 0.334-0.164 0.725-0.164s0.721 0.162 0.723 0.163c0.055 0.028 0.113 0.041 0.171 0.041 0.137 0 0.269-0.075 0.336-0.206 0.095-0.185 0.021-0.413-0.164-0.507z"></path>
<path d="M21.399 16.012c0.003-0.002 0.333-0.164 0.725-0.164s0.721 0.162 0.723 0.163c0.055 0.028 0.113 0.041 0.171 0.041 0.137 0 0.269-0.075 0.336-0.206 0.095-0.185 0.021-0.413-0.164-0.507-0.049-0.025-0.498-0.246-1.066-0.246s-1.017 0.221-1.066 0.246c-0.185 0.094-0.258 0.32-0.164 0.505s0.32 0.26 0.506 0.167z"></path>
<path d="M16.222 20.425c0.817 0 1.481-0.665 1.481-1.481 0-0.208-0.169-0.377-0.377-0.377s-0.377 0.169-0.377 0.377c0 0.401-0.326 0.727-0.727 0.727s-0.727-0.326-0.727-0.727c0-0.208-0.169-0.377-0.377-0.377s-0.377 0.169-0.377 0.377c0 0.817 0.665 1.481 1.481 1.481z"></path>
<path d="M11.157 5.891c1.357 0.314 3.156 0.487 5.066 0.487s3.708-0.173 5.066-0.487c1.585-0.366 2.355-0.863 2.355-1.519s-0.77-1.152-2.355-1.519c-1.357-0.314-3.156-0.487-5.066-0.487s-3.708 0.173-5.066 0.487c-1.585 0.366-2.355 0.863-2.355 1.519s0.77 1.152 2.355 1.519zM11.326 3.588c1.303-0.301 3.042-0.467 4.896-0.467s3.592 0.166 4.896 0.467c1.456 0.337 1.771 0.71 1.771 0.784s-0.315 0.448-1.771 0.784c-1.303 0.301-3.042 0.467-4.896 0.467s-3.592-0.166-4.896-0.467c-1.456-0.337-1.771-0.71-1.771-0.784s0.315-0.448 1.771-0.784z"></path>
<path d="M16.873 26.614c-0.208 0-0.377 0.169-0.377 0.377v0.712c0 0.208 0.169 0.377 0.377 0.377s0.377-0.169 0.377-0.377v-0.712c0-0.208-0.169-0.377-0.377-0.377z"></path>
<path d="M19.319 28.173c-0.208 0-0.377 0.169-0.377 0.377v0.712c0 0.208 0.169 0.377 0.377 0.377s0.377-0.169 0.377-0.377v-0.712c0-0.208-0.169-0.377-0.377-0.377z"></path>
<path d="M17.854 29.136c-0.208 0-0.377 0.169-0.377 0.377v0.712c0 0.208 0.169 0.377 0.377 0.377s0.377-0.169 0.377-0.377v-0.712c0-0.208-0.169-0.377-0.377-0.377z"></path>
<path d="M10.416 17.834c0.608 0.050 1.060 0.584 1.010 1.192s-0.584 1.060-1.192 1.010c-0.608-0.050-1.060-0.584-1.010-1.192s0.584-1.060 1.192-1.010z"></path>
<path d="M22.288 17.853c0.602 0.097 1.011 0.664 0.914 1.266s-0.664 1.011-1.266 0.914c-0.602-0.097-1.011-0.664-0.914-1.266s0.664-1.011 1.266-0.914z"></path>
</svg>
