<!-- Generated by IcoMoon.io -->
<svg version="1.1" xmlns="http://www.w3.org/2000/svg" width="32" height="32" viewBox="0 0 32 32">
<title>bride</title>
<path d="M2.76 0.212l0.382 1.073c0.016 0.046 0.049 0.082 0.090 0.101l0.954 0.43c0.135 0.061 0.135 0.275 0 0.336l-0.954 0.43c-0.041 0.018-0.073 0.055-0.090 0.101l-0.382 1.073c-0.054 0.152-0.245 0.152-0.299 0l-0.382-1.073c-0.016-0.046-0.049-0.082-0.089-0.101l-0.954-0.43c-0.135-0.061-0.135-0.275 0-0.336l0.954-0.43c0.041-0.018 0.073-0.055 0.089-0.101l0.382-1.073c0.054-0.152 0.245-0.152 0.299 0z"></path>
<path d="M0.97 5.999c0 0.268-0.217 0.485-0.485 0.485s-0.485-0.217-0.485-0.485c0-0.268 0.217-0.485 0.485-0.485s0.485 0.217 0.485 0.485z"></path>
<path d="M22.508 15.29c-0.049-0.025-0.496-0.245-1.063-0.245s-1.014 0.22-1.063 0.245c-0.184 0.094-0.257 0.319-0.164 0.504s0.319 0.259 0.504 0.167c0.003-0.002 0.332-0.164 0.723-0.164s0.719 0.162 0.721 0.163c0.055 0.028 0.113 0.041 0.171 0.041 0.137 0 0.269-0.075 0.335-0.205 0.094-0.185 0.021-0.411-0.164-0.506z"></path>
<path d="M16.662 18.508c-0.208 0-0.376 0.168-0.376 0.376 0 0.4-0.325 0.725-0.725 0.725s-0.725-0.325-0.725-0.725c0-0.208-0.168-0.376-0.376-0.376s-0.376 0.168-0.376 0.376c0 0.814 0.663 1.477 1.477 1.477s1.477-0.663 1.477-1.477c-0-0.208-0.168-0.376-0.376-0.376z"></path>
<path d="M30.973 9.611c0.010-0.045 0.019-0.090 0.025-0.135 0.069-0.481-0.053-0.96-0.343-1.349s-0.716-0.641-1.197-0.711c-0.046-0.007-0.091-0.011-0.137-0.014l-0.96-1.283-0.483 0.361c-0.077-0.119-0.155-0.236-0.236-0.351 0.238-0.75-0.034-1.6-0.719-2.060-0.008-0.005-0.015-0.009-0.023-0.014l-0.33-1.677-1.683 0.331c-0.036-0.028-0.073-0.056-0.111-0.081-0.433-0.291-0.947-0.369-1.419-0.261-1.618-0.837-3.454-1.312-5.398-1.312h-4.94c-6.502 0-11.792 5.29-11.792 11.792v4.51c-0.096 0.304-0.149 0.627-0.149 0.962s0.052 0.66 0.149 0.965v7.616c0 1.444 1.174 2.618 2.618 2.618h3.322v1.759c0 0.346 0.28 0.627 0.627 0.627s0.627-0.28 0.627-0.627v-2.1c0-0.936 0.182-1.831 0.511-2.651 0.236 0.073 0.486 0.112 0.745 0.112 0.413 0 0.802-0.1 1.147-0.276-0.1 0.163-0.192 0.331-0.275 0.504-0.011 0.018-0.020 0.037-0.027 0.056-0.334 0.714-0.521 1.509-0.521 2.348v2.245c0 0.208 0.168 0.376 0.376 0.376s0.376-0.168 0.376-0.376v-2.245c0-0.697 0.149-1.359 0.417-1.957 0.474-0.289 1.016-0.441 1.575-0.441 0.869 0 1.698 0.374 2.274 1.027 0.137 0.156 0.335 0.245 0.542 0.245h0c0.207 0 0.405-0.089 0.542-0.245 0.576-0.653 1.405-1.027 2.274-1.027 0.559 0 1.102 0.153 1.576 0.442 0.267 0.598 0.416 1.26 0.416 1.956v2.245c0 0.208 0.168 0.376 0.376 0.376s0.376-0.168 0.376-0.376v-2.245c0-1.614-0.691-3.069-1.793-4.086 0.627-0.095 1.235-0.245 1.821-0.446 0.971 1.22 1.552 2.762 1.552 4.439v2.1c0 0.346 0.28 0.627 0.627 0.627s0.627-0.28 0.627-0.627v-1.759h3.178c1.444 0 2.618-1.175 2.618-2.618v-7.245c0.188-0.407 0.293-0.859 0.293-1.336s-0.105-0.929-0.293-1.336v-3.641c0.459-0.271 0.797-0.74 0.879-1.307 0.001-0.009 0.002-0.018 0.003-0.027l1.369-1.023zM28.209 7.171l0.277 0.371c-0.112 0.048-0.219 0.107-0.321 0.178-0.086-0.111-0.183-0.212-0.29-0.299zM27.747 8.849c0.072 0 0.145 0.005 0.218 0.016 0.296 0.043 0.567 0.169 0.787 0.362l-0.883 0.077-0.759-0.314c0.196-0.091 0.412-0.141 0.637-0.141zM20.563 6.549c0.094 0.477 0.367 0.888 0.771 1.159 0.034 0.023 0.070 0.045 0.105 0.065l0.342 1.74 1.735-0.341c0.149 0.095 0.309 0.167 0.475 0.216l-0.496 0.371 1.059 1.416c-0.117 0.963 0.547 1.851 1.504 2.011l1.076 1.438 0.654-0.489c0.001 0.048 0.003 0.095 0.003 0.143v0.995c-0.137 1.094-0.554 1.86-1.36 2.468-2.368-2.685-4.040-5.325-5.534-8.72-0.094-0.214-0.285-0.371-0.514-0.422s-0.468 0.009-0.645 0.163c-3.816 3.318-9.379 6.715-14.955 9.14-0.632-0.553-1.236-1.324-1.453-2.642v-0.981c0-5.341 4.666-9.687 10.402-9.687h3.658c1.218 0 2.388 0.197 3.475 0.557-0.009 0.012-0.018 0.024-0.027 0.037-0.271 0.403-0.368 0.888-0.274 1.364zM26.714 12.395c-0.158 0.056-0.331 0.078-0.508 0.052-0.582-0.084-0.987-0.626-0.903-1.208 0.026-0.18 0.096-0.347 0.203-0.489 0.12 0.706 0.571 1.319 1.208 1.645zM26.242 10.153c0.044-0.302 0.175-0.57 0.363-0.784l0.063 0.808-0.3 0.831c-0.12-0.258-0.169-0.553-0.126-0.856zM25.439 6.793c-0.167 0.248-0.398 0.438-0.667 0.552l0.331-0.813 0.595-0.565c-0.003 0.293-0.091 0.578-0.258 0.827zM25.28 9.929c-0.003 0.002-0.007 0.004-0.010 0.007-0.155 0.116-0.288 0.254-0.397 0.408l-0.325-0.434 0.504-0.377c0.059 0.142 0.136 0.275 0.228 0.396zM25.101 8.021c-0.085 0.171-0.144 0.357-0.172 0.552-0.002 0.014-0.003 0.027-0.004 0.041-0.071 0.031-0.146 0.056-0.224 0.071-0.279 0.055-0.564-0.002-0.8-0.161-0.151-0.101-0.269-0.237-0.35-0.394 0.202 0.058 0.41 0.088 0.621 0.088 0.147 0 0.296-0.014 0.444-0.043 0.17-0.033 0.332-0.086 0.486-0.155zM24.467 6.098l-0.177 0.435-0.334-0.34-0.333-0.129 0.282-0.253 0.157-0.415 0.313 0.348 0.346 0.114zM24.154 7.467c-0.293-0.003-0.578-0.091-0.827-0.258s-0.438-0.398-0.552-0.667l0.758 0.294zM26.944 13.113c0.16-0.055 0.31-0.131 0.447-0.226 0.102 0.132 0.219 0.247 0.349 0.345l-0.454 0.339zM27.531 11.877c-0.302-0.044-0.571-0.174-0.785-0.362l0.875-0.054 0.766 0.291c-0.259 0.12-0.553 0.169-0.856 0.126zM27.401 9.924l0.35 0.145 0.442-0.039-0.178 0.433 0.047 0.361-0.326-0.124-0.469 0.029 0.162-0.448zM27.512 8.109c-0.742 0.077-1.397 0.518-1.754 1.161-0.082-0.179-0.116-0.382-0.086-0.591 0.041-0.282 0.189-0.531 0.417-0.702 0.186-0.139 0.408-0.213 0.636-0.213 0.051 0 0.103 0.004 0.155 0.011 0.246 0.035 0.466 0.152 0.632 0.333zM26.795 6.173c-0.108 0.161-0.254 0.285-0.424 0.366 0.090-0.333 0.104-0.684 0.035-1.032-0.073-0.37-0.233-0.708-0.464-0.993 0.194 0.006 0.389 0.064 0.561 0.18 0.488 0.328 0.619 0.992 0.291 1.48zM25.977 3.26l0.1 0.508c-0.177-0.016-0.356-0.006-0.529 0.030-0.001-0.004-0.001-0.008-0.002-0.012-0.029-0.145-0.074-0.284-0.134-0.415zM25.023 4.681c0.248 0.167 0.437 0.397 0.551 0.666l-0.775-0.255-0.602-0.669c0.292 0.004 0.578 0.091 0.826 0.258zM22.877 3.543c0.328-0.488 0.992-0.619 1.48-0.291 0.182 0.122 0.319 0.294 0.397 0.494-0.328-0.087-0.674-0.099-1.017-0.031-0.389 0.077-0.744 0.25-1.037 0.501-0.018-0.237 0.043-0.472 0.177-0.672zM22.912 5.097c0.167-0.248 0.398-0.438 0.667-0.552l-0.312 0.829-0.613 0.549c0.004-0.292 0.091-0.578 0.258-0.826zM22.698 7.982c0.003-0.001 0.007-0.002 0.010-0.002 0.001 0.003 0.001 0.007 0.002 0.010 0.037 0.19 0.104 0.37 0.196 0.535l-0.532 0.105-0.121-0.616c0.030 0.002 0.061 0.003 0.091 0.003 0.118 0 0.237-0.011 0.355-0.035zM21.753 7.083c-0.237-0.159-0.397-0.4-0.452-0.68s0.002-0.564 0.161-0.8c0.141-0.211 0.346-0.353 0.571-0.422-0.137 0.382-0.169 0.794-0.088 1.202 0.063 0.322 0.193 0.62 0.378 0.88-0.202-0.004-0.398-0.065-0.57-0.18zM21.967 4.421c-0.136 0.029-0.268 0.074-0.395 0.133l-0.081-0.411 0.454-0.089c-0.005 0.122 0.002 0.245 0.021 0.367zM13.018 2.307h4.94c1.51 0 2.946 0.321 4.246 0.896-0.008 0.013-0.016 0.026-0.024 0.038l-1.535 0.302c-1.035-0.278-2.127-0.427-3.256-0.427h-3.658c-4.67 0-8.719 2.547-10.658 6.24 1.444-4.101 5.356-7.049 9.944-7.049zM2.157 16.63c0.002-0.002 0.004-0.004 0.006-0.006 0.002 0.004 0.003 0.009 0.005 0.013-0.003-0.002-0.007-0.005-0.010-0.007zM2.535 17.452c0.344 0.623 0.767 1.097 1.187 1.477 0.198 0.461 0.428 0.905 0.687 1.33-0.044 0.003-0.088 0.005-0.132 0.005-1.073 0-1.946-0.873-1.946-1.946-0-0.311 0.074-0.605 0.204-0.866zM7.217 28.263h-3.373c-0.753 0-1.365-0.612-1.365-1.365v-5.936c0.513 0.349 1.131 0.554 1.797 0.554 0.32 0 0.629-0.048 0.921-0.136 0.598 0.743 1.296 1.403 2.072 1.96-0.078 0.243-0.12 0.501-0.12 0.769 0 0.677 0.268 1.292 0.703 1.746-0.325 0.752-0.543 1.561-0.635 2.407zM9.676 25.885c-0.979 0-1.775-0.796-1.775-1.775s0.796-1.775 1.775-1.775 1.775 0.796 1.775 1.775-0.796 1.775-1.775 1.775zM18.377 26.119c-1.074 0-2.099 0.458-2.816 1.257-0.717-0.799-1.742-1.257-2.816-1.257-0.308 0-0.612 0.038-0.906 0.11 0.295-0.361 0.642-0.678 1.028-0.94 0.167 0.008 0.334 0.013 0.503 0.013h4.384c0.168 0 0.335-0.004 0.502-0.012 0.386 0.262 0.733 0.579 1.028 0.939-0.294-0.072-0.598-0.11-0.905-0.11zM17.752 24.048h-4.384c-0.396 0-0.786-0.027-1.17-0.076-0.065-1.197-0.967-2.175-2.129-2.358v-2.442c0.195 0.048 0.326 0.112 0.327 0.113 0.055 0.028 0.113 0.041 0.171 0.041 0.137 0 0.269-0.075 0.335-0.205 0.094-0.185 0.021-0.411-0.164-0.506-0.049-0.025-0.496-0.245-1.063-0.245s-1.014 0.22-1.063 0.245c-0.184 0.094-0.257 0.319-0.164 0.504s0.319 0.259 0.504 0.167c0.002-0.001 0.15-0.074 0.365-0.122v2.445c-0.53 0.076-1.008 0.317-1.379 0.669-1.085-0.791-1.991-1.812-2.647-2.992 5.378-2.33 10.763-5.556 14.662-8.776 1.55 3.317 3.32 5.958 5.806 8.69 0.024 0.026 0.050 0.050 0.077 0.073-1.576 2.845-4.609 4.776-8.085 4.776zM28.497 26.898c0 0.753-0.612 1.365-1.365 1.365h-3.227c-0.162-1.492-0.717-2.869-1.559-4.023 1.393-0.682 2.614-1.663 3.578-2.86 0.292 0.088 0.601 0.136 0.922 0.136 0.604 0 1.17-0.169 1.652-0.461zM26.845 20.264c-0.044 0-0.088-0.002-0.132-0.005 0.28-0.459 0.526-0.94 0.734-1.441 0.483-0.386 0.867-0.826 1.158-1.329 0.119 0.252 0.187 0.533 0.187 0.83 0 1.073-0.873 1.946-1.946 1.946zM29.885 11.927c-0.084 0.582-0.626 0.987-1.208 0.903-0.192-0.028-0.367-0.106-0.514-0.224 0.714-0.133 1.327-0.605 1.639-1.263 0.079 0.177 0.112 0.378 0.082 0.584zM28.787 10.564l0.342-0.833c0.123 0.265 0.168 0.56 0.125 0.857-0.044 0.302-0.174 0.571-0.362 0.785zM30.254 9.368c-0.031 0.217-0.127 0.414-0.273 0.571-0.064-0.333-0.203-0.65-0.412-0.93-0.238-0.318-0.547-0.562-0.901-0.718 0.162-0.093 0.342-0.142 0.528-0.142 0.051 0 0.103 0.004 0.155 0.011 0.282 0.041 0.531 0.189 0.702 0.417s0.242 0.509 0.201 0.791zM30.532 11.143c-0.062-0.167-0.148-0.323-0.255-0.464 0.003-0.002 0.007-0.005 0.010-0.007 0.118-0.088 0.224-0.19 0.316-0.301l0.345 0.461z"></path>
<path d="M6.217 12.785c-0.062 0-0.125-0.009-0.187-0.029-0.33-0.103-0.514-0.455-0.411-0.785 0.292-0.936 0.796-1.811 1.498-2.6 0.23-0.259 0.626-0.282 0.885-0.052s0.282 0.626 0.052 0.884c-0.583 0.656-1 1.377-1.239 2.142-0.084 0.268-0.331 0.44-0.598 0.44z"></path>
<path d="M8.93 9.206c-0.194 0-0.385-0.090-0.508-0.259-0.203-0.28-0.141-0.672 0.139-0.875 0.157-0.114 0.321-0.226 0.487-0.332 0.291-0.187 0.679-0.102 0.866 0.19s0.102 0.679-0.19 0.865c-0.146 0.094-0.29 0.192-0.427 0.291-0.111 0.081-0.24 0.12-0.367 0.12z"></path>
<path d="M9.829 23.358c0.409 0.335 0.468 0.939 0.133 1.347s-0.939 0.468-1.347 0.133c-0.409-0.335-0.468-0.939-0.133-1.347s0.939-0.468 1.347-0.133z"></path>
<path d="M21.609 17.796c0.6 0.097 1.008 0.662 0.912 1.262s-0.662 1.008-1.262 0.912c-0.6-0.097-1.008-0.662-0.912-1.262s0.662-1.008 1.262-0.912z"></path>
</svg>
