<!-- Generated by IcoMoon.io -->
<svg version="1.1" xmlns="http://www.w3.org/2000/svg" width="32" height="32" viewBox="0 0 32 32">
<title>catrina</title>
<path d="M29.547 24.781l0.524 1.472c0.022 0.063 0.067 0.113 0.123 0.138l1.308 0.589c0.185 0.083 0.185 0.378 0 0.461l-1.308 0.589c-0.056 0.025-0.1 0.075-0.123 0.138l-0.524 1.472c-0.074 0.208-0.336 0.208-0.41 0l-0.524-1.472c-0.022-0.063-0.067-0.113-0.123-0.138l-1.308-0.589c-0.185-0.083-0.185-0.378 0-0.461l1.308-0.589c0.056-0.025 0.1-0.075 0.123-0.138l0.524-1.472c0.074-0.208 0.336-0.208 0.41 0z"></path>
<path d="M27.484 0.116l0.388 1.092c0.017 0.047 0.050 0.084 0.091 0.103l0.97 0.437c0.137 0.062 0.137 0.28 0 0.342l-0.97 0.437c-0.042 0.019-0.074 0.056-0.091 0.103l-0.388 1.092c-0.055 0.154-0.249 0.154-0.304 0l-0.388-1.092c-0.017-0.047-0.050-0.084-0.091-0.103l-0.97-0.437c-0.137-0.062-0.137-0.28 0-0.342l0.97-0.437c0.042-0.019 0.074-0.056 0.091-0.103l0.388-1.092c0.055-0.154 0.249-0.154 0.304 0z"></path>
<path d="M27.102 24.493c0 0.272-0.221 0.493-0.493 0.493s-0.493-0.221-0.493-0.493c0-0.272 0.221-0.493 0.493-0.493s0.493 0.221 0.493 0.493z"></path>
<path d="M1.718 1.647c0 0.272-0.221 0.493-0.493 0.493s-0.493-0.221-0.493-0.493 0.221-0.493 0.493-0.493 0.493 0.221 0.493 0.493z"></path>
<path d="M3.709 24.031c-0.027 0-0.055-0.003-0.083-0.009-0.206-0.046-0.337-0.25-0.291-0.456 0.061-0.278 0.166-0.546 0.309-0.795 0.106-0.183 0.34-0.245 0.522-0.14s0.246 0.339 0.14 0.522c-0.105 0.181-0.18 0.376-0.225 0.578-0.039 0.178-0.198 0.3-0.373 0.3z"></path>
<path d="M4.859 26.639c-0.065 0-0.131-0.017-0.191-0.051-0.56-0.323-0.993-0.834-1.219-1.438-0.074-0.198 0.026-0.418 0.224-0.492s0.418 0.026 0.492 0.224c0.164 0.439 0.479 0.809 0.885 1.044 0.183 0.106 0.246 0.34 0.14 0.522-0.071 0.123-0.199 0.191-0.332 0.191z"></path>
<path d="M9.558 17.657c0.611 0.099 1.025 0.674 0.926 1.285s-0.674 1.025-1.285 0.926c-0.611-0.099-1.025-0.674-0.926-1.285s0.674-1.025 1.285-0.926z"></path>
<path d="M21.568 17.671c0.606 0.122 0.999 0.712 0.877 1.318s-0.712 0.999-1.318 0.877c-0.606-0.122-0.999-0.712-0.877-1.318s0.712-0.999 1.318-0.877z"></path>
<path d="M15.366 20.259c-0.829 0-1.503-0.674-1.503-1.503 0-0.211 0.171-0.382 0.382-0.382s0.382 0.171 0.382 0.382c0 0.407 0.331 0.738 0.738 0.738s0.738-0.331 0.738-0.738c0-0.211 0.171-0.382 0.382-0.382s0.382 0.171 0.382 0.382c-0 0.828-0.674 1.503-1.503 1.503z"></path>
<path d="M15.364 17.298c-0.378 0-1.012-0.174-1.012-1.339 0-0.838 0.617-1.861 0.687-1.974 0.070-0.113 0.193-0.181 0.325-0.181s0.256 0.069 0.325 0.181c0.070 0.114 0.687 1.136 0.687 1.974 0 1.165-0.634 1.339-1.012 1.339zM15.364 15.023c-0.132 0.307-0.248 0.658-0.248 0.936 0 0.574 0.161 0.574 0.248 0.574s0.248 0 0.248-0.574c0-0.278-0.115-0.629-0.248-0.936z"></path>
<path d="M12.728 15.989c-0.195 0-0.462-0.064-0.702-0.339-0.248-0.285-0.534-0.877 0.344-1.643 0.632-0.551 1.808-0.758 1.94-0.78 0.131-0.021 0.263 0.026 0.351 0.126s0.116 0.238 0.077 0.364c-0.040 0.128-0.405 1.265-1.036 1.816-0.334 0.291-0.637 0.44-0.927 0.455-0.015 0.001-0.030 0.001-0.046 0.001zM13.741 14.155c-0.319 0.102-0.659 0.246-0.869 0.429-0.433 0.377-0.327 0.499-0.27 0.564 0.069 0.080 0.109 0.078 0.133 0.077 0.050-0.003 0.195-0.034 0.463-0.267 0.21-0.184 0.399-0.501 0.543-0.802z"></path>
<path d="M18.004 15.989c-0.016 0-0.031-0-0.046-0.001-0.29-0.015-0.593-0.164-0.927-0.455-0.632-0.551-0.997-1.688-1.036-1.816-0.039-0.127-0.010-0.264 0.077-0.364s0.22-0.147 0.351-0.126c0.132 0.022 1.308 0.229 1.94 0.78 0.878 0.766 0.592 1.358 0.344 1.643-0.24 0.275-0.507 0.339-0.702 0.339zM16.992 14.155c0.145 0.302 0.333 0.619 0.543 0.802 0.268 0.234 0.413 0.265 0.463 0.267 0.023 0.001 0.063 0.003 0.133-0.077 0.057-0.065 0.163-0.187-0.27-0.564-0.21-0.183-0.55-0.326-0.868-0.429z"></path>
<path d="M30.92 12.632l0.818-2.37-2.321-0.802c-0.014-0.032-0.028-0.064-0.044-0.096-0.283-0.582-0.772-1.021-1.379-1.242-0.482-0.748-1.049-1.447-1.699-2.084-2.257-2.212-5.241-3.431-8.403-3.431h-3.72l-0.133-0.676-1.982 0.39c-0.049-0.040-0.101-0.078-0.154-0.114-0.469-0.314-1.032-0.428-1.585-0.319s-1.032 0.427-1.346 0.895c-0.036 0.053-0.069 0.108-0.099 0.164l-1.849 0.364 0.157 0.8c-0.544-0.24-1.148-0.258-1.705-0.048-0.069 0.026-0.136 0.056-0.201 0.087l-1.844-0.835-0.814 1.797c-0.064 0.018-0.128 0.039-0.191 0.063-0.564 0.212-1.011 0.631-1.26 1.18s-0.269 1.162-0.056 1.726c0.024 0.063 0.050 0.125 0.079 0.185l-0.926 2.045 1.176 0.533c-0.369 1.12-0.575 2.299-0.601 3.508-0 0.008-0 0.015-0 0.023 0.002 0.145 0.027 1.402 0.25 2.149-0.288 0.485-0.455 1.052-0.455 1.656 0 1.312 0.78 2.444 1.901 2.958-0.291 0.296-0.538 0.613-0.729 0.943-0.598 1.036-0.757 2.243-0.447 3.398s1.051 2.121 2.087 2.719c0.69 0.398 1.456 0.602 2.232 0.602 0.389 0 0.781-0.051 1.166-0.154 0.002-0 0.003-0.001 0.005-0.001-0.013 0.192-0.020 0.386-0.020 0.581v2.136c0 0.352 0.285 0.637 0.637 0.637s0.637-0.285 0.637-0.637v-2.136c0-0.727 0.108-1.429 0.308-2.092 0.487 0.211 1.001 0.398 1.539 0.56-0.155 0.516-0.239 1.062-0.239 1.627v2.284c0 0.211 0.171 0.382 0.382 0.382s0.382-0.171 0.382-0.382v-2.284c0-0.495 0.074-0.974 0.212-1.425 1.418 0.354 2.964 0.541 4.545 0.541 1.678 0 3.31-0.21 4.794-0.605 0.151 0.47 0.233 0.97 0.233 1.489v2.284c0 0.211 0.171 0.382 0.382 0.382s0.382-0.171 0.382-0.382v-2.284c0-0.593-0.092-1.165-0.262-1.703 0.535-0.171 1.047-0.367 1.53-0.588 0.221 0.693 0.34 1.431 0.34 2.197v2.136c0 0.352 0.285 0.637 0.637 0.637s0.637-0.285 0.637-0.637v-2.136c0-1.875-0.608-3.61-1.636-5.020 1.418-0.693 2.66-1.692 3.64-2.909 0.297 0.090 0.611 0.138 0.936 0.138 1.794 0 3.254-1.46 3.254-3.254 0-0.635-0.183-1.228-0.499-1.729l0.173-0.502c0.003-0.001 0.005-0.002 0.008-0.004 1.226-0.597 1.739-2.080 1.142-3.307-0.002-0.002-0.003-0.005-0.004-0.007zM27.147 8.738c0.188 0 0.376 0.031 0.559 0.094 0.431 0.149 0.779 0.457 0.979 0.867 0.188 0.386 0.224 0.819 0.103 1.228-0.77-0.96-2.047-1.385-3.242-1.070 0.147-0.4 0.442-0.746 0.854-0.947 0.237-0.115 0.491-0.173 0.746-0.173zM24.807 18.035c-0.020-0.096-0.049-0.189-0.085-0.277 0.105 0.027 0.212 0.047 0.32 0.060-0.055 0.197-0.123 0.388-0.202 0.573 0.002-0.117-0.008-0.236-0.033-0.355zM4.169 10.992c0.375 0.17 0.774 0.255 1.173 0.255 0.106 0 0.213-0.007 0.319-0.019-0.172 0.272-0.425 0.482-0.732 0.597-0.373 0.14-0.778 0.127-1.14-0.037s-0.64-0.46-0.78-0.833c-0.119-0.315-0.126-0.652-0.027-0.968 0.292 0.435 0.699 0.783 1.188 1.005zM3.375 7.721l0.719 1.096 0.221 1.391c-0.423-0.24-0.746-0.616-0.92-1.076-0.173-0.459-0.179-0.953-0.020-1.411zM6.975 10.731c0.607-0.425 1.016-1.067 1.159-1.774l0.27 1.372 0.176-0.035c-0.16 0.186-0.365 0.331-0.601 0.42-0.326 0.123-0.677 0.128-1.003 0.017zM7.283 11.568l-0.407 0.899-0.908-0.411c0.204-0.196 0.371-0.431 0.491-0.696 0.002-0.005 0.004-0.010 0.006-0.015 0.019 0.009 0.038 0.019 0.058 0.028 0.244 0.111 0.501 0.175 0.761 0.195zM6.077 10.347c-0.46 0.173-0.956 0.178-1.415 0.019l1.182-0.749 1.306-0.184c-0.232 0.406-0.601 0.738-1.073 0.915zM5.574 8.882l-0.632 0.4-0.119-0.748-0.337-0.513 0.634-0.071 0.601-0.403 0.085 0.748 0.368 0.501zM3.472 12.485c0.297 0.135 0.613 0.202 0.93 0.202 0.265 0 0.532-0.048 0.788-0.143l2.067 0.936 0.917-2.024c0.025-0.008 0.050-0.017 0.074-0.026 0.636-0.239 1.099-0.738 1.319-1.33l0.878-0.173c0.348 0.229 0.747 0.348 1.155 0.348 0.137 0 0.275-0.013 0.412-0.040 0.547-0.108 1.020-0.42 1.334-0.879l1.054-0.207c-0.645 1.3-1.608 2.486-2.824 3.467-2.532 2.045-5.678 2.807-8.213 1.988-0.205-0.066-0.429-0.024-0.597 0.111l-0.609 0.493c-0.030-0.341-0.043-0.665-0.046-0.84 0.021-0.93 0.163-1.832 0.411-2.691 0.232 0.351 0.557 0.63 0.949 0.808zM12.794 7.185c-0.244 0.363-0.592 0.614-0.979 0.742l0.461-1.133 0.834-0.792c0.028 0.405-0.072 0.821-0.316 1.184zM12.951 8.148c0.003 0.271-0.074 0.536-0.228 0.765-0.201 0.299-0.506 0.502-0.859 0.571s-0.712-0.003-1.011-0.203c-0.241-0.162-0.411-0.388-0.507-0.64 0.284 0.099 0.578 0.147 0.871 0.147 0.627 0 1.246-0.222 1.734-0.64zM11.629 6.353l-0.246 0.604-0.463-0.471-0.49-0.19 0.409-0.366 0.222-0.588 0.438 0.487 0.506 0.167zM10.49 7.14l0.863 0.878c-0.406 0.029-0.824-0.072-1.187-0.315-0.362-0.243-0.613-0.591-0.741-0.976zM13.679 7.768c0.010-0.002 0.020-0.003 0.030-0.005 0.232-0.046 0.451-0.129 0.65-0.244l0.162 0.825-0.833 0.164c0.040-0.242 0.038-0.492-0.009-0.741zM5.442 16.214c0-0.005 0-0.010 0-0.015 0.012 0 0.025 0 0.037 0 0.539 0 1.085-0.049 1.634-0.145-0.029 0.023-0.058 0.046-0.085 0.071-0.379 0.339-0.564 0.822-0.51 1.327l0.041 0.376-0.256 0.278c-0.161 0.176-0.277 0.379-0.344 0.597-0.33-0.634-0.517-1.354-0.517-2.117zM11.52 19.294c-0.191 0.165-0.041 0.639-0.039 0.848 0.028 0.257-0.067 0.503-0.259 0.675s-0.447 0.238-0.699 0.182c-0.726-0.187-0.703-0.191-1.292 0.27-0.208 0.152-0.469 0.194-0.714 0.113-0.675-0.18-0.438-1-0.883-1.276l-0.505-0.223c-0.236-0.104-0.402-0.309-0.455-0.562s0.017-0.507 0.192-0.697c0.525-0.536 0.517-0.513 0.412-1.254-0.028-0.257 0.067-0.503 0.259-0.675 0.148-0.132 0.332-0.202 0.523-0.202 0.819 0.101 0.744 0.353 1.468-0.25 0.208-0.152 0.468-0.194 0.714-0.113s0.43 0.268 0.507 0.515c0.201 0.723 0.186 0.704 0.88 0.984 0.236 0.104 0.402 0.309 0.455 0.562s-0.017 0.507-0.192 0.697zM4.693 16.164c-0 0.017-0.001 0.033-0.001 0.050v0.373c0 1.952 1.051 3.663 2.617 4.598 0.167 0.441 0.515 0.775 0.968 0.924 0.162 0.053 0.328 0.080 0.491 0.080 0.304 0 0.602-0.092 0.863-0.268 0.136 0.010 0.273 0.017 0.411 0.017h1.346v0.082c0 0.835 0.447 1.567 1.115 1.969-4.409-0.295-7.994-3.644-8.654-7.945 0.277 0.055 0.559 0.094 0.843 0.12zM17.022 23.568h-3.335c-0.854 0-1.548-0.695-1.548-1.548v-0.832h-0.219c0.25-0.317 0.366-0.715 0.322-1.128l-0.041-0.376 0.256-0.278c0.344-0.374 0.482-0.873 0.378-1.371s-0.43-0.9-0.895-1.105l-0.346-0.153-0.113-0.361c-0.152-0.485-0.516-0.854-0.998-1.012s-0.994-0.078-1.404 0.222l-0.305 0.223-0.369-0.082c-0.015-0.003-0.030-0.006-0.045-0.009 1.402-0.425 2.78-1.151 4.018-2.151 0.743-0.6 1.402-1.271 1.966-1.994h2.045c0.564 0.723 1.223 1.394 1.966 1.994 0.842 0.68 1.749 1.233 2.684 1.651l-0.088 0.254 0.177 0.061c-0.026 0.017-0.052 0.035-0.077 0.053l-0.305 0.223-0.369-0.082c-0.496-0.111-0.997 0.020-1.376 0.358s-0.564 0.822-0.51 1.327l0.041 0.376-0.256 0.278c-0.344 0.374-0.482 0.874-0.378 1.371s0.43 0.9 0.895 1.105l0.346 0.153 0.113 0.361c0.010 0.031 0.020 0.061 0.032 0.091h-0.713v0.832c0 0.854-0.695 1.549-1.548 1.549zM14.882 10.863c0.173-0.264 0.335-0.533 0.484-0.807 0.149 0.275 0.311 0.544 0.484 0.807zM23.866 18.888c-0.525 0.536-0.517 0.513-0.412 1.254 0.028 0.257-0.067 0.503-0.259 0.675s-0.447 0.238-0.699 0.182c-0.727-0.187-0.703-0.191-1.292 0.27-0.208 0.152-0.469 0.194-0.714 0.113s-0.43-0.268-0.507-0.515c-0.201-0.723-0.186-0.704-0.88-0.984-0.236-0.104-0.402-0.309-0.455-0.562s0.017-0.507 0.192-0.697c0.525-0.536 0.517-0.513 0.413-1.254-0.028-0.257 0.067-0.503 0.259-0.675 0.148-0.132 0.332-0.202 0.523-0.202 0.819 0.101 0.744 0.353 1.468-0.25 0.208-0.152 0.468-0.194 0.714-0.113s0.43 0.268 0.507 0.515c0.201 0.723 0.186 0.704 0.88 0.984 0.236 0.104 0.402 0.309 0.455 0.562s-0.017 0.507-0.192 0.697zM21.923 15.039l0.344-0.995c0.231 0.178 0.49 0.313 0.766 0.4-0.015 0.037-0.029 0.074-0.042 0.112-0.091 0.263-0.136 0.535-0.136 0.805zM23.383 11.865c-0.211 0.612-0.228 1.26-0.055 1.87-0.458-0.126-0.863-0.439-1.086-0.899-0.2-0.41-0.228-0.874-0.079-1.306s0.457-0.779 0.867-0.979c0.41-0.2 0.874-0.228 1.305-0.079 0.003 0.001 0.005 0.002 0.007 0.003-0.438 0.362-0.77 0.838-0.961 1.389zM24.759 9.818c-0.057-0.025-0.115-0.048-0.174-0.068-0.258-0.089-0.524-0.134-0.789-0.136l0.396-1.147 1.079 0.373c-0.244 0.285-0.418 0.621-0.513 0.979zM25.308 10.758c0.328-0.16 0.68-0.24 1.035-0.24 0.209 0 0.419 0.029 0.626 0.085l-1.162 1.031-1.649 0.345c0.221-0.535 0.625-0.966 1.151-1.221zM24.065 12.246l1.053 1.293 0.317 1.535c-0.535-0.222-0.965-0.625-1.221-1.15-0.257-0.527-0.308-1.118-0.15-1.678zM25.279 12.526l0.883-0.185 0.566-0.502 0.172 0.723 0.546 0.707-0.875 0.224-0.585 0.467-0.157-0.758zM26.919 14.192l1.62-0.414c-0.22 0.543-0.627 0.981-1.158 1.239-0.529 0.257-1.121 0.309-1.682 0.149zM27.605 12.225l-0.363-1.529c0.54 0.22 0.975 0.626 1.232 1.155 0.258 0.531 0.309 1.126 0.147 1.689zM17.892 3.883c3.434 0 6.523 1.657 8.495 4.211-0.109 0.036-0.216 0.078-0.321 0.129-0.032 0.015-0.061 0.033-0.092 0.049l-2.255-0.779-0.783 2.268c-0.081 0.030-0.162 0.063-0.241 0.102-0.594 0.289-1.040 0.792-1.256 1.417s-0.175 1.296 0.114 1.89c0.038 0.079 0.082 0.154 0.127 0.227l-0.225 0.652c-0.798-0.368-1.575-0.848-2.3-1.434-1.475-1.191-2.579-2.683-3.193-4.313-0.094-0.248-0.331-0.413-0.597-0.413-0.052 0-0.102 0.006-0.151 0.018l-0.195-0.991c0.012-0.016 0.024-0.033 0.035-0.050 0.649-0.967 0.39-2.282-0.577-2.931-0.017-0.011-0.034-0.022-0.051-0.033l-0.004-0.021h3.469zM14.052 4.571c0.617 0.414 0.782 1.253 0.368 1.87-0.165 0.245-0.4 0.424-0.674 0.52 0.297-0.902 0.086-1.906-0.553-2.613 0.037-0.003 0.074-0.005 0.11-0.005 0.265 0 0.524 0.078 0.748 0.229zM13.436 2.83l0.151 0.767c-0.228-0.031-0.462-0.025-0.694 0.021-0.027 0.005-0.054 0.011-0.080 0.018-0.004-0.027-0.009-0.054-0.014-0.081-0.039-0.198-0.105-0.386-0.195-0.56zM12.277 4.558c0.359 0.241 0.609 0.584 0.737 0.965l-1.083-0.357-0.833-0.925c0.042-0.003 0.084-0.005 0.126-0.005 0.363-0 0.729 0.104 1.052 0.321zM9.607 3.211c0.201-0.299 0.506-0.502 0.859-0.571 0.088-0.017 0.176-0.026 0.263-0.026 0.265 0 0.524 0.078 0.748 0.229 0.268 0.18 0.458 0.445 0.545 0.752-0.911-0.287-1.921-0.061-2.622 0.599-0.061-0.344 0.012-0.693 0.207-0.984zM9.649 5.075c0.243-0.362 0.589-0.612 0.974-0.74l-0.434 1.15-0.856 0.767c-0.027-0.403 0.074-0.817 0.316-1.178zM9.437 8.506c0.027-0.005 0.055-0.012 0.082-0.018 0.043 0.276 0.142 0.543 0.29 0.784l-0.802 0.158-0.176-0.894c0.064 0.006 0.129 0.010 0.194 0.010 0.137 0 0.275-0.013 0.412-0.040zM8.621 3.778c-0.017 0.191-0.007 0.386 0.030 0.579-0.209 0.038-0.412 0.107-0.602 0.206l-0.128-0.648zM7.91 5.682c0.206-0.307 0.518-0.501 0.855-0.568-0.369 0.892-0.219 1.915 0.37 2.662-0.302 0.024-0.601-0.053-0.857-0.224-0.617-0.414-0.782-1.253-0.368-1.87zM7.316 9.059l-0.772-1.052-0.161-1.413c0.284 0.163 0.521 0.39 0.699 0.661 0.049 0.117 0.109 0.229 0.178 0.335 0.010 0.025 0.022 0.049 0.032 0.074 0.175 0.466 0.172 0.956 0.025 1.395zM4.912 5.561c0.164-0.363 0.46-0.64 0.833-0.78 0.171-0.064 0.349-0.096 0.526-0.096 0.209 0 0.418 0.045 0.614 0.134 0.179 0.081 0.336 0.195 0.466 0.333-0.026 0.034-0.052 0.069-0.077 0.105-0.163 0.244-0.272 0.513-0.324 0.792-0.136-0.093-0.28-0.174-0.433-0.243-0.514-0.233-1.072-0.306-1.616-0.22 0.004-0.008 0.006-0.017 0.010-0.025zM5.344 6.315c0.228 0 0.454 0.038 0.673 0.114l-1.167 0.783-1.31 0.146c0.24-0.417 0.613-0.736 1.070-0.908 0.239-0.090 0.487-0.135 0.734-0.135zM3.812 4.329l0.772 0.35c-0.154 0.175-0.28 0.371-0.374 0.583-0.227-0.111-0.471-0.184-0.724-0.214zM1.862 6.672c0.164-0.363 0.46-0.64 0.833-0.78 0.171-0.064 0.349-0.096 0.526-0.096 0.209 0 0.418 0.045 0.615 0.134 0.017 0.008 0.033 0.017 0.050 0.025-0.925 0.551-1.453 1.581-1.381 2.639-0.313-0.171-0.552-0.444-0.679-0.781-0.14-0.373-0.127-0.778 0.037-1.14zM1.274 9.93l0.437-0.965c0.17 0.152 0.364 0.28 0.578 0.377 0.037 0.017 0.075 0.033 0.113 0.047-0.019 0.036-0.037 0.073-0.054 0.11-0.12 0.265-0.186 0.545-0.199 0.828zM1.907 18.181c0-0.627 0.294-1.186 0.751-1.549 0.244 1.268 0.712 2.457 1.363 3.524-0.044 0.003-0.089 0.005-0.134 0.005-1.091 0-1.979-0.888-1.979-1.979zM7.068 27.209c-0.177 0.085-0.363 0.154-0.557 0.206-0.827 0.221-1.69 0.108-2.431-0.32s-1.271-1.119-1.493-1.945-0.108-1.69 0.32-2.431c0.274-0.475 0.728-0.93 1.277-1.299 0.22-0.020 0.433-0.063 0.638-0.125 0.981 1.218 2.223 2.217 3.641 2.91-0.647 0.888-1.128 1.904-1.396 3.003zM10.219 26.977c-0.543-0.161-1.061-0.35-1.55-0.563 0.259-0.615 0.602-1.187 1.012-1.703 0.596 0.204 1.215 0.357 1.853 0.454-0.551 0.508-1 1.123-1.315 1.812zM15.232 27.673c-1.484 0-2.933-0.171-4.263-0.493 0.377-0.771 0.95-1.428 1.655-1.907 0.17 0.008 0.341 0.012 0.512 0.012h4.46c0.171 0 0.341-0.004 0.511-0.012 0.687 0.466 1.249 1.102 1.626 1.847-1.393 0.361-2.924 0.554-4.501 0.554zM20.48 26.905c-0.313-0.66-0.751-1.251-1.282-1.741 0.638-0.096 1.257-0.25 1.853-0.454 0.388 0.487 0.715 1.026 0.968 1.603-0.483 0.224-0.998 0.421-1.539 0.592zM18.203 23.991c0.669-0.402 1.118-1.135 1.118-1.971v-0.082h0.57c0.11 0.071 0.231 0.129 0.36 0.171 0.162 0.053 0.328 0.080 0.491 0.080 0.324 0 0.641-0.103 0.913-0.302l0.1-0.073c0.137-0.030 0.271-0.065 0.404-0.105l0.17 0.038c0.496 0.111 0.997-0.020 1.376-0.358 0.251-0.224 0.417-0.513 0.484-0.828 0.802-0.723 1.384-1.685 1.634-2.773 0.2-0.041 0.398-0.106 0.589-0.199 0.041-0.020 0.080-0.041 0.119-0.062-1.168 3.577-4.428 6.216-8.328 6.466zM26.077 16.899c-0.847 0.412-1.872 0.058-2.284-0.789-0.2-0.41-0.228-0.874-0.079-1.305 0.016-0.046 0.034-0.091 0.054-0.134 0.377 0.547 0.915 0.958 1.554 1.179 0.335 0.116 0.681 0.173 1.025 0.173 0.195 0 0.388-0.019 0.58-0.056-0.155 0.41-0.455 0.74-0.85 0.933zM26.846 20.16c-0.045 0-0.090-0.002-0.134-0.005 0.435-0.713 0.789-1.481 1.049-2.291l1.063 0.367c-0.027 1.068-0.903 1.929-1.978 1.929zM28.496 17.309l-1.219-0.421c0.166-0.213 0.299-0.454 0.39-0.718 0.020-0.059 0.038-0.118 0.053-0.177 0.056 0.024 0.113 0.047 0.172 0.067 0.265 0.091 0.537 0.137 0.809 0.137 0.060 0 0.12-0.003 0.181-0.008zM29.447 15.259c-0.375 0.182-0.794 0.221-1.193 0.113 0.976-0.75 1.422-2.015 1.138-3.209 0.356 0.157 0.66 0.435 0.844 0.812 0.412 0.847 0.058 1.872-0.789 2.284zM30.365 11.895c-0.267-0.243-0.582-0.421-0.92-0.528 0.015-0.037 0.029-0.074 0.042-0.112 0.103-0.299 0.147-0.608 0.134-0.914l1.145 0.395z"></path>
</svg>
