<!-- Generated by IcoMoon.io -->
<svg version="1.1" xmlns="http://www.w3.org/2000/svg" width="32" height="32" viewBox="0 0 32 32">
<title>frankestein</title>
<path d="M29.675 24.147l0.514 1.445c0.022 0.062 0.066 0.111 0.121 0.136l1.284 0.579c0.181 0.082 0.181 0.371 0 0.453l-1.284 0.579c-0.055 0.025-0.099 0.074-0.121 0.136l-0.514 1.445c-0.073 0.204-0.329 0.204-0.402 0l-0.514-1.445c-0.022-0.062-0.066-0.111-0.121-0.136l-1.284-0.579c-0.181-0.082-0.181-0.371 0-0.453l1.284-0.579c0.055-0.025 0.099-0.074 0.121-0.136l0.514-1.445c0.073-0.204 0.329-0.204 0.402 0z"></path>
<path d="M2.085 26.749l0.381 1.072c0.016 0.046 0.049 0.082 0.089 0.101l0.953 0.429c0.135 0.061 0.135 0.275 0 0.336l-0.953 0.429c-0.041 0.018-0.073 0.055-0.089 0.101l-0.381 1.072c-0.054 0.151-0.244 0.151-0.298 0l-0.381-1.072c-0.016-0.046-0.049-0.082-0.089-0.101l-0.953-0.429c-0.135-0.061-0.135-0.275 0-0.336l0.953-0.429c0.041-0.018 0.073-0.055 0.089-0.101l0.381-1.072c0.054-0.151 0.244-0.151 0.298 0z"></path>
<path d="M5.252 25.928c0 0.267-0.217 0.484-0.484 0.484s-0.484-0.217-0.484-0.484c0-0.267 0.217-0.484 0.484-0.484s0.484 0.217 0.484 0.484z"></path>
<path d="M6.242 6.42c-0.346 0-0.626-0.28-0.626-0.626 0-0.927 0.317-1.747 0.917-2.373 0.239-0.249 0.635-0.258 0.885-0.019s0.258 0.635 0.019 0.885c-0.378 0.394-0.569 0.901-0.569 1.507 0 0.346-0.28 0.626-0.626 0.626z"></path>
<path d="M8.731 3.524c-0.346 0-0.626-0.28-0.626-0.626 0-0.328 0.252-0.596 0.572-0.623 0.018-0.002 0.053-0.007 0.094-0.012 0.151-0.019 0.282-0.036 0.366-0.044 0.344-0.031 0.649 0.222 0.68 0.567s-0.222 0.649-0.566 0.68c-0.067 0.006-0.225 0.026-0.319 0.039-0.138 0.018-0.156 0.020-0.201 0.020zM8.724 2.272c-0.009 0-0.023 0-0.042 0.002 0.016-0.001 0.032-0.002 0.049-0.002-0.002-0-0.004-0-0.007-0z"></path>
<path d="M30.712 9.247h-0.573c-0.654 0-1.195 0.491-1.277 1.123h-0.237v-4.759c0-3.070-2.498-5.568-5.568-5.568h-14.085c-3.070 0-5.568 2.498-5.568 5.568v4.759h-0.266c-0.081-0.633-0.622-1.123-1.277-1.123h-0.573c-0.711 0-1.288 0.578-1.288 1.289v3.070c0 0.71 0.578 1.289 1.288 1.289h0.573c0.655 0 1.195-0.491 1.277-1.123h0.263c-0.039 0.366-0.059 0.738-0.059 1.114 0 0.209 0.007 0.415 0.019 0.621-1.074 0.515-1.818 1.613-1.818 2.881 0 1.762 1.433 3.195 3.195 3.195 0.32 0 0.628-0.049 0.92-0.136 0.963 1.196 2.183 2.176 3.575 2.857-1.010 1.384-1.607 3.089-1.607 4.93v2.097c0 0.346 0.28 0.626 0.626 0.626s0.626-0.28 0.626-0.626v-2.097c0-1.675 0.581-3.216 1.551-4.435 0.592 0.203 1.207 0.355 1.841 0.45-1.113 1.016-1.813 2.478-1.813 4.101v2.224c0 0.207 0.168 0.375 0.376 0.375s0.376-0.168 0.376-0.375v-2.224c0-1.666 0.853-3.135 2.144-3.997 0.064 0.003 0.128 0.006 0.192 0.007l0.756 6.263c0.023 0.191 0.185 0.331 0.372 0.331 0.015 0 0.030-0.001 0.046-0.003 0.206-0.025 0.353-0.212 0.328-0.418l-0.745-6.169h3.648l-0.745 6.169c-0.025 0.206 0.122 0.393 0.328 0.418 0.015 0.002 0.030 0.003 0.046 0.003 0.187 0 0.349-0.14 0.372-0.331l0.754-6.247c1.273 0.864 2.111 2.322 2.111 3.973v2.224c0 0.207 0.168 0.375 0.375 0.375s0.375-0.168 0.375-0.375v-2.224c0-1.623-0.7-3.084-1.813-4.101 0.634-0.095 1.249-0.247 1.841-0.45 0.97 1.218 1.551 2.76 1.551 4.435v2.097c0 0.346 0.28 0.626 0.626 0.626s0.626-0.28 0.626-0.626v-2.097c0-1.841-0.597-3.545-1.607-4.93 1.392-0.681 2.612-1.661 3.575-2.857 0.291 0.088 0.6 0.137 0.919 0.137 1.762 0 3.195-1.433 3.195-3.195 0-1.269-0.744-2.366-1.818-2.881 0.012-0.206 0.019-0.412 0.019-0.621 0-0.351-0.018-0.698-0.052-1.040v-0.074h0.237c0.081 0.633 0.622 1.123 1.277 1.123h0.573c0.71 0 1.289-0.578 1.289-1.289v-3.070c-0-0.711-0.578-1.289-1.289-1.289zM1.899 13.606c0 0.020-0.017 0.037-0.037 0.037h-0.573c-0.020 0-0.037-0.017-0.037-0.037v-3.070c0-0.020 0.017-0.037 0.037-0.037h0.573c0.020 0 0.037 0.017 0.037 0.037zM4.656 5.612c0-2.38 1.936-4.316 4.316-4.316h14.085c2.38 0 4.316 1.936 4.316 4.316v4.217c-1.787-3.23-5.229-5.422-9.174-5.422h-4.379c-3.938 0-7.374 2.184-9.164 5.403v-4.198zM3.15 12.519v-0.897h0.254v0.897zM4.738 20.331c-1.072 0-1.943-0.872-1.943-1.943 0-0.616 0.289-1.164 0.737-1.52 0.239 1.245 0.699 2.412 1.338 3.459-0.043 0.003-0.087 0.005-0.131 0.005zM18.198 24.111h-4.379c-5.087 0-9.226-4.139-9.226-9.226s4.139-9.226 9.226-9.226h4.379c5.087 0 9.226 4.139 9.226 9.226s-4.139 9.226-9.226 9.226zM29.224 18.387c0 1.072-0.872 1.943-1.943 1.943-0.044 0-0.088-0.002-0.131-0.005 0.639-1.047 1.098-2.214 1.338-3.459 0.448 0.356 0.737 0.905 0.737 1.52zM28.85 12.519h-0.225v-0.897h0.225zM30.748 13.606c0 0.020-0.017 0.037-0.037 0.037h-0.573c-0.020 0-0.037-0.017-0.037-0.037v-3.070c0-0.020 0.017-0.037 0.037-0.037h0.573c0.020 0 0.037 0.017 0.037 0.037z"></path>
<path d="M11.231 18.953c0 0.607-0.492 1.1-1.1 1.1s-1.1-0.492-1.1-1.1c0-0.607 0.492-1.1 1.1-1.1s1.1 0.492 1.1 1.1z"></path>
<path d="M22.986 18.953c0 0.607-0.492 1.1-1.1 1.1s-1.1-0.492-1.1-1.1c0-0.607 0.492-1.1 1.1-1.1s1.1 0.492 1.1 1.1z"></path>
<path d="M11.022 16.073c-0.057 0-0.116-0.013-0.17-0.041-0.002-0.001-0.331-0.163-0.72-0.163s-0.719 0.162-0.722 0.163c-0.185 0.092-0.411 0.018-0.504-0.166s-0.020-0.409 0.164-0.503c0.049-0.025 0.496-0.245 1.062-0.245s1.013 0.22 1.062 0.245c0.185 0.094 0.258 0.32 0.164 0.505-0.066 0.13-0.198 0.205-0.335 0.205z"></path>
<path d="M22.777 16.073c-0.057 0-0.116-0.013-0.17-0.041-0.002-0.001-0.331-0.163-0.72-0.163s-0.718 0.162-0.722 0.163c-0.185 0.092-0.41 0.018-0.504-0.166s-0.020-0.409 0.164-0.503c0.049-0.025 0.496-0.245 1.062-0.245s1.013 0.22 1.062 0.245c0.185 0.094 0.258 0.32 0.164 0.505-0.066 0.13-0.198 0.205-0.335 0.205z"></path>
<path d="M16.009 20.428c-0.813 0-1.475-0.662-1.475-1.475 0-0.207 0.168-0.375 0.375-0.375s0.376 0.168 0.376 0.375c0 0.399 0.325 0.724 0.724 0.724s0.724-0.325 0.724-0.724c0-0.207 0.168-0.375 0.375-0.375s0.375 0.168 0.375 0.375c0 0.813-0.662 1.475-1.475 1.475z"></path>
<path d="M25.684 11.695h-1.79v-0.71c0-0.207-0.168-0.376-0.375-0.376s-0.375 0.168-0.375 0.376v0.71h-3.004v-0.71c0-0.207-0.168-0.376-0.375-0.376s-0.375 0.168-0.375 0.376v0.71h-3.004v-0.71c0-0.207-0.168-0.376-0.375-0.376s-0.376 0.168-0.376 0.376v0.71h-3.004v-0.71c0-0.207-0.168-0.376-0.376-0.376s-0.376 0.168-0.376 0.376v0.71h-3.004v-0.71c0-0.207-0.168-0.376-0.376-0.376s-0.375 0.168-0.375 0.376v0.71h-1.79c-0.207 0-0.375 0.168-0.375 0.375s0.168 0.376 0.375 0.376h1.79v0.71c0 0.207 0.168 0.376 0.375 0.376s0.376-0.168 0.376-0.376v-0.71h3.004v0.71c0 0.207 0.168 0.376 0.376 0.376s0.376-0.168 0.376-0.376v-0.71h3.004v0.71c0 0.207 0.168 0.376 0.375 0.376s0.375-0.168 0.375-0.376v-0.71h3.004v0.71c0 0.207 0.168 0.376 0.375 0.376s0.375-0.168 0.375-0.376v-0.71h3.004v0.71c0 0.207 0.168 0.376 0.375 0.376s0.375-0.168 0.375-0.376v-0.71h1.79c0.207 0 0.375-0.168 0.375-0.376s-0.168-0.375-0.376-0.375z"></path>
<path d="M21.858 4.106c-0.207 0-0.375-0.168-0.375-0.376v-0.757c0-0.207 0.168-0.376 0.375-0.376s0.375 0.168 0.375 0.376v0.757c0 0.207-0.168 0.375-0.375 0.375z"></path>
<path d="M24.364 5.385c-0.207 0-0.375-0.168-0.375-0.375v-0.757c0-0.207 0.168-0.375 0.375-0.375s0.375 0.168 0.375 0.375v0.757c0 0.207-0.168 0.375-0.375 0.375z"></path>
</svg>
