<!-- Generated by IcoMoon.io -->
<svg version="1.1" xmlns="http://www.w3.org/2000/svg" width="32" height="32" viewBox="0 0 32 32">
<title>ghost</title>
<path d="M28.221 0.154l0.517 1.454c0.022 0.062 0.066 0.112 0.121 0.137l1.292 0.582c0.183 0.082 0.183 0.373 0 0.455l-1.292 0.582c-0.055 0.025-0.099 0.074-0.121 0.137l-0.517 1.454c-0.073 0.205-0.331 0.205-0.405 0l-0.517-1.454c-0.022-0.062-0.066-0.112-0.121-0.137l-1.292-0.582c-0.183-0.082-0.183-0.373 0-0.455l1.292-0.582c0.055-0.025 0.099-0.074 0.121-0.137l0.517-1.454c0.073-0.205 0.331-0.205 0.405 0z"></path>
<path d="M2.048 5.475l0.384 1.079c0.016 0.046 0.049 0.083 0.090 0.101l0.958 0.432c0.135 0.061 0.135 0.277 0 0.338l-0.958 0.432c-0.041 0.019-0.074 0.055-0.090 0.101l-0.384 1.079c-0.054 0.152-0.246 0.152-0.3 0l-0.384-1.079c-0.016-0.046-0.049-0.083-0.090-0.101l-0.959-0.432c-0.135-0.061-0.135-0.277 0-0.338l0.959-0.432c0.041-0.019 0.074-0.055 0.090-0.101l0.384-1.079c0.054-0.152 0.246-0.152 0.3 0z"></path>
<path d="M6.619 0.722c0.609 0.132 0.996 0.733 0.864 1.343s-0.733 0.996-1.343 0.864c-0.609-0.132-0.996-0.733-0.864-1.343s0.733-0.996 1.343-0.864z"></path>
<path d="M31.786 7.068c0 0.269-0.218 0.487-0.487 0.487s-0.487-0.218-0.487-0.487c0-0.269 0.218-0.487 0.487-0.487s0.487 0.218 0.487 0.487z"></path>
<path d="M18.027 3.241h-3.669c-5.996 0-10.874 5.143-10.874 11.463 0 0.025 0.002 0.050 0.004 0.075l1.981 16.595c0.038 0.32 0.31 0.555 0.624 0.555 0.025 0 0.050-0.002 0.075-0.005 0.345-0.041 0.592-0.355 0.551-0.7l-1.976-16.558c0.019-5.61 4.325-10.167 9.615-10.167h3.669c1.090 0 2.138 0.194 3.116 0.55 0.020 0.025 0.044 0.049 0.072 0.069 0.013 0.010 1.348 1.056 2.377 4.819 0.953 3.485 1.828 10.068 0.585 21.639-0.022 0.207 0.128 0.394 0.335 0.416 0.014 0.002 0.027 0.002 0.041 0.002 0.191 0 0.354-0.144 0.375-0.337 0.56-5.21 0.744-9.869 0.547-13.847-0.158-3.195-0.561-5.964-1.198-8.23-0.506-1.799-1.083-3.003-1.566-3.785 2.931 1.743 4.92 5.067 4.931 8.877l-1.685 16.563c-0.035 0.346 0.217 0.655 0.563 0.69s0.655-0.217 0.69-0.563l1.688-16.595c0.002-0.021 0.003-0.042 0.003-0.064 0-6.321-4.878-11.464-10.874-11.464z"></path>
<path d="M16.312 8.429c-0.148-0.369-0.734-0.241-0.793 0.123-0.13 0.762-3.189 18.724-2.886 23.073 0.014 0.208 0.196 0.365 0.403 0.351s0.365-0.195 0.351-0.403c-0.083-1.193 0.103-3.498 0.416-6.204 0.063 0.001 4.594 0.003 4.594 0.003 0.169 0 0.338-0.005 0.505-0.012 1.281 0.87 2.125 2.338 2.125 4v2.256c0 0.209 0.169 0.378 0.378 0.378s0.378-0.169 0.378-0.378v-2.256c0-1.622-0.695-3.084-1.802-4.106 0.483-0.073 0.955-0.18 1.415-0.316 0.664 2.588 1.071 4.859 1.192 6.711 0.013 0.2 0.179 0.353 0.377 0.353 0.008 0 0.017-0 0.025-0.001 0.208-0.014 0.366-0.193 0.352-0.402-0.34-5.22-2.902-13.664-7.029-23.168zM18.396 24.112s-4.431-0-4.444-0c0.578-4.675 1.443-10.158 1.935-13.168v10.751c0 0.209 0.169 0.378 0.378 0.378s0.378-0.169 0.378-0.378v-10.549c0.557 1.346 1.081 2.666 1.568 3.952v6.778c0 0.209 0.169 0.378 0.378 0.378s0.378-0.169 0.378-0.378v-4.727c0.836 2.334 1.542 4.539 2.103 6.571-0.847 0.255-1.744 0.394-2.673 0.394z"></path>
<path d="M13.063 12.42c0.029-0.19-0.090-0.371-0.276-0.421s-0.379 0.048-0.45 0.226l-0.39 0.99c-0.002 0.006-0.005 0.012-0.007 0.019-2.33 6.962-3.348 14.402-3.308 18.369 0.002 0.209 0.173 0.377 0.382 0.374s0.376-0.173 0.374-0.382c-0.018-1.759 0.177-4.216 0.607-7.013 0.262 0.108 0.528 0.206 0.799 0.293-0.211 2.461-0.345 4.851-0.304 6.732 0.004 0.206 0.173 0.37 0.378 0.37 0.003 0 0.005 0 0.008-0 0.209-0.005 0.374-0.177 0.37-0.386-0.127-5.923 1.492-17.009 1.817-19.171zM10.204 23.302c0.371-2.145 0.874-4.447 1.517-6.763-0.268 2.038-0.571 4.539-0.81 7.046-0.24-0.085-0.476-0.179-0.707-0.283z"></path>
<path d="M11.517 7.967c0.12 0 0.241-0.034 0.349-0.106 0.128-0.085 0.353-0.215 0.451-0.255 0.322-0.131 0.477-0.498 0.346-0.82s-0.498-0.477-0.82-0.346c-0.239 0.097-0.568 0.303-0.675 0.374-0.289 0.193-0.368 0.584-0.175 0.873 0.121 0.182 0.321 0.28 0.524 0.28z"></path>
<path d="M9.061 10.476c0.484-0.764 1.047-1.308 1.433-1.629 0.268-0.222 0.304-0.619 0.082-0.887s-0.619-0.304-0.887-0.082c-0.456 0.379-1.119 1.020-1.692 1.923-0.186 0.294-0.099 0.683 0.195 0.869 0.105 0.066 0.221 0.098 0.336 0.098 0.209 0 0.413-0.104 0.533-0.293z"></path>
<path d="M6.899 15.038c-0.208 0.007-0.372 0.181-0.365 0.39l0.534 16.155c0.007 0.204 0.174 0.365 0.377 0.365 0.004 0 0.008-0 0.013-0 0.208-0.007 0.372-0.181 0.365-0.39l-0.534-16.155c-0.007-0.209-0.181-0.372-0.39-0.365z"></path>
<path d="M17.103 26.778c-0.209 0-0.378 0.169-0.378 0.378v0.713c0 0.209 0.169 0.378 0.378 0.378s0.378-0.169 0.378-0.378v-0.713c0-0.209-0.169-0.378-0.378-0.378z"></path>
<path d="M19.678 27.984c-0.209 0-0.378 0.169-0.378 0.378v0.713c0 0.209 0.169 0.378 0.378 0.378s0.378-0.169 0.378-0.378v-0.713c0-0.209-0.169-0.378-0.378-0.378z"></path>
<path d="M18.124 28.881c-0.209 0-0.378 0.169-0.378 0.378v0.713c0 0.209 0.169 0.378 0.378 0.378s0.378-0.169 0.378-0.378v-0.713c-0-0.209-0.169-0.378-0.378-0.378z"></path>
</svg>
