<!-- Generated by IcoMoon.io -->
<svg version="1.1" xmlns="http://www.w3.org/2000/svg" width="32" height="32" viewBox="0 0 32 32">
<title>ghost1</title>
<path d="M2.665 2.138l0.514 1.445c0.022 0.062 0.066 0.111 0.121 0.136l1.284 0.579c0.181 0.082 0.181 0.371 0 0.453l-1.284 0.579c-0.055 0.025-0.099 0.074-0.121 0.136l-0.514 1.445c-0.073 0.204-0.329 0.204-0.402 0l-0.514-1.445c-0.022-0.062-0.066-0.111-0.121-0.136l-1.284-0.579c-0.181-0.082-0.181-0.371 0-0.453l1.284-0.579c0.055-0.025 0.099-0.074 0.121-0.136l0.514-1.445c0.073-0.204 0.329-0.204 0.402 0z"></path>
<path d="M25.99 0.114l0.381 1.072c0.016 0.046 0.049 0.082 0.089 0.101l0.953 0.429c0.135 0.061 0.135 0.275 0 0.336l-0.953 0.429c-0.041 0.018-0.073 0.055-0.089 0.101l-0.381 1.072c-0.054 0.151-0.244 0.151-0.298 0l-0.381-1.072c-0.016-0.046-0.049-0.082-0.089-0.101l-0.953-0.429c-0.135-0.061-0.135-0.275 0-0.336l0.953-0.429c0.041-0.018 0.073-0.055 0.089-0.101l0.381-1.072c0.054-0.151 0.244-0.151 0.298 0z"></path>
<path d="M31.712 6.848c0.237 0.573-0.034 1.23-0.607 1.467s-1.23-0.034-1.467-0.607c-0.237-0.573 0.034-1.23 0.607-1.467s1.23 0.034 1.467 0.607z"></path>
<path d="M8.768 1.563c0 0.267-0.217 0.484-0.484 0.484s-0.484-0.217-0.484-0.484c0-0.267 0.217-0.484 0.484-0.484s0.484 0.217 0.484 0.484z"></path>
<path d="M9.696 23.546c-0.176 0-0.349-0.016-0.519-0.048-0.999-0.187-1.837-0.905-2.358-2.020-0.446-0.955-0.602-2.114-0.416-3.102 0.187-0.999 0.753-1.866 1.592-2.44s1.852-0.787 2.851-0.6c0.999 0.187 1.866 0.753 2.44 1.592s0.787 1.852 0.6 2.851c-0.184 0.979-0.809 2.003-1.672 2.74-0.783 0.668-1.676 1.027-2.518 1.027zM10.138 16.522c-0.51 0-1.008 0.153-1.438 0.447-0.563 0.385-0.943 0.967-1.069 1.638-0.139 0.74-0.019 1.616 0.32 2.342 0.2 0.429 0.655 1.17 1.455 1.32 0.099 0.019 0.2 0.027 0.301 0.027 1.29 0 2.703-1.445 2.947-2.747 0.126-0.671-0.017-1.351-0.403-1.914s-0.967-0.943-1.638-1.069c-0.159-0.030-0.318-0.044-0.476-0.044z"></path>
<path d="M22.385 23.546c-0.842 0-1.734-0.36-2.518-1.027-0.863-0.736-1.489-1.76-1.672-2.74-0.387-2.063 0.977-4.056 3.040-4.443 0.999-0.187 2.012 0.026 2.851 0.6s1.405 1.441 1.592 2.44c0.185 0.988 0.030 2.148-0.416 3.102-0.521 1.115-1.358 1.833-2.358 2.020-0.17 0.032-0.343 0.047-0.519 0.047zM21.942 16.522c-0.158 0-0.317 0.015-0.476 0.044-1.385 0.26-2.3 1.598-2.041 2.982 0.263 1.404 1.887 2.975 3.248 2.72 0.799-0.15 1.254-0.891 1.455-1.32 0.339-0.726 0.459-1.602 0.32-2.342-0.126-0.671-0.505-1.253-1.069-1.638-0.43-0.294-0.928-0.447-1.438-0.447z"></path>
<path d="M10.488 17.949c0.581 0.176 0.91 0.79 0.734 1.371s-0.79 0.91-1.371 0.734c-0.581-0.176-0.91-0.79-0.734-1.371s0.79-0.91 1.371-0.734z"></path>
<path d="M22.13 17.914c0.596 0.115 0.987 0.691 0.872 1.288s-0.691 0.987-1.288 0.872c-0.596-0.115-0.987-0.691-0.872-1.288s0.691-0.987 1.288-0.872z"></path>
<path d="M30.513 18.432c0-0.937-0.407-1.78-1.052-2.365v-0.887c0-6.414-4.975-11.633-11.089-11.633h-4.651c-6.115 0-11.089 5.218-11.089 11.633v0.886c-0.645 0.585-1.052 1.428-1.052 2.366s0.406 1.781 1.052 2.366v7.378c0 0.247 0.145 0.471 0.371 0.572l0.015 0.007c0.080 0.036 0.167 0.054 0.255 0.054 0.894 0 1.319 0.245 1.811 0.529 0.566 0.326 1.207 0.696 2.436 0.696 0.049 0 0.096-0.002 0.143-0.003v1.344c0 0.346 0.28 0.626 0.626 0.626s0.626-0.28 0.626-0.626v-1.543c0.419-0.136 0.741-0.321 1.042-0.494 0.182-0.105 0.356-0.205 0.547-0.289-0.006 0.107-0.010 0.214-0.010 0.322v2.242c0 0.207 0.168 0.375 0.376 0.375s0.376-0.168 0.376-0.375v-2.242c0-0.18 0.011-0.357 0.030-0.532 0.148-0.019 0.31-0.029 0.493-0.029 0.894 0 1.319 0.245 1.811 0.529 0.566 0.326 1.207 0.696 2.436 0.696s1.87-0.37 2.436-0.696c0.492-0.284 0.917-0.529 1.811-0.529 0.21 0 0.394 0.014 0.559 0.038 0.019 0.172 0.030 0.346 0.030 0.523v2.242c0 0.207 0.168 0.375 0.375 0.375s0.375-0.168 0.375-0.375v-2.242c0-0.097-0.003-0.194-0.008-0.291 0.165 0.077 0.318 0.165 0.479 0.258 0.316 0.182 0.655 0.378 1.108 0.515v1.522c0 0.346 0.28 0.626 0.626 0.626s0.626-0.28 0.626-0.626v-1.343c0.026 0 0.051 0.001 0.077 0.001 1.229 0 1.871-0.37 2.436-0.696 0.492-0.284 0.917-0.529 1.811-0.529 0.032 0 0.063-0.002 0.093-0.007 0.34-0.007 0.613-0.284 0.613-0.626v-7.379c0.645-0.585 1.052-1.427 1.052-2.365zM28.209 27.583c-0.887 0.090-1.416 0.395-1.891 0.67-0.492 0.284-0.917 0.529-1.811 0.529s-1.319-0.245-1.811-0.529c-0.566-0.326-1.207-0.696-2.436-0.696s-1.871 0.37-2.436 0.696c-0.492 0.284-0.917 0.529-1.811 0.529s-1.319-0.245-1.811-0.529c-0.566-0.326-1.207-0.696-2.436-0.696s-1.87 0.37-2.436 0.696c-0.492 0.284-0.917 0.529-1.811 0.529s-1.319-0.245-1.811-0.529c-0.464-0.267-0.978-0.564-1.825-0.663v-12.41c0-5.724 4.413-10.381 9.838-10.381h4.651c5.425 0 9.838 4.657 9.838 10.381v12.403z"></path>
<path d="M20.45 9.839c-0.207 0-0.375-0.168-0.375-0.376v-0.69c0-0.207 0.168-0.376 0.375-0.376s0.375 0.168 0.375 0.376v0.69c-0 0.207-0.168 0.376-0.375 0.376z"></path>
<path d="M23.21 10.646c-0.207 0-0.375-0.168-0.375-0.376v-0.69c0-0.207 0.168-0.376 0.375-0.376s0.375 0.168 0.375 0.376v0.69c0 0.207-0.168 0.376-0.375 0.376z"></path>
<path d="M22.061 12.815c-0.207 0-0.375-0.168-0.375-0.376v-0.69c0-0.207 0.168-0.376 0.375-0.376s0.375 0.168 0.375 0.376v0.69c-0 0.207-0.168 0.376-0.375 0.376z"></path>
</svg>
