<!-- Generated by IcoMoon.io -->
<svg version="1.1" xmlns="http://www.w3.org/2000/svg" width="32" height="32" viewBox="0 0 32 32">
<title>glasses</title>
<path d="M29.302 23.473l0.542 1.524c0.023 0.065 0.069 0.117 0.127 0.143l1.354 0.61c0.191 0.086 0.191 0.391 0 0.477l-1.354 0.61c-0.058 0.026-0.104 0.078-0.127 0.143l-0.542 1.524c-0.077 0.215-0.347 0.215-0.424 0l-0.542-1.524c-0.023-0.065-0.069-0.117-0.127-0.143l-1.354-0.61c-0.191-0.086-0.191-0.391 0-0.477l1.354-0.61c0.058-0.026 0.104-0.078 0.127-0.143l0.542-1.524c0.077-0.215 0.348-0.215 0.424 0z"></path>
<path d="M2.351 25.663l0.402 1.131c0.017 0.048 0.051 0.087 0.094 0.106l1.005 0.453c0.142 0.064 0.142 0.29 0 0.354l-1.005 0.453c-0.043 0.019-0.077 0.058-0.094 0.106l-0.402 1.131c-0.057 0.16-0.258 0.16-0.315 0l-0.402-1.131c-0.017-0.048-0.051-0.087-0.094-0.106l-1.005-0.453c-0.142-0.064-0.142-0.29 0-0.354l1.005-0.453c0.043-0.019 0.077-0.058 0.094-0.106l0.402-1.131c0.057-0.16 0.258-0.16 0.315 0z"></path>
<path d="M5.282 24.438c0.282 0 0.511 0.229 0.511 0.511s-0.229 0.511-0.511 0.511c-0.282 0-0.511-0.229-0.511-0.511s0.229-0.511 0.511-0.511z"></path>
<path d="M31.015 15.839c0.167-0.487 0.269-1.010 0.306-1.567 0.001-0.017 0.002-0.035 0.002-0.052v-1.219c0-7.169-5.832-13.001-13.001-13.001h-4.014c-7.169 0-13.001 5.832-13.001 13.001v1.219c0 0.010 0 0.021 0.001 0.031 0.024 0.6 0.133 1.133 0.295 1.608-0.344 0.528-0.544 1.156-0.544 1.832 0 1.858 1.512 3.369 3.37 3.369 0.337 0 0.663-0.051 0.97-0.144 1.016 1.261 2.303 2.294 3.771 3.012-1.066 1.46-1.696 3.257-1.696 5.2v2.212c0 0.364 0.295 0.66 0.66 0.66s0.66-0.296 0.66-0.66v-2.212c0-1.766 0.612-3.393 1.635-4.678 0.111 0.038 0.222 0.074 0.335 0.109-0.056 0.191-0.067 0.374 0.047 0.549 0.173 0.267 0.512 0.298 0.816 0.307 0.076 0.002 0.157 0.003 0.242 0.003-0.879 1.025-1.411 2.354-1.411 3.807v2.365c0 0.219 0.177 0.396 0.396 0.396s0.396-0.177 0.396-0.396v-2.365c0-1.207 0.425-2.316 1.132-3.186 0.014 0.033 0.031 0.065 0.054 0.093l1.499 1.891c0.075 0.095 0.189 0.15 0.31 0.15s0.235-0.055 0.31-0.15l1.444-1.821v5.333c0 0.219 0.177 0.396 0.396 0.396s0.396-0.177 0.396-0.396v-5.134l1.202 1.517c0.075 0.095 0.189 0.15 0.31 0.15s0.235-0.055 0.31-0.15l1.561-1.969c0.752 0.884 1.206 2.028 1.206 3.277v2.365c0 0.219 0.177 0.396 0.396 0.396s0.396-0.177 0.396-0.396v-2.365c0-1.453-0.532-2.783-1.41-3.808 0.086 0 0.168-0 0.242-0.002 0.304-0.008 0.642-0.040 0.816-0.307 0.114-0.176 0.103-0.359 0.047-0.55 0.112-0.034 0.223-0.071 0.334-0.108 1.023 1.285 1.636 2.911 1.636 4.678v2.212c0 0.364 0.296 0.66 0.66 0.66s0.66-0.296 0.66-0.66v-2.212c0-1.942-0.63-3.739-1.695-5.199 1.468-0.718 2.754-1.752 3.77-3.013 0.307 0.093 0.633 0.144 0.97 0.144 1.858 0 3.369-1.512 3.369-3.369 0-0.684-0.205-1.32-0.557-1.852zM2.86 13.001c0-6.312 5.135-11.448 11.448-11.448h4.014c6.312 0 11.448 5.136 11.448 11.448v1.192c-0.080 1.114-0.478 1.994-1.238 2.708l-2.054-6.875c-0.077-0.257-0.28-0.456-0.538-0.527-0.068-0.019-0.137-0.028-0.206-0.028-0.192 0-0.381 0.072-0.526 0.205l-1.929 1.776-3.034-2.283c-0.279-0.21-0.663-0.208-0.939 0.004l-3 2.3-2.865-2.106c-0.277-0.204-0.655-0.201-0.929 0.007l-2.754 2.089-2.476-1.736c-0.203-0.142-0.461-0.179-0.696-0.1s-0.417 0.266-0.491 0.502l-2.112 6.72c-0.593-0.645-1.071-1.466-1.122-2.645zM21.416 23.061c-0.018-0.147-0.022-0.298-0.027-0.458-0.003-0.090-0.006-0.183-0.011-0.278 0.363 0.095 0.743 0.146 1.136 0.146 0.391 0 0.77-0.050 1.131-0.144-0.681 0.412-1.415 0.742-2.191 0.979-0.015-0.078-0.028-0.159-0.038-0.245zM11.176 23.305c-0.775-0.236-1.51-0.566-2.19-0.977 0.361 0.094 0.74 0.144 1.131 0.144 0.392 0 0.773-0.051 1.136-0.146-0.005 0.095-0.008 0.188-0.011 0.279-0.005 0.16-0.009 0.31-0.027 0.457-0.010 0.086-0.024 0.166-0.038 0.244zM11.418 21.442c-0.405 0.153-0.844 0.238-1.302 0.238-2.045 0-3.709-1.664-3.709-3.709s1.664-3.709 3.709-3.709c1.956 0 3.562 1.523 3.699 3.445-0.174 0.595-0.279 1.206-0.305 1.758-0.034 0.077-0.071 0.152-0.11 0.226-0.917 0.207-1.666 0.878-1.982 1.751zM13.874 15.498c0.517-0.221 1.040-0.371 1.567-0.448-0.434 0.286-0.808 0.77-1.109 1.348-0.119-0.319-0.273-0.62-0.458-0.9zM16.315 15.563c0.944 0 2.020 2.221 2.020 4.17 0 1.429-0.604 2.039-2.020 2.039s-2.020-0.61-2.020-2.039c0-1.948 1.076-4.17 2.020-4.17zM17.207 15.063c0.513 0.080 1.029 0.227 1.547 0.44-0.184 0.279-0.337 0.58-0.455 0.897-0.297-0.57-0.665-1.049-1.091-1.337zM19.23 19.69c-0.039-0.074-0.076-0.15-0.11-0.227-0.026-0.552-0.132-1.163-0.305-1.758 0.136-1.922 1.742-3.445 3.699-3.445 2.045 0 3.709 1.664 3.709 3.709s-1.664 3.709-3.709 3.709c-0.458 0-0.897-0.084-1.302-0.238-0.316-0.873-1.065-1.544-1.982-1.751zM22.514 13.469c-1.276 0-2.429 0.535-3.248 1.391-2.002-0.887-3.986-0.888-5.902-0.002-0.819-0.855-1.972-1.389-3.247-1.389-2.482 0-4.501 2.019-4.501 4.501 0 0.424 0.060 0.834 0.17 1.224-0.214-0.338-0.409-0.69-0.581-1.054l2.053-6.533 2.071 1.453c0.276 0.194 0.646 0.187 0.915-0.017l2.743-2.081 2.867 2.108c0.278 0.205 0.658 0.201 0.932-0.009l2.995-2.296 3.079 2.318c0.299 0.225 0.717 0.205 0.993-0.049l1.491-1.373 1.99 6.663c-0.149 0.3-0.313 0.591-0.492 0.872 0.111-0.39 0.171-0.801 0.171-1.226 0-2.482-2.019-4.501-4.501-4.501zM4.428 19.74c-1.13 0-2.050-0.919-2.050-2.050 0-0.107 0.009-0.211 0.025-0.314 0.508 0.687 1.080 1.16 1.458 1.473 0.088 0.073 0.189 0.124 0.296 0.152 0.128 0.25 0.264 0.495 0.41 0.733-0.046 0.003-0.093 0.005-0.14 0.005zM14.244 27.14l-1.105-1.394c-0.002-0.096-0.005-0.234-0.008-0.398 0.508-0.057 1.043-0.152 1.534-0.301h1.238zM18.303 27.035l-1.513-1.908v-0.080h1.254c0.482 0.144 1 0.237 1.486 0.294v0.145zM20.982 24.624c-0.973 0.027-2.83-0.16-3.68-0.774l-0.009-0.007c-0.002-0.002-0.005-0.004-0.008-0.006-0.523-0.403-1.371-0.402-1.89 0.001-0.81 0.631-2.686 0.816-3.748 0.786-0.024-0.001-0.046-0.002-0.066-0.003 0.010-0.025 0.020-0.050 0.030-0.073 0.124-0.301 0.312-0.756 0.388-1.393 0.022-0.182 0.027-0.358 0.032-0.528 0.005-0.163 0.010-0.317 0.027-0.478 0.092-0.824 0.706-1.497 1.499-1.682 0.228 1.391 1.151 2.096 2.755 2.096s2.528-0.705 2.755-2.096c0.793 0.185 1.408 0.858 1.5 1.682 0.018 0.161 0.023 0.315 0.027 0.478 0.005 0.17 0.010 0.346 0.032 0.528 0.076 0.637 0.264 1.092 0.388 1.393 0.010 0.024 0.020 0.048 0.030 0.073-0.020 0.001-0.042 0.002-0.066 0.003zM28.202 19.74c-0.047 0-0.093-0.002-0.139-0.005 0.18-0.295 0.347-0.6 0.499-0.913 0.675-0.425 1.228-0.922 1.658-1.489 0.020 0.116 0.031 0.235 0.031 0.357 0 1.13-0.919 2.050-2.049 2.050z"></path>
<path d="M10.152 17.124c0.64 0.024 1.139 0.563 1.115 1.203s-0.563 1.139-1.203 1.115c-0.64-0.024-1.139-0.563-1.115-1.203s0.563-1.139 1.203-1.115z"></path>
<path d="M23.673 18.287c0 0.641-0.519 1.16-1.16 1.16s-1.16-0.519-1.16-1.16c0-0.641 0.519-1.16 1.16-1.16s1.16 0.519 1.16 1.16z"></path>
<path d="M13.137 17.97c0-1.666-1.355-3.021-3.021-3.021s-3.021 1.355-3.021 3.021 1.355 3.021 3.021 3.021 3.021-1.355 3.021-3.021zM10.116 20.2c-1.229 0-2.229-1-2.229-2.229s1-2.229 2.229-2.229 2.229 1 2.229 2.229-1 2.229-2.229 2.229z"></path>
<path d="M25.535 17.97c0-1.666-1.355-3.021-3.021-3.021s-3.021 1.355-3.021 3.021 1.355 3.021 3.021 3.021 3.021-1.355 3.021-3.021zM20.284 17.97c0-1.229 1-2.229 2.229-2.229s2.229 1 2.229 2.229c0 1.229-1 2.229-2.229 2.229s-2.229-1-2.229-2.229z"></path>
<path d="M20.057 28.919h-1.995c-0.219 0-0.396 0.177-0.396 0.396v0.997c0 0.768 0.625 1.393 1.393 1.393s1.393-0.625 1.393-1.393v-0.997c0-0.219-0.177-0.396-0.396-0.396zM19.661 30.312c0 0.332-0.27 0.601-0.601 0.601s-0.601-0.27-0.601-0.601v-0.601h1.203z"></path>
<path d="M21.438 6.533c0.219 0 0.396-0.177 0.396-0.396v-0.748c0-0.219-0.177-0.396-0.396-0.396s-0.396 0.177-0.396 0.396v0.748c0 0.219 0.177 0.396 0.396 0.396z"></path>
<path d="M23.041 8.901c0.219 0 0.396-0.177 0.396-0.396v-0.748c0-0.219-0.177-0.396-0.396-0.396s-0.396 0.177-0.396 0.396v0.748c0 0.219 0.177 0.396 0.396 0.396z"></path>
<path d="M25.345 7.596c0.219 0 0.396-0.177 0.396-0.396v-0.748c0-0.219-0.177-0.396-0.396-0.396s-0.396 0.177-0.396 0.396v0.748c0 0.219 0.177 0.396 0.396 0.396z"></path>
<path d="M9.56 5.434c-0.213 0-0.423-0.103-0.55-0.294-0.202-0.303-0.12-0.713 0.183-0.915 0.112-0.074 0.456-0.29 0.707-0.392 0.337-0.137 0.723 0.025 0.86 0.363s-0.025 0.723-0.363 0.86c-0.103 0.042-0.338 0.178-0.472 0.268-0.113 0.075-0.24 0.111-0.366 0.111z"></path>
<path d="M6.429 8.37c-0.121 0-0.243-0.033-0.353-0.103-0.308-0.195-0.399-0.603-0.204-0.911 0.6-0.947 1.295-1.619 1.773-2.016 0.28-0.233 0.696-0.195 0.929 0.086s0.194 0.696-0.086 0.929c-0.405 0.336-0.994 0.906-1.502 1.707-0.126 0.198-0.34 0.307-0.558 0.307z"></path>
<path d="M15.544 19.486c-0.022 0-0.045-0.001-0.068-0.003-0.363-0.037-0.627-0.361-0.589-0.724 0.047-0.461 0.16-0.876 0.335-1.234 0.16-0.327 0.556-0.463 0.883-0.302s0.463 0.556 0.303 0.883c-0.106 0.217-0.176 0.482-0.207 0.787-0.035 0.34-0.322 0.593-0.656 0.593z"></path>
</svg>
