<!-- Generated by IcoMoon.io -->
<svg version="1.1" xmlns="http://www.w3.org/2000/svg" width="32" height="32" viewBox="0 0 32 32">
<title>knight</title>
<path d="M28.988 25.467l0.515 1.447c0.022 0.062 0.066 0.111 0.121 0.136l1.285 0.579c0.182 0.082 0.182 0.371 0 0.453l-1.285 0.579c-0.055 0.025-0.099 0.074-0.121 0.136l-0.515 1.447c-0.073 0.204-0.33 0.204-0.402 0l-0.515-1.447c-0.022-0.062-0.066-0.111-0.121-0.136l-1.285-0.579c-0.182-0.082-0.182-0.371 0-0.453l1.285-0.579c0.055-0.025 0.099-0.074 0.121-0.136l0.515-1.447c0.073-0.204 0.33-0.204 0.402 0z"></path>
<path d="M2.78 23.258l0.382 1.073c0.016 0.046 0.049 0.082 0.090 0.101l0.954 0.43c0.135 0.061 0.135 0.275 0 0.336l-0.954 0.43c-0.041 0.018-0.073 0.055-0.090 0.101l-0.382 1.073c-0.054 0.152-0.245 0.152-0.299 0l-0.382-1.073c-0.016-0.046-0.049-0.082-0.090-0.101l-0.954-0.43c-0.135-0.061-0.135-0.275 0-0.336l0.954-0.43c0.041-0.018 0.073-0.055 0.090-0.101l0.382-1.073c0.054-0.152 0.245-0.152 0.299 0z"></path>
<path d="M3.788 2.625c0.573 0.238 0.846 0.895 0.608 1.469s-0.895 0.846-1.469 0.608c-0.573-0.238-0.846-0.895-0.608-1.469s0.895-0.846 1.469-0.608z"></path>
<path d="M5.341 29.019c0 0.268-0.217 0.485-0.485 0.485s-0.485-0.217-0.485-0.485 0.217-0.485 0.485-0.485c0.268-0 0.485 0.217 0.485 0.485z"></path>
<path d="M8.13 9.572c0.155 0 0.311-0.057 0.432-0.173 0.045-0.043 0.091-0.086 0.137-0.127 0.256-0.232 0.275-0.629 0.043-0.885s-0.629-0.275-0.885-0.043c-0.054 0.049-0.107 0.098-0.159 0.148-0.25 0.239-0.26 0.635-0.021 0.886 0.123 0.129 0.288 0.194 0.454 0.194z"></path>
<path d="M9.764 8.356c0.105 0 0.212-0.027 0.31-0.083 0.469-0.268 0.965-0.488 1.474-0.653 0.329-0.107 0.509-0.46 0.402-0.789s-0.46-0.509-0.789-0.402c-0.59 0.192-1.165 0.447-1.708 0.757-0.3 0.172-0.405 0.554-0.233 0.855 0.116 0.202 0.327 0.316 0.544 0.316z"></path>
<path d="M29.753 12.224c-1.147-4.705-5.236-8.27-10.2-8.626l0.145-1.624c0.045-0.506-0.125-1.010-0.468-1.385s-0.83-0.589-1.337-0.589h-3.078c-0.509 0-0.997 0.216-1.34 0.592s-0.512 0.882-0.465 1.388l0.15 1.619c-4.92 0.349-8.982 3.85-10.175 8.491-0.523 0.52-0.839 1.238-0.839 2.015v5.171c0 1.567 1.274 2.841 2.841 2.841h0.223c0.083 0.101 0.167 0.201 0.254 0.3 1.013 1.147 2.236 2.067 3.59 2.719-0.696 1.222-1.095 2.634-1.095 4.139v2.099c0 0.346 0.28 0.626 0.626 0.626s0.626-0.28 0.626-0.626v-2.099c0-0.594 0.074-1.17 0.211-1.722 0.476 0.214 0.982 0.404 1.51 0.569-0.092 0.401-0.141 0.817-0.141 1.245v2.244c0 0.208 0.168 0.376 0.376 0.376s0.376-0.168 0.376-0.376v-2.244c0-0.357 0.040-0.704 0.114-1.038 1.439 0.375 3.017 0.575 4.633 0.575 1.663 0 3.281-0.21 4.749-0.605 0.078 0.344 0.121 0.701 0.121 1.068v2.244c0 0.208 0.168 0.376 0.376 0.376s0.376-0.168 0.376-0.376v-2.244c0-0.441-0.052-0.87-0.15-1.281 0.527-0.17 1.031-0.364 1.506-0.583 0.145 0.567 0.224 1.16 0.224 1.772v2.099c0 0.346 0.28 0.626 0.626 0.626s0.626-0.28 0.626-0.626v-2.099c0-1.504-0.399-2.916-1.095-4.139 1.354-0.652 2.577-1.572 3.59-2.719 0.087-0.098 0.171-0.199 0.255-0.3h0.129c1.567 0 2.841-1.274 2.841-2.841v-5.174c-0-0.711-0.264-1.372-0.71-1.878zM14.4 1.436c0.107-0.118 0.254-0.183 0.414-0.183h3.078c0.159 0 0.306 0.065 0.413 0.182s0.159 0.269 0.145 0.428l-0.407 4.565c-0.026 0.291-0.266 0.51-0.558 0.51h-2.248c-0.291 0-0.531-0.218-0.557-0.508l-0.423-4.565c-0.015-0.159 0.036-0.311 0.144-0.429zM13.274 4.846l0.157 1.699c0.087 0.938 0.863 1.646 1.805 1.646h2.248c0.945 0 1.722-0.71 1.806-1.652l0.151-1.692c3.986 0.278 7.342 2.881 8.715 6.459l-11.098-2.861c-0.462-0.119-0.951-0.12-1.414-0.001l-11.089 2.839c1.381-3.57 4.736-6.164 8.719-6.437zM19.526 24.094c-0.323 0.035-0.651 0.053-0.983 0.053h-4.383c-0.332 0-0.66-0.018-0.983-0.053v-1.978h6.35zM11.923 24.794c-1.936-0.399-3.659-1.352-5.008-2.677h5.008zM9.644 26.828c0.155-0.423 0.348-0.827 0.576-1.208 0.54 0.189 1.096 0.337 1.662 0.443-0.302 0.408-0.55 0.858-0.733 1.34-0.529-0.166-1.033-0.358-1.505-0.575zM16.289 28.151c-1.543 0-3.045-0.188-4.413-0.542 0.223-0.566 0.551-1.081 0.96-1.518 0.038-0.044 0.201-0.198 0.267-0.265 0.174-0.159 0.359-0.306 0.554-0.439 0.166 0.008 0.334 0.012 0.502 0.012h4.383c0.168 0 0.336-0.005 0.502-0.012 0.196 0.133 0.381 0.28 0.554 0.439 0.058 0.056 0.231 0.228 0.267 0.265 0.402 0.43 0.725 0.935 0.948 1.489-1.396 0.372-2.937 0.57-4.524 0.57zM23.039 26.779c-0.47 0.222-0.973 0.418-1.5 0.589-0.181-0.469-0.425-0.908-0.72-1.306 0.567-0.106 1.122-0.254 1.662-0.443 0.219 0.367 0.407 0.754 0.558 1.16zM20.779 24.794v-2.677h5.008c-1.349 1.325-3.072 2.278-5.008 2.677zM29.209 19.276c0 0.876-0.712 1.588-1.588 1.588h-22.636c-0.876 0-1.588-0.712-1.588-1.588v-5.171c0-0.726 0.491-1.358 1.194-1.538l11.363-2.909c0.129-0.033 0.261-0.049 0.394-0.049s0.267 0.017 0.396 0.050l11.273 2.906c0.702 0.181 1.192 0.813 1.192 1.538v5.174z"></path>
<path d="M16.351 11.155c-0.848 0-1.537 0.69-1.537 1.537v5.088c0 0.848 0.69 1.537 1.537 1.537s1.537-0.69 1.537-1.537v-5.088c0-0.848-0.69-1.537-1.537-1.537zM17.136 17.78c0 0.433-0.352 0.785-0.785 0.785s-0.785-0.352-0.785-0.785v-5.088c0-0.433 0.352-0.785 0.785-0.785s0.785 0.352 0.785 0.785z"></path>
<path d="M21.179 12.345c-0.848 0-1.537 0.69-1.537 1.537v3.898c0 0.848 0.69 1.537 1.537 1.537s1.537-0.69 1.537-1.537v-3.898c0-0.848-0.689-1.537-1.537-1.537zM21.965 17.78c0 0.433-0.352 0.785-0.785 0.785s-0.785-0.352-0.785-0.785v-3.898c0-0.433 0.352-0.785 0.785-0.785s0.785 0.352 0.785 0.785z"></path>
<path d="M26.007 13.819c-0.848 0-1.537 0.69-1.537 1.537v2.424c0 0.848 0.69 1.537 1.537 1.537s1.537-0.69 1.537-1.537v-2.424c0-0.848-0.689-1.537-1.537-1.537zM26.793 17.78c0 0.433-0.352 0.785-0.785 0.785s-0.785-0.352-0.785-0.785v-2.424c0-0.433 0.352-0.785 0.785-0.785s0.785 0.352 0.785 0.785z"></path>
<path d="M6.694 13.819c-0.848 0-1.537 0.69-1.537 1.537v2.424c0 0.848 0.69 1.537 1.537 1.537s1.537-0.69 1.537-1.537v-2.424c0-0.848-0.69-1.537-1.537-1.537zM7.479 17.78c0 0.433-0.352 0.785-0.785 0.785s-0.785-0.352-0.785-0.785v-2.424c0-0.433 0.352-0.785 0.785-0.785s0.785 0.352 0.785 0.785z"></path>
<path d="M11.522 12.345c-0.848 0-1.537 0.69-1.537 1.537v3.898c0 0.848 0.69 1.537 1.537 1.537s1.537-0.69 1.537-1.537v-3.898c0-0.848-0.69-1.537-1.537-1.537zM12.308 17.78c0 0.433-0.352 0.785-0.785 0.785s-0.785-0.352-0.785-0.785v-3.898c0-0.433 0.352-0.785 0.785-0.785s0.785 0.352 0.785 0.785z"></path>
</svg>
