<!-- Generated by IcoMoon.io -->
<svg version="1.1" xmlns="http://www.w3.org/2000/svg" width="32" height="32" viewBox="0 0 32 32">
<title>little-red-riding-hood</title>
<path d="M29.326 1.465l0.515 1.449c0.022 0.062 0.066 0.111 0.121 0.136l1.288 0.58c0.182 0.082 0.182 0.372 0 0.454l-1.288 0.58c-0.055 0.025-0.099 0.074-0.121 0.136l-0.515 1.449c-0.073 0.205-0.33 0.205-0.403 0l-0.515-1.449c-0.022-0.062-0.066-0.111-0.121-0.136l-1.288-0.58c-0.182-0.082-0.182-0.372 0-0.454l1.288-0.58c0.055-0.025 0.099-0.074 0.121-0.136l0.515-1.449c0.073-0.205 0.33-0.205 0.403 0z"></path>
<path d="M2.441 0.844l0.382 1.075c0.016 0.046 0.049 0.082 0.090 0.101l0.955 0.43c0.135 0.061 0.135 0.276 0 0.337l-0.955 0.43c-0.041 0.018-0.073 0.055-0.090 0.101l-0.382 1.075c-0.054 0.152-0.245 0.152-0.299 0l-0.382-1.075c-0.016-0.046-0.049-0.083-0.090-0.101l-0.955-0.43c-0.135-0.061-0.135-0.276 0-0.337l0.955-0.43c0.041-0.018 0.073-0.055 0.090-0.101l0.382-1.075c0.054-0.152 0.245-0.152 0.299 0z"></path>
<path d="M3.076 26.896c0.605 0.143 0.979 0.749 0.836 1.354s-0.749 0.979-1.354 0.836c-0.605-0.143-0.979-0.749-0.836-1.354s0.749-0.979 1.354-0.836z"></path>
<path d="M24.114 0.645c0 0.268-0.217 0.486-0.485 0.486s-0.485-0.217-0.485-0.486c0-0.268 0.217-0.485 0.485-0.485s0.485 0.217 0.485 0.485z"></path>
<path d="M29.996 18.395c0-0.445-0.092-0.869-0.257-1.255 0.012-0.078 0.023-0.156 0.034-0.234 0.313-2.387-0.107-4.855-1.247-7.336-0.003-0.005-0.005-0.011-0.008-0.016-0.663-1.34-2.377-3.684-4.572-5.665-1.966-1.774-5.028-3.889-8.454-3.889-3.428 0-6.519 2.14-8.509 3.936-2.321 2.094-4.018 4.481-4.612 5.812-1.102 2.47-1.501 4.919-1.184 7.279 0.008 0.062 0.019 0.123 0.028 0.184-0.147 0.367-0.227 0.766-0.227 1.185 0 1.145 0.604 2.151 1.51 2.717 0.237 0.457 0.502 0.908 0.797 1.351 1.529 2.294 3.405 3.752 4.175 4.294-0.249 0.794-0.384 1.638-0.384 2.513v2.103c0 0.346 0.281 0.627 0.627 0.627s0.627-0.281 0.627-0.627v-2.103c0-1.679 0.582-3.224 1.554-4.446 1.067 0.366 2.212 0.566 3.402 0.566h1.647l-3.139 6.039c-0.096 0.184-0.024 0.412 0.16 0.508 0.056 0.029 0.115 0.043 0.173 0.043 0.136 0 0.267-0.074 0.334-0.203l3.018-5.807 3.018 5.807c0.067 0.129 0.198 0.203 0.334 0.203 0.058 0 0.118-0.014 0.173-0.043 0.184-0.096 0.256-0.323 0.16-0.508l-3.139-6.039h1.647c1.19 0 2.334-0.199 3.401-0.566 0.973 1.221 1.555 2.767 1.555 4.446v2.103c0 0.346 0.281 0.627 0.627 0.627s0.627-0.281 0.627-0.627v-2.103c0-0.889-0.139-1.747-0.396-2.552 0.843-0.61 2.656-2.071 4.141-4.3 0.272-0.409 0.519-0.823 0.742-1.243 0.962-0.553 1.612-1.591 1.612-2.779zM3.516 10.259c0.452-1.013 1.972-3.285 4.307-5.391 1.826-1.648 4.64-3.613 7.669-3.613 5.348 0 10.601 6.237 11.898 8.848 0.887 1.933 1.296 3.824 1.228 5.662-0.14-0.098-0.288-0.184-0.444-0.259 0.012-0.206 0.019-0.413 0.019-0.622 0-2.77-1.088-5.045-3.145-6.582-1.851-1.382-4.396-2.112-7.36-2.112h-4.39c-2.965 0-5.51 0.73-7.36 2.112-2.058 1.536-3.145 3.812-3.145 6.582 0 0.209 0.007 0.416 0.019 0.622-0.166 0.080-0.324 0.173-0.473 0.279-0.056-1.79 0.336-3.635 1.18-5.526zM20.908 9.201c-0.099-0.195-0.279-0.336-0.492-0.385s-0.437-0.002-0.611 0.13c-3.945 2.978-9.715 6.028-15.482 8.189-0.181-0.721-0.277-1.474-0.277-2.25 0-5.485 4.779-7.439 9.251-7.439h4.39c4.472 0 9.251 1.954 9.251 7.439 0 0.745-0.089 1.47-0.256 2.165-2.483-2.422-4.223-4.79-5.773-7.848zM2.241 18.395c0-0.617 0.289-1.168 0.739-1.525 0.24 1.248 0.701 2.419 1.341 3.469-0.043 0.003-0.087 0.005-0.131 0.005-1.075 0-1.949-0.874-1.949-1.949zM7.951 25.556c-0.798-0.594-2.346-1.887-3.614-3.788-0.038-0.056-0.074-0.113-0.111-0.169 0.307-0.004 0.604-0.051 0.885-0.135 0.966 1.199 2.188 2.182 3.584 2.865-0.282 0.386-0.531 0.797-0.745 1.229zM13.296 24.134c-3.805 0-7.081-2.31-8.5-5.601 5.577-2.085 11.171-4.994 15.197-7.893 1.595 2.971 3.417 5.333 5.976 7.775 0.062 0.059 0.133 0.105 0.207 0.139-1.423 3.28-4.693 5.581-8.491 5.581h-4.39zM23.011 25.516c-0.209-0.417-0.451-0.815-0.724-1.189 1.395-0.683 2.618-1.666 3.584-2.864 0.257 0.078 0.528 0.124 0.808 0.134-0.019 0.030-0.038 0.060-0.057 0.089-1.239 1.872-2.764 3.183-3.61 3.829zM26.793 20.344c-0.044 0-0.088-0.002-0.131-0.005 0.641-1.050 1.102-2.221 1.341-3.469 0.45 0.357 0.738 0.908 0.738 1.525-0 1.075-0.874 1.949-1.949 1.949z"></path>
<path d="M10.045 9.208c-0.122 0.039-0.245 0.081-0.365 0.124-0.326 0.117-0.495 0.477-0.378 0.803 0.092 0.256 0.333 0.415 0.59 0.415 0.070 0 0.142-0.012 0.213-0.037 0.105-0.038 0.213-0.074 0.321-0.109 0.33-0.105 0.513-0.458 0.408-0.788s-0.458-0.513-0.788-0.408z"></path>
<path d="M7.722 10.327c-0.867 0.609-1.532 1.382-1.924 2.238-0.144 0.315-0.006 0.687 0.309 0.832 0.085 0.039 0.173 0.057 0.261 0.057 0.238 0 0.465-0.136 0.571-0.367 0.299-0.653 0.819-1.252 1.504-1.733 0.284-0.199 0.352-0.59 0.153-0.874s-0.59-0.352-0.874-0.153z"></path>
<path d="M22.449 15.363c-0.049-0.025-0.497-0.245-1.065-0.245s-1.015 0.22-1.065 0.245c-0.185 0.094-0.258 0.319-0.164 0.505s0.32 0.259 0.505 0.167c0.003-0.002 0.333-0.164 0.724-0.164s0.721 0.162 0.722 0.163c0.055 0.028 0.113 0.041 0.171 0.041 0.137 0 0.269-0.075 0.336-0.205 0.095-0.185 0.021-0.412-0.164-0.506z"></path>
<path d="M16.594 18.586c-0.208 0-0.377 0.169-0.377 0.377 0 0.4-0.326 0.726-0.726 0.726s-0.726-0.326-0.726-0.726c0-0.208-0.169-0.377-0.377-0.377s-0.377 0.169-0.377 0.377c0 0.816 0.664 1.479 1.479 1.479s1.479-0.664 1.479-1.479c0-0.208-0.169-0.377-0.377-0.377z"></path>
<path d="M19.052 26.437c-0.208 0-0.377 0.169-0.377 0.377v0.711c0 0.208 0.169 0.377 0.377 0.377s0.377-0.169 0.377-0.377v-0.711c0-0.208-0.169-0.377-0.377-0.377z"></path>
<path d="M21.148 27.495c-0.208 0-0.377 0.169-0.377 0.377v0.711c0 0.208 0.169 0.377 0.377 0.377s0.377-0.169 0.377-0.377v-0.711c0-0.208-0.169-0.377-0.377-0.377z"></path>
<path d="M11.025 27.063c-0.208 0-0.377 0.169-0.377 0.377v0.711c0 0.208 0.169 0.377 0.377 0.377s0.377-0.169 0.377-0.377v-0.711c0-0.208-0.169-0.377-0.377-0.377z"></path>
<path d="M9.598 17.86c-0.609 0-1.103 0.494-1.103 1.103s0.494 1.103 1.103 1.103 1.103-0.494 1.103-1.103c0-0.609-0.494-1.103-1.103-1.103z"></path>
<path d="M21.384 17.86c-0.609 0-1.103 0.494-1.103 1.103s0.494 1.103 1.103 1.103c0.609 0 1.103-0.494 1.103-1.103s-0.494-1.103-1.103-1.103z"></path>
</svg>
