<!-- Generated by IcoMoon.io -->
<svg version="1.1" xmlns="http://www.w3.org/2000/svg" width="32" height="32" viewBox="0 0 32 32">
<title>magician</title>
<path d="M3.134 25.846l0.515 1.447c0.022 0.062 0.066 0.111 0.121 0.136l1.285 0.579c0.182 0.082 0.182 0.371 0 0.453l-1.285 0.579c-0.055 0.025-0.099 0.074-0.121 0.136l-0.515 1.447c-0.073 0.204-0.33 0.204-0.402 0l-0.515-1.447c-0.022-0.062-0.066-0.111-0.121-0.136l-1.286-0.579c-0.182-0.082-0.182-0.371 0-0.453l1.286-0.579c0.055-0.025 0.099-0.074 0.121-0.136l0.515-1.447c0.073-0.204 0.33-0.204 0.402 0z"></path>
<path d="M1.717 24.048c0 0.268-0.217 0.485-0.485 0.485s-0.485-0.217-0.485-0.485c0-0.268 0.217-0.485 0.485-0.485s0.485 0.217 0.485 0.485z"></path>
<path d="M10.405 16.101c-0.057 0-0.116-0.013-0.171-0.041-0.002-0.001-0.331-0.163-0.721-0.163s-0.719 0.162-0.723 0.163c-0.185 0.092-0.411 0.018-0.504-0.167s-0.020-0.41 0.164-0.504c0.049-0.025 0.496-0.245 1.063-0.245s1.014 0.22 1.063 0.245c0.185 0.094 0.258 0.321 0.164 0.506-0.066 0.13-0.198 0.205-0.335 0.205z"></path>
<path d="M22.173 16.101c-0.058 0-0.116-0.013-0.171-0.041-0.002-0.001-0.331-0.163-0.721-0.163s-0.719 0.162-0.723 0.163c-0.185 0.092-0.411 0.018-0.504-0.167s-0.020-0.41 0.164-0.504c0.049-0.025 0.496-0.245 1.063-0.245s1.014 0.22 1.063 0.245c0.185 0.094 0.258 0.321 0.164 0.506-0.067 0.13-0.198 0.205-0.335 0.205z"></path>
<path d="M15.397 20.461c-0.814 0-1.477-0.663-1.477-1.477 0-0.208 0.168-0.376 0.376-0.376s0.376 0.168 0.376 0.376c0 0.4 0.325 0.725 0.725 0.725s0.725-0.325 0.725-0.725c0-0.208 0.168-0.376 0.376-0.376s0.376 0.168 0.376 0.376c-0 0.814-0.663 1.477-1.477 1.477z"></path>
<path d="M30.839 22.075l-0.529-0.376c-0.31-0.22-0.701-0.303-1.073-0.229s-0.701 0.302-0.902 0.625l-4.545 7.297v-0.118c0-1.843-0.598-3.549-1.609-4.935 1.248-0.61 2.359-1.461 3.27-2.492l0.235 0.033c0.029 0.004 0.058 0.006 0.087 0.006 0.182 0 0.357-0.079 0.477-0.22 0.020-0.024 0.040-0.048 0.059-0.071 0.122 0.014 0.246 0.022 0.372 0.022 1.764 0 3.198-1.435 3.198-3.198 0-1.045-0.504-1.974-1.282-2.558 0.020-0.258 0.031-0.519 0.034-0.783 0.001-0.138-0.001-0.272-0.004-0.403 0.908-0.206 1.589-1.020 1.589-1.99v-1.491c0-1.125-0.915-2.041-2.041-2.041h-0.153v-7.065c0-1.152-0.937-2.089-2.089-2.089h-21.069c-1.152 0-2.089 0.937-2.089 2.089v7.065h-0.153c-1.125 0-2.041 0.915-2.041 2.041v1.491c0 0.949 0.651 1.748 1.529 1.976-0.004 0.136-0.006 0.275-0.004 0.417 0.002 0.278 0.015 0.554 0.037 0.826-0.745 0.586-1.226 1.495-1.226 2.514 0 1.764 1.435 3.198 3.198 3.198 0.107 0 0.213-0.006 0.318-0.017 0.018 0.022 0.036 0.044 0.055 0.066 0.12 0.141 0.295 0.22 0.477 0.22 0.029 0 0.058-0.002 0.087-0.006l0.288-0.040c0.912 1.035 2.025 1.888 3.276 2.5-1.011 1.386-1.609 3.092-1.609 4.935v2.099c0 0.346 0.28 0.626 0.626 0.626s0.626-0.28 0.626-0.626v-2.099c0-1.677 0.582-3.22 1.553-4.439 0.318 0.109 0.642 0.203 0.973 0.281v1.154c-0.596 0.886-0.946 1.951-0.946 3.096v2.244c0 0.208 0.168 0.376 0.376 0.376s0.376-0.168 0.376-0.376v-2.244c0-0.588 0.107-1.151 0.302-1.672 0.149 0.396 0.447 0.723 0.848 0.912 0.228 0.107 0.47 0.16 0.709 0.16 0.095 0 0.19-0.008 0.283-0.025v2.859c0 0.208 0.168 0.376 0.376 0.376s0.376-0.168 0.376-0.376v-3.203c0.008-0.006 0.016-0.011 0.023-0.018l0.891-0.741c0.177 0.102 0.381 0.16 0.6 0.16h0.801c0.218 0 0.423-0.059 0.6-0.16l0.891 0.741c0.015 0.012 0.030 0.022 0.045 0.034v3.186c0 0.208 0.168 0.376 0.376 0.376s0.376-0.168 0.376-0.376v-2.856c0.086 0.014 0.174 0.022 0.262 0.022 0.239 0 0.481-0.053 0.709-0.16 0.402-0.188 0.7-0.516 0.849-0.912 0.194 0.521 0.302 1.084 0.302 1.672v2.244c0 0.208 0.168 0.376 0.376 0.376s0.376-0.168 0.376-0.376v-2.244c0-1.146-0.35-2.211-0.946-3.097v-1.154c0.331-0.078 0.656-0.173 0.974-0.282 0.971 1.22 1.552 2.763 1.552 4.439v2.099c0 0.346 0.28 0.626 0.626 0.626 0.078 0 0.153-0.015 0.222-0.041 0.184-0.020 0.358-0.122 0.463-0.291l4.071-6.537 0.771 0.481-3.355 5.387c-0.183 0.294-0.093 0.68 0.201 0.863s0.68 0.093 0.863-0.201l4.813-7.729c0.385-0.619 0.222-1.436-0.373-1.858zM19.62 23.921c-0.151-0.178-0.342-0.325-0.565-0.43-0.589-0.276-1.267-0.189-1.767 0.227l-0.516 0.429h-2.75l-0.516-0.429c-0.501-0.416-1.178-0.503-1.767-0.227-0.223 0.105-0.414 0.252-0.565 0.43-1.642-0.37-3.12-1.179-4.304-2.297 0.26-0.049 0.462-0.256 0.503-0.52 0.079-0.514-0.309-4.112-0.575-6.379h17.139c-0.265 2.267-0.654 5.864-0.574 6.379 0.042 0.273 0.259 0.487 0.533 0.525l0.021 0.003c-1.182 1.113-2.657 1.919-4.296 2.288zM3.361 14.726h2.179c0.226 1.921 0.511 4.625 0.579 5.739l-0.895 0.125c-1.213-1.538-1.841-3.379-1.867-5.479-0.002-0.132 0-0.259 0.003-0.385zM27.372 14.726c0.039 1.656-0.293 3.872-1.862 5.864l-0.895-0.125c0.069-1.115 0.353-3.819 0.579-5.739zM28.625 18.418c0 0.88-0.588 1.625-1.392 1.864 0.516-0.877 0.894-1.832 1.125-2.845 0.169 0.288 0.267 0.624 0.267 0.981zM4.863 1.253h21.069c0.461 0 0.836 0.375 0.836 0.836v4.178h-22.741v-4.178c0-0.461 0.375-0.836 0.836-0.836zM4.027 7.019h22.741v2.135h-22.741zM1.833 12.685v-1.491c0-0.434 0.353-0.788 0.788-0.788h25.553c0.434 0 0.788 0.353 0.788 0.788v1.491c0 0.434-0.353 0.788-0.788 0.788h-25.553c-0.434 0-0.788-0.353-0.788-0.788zM2.169 18.418c0-0.327 0.082-0.635 0.225-0.905 0.231 0.976 0.598 1.898 1.094 2.746-0.766-0.262-1.319-0.988-1.319-1.841zM13.026 27.802c-0.278 0.231-0.64 0.278-0.967 0.124s-0.523-0.461-0.523-0.823v-2.108c0-0.362 0.196-0.669 0.523-0.823 0.128-0.060 0.26-0.089 0.391-0.089 0.205 0 0.406 0.072 0.576 0.214l0.866 0.721c-0.067 0.151-0.106 0.317-0.106 0.493v1.079c0 0.175 0.038 0.342 0.106 0.493zM15.798 27.047h-0.801c-0.253 0-0.459-0.206-0.459-0.459v-1.079c0-0.253 0.206-0.459 0.459-0.459h0.801c0.253 0 0.459 0.206 0.459 0.459v1.079c0 0.253-0.206 0.459-0.459 0.459zM19.259 27.103c0 0.362-0.196 0.669-0.523 0.823s-0.689 0.107-0.967-0.124l-0.866-0.721c0.067-0.151 0.106-0.317 0.106-0.493v-1.079c0-0.175-0.038-0.342-0.106-0.493l0.866-0.721c0.278-0.231 0.64-0.278 0.967-0.124s0.523 0.461 0.523 0.823v2.108zM30.148 23.271l-1.061 1.704-0.771-0.481 1.081-1.736c0.025-0.039 0.060-0.054 0.085-0.059s0.063-0.005 0.101 0.022l0.529 0.376c0.056 0.040 0.071 0.117 0.035 0.175z"></path>
<path d="M24.015 5.315c-0.208 0-0.376-0.168-0.376-0.376v-0.71c0-0.208 0.168-0.376 0.376-0.376s0.376 0.168 0.376 0.376v0.71c0 0.208-0.168 0.376-0.376 0.376z"></path>
<path d="M22.24 3.737c-0.208 0-0.376-0.168-0.376-0.376v-0.71c0-0.208 0.168-0.376 0.376-0.376s0.376 0.168 0.376 0.376v0.71c-0 0.208-0.168 0.376-0.376 0.376z"></path>
<path d="M20.274 4.572c-0.208 0-0.376-0.168-0.376-0.376v-0.71c0-0.208 0.168-0.376 0.376-0.376s0.376 0.168 0.376 0.376v0.71c0 0.208-0.168 0.376-0.376 0.376z"></path>
<path d="M9.837 17.931c0.58 0.182 0.903 0.799 0.721 1.379s-0.799 0.903-1.379 0.721c-0.58-0.182-0.903-0.799-0.721-1.379s0.799-0.903 1.379-0.721z"></path>
<path d="M21.716 17.981c0.555 0.249 0.802 0.9 0.554 1.454s-0.9 0.802-1.454 0.554c-0.555-0.249-0.802-0.9-0.554-1.454s0.9-0.802 1.454-0.554z"></path>
<path d="M8.807 3.86c-0.341 0-0.62-0.273-0.626-0.616-0.006-0.346 0.27-0.631 0.616-0.637 0.837-0.014 1.653-0.014 2.493 0 0.346 0.006 0.622 0.291 0.616 0.637s-0.292 0.621-0.637 0.616c-0.826-0.014-1.627-0.014-2.451 0-0.004 0-0.007 0-0.011 0z"></path>
<path d="M6.606 3.86h-0.751c-0.346 0-0.626-0.28-0.626-0.626s0.28-0.626 0.626-0.626h0.751c0.346 0 0.626 0.28 0.626 0.626s-0.28 0.626-0.626 0.626z"></path>
</svg>
