<!-- Generated by IcoMoon.io -->
<svg version="1.1" xmlns="http://www.w3.org/2000/svg" width="32" height="32" viewBox="0 0 32 32">
<title>mime</title>
<path d="M29.935 1.568l0.517 1.453c0.022 0.062 0.066 0.111 0.121 0.136l1.291 0.582c0.182 0.082 0.182 0.373 0 0.455l-1.291 0.582c-0.055 0.025-0.099 0.074-0.121 0.136l-0.517 1.453c-0.073 0.205-0.331 0.205-0.404 0l-0.517-1.453c-0.022-0.062-0.066-0.112-0.121-0.136l-1.291-0.582c-0.182-0.082-0.182-0.373 0-0.455l1.291-0.582c0.055-0.025 0.099-0.074 0.121-0.136l0.517-1.453c0.073-0.205 0.331-0.205 0.404 0z"></path>
<path d="M1.832 1.182l0.383 1.078c0.016 0.046 0.049 0.083 0.090 0.101l0.957 0.431c0.135 0.061 0.135 0.276 0 0.337l-0.957 0.431c-0.041 0.018-0.074 0.055-0.090 0.101l-0.383 1.078c-0.054 0.152-0.246 0.152-0.3 0l-0.383-1.078c-0.016-0.046-0.049-0.083-0.090-0.101l-0.957-0.431c-0.135-0.061-0.135-0.276 0-0.337l0.957-0.431c0.041-0.018 0.073-0.055 0.090-0.101l0.383-1.078c0.054-0.152 0.246-0.152 0.3 0z"></path>
<path d="M29.157 25.941c0 0.623-0.505 1.128-1.128 1.128s-1.128-0.505-1.128-1.128c0-0.623 0.505-1.128 1.128-1.128s1.128 0.505 1.128 1.128z"></path>
<path d="M25.079 1.563c0 0.269-0.218 0.487-0.487 0.487s-0.487-0.218-0.487-0.487c0-0.269 0.218-0.487 0.487-0.487s0.487 0.218 0.487 0.487z"></path>
<path d="M28.953 15.27c0.007-0.46 0.005-1.018 0.002-1.575-0.001-0.138-0.001-0.251-0.001-0.327 0-5.78-4.744-10.486-10.592-10.53-0.431-0.255-0.924-0.474-1.47-0.65-1.602-0.515-3.467-0.6-5.328-0.254l-0.15-0.677c-0.070-0.316-0.27-0.591-0.549-0.754s-0.617-0.204-0.926-0.111l-0.476 0.143c-0.31 0.093-0.569 0.313-0.711 0.603s-0.158 0.63-0.042 0.932l0.246 0.641c-1.403 0.586-2.666 1.407-3.661 2.394-1.43 1.419-2.065 2.964-1.743 4.239 0.043 0.169 0.105 0.346 0.196 0.525-0.392 1.095-0.606 2.272-0.606 3.498 0 0.153-0.034 0.549-0.067 0.933-0.032 0.369-0.059 0.69-0.077 0.965-0.937 0.561-1.566 1.586-1.566 2.755 0 1.771 1.441 3.211 3.211 3.211 0.321 0 0.631-0.049 0.924-0.137 0.968 1.202 2.194 2.188 3.593 2.872-1.015 1.392-1.615 3.104-1.615 4.954v2.108c0 0.347 0.282 0.629 0.629 0.629s0.629-0.282 0.629-0.629v-2.108c0-1.683 0.583-3.232 1.558-4.457 0.588 0.202 1.199 0.353 1.828 0.448-1.106 1.021-1.8 2.482-1.8 4.102v2.253c0 0.208 0.169 0.377 0.377 0.377s0.377-0.169 0.377-0.377v-1.672c0.004 0 0.007 0.001 0.011 0.001h9.533c0.039 0 0.076-0.006 0.111-0.017v1.689c0 0.208 0.169 0.377 0.377 0.377s0.377-0.169 0.377-0.377v-2.253c0-1.62-0.694-3.081-1.8-4.102 0.629-0.095 1.24-0.246 1.828-0.448 0.975 1.224 1.558 2.773 1.558 4.456v2.108c0 0.347 0.282 0.629 0.629 0.629s0.629-0.282 0.629-0.629v-2.108c0-1.85-0.6-3.563-1.615-4.955 1.399-0.684 2.624-1.67 3.592-2.871 0.293 0.089 0.603 0.137 0.925 0.137 1.771 0 3.211-1.441 3.211-3.211-0-1.166-0.625-2.188-1.557-2.75zM9.428 1.47c0.051-0.104 0.14-0.18 0.251-0.213l0.476-0.143c0.040-0.012 0.080-0.018 0.12-0.018 0.072 0 0.143 0.019 0.207 0.057 0.1 0.059 0.169 0.153 0.194 0.266l0.724 3.271c0.046 0.209-0.078 0.422-0.283 0.483s-0.426-0.047-0.503-0.247l-1.201-3.127c-0.042-0.108-0.036-0.225 0.015-0.329zM6.181 5.998c0.859-0.853 1.987-1.583 3.227-2.109l0.502 1.308c0.176 0.459 0.621 0.748 1.092 0.748 0.11 0 0.223-0.016 0.333-0.049 0.582-0.175 0.934-0.776 0.803-1.369l-0.302-1.366c0.656-0.12 1.31-0.18 1.948-0.18 0.961 0 1.885 0.135 2.722 0.405 1.383 0.445 2.335 1.211 2.546 2.049 0.239 0.949-0.596 1.798-1.339 2.343-1.134 0.831-2.9 1.577-4.975 2.101-4.225 1.066-7.576 0.712-7.968-0.841-0.207-0.821 0.32-1.957 1.41-3.039zM24.090 18.969l-1.681 2.35c-0.124 0.174-0.318 0.273-0.531 0.273s-0.407-0.1-0.531-0.273l-1.681-2.35c-0.163-0.227-0.163-0.533 0-0.76l1.681-2.35c0.124-0.174 0.318-0.273 0.531-0.273s0.407 0.1 0.531 0.273l1.681 2.35c0.163 0.227 0.163 0.533 0 0.76zM24.943 18.339c-0.036-0.201-0.115-0.395-0.239-0.569l-1.681-2.35c-0.268-0.374-0.685-0.589-1.145-0.589s-0.878 0.215-1.145 0.589l-1.681 2.35c-0.35 0.49-0.35 1.148 0 1.638l1.681 2.35c0.024 0.033 0.049 0.065 0.075 0.095-0.547 0.152-1.123 0.234-1.718 0.234h-6.239c-0.595 0-1.17-0.082-1.718-0.234 0.026-0.031 0.051-0.062 0.075-0.095l1.681-2.35c0.35-0.49 0.35-1.148 0-1.638l-1.681-2.35c-0 0-0 0-0 0-0.268-0.374-0.685-0.589-1.145-0.589s-0.878 0.215-1.145 0.589l-1.681 2.35c-0.124 0.174-0.203 0.368-0.239 0.569-0.253-0.547-0.432-1.135-0.523-1.751 0.308-2.534 0.703-4.188 2.844-4.209 0.005-0 0.009-0 0.014-0 0.455 0 1.014 0.216 1.72 0.488 1.164 0.449 2.759 1.064 4.995 1.064 2.281 0 3.7-0.643 4.737-1.113 0.597-0.271 1.069-0.484 1.505-0.492 2.102-0.036 2.567 1.633 3.030 4.185 0.027 0.15 0.054 0.298 0.082 0.444-0.101 0.483-0.256 0.946-0.458 1.383zM9.531 21.319l-1.681-2.35c-0.163-0.227-0.163-0.533-0-0.76l1.681-2.35c0.124-0.174 0.318-0.273 0.531-0.273s0.407 0.1 0.531 0.273l1.681 2.35c0.163 0.227 0.163 0.533 0 0.76l-1.681 2.35c-0.124 0.174-0.318 0.273-0.531 0.273s-0.407-0.1-0.531-0.273zM4.642 19.974c-1.077 0-1.953-0.876-1.953-1.953 0-0.496 0.186-0.949 0.492-1.293 0.166 0.409 0.406 0.963 0.648 1.472 0.212 0.446 0.382 0.775 0.528 1.018 0.129 0.257 0.268 0.508 0.417 0.752-0.044 0.003-0.088 0.005-0.132 0.005zM5.207 16.592c-0.051 0.431-0.101 0.851-0.166 1.225-0.303-0.626-0.642-1.402-0.811-1.858-0.014-0.273 0.055-1.064 0.097-1.55 0.040-0.466 0.072-0.835 0.072-1.041 0-0.843 0.116-1.66 0.331-2.437 0.529 0.342 1.274 0.617 2.32 0.743 0.059 0.007 0.121 0.013 0.182 0.019-0.501 0.327-0.905 0.795-1.209 1.4-0.524 1.043-0.679 2.348-0.815 3.499zM20.795 28.857c-0.034-0.010-0.071-0.016-0.108-0.016h-9.533c-0.003 0-0.005 0-0.008 0 0.015-0.419 0.084-0.825 0.199-1.21h9.25c0.117 0.39 0.186 0.801 0.199 1.226zM20.297 26.876h-8.653c0.373-0.75 0.934-1.39 1.623-1.857 0.167 0.008 0.335 0.012 0.504 0.012h4.401c0.169 0 0.337-0.004 0.504-0.012 0.688 0.467 1.25 1.107 1.622 1.857zM18.171 23.773h-4.401c-3.327 0-6.25-1.763-7.886-4.402 0.14-0.283 0.242-0.611 0.321-0.969 0.539 1.291 1.443 2.394 2.584 3.176l0.128 0.18c0.268 0.374 0.685 0.589 1.145 0.589 0.052 0 0.104-0.003 0.155-0.009 0.816 0.322 1.704 0.499 2.633 0.499h6.239c0.929 0 1.817-0.177 2.632-0.499 0.051 0.006 0.103 0.009 0.156 0.009 0.46 0 0.878-0.215 1.145-0.589l0.128-0.179c1.144-0.785 2.051-1.892 2.589-3.189 0.103 0.322 0.227 0.616 0.384 0.871-1.623 2.701-4.58 4.513-7.954 4.513zM26.558 16.287c-0.204-1.124-0.436-2.399-1.004-3.397-0.688-1.209-1.764-1.822-3.197-1.822-0.029 0-0.059 0-0.089 0.001-0.697 0.012-1.302 0.286-2.003 0.604-0.984 0.446-2.208 1.001-4.218 1.001-2.001 0-3.41-0.543-4.542-0.98-0.162-0.062-0.319-0.123-0.473-0.18 0.653-0.104 1.327-0.243 2.014-0.416 5.064-1.278 7.833-3.566 7.226-5.971-0.079-0.313-0.213-0.613-0.396-0.897 4.434 0.749 7.819 4.561 7.819 9.138 0 0.078 0.001 0.194 0.001 0.334 0.003 0.568 0.010 1.865-0.030 2.262-0.129 0.385-0.491 1.172-0.808 1.777-0.115-0.43-0.207-0.935-0.302-1.455zM27.299 19.974c-0.045 0-0.089-0.002-0.133-0.005 0.33-0.54 0.612-1.113 0.841-1.711 0.031-0.060 0.063-0.123 0.097-0.189 0.244-0.483 0.475-0.987 0.63-1.371 0.321 0.348 0.518 0.812 0.518 1.322 0 1.077-0.876 1.953-1.953 1.953z"></path>
<path d="M10.063 17.483c-0.611 0-1.105 0.495-1.105 1.105s0.495 1.105 1.105 1.105 1.105-0.495 1.105-1.105c-0-0.61-0.495-1.105-1.105-1.105z"></path>
<path d="M22.311 17.571c0.564 0.234 0.832 0.881 0.598 1.445s-0.881 0.832-1.445 0.598c-0.564-0.234-0.832-0.881-0.598-1.445s0.881-0.832 1.445-0.598z"></path>
<path d="M17.076 18.212c-0.208 0-0.377 0.169-0.377 0.377 0 0.401-0.327 0.728-0.728 0.728s-0.728-0.327-0.728-0.728c0-0.208-0.169-0.377-0.377-0.377s-0.377 0.169-0.377 0.377c0 0.818 0.665 1.483 1.483 1.483s1.483-0.665 1.483-1.483c0-0.208-0.169-0.377-0.377-0.377z"></path>
<path d="M13.805 8.25c0.208 0 0.377-0.169 0.377-0.377v-0.713c0-0.208-0.169-0.377-0.377-0.377s-0.377 0.169-0.377 0.377v0.713c0 0.208 0.169 0.377 0.377 0.377z"></path>
<path d="M15.799 6.72c0.208 0 0.377-0.169 0.377-0.377v-0.713c0-0.208-0.169-0.377-0.377-0.377s-0.377 0.169-0.377 0.377v0.713c0 0.208 0.169 0.377 0.377 0.377z"></path>
<path d="M6.691 8.141c-0.093 0-0.188-0.021-0.278-0.065-0.312-0.154-0.44-0.531-0.286-0.842 0.376-0.763 1.107-1.211 1.694-1.571l0.014-0.008c0.296-0.182 0.683-0.089 0.865 0.207s0.089 0.683-0.207 0.865l-0.014 0.009c-0.495 0.304-1.008 0.618-1.223 1.055-0.109 0.222-0.333 0.351-0.565 0.351z"></path>
</svg>
