<!-- Generated by IcoMoon.io -->
<svg version="1.1" xmlns="http://www.w3.org/2000/svg" width="32" height="32" viewBox="0 0 32 32">
<title>mummy</title>
<path d="M4.654 0.154l0.516 1.45c0.022 0.062 0.066 0.111 0.121 0.136l1.288 0.58c0.182 0.082 0.182 0.372 0 0.454l-1.288 0.58c-0.055 0.025-0.099 0.074-0.121 0.136l-0.516 1.45c-0.073 0.205-0.33 0.205-0.403 0l-0.515-1.45c-0.022-0.062-0.066-0.111-0.121-0.136l-1.288-0.58c-0.182-0.082-0.182-0.372 0-0.454l1.288-0.58c0.055-0.025 0.099-0.074 0.121-0.136l0.515-1.45c0.073-0.205 0.33-0.205 0.403 0z"></path>
<path d="M28.925 27.506l0.382 1.075c0.016 0.046 0.049 0.082 0.090 0.101l0.955 0.43c0.135 0.061 0.135 0.276 0 0.337l-0.955 0.43c-0.041 0.018-0.073 0.055-0.090 0.101l-0.382 1.075c-0.054 0.152-0.245 0.152-0.299 0l-0.382-1.075c-0.016-0.046-0.049-0.082-0.090-0.101l-0.955-0.43c-0.135-0.061-0.135-0.276 0-0.337l0.955-0.43c0.041-0.018 0.073-0.055 0.090-0.101l0.382-1.075c0.054-0.152 0.245-0.152 0.299 0z"></path>
<path d="M30.916 24.976c0 0.268-0.217 0.486-0.486 0.486s-0.486-0.217-0.486-0.486c0-0.268 0.217-0.486 0.486-0.486s0.486 0.217 0.486 0.486z"></path>
<path d="M1.396 6.301c0 0.268-0.217 0.486-0.486 0.486s-0.486-0.217-0.486-0.486 0.217-0.486 0.486-0.486c0.268 0 0.486 0.217 0.486 0.486z"></path>
<path d="M30.046 4.552l0.382 1.075c0.016 0.046 0.049 0.082 0.090 0.101l0.955 0.43c0.135 0.061 0.135 0.276 0 0.337l-0.955 0.43c-0.041 0.018-0.073 0.055-0.090 0.101l-0.382 1.075c-0.054 0.152-0.245 0.152-0.299 0l-0.382-1.075c-0.016-0.046-0.049-0.082-0.090-0.101l-0.955-0.43c-0.135-0.061-0.135-0.276 0-0.337l0.955-0.43c0.041-0.018 0.073-0.055 0.090-0.101l0.382-1.075c0.054-0.152 0.245-0.152 0.299 0z"></path>
<path d="M11.384 18.536c0.233 0.563-0.034 1.208-0.597 1.442s-1.208-0.034-1.442-0.597c-0.233-0.563 0.034-1.208 0.597-1.442s1.208 0.034 1.442 0.597z"></path>
<path d="M23.219 18.696c0.14 0.593-0.227 1.187-0.82 1.327s-1.187-0.227-1.327-0.82c-0.14-0.593 0.227-1.187 0.82-1.327s1.187 0.227 1.327 0.82z"></path>
<path d="M11.251 16.072c-0.058 0-0.116-0.013-0.171-0.041-0.002-0.001-0.332-0.163-0.722-0.163s-0.721 0.162-0.724 0.164c-0.186 0.093-0.412 0.018-0.505-0.167s-0.020-0.41 0.164-0.505c0.049-0.025 0.497-0.245 1.065-0.245s1.016 0.22 1.065 0.245c0.185 0.095 0.259 0.321 0.164 0.507-0.067 0.13-0.199 0.205-0.336 0.205z"></path>
<path d="M23.040 16.072c-0.058 0-0.116-0.013-0.171-0.041-0.002-0.001-0.332-0.163-0.722-0.163s-0.721 0.162-0.724 0.164c-0.185 0.092-0.412 0.018-0.505-0.167s-0.020-0.41 0.164-0.505c0.049-0.025 0.497-0.245 1.065-0.245s1.016 0.22 1.065 0.245c0.185 0.095 0.259 0.321 0.164 0.507-0.067 0.13-0.199 0.205-0.336 0.205z"></path>
<path d="M16.252 20.439c-0.816 0-1.48-0.664-1.48-1.48 0-0.208 0.169-0.377 0.377-0.377s0.377 0.169 0.377 0.377c0 0.401 0.326 0.726 0.726 0.726s0.726-0.326 0.726-0.726c0-0.208 0.169-0.377 0.377-0.377s0.377 0.169 0.377 0.377c-0 0.816-0.664 1.48-1.48 1.48z"></path>
<path d="M29.796 16.105c0.167-1.035 0.185-1.941 0.186-2.005 0-0.019-0-0.037-0.002-0.056-0.208-2.859-1.48-5.514-3.581-7.477-2.112-1.973-4.868-3.059-7.759-3.059h-4.775c-6.27 0-11.371 5.101-11.371 11.371 0 0.462 0.028 0.916 0.082 1.364-0.516 0.569-0.831 1.322-0.831 2.149 0 1.679 1.298 3.059 2.943 3.193 0.298 0.407 0.622 0.793 0.97 1.157-0.499 0.568-1.022 1.058-1.353 1.144-1.638 0.425-2.708 2.81-2.662 3.443 0.050 0.695 0.78 1.293 1.211 1.588 0.256 0.175 1.048 0.675 1.751 0.675 0.123 0 0.244-0.015 0.359-0.051 0.381-0.117 0.456-0.459 0.522-0.76 0.102-0.466 0.293-1.334 0.942-1.543 0.717-0.23 1.391-0.998 2.057-2.343 0.15 0.081 0.302 0.159 0.455 0.233-0.695 1.223-1.094 2.636-1.094 4.141v2.103c0 0.347 0.281 0.628 0.628 0.628s0.628-0.281 0.628-0.628v-0.285l1.583 0.37v0.153c0 0.208 0.169 0.377 0.377 0.377s0.377-0.169 0.377-0.377v-1.53l9.634 0.284c-0.021 0.070-0.022 0.146 0 0.218v1.028c0 0.208 0.169 0.377 0.377 0.377s0.377-0.169 0.377-0.377v-0.931l1.583-0.923v1.616c0 0.347 0.281 0.628 0.628 0.628s0.628-0.281 0.628-0.628v-2.103c0-1.506-0.398-2.921-1.095-4.145 1.276-0.613 2.44-1.463 3.417-2.518 0.165-0.178 0.213-0.436 0.121-0.662s-0.304-0.378-0.547-0.391c0.026-0.031 0.051-0.062 0.076-0.093 0.292 0.088 0.602 0.137 0.923 0.137 1.767 0 3.204-1.437 3.204-3.204-0-0.896-0.37-1.706-0.965-2.287zM28.726 14.107c-0.005 0.209-0.021 0.529-0.056 0.9-3.537-2.38-6.734-4.054-10.085-5.271 1.245-0.196 2.522-0.352 3.829-0.47 2.196 0.97 4.057 2.054 6.086 3.351 0.111 0.484 0.188 0.982 0.226 1.49zM14.782 10.476c0.741-0.174 1.494-0.332 2.259-0.475 3.871 1.256 7.46 3.077 11.524 5.845-0.067 0.429-0.159 0.868-0.283 1.254l-8.881-4.955c-0.006-0.004-0.013-0.006-0.019-0.010-0.005-0.003-0.010-0.006-0.015-0.008-1.5-0.718-3.016-1.264-4.586-1.651zM15.513 11.975c-2.511 0.206-4.97 0.965-7.161 2.237l-0.336 0.195-0.159-1.712c1.336-0.558 2.727-1.054 4.17-1.487 0.050 0.021 0.103 0.037 0.159 0.045 1.141 0.16 2.245 0.399 3.325 0.722zM26.874 9.018c0.547 0.764 0.99 1.606 1.309 2.508-1.407-0.879-2.762-1.661-4.238-2.38 0.961-0.063 1.937-0.106 2.929-0.128zM13.865 4.764h4.775c1.395 0 2.732 0.288 3.95 0.809-3.391 0.269-6.602 0.792-9.565 1.563-2.868 0.746-5.576 1.742-8.074 2.966 1.708-3.175 5.064-5.338 8.915-5.338zM4.441 11.203c5.463-2.849 11.997-4.518 19.438-4.965 0.717 0.437 1.377 0.96 1.964 1.555-4.351 0.159-8.427 0.709-12.13 1.64-3.542 0.891-6.84 2.156-9.822 3.762 0.116-0.69 0.302-1.357 0.551-1.993zM2.999 18.393c0-0.046 0.002-0.092 0.005-0.138 0.168 0.54 0.376 1.063 0.619 1.566-0.384-0.356-0.625-0.864-0.625-1.428zM3.749 14.88c0-0.058 0.001-0.115 0.002-0.173 0.307-0.174 0.616-0.346 0.93-0.512l0.456 5.795c-0.882-1.501-1.389-3.247-1.389-5.11zM5.407 13.82c0.407-0.205 0.82-0.403 1.239-0.595l0.201 2.174c0.003 0.038 0.011 0.074 0.020 0.11l0.322 4.503c0.016 0.224 0.066 0.44 0.143 0.641l-1.396-0.112zM6.042 26.043c-1.184 0.381-1.565 1.546-1.73 2.231-0.171-0.059-0.402-0.165-0.671-0.339-0.454-0.295-0.68-0.569-0.738-0.684 0.108-0.456 0.841-1.923 1.715-2.15 0.648-0.168 1.372-0.836 1.959-1.499 0.267 0.223 0.544 0.434 0.83 0.633-0.436 0.899-0.942 1.672-1.366 1.808zM6.538 21.848l2.351 0.188c0.173 0.044 0.354 0.068 0.54 0.068 2.114 0.008 6.031 0.164 9.58 0.328l-9.84 1.406c-0.983-0.517-1.872-1.192-2.631-1.99zM20.732 26.055c0.566-0.107 1.122-0.256 1.664-0.446 0.272 0.454 0.494 0.941 0.66 1.453l-1.799-0.141c-0.149-0.305-0.325-0.595-0.526-0.866zM20.623 27.341c0.011 0.063 0.037 0.121 0.075 0.17 0.095 0.227 0.173 0.462 0.233 0.705l-8.821-1.305c0.153-0.258 0.33-0.501 0.527-0.725 0.404 0.044 0.813 0.067 1.228 0.067h4.775c0.412 0 0.822-0.023 1.228-0.068 0.304 0.346 0.558 0.735 0.755 1.157zM9.297 27.601l1.987-0.754c-0.218 0.429-0.383 0.89-0.484 1.374l-1.633 0.068c0.032-0.233 0.076-0.463 0.13-0.689zM9.583 26.687c0.146-0.374 0.322-0.733 0.525-1.074 0.429 0.151 0.87 0.276 1.32 0.374zM9.099 30.314v-1.045c0-0.075 0.002-0.149 0.004-0.223l1.593-0.066c-0.009 0.126-0.014 0.254-0.014 0.382v1.322zM11.436 29.327c0.002-0.221 0.018-0.439 0.049-0.653 0.004-0.018 0.007-0.036 0.009-0.054 0.054-0.347 0.144-0.682 0.269-1l9.292 1.375c0.009 0.121 0.015 0.244 0.015 0.367v0.243zM21.568 27.701l1.692 0.133c0.070 0.344 0.115 0.697 0.134 1.057l-1.572 0.917v-0.446c-0-0.578-0.090-1.136-0.254-1.661zM18.64 24.996h-4.775c-1.188 0-2.328-0.206-3.388-0.584l12.513-1.788c0.782 0.039 1.474 0.075 2.031 0.104-1.792 1.454-4.051 2.268-6.381 2.268zM24.937 21.467c-3.512-0.183-11.798-0.595-15.382-0.617-0.048-0.016-0.098-0.028-0.151-0.032l-0.286-0.023c-0.37-0.127-0.647-0.465-0.676-0.873l-0.296-4.139 0.837-0.486c2.98-1.73 6.496-2.438 9.913-1.999l8.29 4.625c-0.472 1.351-1.249 2.559-2.248 3.543zM27.556 20.342c-0.045 0-0.089-0.002-0.133-0.005 0.345-0.565 0.638-1.165 0.872-1.794 0.145 0.077 0.314 0.096 0.472 0.050 0.161-0.047 0.297-0.157 0.377-0.305 0.092-0.17 0.173-0.356 0.246-0.552 0.074 0.206 0.115 0.427 0.115 0.657 0 1.075-0.874 1.949-1.949 1.949z"></path>
</svg>
