<!-- Generated by IcoMoon.io -->
<svg version="1.1" xmlns="http://www.w3.org/2000/svg" width="32" height="32" viewBox="0 0 32 32">
<title>ninja</title>
<path d="M15.329 20.383c-0.818 0-1.483-0.665-1.483-1.483 0-0.207 0.168-0.375 0.375-0.375s0.375 0.168 0.375 0.375c0 0.404 0.329 0.733 0.733 0.733s0.733-0.329 0.733-0.733c0-0.207 0.168-0.375 0.375-0.375s0.375 0.168 0.375 0.375c0 0.818-0.665 1.483-1.483 1.483z"></path>
<path d="M10.146 7.298c-0.245 0-0.477-0.143-0.58-0.382-0.137-0.32 0.011-0.691 0.331-0.828 0.233-0.1 0.479-0.189 0.729-0.264 0.333-0.101 0.685 0.088 0.786 0.421s-0.088 0.685-0.421 0.786c-0.206 0.062-0.407 0.135-0.597 0.216-0.081 0.035-0.165 0.051-0.248 0.051z"></path>
<path d="M13.003 6.71c-0.333 0-0.612-0.261-0.629-0.598-0.018-0.348 0.25-0.644 0.597-0.662 0.677-0.035 1.356-0.026 2.013-0.017 0.52 0.007 1.057 0.014 1.578-0.002 0.345-0.011 0.638 0.263 0.649 0.612s-0.264 0.638-0.612 0.649c-0.548 0.016-1.099 0.009-1.632 0.002-0.636-0.008-1.295-0.017-1.931 0.016-0.011 0.001-0.022 0.001-0.033 0.001z"></path>
<path d="M29.174 0.154l0.518 1.456c0.022 0.062 0.066 0.112 0.121 0.137l1.294 0.583c0.183 0.082 0.183 0.374 0 0.456l-1.294 0.583c-0.055 0.025-0.099 0.074-0.121 0.137l-0.518 1.456c-0.073 0.206-0.332 0.206-0.405 0l-0.518-1.456c-0.022-0.062-0.066-0.112-0.121-0.137l-1.294-0.583c-0.183-0.082-0.183-0.374 0-0.456l1.294-0.583c0.055-0.025 0.099-0.074 0.121-0.137l0.518-1.456c0.073-0.206 0.332-0.206 0.405 0z"></path>
<path d="M2.975 24.421l0.384 1.080c0.016 0.046 0.049 0.083 0.090 0.101l0.96 0.432c0.136 0.061 0.136 0.277 0 0.338l-0.96 0.432c-0.041 0.018-0.074 0.055-0.090 0.101l-0.384 1.080c-0.054 0.153-0.246 0.153-0.3 0l-0.384-1.080c-0.016-0.046-0.049-0.083-0.090-0.101l-0.96-0.432c-0.136-0.061-0.136-0.277 0-0.338l0.96-0.432c0.041-0.018 0.074-0.055 0.090-0.101l0.384-1.080c0.054-0.153 0.246-0.153 0.3 0z"></path>
<path d="M2.676 2.449c0.577 0.239 0.851 0.901 0.612 1.478s-0.901 0.851-1.478 0.612c-0.577-0.239-0.851-0.901-0.612-1.478s0.901-0.851 1.478-0.612z"></path>
<path d="M31.011 8.227c0 0.269-0.218 0.488-0.488 0.488s-0.488-0.218-0.488-0.488c0-0.269 0.218-0.488 0.488-0.488s0.488 0.218 0.488 0.488z"></path>
<path d="M27.322 23.406c-0.436-0.113-1.203-0.923-1.814-1.695 0.085-0.098 0.168-0.198 0.25-0.3 0.294 0.089 0.604 0.138 0.927 0.138 1.775 0 3.219-1.444 3.219-3.219 0-0.977-0.438-1.853-1.128-2.444 0-0.001 0-0.003 0-0.004v-1.182c0-6.485-5.057-11.762-11.272-11.762h-4.348c-6.216 0-11.272 5.276-11.272 11.762v1.182c0 0.001 0 0.003 0 0.004-0.69 0.591-1.128 1.467-1.128 2.444 0 1.775 1.444 3.219 3.219 3.219 0.322 0 0.634-0.048 0.927-0.137 0.97 1.204 2.198 2.192 3.6 2.877-1.017 1.395-1.618 3.112-1.618 4.966v2.113c0 0.348 0.282 0.63 0.63 0.63s0.63-0.282 0.63-0.63v-2.113c0-1.687 0.584-3.24 1.561-4.467 0.59 0.202 1.203 0.354 1.834 0.449-1.109 1.023-1.805 2.487-1.805 4.112v2.259c0 0.209 0.169 0.378 0.378 0.378s0.378-0.169 0.378-0.378v-1.304h9.678v1.304c0 0.209 0.169 0.378 0.378 0.378s0.378-0.169 0.378-0.378v-2.259c0-1.624-0.696-3.088-1.805-4.112 0.631-0.095 1.244-0.247 1.834-0.449 0.977 1.227 1.561 2.78 1.561 4.467v2.113c0 0.348 0.282 0.63 0.63 0.63s0.63-0.282 0.63-0.63v-2.113c0-1.855-0.601-3.572-1.619-4.966 0.247-0.121 0.488-0.251 0.723-0.389 0.037 0.082 0.074 0.165 0.113 0.248 0.711 1.52 1.43 2.379 2.196 2.625 0.652 0.21 0.844 1.081 0.947 1.55 0.066 0.303 0.142 0.646 0.524 0.763 0.115 0.035 0.236 0.051 0.361 0.051 0.706 0 1.502-0.502 1.759-0.678 0.433-0.296 1.166-0.898 1.216-1.596 0.046-0.636-1.028-3.032-2.674-3.459zM17.535 24.097h-4.411c-2.46 0-4.699-0.96-6.363-2.526h17.137c-1.664 1.565-3.903 2.526-6.363 2.526zM15.767 27.805l-2.591-2.447h4.359c0.095 0 0.189-0.002 0.284-0.004zM4.7 9.084l16.038 1.516-17.482 2.526c0.212-1.469 0.714-2.838 1.444-4.042zM24.617 20.814h-18.576c-1.027-1.208-1.751-2.681-2.054-4.301h22.683c-0.303 1.62-1.027 3.093-2.054 4.301zM26.685 20.289c-0.045 0-0.089-0.002-0.133-0.005 0.644-1.055 1.108-2.231 1.349-3.485 0.452 0.359 0.742 0.912 0.742 1.532 0 1.080-0.878 1.958-1.958 1.958zM27.515 15.252h-24.371v-0.551c0-0.269 0.010-0.535 0.029-0.799l23.508-3.397c0.536 1.286 0.835 2.705 0.835 4.195v0.551zM13.155 4.2h4.348c3.829 0 7.163 2.267 8.846 5.588l-2.433 0.351-18.742-1.772c1.83-2.53 4.726-4.168 7.98-4.168zM3.974 20.289c-1.080 0-1.958-0.878-1.958-1.958 0-0.62 0.29-1.174 0.742-1.533 0.241 1.255 0.705 2.431 1.349 3.486-0.044 0.003-0.088 0.005-0.133 0.005zM10.49 29.35c0-1.525 0.709-2.886 1.815-3.773l2.975 2.809-0.973 1.163h-3.817zM20.168 29.35v0.199h-4.875l3.215-3.841c1.016 0.887 1.659 2.191 1.659 3.643zM27.987 27.473c-0.27 0.175-0.502 0.281-0.674 0.341-0.166-0.688-0.548-1.859-1.738-2.241-0.514-0.165-1.147-1.262-1.634-2.388 0.233-0.178 0.458-0.367 0.675-0.564 0.633 0.79 1.571 1.793 2.388 2.005 0.879 0.228 1.614 1.702 1.723 2.16-0.058 0.115-0.285 0.391-0.741 0.687z"></path>
<path d="M9.408 17.792c-0.612 0-1.108 0.496-1.108 1.108s0.496 1.108 1.108 1.108 1.108-0.496 1.108-1.108-0.496-1.108-1.108-1.108z"></path>
<path d="M22.359 18.9c0 0.612-0.496 1.108-1.108 1.108s-1.108-0.496-1.108-1.108c0-0.612 0.496-1.108 1.108-1.108s1.108 0.496 1.108 1.108z"></path>
<path d="M21.976 12.887c-0.209 0-0.378 0.169-0.378 0.378v0.714c0 0.209 0.169 0.378 0.378 0.378s0.378-0.169 0.378-0.378v-0.714c0-0.209-0.169-0.378-0.378-0.378z"></path>
<path d="M24.313 11.922c-0.209 0-0.378 0.169-0.378 0.378v0.714c0 0.209 0.169 0.378 0.378 0.378s0.378-0.169 0.378-0.378v-0.714c0-0.209-0.169-0.378-0.378-0.378z"></path>
</svg>
