<!-- Generated by IcoMoon.io -->
<svg version="1.1" xmlns="http://www.w3.org/2000/svg" width="32" height="32" viewBox="0 0 32 32">
<title>nurse</title>
<path d="M29.936 23.184l0.516 1.452c0.022 0.062 0.066 0.111 0.121 0.136l1.29 0.581c0.182 0.082 0.182 0.372 0 0.455l-1.29 0.581c-0.055 0.025-0.099 0.074-0.121 0.136l-0.516 1.452c-0.073 0.205-0.331 0.205-0.404 0l-0.516-1.452c-0.022-0.062-0.066-0.111-0.121-0.136l-1.29-0.581c-0.182-0.082-0.182-0.372 0-0.455l1.29-0.581c0.055-0.025 0.099-0.074 0.121-0.136l0.516-1.452c0.073-0.205 0.331-0.205 0.404 0z"></path>
<path d="M1.959 0.126l0.383 1.077c0.016 0.046 0.049 0.083 0.090 0.101l0.957 0.431c0.135 0.061 0.135 0.276 0 0.337l-0.957 0.431c-0.041 0.018-0.073 0.055-0.090 0.101l-0.383 1.077c-0.054 0.152-0.246 0.152-0.3 0l-0.383-1.077c-0.016-0.046-0.049-0.083-0.090-0.101l-0.957-0.431c-0.135-0.061-0.135-0.276 0-0.337l0.957-0.431c0.041-0.018 0.073-0.055 0.090-0.101l0.383-1.077c0.054-0.152 0.246-0.152 0.3 0z"></path>
<path d="M30.828 3.214c0.606 0.143 0.981 0.751 0.838 1.356s-0.751 0.981-1.356 0.838c-0.606-0.143-0.981-0.751-0.838-1.356s0.751-0.981 1.356-0.838z"></path>
<path d="M27.263 28.798c0 0.269-0.218 0.486-0.486 0.486s-0.486-0.218-0.486-0.486c0-0.269 0.218-0.486 0.486-0.486s0.486 0.218 0.486 0.486z"></path>
<path d="M29.947 16.598c0.158-0.463 0.255-0.959 0.29-1.488 0.001-0.016 0.002-0.033 0.002-0.049v-1.161c0-5.761-3.954-10.614-9.291-11.991-0.505-0.349-1.108-0.542-1.731-0.542h-6.546c-0.622 0-1.227 0.193-1.732 0.542-5.336 1.377-9.29 6.23-9.29 11.991v1.161c0 0.010 0 0.020 0.001 0.030 0.023 0.569 0.126 1.075 0.279 1.526-0.326 0.502-0.517 1.1-0.517 1.742 0 1.77 1.44 3.209 3.209 3.209 0.321 0 0.631-0.048 0.924-0.137 0.967 1.201 2.192 2.186 3.591 2.87-0.479 0.656-0.865 1.384-1.14 2.164l-1.473-1.473c-0.359-0.359-0.911-0.407-1.323-0.147l-0.594-0.594c-0.147-0.147-0.386-0.147-0.533 0l-0.473 0.473-2.529-2.529c-0.246-0.245-0.644-0.245-0.889 0s-0.245 0.643 0 0.889l2.529 2.529-0.473 0.473c-0.147 0.147-0.147 0.386 0 0.533l0.594 0.594c-0.26 0.412-0.211 0.964 0.147 1.323l3.207 3.207c0.123 0.123 0.284 0.184 0.444 0.184s0.322-0.061 0.444-0.184c0.245-0.245 0.245-0.643 0-0.889l-0.053-0.053 1.009-1.009c0.147-0.147 0.147-0.386 0-0.533s-0.386-0.147-0.533 0l-1.009 1.009-0.783-0.783 1.009-1.009c0.147-0.147 0.147-0.386 0-0.533s-0.386-0.147-0.533 0l-1.009 1.009-1.169-1.169 1.765-1.765 5.464 5.464c0.246 0.245 0.644 0.245 0.889 0s0.245-0.643 0-0.889l-1.005-1.005v-0.242c0-1.659 0.843-3.125 2.122-3.993 0.167 0.008 0.335 0.012 0.504 0.012h1.951v6.223c0 0.208 0.169 0.377 0.377 0.377s0.377-0.169 0.377-0.377v-6.223h1.693c0.169 0 0.337-0.005 0.504-0.012 1.279 0.868 2.122 2.334 2.122 3.993v2.252c0 0.208 0.169 0.377 0.377 0.377s0.377-0.169 0.377-0.377v-2.252c0-1.619-0.694-3.079-1.8-4.099 0.629-0.095 1.24-0.246 1.828-0.448 0.974 1.224 1.557 2.772 1.557 4.454v2.107c0 0.347 0.282 0.629 0.629 0.629s0.629-0.281 0.629-0.629v-2.107c0-1.849-0.599-3.561-1.614-4.952 1.398-0.684 2.623-1.669 3.59-2.87 0.293 0.088 0.603 0.137 0.924 0.137 1.77 0 3.209-1.44 3.209-3.209-0-0.65-0.195-1.255-0.529-1.761zM3.349 26.661l-0.308-0.308 1.301-1.301 0.308 0.308zM10.989 2.858c0.438-0.475 1.036-0.737 1.682-0.737h6.546c0.65 0 1.25 0.264 1.689 0.744s0.649 1.101 0.591 1.749l-0.202 2.268c-0.106 1.189-1.086 2.086-2.28 2.086h-6.161c-1.185 0-2.187-0.925-2.282-2.106l-0.182-2.268c-0.052-0.644 0.161-1.261 0.6-1.736zM3.129 13.899c0-4.463 2.695-8.307 6.542-9.993-0.041 0.245-0.054 0.496-0.033 0.748l0.182 2.268c0.126 1.57 1.459 2.8 3.034 2.8h6.161c1.587 0 2.89-1.192 3.031-2.773l0.202-2.268c0.023-0.26 0.012-0.52-0.031-0.774 3.847 1.686 6.542 5.53 6.542 9.992v1.136c-0.076 1.061-0.456 1.899-1.179 2.579l-1.956-6.549c-0.073-0.244-0.267-0.434-0.513-0.501-0.065-0.018-0.131-0.026-0.196-0.026-0.183 0-0.363 0.068-0.501 0.195l-1.838 1.692-2.89-2.175c-0.265-0.2-0.631-0.198-0.895 0.004l-2.858 2.19-2.729-2.006c-0.264-0.194-0.624-0.191-0.885 0.007l-2.623 1.99-2.358-1.654c-0.193-0.135-0.439-0.171-0.662-0.095s-0.397 0.254-0.468 0.479l-2.012 6.401c-0.564-0.615-1.020-1.396-1.069-2.52zM4.622 20.311c-1.076 0-1.952-0.876-1.952-1.952 0-0.099 0.009-0.197 0.023-0.292 0.484 0.655 1.029 1.106 1.39 1.404 0.085 0.070 0.183 0.119 0.286 0.146 0.12 0.235 0.249 0.465 0.386 0.69-0.044 0.003-0.088 0.005-0.133 0.005zM10.387 28.856l-1.382-1.382c0.254-0.99 0.714-1.897 1.333-2.674 0.587 0.202 1.198 0.352 1.827 0.447-0.993 0.916-1.653 2.187-1.777 3.609zM12.042 23.951c-1.88-0.351-3.562-1.271-4.86-2.574 0.018-0.049 0.037-0.097 0.060-0.144-0.002-0.001 0.278-0.504 0.465-0.578 0.054-0.021 0.133-0.037 0.267 0.037 0.414 0.228 0.502 0.457 0.595 0.7 0.083 0.217 0.197 0.515 0.552 0.651 0.386 0.148 0.713-0.121 1.029-0.381 0.524-0.43 0.764-0.542 1.069-0.315 0.303 0.226 0.26 0.472 0.097 0.941-0.085 0.246-0.166 0.478-0.058 0.707 0.148 0.312 0.492 0.347 0.768 0.375 0.134 0.014 0.375 0.038 0.432 0.1 0.007 0.081-0.019 0.293-0.415 0.482zM18.143 24.108h-4.398c-0.219 0-0.437-0.008-0.653-0.023 0.203-0.332 0.198-0.672 0.134-0.872-0.003-0.009-0.006-0.018-0.009-0.027-0.21-0.53-0.774-0.587-1.111-0.621-0.010-0.001-0.021-0.002-0.032-0.003 0.001-0.003 0.002-0.007 0.004-0.010 0.141-0.405 0.434-1.248-0.377-1.853-0.866-0.646-1.645-0.006-2.064 0.338-0.077 0.064-0.183 0.151-0.259 0.202-0.019-0.040-0.040-0.095-0.056-0.137-0.114-0.298-0.287-0.748-0.96-1.119-0.402-0.221-0.742-0.165-0.957-0.079-0.38 0.152-0.647 0.508-0.817 0.817-0.484-0.588-0.896-1.236-1.225-1.931l1.955-6.219 1.973 1.383c0.263 0.185 0.616 0.178 0.872-0.016l2.613-1.982 2.731 2.008c0.265 0.195 0.627 0.191 0.888-0.009l2.852-2.186 2.933 2.208c0.285 0.215 0.683 0.195 0.946-0.047l1.42-1.307 1.895 6.344c-1.52 3.045-4.668 5.142-8.297 5.142zM27.266 20.311c-0.044 0-0.088-0.003-0.132-0.006 0.169-0.278 0.326-0.564 0.47-0.858 0.645-0.405 1.174-0.88 1.585-1.422 0.019 0.108 0.029 0.22 0.029 0.334 0 1.076-0.876 1.952-1.952 1.952z"></path>
<path d="M11.107 15.321c-0.049-0.025-0.498-0.246-1.066-0.246s-1.017 0.221-1.066 0.246c-0.185 0.094-0.258 0.32-0.164 0.505s0.32 0.26 0.506 0.167c0.003-0.002 0.334-0.164 0.725-0.164s0.722 0.162 0.723 0.163c0.055 0.028 0.114 0.041 0.171 0.041 0.137-0 0.27-0.075 0.336-0.206 0.095-0.186 0.021-0.413-0.164-0.508z"></path>
<path d="M22.915 15.321c-0.049-0.025-0.498-0.246-1.067-0.246s-1.017 0.221-1.067 0.246c-0.185 0.094-0.258 0.32-0.164 0.505s0.32 0.26 0.506 0.167c0.003-0.002 0.334-0.164 0.725-0.164s0.722 0.162 0.724 0.163c0.055 0.028 0.113 0.041 0.171 0.041 0.137-0 0.27-0.075 0.336-0.206 0.095-0.186 0.021-0.413-0.165-0.508z"></path>
<path d="M17.049 18.55c-0.208 0-0.377 0.169-0.377 0.377 0 0.401-0.326 0.728-0.728 0.728s-0.728-0.326-0.728-0.728c0-0.208-0.169-0.377-0.377-0.377s-0.377 0.169-0.377 0.377c0 0.817 0.665 1.482 1.482 1.482s1.482-0.665 1.482-1.482c0-0.208-0.169-0.377-0.377-0.377z"></path>
<path d="M14.435 6.958h0.118v0.118c0 0.646 0.525 1.171 1.171 1.171h0.44c0.646 0 1.171-0.525 1.171-1.171v-0.118h0.118c0.646 0 1.171-0.525 1.171-1.171v-0.44c0-0.646-0.526-1.171-1.171-1.171h-0.118v-0.118c0-0.646-0.526-1.171-1.171-1.171h-0.44c-0.646 0-1.171 0.525-1.171 1.171v0.118h-0.118c-0.646 0-1.171 0.525-1.171 1.171v0.44c0 0.646 0.525 1.171 1.171 1.171zM13.97 5.347c0-0.256 0.208-0.464 0.464-0.464h0.472c0.195 0 0.353-0.158 0.353-0.353v-0.472c0-0.256 0.208-0.464 0.464-0.464h0.44c0.256 0 0.464 0.208 0.464 0.464v0.472c0 0.195 0.158 0.353 0.354 0.353h0.472c0.256 0 0.464 0.208 0.464 0.464v0.44c0 0.256-0.208 0.464-0.464 0.464h-0.472c-0.195 0-0.354 0.158-0.354 0.353v0.472c0 0.256-0.208 0.464-0.464 0.464h-0.44c-0.256 0-0.464-0.208-0.464-0.464v-0.472c0-0.195-0.158-0.353-0.353-0.353h-0.472c-0.256 0-0.464-0.208-0.464-0.464z"></path>
<path d="M19.573 27.595h-1.991c-0.404 0-0.732 0.328-0.732 0.732v0.866c0 0.404 0.328 0.732 0.732 0.732h1.991c0.404 0 0.732-0.328 0.732-0.732v-0.866c0-0.404-0.328-0.732-0.732-0.732zM19.679 29.193c0 0.058-0.048 0.106-0.106 0.106h-1.991c-0.058 0-0.106-0.048-0.106-0.106v-0.866c0-0.058 0.048-0.106 0.106-0.106h1.991c0.058 0 0.106 0.048 0.106 0.106z"></path>
<path d="M5.477 10.704c-0.085 0-0.171-0.017-0.253-0.054-0.318-0.14-0.462-0.511-0.322-0.829 0.193-0.439 0.42-0.866 0.672-1.27 0.184-0.294 0.572-0.384 0.866-0.199s0.384 0.572 0.199 0.866c-0.221 0.353-0.418 0.726-0.588 1.11-0.104 0.235-0.334 0.375-0.576 0.375z"></path>
<path d="M7.345 7.951c-0.16 0-0.321-0.061-0.443-0.183-0.246-0.245-0.247-0.643-0.003-0.889 0.081-0.082 0.165-0.163 0.249-0.242 0.254-0.237 0.652-0.223 0.888 0.031s0.223 0.652-0.031 0.888c-0.073 0.068-0.145 0.138-0.215 0.208-0.123 0.124-0.284 0.185-0.446 0.185z"></path>
<path d="M11.145 18.927c0 0.61-0.495 1.105-1.105 1.105s-1.105-0.495-1.105-1.105c0-0.61 0.495-1.105 1.105-1.105s1.105 0.495 1.105 1.105z"></path>
<path d="M22.953 18.927c0 0.61-0.495 1.105-1.105 1.105s-1.105-0.495-1.105-1.105c0-0.61 0.495-1.105 1.105-1.105s1.105 0.495 1.105 1.105z"></path>
</svg>
