<!-- Generated by IcoMoon.io -->
<svg version="1.1" xmlns="http://www.w3.org/2000/svg" width="32" height="32" viewBox="0 0 32 32">
<title>police</title>
<path d="M2.532 23.82l0.515 1.448c0.022 0.062 0.066 0.111 0.121 0.136l1.287 0.58c0.182 0.082 0.182 0.372 0 0.453l-1.287 0.58c-0.055 0.025-0.099 0.074-0.121 0.136l-0.515 1.448c-0.073 0.205-0.33 0.205-0.403 0l-0.515-1.448c-0.022-0.062-0.066-0.111-0.121-0.136l-1.287-0.58c-0.182-0.082-0.182-0.372 0-0.453l1.287-0.58c0.055-0.025 0.099-0.074 0.121-0.136l0.515-1.448c0.073-0.205 0.33-0.205 0.403 0z"></path>
<path d="M30.402 22.242l0.382 1.074c0.016 0.046 0.049 0.082 0.090 0.101l0.954 0.43c0.135 0.061 0.135 0.276 0 0.336l-0.954 0.43c-0.041 0.018-0.073 0.055-0.090 0.101l-0.382 1.074c-0.054 0.152-0.245 0.152-0.299 0l-0.382-1.074c-0.016-0.046-0.049-0.082-0.090-0.101l-0.954-0.43c-0.135-0.061-0.135-0.276 0-0.336l0.954-0.43c0.041-0.018 0.073-0.055 0.090-0.101l0.382-1.074c0.054-0.152 0.245-0.152 0.299 0z"></path>
<path d="M28.556 28.035c0 0.268-0.217 0.485-0.485 0.485s-0.485-0.217-0.485-0.485c0-0.268 0.217-0.485 0.485-0.485s0.485 0.217 0.485 0.485z"></path>
<path d="M28.75 15.485c0.012-0.206 0.019-0.414 0.019-0.623 0-1.7-0.408-3.305-1.128-4.727 0.056-0.148 0.086-0.308 0.086-0.476v-1.813c0-0.278-0.084-0.537-0.228-0.752l0.274-1.859c0.271-1.845-1.002-3.578-2.841-3.873-0.434-0.091-6.564-1.364-8.855-1.364s-8.594 1.276-9.031 1.365c-0.901 0.141-1.693 0.624-2.231 1.362-0.541 0.742-0.759 1.65-0.614 2.557l0.292 1.821c-0.141 0.214-0.223 0.47-0.223 0.744v1.813c0 0.231 0.058 0.449 0.16 0.64-0.669 1.381-1.046 2.928-1.046 4.563 0 0.209 0.007 0.416 0.019 0.622-1.076 0.516-1.822 1.616-1.822 2.887 0 1.765 1.436 3.201 3.201 3.201 0.32 0 0.629-0.048 0.921-0.137 0.965 1.198 2.187 2.18 3.582 2.863-0.168 0.23-0.324 0.47-0.468 0.717-0.497-0.048-0.968 0.273-1.091 0.772l-0.656 2.658c-0.123 0.498 0.144 1.001 0.605 1.19v1.704c0 0.346 0.281 0.627 0.627 0.627s0.627-0.281 0.627-0.627v-1.612c0.034-0.016 0.068-0.033 0.101-0.053 0.234-0.141 0.399-0.365 0.464-0.63l0.656-2.658c0.065-0.265 0.024-0.54-0.118-0.774-0.018-0.030-0.038-0.059-0.059-0.087 0.155-0.254 0.326-0.497 0.51-0.729 0.573 0.197 1.168 0.345 1.781 0.44-0 0.015-0 0.030-0 0.045-1.079 1.016-1.753 2.456-1.753 4.050v2.247c0 0.208 0.168 0.376 0.376 0.376s0.376-0.168 0.376-0.376v-2.247c0-1.184 0.43-2.269 1.142-3.108l1.4 1.731c0.071 0.088 0.179 0.14 0.293 0.14h0.002c0.114-0 0.222-0.053 0.293-0.142l0.144-0.181c0.092 0.17 0.222 0.317 0.379 0.429l-0.421 1.39c-0.006 0.021-0.011 0.043-0.014 0.064-0.070 0.583 0.015 1.177 0.247 1.717l0.172 0.401c0.082 0.191 0.303 0.279 0.494 0.197s0.279-0.303 0.197-0.494l-0.172-0.401c-0.175-0.409-0.242-0.857-0.195-1.298l0.407-1.343c0.005 0 0.009 0.001 0.014 0.001h0.839l0.437 1.412c0.044 0.401-0.006 0.812-0.147 1.19l-0.171 0.457c-0.073 0.195 0.026 0.411 0.221 0.484 0.043 0.016 0.088 0.024 0.131 0.024 0.153-0 0.296-0.093 0.353-0.245l0.171-0.457c0.187-0.501 0.251-1.046 0.185-1.577-0.003-0.022-0.007-0.044-0.014-0.065l-0.444-1.434c0.165-0.11 0.303-0.259 0.401-0.432l0.126 0.161c0.070 0.090 0.177 0.143 0.291 0.144h0.005c0.112 0 0.219-0.050 0.29-0.137l1.43-1.732c0.711 0.839 1.14 1.923 1.14 3.107v2.247c0 0.208 0.168 0.376 0.376 0.376s0.376-0.168 0.376-0.376v-2.247c0-1.597-0.677-3.039-1.758-4.055v-0.040c0.614-0.095 1.211-0.244 1.785-0.441 0.184 0.232 0.356 0.475 0.511 0.729-0.021 0.028-0.041 0.057-0.060 0.088-0.141 0.234-0.183 0.509-0.118 0.774l0.656 2.658c0.065 0.265 0.23 0.489 0.464 0.631 0.033 0.020 0.067 0.037 0.101 0.053v1.612c0 0.346 0.281 0.627 0.627 0.627s0.627-0.281 0.627-0.627v-1.704c0.461-0.189 0.728-0.692 0.605-1.19l-0.656-2.658c-0.123-0.499-0.595-0.82-1.092-0.772-0.144-0.247-0.301-0.486-0.469-0.717 1.395-0.682 2.617-1.665 3.582-2.863 0.292 0.088 0.601 0.136 0.922 0.136 1.765 0 3.201-1.436 3.201-3.201 0-1.271-0.745-2.371-1.822-2.887zM9.421 26.206l-0.656 2.658c-0.017 0.070-0.061 0.129-0.123 0.167s-0.134 0.048-0.205 0.031c0 0 0 0-0 0l-0.438-0.108c-0.145-0.036-0.234-0.183-0.198-0.328l0.656-2.658c0.030-0.123 0.141-0.206 0.263-0.206 0.021 0 0.043 0.003 0.065 0.008l0.438 0.108c0.070 0.017 0.129 0.061 0.167 0.123s0.048 0.135 0.031 0.205zM23.696 25.969l0.656 2.658c0.036 0.145-0.053 0.292-0.198 0.328l-0.438 0.108s0 0-0 0c-0.070 0.017-0.143 0.006-0.205-0.031s-0.105-0.097-0.123-0.167l-0.656-2.658c-0.017-0.070-0.006-0.143 0.031-0.205s0.097-0.105 0.167-0.123l0.438-0.108c0.022-0.005 0.043-0.008 0.065-0.008 0.122-0 0.232 0.083 0.263 0.206zM26.375 19.305l-0.658 0.014c-0.115-1.187-0.276-4.191-0.347-6.029 0.747-0.423 1.302-0.9 1.649-1.415 0.321 0.938 0.496 1.942 0.496 2.987 0 1.609-0.414 3.123-1.14 4.443zM5.875 19.29c-0.029 0.011-0.057 0.022-0.086 0.034-0.732-1.323-1.15-2.844-1.15-4.461 0-1.045 0.175-2.050 0.496-2.987 0.373 0.554 0.99 1.065 1.827 1.512-0.044 1.847-0.155 4.756-0.25 5.92l-0.829-0.005c-0.003-0.005-0.005-0.009-0.008-0.014zM13.727 7.743c0.059 0.078 0.127 0.151 0.204 0.216l1.235 1.058c0.264 0.226 0.588 0.339 0.911 0.339s0.647-0.113 0.911-0.339l1.235-1.058c0.076-0.065 0.144-0.138 0.203-0.216h7.942c0.058 0 0.105 0.047 0.105 0.105v1.813c0 0.058-0.047 0.105-0.105 0.105h-20.74c-0.058 0-0.105-0.047-0.105-0.105v-1.813c0-0.058 0.047-0.105 0.105-0.105zM17.959 6.896c0 0.189-0.082 0.369-0.226 0.492l-1.235 1.058c-0.244 0.209-0.599 0.209-0.843 0l-1.235-1.058c-0.144-0.123-0.226-0.303-0.226-0.492v-2.7c0-0.357 0.291-0.648 0.648-0.648h2.469c0.357 0 0.648 0.291 0.648 0.648v2.7zM6.079 11.019h19.995c-0.309 0.624-1.241 1.262-2.622 1.772-1.96 0.724-4.579 1.123-7.375 1.123s-5.415-0.399-7.375-1.123c-1.381-0.51-2.313-1.148-2.622-1.772zM5.828 3.466c0.343-0.47 0.848-0.776 1.423-0.864 0.011-0.002 0.021-0.003 0.031-0.006 0.066-0.013 6.597-1.342 8.795-1.342 2.195 0 8.549 1.327 8.613 1.34 0.011 0.002 0.022 0.004 0.033 0.006 1.17 0.181 1.982 1.282 1.81 2.454l-0.211 1.435h-7.609v-2.293c0-0.772-0.628-1.4-1.4-1.4h-2.469c-0.772 0-1.4 0.628-1.4 1.4v2.293h-7.777l-0.225-1.405c-0.092-0.574 0.046-1.149 0.389-1.619zM4.783 20.32c-1.074 0-1.947-0.874-1.947-1.947 0-0.617 0.289-1.167 0.738-1.524 0.24 1.247 0.701 2.417 1.341 3.466-0.043 0.003-0.087 0.005-0.131 0.005zM14.096 27.116l-1.080-1.336c0-0.044 0-0.098 0.001-0.159 0.117-0.097 0.239-0.187 0.364-0.273 0.167 0.008 0.334 0.012 0.503 0.012h1.607zM17.018 27.171c0 0.281-0.229 0.51-0.51 0.51h-0.863c-0.281 0-0.51-0.229-0.51-0.51v-0.154l0.939-1.183 0.943 1.204zM18.036 27.118l-1.377-1.757h1.61c0.169 0 0.336-0.004 0.503-0.012 0.124 0.084 0.243 0.173 0.358 0.268v0.175zM18.27 24.107h-4.387c-2.949 0-5.58-1.388-7.274-3.545l0.653 0.004c0.275 0 0.519-0.18 0.6-0.444 0.147-0.482 0.276-3.991 0.336-6.181 0.023 0.009 0.045 0.018 0.069 0.026 2.096 0.774 4.869 1.201 7.81 1.201s5.714-0.427 7.81-1.201c0.087-0.032 0.172-0.065 0.255-0.098 0.093 2.18 0.281 5.794 0.438 6.282 0.084 0.259 0.325 0.434 0.596 0.434 0.005 0 0.009-0 0.014-0l0.341-0.007c-1.694 2.148-4.319 3.529-7.261 3.529zM27.37 20.32c-0.044 0-0.088-0.002-0.131-0.005 0.64-1.049 1.101-2.219 1.34-3.467 0.449 0.357 0.738 0.907 0.738 1.524 0 1.074-0.873 1.947-1.947 1.947z"></path>
<path d="M11.251 15.342c-0.049-0.025-0.497-0.245-1.064-0.245s-1.015 0.22-1.064 0.245c-0.184 0.094-0.257 0.319-0.164 0.504s0.319 0.259 0.505 0.167c0.003-0.002 0.333-0.164 0.723-0.164s0.72 0.162 0.722 0.163c0.055 0.028 0.113 0.041 0.171 0.041 0.137 0 0.269-0.075 0.335-0.205 0.095-0.185 0.021-0.412-0.164-0.506z"></path>
<path d="M23.030 15.342c-0.049-0.025-0.497-0.245-1.064-0.245s-1.015 0.22-1.064 0.245c-0.184 0.094-0.257 0.319-0.164 0.504s0.319 0.259 0.505 0.167c0.003-0.002 0.333-0.164 0.723-0.164s0.72 0.162 0.722 0.163c0.055 0.028 0.113 0.041 0.171 0.041 0.137 0 0.269-0.075 0.335-0.205 0.094-0.185 0.021-0.412-0.164-0.506z"></path>
<path d="M17.179 18.563c-0.208 0-0.376 0.168-0.376 0.376 0 0.4-0.326 0.726-0.726 0.726s-0.726-0.326-0.726-0.726c0-0.208-0.168-0.376-0.376-0.376s-0.376 0.168-0.376 0.376c0 0.815 0.663 1.478 1.478 1.478s1.478-0.663 1.478-1.478c0-0.208-0.168-0.376-0.376-0.376z"></path>
<path d="M24.172 5.813c0.208 0 0.376-0.168 0.376-0.376v-0.71c0-0.208-0.168-0.376-0.376-0.376s-0.376 0.168-0.376 0.376v0.71c-0 0.208 0.168 0.376 0.376 0.376z"></path>
<path d="M22.321 4.632c0.208 0 0.376-0.168 0.376-0.376v-0.71c0-0.208-0.168-0.376-0.376-0.376s-0.376 0.168-0.376 0.376v0.71c0 0.208 0.168 0.376 0.376 0.376z"></path>
<path d="M11.29 18.939c0 0.609-0.493 1.102-1.102 1.102s-1.102-0.493-1.102-1.102c0-0.609 0.493-1.102 1.102-1.102s1.102 0.493 1.102 1.102z"></path>
<path d="M23.068 18.939c0 0.609-0.493 1.102-1.102 1.102s-1.102-0.493-1.102-1.102c0-0.609 0.493-1.102 1.102-1.102s1.102 0.493 1.102 1.102z"></path>
<path d="M9.636 4.287c-0.288 0-0.548-0.2-0.612-0.494-0.074-0.338 0.141-0.672 0.479-0.746 0.431-0.094 0.861-0.152 1.278-0.208 0.177-0.024 0.359-0.048 0.536-0.075 0.343-0.052 0.662 0.184 0.713 0.527s-0.184 0.662-0.527 0.713c-0.186 0.028-0.374 0.053-0.555 0.078-0.41 0.055-0.797 0.107-1.178 0.19-0.045 0.010-0.090 0.014-0.134 0.014z"></path>
<path d="M7.821 5.104c-0.179 0-0.356-0.076-0.48-0.224-0.223-0.265-0.189-0.661 0.077-0.883 0.072-0.061 0.149-0.121 0.228-0.177 0.281-0.202 0.673-0.138 0.875 0.143s0.138 0.673-0.143 0.875c-0.054 0.039-0.105 0.079-0.154 0.12-0.117 0.099-0.261 0.147-0.403 0.147z"></path>
</svg>
