<!-- Generated by IcoMoon.io -->
<svg version="1.1" xmlns="http://www.w3.org/2000/svg" width="32" height="32" viewBox="0 0 32 32">
<title>princess</title>
<path d="M28.662 23.601l0.515 1.447c0.022 0.062 0.066 0.111 0.121 0.136l1.286 0.579c0.182 0.082 0.182 0.371 0 0.453l-1.286 0.579c-0.055 0.025-0.099 0.074-0.121 0.136l-0.515 1.447c-0.073 0.204-0.33 0.204-0.403 0l-0.515-1.447c-0.022-0.062-0.066-0.111-0.121-0.136l-1.286-0.579c-0.182-0.082-0.182-0.371 0-0.453l1.286-0.579c0.055-0.025 0.099-0.074 0.121-0.136l0.515-1.447c0.073-0.204 0.33-0.204 0.403 0z"></path>
<path d="M5.522 0.307l0.382 1.074c0.016 0.046 0.049 0.082 0.090 0.101l0.954 0.43c0.135 0.061 0.135 0.275 0 0.336l-0.954 0.43c-0.041 0.018-0.073 0.055-0.090 0.101l-0.382 1.074c-0.054 0.152-0.245 0.152-0.299 0l-0.382-1.074c-0.016-0.046-0.049-0.082-0.090-0.101l-0.954-0.43c-0.135-0.061-0.135-0.275 0-0.336l0.954-0.43c0.041-0.018 0.073-0.055 0.090-0.101l0.382-1.074c0.054-0.152 0.245-0.152 0.299 0z"></path>
<path d="M2.251 5.752c0 0.268-0.217 0.485-0.485 0.485s-0.485-0.217-0.485-0.485c0-0.268 0.217-0.485 0.485-0.485s0.485 0.217 0.485 0.485z"></path>
<path d="M30.017 16.652c0.344-0.783 0.332-1.797 0.329-1.92-0.066-3.099-1.323-6.001-3.539-8.173-1.287-1.262-2.815-2.194-4.477-2.755-0.128-1.195-0.945-2.238-2.309-2.944-1.299-0.672-2.965-0.966-4.691-0.827s-3.323 0.696-4.498 1.567c-0.954 0.708-1.551 1.562-1.744 2.467-1.389 0.571-2.667 1.41-3.77 2.491-2.216 2.172-3.473 5.075-3.539 8.173-0 0.008-0 0.015-0 0.023 0.002 0.139 0.026 1.319 0.23 2.058-0.274 0.471-0.431 1.018-0.431 1.601 0 1.764 1.435 3.199 3.199 3.199 0.32 0 0.629-0.048 0.92-0.136 0.964 1.197 2.186 2.179 3.58 2.86-1.011 1.386-1.609 3.092-1.609 4.936v2.1c0 0.346 0.281 0.627 0.627 0.627s0.627-0.281 0.627-0.627v-2.1c0-0.208 0.009-0.415 0.027-0.619h1.599c-0.030 0.233-0.046 0.47-0.046 0.711v2.245c0 0.208 0.168 0.376 0.376 0.376s0.376-0.168 0.376-0.376v-1.914c0.015-0.007 0.030-0.015 0.044-0.024 0.491-0.324 1.36-0.659 1.962-0.659 0.652 0 1.274 0.204 1.797 0.59 0.305 0.225 0.662 0.337 1.019 0.337s0.714-0.112 1.019-0.337c0.523-0.386 1.145-0.59 1.797-0.59 0.623 0 1.438 0.309 1.888 0.601 0.029 0.019 0.060 0.033 0.092 0.043v1.954c0 0.208 0.168 0.376 0.376 0.376s0.376-0.168 0.376-0.376v-2.245c0-0.241-0.016-0.478-0.046-0.711h1.599c0.018 0.204 0.027 0.41 0.027 0.619v2.1c0 0.346 0.281 0.627 0.627 0.627s0.627-0.281 0.627-0.627v-2.1c0-1.843-0.598-3.549-1.609-4.935 1.394-0.682 2.615-1.663 3.579-2.86 0.292 0.088 0.601 0.136 0.921 0.136 1.764 0 3.199-1.435 3.199-3.199 0-0.651-0.196-1.256-0.531-1.762zM9.822 6.028c0.090-0.062 0.149-0.16 0.161-0.269 0.074-0.681 0.647-1.194 1.333-1.194 0.296 0 0.576 0.095 0.811 0.273 0.104 0.079 0.241 0.098 0.362 0.052l1.132-0.434c0.133-0.051 0.225-0.172 0.24-0.313 0.113-1.115 1.044-1.956 2.167-1.956s2.054 0.841 2.167 1.956c0.014 0.141 0.107 0.263 0.24 0.313l1.132 0.434c0.121 0.046 0.258 0.027 0.362-0.052 0.235-0.179 0.515-0.273 0.811-0.273 0.697 0 1.285 0.544 1.337 1.239 0.008 0.109 0.063 0.208 0.151 0.273 0.914 0.679 1.512 1.706 1.665 2.822-2.664-1.046-5.343-1.573-7.978-1.563-2.593 0.008-5.205 0.535-7.773 1.567 0.104-1.155 0.716-2.211 1.681-2.875zM11.579 2.608c0.989-0.734 2.357-1.204 3.852-1.325 0.242-0.019 0.481-0.029 0.716-0.029 2.302 0 4.269 0.902 4.803 2.177-0.729-0.15-1.477-0.232-2.237-0.243-0.454-1.042-1.489-1.753-2.685-1.753s-2.232 0.711-2.686 1.754c-0.917 0.018-1.817 0.141-2.687 0.362 0.219-0.331 0.529-0.65 0.924-0.943zM9.295 5.362c-0.012 0.047-0.024 0.094-0.033 0.143-1.185 0.878-1.888 2.267-1.888 3.748-0.059 0.331 0.146 0.714 0.525 0.565 5.331-2.295 10.802-2.295 16.263 0.001 0.116 0.049 0.249 0.036 0.354-0.033s0.168-0.187 0.168-0.313v-0.008c0-1.51-0.698-2.953-1.876-3.891-0.014-0.084-0.033-0.167-0.056-0.248 3.649 1.608 6.254 5.23 6.344 9.433 0.004 0.2-0.012 0.497-0.060 0.788l-0.598-0.465c-0.164-0.127-0.38-0.165-0.577-0.102-2.491 0.802-5.583 0.053-8.071-1.956-1.45-1.171-2.535-2.637-3.139-4.24-0.092-0.244-0.326-0.406-0.586-0.406s-0.495 0.162-0.586 0.406c-0.604 1.603-1.689 3.069-3.139 4.24-2.489 2.010-5.583 2.759-8.074 1.955-0.201-0.065-0.422-0.024-0.587 0.109l-0.599 0.485c-0.029-0.335-0.042-0.654-0.045-0.826 0.094-4.166 2.659-7.761 6.262-9.385zM4.777 20.36c-1.073 0-1.946-0.873-1.946-1.946 0-0.616 0.288-1.167 0.737-1.523 0.24 1.247 0.7 2.416 1.34 3.464-0.044 0.003-0.087 0.005-0.132 0.005zM9.054 27.903c0.223-1.143 0.72-2.19 1.419-3.069 0.586 0.201 1.195 0.351 1.822 0.446-0.756 0.698-1.319 1.602-1.598 2.623h-1.644zM18.255 25.398c0.168 0 0.336-0.004 0.502-0.012 0.415 0.282 0.785 0.627 1.094 1.021-0.311-0.081-0.633-0.123-0.959-0.123-1.074 0-2.099 0.458-2.816 1.257-0.718-0.799-1.742-1.257-2.816-1.257-0.338 0-0.671 0.045-0.992 0.132 0.31-0.398 0.682-0.746 1.101-1.030 0.166 0.008 0.334 0.012 0.502 0.012zM18.892 28.262c-0.814 0-1.59 0.255-2.244 0.737-0.343 0.253-0.803 0.253-1.146-0-0.654-0.482-1.429-0.737-2.244-0.737-0.623 0-1.389 0.252-1.974 0.551 0.052-0.455 0.168-0.891 0.339-1.298 0.488-0.313 1.052-0.479 1.635-0.479 0.869 0 1.698 0.374 2.274 1.027 0.137 0.156 0.335 0.245 0.542 0.245s0.405-0.089 0.542-0.245c0.576-0.653 1.405-1.027 2.274-1.027 0.568 0 1.12 0.158 1.599 0.456 0.172 0.405 0.291 0.838 0.346 1.291-0.545-0.277-1.289-0.521-1.945-0.521zM23.072 27.903h-1.644c-0.279-1.021-0.842-1.925-1.598-2.623 0.627-0.095 1.236-0.245 1.822-0.446 0.7 0.879 1.197 1.926 1.42 3.069zM18.255 24.145h-4.384c-4.587 0-8.402-3.36-9.117-7.748 0.517 0.101 1.049 0.151 1.589 0.151 0.954-0 1.933-0.155 2.899-0.455 0.888-0.219 0.878-0.313 1.827 0.004 0.137 0 0.269-0.075 0.335-0.205 0.094-0.185 0.021-0.411-0.164-0.506-0.014-0.007-0.063-0.031-0.137-0.061 0.7-0.364 1.38-0.807 2.021-1.325 1.231-0.995 2.23-2.184 2.938-3.491 0.708 1.307 1.707 2.497 2.938 3.491 0.641 0.518 1.32 0.961 2.021 1.325-0.074 0.030-0.122 0.053-0.137 0.061-0.184 0.094-0.257 0.319-0.164 0.504 0.311 0.564 0.963-0.348 1.948 0.166 1.555 0.435 3.136 0.664 4.703 0.341-0.715 4.388-4.53 7.748-9.117 7.748zM27.349 20.36c-0.044 0-0.088-0.002-0.132-0.005 0.64-1.049 1.101-2.218 1.34-3.465 0.449 0.357 0.738 0.907 0.738 1.524 0 1.073-0.873 1.946-1.946 1.946z"></path>
<path d="M17.164 18.604c-0.208 0-0.376 0.168-0.376 0.376 0 0.4-0.325 0.725-0.725 0.725s-0.725-0.325-0.725-0.725c0-0.208-0.168-0.376-0.376-0.376s-0.376 0.168-0.376 0.376c0 0.814 0.663 1.477 1.477 1.477s1.477-0.663 1.477-1.477c-0-0.208-0.168-0.376-0.376-0.376z"></path>
<path d="M16.028 7.156c1.069 0 1.939-1.062 1.939-2.368s-0.87-2.368-1.939-2.368c-1.069 0-1.939 1.062-1.939 2.368s0.87 2.367 1.939 2.367zM16.028 3.173c0.654 0 1.187 0.725 1.187 1.616s-0.532 1.616-1.187 1.616c-0.654 0-1.187-0.725-1.187-1.616s0.532-1.616 1.187-1.616z"></path>
<path d="M11.556 7.675c0.12 0 0.241-0.019 0.359-0.060 0.654-0.227 0.971-1.031 0.707-1.792s-1.011-1.195-1.665-0.968c-0.654 0.227-0.971 1.031-0.707 1.792 0.217 0.624 0.758 1.028 1.307 1.028zM11.203 5.565c0.038-0.013 0.077-0.019 0.116-0.019 0.232 0 0.484 0.214 0.592 0.524 0.126 0.363 0.015 0.745-0.243 0.835s-0.582-0.141-0.708-0.504c-0.126-0.363-0.015-0.745 0.243-0.835z"></path>
<path d="M20.145 7.603c0.118 0.041 0.238 0.060 0.359 0.060 0.549 0 1.090-0.404 1.307-1.028 0.264-0.761-0.053-1.565-0.707-1.792s-1.401 0.207-1.665 0.968c-0.264 0.761 0.053 1.565 0.707 1.792zM20.148 6.058c0.108-0.31 0.36-0.524 0.592-0.524 0.040 0 0.079 0.006 0.116 0.019 0.258 0.090 0.37 0.472 0.244 0.835s-0.451 0.594-0.708 0.504c-0.258-0.090-0.369-0.472-0.243-0.835z"></path>
<path d="M26.43 14.012c0.208 0 0.376-0.168 0.376-0.376v-0.71c0-0.208-0.168-0.376-0.376-0.376s-0.376 0.168-0.376 0.376v0.71c0 0.208 0.168 0.376 0.376 0.376z"></path>
<path d="M24.087 13.226c0.208 0 0.376-0.168 0.376-0.376v-0.71c0-0.208-0.168-0.376-0.376-0.376s-0.376 0.168-0.376 0.376v0.71c0 0.208 0.168 0.376 0.376 0.376z"></path>
<path d="M10.178 17.879c-0.608 0-1.101 0.493-1.101 1.101s0.493 1.101 1.101 1.101c0.608 0 1.101-0.493 1.101-1.101s-0.493-1.101-1.101-1.101z"></path>
<path d="M21.948 17.879c-0.608 0-1.101 0.493-1.101 1.101s0.493 1.101 1.101 1.101 1.101-0.493 1.101-1.101-0.493-1.101-1.101-1.101z"></path>
<path d="M7.552 14.419c-0.296 0-0.559-0.21-0.615-0.512-0.064-0.34 0.161-0.668 0.501-0.731 0.2-0.037 0.401-0.083 0.597-0.136 0.334-0.090 0.678 0.107 0.768 0.441s-0.107 0.678-0.441 0.768c-0.228 0.062-0.462 0.115-0.694 0.158-0.039 0.007-0.078 0.011-0.116 0.011z"></path>
<path d="M10.115 13.477c-0.216 0-0.426-0.112-0.542-0.312-0.174-0.299-0.072-0.683 0.227-0.857 0.687-0.399 1.279-0.898 1.761-1.482 0.22-0.267 0.615-0.305 0.882-0.085s0.305 0.615 0.085 0.882c-0.576 0.7-1.282 1.295-2.098 1.769-0.099 0.057-0.207 0.085-0.314 0.085z"></path>
</svg>
