<!-- Generated by IcoMoon.io -->
<svg version="1.1" xmlns="http://www.w3.org/2000/svg" width="32" height="32" viewBox="0 0 32 32">
<title>pumpkin</title>
<path d="M2.631 1.801l0.517 1.455c0.022 0.062 0.066 0.112 0.121 0.137l1.293 0.582c0.183 0.082 0.183 0.373 0 0.456l-1.293 0.582c-0.055 0.025-0.099 0.074-0.121 0.137l-0.517 1.455c-0.073 0.206-0.332 0.206-0.405 0l-0.517-1.455c-0.022-0.062-0.066-0.112-0.121-0.137l-1.293-0.582c-0.183-0.082-0.183-0.373 0-0.456l1.293-0.582c0.055-0.025 0.099-0.074 0.121-0.137l0.517-1.455c0.073-0.206 0.332-0.206 0.405 0z"></path>
<path d="M26.182 0.114l0.384 1.079c0.016 0.046 0.049 0.083 0.090 0.101l0.959 0.432c0.136 0.061 0.136 0.277 0 0.338l-0.959 0.432c-0.041 0.019-0.074 0.055-0.090 0.101l-0.384 1.079c-0.054 0.152-0.246 0.152-0.3 0l-0.384-1.079c-0.016-0.046-0.049-0.083-0.090-0.101l-0.959-0.432c-0.136-0.061-0.136-0.277 0-0.338l0.959-0.432c0.041-0.019 0.074-0.055 0.090-0.101l0.384-1.079c0.054-0.152 0.246-0.152 0.3 0z"></path>
<path d="M30.978 6.186c0.607 0.144 0.983 0.752 0.84 1.359s-0.752 0.983-1.359 0.84c-0.607-0.144-0.983-0.752-0.84-1.359s0.752-0.983 1.359-0.84z"></path>
<path d="M8.677 2.688c0 0.269-0.218 0.487-0.487 0.487s-0.487-0.218-0.487-0.487c0-0.269 0.218-0.487 0.487-0.487s0.487 0.218 0.487 0.487z"></path>
<path d="M30.413 18.341c0-0.842-0.326-1.609-0.858-2.183 0.001-0.069 0.002-0.138 0.002-0.207 0-4.357-2.483-8.553-6.178-10.443-0.875-0.447-1.78-0.342-2.471-0.2-0.010 0.002-0.019 0.005-0.029 0.008-0.548-0.433-1.162-0.772-1.847-1.019v-1.182c0-1.233-1.003-2.237-2.237-2.237h-1.89c-1.233 0-2.237 1.003-2.237 2.237v1.155c-0.756 0.258-1.423 0.623-2.006 1.097-0.859-0.145-1.766-0.182-2.653 0.307-1.728 0.953-3.198 2.429-4.251 4.27-1.056 1.846-1.615 3.923-1.615 6.007 0 0.068 0.002 0.137 0.003 0.205-0.532 0.574-0.859 1.341-0.859 2.184 0 1.382 0.876 2.561 2.101 3.016 0.104 0.218 0.213 0.434 0.329 0.646 1.043 1.91 2.484 3.426 4.169 4.382 0.008 0.004 0.015 0.008 0.023 0.013-0.323 0.894-0.499 1.857-0.499 2.86v2.111c0 0.348 0.282 0.63 0.63 0.63s0.63-0.282 0.63-0.63v-2.111c0-0.883 0.161-1.729 0.454-2.511 0.069 0.004 0.138 0.006 0.207 0.006 0.48 0 0.958-0.098 1.424-0.224 0.062 0.050 0.124 0.099 0.187 0.147-0.435 0.795-0.683 1.706-0.683 2.675v2.257c0 0.209 0.169 0.378 0.378 0.378s0.378-0.169 0.378-0.378v-2.257c0-0.814 0.204-1.581 0.561-2.255 1.163 0.674 2.582 1.008 4.274 1.008 1.657 0 3.075-0.355 4.248-1.060 0.374 0.686 0.588 1.472 0.588 2.307v2.257c0 0.209 0.169 0.378 0.378 0.378s0.378-0.169 0.378-0.378v-2.257c0-0.976-0.251-1.894-0.692-2.693 0.441 0.154 0.914 0.282 1.399 0.282 0.159 0 0.32-0.015 0.481-0.046 0.259 0.741 0.401 1.536 0.401 2.364v2.111c0 0.348 0.282 0.63 0.63 0.63s0.63-0.282 0.63-0.63v-2.111c0-1.005-0.177-1.969-0.501-2.864 1.915-1.111 3.493-2.914 4.511-5.034 1.231-0.451 2.112-1.634 2.112-3.020zM13.929 3.115c0-0.539 0.438-0.977 0.977-0.977h1.89c0.539 0 0.977 0.438 0.977 0.977v0.847c-0.596-0.109-1.236-0.164-1.922-0.164s-1.327 0.051-1.922 0.154zM22.681 25.561c-0.274 0.136-0.574 0.147-0.93 0.076 0.496-0.584 0.918-1.269 1.265-2.058 0.14-0.319-0.005-0.69-0.323-0.83s-0.69 0.005-0.83 0.323c-1.116 2.539-3.082 3.773-6.012 3.773-2.799 0-4.63-0.992-5.763-3.122-0.163-0.307-0.545-0.424-0.852-0.26s-0.424 0.545-0.26 0.852c0.223 0.42 0.471 0.803 0.743 1.152-0.459 0.063-0.851 0.027-1.209-0.177-3.006-1.707-5.105-5.547-5.105-9.338 0-3.767 2.095-7.454 5.214-9.174 0.29-0.16 0.597-0.231 0.933-0.243-1.103 1.487-1.761 3.62-2.005 6.497-0.029 0.347 0.228 0.652 0.574 0.681 0.018 0.002 0.036 0.002 0.054 0.002 0.324 0 0.599-0.248 0.627-0.577 0.244-2.871 0.905-4.893 2.023-6.179 1.111-1.279 2.755-1.901 5.027-1.901 4.245 0 6.402 2.343 6.992 7.596 0.039 0.346 0.351 0.594 0.696 0.556s0.595-0.351 0.556-0.696c-0.299-2.658-0.986-4.649-2.097-6.069 0.313 0.002 0.569 0.063 0.808 0.185 3.285 1.68 5.492 5.426 5.492 9.321 0 4.025-2.309 7.976-5.616 9.609z"></path>
<path d="M9.934 15.483c-1.88 0-3.409 1.529-3.409 3.409s1.529 3.409 3.409 3.409c1.88 0 3.409-1.529 3.409-3.409s-1.529-3.409-3.409-3.409zM9.934 21.545c-1.463 0-2.653-1.19-2.653-2.653s1.19-2.653 2.653-2.653c1.463 0 2.653 1.19 2.653 2.653s-1.19 2.653-2.653 2.653z"></path>
<path d="M21.768 15.483c-1.88 0-3.409 1.529-3.409 3.409s1.529 3.409 3.409 3.409c1.88 0 3.409-1.529 3.409-3.409s-1.529-3.409-3.409-3.409zM21.768 21.545c-1.463 0-2.653-1.19-2.653-2.653s1.19-2.653 2.653-2.653 2.653 1.19 2.653 2.653c0 1.463-1.19 2.653-2.653 2.653z"></path>
<path d="M18.098 21.77l-0.899 0.899-0.977-0.908c-0.141-0.131-0.357-0.135-0.503-0.011l-1.099 0.939-1.030-0.942c-0.154-0.141-0.393-0.13-0.534 0.024s-0.13 0.393 0.024 0.534l1.276 1.167c0.141 0.129 0.356 0.132 0.501 0.008l1.097-0.937 0.997 0.927c0.073 0.068 0.165 0.101 0.257 0.101 0.097 0 0.194-0.037 0.267-0.111l1.156-1.156c0.148-0.148 0.148-0.387 0-0.535s-0.387-0.148-0.534 0z"></path>
<path d="M21.175 14.511c0.209 0 0.378-0.169 0.378-0.378v-0.694c0-0.209-0.169-0.378-0.378-0.378s-0.378 0.169-0.378 0.378v0.694c0 0.209 0.169 0.378 0.378 0.378z"></path>
<path d="M18.876 13.231c0.209 0 0.378-0.169 0.378-0.378v-0.694c0-0.209-0.169-0.378-0.378-0.378s-0.378 0.169-0.378 0.378v0.694c0 0.209 0.169 0.378 0.378 0.378z"></path>
<path d="M20.286 10.723c-0.209 0-0.378-0.169-0.378-0.378v-0.694c0-0.209 0.169-0.378 0.378-0.378s0.378 0.169 0.378 0.378v0.694c0 0.209-0.169 0.378-0.378 0.378z"></path>
<path d="M13.512 7.541c-0.244 0-0.476-0.143-0.579-0.381-0.138-0.32 0.010-0.69 0.329-0.828 0.139-0.060 0.282-0.116 0.425-0.167 0.328-0.116 0.688 0.055 0.804 0.383s-0.055 0.688-0.383 0.804c-0.117 0.041-0.234 0.087-0.348 0.136-0.081 0.035-0.166 0.052-0.249 0.052z"></path>
<path d="M10.695 11.050c-0.049 0-0.099-0.006-0.149-0.018-0.338-0.082-0.546-0.423-0.463-0.761 0.254-1.046 0.719-1.966 1.344-2.66 0.233-0.259 0.631-0.279 0.89-0.047s0.279 0.631 0.047 0.89c-0.486 0.54-0.852 1.272-1.056 2.115-0.070 0.288-0.328 0.481-0.612 0.481z"></path>
<path d="M10.714 18.108c0.432 0.432 0.432 1.133 0 1.566s-1.133 0.432-1.566 0c-0.432-0.432-0.432-1.133 0-1.566s1.133-0.432 1.566 0z"></path>
<path d="M22.799 18.463c0.234 0.565-0.034 1.213-0.599 1.447s-1.213-0.034-1.447-0.599c-0.234-0.565 0.034-1.213 0.599-1.447s1.213 0.034 1.447 0.599z"></path>
</svg>
