<!-- Generated by IcoMoon.io -->
<svg version="1.1" xmlns="http://www.w3.org/2000/svg" width="32" height="32" viewBox="0 0 32 32">
<title>rat</title>
<path d="M29.546 26.003l0.516 1.451c0.022 0.062 0.066 0.111 0.121 0.136l1.289 0.581c0.182 0.082 0.182 0.372 0 0.454l-1.289 0.581c-0.055 0.025-0.099 0.074-0.121 0.136l-0.516 1.451c-0.073 0.205-0.331 0.205-0.404 0l-0.516-1.451c-0.022-0.062-0.066-0.111-0.121-0.136l-1.289-0.581c-0.182-0.082-0.182-0.372 0-0.454l1.289-0.581c0.055-0.025 0.099-0.074 0.121-0.136l0.516-1.451c0.073-0.205 0.331-0.205 0.404 0z"></path>
<path d="M27.391 24.898c0 0.268-0.218 0.486-0.486 0.486s-0.486-0.218-0.486-0.486c0-0.268 0.218-0.486 0.486-0.486s0.486 0.218 0.486 0.486z"></path>
<path d="M16.015 26.883c-1.744 0-3.164 1.531-3.164 3.413v1.314c0 0.208 0.169 0.377 0.377 0.377s0.377-0.169 0.377-0.377v-1.314c0-1.466 1.081-2.659 2.41-2.659s2.41 1.193 2.41 2.659v1.314c0 0.208 0.169 0.377 0.377 0.377s0.377-0.169 0.377-0.377v-1.314c0-1.882-1.419-3.413-3.163-3.413z"></path>
<path d="M11.22 20.964h-3.082c-0.208 0-0.377 0.169-0.377 0.377s0.169 0.377 0.377 0.377h3.082c0.208 0 0.377-0.169 0.377-0.377s-0.169-0.377-0.377-0.377z"></path>
<path d="M23.891 20.964h-3.082c-0.208 0-0.377 0.169-0.377 0.377s0.169 0.377 0.377 0.377h3.082c0.208 0 0.377-0.169 0.377-0.377s-0.169-0.377-0.377-0.377z"></path>
<path d="M9.391 16.020c0.003-0.002 0.333-0.164 0.724-0.164s0.721 0.162 0.723 0.163c0.055 0.028 0.113 0.041 0.171 0.041 0.137 0 0.269-0.075 0.336-0.206 0.095-0.185 0.021-0.412-0.164-0.507-0.049-0.025-0.497-0.246-1.066-0.246s-1.016 0.22-1.066 0.246c-0.185 0.094-0.258 0.32-0.164 0.505s0.32 0.26 0.505 0.167z"></path>
<path d="M21.189 16.020c0.003-0.002 0.333-0.164 0.724-0.164s0.721 0.162 0.723 0.163c0.055 0.028 0.113 0.041 0.171 0.041 0.137 0 0.269-0.075 0.336-0.206 0.095-0.185 0.021-0.412-0.164-0.507-0.049-0.025-0.497-0.246-1.066-0.246s-1.016 0.22-1.066 0.246c-0.185 0.094-0.258 0.32-0.164 0.505s0.32 0.26 0.505 0.167z"></path>
<path d="M17.118 18.574c-0.208 0-0.377 0.169-0.377 0.377 0 0.401-0.326 0.727-0.727 0.727s-0.727-0.326-0.727-0.727c0-0.208-0.169-0.377-0.377-0.377s-0.377 0.169-0.377 0.377c0 0.816 0.664 1.481 1.481 1.481s1.481-0.664 1.481-1.481c-0-0.208-0.169-0.377-0.377-0.377z"></path>
<path d="M29.932 14.877c0-1.581-0.321-3.088-0.9-4.46 0.561-0.27 1.062-0.624 1.452-1.086 1.064-1.261 1.592-2.774 1.489-4.262-0.101-1.456-0.791-2.792-1.941-3.763s-2.584-1.425-4.036-1.28c-1.484 0.148-2.886 0.924-3.95 2.185-0.368 0.436-0.625 0.954-0.797 1.514-0.902-0.228-1.846-0.35-2.818-0.35h-4.833c-0.982 0-1.935 0.124-2.845 0.357-0.172-0.563-0.429-1.083-0.799-1.521-1.064-1.261-2.467-2.037-3.95-2.185-1.453-0.145-2.886 0.309-4.036 1.28s-1.84 2.307-1.941 3.763c-0.103 1.487 0.425 3.001 1.489 4.262 0.396 0.469 0.905 0.826 1.477 1.098-0.576 1.369-0.896 2.872-0.896 4.449 0 0.477 0.125 0.914 0.294 1.287-0.554 0.576-0.895 1.358-0.895 2.219 0 1.768 1.438 3.206 3.206 3.206 0.321 0 0.631-0.048 0.923-0.136 0.966 1.2 2.19 2.184 3.586 2.867-0.826 1.133-1.377 2.48-1.552 3.94-0.429-0.448-0.937-0.812-1.46-1.139-0.324-0.203-0.362-0.248-0.391-0.325-0.080-0.215-0.086-0.754-0.086-1.334 0-0.952-0.775-1.727-1.727-1.727s-1.727 0.775-1.727 1.727c0 1.977 0.146 3.364 2.098 4.586 1.029 0.644 1.029 0.864 1.029 1.301 0 0.347 0.281 0.628 0.628 0.628s0.628-0.281 0.628-0.628c0-0.302-0.032-0.563-0.109-0.801l0.829-0.479c0.145 0.365 0.222 0.782 0.222 1.279 0 0.066 0.010 0.129 0.029 0.188 0.073 0.267 0.316 0.463 0.605 0.463 0.347 0 0.628-0.281 0.628-0.628v-2.105c0-1.681 0.583-3.227 1.556-4.45 0.587 0.201 1.197 0.352 1.825 0.447-1.104 1.019-1.797 2.478-1.797 4.096v2.25c0 0.208 0.169 0.377 0.377 0.377s0.377-0.169 0.377-0.377v-2.25c0-1.658 0.842-3.122 2.12-3.989 0.167 0.008 0.335 0.012 0.503 0.012h4.394c0.169 0 0.336-0.004 0.503-0.012 1.278 0.868 2.12 2.331 2.12 3.989v2.25c0 0.208 0.169 0.377 0.377 0.377s0.377-0.169 0.377-0.377v-2.25c0-1.618-0.693-3.076-1.798-4.096 0.628-0.095 1.238-0.246 1.826-0.448 0.973 1.223 1.556 2.769 1.556 4.45v2.105c0 0.347 0.281 0.628 0.628 0.628s0.628-0.281 0.628-0.628v-2.105c0-1.848-0.599-3.558-1.612-4.947 1.397-0.683 2.621-1.667 3.587-2.867 0.292 0.088 0.602 0.137 0.923 0.137 1.768 0 3.206-1.438 3.206-3.206 0-0.84-0.326-1.606-0.857-2.178 0.159-0.434 0.257-0.898 0.257-1.328zM4.242 28.354c-0.321-0.343-0.499-0.709-0.597-1.143h0.979c0.105 0.3 0.28 0.519 0.568 0.74zM3.997 24.991c0.26 0 0.471 0.211 0.471 0.471 0 0.396 0.005 0.721 0.024 0.995h-0.945c-0.018-0.299-0.021-0.627-0.021-0.995 0-0.26 0.211-0.471 0.471-0.471zM6.173 29.892c-0.253-0.298-0.62-0.584-1.138-0.909-0.048-0.030-0.093-0.060-0.138-0.089l1.044-0.443c0.434 0.3 0.791 0.608 1.061 0.963zM27.609 7.954c-0.99-1.309-2.253-2.401-3.704-3.19 0.072-0.19 0.166-0.362 0.288-0.506 1.029-1.219 2.598-1.409 3.731-0.453 0.533 0.45 0.852 1.066 0.899 1.735 0.048 0.696-0.206 1.413-0.718 2.019-0.132 0.157-0.302 0.287-0.497 0.395zM23.006 3.022c0.852-1.010 1.958-1.629 3.115-1.745 1.112-0.111 2.213 0.24 3.101 0.99 1.888 1.593 2.015 4.224 0.302 6.255-0.268 0.318-0.627 0.57-1.044 0.769-0.137-0.245-0.283-0.485-0.436-0.719 0.242-0.142 0.459-0.315 0.637-0.526 0.638-0.757 0.956-1.665 0.894-2.558-0.061-0.874-0.474-1.676-1.165-2.258s-1.551-0.855-2.422-0.768c-0.89 0.089-1.732 0.555-2.371 1.311-0.164 0.194-0.29 0.416-0.387 0.654-0.256-0.118-0.516-0.227-0.782-0.326 0.126-0.412 0.306-0.78 0.558-1.079zM18.431 4.632c5.649 0 10.245 4.596 10.245 10.245 0 0.592-0.278 1.213-0.522 1.576-2.101-3.318-5.775-5.357-9.723-5.357h-4.833c-3.897 0-7.523 1.983-9.637 5.223-0.286-0.352-0.608-0.887-0.608-1.442 0-5.649 4.596-10.245 10.245-10.245h4.833zM3.895 7.559c-0.511-0.606-0.766-1.323-0.718-2.019 0.047-0.669 0.366-1.285 0.899-1.735 0.469-0.395 1.036-0.606 1.619-0.606 0.080 0 0.161 0.004 0.242 0.012 0.694 0.069 1.359 0.441 1.87 1.048 0.125 0.148 0.22 0.324 0.292 0.52-1.444 0.79-2.702 1.88-3.688 3.187-0.203-0.11-0.38-0.244-0.517-0.406zM2.476 8.521c-1.714-2.031-1.586-4.661 0.302-6.255 0.781-0.659 1.726-1.010 2.698-1.010 0.134 0 0.269 0.007 0.403 0.020 1.157 0.116 2.263 0.735 3.115 1.745 0.254 0.301 0.435 0.673 0.561 1.089-0.265 0.1-0.525 0.209-0.78 0.327-0.098-0.243-0.226-0.468-0.392-0.665-0.638-0.757-1.48-1.222-2.371-1.312-0.872-0.087-1.732 0.186-2.422 0.768s-1.104 1.384-1.165 2.258c-0.062 0.893 0.255 1.801 0.894 2.558 0.183 0.217 0.408 0.394 0.658 0.538-0.153 0.233-0.298 0.473-0.434 0.717-0.425-0.201-0.793-0.456-1.067-0.78zM4.703 20.334c-1.075 0-1.95-0.875-1.95-1.95 0-0.419 0.133-0.806 0.359-1.124 0.168 0.19 0.389 0.41 0.607 0.538 0.261 0.899 0.64 1.748 1.117 2.531-0.044 0.003-0.088 0.005-0.133 0.005zM23.87 22.192h-3.060c-0.208 0-0.377 0.169-0.377 0.377s0.169 0.377 0.377 0.377h1.924c-1.338 0.752-2.88 1.181-4.521 1.181h-4.394c-1.641 0-3.183-0.43-4.521-1.181h1.923c0.208 0 0.377-0.169 0.377-0.377s-0.169-0.377-0.377-0.377h-3.060c-1.587-1.229-2.765-2.96-3.293-4.953 1.859-3.023 5.168-4.886 8.732-4.886h4.833c3.562 0 6.872 1.862 8.732 4.885-0.528 1.993-1.706 3.725-3.293 4.954zM29.277 18.383c0 1.075-0.875 1.95-1.95 1.95-0.044 0-0.088-0.002-0.132-0.005 0.451-0.739 0.813-1.538 1.072-2.381 0.252-0.067 0.509-0.266 0.743-0.547 0.17 0.289 0.267 0.625 0.267 0.983z"></path>
<path d="M23.032 10.064c0.208 0 0.377-0.169 0.377-0.377v-0.712c0-0.208-0.169-0.377-0.377-0.377s-0.377 0.169-0.377 0.377v0.712c0 0.208 0.169 0.377 0.377 0.377z"></path>
<path d="M24.859 11.663c0.208 0 0.377-0.169 0.377-0.377v-0.712c0-0.208-0.169-0.377-0.377-0.377s-0.377 0.169-0.377 0.377v0.712c0 0.208 0.169 0.377 0.377 0.377z"></path>
<path d="M10.893 18.169c0.431 0.431 0.431 1.13 0 1.561s-1.13 0.431-1.561 0c-0.431-0.431-0.431-1.13 0-1.561s1.13-0.431 1.561 0z"></path>
<path d="M22.345 17.934c0.563 0.233 0.831 0.879 0.597 1.443s-0.879 0.831-1.443 0.597c-0.563-0.233-0.831-0.879-0.597-1.443s0.879-0.831 1.443-0.597z"></path>
<path d="M8.225 8.879c-0.195 0-0.387-0.090-0.51-0.26-0.203-0.281-0.14-0.674 0.141-0.877 0.152-0.109 0.309-0.216 0.467-0.318 0.292-0.187 0.681-0.102 0.867 0.191s0.102 0.681-0.191 0.868c-0.139 0.089-0.276 0.182-0.408 0.278-0.111 0.080-0.24 0.119-0.367 0.119z"></path>
<path d="M10.498 7.667c-0.255 0-0.495-0.157-0.589-0.41-0.121-0.325 0.045-0.687 0.37-0.807 0.769-0.286 1.56-0.473 2.351-0.557 0.345-0.037 0.654 0.213 0.691 0.558s-0.213 0.654-0.558 0.691c-0.687 0.073-1.375 0.237-2.047 0.486-0.072 0.027-0.146 0.039-0.218 0.039z"></path>
</svg>
