<!-- Generated by IcoMoon.io -->
<svg version="1.1" xmlns="http://www.w3.org/2000/svg" width="32" height="32" viewBox="0 0 32 32">
<title>robot</title>
<path d="M28.131 0.285l0.516 1.45c0.022 0.062 0.066 0.111 0.121 0.136l1.289 0.581c0.182 0.082 0.182 0.372 0 0.454l-1.289 0.581c-0.055 0.025-0.099 0.074-0.121 0.136l-0.516 1.45c-0.073 0.205-0.331 0.205-0.403 0l-0.516-1.45c-0.022-0.062-0.066-0.111-0.121-0.136l-1.289-0.581c-0.182-0.082-0.182-0.372 0-0.454l1.289-0.581c0.055-0.025 0.099-0.074 0.121-0.136l0.516-1.45c0.073-0.205 0.331-0.205 0.403-0z"></path>
<path d="M2.155 23.296l0.383 1.076c0.016 0.046 0.049 0.083 0.090 0.101l0.956 0.431c0.135 0.061 0.135 0.276 0 0.337l-0.956 0.431c-0.041 0.018-0.073 0.055-0.090 0.101l-0.383 1.076c-0.054 0.152-0.245 0.152-0.299 0l-0.383-1.076c-0.016-0.046-0.049-0.083-0.090-0.101l-0.956-0.431c-0.135-0.061-0.135-0.276 0-0.337l0.956-0.431c0.041-0.018 0.073-0.055 0.090-0.101l0.383-1.076c0.054-0.152 0.245-0.152 0.299-0z"></path>
<path d="M29.439 26.536c0.619 0.062 1.071 0.613 1.009 1.232s-0.613 1.071-1.232 1.009c-0.619-0.062-1.071-0.613-1.009-1.232s0.613-1.071 1.232-1.009z"></path>
<path d="M5.294 28.677c0 0.268-0.218 0.486-0.486 0.486s-0.486-0.218-0.486-0.486c0-0.268 0.218-0.486 0.486-0.486s0.486 0.218 0.486 0.486z"></path>
<path d="M18.182 17.823h-4.378c-0.928 0-1.682 0.755-1.682 1.682s0.755 1.682 1.682 1.682h4.378c0.927 0 1.682-0.755 1.682-1.682s-0.755-1.682-1.682-1.682zM14.499 18.576h1.117v1.857h-1.117zM16.37 18.576h1.112v1.857h-1.112zM12.875 19.505c0-0.492 0.386-0.895 0.871-0.926v1.851c-0.485-0.030-0.871-0.433-0.871-0.926zM18.235 20.43v-1.852c0.487 0.028 0.876 0.432 0.876 0.926s-0.388 0.898-0.876 0.926z"></path>
<path d="M8.074 11.422c-0.639 0-1.159-0.52-1.159-1.159s0.52-1.159 1.159-1.159 1.159 0.52 1.159 1.159c0 0.639-0.52 1.159-1.159 1.159zM8.074 9.858c-0.223 0-0.405 0.182-0.405 0.405s0.182 0.405 0.405 0.405 0.405-0.182 0.405-0.405-0.182-0.405-0.405-0.405z"></path>
<path d="M8.074 14.791c-0.639 0-1.159-0.52-1.159-1.159s0.52-1.159 1.159-1.159 1.159 0.52 1.159 1.159-0.52 1.159-1.159 1.159zM8.074 13.227c-0.223 0-0.405 0.182-0.405 0.405s0.182 0.405 0.405 0.405 0.405-0.182 0.405-0.405-0.182-0.405-0.405-0.405z"></path>
<path d="M25.391 11.385h-4.005c-0.208 0-0.377-0.169-0.377-0.377s0.169-0.377 0.377-0.377h4.005c0.208 0 0.377 0.169 0.377 0.377s-0.169 0.377-0.377 0.377z"></path>
<path d="M15.203 28.627h-2.562c-0.208 0-0.377-0.169-0.377-0.377s0.169-0.377 0.377-0.377h2.562c0.208 0 0.377 0.169 0.377 0.377s-0.169 0.377-0.377 0.377z"></path>
<path d="M15.203 30.302h-2.562c-0.208 0-0.377-0.169-0.377-0.377s0.169-0.377 0.377-0.377h2.562c0.208 0 0.377 0.169 0.377 0.377s-0.169 0.377-0.377 0.377z"></path>
<path d="M29.392 10.311h-1.029c-1.017-3.438-4.203-5.953-7.966-5.953h-2.974c0.597-0.44 0.985-1.147 0.985-1.944 0-1.331-1.083-2.414-2.414-2.414s-2.414 1.083-2.414 2.414c0 0.796 0.388 1.504 0.985 1.944h-2.974c-3.763 0-6.949 2.516-7.966 5.953h-1.015c-1.334 0-2.419 1.085-2.419 2.419v4.282c0 1.334 1.085 2.419 2.419 2.419h1.015c0.753 2.546 2.696 4.585 5.181 5.473-0.776 1.273-1.224 2.767-1.224 4.364v2.105c0 0.347 0.281 0.628 0.628 0.628s0.628-0.281 0.628-0.628v-2.105c0-1.49 0.459-2.874 1.241-4.021 0.49 0.091 0.996 0.138 1.512 0.138h0.503c-1.031 1.012-1.673 2.421-1.673 3.976v2.25c0 0.208 0.169 0.377 0.377 0.377s0.377-0.169 0.377-0.377v-2.25c0-1.65 0.834-3.107 2.102-3.976h5.436c0.589 0.404 1.084 0.934 1.446 1.553h-1.64c-0.67 0-1.214 0.545-1.214 1.214v0.936c0 0.67 0.545 1.214 1.214 1.214h2.296v1.308c0 0.208 0.169 0.377 0.377 0.377s0.377-0.169 0.377-0.377v-2.25c0-1.556-0.641-2.964-1.673-3.976h0.503c0.516 0 1.021-0.048 1.512-0.138 0.782 1.147 1.241 2.531 1.241 4.021v2.104c0 0.347 0.281 0.628 0.628 0.628s0.628-0.281 0.628-0.628v-2.105c0-1.597-0.449-3.090-1.225-4.364 2.486-0.887 4.429-2.927 5.183-5.473h1.029c1.334 0 2.419-1.085 2.419-2.419v-4.282c-0-1.334-1.085-2.419-2.419-2.419zM3.355 18.175h-0.748c-0.641 0-1.163-0.522-1.163-1.163v-4.282c0-0.641 0.522-1.163 1.163-1.163h0.748c-0.048 0.359-0.073 0.725-0.073 1.097v4.414c-0 0.372 0.025 0.738 0.072 1.097zM20.812 29.361v0.188h-2.296c-0.254 0-0.461-0.207-0.461-0.461v-0.936c0-0.254 0.207-0.461 0.461-0.461h1.997c0.193 0.52 0.299 1.083 0.299 1.67zM20.396 5.614c2.509 0 4.716 1.318 5.966 3.298h-6.081v-3.298zM15.993 1.256c0.639 0 1.158 0.52 1.158 1.158s-0.52 1.158-1.158 1.158c-0.639 0-1.158-0.52-1.158-1.158s0.52-1.158 1.158-1.158zM12.457 5.614h7.071v5.454c0 0.798-0.649 1.447-1.447 1.447h-4.178c-0.798 0-1.447-0.649-1.447-1.447zM9.368 18.953c0-0.401 0.326-0.727 0.727-0.727s0.727 0.326 0.727 0.727c0 0.401-0.326 0.727-0.727 0.727s-0.727-0.326-0.727-0.727zM21.89 19.68c-0.401 0-0.727-0.326-0.727-0.727s0.326-0.727 0.727-0.727 0.727 0.326 0.727 0.727c-0 0.401-0.326 0.727-0.727 0.727zM27.447 17.078c0 3.24-2.197 5.976-5.18 6.798v-3.492c0.634-0.167 1.104-0.745 1.104-1.432 0-0.816-0.664-1.48-1.48-1.48s-1.48 0.664-1.48 1.48c0 0.686 0.469 1.264 1.104 1.432v3.655c-0.364 0.058-0.737 0.089-1.117 0.089h-8.807c-0.38 0-0.753-0.031-1.117-0.089v-3.655c0.634-0.167 1.104-0.745 1.104-1.432 0-0.816-0.664-1.48-1.48-1.48s-1.48 0.664-1.48 1.48c0 0.686 0.469 1.264 1.104 1.432v3.492c-2.983-0.822-5.18-3.558-5.18-6.798v-4.414c0-3.888 3.163-7.051 7.051-7.051h0.115v5.454c0 1.213 0.987 2.2 2.2 2.2h4.177c1.213 0 2.2-0.987 2.2-2.2v-1.403h6.494c0.43 0.911 0.671 1.927 0.671 2.999zM30.555 17.012c0 0.641-0.522 1.163-1.163 1.163h-0.762c0.048-0.359 0.073-0.725 0.073-1.097v-4.414c0-0.372-0.025-0.738-0.073-1.097h0.762c0.641 0 1.163 0.522 1.163 1.163z"></path>
<path d="M14.081 10.898c-0.347 0-0.628-0.281-0.628-0.628v-0.992c0-0.347 0.281-0.628 0.628-0.628s0.628 0.281 0.628 0.628v0.992c0 0.347-0.281 0.628-0.628 0.628z"></path>
<path d="M14.081 8.097c-0.347 0-0.628-0.281-0.628-0.628v-0.284c0-0.347 0.281-0.628 0.628-0.628s0.628 0.281 0.628 0.628v0.284c0 0.347-0.281 0.628-0.628 0.628z"></path>
</svg>
