<!-- Generated by IcoMoon.io -->
<svg version="1.1" xmlns="http://www.w3.org/2000/svg" width="32" height="32" viewBox="0 0 32 32">
<title>scientist</title>
<path d="M31.731 24.459l-1.284-0.578c-0.055-0.025-0.099-0.074-0.12-0.136l-0.514-1.445c-0.073-0.204-0.329-0.204-0.402 0l-0.514 1.445c-0.022 0.062-0.066 0.111-0.12 0.136l-1.284 0.578c-0.181 0.082-0.181 0.371 0 0.452l1.284 0.578c0.055 0.025 0.099 0.074 0.12 0.136l0.514 1.445c0.073 0.204 0.329 0.204 0.402 0l0.514-1.445c0.022-0.062 0.066-0.111 0.12-0.136l1.284-0.578c0.181-0.082 0.181-0.371 0-0.452z"></path>
<path d="M27.375 28.738c-0.62 0-1.122 0.502-1.122 1.122s0.502 1.122 1.122 1.122 1.122-0.502 1.122-1.122-0.502-1.122-1.122-1.122z"></path>
<path d="M17.106 18.627c-0.207 0-0.375 0.168-0.375 0.375 0 0.399-0.325 0.724-0.724 0.724s-0.724-0.325-0.724-0.724c0-0.207-0.168-0.375-0.375-0.375s-0.375 0.168-0.375 0.375c0 0.813 0.662 1.475 1.475 1.475s1.475-0.662 1.475-1.475c-0-0.207-0.168-0.375-0.375-0.375z"></path>
<path d="M17.77 26.967h-0.657c-0.207 0-0.375 0.168-0.375 0.375s0.168 0.375 0.375 0.375h0.657c0.207 0 0.375-0.168 0.375-0.375s-0.168-0.375-0.375-0.375z"></path>
<path d="M17.77 28.656h-0.657c-0.207 0-0.375 0.168-0.375 0.375s0.168 0.375 0.375 0.375h0.657c0.207 0 0.375-0.168 0.375-0.375s-0.168-0.375-0.375-0.375z"></path>
<path d="M17.77 30.345h-0.657c-0.207 0-0.375 0.168-0.375 0.375s0.168 0.375 0.375 0.375h0.657c0.207 0 0.375-0.168 0.375-0.375s-0.168-0.375-0.375-0.375z"></path>
<path d="M10.131 15.825c-1.579 0-2.864 1.285-2.864 2.864s1.285 2.864 2.864 2.864 2.864-1.285 2.864-2.864-1.285-2.864-2.864-2.864zM10.131 20.802c-0.769 0-1.444-0.413-1.813-1.030 0.009-0.046 0.009-0.095-0.001-0.144-0.186-0.907 0.401-1.795 1.308-1.981 0.685-0.14 1.356 0.303 1.496 0.988 0.050 0.246 0.002 0.496-0.136 0.706s-0.35 0.352-0.595 0.402c-0.177 0.036-0.357 0.001-0.508-0.098s-0.254-0.252-0.29-0.429c-0.025-0.122-0.001-0.246 0.068-0.35s0.173-0.175 0.295-0.2c0.161-0.033 0.318 0.071 0.351 0.232 0.041 0.203 0.24 0.334 0.443 0.292s0.334-0.24 0.292-0.443c-0.116-0.566-0.671-0.933-1.237-0.817-0.318 0.065-0.592 0.25-0.771 0.522s-0.242 0.596-0.177 0.914c0.076 0.373 0.294 0.695 0.612 0.905 0.236 0.156 0.507 0.236 0.783 0.236 0.096 0 0.193-0.010 0.289-0.029 0.442-0.090 0.823-0.348 1.071-0.724s0.336-0.828 0.245-1.27c-0.223-1.090-1.292-1.796-2.382-1.573-0.368 0.075-0.7 0.231-0.981 0.445 0.388-0.476 0.978-0.781 1.639-0.781 1.165 0 2.113 0.948 2.113 2.113s-0.948 2.113-2.113 2.113z"></path>
<path d="M21.882 15.825c-1.579 0-2.864 1.285-2.864 2.864s1.285 2.864 2.864 2.864 2.864-1.285 2.864-2.864-1.285-2.864-2.864-2.864zM21.882 20.802c-0.77 0-1.446-0.415-1.815-1.032 0.008-0.046 0.008-0.094-0.002-0.142-0.090-0.439-0.003-0.887 0.244-1.261s0.625-0.63 1.064-0.72c0.684-0.14 1.356 0.303 1.496 0.988 0.050 0.246 0.002 0.496-0.136 0.706s-0.35 0.352-0.595 0.402c-0.177 0.036-0.357 0.001-0.508-0.098s-0.254-0.252-0.29-0.429c-0.052-0.252 0.111-0.498 0.363-0.55 0.078-0.016 0.157-0.001 0.224 0.043s0.112 0.111 0.128 0.189c0.042 0.203 0.24 0.334 0.443 0.292s0.334-0.24 0.292-0.443c-0.116-0.566-0.671-0.933-1.237-0.817-0.657 0.134-1.082 0.779-0.948 1.436 0.076 0.373 0.294 0.695 0.612 0.905 0.236 0.156 0.507 0.236 0.783 0.236 0.096 0 0.193-0.010 0.289-0.029 0.442-0.090 0.823-0.348 1.071-0.724s0.336-0.828 0.245-1.27c-0.223-1.090-1.292-1.796-2.382-1.573-0.359 0.073-0.689 0.223-0.973 0.437 0.388-0.472 0.976-0.773 1.633-0.773 1.165 0 2.113 0.948 2.113 2.113s-0.948 2.113-2.113 2.113z"></path>
<path d="M26.354 21.495c0.291 0.088 0.6 0.136 0.92 0.136 1.761 0 3.194-1.433 3.194-3.194 0-0.626-0.182-1.209-0.494-1.702 0.23-0.551 0.368-1.152 0.411-1.804 0.001-0.016 0.002-0.033 0.002-0.049v-1.155c0-1.21-0.175-2.404-0.521-3.553 0.866-1.811 1.476-3.41 1.813-4.755 0.54-2.152 0.381-3.624-0.488-4.501-0.857-0.866-2.299-1.046-4.409-0.552-1.324 0.31-2.902 0.886-4.693 1.712-1.293-0.447-2.645-0.673-4.024-0.673h-3.805c-1.041 0-2.075 0.131-3.077 0.388-1.759-1.542-3.159-2.081-4.271-1.647-0.985 0.384-1.619 1.481-1.925 3.342-2.057-0.602-3.458-0.501-4.269 0.302-0.806 0.798-0.924 2.174-0.36 4.205 0.408 1.472 1.117 3.056 1.675 4.19-0.064 0.512-0.097 1.030-0.097 1.542v1.155c0 0.010 0 0.020 0.001 0.030 0.023 0.582 0.131 1.099 0.291 1.557-0.427 0.543-0.682 1.226-0.682 1.969 0 1.761 1.433 3.194 3.194 3.194 0.32 0 0.628-0.048 0.92-0.135 0.176 0.218 0.361 0.43 0.553 0.633-0.084-0.022-0.171-0.034-0.262-0.034h-2.754c-0.579 0-1.049 0.471-1.049 1.049v0.666c0 0.446 0.28 0.827 0.674 0.979v0.981l-2.364 3.687c-0.325 0.518-0.343 1.146-0.047 1.681s0.837 0.855 1.449 0.855h5.436c0.208 0 0.408-0.038 0.594-0.108 0.102 0.073 0.227 0.117 0.363 0.117 0.345 0 0.626-0.28 0.626-0.626v-0.546c0.102-0.323 0.102-0.664 0-0.984v-0.566c0-1.674 0.58-3.215 1.55-4.432 0.585 0.201 1.193 0.351 1.819 0.446-1.1 1.015-1.791 2.468-1.791 4.079v2.241c0 0.207 0.168 0.375 0.375 0.375s0.375-0.168 0.375-0.375v-2.241c0-1.651 0.838-3.109 2.11-3.974 0.167 0.008 0.334 0.012 0.503 0.012h1.626v6.211c0 0.207 0.168 0.375 0.375 0.375s0.375-0.168 0.375-0.375v-6.211h2c0.169 0 0.336-0.004 0.503-0.012 1.272 0.864 2.11 2.323 2.11 3.974v2.241c0 0.207 0.168 0.375 0.375 0.375s0.375-0.168 0.375-0.375v-2.241c0-1.612-0.691-3.064-1.791-4.080 0.626-0.095 1.234-0.245 1.819-0.446 0.97 1.218 1.55 2.759 1.55 4.433v2.097c0 0.346 0.28 0.626 0.626 0.626s0.626-0.28 0.626-0.626v-2.097c0-1.84-0.597-3.543-1.606-4.927 1.391-0.681 2.61-1.661 3.573-2.856zM27.274 20.38c-0.044 0-0.088-0.002-0.132-0.005 0.216-0.355 0.412-0.723 0.586-1.103 0.575-0.356 1.057-0.767 1.448-1.231 0.027 0.128 0.041 0.26 0.041 0.396 0 1.071-0.872 1.943-1.943 1.943zM1.754 4.834c0.167-0.165 0.919-0.63 3.603 0.319 0.213 0.075 0.449 0.049 0.64-0.073s0.315-0.324 0.338-0.549c0.247-2.493 0.913-2.939 1.112-3.016 0.209-0.082 1.047-0.205 3.045 1.633 0.19 0.175 0.458 0.237 0.706 0.165 0.992-0.291 2.022-0.439 3.062-0.439h3.804c1.308 0 2.587 0.231 3.802 0.685 0.186 0.070 0.392 0.061 0.571-0.023 1.814-0.852 3.388-1.437 4.68-1.74 1.504-0.352 2.58-0.297 3.027 0.155 0.456 0.461 0.494 1.564 0.107 3.107-0.329 1.312-0.948 2.905-1.837 4.734-0.084 0.172-0.097 0.369-0.038 0.551 0.357 1.089 0.538 2.227 0.538 3.381v1.13c-0.075 1.056-0.453 1.89-1.174 2.566l-1.947-6.517c-0.073-0.243-0.265-0.432-0.51-0.499-0.064-0.018-0.13-0.026-0.195-0.026-0.182 0-0.361 0.068-0.499 0.194l-1.829 1.684-2.875-2.164c-0.264-0.199-0.628-0.197-0.89 0.004l-2.844 2.18-2.715-1.996c-0.263-0.193-0.621-0.19-0.881 0.007l-2.61 1.98-2.347-1.646c-0.192-0.135-0.437-0.17-0.659-0.094s-0.395 0.252-0.466 0.476l-2.002 6.37c-0.562-0.611-1.015-1.39-1.064-2.507v-1.14c0-0.52 0.038-1.045 0.112-1.562 0.021-0.149-0.003-0.3-0.070-0.434-2.117-4.234-2.237-6.36-1.697-6.895zM4.74 20.38c-1.071 0-1.943-0.872-1.943-1.943 0-0.229 0.041-0.448 0.114-0.652 0.448 0.631 0.959 1.079 1.33 1.388 0.184 0.415 0.395 0.816 0.63 1.201-0.044 0.003-0.087 0.005-0.132 0.005zM6.034 19.875c-0.189-0.297-0.362-0.605-0.516-0.924 0.003-0.009 0.008-0.019 0.011-0.028l2.049-6.518 1.963 1.377c0.262 0.184 0.613 0.177 0.867-0.016l2.6-1.972 2.718 1.998c0.264 0.194 0.624 0.19 0.884-0.009l2.839-2.176 2.919 2.197c0.284 0.214 0.68 0.194 0.941-0.047l1.413-1.301 1.876 6.281c-0.18 0.395-0.387 0.776-0.618 1.14 0.109-0.377 0.169-0.775 0.169-1.187 0-2.352-1.914-4.266-4.266-4.266-1.21 0-2.302 0.507-3.079 1.318-1.897-0.841-3.777-0.841-5.593-0.002-0.777-0.81-1.869-1.316-3.078-1.316-2.352 0-4.266 1.914-4.266 4.266 0 0.412 0.060 0.809 0.169 1.186zM18.317 16.35c-0.157 0.238-0.29 0.493-0.397 0.761-0.671-0.298-1.312-0.448-1.944-0.448-0.63 0-1.251 0.149-1.883 0.446-0.108-0.269-0.242-0.525-0.4-0.764 1.501-0.643 3.054-0.642 4.624 0.005zM13.647 18.689c0 1.939-1.577 3.516-3.516 3.516s-3.516-1.577-3.516-3.516 1.577-3.516 3.516-3.516 3.516 1.577 3.516 3.516zM3.399 23.345h2.35v0.262h-2.35zM3.974 26.29c0.065-0.101 0.099-0.218 0.099-0.338v-1.094h1.011v1.094c0 0.12 0.034 0.237 0.099 0.337l0.788 1.23h-2.785zM7.649 30.532c-0.035 0.063-0.139 0.209-0.354 0.209h-5.436c-0.215 0-0.319-0.146-0.354-0.209s-0.103-0.228 0.008-0.406l1.19-1.856h3.747l1.187 1.853c0.113 0.182 0.045 0.346 0.010 0.409zM7.732 27.949l-1.397-2.18v-0.985c0.389-0.154 0.665-0.533 0.665-0.975v-0.666c0-0.106-0.016-0.208-0.045-0.305 0.687 0.597 1.452 1.108 2.278 1.512-0.761 1.044-1.287 2.27-1.5 3.599zM18.195 24.158h-4.377c-1.757 0-3.401-0.494-4.8-1.351 0.355 0.096 0.728 0.148 1.113 0.148 2.352 0 4.266-1.914 4.266-4.266 0-0.292-0.030-0.578-0.086-0.854 0.014-0.006 0.028-0.012 0.042-0.019 1.112-0.54 2.14-0.536 3.332 0.012 0.005 0.002 0.011 0.004 0.016 0.006-0.056 0.276-0.086 0.562-0.086 0.854 0 2.352 1.914 4.266 4.266 4.266 0.386 0 0.759-0.052 1.114-0.149-1.399 0.857-3.044 1.351-4.801 1.351zM21.882 22.205c-1.939 0-3.516-1.577-3.516-3.516s1.577-3.516 3.516-3.516 3.516 1.577 3.516 3.516-1.577 3.516-3.516 3.516z"></path>
<path d="M21.035 8.689c0.207 0 0.375-0.168 0.375-0.375v-0.709c0-0.207-0.168-0.375-0.375-0.375s-0.375 0.168-0.375 0.375v0.709c-0 0.207 0.168 0.375 0.375 0.375z"></path>
<path d="M18.882 7.106c0.207 0 0.375-0.168 0.375-0.375v-0.709c0-0.207-0.168-0.375-0.375-0.375s-0.375 0.168-0.375 0.375v0.709c0 0.207 0.168 0.375 0.375 0.375z"></path>
<path d="M23.217 8.061c0.207 0 0.375-0.168 0.375-0.375v-0.709c0-0.207-0.168-0.375-0.375-0.375s-0.375 0.168-0.375 0.375v0.709c0 0.207 0.168 0.375 0.375 0.375z"></path>
<path d="M10.049 9.39c0.207 0 0.375-0.168 0.375-0.375v-0.709c0-0.207-0.168-0.375-0.375-0.375s-0.375 0.168-0.375 0.375v0.709c0 0.207 0.168 0.375 0.375 0.375z"></path>
</svg>
