<!-- Generated by IcoMoon.io -->
<svg version="1.1" xmlns="http://www.w3.org/2000/svg" width="32" height="32" viewBox="0 0 32 32">
<title>serial-killer</title>
<path d="M29.412 1.016l0.521 1.466c0.022 0.063 0.067 0.112 0.122 0.138l1.303 0.587c0.184 0.083 0.184 0.376 0 0.459l-1.303 0.587c-0.056 0.025-0.1 0.075-0.122 0.138l-0.521 1.466c-0.074 0.207-0.334 0.207-0.408 0l-0.521-1.466c-0.022-0.063-0.067-0.112-0.122-0.138l-1.303-0.587c-0.184-0.083-0.184-0.376 0-0.459l1.303-0.587c0.056-0.025 0.1-0.075 0.122-0.138l0.521-1.466c0.074-0.207 0.334-0.207 0.408 0z"></path>
<path d="M2.483 4.912l0.387 1.088c0.017 0.047 0.049 0.083 0.091 0.102l0.966 0.435c0.136 0.061 0.136 0.279 0 0.34l-0.966 0.435c-0.041 0.019-0.074 0.056-0.091 0.102l-0.387 1.087c-0.055 0.154-0.248 0.154-0.302 0l-0.387-1.088c-0.017-0.047-0.049-0.083-0.091-0.102l-0.966-0.435c-0.137-0.061-0.137-0.279 0-0.34l0.966-0.435c0.041-0.019 0.074-0.056 0.091-0.102l0.387-1.087c0.055-0.154 0.248-0.154 0.303 0z"></path>
<path d="M2.503 0.031c0.612 0.146 0.99 0.76 0.844 1.372s-0.76 0.989-1.372 0.844c-0.612-0.146-0.99-0.76-0.844-1.372s0.76-0.99 1.372-0.844z"></path>
<path d="M8.964 2.746c0 0.271-0.22 0.491-0.491 0.491s-0.491-0.22-0.491-0.491c0-0.271 0.22-0.491 0.491-0.491s0.491 0.22 0.491 0.491z"></path>
<path d="M29.488 24.475l0.387 1.087c0.017 0.047 0.049 0.083 0.091 0.102l0.966 0.435c0.137 0.061 0.137 0.279 0 0.34l-0.966 0.435c-0.041 0.019-0.074 0.056-0.091 0.102l-0.387 1.087c-0.055 0.154-0.248 0.154-0.302 0l-0.387-1.087c-0.017-0.047-0.049-0.083-0.091-0.102l-0.966-0.435c-0.137-0.061-0.137-0.279 0-0.34l0.966-0.435c0.041-0.019 0.074-0.056 0.091-0.102l0.387-1.087c0.055-0.154 0.248-0.154 0.302 0z"></path>
<path d="M11.855 18.811c0 0.616-0.499 1.116-1.116 1.116s-1.116-0.499-1.116-1.116c0-0.616 0.499-1.116 1.116-1.116s1.116 0.499 1.116 1.116z"></path>
<path d="M23.778 18.811c0 0.616-0.499 1.116-1.116 1.116s-1.116-0.499-1.116-1.116c0-0.616 0.499-1.116 1.116-1.116s1.116 0.499 1.116 1.116z"></path>
<path d="M16.067 18.014c0 0.21-0.171 0.381-0.381 0.381s-0.381-0.171-0.381-0.381 0.171-0.381 0.381-0.381 0.381 0.171 0.381 0.381z"></path>
<path d="M18.098 18.014c0 0.21-0.171 0.381-0.381 0.381s-0.381-0.171-0.381-0.381c0-0.21 0.171-0.381 0.381-0.381s0.381 0.171 0.381 0.381z"></path>
<path d="M16.067 21.921c0 0.21-0.171 0.381-0.381 0.381s-0.381-0.171-0.381-0.381 0.171-0.381 0.381-0.381 0.381 0.171 0.381 0.381z"></path>
<path d="M18.098 21.921c0 0.21-0.171 0.381-0.381 0.381s-0.381-0.171-0.381-0.381 0.171-0.381 0.381-0.381 0.381 0.171 0.381 0.381z"></path>
<path d="M19.113 19.224c0 0.21-0.171 0.381-0.381 0.381s-0.381-0.171-0.381-0.381 0.171-0.381 0.381-0.381c0.21-0 0.381 0.17 0.381 0.381z"></path>
<path d="M17.082 19.224c0 0.21-0.171 0.381-0.381 0.381s-0.381-0.171-0.381-0.381 0.171-0.381 0.381-0.381c0.21-0 0.381 0.17 0.381 0.381z"></path>
<path d="M15.051 19.224c0 0.21-0.171 0.381-0.381 0.381s-0.381-0.171-0.381-0.381 0.171-0.381 0.381-0.381c0.21-0 0.381 0.17 0.381 0.381z"></path>
<path d="M19.113 20.742c0 0.21-0.171 0.381-0.381 0.381s-0.381-0.171-0.381-0.381c0-0.21 0.171-0.381 0.381-0.381s0.381 0.171 0.381 0.381z"></path>
<path d="M17.082 20.742c0 0.21-0.171 0.381-0.381 0.381s-0.381-0.171-0.381-0.381c0-0.21 0.171-0.381 0.381-0.381s0.381 0.171 0.381 0.381z"></path>
<path d="M15.051 20.742c0 0.21-0.171 0.381-0.381 0.381s-0.381-0.171-0.381-0.381 0.171-0.381 0.381-0.381c0.21 0 0.381 0.171 0.381 0.381z"></path>
<path d="M16.701 14.896c-0.331 0-0.641-0.13-0.873-0.366l-3.53-3.592c-0.147-0.15-0.145-0.391 0.005-0.539s0.391-0.145 0.539 0.005l3.53 3.592c0.088 0.089 0.205 0.139 0.33 0.139s0.242-0.049 0.33-0.139l3.53-3.592c0.147-0.15 0.389-0.152 0.539-0.005s0.152 0.389 0.005 0.539l-3.53 3.592c-0.232 0.236-0.542 0.366-0.873 0.366z"></path>
<path d="M16.067 9.63c0 0.21-0.171 0.381-0.381 0.381s-0.381-0.171-0.381-0.381 0.171-0.381 0.381-0.381 0.381 0.171 0.381 0.381z"></path>
<path d="M18.098 9.63c0 0.21-0.171 0.381-0.381 0.381s-0.381-0.171-0.381-0.381c0-0.21 0.171-0.381 0.381-0.381s0.381 0.171 0.381 0.381z"></path>
<path d="M16.067 8.424c0 0.21-0.171 0.381-0.381 0.381s-0.381-0.171-0.381-0.381 0.171-0.381 0.381-0.381 0.381 0.171 0.381 0.381z"></path>
<path d="M18.098 8.424c0 0.21-0.171 0.381-0.381 0.381s-0.381-0.171-0.381-0.381c0-0.21 0.171-0.381 0.381-0.381s0.381 0.171 0.381 0.381z"></path>
<path d="M13.024 14.771c0 0.21-0.171 0.381-0.381 0.381s-0.381-0.171-0.381-0.381c0-0.21 0.171-0.381 0.381-0.381s0.381 0.171 0.381 0.381z"></path>
<path d="M11.615 13.361c0 0.21-0.171 0.381-0.381 0.381s-0.381-0.171-0.381-0.381 0.171-0.381 0.381-0.381c0.21 0 0.381 0.171 0.381 0.381z"></path>
<path d="M20.378 14.771c0 0.21 0.171 0.381 0.381 0.381s0.381-0.171 0.381-0.381-0.171-0.381-0.381-0.381c-0.21 0-0.381 0.171-0.381 0.381z"></path>
<path d="M21.788 13.361c0 0.21 0.171 0.381 0.381 0.381s0.381-0.171 0.381-0.381-0.171-0.381-0.381-0.381-0.381 0.171-0.381 0.381z"></path>
<path d="M30.122 15.682c0.185-0.257 0.295-0.572 0.295-0.912v-0.837c0-0.704-0.467-1.3-1.107-1.496-1.008-4.661-5.082-8.193-9.998-8.371v-0.268c0-0.862-0.702-1.564-1.564-1.564h-2.091c-0.863 0-1.564 0.702-1.564 1.564v0.268c-4.939 0.179-9.029 3.744-10.012 8.438-0.547 0.244-0.929 0.793-0.929 1.429v0.837c0 0.305 0.088 0.59 0.24 0.831-0.823 0.588-1.362 1.551-1.362 2.638 0 1.787 1.454 3.241 3.241 3.241 0.325 0 0.638-0.048 0.934-0.138 0.977 1.212 2.213 2.207 3.625 2.897-0.496 0.681-0.894 1.437-1.172 2.249-1.69-2.090-3.635-3.846-6.484-4.755-0.521-0.166-1.091 0.024-1.42 0.472-0.321 0.439-0.33 1.003-0.022 1.437l5.697 8.005c0.203 0.286 0.6 0.352 0.885 0.149s0.352-0.6 0.149-0.885l-3.448-4.845c0.563 0.46 0.982 0.637 1.294 0.768 0.285 0.12 0.457 0.192 0.65 0.422 0.233 0.277 0.272 0.438 0.331 0.682 0.073 0.301 0.164 0.676 0.594 1.286 0.547 0.776 1.512 0.929 2.188 0.929 0.301 0 0.545-0.030 0.668-0.049 0.078 0.112 0.811 1.167 1.108 1.586 0.559 0.75 1.553-0.126 0.984-0.808v-1.549c0-1.675 0.851-3.155 2.142-4.032 0.169 0.008 0.338 0.012 0.509 0.012h4.441c0.171 0 0.34-0.004 0.509-0.012 1.291 0.877 2.142 2.356 2.142 4.032v2.274c0 0.21 0.171 0.381 0.381 0.381s0.381-0.171 0.381-0.381v-2.274c0-1.635-0.701-3.11-1.817-4.14 0.635-0.096 1.252-0.248 1.846-0.452 0.984 1.236 1.572 2.799 1.572 4.498v2.127c0 0.351 0.284 0.635 0.635 0.635s0.635-0.284 0.635-0.635v-2.127c0-1.867-0.606-3.595-1.63-5 1.412-0.69 2.648-1.685 3.625-2.897 0.296 0.089 0.609 0.137 0.934 0.137 1.787 0 3.241-1.454 3.241-3.241 0-1.038-0.491-1.963-1.253-2.556zM29.147 14.77c0 0.162-0.132 0.295-0.295 0.295h-1.443v-1.426h1.443c0.163 0 0.295 0.132 0.295 0.295zM27.409 12.369v-0.146c0-0.672-0.083-1.325-0.237-1.949 0.352 0.656 0.628 1.358 0.817 2.095zM19.12 5.384h0.182c3.771 0 6.838 3.068 6.838 6.838v4.926c0 3.771-3.068 6.838-6.838 6.838h-5.201c-3.771 0-6.838-3.068-6.838-6.838v-4.926c0-3.771 3.068-6.838 6.838-6.838h0.182c0.266 0.485 0.781 0.815 1.373 0.815h2.091c0.591 0 1.107-0.33 1.373-0.815zM5.993 12.223v0.146h-0.579c0.189-0.737 0.465-1.44 0.817-2.096-0.155 0.625-0.238 1.278-0.238 1.95zM4.42 13.933c0-0.162 0.132-0.295 0.295-0.295h1.279v1.426h-1.279c-0.163 0-0.295-0.132-0.295-0.295v-0.837zM5.993 16.334v0.814c0 0.673 0.083 1.327 0.238 1.952-0.458-0.852-0.787-1.783-0.963-2.767zM27.171 19.099c0.155-0.625 0.238-1.279 0.238-1.951v-0.814h0.725c-0.175 0.983-0.505 1.913-0.963 2.765zM15.361 3.798c0-0.163 0.132-0.295 0.295-0.295h2.091c0.163 0 0.295 0.132 0.295 0.295v0.837c0 0.162-0.132 0.295-0.295 0.295h-2.091c-0.163 0-0.295-0.132-0.295-0.295zM5.269 20.209c-1.087 0-1.971-0.884-1.971-1.971 0-0.624 0.293-1.181 0.747-1.542 0.243 1.263 0.71 2.446 1.358 3.508-0.044 0.003-0.089 0.005-0.134 0.005zM1.79 22.943c0.436 0.139 0.849 0.304 1.244 0.488-0.037 0.389-0.035 0.93 0.143 1.461zM7.504 28.785c-0.347-0.492-0.413-0.764-0.477-1.027-0.069-0.284-0.141-0.579-0.488-0.992-0.311-0.37-0.615-0.498-0.937-0.634-0.32-0.135-0.683-0.288-1.219-0.749-0.495-0.426-0.607-1.067-0.605-1.567 2.279 1.299 3.887 3.346 5.458 5.57-0.511 0.023-1.334-0.037-1.732-0.601zM11.068 29.332v0.46c-0.018-0.026-0.036-0.052-0.054-0.077-0.464-0.667-0.922-1.327-1.392-1.967 0.235-1.119 0.73-2.143 1.418-3.007 0.593 0.204 1.21 0.356 1.845 0.452-1.117 1.030-1.817 2.504-1.817 4.14zM28.134 20.209c-0.045 0-0.090-0.002-0.134-0.005 0.648-1.062 1.115-2.247 1.358-3.51 0.455 0.361 0.747 0.919 0.747 1.544 0 1.087-0.884 1.971-1.971 1.971z"></path>
<path d="M17.254 28.177c-0.21 0-0.381-0.171-0.381-0.381v-0.719c0-0.21 0.171-0.381 0.381-0.381s0.381 0.171 0.381 0.381v0.719c0 0.21-0.171 0.381-0.381 0.381z"></path>
<path d="M19.68 28.856c-0.21 0-0.381-0.171-0.381-0.381v-0.719c0-0.21 0.171-0.381 0.381-0.381s0.381 0.171 0.381 0.381v0.719c0 0.21-0.171 0.381-0.381 0.381z"></path>
<path d="M18.224 30.351c-0.21 0-0.381-0.171-0.381-0.381v-0.719c0-0.21 0.171-0.381 0.381-0.381s0.381 0.171 0.381 0.381v0.719c0 0.21-0.171 0.381-0.381 0.381z"></path>
</svg>
