<!-- Generated by IcoMoon.io -->
<svg version="1.1" xmlns="http://www.w3.org/2000/svg" width="32" height="32" viewBox="0 0 32 32">
<title>skeleton</title>
<path d="M17.994 28.72h-1.236v-0.925h1.236c0.816 0.011 0.813-1.268 0-1.256h-1.236v-1.485c0.011-0.815-1.266-0.815-1.256 0v1.485h-1.434c-0.814-0.012-0.816 1.267 0 1.256h1.434v0.925h-1.434c-0.818-0.012-0.809 1.271 0 1.256h1.434v1.367c-0.010 0.815 1.266 0.815 1.256 0v-1.367h1.236c0.81 0.015 0.818-1.268 0-1.256z"></path>
<path d="M2.586 1.795l0.516 1.45c0.022 0.062 0.066 0.111 0.121 0.136l1.288 0.58c0.182 0.082 0.182 0.372 0 0.454l-1.288 0.58c-0.055 0.025-0.099 0.074-0.121 0.136l-0.516 1.45c-0.073 0.205-0.331 0.205-0.403 0l-0.516-1.45c-0.022-0.062-0.066-0.111-0.121-0.136l-1.288-0.58c-0.182-0.082-0.182-0.372 0-0.454l1.288-0.58c0.055-0.025 0.099-0.074 0.121-0.136l0.516-1.45c0.073-0.205 0.331-0.205 0.403 0z"></path>
<path d="M26.058 0.114l0.383 1.076c0.016 0.046 0.049 0.083 0.090 0.101l0.956 0.431c0.135 0.061 0.135 0.276 0 0.337l-0.956 0.431c-0.041 0.018-0.073 0.055-0.090 0.101l-0.383 1.076c-0.054 0.152-0.245 0.152-0.299 0l-0.383-1.076c-0.016-0.046-0.049-0.083-0.090-0.101l-0.956-0.431c-0.135-0.061-0.135-0.276 0-0.337l0.956-0.431c0.041-0.018 0.073-0.055 0.090-0.101l0.383-1.076c0.054-0.152 0.245-0.152 0.299 0z"></path>
<path d="M31.879 7.311c0 0.622-0.504 1.126-1.126 1.126s-1.126-0.504-1.126-1.126c0-0.622 0.504-1.126 1.126-1.126s1.126 0.504 1.126 1.126z"></path>
<path d="M8.613 2.679c0 0.268-0.217 0.486-0.486 0.486s-0.486-0.217-0.486-0.486c0-0.268 0.218-0.486 0.486-0.486s0.486 0.217 0.486 0.486z"></path>
<path d="M18.223 21.959h-0.576v-0.453c0-0.208-0.169-0.377-0.377-0.377s-0.377 0.169-0.377 0.377v0.453h-0.628v-0.453c0-0.208-0.169-0.377-0.377-0.377s-0.377 0.169-0.377 0.377v0.453h-0.628v-0.453c0-0.208-0.169-0.377-0.377-0.377s-0.377 0.169-0.377 0.377v0.453h-0.292c-0.208 0-0.377 0.169-0.377 0.377s0.169 0.377 0.377 0.377h0.292v0.417c0 0.208 0.169 0.377 0.377 0.377s0.377-0.169 0.377-0.377v-0.417h0.628v0.417c0 0.208 0.169 0.377 0.377 0.377s0.377-0.169 0.377-0.377v-0.417h0.628v0.417c0 0.208 0.169 0.377 0.377 0.377s0.377-0.169 0.377-0.377v-0.417h0.576c0.208 0 0.377-0.169 0.377-0.377s-0.169-0.377-0.377-0.377z"></path>
<path d="M11.238 18.948c0 0.609-0.494 1.103-1.103 1.103s-1.103-0.494-1.103-1.103c0-0.609 0.494-1.103 1.103-1.103s1.103 0.494 1.103 1.103z"></path>
<path d="M23.031 18.948c0 0.609-0.494 1.103-1.103 1.103s-1.103-0.494-1.103-1.103c0-0.609 0.494-1.103 1.103-1.103s1.103 0.494 1.103 1.103z"></path>
<path d="M11.028 16.059c-0.058 0-0.116-0.013-0.171-0.041-0.002-0.001-0.332-0.163-0.723-0.163s-0.721 0.162-0.724 0.164c-0.186 0.093-0.412 0.018-0.505-0.167s-0.020-0.411 0.164-0.505c0.049-0.025 0.497-0.245 1.065-0.245s1.016 0.22 1.065 0.245c0.185 0.095 0.259 0.321 0.164 0.507-0.067 0.13-0.199 0.206-0.336 0.206z"></path>
<path d="M22.822 16.059c-0.058 0-0.116-0.013-0.171-0.041-0.002-0.001-0.332-0.163-0.723-0.163-0.392 0-0.72 0.162-0.723 0.163-0.185 0.095-0.412 0.021-0.507-0.164s-0.021-0.412 0.164-0.507c0.049-0.025 0.497-0.245 1.065-0.245s1.016 0.22 1.065 0.245c0.185 0.095 0.259 0.321 0.164 0.507-0.067 0.13-0.199 0.206-0.336 0.206z"></path>
<path d="M15.569 18.591c0 0.157-0.127 0.284-0.284 0.284s-0.284-0.127-0.284-0.284c0-0.157 0.127-0.284 0.284-0.284s0.284 0.127 0.284 0.284z"></path>
<path d="M16.871 18.591c0 0.157-0.127 0.284-0.284 0.284s-0.284-0.127-0.284-0.284c0-0.157 0.127-0.284 0.284-0.284s0.284 0.127 0.284 0.284z"></path>
<path d="M28.721 15.491c0.012-0.206 0.019-0.414 0.019-0.623 0-5.796-4.716-10.512-10.512-10.512h-4.393c-5.796 0-10.512 4.716-10.512 10.512 0 0.209 0.007 0.417 0.019 0.623-1.078 0.517-1.824 1.618-1.824 2.891 0 1.767 1.438 3.205 3.205 3.205 0.321 0 0.63-0.048 0.923-0.137 0.966 1.2 2.19 2.183 3.586 2.866-1.013 1.389-1.612 3.099-1.612 4.946v2.104c0 0.347 0.281 0.628 0.628 0.628s0.628-0.281 0.628-0.628v-2.104c0-1.68 0.583-3.226 1.556-4.449 0.587 0.201 1.196 0.352 1.824 0.447-1.104 1.019-1.797 2.477-1.797 4.094v2.268c0 0.208 0.169 0.377 0.377 0.377s0.377-0.169 0.377-0.377v-2.268c0-1.657 0.842-3.121 2.12-3.988 0.167 0.008 0.334 0.012 0.502 0.012h4.393c0.169 0 0.336-0.004 0.503-0.012 1.278 0.867 2.12 2.331 2.12 3.988v2.268c0 0.208 0.169 0.377 0.377 0.377s0.377-0.169 0.377-0.377v-2.268c0-1.617-0.693-3.075-1.797-4.094 0.628-0.095 1.238-0.246 1.825-0.447 0.973 1.222 1.555 2.769 1.555 4.449v2.104c0 0.347 0.281 0.628 0.628 0.628s0.628-0.281 0.628-0.628v-2.104c0-1.847-0.599-3.556-1.612-4.945 1.397-0.683 2.62-1.667 3.587-2.867 0.292 0.088 0.602 0.137 0.923 0.137 1.767 0 3.206-1.438 3.206-3.205 0-1.273-0.746-2.374-1.824-2.891zM4.723 20.331c-1.075 0-1.95-0.875-1.95-1.95 0-0.618 0.29-1.168 0.739-1.525 0.24 1.249 0.701 2.42 1.342 3.47-0.043 0.003-0.087 0.005-0.131 0.005zM10.787 21.323c-2.496 0-4.527-2.031-4.527-4.527v-0.367c0-2.496 2.031-4.527 4.527-4.527h10.409c2.496 0 4.527 2.031 4.527 4.527v0.367c0 2.496-2.031 4.527-4.527 4.527h-2.014v0.825c0 0.838-0.682 1.52-1.52 1.52h-3.285c-0.838 0-1.52-0.682-1.52-1.52v-0.825zM18.811 24.105c0.67-0.395 1.121-1.124 1.121-1.957v-0.075h1.265c2.91 0 5.277-2.367 5.277-5.277v-0.367c0-2.909-2.367-5.277-5.277-5.277h-10.409c-2.909 0-5.277 2.367-5.277 5.277v0.367c0 2.91 2.367 5.277 5.277 5.277h1.32v0.075c0 0.832 0.45 1.56 1.119 1.955-4.821-0.314-8.648-4.336-8.648-9.236 0-5.104 4.152-9.256 9.256-9.256h4.393c5.104 0 9.256 4.152 9.256 9.256 0 4.908-3.84 8.936-8.673 9.237zM27.339 20.331c-0.044 0-0.088-0.002-0.131-0.005 0.641-1.050 1.102-2.222 1.342-3.47 0.45 0.357 0.739 0.908 0.739 1.526 0 1.075-0.875 1.95-1.95 1.95z"></path>
<path d="M10.284 8.715c-0.203 0-0.402-0.098-0.523-0.28-0.192-0.289-0.114-0.678 0.174-0.871 0.106-0.071 0.434-0.276 0.673-0.373 0.321-0.131 0.687 0.024 0.818 0.345s-0.024 0.687-0.345 0.818c-0.098 0.040-0.322 0.169-0.449 0.254-0.107 0.071-0.228 0.106-0.348 0.106z"></path>
<path d="M7.304 11.508c-0.115 0-0.231-0.032-0.335-0.098-0.293-0.186-0.38-0.573-0.194-0.866 0.571-0.9 1.232-1.54 1.687-1.918 0.267-0.222 0.663-0.185 0.884 0.082s0.185 0.662-0.082 0.884c-0.385 0.32-0.946 0.862-1.429 1.624-0.12 0.189-0.323 0.292-0.531 0.292z"></path>
</svg>
