<!-- Generated by IcoMoon.io -->
<svg version="1.1" xmlns="http://www.w3.org/2000/svg" width="32" height="32" viewBox="0 0 32 32">
<title>superheroine</title>
<path d="M29.616 0.785l0.53 1.491c0.023 0.064 0.068 0.114 0.124 0.14l1.325 0.597c0.187 0.084 0.187 0.382 0 0.467l-1.325 0.597c-0.057 0.026-0.102 0.076-0.124 0.14l-0.53 1.491c-0.075 0.211-0.34 0.211-0.415 0l-0.53-1.491c-0.023-0.064-0.068-0.114-0.124-0.14l-1.325-0.597c-0.187-0.084-0.187-0.382 0-0.467l1.325-0.597c0.057-0.026 0.102-0.076 0.124-0.14l0.53-1.491c0.075-0.211 0.34-0.211 0.415 0z"></path>
<path d="M2.144 26.718l0.393 1.106c0.017 0.047 0.050 0.085 0.092 0.104l0.983 0.443c0.139 0.063 0.139 0.284 0 0.346l-0.983 0.443c-0.042 0.019-0.075 0.056-0.092 0.104l-0.393 1.106c-0.056 0.156-0.252 0.156-0.308 0l-0.393-1.106c-0.017-0.047-0.050-0.085-0.092-0.104l-0.983-0.443c-0.139-0.063-0.139-0.284 0-0.346l0.983-0.443c0.042-0.019 0.075-0.056 0.092-0.104l0.393-1.106c0.056-0.156 0.252-0.156 0.308 0z"></path>
<path d="M4.050 0.472c0.544 0.336 0.713 1.050 0.376 1.594s-1.050 0.713-1.594 0.376c-0.544-0.336-0.713-1.050-0.376-1.594s1.050-0.713 1.594-0.376z"></path>
<path d="M25.37 0.499c0 0.276-0.224 0.499-0.499 0.499s-0.499-0.224-0.499-0.499c0-0.276 0.224-0.499 0.499-0.499s0.499 0.224 0.499 0.499z"></path>
<path d="M10.373 18.406c0.1 0.618-0.32 1.201-0.938 1.301s-1.201-0.32-1.301-0.938c-0.1-0.618 0.32-1.201 0.938-1.301s1.201 0.32 1.301 0.938z"></path>
<path d="M22.517 18.462c0.076 0.622-0.366 1.189-0.988 1.265s-1.189-0.366-1.265-0.988c-0.076-0.622 0.366-1.189 0.988-1.265s1.189 0.366 1.265 0.988z"></path>
<path d="M15.32 20.109c-0.839 0-1.522-0.683-1.522-1.522 0-0.214 0.173-0.387 0.387-0.387s0.387 0.173 0.387 0.387c0 0.412 0.335 0.747 0.747 0.747s0.747-0.335 0.747-0.747c0-0.214 0.173-0.387 0.387-0.387s0.387 0.173 0.387 0.387c-0 0.839-0.683 1.522-1.522 1.522z"></path>
<path d="M8.239 7.437c-0.226 0-0.445-0.119-0.563-0.33-0.175-0.311-0.064-0.704 0.247-0.879 0.223-0.125 0.454-0.244 0.688-0.353 0.323-0.151 0.707-0.011 0.858 0.313s0.011 0.707-0.312 0.858c-0.204 0.095-0.406 0.199-0.601 0.308-0.1 0.056-0.209 0.083-0.316 0.083z"></path>
<path d="M4.928 10.858c-0.094 0-0.19-0.021-0.28-0.064-0.321-0.155-0.456-0.541-0.301-0.862 0.448-0.929 1.085-1.77 1.893-2.499 0.265-0.239 0.673-0.218 0.912 0.046s0.218 0.673-0.046 0.912c-0.684 0.617-1.221 1.325-1.596 2.102-0.111 0.231-0.342 0.365-0.582 0.365z"></path>
<path d="M25.662 25.264h1.163c1.466 0 2.658-1.192 2.658-2.658v-2.5c0.474-0.571 0.759-1.303 0.759-2.102 0-0.688-0.213-1.326-0.575-1.855 0.383-0.814 0.37-1.909 0.367-2.039-0.068-3.192-1.363-6.182-3.646-8.42-2.286-2.241-5.309-3.475-8.51-3.475h-5.117c-3.202 0-6.224 1.234-8.51 3.475-2.283 2.237-3.577 5.228-3.646 8.42-0 0.008-0 0.016-0 0.023 0.002 0.147 0.028 1.435 0.257 2.189-0.294 0.493-0.464 1.067-0.464 1.682 0 0.798 0.285 1.531 0.759 2.102v2.5c0 1.466 1.192 2.658 2.658 2.658h3.802c-0.604 1.179-0.945 2.514-0.945 3.927v2.163c0 0.357 0.289 0.645 0.646 0.645s0.646-0.289 0.646-0.645v-2.163c0-1.727 0.598-3.317 1.599-4.574 0.604 0.207 1.231 0.362 1.877 0.46-1.136 1.047-1.848 2.547-1.848 4.21v2.313c0 0.214 0.173 0.387 0.387 0.387s0.387-0.173 0.387-0.387v-1.978c0.011-0.006 0.021-0.012 0.032-0.019 0.506-0.334 1.401-0.679 2.021-0.679 0.672 0 1.312 0.21 1.851 0.608 0.314 0.232 0.682 0.348 1.050 0.348s0.736-0.116 1.050-0.348c0.539-0.398 1.179-0.608 1.852-0.608 0.642 0 1.481 0.319 1.945 0.619 0.034 0.022 0.071 0.038 0.108 0.048v2.009c0 0.214 0.173 0.387 0.387 0.387s0.387-0.173 0.387-0.387v-2.313c0-1.663-0.713-3.162-1.848-4.21 0.646-0.098 1.273-0.253 1.877-0.46 1 1.257 1.599 2.846 1.599 4.574v2.163c0 0.357 0.289 0.645 0.645 0.645s0.645-0.289 0.645-0.645v-2.163c0-1.899-0.616-3.657-1.657-5.085 0.142-0.069 0.282-0.142 0.42-0.217l5.692 6.463c0.076 0.087 0.037 0.174 0.017 0.208-0.184 0.305-0.086 0.702 0.22 0.886 0.104 0.063 0.219 0.093 0.333 0.093 0.219 0 0.432-0.111 0.553-0.312 0.332-0.551 0.27-1.245-0.154-1.727zM17.579 23.908h-4.517c-2.025 0-3.905-0.636-5.449-1.719 0.446 0.18 0.933 0.281 1.442 0.281 0.435 0 1.223-0.198 1.313-0.221 1.161-0.302 2.919-0.468 4.952-0.468 2.051 0 3.897 0.181 5.063 0.498 0.003 0.001 0.007 0.002 0.010 0.003 0.080 0.019 0.79 0.188 1.192 0.188 0.51 0 0.997-0.1 1.442-0.281-1.545 1.083-3.424 1.719-5.449 1.719zM1.689 18.004c0-0.635 0.297-1.202 0.76-1.569 0.247 1.284 0.722 2.489 1.381 3.569-0.045 0.003-0.090 0.005-0.136 0.005-1.105 0-2.005-0.899-2.005-2.005zM3.654 15.822c0.846 0.167 1.732 0.2 2.629 0.107-0.672 0.695-1.087 1.64-1.087 2.681 0 0.579 0.129 1.128 0.358 1.621-0.979-1.257-1.651-2.764-1.9-4.409zM21.586 21.695c-0.26 0-0.809-0.118-1.005-0.165-1.23-0.332-3.146-0.523-5.26-0.523-2.097 0-3.924 0.175-5.145 0.492-0.298 0.076-0.865 0.196-1.12 0.196-1.701 0-3.085-1.384-3.085-3.085s1.384-3.085 3.085-3.085c0.637 0 0.914 0.134 1.417 0.377 0.212 0.103 0.452 0.219 0.763 0.347 1.262 0.52 2.789 0.83 4.085 0.83 1.349 0 3.078-0.412 4.114-0.795 0.329-0.122 0.606-0.254 0.849-0.37 0.472-0.226 0.813-0.389 1.302-0.389 1.701 0 3.085 1.384 3.085 3.085s-1.384 3.085-3.085 3.085zM19.949 15.215c-0.24 0.115-0.488 0.233-0.784 0.343-1.004 0.371-2.647 0.747-3.845 0.747-1.2 0-2.617-0.288-3.79-0.772-0.289-0.119-0.518-0.23-0.721-0.328-0.302-0.146-0.558-0.27-0.865-0.351 0.816-0.399 1.607-0.9 2.349-1.499 1.269-1.024 2.297-2.25 3.027-3.597 0.73 1.347 1.758 2.572 3.027 3.597 0.758 0.612 1.567 1.121 2.401 1.525-0.28 0.088-0.536 0.209-0.799 0.335zM24.358 15.929c0.897 0.093 1.784 0.060 2.63-0.107-0.249 1.646-0.922 3.154-1.902 4.411 0.23-0.494 0.359-1.043 0.359-1.623 0-1.041-0.415-1.986-1.087-2.681zM28.192 16.435c0.462 0.367 0.76 0.934 0.76 1.569 0 1.105-0.899 2.005-2.005 2.005-0.046 0-0.091-0.002-0.136-0.005 0.659-1.080 1.134-2.284 1.381-3.568zM12.762 3.506h5.117c5.866 0 10.74 4.769 10.865 10.632 0.004 0.206-0.013 0.512-0.062 0.812l-0.616-0.479c-0.169-0.131-0.391-0.17-0.594-0.105-2.566 0.826-5.752 0.054-8.314-2.015-1.494-1.206-2.612-2.717-3.234-4.368-0.095-0.252-0.335-0.418-0.604-0.418s-0.509 0.167-0.604 0.418c-0.622 1.651-1.74 3.162-3.234 4.368-2.564 2.071-5.751 2.842-8.318 2.014-0.207-0.067-0.435-0.025-0.604 0.113l-0.617 0.499c-0.030-0.345-0.043-0.674-0.046-0.851 0.132-5.857 5.003-10.619 10.865-10.619zM2.448 22.606v-1.551c0.385 0.158 0.805 0.245 1.246 0.245 0.33 0 0.648-0.050 0.949-0.141 0.932 1.157 2.097 2.119 3.423 2.814h-4.25c-0.754-0-1.367-0.613-1.367-1.367zM18.222 28.149c-0.839 0-1.638 0.262-2.311 0.759-0.353 0.26-0.827 0.26-1.18 0-0.673-0.497-1.473-0.759-2.311-0.759-0.637 0-1.419 0.255-2.019 0.561 0.055-0.47 0.176-0.921 0.353-1.342 0.498-0.315 1.073-0.482 1.666-0.482 0.896 0 1.749 0.386 2.343 1.058 0.142 0.161 0.345 0.253 0.559 0.253s0.417-0.092 0.559-0.253c0.593-0.672 1.447-1.058 2.343-1.058 0.592 0 1.167 0.166 1.666 0.481 0.176 0.416 0.296 0.861 0.352 1.326-0.563-0.288-1.337-0.543-2.018-0.543zM19.227 26.243c-0.326-0.087-0.663-0.131-1.005-0.131-1.107 0-2.162 0.472-2.902 1.295-0.739-0.824-1.795-1.295-2.902-1.295-0.342 0-0.679 0.045-1.004 0.131 0.319-0.408 0.7-0.765 1.13-1.056 0.172 0.008 0.344 0.012 0.518 0.012h4.517c0.174 0 0.347-0.004 0.519-0.012 0.429 0.292 0.811 0.648 1.129 1.057zM25.999 21.159c0.301 0.091 0.619 0.141 0.948 0.141 0.441 0 0.861-0.088 1.246-0.245v1.551c0 0.754-0.613 1.367-1.367 1.367h-2.3l-0.685-0.777c0.809-0.577 1.536-1.263 2.158-2.036z"></path>
<path d="M22.71 12.060c-0.214 0-0.387-0.173-0.387-0.387v-0.731c0-0.214 0.173-0.387 0.387-0.387s0.387 0.173 0.387 0.387v0.731c0 0.214-0.173 0.387-0.387 0.387z"></path>
<path d="M24.577 10.623c-0.214 0-0.387-0.173-0.387-0.387v-0.731c0-0.214 0.173-0.387 0.387-0.387s0.387 0.173 0.387 0.387v0.731c0 0.214-0.173 0.387-0.387 0.387z"></path>
<path d="M26.229 13.219c-0.214 0-0.387-0.173-0.387-0.387v-0.731c0-0.214 0.173-0.387 0.387-0.387s0.387 0.173 0.387 0.387v0.731c0 0.214-0.173 0.387-0.387 0.387z"></path>
</svg>
