<!-- Generated by IcoMoon.io -->
<svg version="1.1" xmlns="http://www.w3.org/2000/svg" width="32" height="32" viewBox="0 0 32 32">
<title>thief</title>
<path d="M3.491 0.154l0.516 1.452c0.022 0.062 0.066 0.111 0.121 0.136l1.29 0.581c0.182 0.082 0.182 0.373 0 0.455l-1.29 0.581c-0.055 0.025-0.099 0.074-0.121 0.136l-0.516 1.452c-0.073 0.205-0.331 0.205-0.404 0l-0.516-1.452c-0.022-0.062-0.066-0.111-0.121-0.136l-1.29-0.581c-0.182-0.082-0.182-0.373 0-0.455l1.29-0.581c0.055-0.025 0.099-0.074 0.121-0.136l0.516-1.452c0.073-0.205 0.331-0.205 0.404 0z"></path>
<path d="M29.446 4.121l0.383 1.077c0.016 0.046 0.049 0.083 0.090 0.101l0.957 0.431c0.135 0.061 0.135 0.276 0 0.337l-0.957 0.431c-0.041 0.018-0.073 0.055-0.090 0.101l-0.383 1.077c-0.054 0.152-0.245 0.152-0.3 0l-0.383-1.077c-0.016-0.046-0.049-0.083-0.090-0.101l-0.957-0.431c-0.135-0.061-0.135-0.276 0-0.337l0.957-0.431c0.041-0.019 0.073-0.055 0.090-0.101l0.383-1.077c0.054-0.152 0.246-0.152 0.3 0z"></path>
<path d="M29.178 26.31c0.576 0.239 0.849 0.898 0.61 1.474s-0.898 0.849-1.474 0.61c-0.576-0.239-0.849-0.898-0.61-1.474s0.898-0.849 1.474-0.61z"></path>
<path d="M26.128 2.655c0 0.269-0.218 0.486-0.486 0.486s-0.486-0.218-0.486-0.486c0-0.269 0.218-0.486 0.486-0.486s0.486 0.218 0.486 0.486z"></path>
<path d="M29.302 16.146c0.433-0.298 0.718-0.797 0.718-1.362v-2.731c0-0.911-0.741-1.653-1.653-1.653h-0.070c-1.643-4.355-5.714-7.446-10.465-7.446h-4.337c-4.751 0-8.822 3.091-10.465 7.447h-0.188c-0.911 0-1.653 0.742-1.653 1.653v2.731c0 0.596 0.317 1.119 0.792 1.41-0.528 0.572-0.852 1.335-0.852 2.174 0 1.77 1.44 3.21 3.21 3.21 0.321 0 0.632-0.048 0.924-0.136 0.967 1.201 2.193 2.186 3.591 2.87-1.014 1.391-1.614 3.103-1.614 4.952v2.107c0 0.347 0.282 0.629 0.629 0.629s0.629-0.282 0.629-0.629v-2.107c0-1.683 0.583-3.231 1.558-4.455 0.588 0.202 1.199 0.353 1.828 0.448-1.106 1.020-1.8 2.481-1.8 4.1v2.253c0 0.208 0.169 0.377 0.377 0.377s0.377-0.169 0.377-0.377v-2.253c0-1.66 0.843-3.125 2.122-3.994 0.167 0.008 0.335 0.012 0.504 0.012h4.399c0.169 0 0.337-0.004 0.504-0.012 1.279 0.868 2.122 2.334 2.122 3.994v2.253c0 0.208 0.169 0.377 0.377 0.377s0.377-0.169 0.377-0.377v-2.253c0-1.62-0.694-3.080-1.8-4.1 0.629-0.095 1.24-0.246 1.828-0.448 0.975 1.224 1.558 2.773 1.558 4.455v2.107c0 0.347 0.282 0.629 0.629 0.629s0.629-0.282 0.629-0.629v-2.107c0-1.85-0.6-3.561-1.614-4.952 1.399-0.684 2.624-1.669 3.591-2.871 0.293 0.088 0.603 0.137 0.924 0.137 1.77 0 3.21-1.44 3.21-3.21 0-0.862-0.342-1.645-0.896-2.222zM24.981 20.78h-18.634c-1.020-1.222-1.733-2.71-2.016-4.343h22.666c-0.283 1.633-0.995 3.121-2.016 4.343zM24.277 21.535c-1.666 1.599-3.927 2.584-6.413 2.584h-4.399c-2.486 0-4.747-0.985-6.413-2.584zM10.885 11.658v3.522h-3.647v-3.522zM20.442 15.179v-3.522h3.647v3.522zM19.688 15.179h-3.647v-3.522h3.647zM15.286 15.179h-3.647v-3.522h3.647zM28.762 12.053v2.731c0 0.218-0.177 0.395-0.395 0.395h-3.523v-3.522h3.523c0.218 0 0.395 0.177 0.395 0.395zM13.495 4.211h4.337c4.051 0 7.546 2.544 9.11 6.189h-22.557c1.564-3.645 5.059-6.189 9.11-6.189zM2.447 12.053c0-0.218 0.177-0.395 0.395-0.395h3.641v3.522h-3.641c-0.218 0-0.395-0.177-0.395-0.395zM4.339 20.32c-1.077 0-1.953-0.876-1.953-1.953 0-0.619 0.29-1.17 0.74-1.528 0.24 1.251 0.703 2.423 1.345 3.475-0.044 0.003-0.088 0.005-0.133 0.005zM26.988 20.32c-0.045 0-0.089-0.002-0.133-0.005 0.642-1.052 1.105-2.225 1.345-3.477 0.45 0.358 0.74 0.91 0.74 1.529 0 1.077-0.876 1.953-1.953 1.953z"></path>
<path d="M11.943 5.934c-0.675 0.135-1.336 0.362-1.964 0.675-0.311 0.155-0.437 0.532-0.283 0.843 0.11 0.221 0.332 0.349 0.563 0.349 0.094 0 0.19-0.021 0.28-0.066 0.529-0.263 1.085-0.455 1.651-0.568 0.341-0.068 0.561-0.399 0.493-0.74s-0.399-0.561-0.74-0.493z"></path>
<path d="M8.045 7.958c-0.095 0.089-0.189 0.182-0.279 0.276-0.241 0.25-0.233 0.648 0.017 0.889 0.122 0.117 0.279 0.175 0.436 0.175 0.165 0 0.33-0.065 0.453-0.193 0.076-0.079 0.155-0.158 0.235-0.233 0.253-0.238 0.264-0.636 0.026-0.889s-0.636-0.264-0.889-0.026z"></path>
<path d="M10.536 18.153c0.431 0.431 0.431 1.131 0 1.562s-1.131 0.431-1.562 0c-0.431-0.431-0.431-1.131 0-1.562s1.131-0.431 1.562 0z"></path>
<path d="M21.824 17.87c0.594 0.14 0.961 0.736 0.821 1.329s-0.736 0.961-1.329 0.821c-0.594-0.14-0.961-0.736-0.821-1.329s0.736-0.961 1.329-0.821z"></path>
<path d="M16.567 26.558c-0.208 0-0.377 0.169-0.377 0.377v0.712c0 0.208 0.169 0.377 0.377 0.377s0.377-0.169 0.377-0.377v-0.712c0-0.208-0.169-0.377-0.377-0.377z"></path>
<path d="M18.708 27.517c-0.208 0-0.377 0.169-0.377 0.377v0.712c0 0.208 0.169 0.377 0.377 0.377s0.377-0.169 0.377-0.377v-0.712c0-0.208-0.169-0.377-0.377-0.377z"></path>
<path d="M17.479 28.774c-0.208 0-0.377 0.169-0.377 0.377v0.712c0 0.208 0.169 0.377 0.377 0.377s0.377-0.169 0.377-0.377v-0.712c0-0.208-0.169-0.377-0.377-0.377z"></path>
</svg>
