<!-- Generated by IcoMoon.io -->
<svg version="1.1" xmlns="http://www.w3.org/2000/svg" width="32" height="32" viewBox="0 0 32 32">
<title>troglodyte</title>
<path d="M31.858 28.012l-1.336-0.602c-0.057-0.026-0.102-0.077-0.125-0.141l-0.535-1.504c-0.076-0.212-0.343-0.212-0.418 0l-0.535 1.504c-0.023 0.064-0.068 0.115-0.125 0.141l-1.336 0.602c-0.189 0.085-0.189 0.386 0 0.471l1.336 0.602c0.057 0.026 0.102 0.077 0.125 0.141l0.535 1.504c0.076 0.212 0.343 0.212 0.418 0l0.535-1.504c0.023-0.064 0.068-0.115 0.125-0.141l1.336-0.602c0.189-0.085 0.189-0.386-0-0.471z"></path>
<path d="M4.367 27.857l-0.991-0.447c-0.042-0.019-0.076-0.057-0.093-0.105l-0.397-1.115c-0.056-0.158-0.254-0.158-0.31 0l-0.397 1.115c-0.017 0.048-0.051 0.086-0.093 0.105l-0.991 0.447c-0.14 0.063-0.14 0.286 0 0.349l0.991 0.447c0.042 0.019 0.076 0.057 0.093 0.105l0.397 1.115c0.056 0.158 0.254 0.158 0.31 0l0.397-1.115c0.017-0.048 0.051-0.086 0.093-0.105l0.991-0.447c0.14-0.063 0.14-0.286 0-0.349z"></path>
<path d="M0.504 22.514c-0.278 0-0.504 0.225-0.504 0.504s0.226 0.504 0.504 0.504 0.504-0.226 0.504-0.504-0.226-0.504-0.504-0.504z"></path>
<path d="M9.733 17.090c-0.632 0-1.144 0.512-1.144 1.144s0.512 1.144 1.144 1.144 1.144-0.512 1.144-1.144c-0-0.632-0.512-1.144-1.144-1.144z"></path>
<path d="M21.962 17.090c-0.632 0-1.144 0.512-1.144 1.144s0.512 1.144 1.144 1.144 1.144-0.512 1.144-1.144c-0-0.632-0.512-1.144-1.144-1.144z"></path>
<path d="M24.167 12.85l-4.858-3.184c-0.193-0.127-0.434-0.144-0.643-0.046s-0.351 0.293-0.379 0.522l-0.22 1.835c-0.017 0.14-0.098 0.258-0.223 0.322s-0.268 0.064-0.392-0.003l-4.707-2.543c-0.128-0.069-0.283-0.061-0.404 0.020l-4.4 2.959c-0.021 0.014-0.040 0.030-0.058 0.048-1.888 1.885-1.672 4.926-1.645 5.227 0.010 1.921 1.576 3.481 3.5 3.481 1.93 0 3.5-1.57 3.5-3.5 0-0.004-0-0.008-0-0.012 0.006-1.436 1.177-2.603 2.615-2.603s2.608 1.166 2.615 2.601c-0 0.004-0 0.009-0 0.013 0 1.93 1.57 3.5 3.5 3.5 1.925 0 3.492-1.563 3.5-3.486 0.017-0.258 0.171-3.181-1.196-5.054-0.028-0.038-0.062-0.071-0.101-0.096zM24.684 17.959c-0.001 0.009-0.001 0.018-0.001 0.028 0 1.499-1.22 2.718-2.718 2.718-1.495 0-2.711-1.212-2.718-2.705 0-0.004 0-0.009 0-0.013 0-1.873-1.523-3.396-3.396-3.396s-3.396 1.523-3.396 3.396c0 0.004 0 0.008 0 0.012-0.006 1.494-1.223 2.707-2.718 2.707-1.499 0-2.719-1.22-2.719-2.718 0-0.012-0.001-0.026-0.002-0.038-0.003-0.029-0.259-2.91 1.392-4.591l4.172-2.806 4.5 2.43c0.35 0.189 0.77 0.193 1.123 0.010s0.592-0.528 0.64-0.923l0.198-1.646 4.638 3.040c1.186 1.692 1.008 4.468 1.006 4.496z"></path>
<path d="M10.837 14.499c-0.051-0.026-0.516-0.255-1.104-0.255s-1.053 0.229-1.104 0.255c-0.191 0.098-0.267 0.332-0.17 0.523s0.332 0.269 0.524 0.173c0.003-0.002 0.345-0.17 0.751-0.17s0.748 0.168 0.749 0.169c0.057 0.029 0.117 0.043 0.177 0.043 0.142 0 0.279-0.078 0.348-0.213 0.098-0.192 0.022-0.428-0.17-0.525z"></path>
<path d="M23.066 14.499c-0.051-0.026-0.516-0.255-1.104-0.255s-1.053 0.229-1.105 0.255c-0.192 0.098-0.267 0.332-0.17 0.523s0.332 0.269 0.524 0.173c0.003-0.002 0.345-0.17 0.751-0.17s0.747 0.168 0.749 0.169c0.057 0.029 0.118 0.043 0.177 0.043 0.142 0 0.279-0.078 0.348-0.213 0.098-0.192 0.022-0.427-0.17-0.525z"></path>
<path d="M16.991 17.843c-0.216 0-0.391 0.175-0.391 0.391 0 0.416-0.338 0.754-0.753 0.754s-0.754-0.338-0.754-0.754c0-0.216-0.175-0.391-0.391-0.391s-0.391 0.175-0.391 0.391c0 0.846 0.688 1.535 1.535 1.535s1.535-0.689 1.535-1.535c0-0.216-0.175-0.391-0.39-0.391z"></path>
<path d="M30.896 17.646c0-0.636-0.18-1.23-0.492-1.735 0.125-0.478 0.205-1.007 0.245-1.593 0.001-0.017 0.002-0.034 0.002-0.051v-1.202c0-7.071-5.753-12.824-12.824-12.824h-3.959c-7.071-0-12.824 5.753-12.824 12.824v1.202c0 0.010 0 0.021 0.001 0.031 0.024 0.59 0.119 1.114 0.265 1.582-0.323 0.512-0.511 1.118-0.511 1.767 0 1.507 1.009 2.782 2.387 3.188-0.036 2.586 0.907 3.768 1.733 4.306 0.599 0.39 1.313 0.545 2.004 0.457 0.107 0.394 0.276 0.761 0.495 1.091-0.19 0.715-0.292 1.465-0.292 2.24v2.182c0 0.36 0.292 0.651 0.651 0.651s0.651-0.291 0.651-0.651v-2.182c0-0.397 0.032-0.786 0.092-1.166 0.472 0.296 1.015 0.483 1.597 0.527-0.031 0.241-0.048 0.486-0.048 0.735v2.332c0 0.216 0.175 0.391 0.391 0.391s0.391-0.175 0.391-0.391v-1.113l0.047 0.331c0.060 0.424 0.334 0.772 0.731 0.932 0.145 0.058 0.296 0.087 0.445 0.087 0.259 0 0.514-0.087 0.728-0.254l0.879-0.689c0.337-0.264 0.502-0.675 0.441-1.099s-0.334-0.772-0.731-0.932l-1.036-0.416c-0.397-0.16-0.836-0.097-1.173 0.167-0.138 0.108-0.246 0.241-0.323 0.389 0.009-0.168 0.026-0.334 0.051-0.497 0.737-0.111 1.412-0.452 1.942-0.962 0.555 0.965 1.453 1.63 2.489 1.795l-0.358 0.366c-0.3 0.306-0.41 0.735-0.295 1.147s0.432 0.723 0.847 0.829l1.082 0.278c0.1 0.026 0.201 0.038 0.3 0.038 0.313 0 0.614-0.125 0.841-0.357 0.3-0.306 0.41-0.735 0.295-1.148l-0.3-1.076c-0.052-0.185-0.144-0.349-0.267-0.483 0.192-0.112 0.374-0.243 0.544-0.391 0.005 0.008 0.010 0.016 0.016 0.024l0.651 0.907c0.226 0.315 0.578 0.494 0.958 0.494 0.040 0 0.081-0.002 0.121-0.006 0.426-0.042 0.786-0.301 0.962-0.691l0.101-0.223c0.003 0.073 0.005 0.147 0.005 0.221v2.332c0 0.216 0.175 0.391 0.391 0.391s0.391-0.175 0.391-0.391v-2.332c0-0.249-0.016-0.494-0.047-0.735 0.581-0.045 1.125-0.231 1.596-0.527 0.060 0.38 0.093 0.769 0.093 1.166v2.182c0 0.36 0.291 0.651 0.651 0.651s0.651-0.291 0.651-0.651v-2.182c0-0.774-0.102-1.525-0.292-2.24 0.24-0.36 0.419-0.764 0.523-1.199 0.66 0.014 1.303-0.178 1.848-0.563 1.061-0.75 1.673-2.122 1.822-4.080 1.398-0.392 2.427-1.678 2.427-3.199zM11.664 28.983c0.055-0.043 0.204-0.135 0.4-0.057l1.036 0.416c0.195 0.078 0.239 0.248 0.249 0.317s0.015 0.245-0.15 0.375l-0.879 0.689c-0.165 0.13-0.334 0.083-0.399 0.057s-0.219-0.109-0.249-0.317l-0.158-1.106c-0.030-0.208 0.095-0.331 0.15-0.374zM29.594 17.656c-0.004 0.748-0.416 1.401-1.025 1.747l0.058-0.799c0.378-0.275 0.699-0.589 0.967-0.948zM2.1 17.646c0-0.061 0.004-0.121 0.009-0.18 0.321 0.441 0.682 0.807 1.036 1.12l0.025 0.843c-0.636-0.341-1.071-1.012-1.071-1.783zM17.199 30.848c-0.049 0.050-0.185 0.161-0.389 0.108l-1.082-0.278c-0.204-0.052-0.27-0.215-0.288-0.282s-0.047-0.241 0.1-0.391l0.781-0.798c0.096-0.098 0.203-0.122 0.284-0.122 0.044 0 0.081 0.007 0.104 0.013 0.068 0.017 0.232 0.080 0.288 0.282l0.3 1.076c0.057 0.203-0.051 0.341-0.1 0.391zM20.026 28.704c-0.087 0.192-0.258 0.228-0.328 0.235s-0.245 0.005-0.368-0.166l-0.651-0.907c-0.050-0.069-0.070-0.138-0.075-0.199 0.085-0.117 0.165-0.24 0.239-0.368 0.406 0.391 0.897 0.682 1.435 0.847zM27.487 17.526c-0.209 0.129-0.343 0.351-0.361 0.596l-0.162 2.228c-0.001 0.008-0.001 0.016-0.001 0.024-0.088 2.089-0.701 2.948-1.2 3.301-0.565 0.4-1.169 0.277-1.402 0.205s-0.485-0.028-0.68 0.116-0.311 0.373-0.311 0.616c0 1.189-0.926 2.156-2.064 2.156-0.876 0-1.659-0.58-1.948-1.444-0.113-0.337-0.444-0.553-0.798-0.519s-0.639 0.306-0.687 0.659c-0.167 1.22-1.038 2.139-2.025 2.139s-1.858-0.92-2.025-2.139c-0.048-0.353-0.333-0.625-0.687-0.659-0.024-0.002-0.048-0.003-0.072-0.003-0.326 0-0.62 0.208-0.726 0.523-0.29 0.864-1.073 1.444-1.949 1.444-1.138 0-2.064-0.967-2.064-2.156 0-0.267-0.139-0.514-0.366-0.653s-0.511-0.15-0.748-0.029c-0.347 0.177-0.936 0.264-1.455-0.074-0.756-0.493-1.12-1.703-1.023-3.407 0.001-0.022 0.002-0.044 0.001-0.066l-0.065-2.182c-0.007-0.22-0.108-0.427-0.278-0.568-0.899-0.742-1.74-1.666-1.813-3.382v-1.187c0-6.226 5.066-11.292 11.292-11.292h3.959c6.226 0 11.292 5.066 11.292 11.292v1.176c-0.117 1.688-0.591 2.641-1.632 3.286z"></path>
<path d="M16.518 22.821c-0.216 0-0.391 0.175-0.391 0.391v0.738c0 0.216 0.175 0.391 0.391 0.391s0.391-0.175 0.391-0.391v-0.738c-0-0.216-0.175-0.391-0.391-0.391z"></path>
<path d="M18.686 21.747c-0.216 0-0.391 0.175-0.391 0.391v0.738c0 0.216 0.175 0.391 0.391 0.391s0.391-0.175 0.391-0.391v-0.738c0-0.216-0.175-0.391-0.391-0.391z"></path>
<path d="M21.214 23.473c-0.216 0-0.391 0.175-0.391 0.391v0.738c0 0.216 0.175 0.391 0.391 0.391s0.391-0.175 0.391-0.391v-0.738c0-0.216-0.175-0.391-0.391-0.391z"></path>
<path d="M10.095 5.904c0.108 0 0.217-0.027 0.318-0.084 0.196-0.11 0.4-0.215 0.606-0.311 0.326-0.152 0.467-0.539 0.315-0.865s-0.539-0.467-0.865-0.315c-0.236 0.11-0.469 0.229-0.693 0.356-0.313 0.176-0.425 0.573-0.249 0.886 0.119 0.213 0.341 0.332 0.568 0.332z"></path>
<path d="M6.473 9.289c0.091 0.044 0.188 0.065 0.282 0.065 0.242 0 0.474-0.136 0.587-0.368 0.378-0.784 0.92-1.497 1.609-2.12 0.267-0.241 0.288-0.653 0.047-0.919s-0.652-0.288-0.919-0.047c-0.815 0.736-1.458 1.584-1.909 2.521-0.156 0.324-0.020 0.713 0.303 0.869z"></path>
</svg>
