<!-- Generated by IcoMoon.io -->
<svg version="1.1" xmlns="http://www.w3.org/2000/svg" width="32" height="32" viewBox="0 0 32 32">
<title>viking</title>
<path d="M29.422 24.574l0.515 1.449c0.022 0.062 0.066 0.111 0.121 0.136l1.287 0.58c0.182 0.082 0.182 0.372 0 0.454l-1.287 0.58c-0.055 0.025-0.099 0.074-0.121 0.136l-0.515 1.449c-0.073 0.205-0.33 0.205-0.403 0l-0.515-1.449c-0.022-0.062-0.066-0.111-0.121-0.136l-1.287-0.58c-0.182-0.082-0.182-0.372 0-0.454l1.287-0.58c0.055-0.025 0.099-0.074 0.121-0.136l0.515-1.449c0.073-0.205 0.33-0.205 0.403 0z"></path>
<path d="M2.345 22.676l0.382 1.075c0.016 0.046 0.049 0.082 0.090 0.101l0.955 0.43c0.135 0.061 0.135 0.276 0 0.336l-0.955 0.43c-0.041 0.018-0.073 0.055-0.090 0.101l-0.382 1.075c-0.054 0.152-0.245 0.152-0.299 0l-0.382-1.075c-0.016-0.046-0.049-0.082-0.090-0.101l-0.955-0.43c-0.135-0.061-0.135-0.276 0-0.336l0.955-0.43c0.041-0.018 0.073-0.055 0.090-0.101l0.382-1.075c0.054-0.152 0.245-0.152 0.299 0z"></path>
<path d="M5.401 29.263c0 0.621-0.504 1.125-1.125 1.125s-1.125-0.504-1.125-1.125c0-0.621 0.504-1.125 1.125-1.125s1.125 0.504 1.125 1.125z"></path>
<path d="M29.2 15.727c0.11-0.552 0.169-0.982 0.197-1.229 0.652-0.198 1.128-0.805 1.128-1.521v-2.307c0-0.877-0.713-1.59-1.59-1.59h-0.187c-0.219-0.581-0.482-1.14-0.783-1.671 1.691-0.665 2.606-2.074 2.45-3.915-0.002-0.022-0.005-0.044-0.009-0.065l-0.492-2.567c-0.006-0.029-0.013-0.057-0.023-0.085-0.154-0.452-0.519-0.741-0.974-0.774-0.474-0.034-0.967 0.232-1.172 0.633-0.383 0.749-1.070 1.771-1.744 2.367v0c-0.294 0.26-0.89 0.453-1.522 0.585-1.611-1.112-3.512-1.802-5.557-1.918v-0.083c0-0.68-0.553-1.233-1.233-1.233h-3.088c-0.68 0-1.233 0.553-1.233 1.233v0.083c-2.045 0.116-3.947 0.806-5.558 1.918-0.631-0.131-1.228-0.325-1.521-0.585 0 0 0-0-0-0-0.673-0.596-1.361-1.618-1.744-2.367-0.205-0.401-0.697-0.667-1.172-0.633-0.456 0.033-0.82 0.322-0.974 0.774-0.010 0.028-0.017 0.056-0.023 0.085l-0.492 2.567c-0.004 0.022-0.007 0.043-0.009 0.065-0.156 1.839 0.757 3.249 2.45 3.915-0.302 0.532-0.564 1.090-0.783 1.671h-0.187c-0.877 0-1.59 0.713-1.59 1.59v2.307c0 0.714 0.474 1.32 1.123 1.52 0.024 0.255 0.074 0.689 0.178 1.247-0.856 0.575-1.421 1.552-1.421 2.658 0 1.766 1.437 3.202 3.202 3.202 0.205 0 0.406-0.020 0.601-0.057 0.945 1.313 2.11 2.358 3.458 3.088 0.056 0.030 0.115 0.061 0.174 0.091-0.847 1.311-1.339 2.872-1.339 4.545v2.102c0 0.346 0.281 0.627 0.627 0.627s0.627-0.281 0.627-0.627v-2.102c0-1.491 0.459-2.877 1.244-4.024 0.338 0.139 0.688 0.275 1.034 0.41 0.178 0.070 0.361 0.141 0.542 0.212-0.773 0.956-1.238 2.172-1.238 3.495v2.247c0 0.208 0.168 0.376 0.376 0.376s0.376-0.169 0.376-0.376v-2.247c0-1.226 0.461-2.345 1.218-3.196 0.311 0.132 0.602 0.264 0.847 0.393-0.025 0.089-0.039 0.183-0.039 0.28v0.411c0 0.318 0.143 0.603 0.367 0.796-0.107 0.385-0.189 0.8-0.136 1.227 0.198 1.593 1.882 2.415 2.556 2.415 0.778 0 2.4-0.96 2.612-2.465 0.058-0.413-0.044-0.83-0.17-1.219 0.197-0.191 0.321-0.457 0.321-0.753v-0.411c0-0.085-0.011-0.168-0.031-0.248 0.256-0.132 0.561-0.268 0.884-0.402 0.744 0.848 1.197 1.957 1.197 3.171v2.247c0 0.208 0.169 0.376 0.376 0.376s0.376-0.169 0.376-0.376v-2.247c0-1.309-0.455-2.514-1.214-3.465 0.146-0.057 0.293-0.113 0.436-0.168 0.381-0.146 0.768-0.295 1.14-0.447 0.769 1.14 1.22 2.512 1.22 3.988v2.102c0 0.346 0.281 0.627 0.627 0.627s0.627-0.281 0.627-0.627v-2.102c0-1.659-0.485-3.207-1.318-4.511 0.035-0.018 0.070-0.036 0.104-0.054 1.35-0.725 2.525-1.797 3.483-3.165 0.202 0.041 0.411 0.062 0.626 0.062 1.766 0 3.202-1.436 3.202-3.202 0-1.117-0.575-2.102-1.445-2.675zM26.833 3.942c0.775-0.686 1.486-1.735 1.913-2.514l0.422 2.203c0.126 1.652-0.896 2.38-1.896 2.698-0.466-0.646-0.995-1.241-1.577-1.773 0.439-0.153 0.845-0.353 1.139-0.613zM18.922 2.926c3.778 0.242 6.993 2.703 8.473 6.153h-8.473zM14.623 1.608h3.045v7.471h-3.045zM13.369 2.926v6.153h-8.473c1.48-3.45 4.695-5.911 8.473-6.153zM3.124 3.631l0.422-2.203c0.426 0.78 1.138 1.829 1.913 2.514 0.294 0.26 0.7 0.46 1.138 0.613-0.582 0.532-1.111 1.126-1.577 1.772-1.001-0.319-2.022-1.046-1.896-2.697zM3.021 10.669c0-0.185 0.15-0.335 0.335-0.335h25.579c0.185 0 0.335 0.15 0.335 0.335v2.307c0 0.185-0.15 0.335-0.335 0.335h-25.579c-0.185 0-0.335-0.15-0.335-0.335zM18.172 17.501c-0.022-0.005-0.044-0.009-0.068-0.011-0.782-0.060-1.509 0.308-1.937 0.91-0.438-0.62-1.189-0.988-1.997-0.905-1.003 0.103-1.812 0.904-1.924 1.906-0.024 0.484-0.047 1.115-0.24 1.505-0.47 0.421-1.088 0.673-1.749 0.673-1.444 0-2.619-1.175-2.619-2.619 0-0.012-0.001-0.025-0.002-0.037-0.003-0.028-0.243-2.729 1.278-4.357h14.749c1.171 1.627 0.997 4.34 0.995 4.367-0.001 0.009-0.001 0.018-0.001 0.027 0 1.444-1.175 2.619-2.619 2.619-0.664 0-1.288-0.258-1.761-0.686-0.19-0.391-0.209-1.011-0.235-1.492-0.11-0.984-0.893-1.775-1.872-1.9zM19.622 21.278c-0.741 0.011-2.069-0.131-2.682-0.573l-0.005-0.004c-0.002-0.002-0.005-0.004-0.007-0.006-0.43-0.331-1.1-0.33-1.526 0.001-0.584 0.454-1.93 0.595-2.733 0.581 0.548-1.036-0.124-2.793 1.578-3.034 0.755-0.077 1.435 0.447 1.546 1.194 0.027 0.184 0.186 0.321 0.372 0.321s0.345-0.136 0.372-0.321c0.107-0.715 0.746-1.234 1.468-1.2 1.747 0.221 1.065 1.984 1.617 3.039zM2.901 18.401c0-0.491 0.183-0.94 0.484-1.283 0.101 0.367 0.222 0.755 0.367 1.156 0.265 0.736 0.577 1.426 0.934 2.068-0.998-0.083-1.785-0.921-1.785-1.941zM17.516 29.050c-0.12 0.848-1.114 1.348-1.371 1.385-0.25-0.034-1.21-0.506-1.311-1.315-0.029-0.234 0.037-0.523 0.123-0.819h2.407c0.095 0.281 0.177 0.566 0.151 0.749zM18.156 27.253c0 0.163-0.133 0.296-0.296 0.296h-3.455c-0.163 0-0.295-0.133-0.295-0.296v-0.411c0-0.163 0.133-0.296 0.295-0.296h3.455c0.163 0 0.296 0.133 0.296 0.296zM22.74 23.6c-0.607 0.326-1.445 0.648-2.256 0.959-1.054 0.405-2.059 0.791-2.716 1.234h-3.224c-0.661-0.466-1.713-0.877-2.815-1.306-0.805-0.314-1.638-0.638-2.225-0.956-2.073-1.122-3.607-3.022-4.56-5.648-0.52-1.434-0.717-2.707-0.786-3.317h3.791c-1.254 1.795-1.086 4.153-1.063 4.412 0.010 1.851 1.518 3.354 3.372 3.354 0.622 0 1.215-0.174 1.726-0.48 0.177 0.164 0.448 0.172 0.604 0.177 0.059 0.002 0.121 0.003 0.187 0.003 0.873-0 2.334-0.153 3.089-0.741 0.15-0.117 0.447-0.117 0.602-0.001l0.008 0.007c0.005 0.004 0.010 0.008 0.015 0.011 0.845 0.618 2.473 0.742 3.214 0.721 0.157-0.004 0.431-0.012 0.608-0.18 0.512 0.308 1.107 0.483 1.729 0.483 1.855 0 3.365-1.506 3.372-3.359 0.015-0.228 0.141-2.62-0.857-4.407h3.568c-0.085 0.629-0.311 1.929-0.851 3.382-0.991 2.668-2.516 4.57-4.531 5.652zM27.557 20.345c0.339-0.62 0.641-1.285 0.903-1.994 0.163-0.442 0.299-0.869 0.412-1.27 0.321 0.347 0.517 0.811 0.517 1.32 0 1.035-0.812 1.884-1.833 1.944z"></path>
<path d="M11.319 15.37c-0.049-0.025-0.497-0.245-1.064-0.245s-1.015 0.22-1.064 0.245c-0.184 0.094-0.257 0.319-0.164 0.504s0.319 0.259 0.505 0.167c0.003-0.002 0.333-0.164 0.723-0.164s0.72 0.162 0.722 0.163c0.055 0.028 0.113 0.041 0.171 0.041 0.137 0 0.269-0.075 0.335-0.205 0.094-0.185 0.021-0.412-0.164-0.506z"></path>
<path d="M21.313 16.041c0.003-0.002 0.333-0.164 0.723-0.164s0.72 0.162 0.722 0.163c0.055 0.028 0.113 0.041 0.171 0.041 0.137 0 0.269-0.075 0.335-0.205 0.095-0.185 0.021-0.412-0.164-0.506-0.049-0.025-0.497-0.245-1.064-0.245s-1.015 0.22-1.064 0.245c-0.184 0.094-0.257 0.319-0.164 0.504s0.319 0.259 0.505 0.167z"></path>
<path d="M10.138 6.124c0.094 0 0.189-0.021 0.279-0.066 0.528-0.263 1.082-0.454 1.646-0.567 0.34-0.068 0.56-0.399 0.492-0.738s-0.399-0.56-0.738-0.492c-0.673 0.135-1.332 0.361-1.959 0.674-0.31 0.154-0.436 0.531-0.282 0.841 0.11 0.22 0.332 0.348 0.562 0.348z"></path>
<path d="M8.237 7.339c0.165 0 0.329-0.064 0.452-0.192 0.077-0.080 0.156-0.158 0.235-0.233 0.252-0.238 0.264-0.635 0.026-0.887s-0.635-0.264-0.887-0.026c-0.094 0.089-0.188 0.181-0.278 0.276-0.24 0.25-0.232 0.647 0.017 0.887 0.122 0.117 0.278 0.175 0.435 0.175z"></path>
<path d="M11.338 18.792c0.097 0.601-0.311 1.167-0.912 1.264s-1.167-0.311-1.264-0.912c-0.097-0.601 0.311-1.167 0.912-1.264s1.167 0.311 1.264 0.912z"></path>
<path d="M23.064 18.541c0.233 0.563-0.034 1.208-0.596 1.441s-1.207-0.034-1.441-0.596c-0.233-0.563 0.034-1.208 0.596-1.441s1.207 0.034 1.441 0.596z"></path>
</svg>
