<!-- Generated by IcoMoon.io -->
<svg version="1.1" xmlns="http://www.w3.org/2000/svg" width="32" height="32" viewBox="0 0 32 32">
<title>witch</title>
<path d="M2.53 0.214l0.514 1.445c0.022 0.062 0.066 0.111 0.12 0.136l1.284 0.578c0.181 0.082 0.181 0.371 0 0.452l-1.284 0.578c-0.055 0.025-0.099 0.074-0.12 0.136l-0.514 1.445c-0.073 0.204-0.329 0.204-0.402 0l-0.514-1.445c-0.022-0.062-0.066-0.111-0.121-0.136l-1.284-0.578c-0.181-0.082-0.181-0.371 0-0.452l1.284-0.578c0.055-0.025 0.099-0.074 0.121-0.136l0.514-1.445c0.073-0.204 0.329-0.204 0.402 0z"></path>
<path d="M30.148 3.119l0.381 1.072c0.016 0.046 0.049 0.082 0.089 0.101l0.952 0.429c0.134 0.061 0.134 0.275 0 0.336l-0.952 0.429c-0.041 0.018-0.073 0.055-0.089 0.101l-0.381 1.072c-0.054 0.151-0.244 0.151-0.298 0l-0.381-1.072c-0.016-0.046-0.049-0.082-0.089-0.101l-0.952-0.429c-0.134-0.061-0.134-0.275 0-0.336l0.952-0.429c0.041-0.018 0.073-0.055 0.089-0.101l0.381-1.072c0.054-0.151 0.244-0.151 0.298 0z"></path>
<path d="M27.592 0.937c0.264 0.043 0.443 0.291 0.4 0.555s-0.291 0.443-0.555 0.4c-0.264-0.043-0.443-0.291-0.4-0.555s0.291-0.443 0.555-0.4z"></path>
<path d="M11.178 15.925c-0.049-0.025-0.495-0.245-1.061-0.245s-1.012 0.22-1.061 0.245c-0.184 0.094-0.257 0.319-0.164 0.503s0.319 0.259 0.503 0.166c0.003-0.002 0.332-0.163 0.722-0.163s0.718 0.162 0.72 0.163c0.055 0.028 0.113 0.041 0.17 0.041 0.137 0 0.268-0.075 0.335-0.205 0.094-0.185 0.021-0.411-0.164-0.505z"></path>
<path d="M22.929 15.925c-0.049-0.025-0.495-0.245-1.061-0.245s-1.012 0.22-1.061 0.245c-0.184 0.094-0.257 0.318-0.164 0.503s0.319 0.259 0.503 0.166c0.003-0.002 0.332-0.163 0.722-0.163s0.718 0.162 0.72 0.163c0.055 0.028 0.113 0.041 0.17 0.041 0.137 0 0.268-0.075 0.335-0.205 0.094-0.185 0.021-0.411-0.164-0.505z"></path>
<path d="M17.091 18.575c-0.207 0-0.375 0.168-0.375 0.375 0 0.399-0.325 0.724-0.724 0.724s-0.724-0.325-0.724-0.724c0-0.207-0.168-0.375-0.375-0.375s-0.375 0.168-0.375 0.375c0 0.813 0.662 1.475 1.475 1.475s1.475-0.662 1.475-1.475c-0-0.207-0.168-0.375-0.375-0.375z"></path>
<path d="M31.802 22.092c-0.216-0.418-0.602-0.728-1.057-0.849l-1.184-0.316v-0.331c0.552-0.574 0.892-1.353 0.892-2.21s-0.34-1.636-0.892-2.21v-0.521c0-0.264-0.010-0.527-0.027-0.787 1.365-0.121 2.44-1.27 2.44-2.666 0-1.476-1.201-2.678-2.678-2.678h-1.098c-0.514-0.864-1.646-2.645-3.239-4.446-1.288-1.456-2.611-2.62-3.931-3.459-1.69-1.074-3.384-1.618-5.036-1.618s-3.346 0.544-5.036 1.618c-1.32 0.839-2.643 2.002-3.931 3.459-1.594 1.801-2.726 3.582-3.239 4.446h-1.098c-1.476 0-2.678 1.201-2.678 2.678 0 1.396 1.074 2.546 2.44 2.666-0.018 0.26-0.027 0.522-0.027 0.787v0.522c-0.552 0.574-0.892 1.353-0.892 2.21s0.34 1.636 0.892 2.21v4.257c0 1.441 1.173 2.614 2.614 2.614h2.761c-0.122 0.568-0.186 1.157-0.186 1.76v2.097c0 0.346 0.28 0.626 0.626 0.626s0.626-0.28 0.626-0.626v-2.097c0-1.674 0.581-3.215 1.55-4.432 0.566 0.194 1.154 0.341 1.758 0.436-0 0.022-0 0.044-0 0.065-1.065 1.012-1.731 2.441-1.731 4.023v2.241c0 0.207 0.168 0.375 0.375 0.375s0.375-0.168 0.375-0.375v-2.241c0-1.224 0.461-2.341 1.217-3.189l1.302 1.609c0.071 0.088 0.178 0.139 0.292 0.139h0.002c0.114-0 0.221-0.053 0.292-0.142l1.678-2.113 1.654 2.111c0.070 0.089 0.177 0.142 0.291 0.144 0.112 0.002 0.222-0.049 0.294-0.136l1.347-1.632c0.767 0.851 1.235 1.976 1.235 3.209v2.241c0 0.207 0.168 0.375 0.375 0.375s0.375-0.168 0.375-0.375v-2.241c0-1.602-0.682-3.048-1.771-4.062v-0.020c0.619-0.095 1.22-0.245 1.799-0.443 0.97 1.218 1.55 2.759 1.55 4.434v1.922l-0.016 0.060c-0.091 0.333 0.105 0.677 0.438 0.769 0.055 0.015 0.111 0.022 0.166 0.022 0.208 0 0.403-0.105 0.518-0.276 0.091-0.109 0.146-0.248 0.146-0.401v-0.005l0.771-2.808c0.121 0.044 0.244 0.085 0.372 0.119 0.122 0.032 0.243 0.059 0.363 0.081l-0.666 2.494c-0.089 0.334 0.109 0.677 0.443 0.766s0.677-0.109 0.766-0.443l0.748-2.8c1.908-0.307 3.547-2.121 4.716-5.281 0.164-0.442 0.133-0.935-0.083-1.353zM22.579 20.96c-0.129 0.764-0.201 1.478-0.217 2.141-1.256 0.642-2.677 1.006-4.182 1.006h-4.377c-5.085 0-9.223-4.137-9.223-9.223 0-0.002 0-0.004 0-0.006h22.822c0 0.002 0 0.004 0 0.006 0 1.868-0.559 3.607-1.517 5.061l-1.22-0.326c-0.455-0.122-0.943-0.045-1.339 0.209s-0.669 0.667-0.747 1.131zM2.782 18.386c0-0.615 0.288-1.164 0.736-1.52 0.239 1.244 0.699 2.411 1.337 3.458-0.043 0.003-0.087 0.005-0.131 0.005-1.071-0-1.943-0.872-1.943-1.943zM27.152 20.283c0.626-1.036 1.078-2.189 1.314-3.417 0.448 0.356 0.736 0.905 0.736 1.52 0 1.052-0.841 1.911-1.886 1.941zM22.229 9.523h-0.799v-1.831c0-0.307-0.249-0.556-0.556-0.556h-3.48c-0.307 0-0.556 0.249-0.556 0.556v1.831h-0.799v-2.314c0-0.431 0.351-0.781 0.782-0.781h4.627c0.431 0 0.781 0.351 0.781 0.781v2.314zM17.588 9.399v-1.513h3.090v1.513zM22.979 9.523v-2.24h2.173c0.658 0.852 1.191 1.64 1.573 2.24zM15.992 1.251c3.403 0 6.466 2.754 8.56 5.281h-1.731c-0.25-0.506-0.772-0.855-1.374-0.855h-4.627c-0.602 0-1.124 0.349-1.374 0.855h-8.013c2.094-2.527 5.156-5.281 8.56-5.281zM6.832 7.283h8.455v2.24h-10.029c0.382-0.6 0.916-1.388 1.573-2.24zM1.262 12.2c0-0.787 0.64-1.426 1.426-1.426h26.608c0.787 0 1.426 0.64 1.426 1.426s-0.64 1.426-1.426 1.426h-26.608c-0.787 0-1.426-0.64-1.426-1.426zM8.171 26.215h-3.134c-0.752 0-1.363-0.611-1.363-1.363v-3.452c0.329 0.115 0.683 0.179 1.051 0.179 0.32 0 0.628-0.049 0.919-0.136 0.963 1.195 2.182 2.175 3.573 2.856-0.428 0.586-0.781 1.23-1.046 1.916zM13.998 26.903l-1.047-1.295c0.113-0.093 0.23-0.18 0.352-0.263 0.166 0.008 0.333 0.012 0.501 0.012h1.422zM17.93 26.905l-1.212-1.547h1.463c0.168 0 0.334-0.005 0.5-0.013 0.115 0.078 0.226 0.16 0.333 0.247zM30.712 23.011c-0.599 1.617-1.343 2.872-2.154 3.63-0.843 0.788-1.733 1.043-2.72 0.779s-1.631-0.928-1.969-2.032c-0.325-1.061-0.345-2.52-0.057-4.22 0.079-0.293 0.262-0.385 0.53-0.341l1.607 0.429-0.375 1.391c-0.133 0.467 0.602 0.669 0.725 0.195l0.375-1.393 1.624 0.434-0.724 2.687c-0.133 0.467 0.602 0.669 0.725 0.195l0.724-2.689 1.398 0.373c0.286 0.125 0.353 0.254 0.289 0.56z"></path>
<path d="M25.223 23.721c-0.201-0.050-0.405 0.073-0.455 0.274l-0.166 0.669c-0.050 0.201 0.073 0.405 0.274 0.455 0.030 0.008 0.061 0.011 0.091 0.011 0.168 0 0.322-0.114 0.364-0.285l0.166-0.669c0.050-0.201-0.073-0.405-0.274-0.455z"></path>
<path d="M26.428 25.183c-0.201-0.050-0.405 0.073-0.455 0.274l-0.166 0.669c-0.050 0.201 0.073 0.405 0.274 0.455 0.030 0.008 0.061 0.011 0.091 0.011 0.168 0 0.322-0.114 0.364-0.285l0.166-0.669c0.050-0.201-0.073-0.405-0.274-0.455z"></path>
<path d="M8.757 12.761c-0.548 0-1.098-0.002-1.658-0.006-0.345-0.002-0.624-0.284-0.621-0.63s0.282-0.622 0.63-0.621c1.114 0.007 2.19 0.007 3.289 0h0.004c0.344 0 0.623 0.277 0.626 0.621 0.002 0.345-0.276 0.627-0.621 0.63-0.552 0.004-1.099 0.006-1.647 0.006z"></path>
<path d="M4.624 12.755h-0.993c-0.345 0-0.626-0.28-0.626-0.626s0.28-0.626 0.626-0.626h0.993c0.345 0 0.626 0.28 0.626 0.626s-0.28 0.626-0.625 0.626z"></path>
<path d="M10.891 18.172c0.429 0.429 0.429 1.125 0 1.555s-1.125 0.429-1.555 0c-0.429-0.429-0.429-1.125 0-1.555s1.125-0.429 1.555 0z"></path>
<path d="M22.298 17.938c0.561 0.233 0.827 0.876 0.595 1.437s-0.876 0.827-1.437 0.595c-0.561-0.233-0.827-0.876-0.595-1.437s0.876-0.827 1.437-0.595z"></path>
</svg>
