<!-- Generated by IcoMoon.io -->
<svg version="1.1" xmlns="http://www.w3.org/2000/svg" width="32" height="32" viewBox="0 0 32 32">
<title>wizard</title>
<path d="M29.869 26.545l0.514 1.447c0.022 0.062 0.066 0.111 0.121 0.136l1.285 0.579c0.182 0.082 0.182 0.371 0 0.453l-1.285 0.579c-0.055 0.025-0.099 0.074-0.121 0.136l-0.514 1.447c-0.073 0.204-0.33 0.204-0.402 0l-0.514-1.447c-0.022-0.062-0.066-0.111-0.121-0.136l-1.285-0.579c-0.182-0.082-0.182-0.371 0-0.453l1.285-0.579c0.055-0.025 0.099-0.074 0.121-0.136l0.514-1.447c0.073-0.204 0.33-0.204 0.402 0z"></path>
<path d="M2.511 25.607l0.382 1.073c0.016 0.046 0.049 0.082 0.090 0.101l0.953 0.43c0.135 0.061 0.135 0.275 0 0.336l-0.953 0.43c-0.041 0.018-0.073 0.055-0.090 0.101l-0.382 1.073c-0.054 0.152-0.245 0.152-0.299 0l-0.382-1.073c-0.016-0.046-0.049-0.082-0.089-0.101l-0.953-0.43c-0.135-0.061-0.135-0.275 0-0.336l0.953-0.43c0.041-0.018 0.073-0.055 0.089-0.101l0.382-1.073c0.054-0.152 0.245-0.152 0.298 0z"></path>
<path d="M30.19 4.357c0.238 0.573-0.034 1.231-0.608 1.468s-1.231-0.034-1.468-0.608c-0.238-0.573 0.034-1.231 0.608-1.468s1.231 0.034 1.468 0.608z"></path>
<path d="M6.1 25.233c0 0.268-0.217 0.485-0.485 0.485s-0.485-0.217-0.485-0.485 0.217-0.485 0.485-0.485 0.485 0.217 0.485 0.485z"></path>
<path d="M8.892 15.892c0.093 0.185 0.319 0.259 0.504 0.167 0.003-0.002 0.332-0.164 0.722-0.164s0.719 0.162 0.721 0.163c0.055 0.028 0.113 0.041 0.171 0.041 0.137 0 0.269-0.075 0.335-0.205 0.094-0.185 0.021-0.411-0.164-0.505-0.049-0.025-0.496-0.245-1.063-0.245s-1.013 0.22-1.063 0.245c-0.184 0.094-0.257 0.319-0.164 0.504z"></path>
<path d="M21.16 16.058c0.003-0.002 0.332-0.164 0.722-0.164s0.719 0.162 0.721 0.163c0.055 0.028 0.113 0.041 0.171 0.041 0.137 0 0.269-0.075 0.335-0.205 0.094-0.185 0.021-0.411-0.164-0.505-0.049-0.025-0.496-0.245-1.063-0.245s-1.013 0.22-1.063 0.245c-0.184 0.094-0.257 0.319-0.164 0.504s0.319 0.259 0.504 0.167z"></path>
<path d="M17.101 18.605c-0.207 0-0.376 0.168-0.376 0.376 0 0.4-0.325 0.725-0.725 0.725s-0.725-0.325-0.725-0.725c0-0.207-0.168-0.376-0.376-0.376s-0.376 0.168-0.376 0.376c0 0.814 0.662 1.476 1.476 1.476s1.476-0.662 1.476-1.476c0-0.207-0.168-0.376-0.376-0.376z"></path>
<path d="M24.498 18.954c-0.001 0.009-0.001 0.018-0.001 0.027 0 1.442-1.173 2.615-2.615 2.615-1.438 0-2.608-1.166-2.615-2.602 0-0.004 0-0.009 0-0.013 0-1.802-1.466-3.267-3.267-3.267s-3.267 1.466-3.267 3.267c0 0.004 0 0.007 0 0.011-0.006 1.437-1.177 2.604-2.615 2.604-1.442 0-2.615-1.173-2.615-2.615 0-0.012-0.001-0.024-0.002-0.037-0.003-0.026-0.215-2.406 1.018-4.043h15.186c0.949 1.637 0.796 4.027 0.794 4.053zM2.775 18.415c0-0.489 0.183-0.936 0.482-1.278 0.102 0.368 0.223 0.757 0.368 1.159 0.263 0.731 0.574 1.418 0.928 2.056-0.995-0.085-1.778-0.921-1.778-1.937zM29.225 18.415c0 1.032-0.809 1.879-1.826 1.941 0.337-0.616 0.637-1.278 0.897-1.983 0.164-0.444 0.3-0.871 0.413-1.273 0.319 0.346 0.515 0.808 0.515 1.316zM22.585 23.614c-3.101 1.665-4.364 3.63-5.2 4.93-0.648 1.008-0.916 1.36-1.385 1.36s-0.713-0.325-1.349-1.332c-0.829-1.312-2.083-3.295-5.281-5.027-2.070-1.12-3.602-3.018-4.553-5.64-0.444-1.223-0.651-2.328-0.746-3.004h3.544c-1.035 1.743-0.885 3.853-0.863 4.097 0.010 1.848 1.516 3.349 3.367 3.349 1.856 0 3.367-1.51 3.367-3.367 0-0.004-0-0.007-0-0.011 0.006-1.382 1.132-2.505 2.516-2.505s2.509 1.122 2.516 2.503c-0 0.004-0 0.009-0 0.013 0 1.856 1.51 3.367 3.367 3.367 1.852 0 3.36-1.503 3.367-3.354 0.014-0.215 0.127-2.353-0.697-4.092h3.362c-0.29 1.808-1.413 6.61-5.328 8.713zM29.319 14.901c1.478 0 2.681-1.203 2.681-2.681s-1.203-2.681-2.681-2.681h-1.099c-0.514-0.865-1.648-2.647-3.243-4.451-1.29-1.458-2.614-2.623-3.936-3.462-1.692-1.074-3.389-1.619-5.042-1.619s-3.35 0.545-5.042 1.619c-1.322 0.839-2.646 2.004-3.936 3.462-1.595 1.804-2.729 3.586-3.243 4.451h-1.099c-1.478 0-2.681 1.203-2.681 2.681s1.202 2.681 2.681 2.681h0.124c0.029 0.234 0.072 0.525 0.135 0.86-0.854 0.574-1.417 1.549-1.417 2.654 0 1.763 1.434 3.198 3.197 3.198 0.204 0 0.402-0.019 0.596-0.056 0.944 1.315 2.109 2.361 3.457 3.091 0.057 0.031 0.112 0.062 0.167 0.093-0.841 1.308-1.33 2.862-1.33 4.529v2.099c0 0.346 0.28 0.626 0.626 0.626s0.626-0.281 0.626-0.626v-2.099c0-1.427 0.422-2.757 1.147-3.874 0.494 0.334 0.919 0.671 1.291 1.005-0.543 0.858-0.858 1.874-0.858 2.962v2.244c0 0.207 0.168 0.376 0.376 0.376s0.376-0.168 0.376-0.376v-2.244c0-0.886 0.242-1.715 0.661-2.427 0.808 0.837 1.314 1.637 1.738 2.308 0.65 1.028 1.211 1.916 2.408 1.916 1.194 0 1.771-0.898 2.439-1.936 0.424-0.66 0.931-1.448 1.721-2.265 0.411 0.707 0.648 1.529 0.648 2.405v2.244c0 0.207 0.168 0.376 0.376 0.376s0.376-0.168 0.376-0.376v-2.244c0-1.079-0.309-2.087-0.844-2.94 0.374-0.335 0.8-0.671 1.294-1.002 0.714 1.111 1.13 2.433 1.13 3.849v2.099c0 0.346 0.28 0.626 0.626 0.626s0.626-0.281 0.626-0.626v-2.099c0-1.653-0.481-3.196-1.31-4.497 0.032-0.018 0.064-0.036 0.097-0.054 1.351-0.725 2.525-1.797 3.483-3.167 0.201 0.039 0.407 0.062 0.619 0.062 1.763 0 3.198-1.434 3.198-3.197 0-1.115-0.574-2.098-1.441-2.669 0.066-0.33 0.113-0.615 0.146-0.844zM16 1.259c4.933 0 9.151 5.779 10.746 8.281h-21.491c1.595-2.502 5.813-8.281 10.746-8.281zM2.681 13.649c-0.788 0-1.428-0.641-1.428-1.428s0.641-1.428 1.428-1.428h26.639c0.788 0 1.428 0.641 1.428 1.428s-0.641 1.428-1.428 1.428z"></path>
<path d="M23.373 7.133c0.219-0.214 0.296-0.527 0.202-0.818s-0.341-0.499-0.644-0.543l-0.648-0.094c-0.015-0.003-0.028-0.012-0.035-0.026l-0.289-0.587c-0.136-0.274-0.409-0.444-0.716-0.444s-0.58 0.17-0.715 0.444l-0.29 0.587c-0.007 0.014-0.019 0.023-0.035 0.026l-0.648 0.094c-0.302 0.044-0.549 0.253-0.644 0.543s-0.017 0.604 0.202 0.818l0.469 0.457c0.011 0.011 0.016 0.026 0.013 0.041l-0.111 0.645c-0.052 0.302 0.070 0.601 0.317 0.781 0.14 0.101 0.303 0.153 0.468 0.153 0.127 0 0.254-0.031 0.372-0.092l0.579-0.304c0.013-0.007 0.029-0.008 0.043 0l0.579 0.304c0.271 0.143 0.593 0.119 0.84-0.061s0.369-0.479 0.317-0.781l-0.111-0.645c-0.003-0.015 0.003-0.030 0.013-0.041zM22.849 6.595l-0.469 0.457c-0.188 0.183-0.274 0.447-0.229 0.706l0.111 0.645c0.001 0.008 0.004 0.028-0.019 0.045s-0.041 0.008-0.049 0.004l-0.579-0.305c-0.233-0.122-0.51-0.122-0.742 0l-0.579 0.305c-0.008 0.004-0.026 0.013-0.049-0.004s-0.020-0.037-0.018-0.046l0.111-0.645c0.044-0.259-0.041-0.522-0.229-0.706l-0.469-0.457c-0.006-0.006-0.021-0.020-0.012-0.048s0.029-0.031 0.038-0.032l0.648-0.094c0.26-0.038 0.484-0.201 0.601-0.437l0.29-0.587c0.004-0.008 0.012-0.026 0.041-0.026s0.038 0.018 0.041 0.026l0.29 0.587c0.116 0.236 0.341 0.399 0.601 0.437l0.648 0.094c0.009 0.001 0.029 0.004 0.038 0.032s-0.006 0.041-0.011 0.048z"></path>
<path d="M18.13 4.458c0.219-0.214 0.296-0.527 0.202-0.818s-0.341-0.499-0.644-0.542l-0.648-0.094c-0.015-0.002-0.028-0.012-0.035-0.026l-0.289-0.586c-0.136-0.274-0.41-0.445-0.716-0.445s-0.58 0.171-0.716 0.445l-0.289 0.587c-0.007 0.013-0.020 0.023-0.035 0.025l-0.648 0.094c-0.303 0.044-0.549 0.252-0.644 0.542s-0.018 0.604 0.201 0.818l0.469 0.457c0.011 0.011 0.016 0.026 0.014 0.041l-0.111 0.645c-0.052 0.301 0.069 0.6 0.317 0.78 0.14 0.102 0.304 0.153 0.469 0.153 0.127 0 0.254-0.031 0.372-0.093l0.579-0.304c0.013-0.007 0.029-0.007 0.043 0l0.579 0.304c0.271 0.143 0.593 0.119 0.841-0.061s0.369-0.479 0.317-0.78l-0.111-0.645c-0.003-0.015 0.002-0.031 0.013-0.041zM17.605 3.92l-0.468 0.457c-0.188 0.183-0.274 0.447-0.23 0.706l0.111 0.645c0.002 0.008 0.005 0.028-0.018 0.045s-0.041 0.008-0.049 0.004l-0.579-0.304c-0.233-0.122-0.51-0.122-0.742 0l-0.579 0.304c-0.008 0.004-0.026 0.013-0.049-0.004s-0.020-0.037-0.019-0.045l0.111-0.645c0.044-0.259-0.041-0.523-0.229-0.706l-0.469-0.457c-0.006-0.006-0.021-0.020-0.011-0.047s0.029-0.030 0.037-0.031l0.648-0.094c0.26-0.038 0.484-0.201 0.601-0.436l0.289-0.587c0.004-0.008 0.013-0.026 0.041-0.026 0.029 0 0.038 0.018 0.042 0.026l0.289 0.587c0.116 0.235 0.341 0.399 0.601 0.436l0.648 0.094c0.008 0.001 0.028 0.004 0.037 0.031s-0.005 0.041-0.011 0.047z"></path>
<path d="M12.886 7.133c0.219-0.214 0.297-0.527 0.202-0.818s-0.341-0.499-0.644-0.543l-0.647-0.094c-0.016-0.003-0.028-0.012-0.035-0.026l-0.29-0.587c-0.068-0.138-0.17-0.248-0.294-0.325s-0.268-0.119-0.421-0.119c-0.306 0-0.58 0.17-0.716 0.444l-0.289 0.587c-0.007 0.014-0.020 0.023-0.035 0.026l-0.648 0.094c-0.303 0.044-0.549 0.253-0.644 0.543s-0.018 0.604 0.202 0.818l0.469 0.457c0.011 0.011 0.016 0.026 0.013 0.041l-0.111 0.645c-0.052 0.302 0.070 0.601 0.318 0.781 0.14 0.101 0.304 0.153 0.468 0.153 0.127 0 0.254-0.031 0.372-0.092l0.579-0.304c0.013-0.007 0.029-0.008 0.043 0l0.579 0.304c0.271 0.143 0.593 0.119 0.84-0.061s0.369-0.479 0.318-0.781l-0.111-0.645c-0.002-0.015 0.002-0.030 0.013-0.041zM12.362 6.595l-0.469 0.457c-0.188 0.183-0.274 0.447-0.229 0.706l0.111 0.645c0.001 0.008 0.005 0.028-0.019 0.045s-0.041 0.008-0.049 0.004l-0.579-0.305c-0.116-0.061-0.244-0.091-0.371-0.091s-0.256 0.031-0.372 0.091l-0.579 0.305c-0.008 0.004-0.026 0.013-0.049-0.004s-0.020-0.037-0.019-0.045l0.111-0.645c0.044-0.259-0.041-0.523-0.229-0.706l-0.469-0.457c-0.006-0.006-0.021-0.020-0.012-0.048s0.029-0.031 0.037-0.032l0.648-0.094c0.26-0.038 0.484-0.201 0.601-0.437l0.289-0.586c0.004-0.008 0.012-0.026 0.041-0.026s0.038 0.018 0.042 0.026l0.289 0.587c0.116 0.235 0.341 0.398 0.601 0.436l0.648 0.094c0.009 0.001 0.029 0.004 0.037 0.032s-0.005 0.041-0.011 0.048z"></path>
<path d="M19.017 22.982c-0.207 0-0.376 0.168-0.376 0.376v0.71c0 0.207 0.168 0.376 0.376 0.376s0.376-0.168 0.376-0.376v-0.71c0-0.207-0.168-0.376-0.376-0.376z"></path>
<path d="M17.078 24.59c-0.207 0-0.376 0.168-0.376 0.376v0.71c0 0.207 0.168 0.376 0.376 0.376s0.376-0.168 0.376-0.376v-0.71c0-0.207-0.168-0.376-0.376-0.376z"></path>
<path d="M15.525 23.225c-0.207 0-0.376 0.168-0.376 0.376v0.71c0 0.207 0.168 0.376 0.376 0.376s0.376-0.168 0.376-0.376v-0.71c0-0.207-0.168-0.376-0.376-0.376z"></path>
<path d="M8.503 12.75c-0.549 0-1.1-0.002-1.66-0.006-0.346-0.002-0.624-0.285-0.622-0.63 0.002-0.344 0.282-0.622 0.626-0.622h0.004c1.115 0.007 2.192 0.007 3.293 0h0.004c0.344 0 0.624 0.278 0.626 0.622 0.002 0.346-0.276 0.628-0.622 0.63-0.553 0.004-1.1 0.006-1.649 0.006z"></path>
<path d="M4.364 12.745h-0.994c-0.346 0-0.626-0.28-0.626-0.626s0.28-0.626 0.626-0.626h0.994c0.346 0 0.626 0.28 0.626 0.626s-0.28 0.626-0.626 0.626z"></path>
<path d="M11.219 18.98c0 0.608-0.493 1.101-1.101 1.101s-1.101-0.493-1.101-1.101c0-0.608 0.493-1.101 1.101-1.101s1.101 0.493 1.101 1.101z"></path>
<path d="M22.983 18.98c0 0.608-0.493 1.101-1.101 1.101s-1.101-0.493-1.101-1.101c0-0.608 0.493-1.101 1.101-1.101s1.101 0.493 1.101 1.101z"></path>
</svg>
