<!-- Generated by IcoMoon.io -->
<svg version="1.1" xmlns="http://www.w3.org/2000/svg" width="32" height="32" viewBox="0 0 32 32">
<title>wrestler</title>
<path d="M2.496 1.963l0.522 1.468c0.022 0.063 0.067 0.113 0.122 0.138l1.304 0.588c0.184 0.083 0.184 0.377 0 0.46l-1.304 0.588c-0.056 0.025-0.1 0.075-0.122 0.138l-0.522 1.468c-0.074 0.207-0.335 0.207-0.408 0l-0.522-1.468c-0.022-0.063-0.067-0.113-0.122-0.138l-1.304-0.588c-0.184-0.083-0.184-0.377 0-0.46l1.304-0.588c0.056-0.025 0.1-0.075 0.122-0.138l0.522-1.468c0.074-0.207 0.335-0.207 0.409 0z"></path>
<path d="M30.452 4.509l0.387 1.089c0.017 0.047 0.049 0.084 0.091 0.102l0.968 0.436c0.137 0.062 0.137 0.279 0 0.341l-0.968 0.436c-0.041 0.019-0.074 0.056-0.091 0.102l-0.387 1.089c-0.055 0.154-0.248 0.154-0.303 0l-0.387-1.089c-0.017-0.047-0.049-0.084-0.091-0.102l-0.968-0.436c-0.137-0.062-0.137-0.279 0-0.341l0.968-0.436c0.041-0.019 0.074-0.056 0.091-0.102l0.387-1.089c0.055-0.154 0.248-0.154 0.303 0z"></path>
<path d="M25.188 0.529c0.613 0.145 0.992 0.759 0.847 1.372s-0.759 0.992-1.372 0.847c-0.613-0.145-0.992-0.759-0.847-1.372s0.759-0.992 1.372-0.847z"></path>
<path d="M7.924 1.035c0.27 0.033 0.461 0.279 0.428 0.548s-0.279 0.462-0.548 0.428c-0.27-0.033-0.462-0.279-0.428-0.548s0.279-0.462 0.548-0.428z"></path>
<path d="M28.892 14.8c0.012-0.209 0.019-0.419 0.019-0.631 0-5.868-4.774-10.643-10.643-10.643h-4.448c-5.868 0-10.643 4.774-10.643 10.643 0 0.212 0.007 0.422 0.019 0.63-1.091 0.523-1.847 1.639-1.847 2.927 0 1.79 1.456 3.245 3.245 3.245 0.325 0 0.638-0.049 0.934-0.138 0.978 1.214 2.217 2.21 3.631 2.902-1.026 1.406-1.632 3.137-1.632 5.007v2.13c0 0.351 0.285 0.636 0.636 0.636s0.636-0.285 0.636-0.636v-2.13c0-1.701 0.589-3.267 1.574-4.504 0.594 0.204 1.212 0.357 1.848 0.453-1.118 1.032-1.819 2.508-1.819 4.145v2.277c0 0.211 0.171 0.381 0.381 0.381s0.381-0.171 0.381-0.381v-2.277c0-1.459 0.644-2.77 1.663-3.665v5.924c0 0.211 0.171 0.381 0.381 0.381s0.381-0.171 0.381-0.381v-6.287c0.076 0.002 0.153 0.003 0.229 0.003h4.448c0.047 0 0.094-0.001 0.142-0.002v6.286c0 0.211 0.171 0.381 0.381 0.381s0.381-0.171 0.381-0.381v-6c1.069 0.896 1.751 2.24 1.751 3.741v2.277c0 0.211 0.171 0.381 0.381 0.381s0.381-0.171 0.381-0.381v-2.277c0-1.637-0.702-3.114-1.819-4.145 0.636-0.096 1.253-0.249 1.847-0.453 0.985 1.237 1.575 2.803 1.575 4.504v2.13c0 0.351 0.285 0.636 0.636 0.636s0.636-0.285 0.636-0.636v-2.13c0-1.87-0.606-3.601-1.632-5.007 1.414-0.692 2.653-1.688 3.631-2.902 0.296 0.089 0.609 0.139 0.934 0.139 1.79 0 3.245-1.456 3.245-3.245 0-1.289-0.756-2.404-1.847-2.927zM13.821 4.797h4.448c5.167 0 9.371 4.204 9.371 9.371 0 0.624-0.062 1.234-0.179 1.824-0.901-2.118-3.003-3.607-5.446-3.607-3.313-0.015-3.391 2.079-5.97 2.089-0.884-0.013-1.563-0.273-2.245-0.771-0.566-0.371-1.974-1.29-3.725-1.318-2.443 0-4.545 1.489-5.446 3.607-0.117-0.59-0.179-1.2-0.179-1.824-0-5.167 4.204-9.371 9.371-9.371zM4.596 19.701c-1.088 0-1.974-0.886-1.974-1.974 0-0.625 0.293-1.182 0.748-1.544 0.243 1.264 0.71 2.45 1.359 3.513-0.044 0.003-0.088 0.005-0.133 0.005zM18.269 23.54h-4.448c-2.028 0-3.907-0.648-5.442-1.747 0.46 0.198 0.966 0.308 1.497 0.308 0.42 0 0.832-0.068 1.225-0.202l0.055-0.012c0.004-0.001 0.008-0.002 0.012-0.003 1.143-0.297 2.875-0.46 4.876-0.46 2.020 0 3.837 0.179 4.985 0.49 0.004 0.001 0.008 0.002 0.012 0.003 0.006 0.002 0.013 0.005 0.019 0.007 0.372 0.118 0.759 0.178 1.153 0.178 0.531 0 1.037-0.11 1.497-0.308-1.535 1.099-3.415 1.747-5.443 1.747zM22.214 21.338c-0.315 0-0.625-0.048-0.921-0.142-0.009-0.003-0.019-0.006-0.028-0.008-0.011-0.004-0.023-0.008-0.035-0.011-1.211-0.328-3.101-0.517-5.185-0.517-2.061 0-3.858 0.172-5.062 0.483l-0.070 0.016c-0.014 0.003-0.028 0.007-0.041 0.012-0.319 0.111-0.655 0.167-0.996 0.167-1.675 0-3.038-1.363-3.038-3.038s1.363-3.038 3.038-3.038c2.218 0.246 2.76 2.191 6.169 2.159 3.938-0.029 3.818-2.077 6.169-2.159 1.675 0 3.038 1.363 3.038 3.038s-1.363 3.038-3.038 3.038zM25.635 19.956c0.243-0.501 0.38-1.062 0.38-1.655 0-2.096-1.705-3.801-3.801-3.801-2.65 0.056-2.638 2.192-6.169 2.159-3.182 0.058-3.547-1.956-6.169-2.159-2.096 0-3.801 1.705-3.801 3.801 0 0.593 0.137 1.155 0.38 1.655-0.611-0.776-1.102-1.65-1.445-2.595 0.443-2.394 2.545-4.213 5.065-4.213 3.011 0.131 3.368 2.135 5.97 2.089 2.889 0.008 2.953-2.118 5.97-2.089 2.52 0 4.622 1.819 5.065 4.213-0.343 0.945-0.834 1.819-1.445 2.595zM27.494 19.701c-0.045 0-0.089-0.002-0.133-0.005 0.649-1.063 1.116-2.249 1.359-3.513 0.455 0.362 0.748 0.919 0.748 1.545 0 1.088-0.886 1.974-1.974 1.974z"></path>
<path d="M10.399 17.236c0.59 0.179 0.924 0.803 0.745 1.393s-0.803 0.924-1.393 0.745c-0.59-0.179-0.924-0.803-0.745-1.393s0.803-0.924 1.393-0.745z"></path>
<path d="M22.015 17.183c-0.617 0-1.117 0.5-1.117 1.117s0.5 1.117 1.117 1.117c0.617 0 1.117-0.5 1.117-1.117s-0.5-1.117-1.117-1.117z"></path>
<path d="M17.162 17.919c-0.211 0-0.381 0.171-0.381 0.381 0 0.406-0.33 0.736-0.736 0.736s-0.736-0.33-0.736-0.736c0-0.211-0.171-0.381-0.381-0.381s-0.381 0.171-0.381 0.381c0 0.826 0.672 1.498 1.499 1.498s1.498-0.672 1.498-1.498c-0-0.211-0.171-0.381-0.381-0.381z"></path>
<path d="M13.925 10.247c0.042 0.041 0.061 0.1 0.051 0.157l-0.147 0.854c-0.061 0.355 0.082 0.708 0.374 0.92s0.671 0.239 0.991 0.072l0.767-0.403c0.052-0.027 0.114-0.027 0.166 0l0.767 0.403c0.139 0.073 0.289 0.109 0.439 0.109 0.194 0 0.387-0.061 0.552-0.181 0.292-0.212 0.435-0.565 0.374-0.92l-0.147-0.854c-0.010-0.058 0.009-0.117 0.051-0.157l0.621-0.605c0.258-0.252 0.349-0.621 0.238-0.964s-0.402-0.588-0.759-0.64l-0.858-0.125c-0.058-0.008-0.108-0.045-0.134-0.097l-0.384-0.777c-0.16-0.323-0.483-0.524-0.843-0.524s-0.684 0.201-0.844 0.524l-0.384 0.777c-0.026 0.053-0.076 0.089-0.134 0.097l-0.858 0.125c-0.357 0.052-0.648 0.297-0.759 0.64s-0.020 0.712 0.238 0.964zM13.792 8.913c0.010-0.032 0.045-0.107 0.143-0.121l0.858-0.125c0.306-0.045 0.571-0.237 0.708-0.515l0.384-0.777c0.044-0.089 0.126-0.099 0.159-0.099s0.115 0.010 0.159 0.099l0.384 0.777c0.137 0.278 0.402 0.47 0.708 0.515l0.858 0.125c0.099 0.014 0.133 0.089 0.144 0.121s0.026 0.113-0.045 0.182l-0.621 0.605c-0.222 0.216-0.323 0.527-0.27 0.832l0.147 0.854c0.017 0.098-0.044 0.154-0.071 0.174s-0.099 0.060-0.187 0.014l-0.767-0.403c-0.137-0.072-0.287-0.108-0.438-0.108s-0.301 0.036-0.438 0.108l-0.767 0.403c-0.088 0.046-0.16 0.006-0.187-0.014s-0.088-0.076-0.071-0.174l0.147-0.854c0.052-0.305-0.049-0.616-0.271-0.832l-0.621-0.605c-0.072-0.069-0.055-0.151-0.045-0.182z"></path>
<path d="M8.616 8.602c0.261 0.2 0.644 0.331 1.139 0.388 0.092 0.011 0.186 0.016 0.281 0.016 0.934 0 1.949-0.473 1.996-0.495 0.119-0.056 0.201-0.17 0.216-0.301s-0.038-0.26-0.141-0.343c-0.045-0.036-1.107-0.874-2.106-0.991-1.532-0.179-1.747 0.616-1.776 0.864-0.039 0.333 0.1 0.639 0.39 0.861zM8.984 7.829c0.013-0.115 0.205-0.216 0.594-0.216 0.099 0 0.211 0.007 0.336 0.021 0.382 0.045 0.801 0.243 1.129 0.435-0.378 0.114-0.831 0.206-1.199 0.163-0.468-0.055-0.679-0.171-0.764-0.236-0.106-0.081-0.099-0.139-0.096-0.167z"></path>
<path d="M12.025 10.071c-0.052-0.024-1.288-0.577-2.284-0.447-1.53 0.201-1.544 1.024-1.511 1.271 0.029 0.22 0.21 0.871 1.326 0.871 0.139 0 0.292-0.010 0.462-0.032 0.996-0.131 2.047-0.984 2.091-1.021 0.102-0.084 0.153-0.214 0.136-0.345s-0.101-0.243-0.221-0.298zM9.919 10.978c-0.614 0.081-0.914-0.037-0.932-0.181s0.24-0.335 0.854-0.416c0.075-0.010 0.152-0.014 0.231-0.014 0.325 0 0.676 0.075 0.97 0.16-0.325 0.196-0.741 0.401-1.123 0.451z"></path>
<path d="M20.057 8.511c0.047 0.022 1.062 0.495 1.996 0.495 0.095 0 0.189-0.005 0.281-0.016 0.495-0.058 0.879-0.188 1.139-0.388 0.29-0.222 0.428-0.528 0.39-0.861-0.029-0.248-0.243-1.043-1.776-0.864-0.998 0.117-2.061 0.955-2.106 0.991-0.103 0.082-0.157 0.212-0.141 0.343s0.097 0.245 0.216 0.301zM22.176 7.635c0.615-0.072 0.913 0.051 0.93 0.194 0.003 0.028 0.010 0.086-0.096 0.167-0.084 0.065-0.296 0.182-0.764 0.236-0.383 0.045-0.835-0.052-1.199-0.163 0.328-0.192 0.747-0.39 1.129-0.435z"></path>
<path d="M23.482 10.029c-0.258-0.204-0.64-0.34-1.134-0.405-0.996-0.131-2.232 0.423-2.284 0.447-0.12 0.054-0.203 0.167-0.221 0.298s0.034 0.261 0.136 0.345c0.044 0.036 1.095 0.89 2.091 1.021 0.164 0.021 0.318 0.032 0.461 0.032 0.289 0 0.537-0.044 0.738-0.131 0.336-0.145 0.544-0.408 0.588-0.74s-0.090-0.64-0.377-0.866zM23.103 10.797c-0.004 0.028-0.011 0.086-0.134 0.139-0.098 0.042-0.332 0.104-0.799 0.043-0.382-0.050-0.797-0.254-1.122-0.451 0.379-0.108 0.833-0.194 1.201-0.146 0.467 0.061 0.677 0.181 0.761 0.247 0.105 0.083 0.097 0.141 0.093 0.168z"></path>
</svg>
