<!-- Generated by IcoMoon.io -->
<svg version="1.1" xmlns="http://www.w3.org/2000/svg" width="32" height="32" viewBox="0 0 32 32">
<title>beer</title>
<path fill="#c49a8b" d="M21.079 12.893l-1.883-2.129-0.459-8.759h-4.989l-0.466 8.859-1.828 2.019c-0.698 0.771-1.078 1.729-1.078 2.717v13.967c0 0.994 0.911 1.8 2.034 1.8h7.668c1.122 0 2.033-0.805 2.034-1.798l0.012-13.994c0.001-0.972-0.366-1.917-1.044-2.682z"></path>
<path fill="#a1e8c3" d="M13.979 5.202h4.54v4.589h-4.54z"></path>
<path fill="#a1e8c3" d="M16.292 28.256h-0.086c-2.043 0-3.699-1.656-3.699-3.699v-5.17c0-2.043 1.656-3.699 3.699-3.699h0.086c2.043 0 3.699 1.656 3.699 3.699v5.17c0 2.043-1.656 3.699-3.699 3.699z"></path>
<path fill="#fff" d="M16.249 26.693c-1.184 0-2.143-0.959-2.143-2.143v-5.157c0-1.184 0.96-2.143 2.143-2.143s2.143 0.959 2.143 2.143v5.157c0 1.184-0.96 2.143-2.143 2.143z"></path>
<path fill="#f6e06e" d="M16.602 19.855c1.168 0.192 1.96 1.294 1.768 2.462s-1.294 1.96-2.462 1.768c-1.168-0.192-1.96-1.294-1.768-2.462s1.294-1.96 2.462-1.768z"></path>
<path fill="#b2748a" d="M16.841 4.883h2.036l-0.15-2.878h-4.969l-0.065 1.24h3.074z"></path>
<path fill="#85adc2" d="M19.119 9.515l-0.209-3.999h-2.040l0.182 3.999z"></path>
<path fill="#85adc2" d="M19.98 25.807c0.379-2.845 0.632-5.691-0.253-8.41-0.037-0.147-0.201-0.251-0.382-0.35l-0.007 9.608c0.297-0.246 0.565-0.5 0.642-0.849z"></path>
<path fill="#b2748a" d="M21.060 12.893l-1.876-2.129-0.032-0.617h-2.060c0.074 0.578 0.305 1.132 0.676 1.614l0.782 1.016c0.516 0.67 0.796 1.497 0.795 2.348l-0.001 1.923c0.181 0.099 0.346 0.203 0.382 0.35 0.885 2.719 0.632 5.564 0.253 8.41-0.078 0.349-0.345 0.602-0.642 0.849l-0.001 0.72c-0.001 0.87-0.694 1.574-1.549 1.574h-5.84c-0.855 0-1.549-0.706-1.549-1.576v2.193c0 0.994 0.907 1.8 2.026 1.8h7.638c1.118 0 2.025-0.805 2.026-1.798l0.012-13.994c0.001-0.972-0.365-1.916-1.040-2.682z"></path>
<path fill="#a1e8c3" d="M18.415 3.192h-4.332c-0.707 0-1.28-0.573-1.28-1.28s0.573-1.28 1.28-1.28h4.332c0.707 0 1.28 0.573 1.28 1.28s-0.573 1.28-1.28 1.28z"></path>
<path fill="#cdf4e3" d="M5.243 15.781l0.519 1.46c0.022 0.063 0.066 0.112 0.122 0.137l1.298 0.585c0.183 0.083 0.183 0.375 0 0.457l-1.298 0.585c-0.056 0.025-0.1 0.075-0.122 0.137l-0.519 1.46c-0.073 0.206-0.333 0.206-0.406 0l-0.519-1.46c-0.022-0.063-0.066-0.112-0.122-0.137l-1.298-0.585c-0.183-0.083-0.183-0.375 0-0.457l1.298-0.585c0.056-0.025 0.1-0.075 0.122-0.137l0.519-1.46c0.073-0.206 0.333-0.206 0.406 0z"></path>
<path fill="#a2e9c4" d="M29.239 14.407c0 0.626-0.508 1.134-1.134 1.134s-1.134-0.508-1.134-1.134c0-0.626 0.508-1.134 1.134-1.134s1.134 0.508 1.134 1.134z"></path>
<path fill="#a2e9c4" d="M8.669 6.774c0 0.27-0.219 0.489-0.489 0.489s-0.489-0.219-0.489-0.489c0-0.27 0.219-0.489 0.489-0.489s0.489 0.219 0.489 0.489z"></path>
<path fill="#cdf4e3" d="M25.458 5.708l0.385 1.083c0.017 0.046 0.049 0.083 0.090 0.102l0.962 0.434c0.136 0.061 0.136 0.278 0 0.339l-0.962 0.434c-0.041 0.019-0.074 0.055-0.090 0.102l-0.385 1.083c-0.054 0.153-0.247 0.153-0.301 0l-0.385-1.083c-0.017-0.046-0.049-0.083-0.090-0.102l-0.962-0.434c-0.136-0.061-0.136-0.278 0-0.339l0.962-0.434c0.041-0.019 0.074-0.055 0.090-0.102l0.385-1.083c0.054-0.153 0.247-0.153 0.301 0z"></path>
<path fill="#3c122c" d="M16.249 28.635c-2.273 0-4.121-1.849-4.121-4.121v-5.084c0-2.272 1.849-4.121 4.121-4.121s4.121 1.849 4.121 4.121v5.084c0 2.273-1.849 4.121-4.121 4.121zM16.249 16.067c-1.854 0-3.363 1.508-3.363 3.363v5.084c0 1.854 1.508 3.363 3.363 3.363s3.363-1.508 3.363-3.363v-5.084c0-1.854-1.508-3.363-3.363-3.363z"></path>
<path fill="#fff" d="M17.292 7.089h-2.085c-0.21 0-0.379-0.17-0.379-0.379s0.17-0.379 0.379-0.379h2.085c0.209 0 0.379 0.17 0.379 0.379s-0.17 0.379-0.379 0.379z"></path>
<path fill="#fff" d="M17.292 8.714h-2.085c-0.21 0-0.379-0.17-0.379-0.379s0.17-0.379 0.379-0.379h2.085c0.209 0 0.379 0.17 0.379 0.379s-0.17 0.379-0.379 0.379z"></path>
<path fill="#3c122c" d="M16.249 16.871c-1.391 0-2.523 1.132-2.523 2.523v5.157c0 1.391 1.132 2.523 2.523 2.523s2.523-1.132 2.523-2.523v-5.157c0-1.391-1.132-2.523-2.523-2.523zM16.965 24.39c0.4-0.118 0.758-0.333 1.048-0.617v0.617zM15.517 19.558c-0.393 0.119-0.745 0.332-1.031 0.613v-0.613zM16.249 20.208c0.973 0 1.764 0.791 1.764 1.764s-0.791 1.764-1.764 1.764c-0.973 0-1.764-0.791-1.764-1.764s0.791-1.764 1.764-1.764zM16.982 19.558h1.031v0.613c-0.286-0.28-0.639-0.493-1.031-0.613zM15.534 24.39h-1.048v-0.617c0.29 0.284 0.649 0.499 1.048 0.617zM16.249 17.63c0.764 0 1.416 0.489 1.661 1.17h-3.321c0.244-0.681 0.896-1.17 1.661-1.17zM16.249 26.314c-0.762 0-1.413-0.486-1.659-1.165h3.318c-0.246 0.679-0.896 1.165-1.659 1.165z"></path>
<path fill="#3c122c" d="M21.553 12.474l-1.737-1.963-0.367-6.991c0.528-0.341 0.878-0.934 0.878-1.607 0-1.054-0.858-1.912-1.912-1.912h-4.332c-1.054 0-1.912 0.858-1.912 1.912 0 0.668 0.344 1.256 0.864 1.598l-0.373 7.097-1.677 1.852c-0.801 0.884-1.242 2-1.242 3.141v13.967c0 1.341 1.196 2.432 2.666 2.432h7.668c1.469 0 2.665-1.090 2.666-2.43l0.012-13.994c0.001-1.122-0.426-2.224-1.202-3.101zM18.199 3.825l0.054 1.037h-4.022l0.055-1.037zM14.191 5.62h4.102l0.201 3.84h-4.505zM14.083 1.265h4.332c0.357 0 0.648 0.291 0.648 0.648s-0.291 0.648-0.648 0.648h-4.332c-0.357 0-0.648-0.291-0.648-0.648s0.291-0.648 0.648-0.648zM21.478 29.569c-0.001 0.643-0.629 1.167-1.401 1.167h-7.668c-0.773 0-1.401-0.524-1.401-1.168v-13.967c0-0.827 0.325-1.641 0.915-2.292l1.828-2.019c0.098-0.108 0.155-0.246 0.163-0.391l0.036-0.68h4.585l0.030 0.579c0.008 0.143 0.063 0.279 0.158 0.386l1.883 2.129c0.572 0.646 0.886 1.449 0.885 2.262z"></path>
<path fill="#fff" d="M12.509 15.759c-0.135 0-0.27-0.043-0.385-0.131-0.277-0.213-0.329-0.61-0.116-0.887l0.931-1.211c0.213-0.277 0.61-0.329 0.887-0.116s0.329 0.61 0.116 0.887l-0.931 1.211c-0.124 0.162-0.312 0.247-0.502 0.247z"></path>
<path fill="#fff" d="M14.511 13.312c-0.135 0-0.27-0.043-0.385-0.131-0.277-0.213-0.329-0.61-0.116-0.887l0.186-0.242c0.213-0.277 0.61-0.329 0.887-0.116s0.329 0.61 0.116 0.887l-0.186 0.242c-0.125 0.162-0.312 0.247-0.502 0.247z"></path>
</svg>
