<!-- Generated by IcoMoon.io -->
<svg version="1.1" xmlns="http://www.w3.org/2000/svg" width="32" height="32" viewBox="0 0 32 32">
<title>champagne</title>
<path fill="#a1e8c3" d="M14.53 16.929c-1.703-3.163-2.699-7.12-2.971-10.809 0.36-0.324 0.586-0.794 0.586-1.316v-2.407c0-0.978-0.793-1.771-1.771-1.771h-1.707c-0.978 0-1.771 0.793-1.771 1.771v2.407c0 0.541 0.243 1.025 0.625 1.349-0.252 3.67-1.291 7.676-2.971 10.871-1.092 2.077-1.591 5.020-1.591 6.927v3.679c0 2.067 1.618 3.742 3.613 3.742h5.987c1.995 0 3.613-1.675 3.613-3.742v-3.679c0-1.936-0.515-4.93-1.642-7.023z"></path>
<path fill="#faf1a9" d="M2.833 21.721h13.128v6.017h-13.128z"></path>
<path fill="#f6e06e" d="M11.559 6.12c0.36-0.324 0.586-0.793 0.586-1.316v-2.407c0-0.978-0.793-1.771-1.771-1.771h-1.707c-0.978 0-1.771 0.793-1.771 1.771v2.407c0 0.541 0.243 1.025 0.625 1.35-0.167 2.436-0.682 5.019-1.5 7.416l1.922 1.045s0.683 1.987 1.637 1.987 1.494-1.923 1.494-1.923l2.008-1.088c-0.831-2.397-1.34-4.994-1.522-7.471z"></path>
<path fill="#dda86a" d="M10.357 2.567v2.187c0 0.382-0.118 0.732-0.315 1.008-0.103 0.144-0.149 0.321-0.136 0.497 0.196 2.587 0.736 5.3 1.615 7.701 0.444-0.252 0.954-0.523 1.418-0.826-0.718-2.235-1.212-4.732-1.38-7.014 0.36-0.324 0.586-0.794 0.586-1.316v-2.407c0-0.978-0.793-1.771-1.771-1.771h-1.707c-0.385 0-0.741 0.123-1.032 0.332h1.295c0.788-0 1.426 0.72 1.426 1.609z"></path>
<path fill="#85adc2" d="M14.53 16.929c-0.555-1.030-1.034-2.145-1.438-3.307-0.457 0.3-0.908 0.607-1.34 0.942 0.165 0.413 0.339 0.815 0.525 1.203 0.908 1.902 1.322 4.621 1.322 6.38v3.342c0 1.878-1.303 3.4-2.91 3.4h-4.822c-1.607 0-2.91-1.522-2.91-3.4v2.142c0 2.067 1.618 3.742 3.613 3.742h5.987c1.995 0 3.613-1.675 3.613-3.742v-3.679c0-1.936-0.515-4.93-1.642-7.023z"></path>
<path fill="#dfb5a7" d="M13.599 25.49c0 0.863-0.276 1.651-0.73 2.251h3.299c0.001-0.036 0.003-0.072 0.003-0.109v-3.679c0-0.615-0.052-1.337-0.159-2.102h-2.417c0.002 0.102 0.004 0.201 0.004 0.298z"></path>
<path fill="#ccf3e2" d="M18.817 31.374h9.495l-3.853-2.149v-7.312c3.833-1.644 3.188-13.944 3.188-13.944h-8.164s-0.645 12.299 3.188 13.944v7.312z"></path>
<path fill="#faf1a9" d="M23.565 20.338c2.481 0 2.1-10.169 2.1-10.169h-4.2s-0.381 10.169 2.1 10.169z"></path>
<path fill="#b1b6e1" d="M23.262 20.606c-0.083 0.119 0.336 0.51 0.284 1.122v7.090c0 0.293 0.137 0.57 0.37 0.748l0.548 0.332-0.005-7.986c3.833-1.644 3.188-13.944 3.188-13.944l-3.049 0.003c0 0 0.299 10.3-1.335 12.635z"></path>
<path fill="#dfb5a7" d="M25.665 10.168h-1.046c-0.011 3-0.182 8.227-1.189 10.159 0.044 0.007 0.089 0.011 0.135 0.011 2.481 0 2.1-10.169 2.1-10.169z"></path>
<path fill="#faf1a9" d="M29.106 0.271l0.515 1.447c0.022 0.062 0.066 0.111 0.121 0.136l1.286 0.579c0.182 0.082 0.182 0.371 0 0.453l-1.286 0.579c-0.055 0.025-0.099 0.074-0.121 0.136l-0.515 1.447c-0.073 0.204-0.33 0.204-0.402 0l-0.515-1.447c-0.022-0.062-0.066-0.111-0.121-0.136l-1.286-0.579c-0.182-0.082-0.182-0.371 0-0.453l1.286-0.579c0.055-0.025 0.099-0.074 0.121-0.136l0.515-1.447c0.073-0.204 0.33-0.204 0.402 0z"></path>
<path fill="#f6e06e" d="M20.165 1.99c0.573 0.238 0.846 0.895 0.608 1.469s-0.895 0.846-1.469 0.608c-0.573-0.238-0.846-0.895-0.608-1.469s0.895-0.846 1.469-0.608z"></path>
<path fill="#f6e06e" d="M23.605 5.171c0.062 0.26-0.1 0.521-0.36 0.583s-0.521-0.1-0.583-0.36c-0.062-0.26 0.1-0.521 0.36-0.583s0.521 0.1 0.583 0.36z"></path>
<path fill="#faf1a9" d="M2.662 6.378l0.382 1.073c0.016 0.046 0.049 0.082 0.090 0.101l0.954 0.43c0.135 0.061 0.135 0.275 0 0.336l-0.954 0.43c-0.041 0.018-0.073 0.055-0.090 0.101l-0.382 1.073c-0.054 0.152-0.245 0.152-0.299 0l-0.382-1.073c-0.016-0.046-0.049-0.082-0.089-0.101l-0.954-0.43c-0.135-0.061-0.135-0.275 0-0.336l0.954-0.43c0.041-0.018 0.073-0.055 0.089-0.101l0.382-1.073c0.054-0.152 0.245-0.152 0.299 0z"></path>
<path fill="#3c122c" d="M15.081 16.633c-1.523-2.829-2.566-6.562-2.876-10.281 0.363-0.43 0.566-0.978 0.566-1.547v-2.407c0-1.322-1.075-2.398-2.398-2.398h-1.707c-1.322 0-2.398 1.076-2.398 2.398v2.407c0 0.591 0.217 1.155 0.605 1.592-0.289 3.643-1.333 7.395-2.879 10.338-1.149 2.186-1.663 5.201-1.663 7.219v3.679c0 2.409 1.902 4.369 4.239 4.369h5.987c2.338 0 4.239-1.96 4.239-4.369v-3.679c0-2.056-0.531-5.117-1.717-7.32zM3.585 27.482v-3.53c0-0.49 0.035-1.056 0.107-1.661h11.746c0.072 0.604 0.107 1.17 0.107 1.661v3.53zM8.145 6.197c0.014-0.198-0.068-0.391-0.219-0.52-0.257-0.218-0.404-0.536-0.404-0.872v-2.407c0-0.631 0.514-1.145 1.145-1.145h1.707c0.631 0 1.145 0.513 1.145 1.145v2.407c0 0.324-0.138 0.634-0.379 0.851-0.144 0.13-0.22 0.318-0.205 0.511 0.182 2.473 0.68 4.967 1.424 7.232l-1.161 0.69c-0.209-0.895-0.861-1.55-1.633-1.55s-1.424 0.655-1.633 1.55l-1.188-0.707c0.745-2.289 1.235-4.767 1.401-7.185zM10.516 14.703c0 0.766-0.436 1.413-0.951 1.413s-0.951-0.647-0.951-1.413 0.436-1.413 0.951-1.413 0.951 0.647 0.951 1.413zM5.104 17.317c0.522-0.993 0.989-2.072 1.393-3.207l1.347 0.801c0.009 0.005 0.018 0.009 0.027 0.014 0.088 1.090 0.814 1.943 1.694 1.943s1.607-0.853 1.694-1.943c0.009-0.004 0.018-0.008 0.027-0.014l1.322-0.786c0.399 1.108 0.859 2.153 1.37 3.102v0c0.672 1.249 1.116 2.844 1.354 4.313h-11.534c0.233-1.437 0.661-2.994 1.306-4.223zM12.559 30.747h-5.987c-1.449 0-2.66-1.082-2.93-2.513h11.847c-0.27 1.43-1.481 2.513-2.93 2.513z"></path>
<path fill="#3c122c" d="M12.138 24.82h-5.146c-0.208 0-0.376-0.168-0.376-0.376s0.168-0.376 0.376-0.376h5.146c0.208 0 0.376 0.168 0.376 0.376s-0.168 0.376-0.376 0.376z"></path>
<path fill="#3c122c" d="M23.565 20.714c-0.365 0-0.695-0.151-0.982-0.449-0.765-0.794-1.247-2.751-1.433-5.814-0.135-2.232-0.061-4.276-0.060-4.296 0.008-0.202 0.174-0.362 0.376-0.362h4.2c0.202 0 0.368 0.16 0.376 0.362 0.001 0.020 0.075 2.064-0.060 4.296-0.186 3.064-0.668 5.020-1.433 5.814-0.287 0.298-0.618 0.449-0.983 0.449zM21.829 10.544c-0.061 2.436 0.064 7.921 1.295 9.199 0.189 0.196 0.342 0.219 0.441 0.219s0.252-0.023 0.441-0.219c1.231-1.277 1.356-6.762 1.295-9.199z"></path>
<path fill="#3c122c" d="M27.72 32h-8.312c-0.355 0-0.666-0.24-0.757-0.583s0.062-0.705 0.371-0.88l2.958-1.677v-6.569c-1.596-0.982-2.604-3.639-2.997-7.91-0.303-3.289-0.134-6.321-0.127-6.449 0.019-0.331 0.293-0.59 0.625-0.59h8.164c0.332 0 0.606 0.259 0.625 0.591 0.007 0.127 0.176 3.159-0.127 6.449-0.393 4.271-1.401 6.927-2.997 7.91v6.569l2.958 1.677c0.309 0.175 0.461 0.537 0.371 0.88s-0.402 0.583-0.757 0.583zM21.192 30.747h4.745l-1.725-0.978c-0.196-0.111-0.317-0.319-0.317-0.545v-7.312c0-0.25 0.149-0.477 0.379-0.576 1.322-0.567 2.253-3.073 2.622-7.057 0.218-2.362 0.183-4.642 0.149-5.684h-6.962c-0.034 1.043-0.069 3.323 0.149 5.684 0.369 3.984 1.3 6.49 2.622 7.057 0.23 0.099 0.379 0.325 0.379 0.576v7.312c0 0.226-0.121 0.434-0.317 0.545z"></path>
<path fill="#3c122c" d="M23.059 12.822c0.277 0.066 0.449 0.344 0.384 0.621s-0.344 0.449-0.621 0.384c-0.277-0.066-0.449-0.344-0.384-0.621s0.344-0.449 0.621-0.384z"></path>
<path fill="#3c122c" d="M24.736 14.791c0 0.285-0.231 0.516-0.516 0.516s-0.516-0.231-0.516-0.516 0.231-0.516 0.516-0.516 0.516 0.231 0.516 0.516z"></path>
<path fill="#fff" d="M5.609 20.899c-0.032 0-0.064-0.002-0.096-0.007-0.342-0.053-0.576-0.373-0.524-0.715 0.083-0.535 0.207-1.056 0.369-1.547 0.109-0.328 0.463-0.507 0.791-0.398s0.507 0.463 0.398 0.791c-0.141 0.426-0.248 0.878-0.321 1.345-0.048 0.309-0.314 0.531-0.618 0.531z"></path>
<path fill="#fff" d="M6.712 17.836c-0.119 0-0.238-0.034-0.345-0.104-0.289-0.191-0.368-0.579-0.178-0.868 0.064-0.097 0.131-0.189 0.199-0.274 0.217-0.27 0.611-0.313 0.881-0.096s0.313 0.611 0.096 0.881c-0.044 0.055-0.088 0.115-0.13 0.179-0.12 0.182-0.32 0.281-0.523 0.281z"></path>
<path fill="#fff" d="M8.521 4.3c-0.346 0-0.626-0.28-0.626-0.626v-0.905c0-0.346 0.28-0.626 0.626-0.626s0.626 0.28 0.626 0.626v0.905c0 0.346-0.28 0.626-0.626 0.626z"></path>
</svg>
