<!-- Generated by IcoMoon.io -->
<svg version="1.1" xmlns="http://www.w3.org/2000/svg" width="32" height="32" viewBox="0 0 32 32">
<title>coconut</title>
<path fill="#d789b9" d="M20.987 20.253c0.377 0 0.739-0.212 0.911-0.576l2.788-5.87 6.268-2.187c0.524-0.187 0.798-0.764 0.611-1.288s-0.764-0.798-1.288-0.611l-6.661 2.327c-0.252 0.090-0.457 0.276-0.572 0.517l-2.967 6.246c-0.239 0.503-0.025 1.104 0.478 1.343 0.14 0.066 0.287 0.098 0.432 0.098z"></path>
<path fill="#a07575" d="M7.438 17.211c-0.44 1.132-0.682 2.363-0.682 3.65 0 5.567 4.513 10.079 10.079 10.079s10.079-4.513 10.079-10.079c0-1.288-0.242-2.518-0.682-3.65z"></path>
<path fill="#c49a8b" d="M26.77 19.783c-0.115-0.89-0.296-1.751-0.536-2.572h-18.795c-0.24 0.821-0.421 1.682-0.536 2.572z"></path>
<path fill="#fff" d="M20.719 17.010v4.841c0 0.633-0.513 1.146-1.146 1.146s-1.146-0.513-1.146-1.146v-4.841z"></path>
<path fill="#fff" d="M24.483 17.166v2.847c0 0.633-0.513 1.146-1.146 1.146s-1.146-0.513-1.146-1.146v-2.885z"></path>
<path fill="#925873" d="M22.737 19.68c0.007 0.141 0.012 0.283 0.012 0.426 0 4.416-3.58 7.996-7.996 7.996-2.876 0-5.397-1.519-6.806-3.798h-0.586c1.407 3.871 5.118 6.636 9.476 6.636 5.567 0 10.079-4.513 10.079-10.079 0-0.399-0.023-0.794-0.069-1.181h-4.11z"></path>
<path fill="#e1bdfc" d="M23.337 21.158c0.633 0 1.146-0.513 1.146-1.146v-2.802h-2.275c0.349 0.898 0.541 1.875 0.541 2.896 0 0.291-0.016 0.577-0.046 0.86 0.182 0.121 0.4 0.192 0.635 0.192z"></path>
<path fill="#b2748a" d="M24.553 19.68h2.294c-0.101-0.861-0.31-1.689-0.613-2.47h-1.68v2.47z"></path>
<path fill="#c1e5ef" d="M7.041 7.496l-4.717 5.549c-0.195 0.23 0.034 0.571 0.321 0.476l12.734-4.2c0.286-0.094 0.268-0.505-0.026-0.574l-7.093-1.653c-0.449-0.105-0.92 0.050-1.218 0.402z"></path>
<path fill="#a1e8c3" d="M10.767 18.99c-0.137 1.042-2.345 2.285-5.314 1.696s-4.827-3.832-4.827-3.832 2.955-2.29 5.924-1.702c2.969 0.588 4.354 2.796 4.217 3.837z"></path>
<path fill="#f6e06e" d="M12.942 15.325c1.187 0.715-0.741 3.31-0.741 3.31s3.182-0.258 2.947 1.679-3.377 0.318-3.377 0.318 1.171 3.104-0.686 3.322c-1.857 0.218-1.346-3.113-1.346-3.113s-2.769 1.979-3.371 0.374c-0.602-1.605 2.545-2.242 2.545-2.242s-2.885-1.755-1.398-3.091c1.487-1.335 2.919 1.728 2.919 1.728s1.32-2.999 2.507-2.284z"></path>
<path fill="#e8c2d8" d="M21.372 4.486l0.524 1.473c0.022 0.063 0.067 0.113 0.123 0.138l1.309 0.59c0.185 0.083 0.185 0.378 0 0.461l-1.309 0.59c-0.056 0.025-0.1 0.075-0.123 0.138l-0.524 1.473c-0.074 0.208-0.336 0.208-0.41 0l-0.524-1.473c-0.022-0.063-0.067-0.113-0.123-0.138l-1.309-0.59c-0.185-0.083-0.185-0.378 0-0.461l1.309-0.59c0.056-0.025 0.1-0.075 0.123-0.138l0.524-1.473c0.074-0.208 0.336-0.208 0.41 0z"></path>
<path fill="#d789b9" d="M28.891 2.466c0.584 0.242 0.861 0.912 0.619 1.495s-0.912 0.861-1.495 0.619c-0.584-0.242-0.861-0.912-0.619-1.495s0.912-0.861 1.495-0.619z"></path>
<path fill="#d789b9" d="M4.354 4.571c0 0.268-0.217 0.484-0.485 0.484s-0.485-0.217-0.485-0.484c0-0.268 0.217-0.484 0.485-0.484s0.485 0.217 0.485 0.484z"></path>
<path fill="#e8c2d8" d="M14.307 0.549l0.389 1.093c0.017 0.047 0.050 0.084 0.091 0.103l0.971 0.437c0.137 0.062 0.137 0.28 0 0.342l-0.971 0.438c-0.042 0.019-0.075 0.056-0.091 0.103l-0.389 1.093c-0.055 0.154-0.249 0.154-0.304 0l-0.389-1.093c-0.017-0.047-0.050-0.084-0.091-0.103l-0.971-0.438c-0.137-0.062-0.137-0.28 0-0.342l0.971-0.438c0.042-0.019 0.075-0.056 0.091-0.103l0.389-1.093c0.055-0.154 0.249-0.154 0.304 0z"></path>
<path fill="#3c122c" d="M31.919 10.206c-0.124-0.348-0.377-0.627-0.71-0.785s-0.71-0.177-1.055-0.054l-6.663 2.328c-0.348 0.124-0.626 0.376-0.785 0.71l-1.985 4.18h-7.078c0.063-0.28 0.083-0.555 0.034-0.803-0.066-0.337-0.253-0.606-0.54-0.779s-0.609-0.21-0.933-0.107c-0.403 0.128-0.779 0.471-1.099 0.867l-1.301-3.944 5.77-1.903c0.398-0.131 0.653-0.501 0.634-0.92s-0.306-0.764-0.714-0.859l-7.089-1.653c-0.682-0.159-1.387 0.074-1.84 0.607l-4.715 5.546c-0.272 0.319-0.297 0.768-0.063 1.116 0.177 0.263 0.462 0.41 0.762 0.41 0.098 0 0.197-0.016 0.295-0.048l5.77-1.903 1.275 3.865c-0.355-0.409-0.8-0.775-1.304-0.878-0.002-0-0.004-0.001-0.006-0.001-0.558-0.287-1.194-0.517-1.905-0.658-3.211-0.636-6.299 1.72-6.429 1.821-0.247 0.191-0.315 0.535-0.16 0.806 0.082 0.143 2.037 3.498 5.249 4.135 0.242 0.048 0.478 0.083 0.71 0.109 0.034 0.081 0.074 0.156 0.118 0.225 0.398 5.543 5.034 9.932 10.676 9.932 3.233 0 6.135-1.44 8.1-3.712l0.635 0.434c0.108 0.074 0.231 0.109 0.353 0.109 0.2 0 0.396-0.095 0.517-0.273 0.195-0.285 0.122-0.675-0.163-0.87l-0.578-0.395c0.166-0.245 0.322-0.497 0.468-0.756l0.54 0.369c0.108 0.074 0.231 0.109 0.353 0.109 0.2 0 0.396-0.095 0.517-0.273 0.195-0.285 0.122-0.675-0.163-0.87l-0.691-0.472c0.527-1.265 0.819-2.651 0.819-4.105 0-1.336-0.244-2.641-0.724-3.877-0.094-0.241-0.325-0.399-0.584-0.399h-2.451l1.175-2.474 6.122-2.136c0.348-0.124 0.627-0.377 0.785-0.71s0.177-0.71 0.053-1.058zM7.517 7.902c0.117-0.138 0.286-0.215 0.462-0.215 0.046 0 0.093 0.005 0.139 0.016l5.954 1.388-10.516 3.469zM22.568 17.837h1.54v2.176c0 0.424-0.345 0.77-0.77 0.77s-0.77-0.345-0.77-0.77zM21.816 19.391h-0.722v-1.554h0.722zM18.803 17.837h1.54v4.015c0 0.425-0.345 0.77-0.77 0.77s-0.77-0.345-0.77-0.77v-4.015zM18.052 17.837v1.554h-2.683c-0.067-0.133-0.155-0.257-0.262-0.369-0.557-0.579-1.524-0.736-2.2-0.769 0.077-0.126 0.158-0.267 0.239-0.417zM10.094 17.768c0.062 0.134 0.196 0.219 0.345 0.217 0.147-0.002 0.28-0.089 0.34-0.224 0.321-0.73 1.054-1.959 1.651-2.148 0.119-0.038 0.217-0.027 0.319 0.034 0.106 0.064 0.165 0.15 0.19 0.28 0.123 0.623-0.572 1.854-1.039 2.484-0.088 0.118-0.098 0.277-0.027 0.406s0.212 0.204 0.359 0.192c0.47-0.038 1.805-0.017 2.334 0.534 0.181 0.188 0.247 0.418 0.21 0.725-0.042 0.348-0.193 0.465-0.302 0.523-0.562 0.298-1.85-0.145-2.53-0.494-0.138-0.071-0.306-0.050-0.422 0.053s-0.157 0.267-0.102 0.413c0.18 0.479 0.562 1.861 0.175 2.496-0.114 0.188-0.29 0.289-0.553 0.32-0.337 0.039-0.498-0.082-0.589-0.177-0.509-0.527-0.415-2.024-0.341-2.506 0.023-0.149-0.046-0.298-0.175-0.377-0.060-0.037-0.129-0.056-0.197-0.056-0.077 0-0.153 0.023-0.218 0.070-0.419 0.3-1.771 1.108-2.457 0.899-0.166-0.050-0.272-0.159-0.344-0.351-0.079-0.211-0.069-0.393 0.031-0.574 0.364-0.658 1.739-1.066 2.237-1.168 0.151-0.031 0.268-0.151 0.295-0.303s-0.043-0.305-0.174-0.386c-0.433-0.265-1.573-1.113-1.641-1.851-0.013-0.148 0.003-0.374 0.298-0.64s0.522-0.257 0.666-0.227c0.726 0.147 1.445 1.374 1.661 1.834zM1.487 17.025c0.903-0.57 2.95-1.652 4.941-1.258 0.198 0.039 0.385 0.086 0.562 0.138-0.256 0.357-0.295 0.71-0.271 0.966 0.032 0.343 0.184 0.673 0.391 0.973l-2.31-0.467c-0.204-0.041-0.402 0.090-0.443 0.294s0.090 0.402 0.294 0.443l3.368 0.681c0.010 0.008 0.021 0.017 0.031 0.025-0.673 0.227-1.581 0.644-1.958 1.324-0.002 0.004-0.004 0.008-0.006 0.011-0.167-0.021-0.338-0.048-0.512-0.083-1.991-0.395-3.47-2.176-4.088-3.047zM16.836 30.314c-4.755 0-8.7-3.529-9.356-8.105 0.636-0.052 1.327-0.371 1.82-0.649-0.024 0.732 0.053 1.787 0.611 2.365 0.264 0.273 0.609 0.414 1.008 0.414 0.069 0 0.139-0.004 0.211-0.013 0.49-0.058 0.873-0.291 1.107-0.676 0.405-0.666 0.288-1.657 0.125-2.353 0.714 0.265 1.761 0.53 2.464 0.158 0.275-0.145 0.618-0.454 0.696-1.097 0.009-0.073 0.013-0.146 0.014-0.216h2.517v1.709c0 0.839 0.683 1.521 1.521 1.521s1.521-0.682 1.521-1.521v-1.709h0.727c0.066 0.778 0.72 1.392 1.515 1.392s1.449-0.613 1.515-1.392h1.409c0.018 0.238 0.027 0.478 0.027 0.718 0 5.213-4.241 9.453-9.453 9.453zM26.175 19.391h-1.317v-1.554h0.936c0.171 0.507 0.298 1.026 0.38 1.554zM31.187 10.942c-0.072 0.153-0.2 0.268-0.356 0.324l-6.416 2.239-1.463 3.080h-1.4l1.832-3.858c0.072-0.152 0.2-0.268 0.356-0.323l6.663-2.328c0.070-0.025 0.141-0.037 0.213-0.037 0.092 0 0.184 0.021 0.27 0.061 0.153 0.072 0.268 0.2 0.325 0.359s0.048 0.331-0.024 0.483z"></path>
<path fill="#3c122c" d="M22.306 24.134c-0.207 0-0.376 0.168-0.376 0.376v0.815c0 0.207 0.168 0.376 0.376 0.376s0.376-0.168 0.376-0.376v-0.815c-0-0.207-0.168-0.376-0.376-0.376z"></path>
<path fill="#3c122c" d="M20.256 26.207c-0.207 0-0.376 0.168-0.376 0.376v0.815c0 0.207 0.168 0.376 0.376 0.376s0.376-0.168 0.376-0.376v-0.815c0-0.207-0.168-0.376-0.376-0.376z"></path>
<path fill="#3c122c" d="M16.219 25.722c-0.207 0-0.376 0.168-0.376 0.376v0.815c0 0.207 0.168 0.376 0.376 0.376s0.376-0.168 0.376-0.376v-0.815c0-0.207-0.168-0.376-0.376-0.376z"></path>
<path fill="#3c122c" d="M9.103 19.914c0.047 0.165 0.198 0.272 0.361 0.272 0.034 0 0.069-0.005 0.104-0.015l0.681-0.196 0.196 0.681c0.047 0.165 0.198 0.272 0.361 0.272 0.034 0 0.069-0.005 0.104-0.015 0.199-0.057 0.314-0.266 0.257-0.465l-0.196-0.681 0.681-0.196c0.199-0.057 0.314-0.266 0.257-0.465s-0.266-0.314-0.465-0.257l-0.681 0.196-0.196-0.681c-0.057-0.199-0.266-0.314-0.465-0.257s-0.314 0.266-0.257 0.465l0.196 0.681-0.681 0.196c-0.199 0.058-0.314 0.266-0.257 0.465z"></path>
</svg>
