<!-- Generated by IcoMoon.io -->
<svg version="1.1" xmlns="http://www.w3.org/2000/svg" width="32" height="32" viewBox="0 0 32 32">
<title>coffee</title>
<path fill="#fff" d="M21.588 31.37h-11.594c-0.516 0-0.938-0.412-0.95-0.928l-0.506-21.354c-0.013-0.534 0.417-0.973 0.95-0.973h12.707c0.536 0 0.966 0.442 0.95 0.978l-0.607 21.354c-0.015 0.514-0.436 0.924-0.95 0.924z"></path>
<path fill="#e1bdfc" d="M19.87 10.564l-0.432 16.988c-0.011 0.448-0.339 0.804-0.74 0.804h-9.027c-0.314 0-0.583-0.22-0.69-0.53l0.062 2.615c0.012 0.516 0.434 0.928 0.95 0.928h11.594c0.515 0 0.936-0.409 0.95-0.924l0.565-19.882z"></path>
<path fill="#c49a8b" d="M22.473 23.129h-13.263c-0.668 0-1.21-0.542-1.21-1.21v-5.956c0-0.668 0.542-1.21 1.21-1.21h13.263c0.668 0 1.21 0.542 1.21 1.21v5.956c0 0.668-0.542 1.21-1.21 1.21z"></path>
<path fill="#ccf3e2" d="M22.708 4.145h-7.206v-0.265c0-0.707-0.573-1.28-1.28-1.28h-3.636c-0.707 0-1.28 0.573-1.28 1.28v0.265h-0.34c-1.332 0-2.244 6.642-0.912 6.642h15.581c1.477 0 0.552-6.642-0.925-6.642z"></path>
<path fill="#b2748a" d="M22.376 14.753h-3.209c0.722 0 1.307 0.592 1.307 1.323v4.018c0 0.73-0.585 1.323-1.307 1.323h-9.861c-0.722 0-1.307-0.592-1.307-1.323v1.714c0 0.73 0.585 1.323 1.307 1.323h13.069c0.722 0 1.307-0.592 1.307-1.323v-5.731c0-0.73-0.585-1.323-1.307-1.323z"></path>
<path fill="#b1b6e1" d="M22.708 4.145h-2.824c1.204-0 1.959 4.901 0.754 4.901h-12.707c-0.284 0-0.442-0.334-0.503-0.828-0.103 1.375 0.059 2.569 0.623 2.569h15.581c1.477 0 0.552-6.642-0.925-6.642z"></path>
<path fill="#cdf4e3" d="M2.721 0.155l0.52 1.461c0.022 0.063 0.066 0.112 0.122 0.137l1.298 0.585c0.183 0.083 0.183 0.375 0 0.458l-1.298 0.585c-0.056 0.025-0.1 0.075-0.122 0.137l-0.52 1.461c-0.073 0.206-0.333 0.206-0.406 0l-0.52-1.461c-0.022-0.063-0.066-0.112-0.122-0.137l-1.298-0.585c-0.183-0.083-0.183-0.375 0-0.458l1.298-0.585c0.056-0.025 0.1-0.075 0.122-0.137l0.52-1.461c0.073-0.206 0.333-0.206 0.406-0z"></path>
<path fill="#a2e9c4" d="M29.006 4.419c0.578 0.243 0.85 0.908 0.607 1.486s-0.908 0.85-1.486 0.607c-0.578-0.243-0.85-0.908-0.607-1.486s0.908-0.85 1.486-0.607z"></path>
<path fill="#a2e9c4" d="M3.135 10.525c0 0.27-0.219 0.49-0.49 0.49s-0.49-0.219-0.49-0.49c0-0.27 0.219-0.49 0.49-0.49s0.49 0.219 0.49 0.49z"></path>
<path fill="#cdf4e3" d="M30.222 10.357l0.386 1.084c0.017 0.046 0.049 0.083 0.090 0.102l0.963 0.434c0.136 0.061 0.136 0.278 0 0.339l-0.963 0.434c-0.041 0.019-0.074 0.055-0.090 0.102l-0.386 1.084c-0.055 0.153-0.247 0.153-0.302 0l-0.386-1.084c-0.017-0.046-0.049-0.083-0.090-0.102l-0.963-0.434c-0.136-0.061-0.136-0.278 0-0.339l0.963-0.434c0.041-0.019 0.074-0.055 0.090-0.102l0.386-1.084c0.055-0.153 0.247-0.153 0.302 0z"></path>
<path fill="#3c122c" d="M25.011 8.857c-0-1.061-0.191-2.289-0.51-3.284-0.438-1.366-1.041-2.058-1.792-2.058h-6.612c-0.171-0.879-0.946-1.545-1.875-1.545h-3.636c-0.939 0-1.722 0.682-1.88 1.576-0.607 0.149-1.085 0.836-1.454 2.090-0.296 1.007-0.481 2.28-0.481 3.322 0 0.614 0.062 1.117 0.184 1.496 0.249 0.773 0.737 0.932 1.008 0.958l0.074 3.14c-0.407 0.34-0.667 0.85-0.667 1.421v5.937c0 0.664 0.352 1.247 0.879 1.573l0.165 6.974c0.020 0.865 0.714 1.543 1.58 1.543h11.594c0.861 0 1.555-0.675 1.58-1.536l0.197-6.94c0.565-0.317 0.948-0.921 0.948-1.614v-5.937c0-0.582-0.271-1.102-0.692-1.441l0.089-3.118c0.519-0.034 1.301-0.436 1.301-2.556zM23.053 21.91c0 0.325-0.265 0.59-0.59 0.59h-13.244c-0.325 0-0.59-0.265-0.59-0.59v-5.937c0-0.325 0.265-0.59 0.59-0.59h13.244c0.325 0 0.59 0.265 0.59 0.59zM9.287 14.123l-0.064-2.707h13.226l-0.077 2.707zM9.935 3.88c0-0.359 0.292-0.651 0.651-0.651h3.636c0.359 0 0.651 0.292 0.651 0.651v0.42c0 0.359-0.292 0.651-0.651 0.651h-3.636c-0.359 0-0.651-0.292-0.651-0.651zM8.191 7.177c0.183-1.080 0.442-1.768 0.638-2.126 0.292 0.681 0.969 1.16 1.756 1.16h3.636c0.89 0 1.639-0.611 1.851-1.436h6.609c0.172 0.099 0.611 0.779 0.892 2.279 0.307 1.642 0.161 2.82-0.019 3.103h-15.37c-0.141-0.31-0.263-1.382 0.007-2.98zM21.588 30.74h-11.594c-0.176 0-0.317-0.138-0.321-0.313l-0.158-6.668h12.583l-0.19 6.669c-0.005 0.175-0.146 0.312-0.321 0.312z"></path>
<path fill="#3c122c" d="M17.191 21.031c-0.209 0-0.378-0.169-0.378-0.378v-0.889c0-0.209 0.169-0.378 0.378-0.378s0.378 0.169 0.378 0.378v0.889c0 0.209-0.169 0.378-0.378 0.378z"></path>
<path fill="#3c122c" d="M19.738 21.031c-0.209 0-0.378-0.169-0.378-0.378v-0.889c0-0.209 0.169-0.378 0.378-0.378s0.378 0.169 0.378 0.378v0.889c0 0.209-0.169 0.378-0.378 0.378z"></path>
<path fill="#fff" d="M10.107 20.562c-0.348 0-0.63-0.282-0.63-0.63v-1.044c0-0.348 0.282-0.63 0.63-0.63s0.63 0.282 0.63 0.63v1.044c0 0.348-0.282 0.63-0.63 0.63z"></path>
<path fill="#fff" d="M10.107 17.603c-0.348 0-0.63-0.282-0.63-0.63v-0.333c0-0.348 0.282-0.63 0.63-0.63s0.63 0.282 0.63 0.63v0.333c0 0.348-0.282 0.63-0.63 0.63z"></path>
</svg>
