<!-- Generated by IcoMoon.io -->
<svg version="1.1" xmlns="http://www.w3.org/2000/svg" width="32" height="32" viewBox="0 0 32 32">
<title>cola1</title>
<path fill="#a07575" d="M20.208 21.794c1.882-1.882 3.129-4.072 3.662-6.157 0.145-0.569 1.448-4.101 1.448-4.101 0.527-1.277 1.301-2.437 2.278-3.414l2.875-2.875-3.688-3.688-2.881 2.881c-0.973 0.973-2.129 1.745-3.401 2.272 0 0-3.53 1.285-4.097 1.428-2.092 0.529-4.292 1.778-6.181 3.668-1.219 1.219-1.896 2.16-2.561 3.525-0.586 1.203-1.151 2.265-1.908 3.256-0.472 0.618-1.086 1.113-1.781 1.459-0.916 0.456-1.961 1.379-2.741 2.361-0.889 1.12-0.783 2.733 0.228 3.744l4.361 4.36c0.962 0.962 2.475 1.107 3.597 0.336 1.049-0.72 2.047-1.728 2.527-2.656 0.439-0.849 1.047-1.602 1.792-2.201 0.85-0.683 1.746-1.249 2.816-1.77 1.365-0.665 2.438-1.21 3.657-2.429z"></path>
<path fill="#d789b9" d="M19.905 22.473l-10.162-10.162c1.554-1.788 3.349-3.009 5.369-3.701l8.255 8.255c-0.383 1.71-1.634 3.599-3.462 5.608z"></path>
<path fill="#fff" d="M13.841 16.336c2.56 0.334 4.311 2.515 6.076 2.428 1.173-0.058 2.491-0.691 3.342-1.177l0.036-0.673-1.27-1.233c-0.616 0.116-1.274 0.172-1.88 0.085-1.907-0.273-3.285-3.192-6.198-3.718-1.997-0.361-3.313-0.086-4.195 0.362z"></path>
<path fill="#e1bdfc" d="M22.945 18.058c0.14-0.275 0.268-0.55 0.384-0.826l-1.502-1.502c-0.377 0.063-0.741 0.064-1.114 0.058-0.395 0.959-0.974 1.92-1.724 2.819 1.318 0.38 2.663-0.126 3.956-0.549z"></path>
<path fill="#c668b9" d="M18.989 18.607c-0.233 0.279-0.482 0.553-0.747 0.819-0.174 0.174-0.343 0.329-0.511 0.472 0.727 0.727 1.454 1.454 2.181 2.181 0.098-0.091 0.197-0.186 0.296-0.285 1.16-1.16 2.079-2.438 2.738-3.735-1.294 0.423-2.639 0.929-3.956 0.549z"></path>
<path fill="#c668b9" d="M21.827 15.73l-0.807-0.807c-0.085 0.287-0.188 0.576-0.307 0.864 0.373 0.006 0.737 0.005 1.114-0.058z"></path>
<path fill="#925873" d="M17.233 20.285c-0.584 0.417-1.173 0.711-1.854 1.043-0.819 0.399-1.507 0.831-2.159 1.35-0.596 0.474-1.095 1.064-1.44 1.742-0.372 0.733-1.162 1.531-1.991 2.1-0.877 0.602-2.061 0.487-2.813-0.266l-3.414-3.414c-0.581-0.581-0.78-1.417-0.569-2.167-0.627 0.478-1.251 1.094-1.761 1.736-0.889 1.12-0.783 2.733 0.228 3.744l4.361 4.361c0.962 0.962 2.475 1.107 3.597 0.336 1.043-0.716 2.035-1.716 2.518-2.64 0.446-0.853 1.051-1.615 1.801-2.218 0.85-0.683 1.746-1.249 2.816-1.77 1.073-0.522 1.964-0.971 2.889-1.731z"></path>
<path fill="#925873" d="M24.305 4.028l-1.060 1.057 1.531 1.531c0.372 0.372 0.373 0.974 0.003 1.347l-0.752 0.759c-0.765 0.765-1.371 1.673-1.783 2.673 0 0-0.723 1.961-1.020 2.846l2.354 2.354c0.114-0.321 0.212-0.64 0.293-0.958 0.145-0.569 1.448-4.101 1.448-4.101 0.527-1.277 1.301-2.437 2.278-3.414l0.402-0.402c-1.231-1.231-2.462-2.462-3.692-3.692z"></path>
<path fill="#d789b9" d="M28.564 7.618l-4.153-4.153c-0.237-0.237-0.237-0.622 0-0.859l1.774-1.774c0.237-0.237 0.622-0.237 0.859 0l4.153 4.153c0.237 0.237 0.237 0.622 0 0.859l-1.774 1.774c-0.237 0.237-0.622 0.237-0.859 0z"></path>
<path fill="#e8c2d8" d="M4.315 7.632l0.514 1.445c0.022 0.062 0.066 0.111 0.121 0.136l1.284 0.579c0.181 0.082 0.181 0.371 0 0.453l-1.284 0.579c-0.055 0.025-0.099 0.074-0.121 0.136l-0.514 1.445c-0.073 0.204-0.329 0.204-0.402 0l-0.514-1.445c-0.022-0.062-0.066-0.111-0.121-0.136l-1.284-0.579c-0.181-0.082-0.181-0.371 0-0.453l1.284-0.579c0.055-0.025 0.099-0.074 0.121-0.136l0.514-1.445c0.073-0.204 0.329-0.204 0.402 0z"></path>
<path fill="#d789b9" d="M8.376 2.309c0.603 0.143 0.976 0.747 0.834 1.35s-0.747 0.976-1.35 0.834c-0.603-0.143-0.976-0.747-0.834-1.35s0.747-0.976 1.35-0.834z"></path>
<path fill="#d789b9" d="M16.913 3.945c0 0.267-0.217 0.484-0.484 0.484s-0.484-0.217-0.484-0.484 0.217-0.484 0.484-0.484 0.484 0.217 0.484 0.484z"></path>
<path fill="#e8c2d8" d="M28.256 21.423l0.381 1.072c0.016 0.046 0.049 0.082 0.089 0.101l0.953 0.429c0.135 0.061 0.135 0.275 0 0.336l-0.953 0.429c-0.041 0.018-0.073 0.055-0.089 0.101l-0.381 1.072c-0.054 0.151-0.244 0.151-0.298 0l-0.381-1.072c-0.016-0.046-0.049-0.082-0.089-0.101l-0.953-0.429c-0.135-0.061-0.135-0.275 0-0.336l0.953-0.429c0.041-0.018 0.073-0.055 0.089-0.101l0.381-1.072c0.054-0.151 0.244-0.151 0.298 0z"></path>
<path fill="#3c122c" d="M31.639 4.542l-4.152-4.152c-0.481-0.481-1.264-0.481-1.745 0l-1.773 1.773c-0.409 0.409-0.469 1.034-0.184 1.508l-0.326 0.326c-0.917 0.917-1.988 1.634-3.185 2.131-1.408 0.512-3.631 1.306-4.023 1.405-2.276 0.575-4.574 1.936-6.471 3.832-1.254 1.254-1.98 2.255-2.681 3.694-0.595 1.223-1.136 2.226-1.843 3.15-0.404 0.528-0.944 0.971-1.563 1.279-0.976 0.486-2.079 1.433-2.952 2.532-1.085 1.366-0.967 3.334 0.276 4.576l4.361 4.361c0.669 0.669 1.555 1.014 2.446 1.014 0.677 0 1.357-0.198 1.947-0.604 1.201-0.825 2.221-1.904 2.728-2.885 0.406-0.785 0.954-1.459 1.628-2.001 0.824-0.662 1.681-1.2 2.698-1.696 1.502-0.731 2.579-1.304 3.825-2.55 1.888-1.888 3.247-4.177 3.826-6.444 0.1-0.393 0.905-2.62 1.425-4.028 0.498-1.203 1.217-2.279 2.137-3.2l0.321-0.321c0.19 0.115 0.408 0.178 0.636 0.178 0.33 0 0.64-0.128 0.873-0.361l1.773-1.773c0.481-0.481 0.481-1.264 0-1.745zM22.388 17.773c-0.781 0.355-1.661 0.575-2.49 0.616-0.64 0.032-1.571-0.556-2.471-1.125-1.213-0.766-2.462-1.554-3.613-1.374l-3.27-3.27c0.797-0.251 1.958-0.452 3.337-0.203 1.488 0.269 2.586 1.239 3.554 2.095 0.864 0.764 1.681 1.486 2.657 1.625 0.203 0.029 0.429 0.043 0.662 0.043 0.451 0 0.923-0.052 1.284-0.145l0.784 0.784c-0.129 0.319-0.274 0.637-0.435 0.953zM20.198 15.394c-0.754-0.108-1.455-0.728-2.266-1.445-1.042-0.921-2.223-1.965-3.918-2.271-1.038-0.188-1.966-0.143-2.733-0.008 1.207-1.078 2.549-1.926 3.916-2.477l6.198 6.198c-0.394 0.048-0.848 0.053-1.196 0.003zM16.277 23.66c-1.103 0.537-2.035 1.123-2.934 1.845-0.812 0.652-1.47 1.46-1.956 2.402-0.41 0.794-1.301 1.724-2.325 2.428-0.872 0.599-2.049 0.488-2.8-0.263l-4.361-4.361c-0.792-0.792-0.87-2.044-0.181-2.913 0.753-0.948 1.723-1.788 2.53-2.19 0.789-0.393 1.481-0.96 2-1.639 0.769-1.007 1.345-2.072 1.973-3.362 0.487-1.001 0.973-1.748 1.687-2.558l1.624 1.624c-0.185 0.25-0.374 0.507-0.569 0.771-1.85 2.515-3.948 5.366-6.083 6.645-0.178 0.107-0.236 0.337-0.129 0.515 0.070 0.117 0.195 0.183 0.322 0.183 0.066 0 0.132-0.017 0.192-0.053 2.265-1.356 4.41-4.272 6.302-6.844 0.169-0.229 0.336-0.456 0.501-0.679l2.1 2.1-7.395 7.395c-0.147 0.147-0.147 0.384 0 0.531 0.073 0.073 0.169 0.11 0.266 0.11s0.192-0.037 0.265-0.11l7.395-7.395 2.027 2.027c-0.24 0.178-0.485 0.358-0.733 0.54-2.539 1.869-5.417 3.986-6.777 6.258-0.107 0.178-0.049 0.408 0.129 0.515 0.060 0.036 0.127 0.053 0.193 0.053 0.128 0 0.252-0.065 0.322-0.183 1.283-2.142 4.096-4.213 6.578-6.039 0.279-0.205 0.554-0.408 0.824-0.608l1.682 1.682c-0.801 0.64-1.601 1.053-2.671 1.574zM19.765 21.351c-0.084 0.084-0.167 0.164-0.249 0.241l-4.922-4.922c0.749 0.166 1.6 0.703 2.432 1.229 1.010 0.638 1.966 1.242 2.822 1.242 0.029 0 0.058-0.001 0.087-0.002 0.616-0.030 1.256-0.15 1.873-0.344-0.565 0.901-1.252 1.765-2.043 2.556zM27.152 7.68c-1.040 1.040-1.852 2.258-2.414 3.618-0.003 0.007-0.006 0.015-0.009 0.022-0.134 0.365-1.318 3.579-1.467 4.162-0.047 0.185-0.101 0.371-0.16 0.557l-3.299-3.299 1.975-1.975c0.147-0.147 0.147-0.384 0-0.531s-0.384-0.147-0.531 0l-1.975 1.975-3.296-3.296c0.193-0.061 0.387-0.117 0.58-0.165 0.581-0.147 3.794-1.314 4.158-1.447 0.009-0.003 0.017-0.006 0.025-0.010 1.355-0.561 2.567-1.371 3.604-2.408l0.299-0.299 2.803 2.803zM28.994 7.163l-4.128-4.127 1.748-1.748 4.128 4.128z"></path>
<path fill="#fff" d="M22.13 8.359c-0.222 0-0.438-0.119-0.551-0.328-0.165-0.304-0.052-0.684 0.252-0.848 0.142-0.077 0.276-0.154 0.401-0.231 0.295-0.181 0.68-0.088 0.861 0.206s0.088 0.68-0.206 0.861c-0.144 0.088-0.299 0.177-0.46 0.265-0.095 0.051-0.197 0.076-0.297 0.076z"></path>
<path fill="#fff" d="M17.947 9.961c-0.289 0-0.549-0.201-0.611-0.495-0.072-0.338 0.143-0.67 0.481-0.743 0.906-0.193 1.748-0.537 2.64-0.9l0.122-0.050c0.32-0.13 0.685 0.024 0.816 0.344s-0.023 0.685-0.343 0.816l-0.122 0.050c-0.903 0.368-1.836 0.748-2.851 0.965-0.044 0.009-0.088 0.014-0.131 0.014z"></path>
</svg>
