<!-- Generated by IcoMoon.io -->
<svg version="1.1" xmlns="http://www.w3.org/2000/svg" width="32" height="32" viewBox="0 0 32 32">
<title>Ice-Tea</title>
<path fill="#f4dab5" d="M24.769 11.361h-16.125l-1.266 4.096c-1.854 5.366-0.738 11.312 2.936 15.64l0.232 0.273h12.32l0.232-0.273c3.674-4.328 4.791-10.274 2.936-15.64z"></path>
<path fill="#a1e8c3" d="M18.616 2.982s-3.499 1.215-4.75 3.99c-0.095-0.091-0.193-0.182-0.296-0.27-2.382-2.046-6.219-1.485-6.219-1.485s0.024 3.878 2.406 5.924c1.654 1.421 3.427 1.856 4.575 1.698 0.053 0.029 0.105 0.054 0.159 0.071 1.036 0.34 3.552-0.649 4.722-3.562s-0.597-6.366-0.597-6.366z"></path>
<path fill="#fff" d="M22.968 27.963l-0.286-2.762c-0.065-0.631-0.63-1.089-1.26-1.024l-2.673 0.277c-0.046 0.005-0.091 0.013-0.135 0.023l0.118-0.254c0.268-0.575 0.019-1.258-0.556-1.525l-2.436-1.134c-0.575-0.268-1.258-0.019-1.525 0.556l-1.172 2.517c-0.268 0.575-0.019 1.258 0.556 1.525l2.436 1.134c0.575 0.268 1.258 0.019 1.525-0.556l0.222-0.477 0.229 2.213c0.065 0.631 0.63 1.089 1.26 1.024l2.673-0.277c0.631-0.065 1.089-0.63 1.024-1.26z"></path>
<path fill="#fff" d="M15.227 12.887l-0.58-2.732c-0.131-0.616-0.736-1.009-1.352-0.878l-2.645 0.562c-0.616 0.131-1.009 0.736-0.878 1.352l0.58 2.732c0.131 0.616 0.736 1.009 1.352 0.878l2.645-0.562c0.616-0.131 1.009-0.736 0.878-1.352z"></path>
<path fill="#fff" d="M23.476 10.661l-2.35-1.479c-0.537-0.338-1.245-0.177-1.583 0.36l-0.19 0.302-2.087-0.233c-0.63-0.070-1.198 0.384-1.268 1.014l-0.308 2.76c-0.070 0.63 0.384 1.198 1.014 1.268l2.671 0.298c0.379 0.042 0.735-0.106 0.974-0.368l0.472 0.297c0.537 0.338 1.245 0.177 1.583-0.36l1.432-2.274c0.338-0.537 0.177-1.245-0.36-1.583z"></path>
<path fill="#dba2b3" d="M26.035 15.457l-1.266-4.096h-0.255c-0.569 1.059-1.252 2.056-2.005 2.997l0.119 0.384c1.109 3.21 0.93 6.672-0.407 9.695 0.029 0.032 0.053 0.073 0.070 0.123 0.187 0.55 0.206 1.14 0.246 1.714 0.032 0.467 0.136 0.887 0.241 1.34 0.122 0.524 0.094 1.025-0.46 1.262-0.584 0.25-1.315 0.263-1.943 0.313-0.587 0.047-1.265 0.066-1.788-0.25-0.478-0.289-0.626-0.777-0.623-1.287-0.025 0-0.050 0.001-0.075 0.001h-5.926c-1.627 0-3.129-0.889-3.897-2.324-0.911-1.701-1.435-3.575-1.546-5.484-0.215 4.042 1.104 8.080 3.795 11.25l0.232 0.273h12.32l0.232-0.273c3.674-4.328 4.791-10.274 2.937-15.64z"></path>
<path fill="#e1bdfc" d="M22.508 14.355l1.328-2.11c0.172-0.274 0.214-0.592 0.143-0.883h-2.397z"></path>
<path fill="#e1bdfc" d="M17.925 27.655l0.085 0.822c0.065 0.631 0.63 1.089 1.26 1.024l2.673-0.277c0.631-0.065 1.089-0.63 1.024-1.26l-0.286-2.762c-0.034-0.328-0.204-0.608-0.447-0.794-0.134 0.305-0.279 0.605-0.436 0.9-0.764 1.434-2.25 2.334-3.873 2.348z"></path>
<path fill="#faf1a9" d="M25.724 0.16l0.538 1.513c0.023 0.065 0.069 0.116 0.126 0.142l1.344 0.606c0.19 0.086 0.19 0.388 0 0.474l-1.344 0.606c-0.058 0.026-0.103 0.077-0.126 0.142l-0.538 1.513c-0.076 0.214-0.345 0.214-0.421 0l-0.538-1.513c-0.023-0.065-0.069-0.116-0.126-0.142l-1.344-0.606c-0.19-0.086-0.19-0.388 0-0.474l1.344-0.606c0.058-0.026 0.103-0.077 0.126-0.142l0.538-1.513c0.076-0.214 0.345-0.214 0.421 0z"></path>
<path fill="#f6e06e" d="M30.696 9.827c0 0.649-0.526 1.175-1.175 1.175s-1.175-0.526-1.175-1.175 0.526-1.175 1.175-1.175 1.175 0.526 1.175 1.175z"></path>
<path fill="#f6e06e" d="M12.407 2.023c0 0.28-0.227 0.507-0.507 0.507s-0.507-0.227-0.507-0.507 0.227-0.507 0.507-0.507 0.507 0.227 0.507 0.507z"></path>
<path fill="#faf1a9" d="M3.211 10.441l0.399 1.122c0.017 0.048 0.051 0.086 0.094 0.105l0.997 0.449c0.141 0.063 0.141 0.288 0 0.351l-0.997 0.449c-0.043 0.019-0.076 0.057-0.094 0.105l-0.399 1.122c-0.056 0.159-0.256 0.159-0.312 0l-0.399-1.122c-0.017-0.048-0.051-0.086-0.094-0.105l-0.997-0.449c-0.141-0.063-0.141-0.288 0-0.351l0.997-0.449c0.043-0.019 0.076-0.057 0.094-0.105l0.399-1.122c0.056-0.159 0.256-0.159 0.312 0z"></path>
<path fill="#3c122c" d="M23.057 25.162c-0.042-0.405-0.239-0.77-0.556-1.027s-0.714-0.376-1.119-0.333l-2.194 0.227c0.13-0.671-0.207-1.372-0.854-1.673l-2.436-1.134c-0.37-0.172-0.784-0.19-1.167-0.050s-0.688 0.42-0.861 0.789l-1.172 2.517c-0.172 0.369-0.19 0.784-0.050 1.167s0.42 0.689 0.789 0.861l2.436 1.134c0.205 0.095 0.424 0.143 0.643 0.143 0.176 0 0.353-0.031 0.524-0.093 0.179-0.065 0.34-0.162 0.479-0.284l0.115 1.109c0.042 0.405 0.239 0.77 0.556 1.027 0.275 0.223 0.61 0.342 0.959 0.342 0.053 0 0.107-0.003 0.16-0.008l2.673-0.277c0.837-0.087 1.447-0.838 1.36-1.675zM17.217 26.581c-0.087 0.187-0.241 0.328-0.434 0.399s-0.403 0.061-0.589-0.025l-2.436-1.134c-0.187-0.087-0.328-0.241-0.399-0.435s-0.061-0.402 0.025-0.589l1.172-2.517c0.087-0.187 0.241-0.328 0.435-0.399 0.086-0.031 0.175-0.047 0.264-0.047 0.111 0 0.221 0.024 0.325 0.072l2.436 1.134c0.385 0.179 0.553 0.639 0.373 1.024l-1.172 2.517zM21.905 28.847l-2.673 0.277c-0.205 0.021-0.405-0.039-0.565-0.168s-0.259-0.314-0.281-0.519l-0.219-2.109 0.702-1.507 2.591-0.268c0.027-0.003 0.054-0.004 0.081-0.004 0.176 0 0.346 0.060 0.484 0.172 0.16 0.13 0.259 0.314 0.281 0.519l0.286 2.762c0.044 0.423-0.264 0.802-0.687 0.846z"></path>
<path fill="#3c122c" d="M26.633 15.261l-1.172-3.789c-0.081-0.264-0.325-0.443-0.601-0.443h-0.596c-0.118-0.274-0.316-0.516-0.587-0.687l-2.35-1.479c-0.389-0.245-0.846-0.291-1.254-0.168 0.663-2.896-0.827-5.862-0.897-5.999-0.143-0.279-0.47-0.411-0.767-0.308-0.143 0.050-3.181 1.129-4.727 3.599-2.568-1.927-6.261-1.415-6.423-1.391-0.311 0.045-0.54 0.313-0.538 0.627 0.001 0.156 0.047 3.543 2.031 5.807h-0.2c-0.276 0-0.52 0.18-0.601 0.443l-1.172 3.789c-0.942 2.733-1.159 5.68-0.625 8.521 0.534 2.845 1.807 5.515 3.68 7.722l0.232 0.273c0.12 0.141 0.295 0.222 0.48 0.222h12.32c0.185 0 0.36-0.081 0.48-0.222l0.232-0.273c1.873-2.207 3.146-4.877 3.68-7.722 0.534-2.841 0.317-5.788-0.625-8.521zM14.856 12.957c0.043 0.201 0.005 0.407-0.107 0.58s-0.285 0.291-0.486 0.334l-2.629 0.559c-0.201 0.043-0.407 0.005-0.58-0.107s-0.291-0.285-0.334-0.486l-0.329-1.549h4.323zM13.365 9.648c0.054-0.011 0.107-0.017 0.16-0.017 0.356 0 0.677 0.249 0.753 0.61l0.167 0.787h-3.821c-0.148-0.109-0.296-0.226-0.444-0.353 0.092-0.231 0.294-0.414 0.556-0.469zM18.713 10.152l-0.552 0.877h-1.828l0.040-0.362c0.023-0.205 0.124-0.388 0.285-0.516 0.138-0.11 0.306-0.169 0.48-0.169 0.029 0 0.058 0.002 0.087 0.005zM16.065 13.426l0.127-1.139h1.372c-0.050 0.554 0.204 1.116 0.706 1.432l1.351 0.85c-0.067 0.010-0.135 0.013-0.204 0.005l-2.671-0.298c-0.422-0.047-0.727-0.429-0.68-0.851zM18.672 13.080c-0.274-0.173-0.402-0.491-0.346-0.793h5.037l-1.278 2.030c-0.11 0.174-0.28 0.295-0.481 0.341s-0.407 0.010-0.581-0.099zM20.925 9.502l2.35 1.479c0.024 0.015 0.046 0.031 0.067 0.048h-4.289l0.809-1.286c0.146-0.232 0.397-0.36 0.653-0.36 0.14 0 0.282 0.038 0.409 0.118zM18.289 3.799c0.408 1.021 1.136 3.333 0.34 5.314-0.035 0.088-0.072 0.174-0.109 0.257l-1.212-0.135c-0.348-0.039-0.691 0.041-0.982 0.226l0.945-2.327c0.078-0.193-0.015-0.413-0.208-0.492s-0.413 0.014-0.492 0.208l-1.471 3.621-0.082-0.386c-0.122-0.575-0.556-1.005-1.086-1.153 0.080-0.48 0.219-0.992 0.435-1.529 0.793-1.974 2.922-3.145 3.923-3.603zM13.117 7.144c-0.246 0.659-0.394 1.292-0.468 1.884l-0.333 0.071-1.468-1.271c-0.158-0.136-0.396-0.119-0.533 0.038s-0.119 0.396 0.038 0.533l1.036 0.897-0.81 0.172c-0.405 0.086-0.739 0.327-0.952 0.648-1.172-1.402-1.511-3.362-1.609-4.324 1.090-0.055 3.485 0.003 5.098 1.353zM22.619 30.69l-0.044 0.051h-11.738l-0.044-0.051c-3.513-4.138-4.594-9.897-2.821-15.027 0.002-0.006 0.004-0.013 0.006-0.020l1.038-3.355h0.603l0.363 1.706c0.085 0.399 0.32 0.74 0.661 0.962 0.25 0.163 0.536 0.247 0.828 0.247 0.106 0 0.214-0.011 0.32-0.034l2.629-0.559c0.406-0.086 0.74-0.328 0.953-0.649 0.056 0.181 0.145 0.351 0.267 0.503 0.254 0.318 0.618 0.518 1.023 0.564l2.671 0.298c0.058 0.006 0.115 0.010 0.172 0.010 0.316 0 0.622-0.099 0.881-0.284l0.234 0.147c0.252 0.159 0.533 0.234 0.81 0.234 0.507 0 1.004-0.252 1.294-0.713l1.432-2.274c0.032-0.052 0.061-0.104 0.087-0.158h0.154l1.038 3.355c0.002 0.007 0.004 0.013 0.006 0.020 1.773 5.131 0.692 10.889-2.821 15.027z"></path>
<path fill="#fff" d="M9.213 22.174c-0.267 0-0.515-0.172-0.6-0.441-0.233-0.74-0.242-1.52-0.224-2.116 0.010-0.341 0.29-0.61 0.629-0.61 0.007 0 0.013 0 0.020 0 0.347 0.011 0.62 0.301 0.61 0.648-0.015 0.497-0.010 1.139 0.167 1.699 0.104 0.332-0.080 0.685-0.411 0.789-0.063 0.020-0.127 0.029-0.189 0.029z"></path>
<path fill="#fff" d="M9.18 18.598c-0.032 0-0.065-0.002-0.097-0.008-0.343-0.053-0.579-0.375-0.525-0.718 0.027-0.171 0.054-0.326 0.084-0.474 0.068-0.341 0.4-0.562 0.741-0.494s0.562 0.4 0.493 0.741c-0.026 0.13-0.050 0.268-0.074 0.42-0.048 0.311-0.316 0.533-0.621 0.533z"></path>
</svg>
