<!-- Generated by IcoMoon.io -->
<svg version="1.1" xmlns="http://www.w3.org/2000/svg" width="32" height="32" viewBox="0 0 32 32">
<title>infusion</title>
<path fill="#c1e5ef" d="M25.591 28.956h-17.412c-0.665 0-1.203 0.539-1.203 1.203v0.008c0 0.665 0.539 1.203 1.203 1.203h17.412c0.665 0 1.203-0.539 1.203-1.203v-0.008c0-0.665-0.539-1.203-1.203-1.203z"></path>
<path fill="#c1e5ef" d="M8.721 24.943c0.026 0 0.052-0.002 0.078-0.002 0.976 2.254 3.22 3.831 5.832 3.831h4.507c3.509 0 6.353-2.844 6.353-6.353v-9.33c0-0.845-0.685-1.53-1.53-1.53h-14.153c-0.845 0-1.53 0.685-1.53 1.53v0.85h-0.598c-2.696 0-4.89 2.193-4.89 4.889v1.225c0 2.696 2.193 4.89 4.89 4.89zM5.068 20.053v-1.225c0-1.441 1.172-2.613 2.613-2.613h0.598v6.204c0 0.083 0.002 0.166 0.005 0.248h-0.603c-1.441 0-2.613-1.172-2.613-2.613z"></path>
<path fill="#a6aaed" d="M23.956 11.559h-3.892c0.848 0 1.535 0.687 1.535 1.535v5.413c0 3.52-2.854 6.374-6.373 6.374h-0.574c-3.52 0-6.374-2.854-6.374-6.374v3.892c0 3.52 2.854 6.374 6.374 6.374h4.466c3.52 0 6.373-2.854 6.373-6.374v-9.304c0-0.848-0.687-1.535-1.535-1.535z"></path>
<path fill="#faf1a9" d="M17.949 26.806h-2.127c-3.057 0-5.535-2.478-5.535-5.535v-6.435c0-0.41 0.333-0.743 0.743-0.743h11.712c0.41 0 0.743 0.333 0.743 0.743v6.435c0 3.057-2.478 5.535-5.535 5.535z"></path>
<path fill="#dfb5a7" d="M22.736 14.092h-1.137v4.414c0 3.52-2.854 6.374-6.373 6.374h-0.574c-1.444 0-2.776-0.481-3.845-1.291 0.887 1.9 2.814 3.216 5.050 3.216h2.058c3.076 0 5.57-2.494 5.57-5.57v-6.396c-0-0.413-0.335-0.748-0.748-0.748z"></path>
<path fill="#fff" d="M23.843 24.742h-4.229c-0.682 0-1.235-0.588-1.235-1.313v-4.114c0-0.335 0.12-0.657 0.337-0.901l2.090-2.355c0.484-0.546 1.299-0.55 1.788-0.009l2.139 2.363c0.221 0.245 0.345 0.571 0.345 0.91v4.107c0 0.725-0.553 1.313-1.235 1.313z"></path>
<path fill="#e1bdfc" d="M24.733 18.412l-2.139-2.363c-0.396-0.437-1.004-0.518-1.478-0.244 0.058 0.044 0.112 0.096 0.162 0.159l1.471 1.862c0.152 0.193 0.237 0.45 0.237 0.718v3.236c0 0.572-0.38 1.035-0.849 1.035h-2.908c-0.469 0-0.849-0.463-0.849-1.035v1.65c0 0.725 0.553 1.313 1.235 1.313h4.229c0.682 0 1.235-0.588 1.235-1.313v-4.106c-0-0.34-0.124-0.666-0.345-0.91z"></path>
<path fill="#a1e8c3" d="M23.715 23.66h-3.909c-0.185 0-0.335-0.15-0.335-0.335v-2.506c0-0.185 0.15-0.335 0.335-0.335h3.909c0.185 0 0.335 0.15 0.335 0.335v2.506c-0 0.185-0.15 0.334-0.335 0.334z"></path>
<path fill="#85adc2" d="M23.712 20.485h-0.727v1.295c0 0.572-0.38 1.035-0.849 1.035h-2.666v0.508c0 0.186 0.151 0.337 0.337 0.337h3.905c0.186 0 0.337-0.151 0.337-0.337v-2.501c0-0.186-0.151-0.337-0.337-0.337z"></path>
<path fill="#faf1a9" d="M27.405 3.947l0.518 1.457c0.022 0.062 0.066 0.112 0.122 0.137l1.295 0.583c0.183 0.082 0.183 0.374 0 0.456l-1.295 0.583c-0.055 0.025-0.099 0.074-0.122 0.137l-0.518 1.457c-0.073 0.206-0.332 0.206-0.405 0l-0.518-1.457c-0.022-0.062-0.066-0.112-0.122-0.137l-1.295-0.583c-0.183-0.082-0.183-0.374 0-0.456l1.295-0.583c0.055-0.025 0.099-0.074 0.122-0.137l0.518-1.457c0.073-0.206 0.332-0.206 0.405 0z"></path>
<path fill="#f6e06e" d="M7.58 6.299c0 0.27-0.219 0.488-0.488 0.488s-0.488-0.219-0.488-0.488c0-0.27 0.219-0.488 0.488-0.488s0.488 0.219 0.488 0.488z"></path>
<path fill="#f6e06e" d="M30.624 11.121c0 0.27-0.219 0.488-0.488 0.488s-0.488-0.219-0.488-0.488 0.219-0.488 0.488-0.488 0.488 0.219 0.488 0.488z"></path>
<path fill="#faf1a9" d="M3.214 7.627l0.385 1.081c0.017 0.046 0.049 0.083 0.090 0.101l0.961 0.433c0.136 0.061 0.136 0.277 0 0.338l-0.961 0.433c-0.041 0.018-0.074 0.055-0.090 0.101l-0.385 1.081c-0.054 0.153-0.246 0.153-0.301 0l-0.385-1.081c-0.016-0.046-0.049-0.083-0.090-0.101l-0.961-0.433c-0.136-0.061-0.136-0.277 0-0.338l0.961-0.433c0.041-0.018 0.074-0.055 0.090-0.101l0.385-1.081c0.054-0.153 0.246-0.153 0.301 0z"></path>
<path fill="#fff" d="M12.101 21.679c-0.347 0-0.629-0.282-0.629-0.629v-0.897c0-0.347 0.282-0.629 0.629-0.629s0.629 0.282 0.629 0.629v0.897c0 0.347-0.282 0.629-0.629 0.629z"></path>
<path fill="#fff" d="M12.101 18.968c-0.347 0-0.629-0.282-0.629-0.629v-0.38c0-0.347 0.282-0.629 0.629-0.629s0.629 0.282 0.629 0.629v0.38c0 0.347-0.282 0.629-0.629 0.629z"></path>
<path fill="#3c122c" d="M12.447 7.358c-0.113 0-0.228-0.030-0.331-0.095-0.295-0.183-0.386-0.571-0.203-0.866 0.005-0.008 0.536-0.883 0.536-1.702 0-0.329-0.083-0.463-0.221-0.685-0.173-0.279-0.41-0.661-0.41-1.348 0-1.182 0.696-2.317 0.726-2.365 0.183-0.295 0.571-0.386 0.866-0.203s0.386 0.57 0.203 0.865c-0.005 0.009-0.537 0.884-0.537 1.703 0 0.329 0.083 0.463 0.221 0.685 0.173 0.279 0.41 0.661 0.41 1.348 0 1.182-0.696 2.317-0.726 2.365-0.119 0.192-0.325 0.297-0.535 0.297z"></path>
<path fill="#3c122c" d="M20.018 7.358c-0.113 0-0.228-0.030-0.331-0.095-0.295-0.183-0.386-0.571-0.203-0.866 0.005-0.008 0.536-0.883 0.536-1.702 0-0.329-0.083-0.463-0.221-0.685-0.173-0.279-0.41-0.661-0.41-1.348 0-1.182 0.696-2.317 0.726-2.365 0.183-0.295 0.571-0.386 0.866-0.203s0.386 0.57 0.203 0.865c-0.010 0.016-0.537 0.887-0.537 1.702 0 0.329 0.083 0.463 0.221 0.685 0.173 0.279 0.41 0.661 0.41 1.348 0 1.182-0.696 2.317-0.726 2.365-0.119 0.192-0.325 0.297-0.535 0.297z"></path>
<path fill="#3c122c" d="M16.233 7.358c-0.113 0-0.228-0.030-0.331-0.095-0.295-0.183-0.386-0.571-0.203-0.866 0.005-0.008 0.536-0.883 0.536-1.702 0-0.329-0.083-0.463-0.221-0.685-0.173-0.279-0.41-0.661-0.41-1.348 0-1.182 0.696-2.317 0.726-2.365 0.183-0.295 0.571-0.386 0.866-0.203s0.386 0.57 0.203 0.865c-0.013 0.022-0.537 0.89-0.537 1.702 0 0.329 0.083 0.463 0.221 0.685 0.173 0.279 0.41 0.661 0.41 1.348 0 1.182-0.696 2.317-0.726 2.365-0.119 0.192-0.325 0.297-0.535 0.297z"></path>
<path fill="#3c122c" d="M25.591 28.328h-2.737c1.961-1.238 3.267-3.423 3.267-5.909v-9.33c0-1.191-0.969-2.159-2.159-2.159h-2.010c-0.317-1.013-1.264-1.751-2.38-1.751s-2.063 0.737-2.38 1.751h-7.382c-1.191 0-2.159 0.969-2.159 2.159v0.221c-3.029 0.017-5.487 2.486-5.487 5.518v1.225c0 3.043 2.476 5.518 5.518 5.518h0.722c0.574 1.13 1.447 2.083 2.513 2.756h-2.737c-1.010 0-1.832 0.822-1.832 1.832v0.008c0 1.010 0.822 1.832 1.832 1.832h17.412c1.010 0 1.832-0.822 1.832-1.832v-0.008c0-1.010-0.822-1.832-1.832-1.832zM7.681 24.314c-2.349 0-4.261-1.911-4.261-4.261v-1.225c0-2.339 1.894-4.243 4.229-4.26v1.018c-1.773 0.017-3.211 1.464-3.211 3.241v1.225c0 1.788 1.454 3.242 3.242 3.242h0.024c0.044 0.348 0.113 0.688 0.207 1.018h-0.23zM7.649 16.845v5.192c-1.080-0.017-1.953-0.9-1.953-1.983v-1.225c0-1.084 0.873-1.967 1.953-1.983zM22.064 12.187h1.898c0.497 0 0.901 0.404 0.901 0.901v4.904l-1.001-1.106v-2.047c0-0.62-0.505-1.125-1.125-1.125h-0.673v-1.527zM22.064 14.469h0.673c0.204 0 0.37 0.166 0.37 0.37v1.213l-0.232-0.257c-0.22-0.243-0.504-0.409-0.811-0.483zM22.315 16.303l2.139 2.363c0.16 0.176 0.247 0.41 0.247 0.657v4.153c0 0.516-0.385 0.936-0.858 0.936h-4.229c-0.473 0-0.858-0.42-0.858-0.936v-4.16c0-0.244 0.086-0.475 0.242-0.651l2.090-2.355c0.065-0.074 0.14-0.133 0.22-0.179v1.559c-0.308 0.145-0.522 0.458-0.522 0.821 0 0.502 0.407 0.908 0.908 0.908s0.908-0.407 0.908-0.908c0-0.37-0.222-0.688-0.539-0.829v-1.57c0.092 0.047 0.177 0.11 0.251 0.192zM21.309 15.322c-0.298 0.080-0.573 0.247-0.785 0.486l-2.090 2.355c-0.278 0.314-0.432 0.723-0.432 1.151v4.16c0 0.932 0.723 1.69 1.612 1.69h1.92c-0.857 0.783-1.996 1.262-3.246 1.262h-2.807c-2.657 0-4.818-2.161-4.818-4.818v-6.771c0-0.204 0.166-0.37 0.37-0.37h10.275zM19.571 9.934c0.693 0 1.292 0.408 1.571 0.996h-3.143c0.279-0.588 0.878-0.996 1.571-0.996zM8.907 22.419v-9.33c0-0.497 0.404-0.901 0.901-0.901h7.603c0.014 0.002 0.029 0.003 0.044 0.003s0.029-0.001 0.044-0.003h3.81v1.527h-10.275c-0.62 0-1.125 0.505-1.125 1.125v6.771c0 3.073 2.5 5.573 5.573 5.573h2.807c1.722 0 3.264-0.786 4.287-2.017h1.268c0.115 0 0.227-0.013 0.336-0.037-0.968 1.793-2.864 3.014-5.041 3.014h-4.507c-3.156 0-5.724-2.568-5.724-5.724zM26.165 30.168c0 0.317-0.258 0.574-0.574 0.574h-17.412c-0.317 0-0.574-0.258-0.574-0.574v-0.008c0-0.317 0.258-0.574 0.574-0.574h17.412c0.317 0 0.574 0.258 0.574 0.574v0.008z"></path>
<path fill="#3c122c" d="M23.712 24.037h-3.905c-0.394 0-0.714-0.32-0.714-0.714v-2.501c0-0.394 0.32-0.714 0.714-0.714h3.905c0.394 0 0.714 0.32 0.714 0.714v2.501c0 0.394-0.32 0.714-0.714 0.714zM19.848 23.282h3.823v-2.42h-3.823z"></path>
</svg>
