<!-- Generated by IcoMoon.io -->
<svg version="1.1" xmlns="http://www.w3.org/2000/svg" width="32" height="32" viewBox="0 0 32 32">
<title>lemonade</title>
<path fill="#fff" d="M31.347 19.292l-1.705-8.437c-0.162-0.718-0.801-1.453-1.966-1.453h-2.652l0.053-1.222c0.044-1.017-0.733-1.883-1.749-1.949l-14.854-0.958c-0.402-0.026-0.673 0.405-0.475 0.756l2.488 4.42c-1.061 7.129-2.489 13.944-1.319 18.641 0.29 1.165 1.332 1.986 2.533 1.992 3.036 0.016 9.019 0.043 12.060 0.027 1.201-0.006 2.241-0.827 2.534-1.992 1.089-4.34-0.048-10.5-1.065-17.046h0.919c0.629 0 1.169 0.446 1.289 1.063l1.29 6.665c0.123 0.638 0.682 1.081 1.309 1.081 0.084 0 0.169-0.008 0.255-0.025 0.724-0.14 1.197-0.84 1.057-1.564z"></path>
<path fill="#faf1a9" d="M10.505 10.328c-1.062 7.172-2.513 14.039-1.337 18.762 0.29 1.165 1.332 1.986 2.533 1.992 3.036 0.016 9.019 0.043 12.060 0.027 1.201-0.006 2.241-0.827 2.534-1.992 1.186-4.724-0.266-11.603-1.331-18.789z"></path>
<path fill="#dfb5a7" d="M22.013 10.495c0.854 5.853 1.889 11.398 0.964 15.263-0.24 1.001-1.092 1.706-2.076 1.711-2.492 0.013-7.394-0.010-9.881-0.023-0.984-0.005-1.837-0.71-2.075-1.711-0.088-0.371-0.158-0.757-0.212-1.157-0.021 1.649 0.1 3.168 0.435 4.512 0.29 1.165 1.332 1.986 2.533 1.992 3.036 0.016 9.019 0.042 12.060 0.027 1.201-0.006 2.241-0.827 2.534-1.992 1.176-4.687-0.244-11.496-1.306-18.622z"></path>
<path fill="#e1bdfc" d="M21.98 7.77l-0.080 1.938c0.029 0.208 0.059 0.415 0.089 0.622h2.995l0.093-2.15c0.044-1.017-0.733-1.883-1.749-1.949l-2.93-0.189v0.044l0.149 0.010c0.832 0.056 1.469 0.8 1.433 1.674z"></path>
<path fill="#fff" d="M11.853 25.399l-1.515-1.99c-0.382-0.501-0.285-1.216 0.216-1.598l1.923-1.465c0.501-0.381 1.216-0.285 1.598 0.216l1.515 1.99c0.381 0.501 0.285 1.216-0.216 1.598l-1.923 1.465c-0.501 0.381-1.216 0.285-1.598-0.216z"></path>
<path fill="#f6e06e" d="M25.424 25.618c0 2.302-1.866 4.167-4.167 4.167s-4.167-1.866-4.167-4.167c0-2.302 1.866-4.167 4.167-4.167s4.167 1.866 4.167 4.167z"></path>
<path fill="#dda86a" d="M23.339 22.009c0.009 1.368-0.094 2.629-0.362 3.749-0.24 1.001-1.092 1.706-2.076 1.711-0.891 0.005-2.090 0.005-3.376 0.002 0.682 1.372 2.097 2.315 3.733 2.315 2.302 0 4.167-1.866 4.167-4.167-0-1.544-0.84-2.89-2.087-3.61z"></path>
<path fill="#faf1a9" d="M24.258 25.619c0 1.657-1.343 3-3 3s-3-1.343-3-3c0-1.657 1.343-3 3-3s3 1.343 3 3z"></path>
<path fill="#dfb5a7" d="M23.303 23.425c-0.050 0.83-0.154 1.611-0.326 2.333-0.24 1.001-1.092 1.706-2.076 1.711-0.562 0.003-1.248 0.004-2.001 0.004 0.549 0.698 1.401 1.146 2.358 1.146 1.657 0 3-1.343 3-3-0-0.866-0.368-1.646-0.955-2.194z"></path>
<path fill="#f6e06e" d="M19.089 17.32c0 2.262-1.834 4.096-4.096 4.096s-4.096-1.834-4.096-4.096c0-2.262 1.834-4.096 4.096-4.096s4.096 1.834 4.096 4.096z"></path>
<path fill="#faf1a9" d="M17.942 17.32c0 1.629-1.32 2.949-2.949 2.949s-2.949-1.32-2.949-2.949c0-1.629 1.32-2.949 2.949-2.949s2.949 1.32 2.949 2.949z"></path>
<path fill="#fff" d="M20.857 19.724l-1.92-1.604c-0.483-0.404-0.548-1.123-0.144-1.606l1.55-1.855c0.404-0.483 1.123-0.548 1.606-0.144l1.919 1.604c0.483 0.404 0.548 1.123 0.144 1.606l-1.55 1.855c-0.404 0.483-1.123 0.548-1.606 0.144z"></path>
<path fill="#e1bdfc" d="M23.865 16.115l-1.163-0.971c0.177 1.243 0.334 2.453 0.448 3.614l0.859-1.028c0.406-0.486 0.341-1.209-0.145-1.614z"></path>
<path fill="#fff" d="M13.388 27.809l0.258-2.488c0.065-0.626 0.625-1.081 1.252-1.017l2.405 0.249c0.626 0.065 1.081 0.625 1.017 1.252l-0.258 2.488c-0.065 0.626-0.625 1.081-1.252 1.017l-2.405-0.249c-0.626-0.065-1.081-0.625-1.017-1.252z"></path>
<path fill="#e1bdfc" d="M14.41 29.061l2.393 0.248c0.63 0.065 1.193-0.392 1.258-1.022l0.084-0.815c-1.524-0.002-3.229-0.008-4.721-0.015l-0.036 0.346c-0.065 0.63 0.392 1.193 1.022 1.258z"></path>
<path fill="#f6e06e" d="M2.121 29.39c1.611 1.702 4.051 2.141 6.069 1.276 0.071-0.030 0.148-0.015 0.197 0.037 0.002 0.002 0.004 0.005 0.006 0.007 0.596 0.63 1.639 0.61 2.33-0.044s0.768-1.694 0.172-2.324c-0.002-0.002-0.004-0.005-0.006-0.007-0.049-0.051-0.060-0.129-0.026-0.198 0.975-1.967 0.672-4.428-0.939-6.13s-4.051-2.141-6.069-1.276c-0.071 0.030-0.148 0.015-0.197-0.037-0-0-0.001-0.001-0.001-0.001-0.596-0.63-1.639-0.61-2.33 0.044s-0.768 1.694-0.172 2.324c0 0 0.001 0.001 0.001 0.001 0.049 0.051 0.060 0.129 0.026 0.198-0.975 1.967-0.671 4.428 0.939 6.13z"></path>
<path fill="#dda86a" d="M10.889 28.335c-0.049-0.051-0.060-0.129-0.026-0.198 0.975-1.967 0.672-4.428-0.939-6.13-1.502-1.587-3.726-2.076-5.656-1.432 1.22 0.083 2.857-0.013 3.984 1.195 0.784 0.84 2.012 4.389-0.175 6.359s-4.846 0.801-6.12-0.546c-0.855-0.903-1.243-2.077-1.174-3.221-0.422 1.726 0.019 3.633 1.34 5.029 1.611 1.702 4.051 2.141 6.069 1.276 0.071-0.030 0.148-0.015 0.197 0.037 0.002 0.002 0.004 0.005 0.006 0.007 0.596 0.63 1.639 0.61 2.33-0.044s0.768-1.694 0.172-2.324c-0.002-0.002-0.004-0.005-0.006-0.007z"></path>
<path fill="#faf1a9" d="M3.428 7.664l0.516 1.451c0.022 0.062 0.066 0.111 0.121 0.136l1.289 0.581c0.182 0.082 0.182 0.372 0 0.454l-1.289 0.581c-0.055 0.025-0.099 0.074-0.121 0.136l-0.516 1.451c-0.073 0.205-0.331 0.205-0.404 0l-0.516-1.451c-0.022-0.062-0.066-0.111-0.121-0.136l-1.289-0.581c-0.182-0.082-0.182-0.372 0-0.454l1.289-0.581c0.055-0.025 0.099-0.074 0.121-0.136l0.516-1.451c0.073-0.205 0.331-0.205 0.404 0z"></path>
<path fill="#f6e06e" d="M23.657 1.33c0 0.622-0.505 1.127-1.127 1.127s-1.127-0.505-1.127-1.127c0-0.622 0.505-1.127 1.127-1.127s1.127 0.505 1.127 1.127z"></path>
<path fill="#f6e06e" d="M11.034 2.077c0 0.268-0.218 0.486-0.486 0.486s-0.486-0.218-0.486-0.486c0-0.268 0.218-0.486 0.486-0.486s0.486 0.218 0.486 0.486z"></path>
<path fill="#faf1a9" d="M28.82 2.501l0.383 1.076c0.016 0.046 0.049 0.083 0.090 0.101l0.956 0.431c0.135 0.061 0.135 0.276 0 0.337l-0.956 0.431c-0.041 0.018-0.073 0.055-0.090 0.101l-0.383 1.077c-0.054 0.152-0.245 0.152-0.299 0l-0.383-1.077c-0.016-0.046-0.049-0.083-0.090-0.101l-0.956-0.431c-0.135-0.061-0.135-0.276 0-0.337l0.956-0.431c0.041-0.018 0.073-0.055 0.090-0.101l0.383-1.076c0.054-0.152 0.245-0.152 0.299 0z"></path>
<path fill="#3c122c" d="M31.963 19.167l-1.708-8.451c-0.218-0.967-1.1-1.943-2.579-1.943h-1.996l0.025-0.566c0.059-1.348-0.989-2.516-2.336-2.603l-14.854-0.958c-0.416-0.027-0.813 0.176-1.035 0.529s-0.233 0.798-0.028 1.162l2.383 4.232c-0.155 1.035-0.319 2.072-0.478 3.077-0.355 2.251-0.702 4.454-0.94 6.545-1.42-0.625-3.052-0.699-4.54-0.146-0.38-0.295-0.852-0.449-1.36-0.44-0.597 0.011-1.172 0.251-1.621 0.675s-0.719 0.985-0.763 1.581c-0.038 0.506 0.091 0.986 0.364 1.382-0.96 2.2-0.507 4.809 1.168 6.578s4.254 2.365 6.503 1.529c0.37 0.29 0.829 0.446 1.322 0.446 0.015 0 0.030-0 0.044-0 0.375-0.007 0.742-0.105 1.074-0.281 0.342 0.124 0.709 0.192 1.089 0.194 2.537 0.013 6.707 0.032 9.832 0.032 0.837 0 1.599-0.001 2.234-0.005 1.486-0.007 2.777-1.022 3.14-2.467 1.028-4.095 0.143-9.7-0.793-15.634-0.049-0.309-0.098-0.622-0.147-0.936h0.185c0.327 0 0.61 0.233 0.672 0.555l1.29 6.665c0.178 0.921 0.988 1.59 1.926 1.59 0.125 0 0.251-0.012 0.374-0.036 0.515-0.1 0.96-0.394 1.253-0.828s0.4-0.957 0.3-1.477zM8.655 5.914l14.633 0.944c0.67 0.043 1.191 0.624 1.162 1.294l-0.081 1.866h-13.402zM9.51 30.54c-0.261 0.004-0.496-0.088-0.664-0.266-0.153-0.164-0.366-0.252-0.584-0.252-0.108 0-0.217 0.021-0.32 0.066-1.828 0.784-3.984 0.329-5.365-1.13s-1.716-3.637-0.832-5.419c0.149-0.301 0.097-0.665-0.13-0.907-0.001-0.001-0.002-0.002-0.003-0.003-0.165-0.174-0.245-0.414-0.226-0.674 0.021-0.282 0.154-0.553 0.374-0.761s0.497-0.326 0.781-0.331c0.26-0.005 0.496 0.088 0.661 0.263 0.001 0.001 0.002 0.003 0.004 0.004 0.229 0.24 0.589 0.312 0.898 0.179 1.828-0.783 3.984-0.329 5.365 1.13s1.716 3.637 0.832 5.419c-0.151 0.304-0.096 0.671 0.139 0.916 0.357 0.377 0.29 1.021-0.148 1.436-0.22 0.208-0.497 0.326-0.78 0.331zM15.87 17.698h1.667c-0.064 0.436-0.239 0.837-0.494 1.173zM16.505 19.399c-0.337 0.246-0.736 0.411-1.168 0.469v-1.637zM15.336 16.41v-1.639c0.433 0.058 0.832 0.224 1.169 0.47zM15.87 16.944l1.174-1.174c0.255 0.337 0.429 0.737 0.493 1.174zM14.993 13.994c-1.834 0-3.326 1.492-3.326 3.326s1.492 3.326 3.326 3.326c1.655 0 3.032-1.216 3.284-2.802 0.072 0.168 0.174 0.322 0.303 0.456-0.431 1.577-1.875 2.739-3.587 2.739-2.051 0-3.719-1.669-3.719-3.719s1.669-3.719 3.719-3.719c1.669 0 3.084 1.105 3.553 2.622l-0.037 0.045c-0.107 0.128-0.191 0.271-0.25 0.422-0.295-1.534-1.647-2.696-3.265-2.696zM14.049 17.698l-1.135 1.135c-0.24-0.328-0.404-0.715-0.466-1.135zM12.448 16.944c0.062-0.42 0.226-0.807 0.465-1.136l1.136 1.136zM14.583 18.231v1.628c-0.423-0.068-0.812-0.24-1.14-0.488zM13.442 15.27c0.328-0.249 0.717-0.421 1.141-0.489v1.63zM12.344 20.922c0.622 0.459 1.366 0.76 2.175 0.846l0.768 1.009c0.257 0.337 0.191 0.821-0.146 1.078l-0.111 0.085-0.088-0.009c-0.405-0.042-0.801 0.076-1.117 0.333-0.313 0.255-0.509 0.615-0.554 1.016l-0.044 0.033c-0.337 0.257-0.821 0.191-1.078-0.146l-0.159-0.209c-0.137-1.027-0.534-2.020-1.177-2.87zM20.847 26.53v1.68c-0.437-0.069-0.838-0.247-1.176-0.504zM19.143 27.168c-0.424-0.566-0.465-1.171-0.465-1.171h1.637zM19.67 23.533c0.338-0.258 0.739-0.435 1.177-0.505v1.681zM20.314 25.243h-1.652c0.063-0.434 0.232-0.834 0.48-1.172zM21.258 28.996c1.862 0 3.377-1.515 3.377-3.377s-1.515-3.377-3.377-3.377c-1.458 0-2.703 0.929-3.175 2.226-0.112-0.083-0.235-0.15-0.366-0.199 0.545-1.425 1.926-2.44 3.541-2.44 2.090 0 3.79 1.7 3.79 3.79s-1.7 3.79-3.79 3.79c-1.111 0-2.111-0.482-2.805-1.246l0.060-0.58c0.613 0.855 1.615 1.413 2.745 1.413zM22.134 25.243l1.21-1.21c0.264 0.346 0.444 0.76 0.509 1.21zM23.853 25.997c-0.065 0.45-0.245 0.864-0.509 1.21l-1.21-1.21zM21.601 24.71v-1.691c0.447 0.059 0.859 0.23 1.206 0.485zM22.806 27.735c-0.347 0.255-0.758 0.425-1.205 0.484v-1.689zM17.775 25.208c0.136 0.178 0.181 0.411 0.165 0.613l-0.254 2.428c-0.044 0.422-0.422 0.73-0.844 0.686l-2.393-0.248c-0.422-0.044-0.729-0.422-0.686-0.844l0.257-2.476c0.021-0.204 0.121-0.388 0.28-0.518 0.138-0.112 0.308-0.172 0.483-0.172 0.027 0 2.473 0.252 2.473 0.252 0.204 0.021 0.388 0.121 0.518 0.28zM25.684 28.964c-0.223 0.888-1.016 1.512-1.927 1.517-3.001 0.015-12.084-0.029-12.099-0.029 0.382-0.745 0.353-1.632-0.11-2.299 0.295-0.677 0.456-1.393 0.489-2.111 0.159 0.086 0.41 0.153 0.595 0.178 0.222 0.010 0.413-0.016 0.547-0.054l-0.166 1.6c-0.042 0.405 0.076 0.801 0.333 1.117s0.621 0.513 1.025 0.555l2.393 0.248c0.053 0.006 0.106 0.008 0.158 0.008 0.532 0 1.013-0.279 1.286-0.71 0.807 0.733 1.876 1.181 3.049 1.181 2.506 0 4.544-2.039 4.544-4.544s-2.039-4.544-4.544-4.544c-1.988 0-3.681 1.283-4.297 3.065l-0.987-0.102c0.317-0.52 0.303-1.204-0.087-1.717l-0.421-0.553c1.728-0.183 3.165-1.354 3.735-2.936l1.41 1.178c0.276 0.231 0.741 0.378 1.113 0.348 0.405-0.036 0.772-0.228 1.033-0.54l1.543-1.846c0.261-0.312 0.385-0.707 0.348-1.113s-0.228-0.772-0.54-1.033l-1.91-1.596c-0.312-0.261-0.707-0.384-1.113-0.348s-0.772 0.228-1.033 0.54l-0.948 1.135c-0.686-1.592-2.269-2.71-4.11-2.71-2.467 0-4.473 2.007-4.473 4.473 0 1.2 0.476 2.29 1.247 3.094l-1.436 1.094c-0.003 0.002-0.006 0.005-0.009 0.007-0.225-0.231-0.466-0.442-0.719-0.631 0.235-2.226 0.61-4.605 0.995-7.042 0.158-1.002 0.321-2.035 0.476-3.069h13.321c0.155 1.030 0.317 2.060 0.474 3.058 0.916 5.804 1.781 11.286 0.815 15.133zM19.087 16.751l1.543-1.846c0.132-0.158 0.317-0.255 0.522-0.273s0.404 0.044 0.562 0.176l1.91 1.596c0.158 0.132 0.255 0.317 0.273 0.522s-0.044 0.404-0.176 0.562l-1.543 1.846c-0.132 0.158-0.317 0.255-0.522 0.273s-0.404-0.044-0.562-0.176l-1.91-1.596c-0.158-0.132-0.255-0.317-0.273-0.522s0.044-0.404 0.176-0.562zM30.622 19.941c-0.106 0.156-0.266 0.262-0.451 0.298-0.045 0.009-0.091 0.013-0.136 0.013-0.337 0-0.628-0.241-0.692-0.572l-1.29-6.664c-0.176-0.911-0.978-1.572-1.906-1.572h-0.381c-0.053-0.347-0.106-0.693-0.158-1.040l0.016-0.372h2.050c0.834 0 1.245 0.493 1.352 0.956l1.702 8.425c0.036 0.185-0.003 0.373-0.108 0.53z"></path>
<path fill="#fff" d="M2.747 24.95c-0.055 0-0.112-0.007-0.167-0.023-0.335-0.092-0.531-0.438-0.438-0.773 0.055-0.2 0.124-0.401 0.204-0.598 0.131-0.321 0.498-0.475 0.819-0.344s0.475 0.498 0.344 0.819c-0.062 0.151-0.114 0.304-0.156 0.456-0.077 0.279-0.33 0.461-0.605 0.461z"></path>
<path fill="#fff" d="M2.977 27.631c-0.228 0-0.449-0.125-0.56-0.342-0.167-0.327-0.304-0.67-0.406-1.020-0.097-0.333 0.095-0.682 0.428-0.779s0.682 0.095 0.779 0.428c0.079 0.273 0.186 0.542 0.318 0.798 0.158 0.309 0.036 0.687-0.273 0.846-0.092 0.047-0.189 0.069-0.286 0.069z"></path>
<path fill="#3c122c" d="M7.534 26.951c-0.207 0-0.376-0.167-0.377-0.375l-0.002-0.364c-0.001-0.208 0.166-0.378 0.375-0.379h0.002c0.207 0 0.376 0.167 0.377 0.375l0.002 0.364c0.001 0.208-0.166 0.378-0.375 0.379-0.001 0-0.002 0-0.002 0z"></path>
<path fill="#3c122c" d="M9.059 25.336c-0.207 0-0.376-0.167-0.377-0.375l-0.002-0.364c-0.001-0.208 0.166-0.378 0.375-0.379h0.002c0.207 0 0.376 0.167 0.377 0.375l0.002 0.364c0.001 0.208-0.166 0.378-0.375 0.379-0.001 0-0.002 0-0.002 0z"></path>
<path fill="#3c122c" d="M8.748 28.123c-0.207 0-0.376-0.167-0.377-0.375l-0.002-0.364c-0.001-0.208 0.166-0.378 0.375-0.379h0.002c0.207 0 0.376 0.167 0.377 0.375l0.002 0.364c0.001 0.208-0.166 0.378-0.375 0.379-0.001 0-0.002 0-0.002 0z"></path>
</svg>
