<!-- Generated by IcoMoon.io -->
<svg version="1.1" xmlns="http://www.w3.org/2000/svg" width="32" height="32" viewBox="0 0 32 32">
<title>milk-box</title>
<path fill="#a6aaed" d="M24.46 5.465l-3.491 5.91v18.474l-1.597 1.197h6.869c0.873 0 1.581-0.708 1.581-1.581v-18.089z"></path>
<path fill="#fff" d="M24.458 5.468l0.002-0.004h-0.002v-2.058c0-0.843-0.683-1.526-1.526-1.526h-12.719c-0.843 0-1.526 0.683-1.526 1.526v2.058h-0.148l-3.975 5.91v18.089c0 0.873 0.708 1.581 1.581 1.581h13.227c0.873 0 1.581-0.708 1.581-1.581v-18.089z"></path>
<path fill="#96b4eb" d="M4.529 28.766s1.762-3.007 4.725-3.007 4.648 1.532 6.742 1.532 4.733-3.462 4.733-3.462v-7.302s-2.639 3.279-4.733 3.279c-1.196 0-2.275-0.649-3.532-1.206v1.123c0 0.454-0.368 0.821-0.821 0.821s-0.821-0.368-0.821-0.821v-1.707c-0.441-0.109-0.91-0.183-1.415-0.198v2.916c0 0.454-0.368 0.821-0.821 0.821s-0.821-0.368-0.821-0.821v-2.689c-2.070 0.676-3.233 2.605-3.233 2.605z"></path>
<path fill="#e1bdfc" d="M24.811 3.461c0-0.873-0.707-1.58-1.58-1.58h-4.142c0.873 0 1.58 0.707 1.58 1.58v2.672l-2.868 5.204v14.74c0 0.75-0.572 1.358-1.277 1.358h-10.683c-0.705 0-1.277-0.608-1.277-1.358v3.387c0 0.873 0.708 1.581 1.581 1.581h13.227c0.873 0 1.581-0.708 1.581-1.581v-18.089l2.581-4.35z"></path>
<path fill="#8286ea" d="M17.801 19.187v6.89c0 0.24-0.059 0.466-0.162 0.662 1.618-0.978 3.090-2.909 3.090-2.909v-7.302c0 0-1.375 1.708-2.927 2.659z"></path>
<path fill="#a6aaed" d="M15.075 8.579c0 1.009-1.404 1.827-3.137 1.827s-3.137-0.818-3.137-1.827l0-1.786 6.276 0.014z"></path>
<path fill="#c1e5ef" d="M15.075 6.787c0 1.009-1.404 1.827-3.137 1.827s-3.137-0.818-3.137-1.827c0-1.009 1.404-1.827 3.137-1.827s3.137 0.818 3.137 1.827z"></path>
<path fill="#c1e5ef" d="M29.857 1.276l0.536 1.508c0.023 0.065 0.068 0.116 0.126 0.142l1.339 0.603c0.189 0.085 0.189 0.387 0 0.472l-1.339 0.603c-0.057 0.026-0.103 0.077-0.126 0.141l-0.536 1.508c-0.076 0.213-0.344 0.213-0.419 0l-0.536-1.508c-0.023-0.065-0.068-0.116-0.126-0.141l-1.339-0.603c-0.189-0.085-0.189-0.387 0-0.472l1.339-0.603c0.057-0.026 0.103-0.077 0.126-0.142l0.536-1.508c0.076-0.213 0.344-0.213 0.419 0z"></path>
<path fill="#96b4eb" d="M5.354 0.668c0.457 0.457 0.457 1.198 0 1.655s-1.198 0.457-1.655 0c-0.457-0.457-0.457-1.198 0-1.655s1.198-0.457 1.655 0z"></path>
<path fill="#96b4eb" d="M31.746 9.552c0 0.279-0.226 0.505-0.505 0.505s-0.505-0.226-0.505-0.505 0.226-0.505 0.505-0.505c0.279 0 0.505 0.226 0.505 0.505z"></path>
<path fill="#c1e5ef" d="M1.901 5.286l0.398 1.118c0.017 0.048 0.051 0.086 0.093 0.105l0.994 0.448c0.14 0.063 0.14 0.287 0 0.35l-0.994 0.448c-0.043 0.019-0.076 0.057-0.093 0.105l-0.398 1.118c-0.056 0.158-0.255 0.158-0.311 0l-0.398-1.118c-0.017-0.048-0.051-0.086-0.093-0.105l-0.994-0.448c-0.14-0.063-0.14-0.287 0-0.35l0.994-0.448c0.043-0.019 0.076-0.057 0.093-0.105l0.398-1.118c0.056-0.158 0.255-0.158 0.311 0z"></path>
<path fill="#3c122c" d="M16.838 24.461c-0.209 0-0.378-0.169-0.378-0.378v-0.804c0-0.209 0.169-0.378 0.378-0.378s0.378 0.169 0.378 0.378v0.804c0 0.209-0.169 0.378-0.378 0.378z"></path>
<path fill="#3c122c" d="M18.32 22.745c-0.209 0-0.378-0.169-0.378-0.378v-0.804c0-0.209 0.169-0.378 0.378-0.378s0.378 0.169 0.378 0.378v0.804c0 0.209-0.169 0.378-0.378 0.378z"></path>
<path fill="#3c122c" d="M28.371 11.063l-3.283-5.769v-1.887c0-1.189-0.968-2.157-2.157-2.157h-12.719c-1.189 0-2.157 0.967-2.157 2.157v1.654c-0.014 0.017-0.028 0.034-0.040 0.052l-3.975 5.91c-0.070 0.104-0.107 0.226-0.107 0.352v18.089c0 1.22 0.992 2.212 2.212 2.212h20.097c1.22 0 2.212-0.992 2.212-2.212v-18.089c-0-0.109-0.029-0.217-0.083-0.312zM24.449 6.719l2.487 4.371h-5.080zM10.212 2.511h12.719c0.494 0 0.896 0.402 0.896 0.896v1.427h-10.232c-0.491-0.161-1.054-0.253-1.657-0.253s-1.166 0.091-1.657 0.253h-0.964v-1.428c-0-0.494 0.402-0.896 0.896-0.896zM14.696 6.787c0 0.7-1.108 1.449-2.758 1.449s-2.758-0.749-2.758-1.449 1.108-1.449 2.758-1.449c1.65 0 2.758 0.749 2.758 1.449zM9.18 8.168c0.639 0.505 1.628 0.824 2.758 0.824s2.12-0.319 2.759-0.825l-0.001 0.411v0.001c0 0.7-1.108 1.449-2.758 1.449s-2.758-0.749-2.758-1.448zM8.424 6.764c-0 0.008-0.001 0.015-0.001 0.022 0 0.003 0 0.005 0 0.008l-0 1.785c0 1.236 1.544 2.205 3.515 2.205s3.515-0.969 3.515-2.205l0.003-1.771c0-0.019-0.002-0.038-0.005-0.056-0.005-0.23-0.064-0.45-0.169-0.657h8.071l-2.941 4.958c-0.007 0.012-0.012 0.025-0.019 0.037h-14.878zM5.194 20.375c0.404-0.505 1.154-1.297 2.19-1.774v2.134c0 0.662 0.538 1.2 1.2 1.2s1.2-0.538 1.2-1.2v-2.514c0.219 0.021 0.438 0.053 0.659 0.098v1.405c0 0.662 0.538 1.2 1.2 1.2s1.2-0.538 1.2-1.2v-0.534c0.066 0.031 0.131 0.061 0.195 0.092 0.986 0.465 1.918 0.903 2.959 0.903 1.58 0 3.367-1.62 4.328-2.631v6.18c-0.792 0.999-2.834 3.18-4.328 3.18-0.889 0-1.702-0.298-2.644-0.644-1.135-0.416-2.421-0.888-4.098-0.888-1.824 0-3.205 1.031-4.059 1.922zM20.323 16.424c-0.798 0.949-2.835 3.004-4.328 3.004-0.872 0-1.69-0.385-2.636-0.831-0.24-0.113-0.487-0.23-0.742-0.343-0.117-0.052-0.252-0.041-0.36 0.029s-0.172 0.189-0.172 0.317v1.123c0 0.244-0.199 0.443-0.443 0.443s-0.443-0.199-0.443-0.443v-1.707c0-0.174-0.118-0.325-0.287-0.367-0.506-0.125-0.995-0.194-1.495-0.209-0.104-0.003-0.202 0.035-0.275 0.107s-0.115 0.169-0.115 0.272v2.916c0 0.244-0.199 0.443-0.443 0.443s-0.443-0.199-0.443-0.443v-2.689c0-0.121-0.058-0.235-0.156-0.306s-0.224-0.091-0.34-0.053c-1.048 0.343-1.872 0.977-2.451 1.553v-7.393h15.129v4.578zM13.014 30.415h-6.869c-0.524 0-0.951-0.427-0.951-0.951v-0.993c0.618-0.807 2.052-2.333 4.059-2.333 1.542 0 2.709 0.428 3.837 0.842 0.967 0.355 1.881 0.69 2.905 0.69 1.581 0 3.365-1.703 4.328-2.771v4.565c0 0.524-0.427 0.951-0.951 0.951zM26.242 30.415h-4.873c0.138-0.288 0.215-0.611 0.215-0.951v-17.617h5.608v17.617c0 0.524-0.427 0.951-0.951 0.951z"></path>
<path fill="#3c122c" d="M8.401 16.425c-0.191 0-0.36-0.121-0.42-0.302-0.002-0.004-0.003-0.009-0.004-0.013l-0.449-1.521-0.271 1.503c-0.037 0.206-0.234 0.342-0.439 0.305s-0.342-0.234-0.305-0.439l0.506-2.805c0.039-0.202 0.206-0.35 0.407-0.363 0.202-0.014 0.386 0.111 0.45 0.301 0.002 0.004 0.003 0.009 0.004 0.013l0.517 1.753 0.499-1.749c0.001-0.004 0.003-0.009 0.004-0.013 0.062-0.191 0.245-0.317 0.447-0.306s0.369 0.157 0.409 0.354l0.537 2.81c0.039 0.205-0.095 0.403-0.301 0.443s-0.403-0.095-0.443-0.3l-0.289-1.51-0.433 1.52c-0.001 0.004-0.003 0.009-0.004 0.013-0.059 0.182-0.228 0.305-0.42 0.306-0.001 0-0.001 0-0.002 0z"></path>
<path fill="#3c122c" d="M14.155 16.425c-0.319 0-0.339-0.003-0.366-0.008-0.182-0.031-0.314-0.189-0.314-0.373v-2.878c0-0.209 0.169-0.378 0.378-0.378s0.378 0.169 0.378 0.378v2.502c0.196-0 0.436-0.001 0.628-0.002h0.002c0.208 0 0.377 0.168 0.378 0.376s-0.167 0.379-0.376 0.38c-0.329 0.002-0.553 0.003-0.708 0.003z"></path>
<path fill="#3c122c" d="M18.741 15.774l-1.27-1.226 1.161-1.068c0.154-0.141 0.164-0.381 0.023-0.534s-0.381-0.164-0.534-0.023l-0.915 0.841v-0.599c0-0.209-0.169-0.378-0.378-0.378s-0.378 0.169-0.378 0.378v2.88c0 0.209 0.169 0.378 0.378 0.378s0.378-0.169 0.378-0.378v-0.703l1.011 0.975c0.073 0.071 0.168 0.106 0.263 0.106 0.099 0 0.198-0.039 0.272-0.116 0.145-0.15 0.141-0.39-0.010-0.535z"></path>
<path fill="#3c122c" d="M11.886 16.425c-0.209 0-0.378-0.169-0.378-0.378v-2.88c0-0.209 0.169-0.378 0.378-0.378s0.378 0.169 0.378 0.378v2.88c0 0.209-0.169 0.378-0.378 0.378z"></path>
</svg>
