<!-- Generated by IcoMoon.io -->
<svg version="1.1" xmlns="http://www.w3.org/2000/svg" width="32" height="32" viewBox="0 0 32 32">
<title>sangria</title>
<path fill="#fff" d="M27.601 5.578l-14.828 0.957c-1.014 0.065-1.79 0.93-1.746 1.945l0.053 1.22h-2.647c-1.163 0-1.801 0.733-1.963 1.45l-1.702 8.422c-0.14 0.722 0.332 1.421 1.055 1.561 0.085 0.017 0.171 0.024 0.255 0.024 0.625 0 1.183-0.442 1.306-1.079l1.288-6.653c0.119-0.616 0.659-1.062 1.287-1.062h0.918c-1.016 6.534-2.151 12.683-1.063 17.016 0.292 1.163 1.33 1.982 2.529 1.988 3.036 0.015 9.008-0.012 12.039-0.027 1.198-0.006 2.238-0.825 2.528-1.988 1.167-4.688-0.258-11.492-1.317-18.608l2.484-4.412c0.197-0.351-0.073-0.78-0.474-0.755z"></path>
<path fill="#d789b9" d="M25.573 10.624c1.061 7.16 2.509 14.014 1.335 18.729-0.29 1.163-1.33 1.982-2.528 1.988-3.031 0.016-9.003 0.042-12.039 0.027-1.199-0.006-2.237-0.826-2.529-1.988-1.183-4.715 0.266-11.582 1.328-18.756z"></path>
<path fill="#fff" d="M23.849 25.734l1.178-1.547c0.381-0.501 0.285-1.216-0.216-1.598l-1.488-1.133c-0.501-0.381-1.216-0.285-1.598 0.216l-1.178 1.547c-0.381 0.501-0.285 1.216 0.216 1.598l1.488 1.133c0.501 0.381 1.216 0.285 1.598-0.216z"></path>
<path fill="#f6e06e" d="M23.326 12.108c1.942 0.588 3.039 2.639 2.45 4.581s-2.639 3.039-4.581 2.45c-1.942-0.588-3.039-2.639-2.45-4.581s2.639-3.039 4.581-2.45z"></path>
<path fill="#faf1a9" d="M23.807 13.483c1.185 0.854 1.452 2.507 0.598 3.692s-2.507 1.452-3.692 0.598c-1.185-0.854-1.452-2.507-0.598-3.692s2.507-1.452 3.692-0.598z"></path>
<path fill="#f6e06e" d="M16.122 21.65c1.842 0.848 2.648 3.029 1.8 4.871s-3.029 2.648-4.871 1.8c-1.842-0.848-2.648-3.029-1.8-4.871s3.029-2.648 4.871-1.8z"></path>
<path fill="#faf1a9" d="M16.936 23.718c0.701 1.282 0.23 2.89-1.053 3.591s-2.89 0.23-3.591-1.053c-0.701-1.282-0.23-2.89 1.053-3.591s2.89-0.23 3.591 1.053z"></path>
<path fill="#fff" d="M15.926 16.77l1.492-1.247c0.483-0.404 0.548-1.123 0.144-1.606l-1.2-1.436c-0.404-0.483-1.123-0.548-1.606-0.144l-1.492 1.247c-0.483 0.404-0.548 1.123-0.144 1.606l1.2 1.436c0.404 0.483 1.123 0.548 1.606 0.144z"></path>
<path fill="#fff" d="M18.712 28.574l-0.2-1.935c-0.065-0.626-0.625-1.081-1.252-1.017l-1.861 0.193c-0.626 0.065-1.081 0.625-1.017 1.252l0.2 1.935c0.065 0.626 0.625 1.081 1.252 1.017l1.861-0.193c0.626-0.065 1.081-0.625 1.016-1.252z"></path>
<path fill="#e8a284" d="M20.049 22.553c-0.798 0.401-3.184-1.419-3.491-2.031s-0.054-1.573 1.33-2.269c1.384-0.696 2.293-0.353 2.614 0.286s0.345 3.612-0.453 4.014z"></path>
<path fill="#efc5b4" d="M17.48 18.558l0.964 1.918c0.124 0.247 0.425 0.347 0.673 0.223s0.347-0.425 0.223-0.673l-0.975-1.94z"></path>
<path fill="#e8a284" d="M11.254 21.038c0.829 0.417 3.306-1.473 3.626-2.109s0.056-1.633-1.381-2.356c-1.437-0.722-2.381-0.366-2.715 0.297s-0.359 3.751 0.47 4.168z"></path>
<path fill="#efc5b4" d="M13.922 16.889l-1.001 1.992c-0.129 0.257-0.442 0.36-0.698 0.231s-0.36-0.442-0.231-0.698l1.012-2.014z"></path>
<path fill="#e8a284" d="M25.764 25.783c-0.522-0.721-3.467-0.203-4.019 0.197s-0.768 1.367 0.137 2.616c0.905 1.249 1.867 1.363 2.444 0.945s1.96-3.037 1.438-3.758z"></path>
<path fill="#efc5b4" d="M21.66 28.14l1.732-1.255c0.223-0.162 0.535-0.112 0.697 0.111s0.112 0.535-0.111 0.697l-1.751 1.269z"></path>
<path fill="#c668b9" d="M25.592 10.752h-2.897c0.069 0.482 0.14 0.96 0.213 1.435 1.196 0.884 2.335 2.235 2.177 3.792-0.091 0.898-0.398 2.212-1.173 2.857 0.154 1.218 0.265 2.384 0.305 3.489 0.454 0.266 0.959 0.495 0.992 1.101 0.041 0.748-0.668 1.181-1.080 1.71-0.006 0.054-0.014 0.108-0.021 0.162 0.207 0.104 0.366 0.326 0.455 0.539 0.151 0.36 0.138 0.773 0.087 1.153-0.101 0.765-0.489 1.546-1.185 1.94-0.768 0.434-1.293-0.115-1.733-0.682-0.834 0.005-1.923 0.010-3.098 0.015-0.115 0.849-0.984 1.379-1.872 1.431-0.204 0.012-0.428 0.014-0.647-0.013-0.355 0.003-0.714-0.058-1.008-0.243-0.441-0.278-0.49-0.711-0.533-1.163-1.044 0.001-2.001 0.001-2.745-0.003-0.993-0.005-1.853-0.726-2.095-1.75-0.186-0.789-0.293-1.646-0.339-2.56-0.083 2.003 0.017 3.833 0.415 5.419 0.292 1.163 1.33 1.982 2.529 1.988 3.036 0.015 9.008-0.012 12.039-0.027 1.198-0.006 2.239-0.825 2.528-1.988 1.167-4.687-0.257-11.488-1.316-18.601z"></path>
<path fill="#d57b84" d="M24.091 25.434c-0.050 0.365-0.113 0.72-0.194 1.063-0.24 1.023-1.101 1.744-2.094 1.75-0.049 0-0.099 0.001-0.149 0.001 0.066 0.113 0.142 0.229 0.228 0.348 0.905 1.249 1.867 1.363 2.444 0.945s1.96-3.037 1.438-3.758c-0.228-0.315-0.92-0.393-1.673-0.348z"></path>
<path fill="#d994b3" d="M22.227 28.963l1.751-1.269c0.223-0.162 0.273-0.474 0.111-0.697-0.072-0.1-0.175-0.165-0.286-0.192-0.326 0.857-1.11 1.437-2 1.442-0.023 0-0.046 0-0.069 0z"></path>
<path fill="#e1bdfc" d="M25.025 24.19c0.383-0.503 0.286-1.221-0.217-1.603l-0.599-0.456c0.051 1.165 0.023 2.263-0.115 3.281z"></path>
<path fill="#e1bdfc" d="M14.582 28.998c0.065 0.628 0.627 1.085 1.256 1.020l1.853-0.192c0.628-0.065 1.085-0.627 1.020-1.256l-0.032-0.308c-1.361 0.006-2.84 0.011-4.172 0.012z"></path>
<path fill="#dda86a" d="M22.879 11.998c0.368 2.421 0.77 4.739 1.040 6.896 1.193-0.607 2.012-1.845 2.012-3.276 0-1.817-1.319-3.324-3.052-3.62z"></path>
<path fill="#dfb5a7" d="M23.048 13.094c0.254 1.621 0.513 3.191 0.723 4.692 0.683-0.478 1.13-1.27 1.13-2.167-0-1.185-0.779-2.188-1.853-2.524z"></path>
<path fill="#e1bdfc" d="M22.649 10.425c0.012 0.086 0.024 0.171 0.037 0.256h2.942l2.448-4.349c0.197-0.351-0.073-0.78-0.474-0.755l-2.767 0.178c0.093 0.133 0.118 0.319 0.030 0.485z"></path>
<path fill="#e8c2d8" d="M2.947 5.548l0.525 1.476c0.022 0.063 0.067 0.113 0.123 0.139l1.311 0.591c0.185 0.083 0.185 0.379 0 0.462l-1.311 0.591c-0.056 0.025-0.101 0.075-0.123 0.139l-0.525 1.476c-0.074 0.209-0.336 0.209-0.41 0l-0.525-1.476c-0.022-0.063-0.067-0.113-0.123-0.139l-1.311-0.591c-0.185-0.083-0.185-0.379 0-0.462l1.311-0.591c0.056-0.025 0.101-0.075 0.123-0.139l0.525-1.476c0.074-0.208 0.336-0.208 0.41 0z"></path>
<path fill="#d789b9" d="M30.683 10.154c0.616 0.146 0.997 0.763 0.851 1.379s-0.763 0.997-1.379 0.851c-0.616-0.146-0.997-0.763-0.851-1.379s0.763-0.997 1.379-0.851z"></path>
<path fill="#d789b9" d="M16.142 2.8c0.267 0.028 0.46 0.267 0.432 0.533s-0.267 0.46-0.533 0.432c-0.267-0.028-0.46-0.267-0.432-0.533s0.267-0.46 0.533-0.432z"></path>
<path fill="#e8c2d8" d="M9.905 0.116l0.389 1.095c0.017 0.047 0.050 0.084 0.091 0.103l0.973 0.438c0.137 0.062 0.137 0.281 0 0.343l-0.973 0.438c-0.042 0.019-0.075 0.056-0.091 0.103l-0.389 1.095c-0.055 0.155-0.249 0.155-0.304 0l-0.389-1.095c-0.017-0.047-0.050-0.084-0.091-0.103l-0.973-0.438c-0.137-0.062-0.137-0.281 0-0.343l0.973-0.438c0.042-0.019 0.075-0.056 0.091-0.103l0.389-1.095c0.055-0.155 0.249-0.155 0.305 0z"></path>
<path fill="#3c122c" d="M28.593 5.481c-0.222-0.353-0.618-0.555-1.033-0.528l-14.828 0.957c-1.345 0.087-2.391 1.252-2.332 2.598l0.025 0.565h-1.992c-1.476 0-2.357 0.974-2.575 1.939l-1.706 8.441c-0.205 1.061 0.491 2.091 1.551 2.296 0.123 0.024 0.249 0.036 0.374 0.036 0.936 0 1.744-0.668 1.922-1.587l1.288-6.653c0.062-0.321 0.344-0.554 0.671-0.554h0.185c-0.049 0.314-0.098 0.626-0.147 0.934-0.935 5.924-1.818 11.519-0.792 15.607 0.362 1.443 1.651 2.456 3.134 2.463 0.634 0.003 1.394 0.005 2.23 0.005 3.118 0 7.282-0.019 9.815-0.032 1.486-0.008 2.774-1.021 3.133-2.464 1.016-4.083 0.136-9.662-0.797-15.568-0.158-1.003-0.322-2.038-0.477-3.071l2.378-4.224c0.204-0.363 0.194-0.807-0.028-1.16zM9.958 11.737c-0.926 0-1.726 0.66-1.902 1.57l-1.288 6.653c-0.064 0.331-0.355 0.571-0.691 0.571-0.045 0-0.091-0.004-0.135-0.013-0.382-0.074-0.632-0.445-0.559-0.821l1.7-8.415c0.107-0.463 0.517-0.955 1.35-0.955h2.047l0.016 0.372c-0.052 0.346-0.104 0.693-0.158 1.038zM26.299 29.201c-0.221 0.886-1.011 1.508-1.923 1.513-3.209 0.017-9.040 0.042-12.032 0.027-0.91-0.005-1.701-0.627-1.924-1.514-0.619-2.467-0.484-5.608-0.065-9.075 0.128 0.547 0.349 1.031 0.73 1.222 0.132 0.066 0.285 0.1 0.457 0.1 0.485 0 1.128-0.261 1.922-0.781 0.704-0.461 1.532-1.157 1.752-1.595 0.244-0.485 0.235-1.101-0.146-1.694 0.043 0.003 0.086 0.006 0.128 0.006 0.355 0 0.696-0.123 0.972-0.354l1.486-1.242c0.312-0.26 0.503-0.627 0.539-1.031s-0.087-0.799-0.348-1.111l-1.194-1.429c-0.26-0.312-0.627-0.503-1.031-0.54s-0.799 0.087-1.111 0.348l-1.486 1.242c-0.312 0.26-0.503 0.627-0.539 1.031s0.087 0.799 0.348 1.111l0.567 0.678c-1.091-0.472-1.946-0.361-2.483 0.034 0.103-0.67 0.21-1.345 0.317-2.026 0.157-0.996 0.319-2.024 0.473-3.053h13.298c0.094 0.627 0.191 1.254 0.288 1.874-0.743-0.842-1.828-1.374-3.037-1.374-2.233 0-4.050 1.817-4.050 4.050 0 0.703 0.181 1.363 0.497 1.94-0.312 0.067-0.641 0.187-0.985 0.36-0.706 0.355-1.213 0.817-1.468 1.336-0.236 0.481-0.247 1.005-0.029 1.438 0.213 0.424 1.012 1.096 1.692 1.541 0.766 0.502 1.388 0.754 1.859 0.754 0.168 0 0.317-0.032 0.446-0.097 0.49-0.246 0.777-0.997 0.853-2.231 0.022-0.362 0.023-0.781-0.006-1.171 0.377 0.117 0.777 0.181 1.192 0.181 1.653 0 3.078-0.996 3.706-2.42 0.683 4.594 1.117 8.816 0.336 11.953zM13.457 16.977l-0.872 1.735c-0.036 0.071-0.122 0.099-0.193 0.064-0.046-0.023-0.065-0.062-0.072-0.083s-0.015-0.064 0.008-0.11l0.872-1.735c0.043 0.020 0.086 0.040 0.13 0.063s0.086 0.044 0.127 0.067zM13.412 14.953c-0.132-0.157-0.194-0.357-0.176-0.561s0.115-0.389 0.272-0.521l1.486-1.242c0.139-0.116 0.312-0.179 0.491-0.179 0.023 0 0.046 0.001 0.070 0.003 0.204 0.018 0.389 0.115 0.521 0.272l1.194 1.429c0.131 0.157 0.194 0.357 0.176 0.561s-0.115 0.389-0.272 0.521l-1.486 1.242c-0.157 0.131-0.357 0.194-0.561 0.176s-0.389-0.115-0.521-0.273zM11.655 18.245c-0.108 0.214-0.125 0.457-0.050 0.684s0.235 0.412 0.448 0.519c0.129 0.065 0.266 0.095 0.401 0.095 0.328 0 0.645-0.181 0.803-0.494l0.826-1.642c0.539 0.481 0.643 0.99 0.461 1.353-0.1 0.199-0.688 0.777-1.492 1.303-0.923 0.605-1.48 0.713-1.629 0.638s-0.397-0.584-0.464-1.678c-0.059-0.967 0.056-1.774 0.161-1.984 0.136-0.271 0.444-0.49 0.936-0.49 0.129 0 0.271 0.015 0.426 0.048zM18.108 20.645c0.154 0.306 0.464 0.483 0.785 0.483 0.132 0 0.267-0.030 0.393-0.093 0.432-0.217 0.607-0.746 0.39-1.178l-0.788-1.567c0.138-0.028 0.269-0.043 0.393-0.043 0.086 0 0.169 0.007 0.247 0.021 0.299 0.053 0.52 0.206 0.638 0.442 0.101 0.201 0.211 0.975 0.154 1.904-0.064 1.047-0.298 1.533-0.439 1.605-0.14 0.071-0.67-0.035-1.554-0.614-0.772-0.506-1.336-1.060-1.432-1.25-0.112-0.224-0.101-0.496 0.032-0.768 0.069-0.14 0.189-0.316 0.395-0.505zM17.946 18.648c0.036-0.019 0.072-0.039 0.11-0.058s0.075-0.036 0.113-0.054l0.834 1.658c0.031 0.061 0.006 0.137-0.055 0.167-0.040 0.020-0.077 0.013-0.095 0.007s-0.052-0.022-0.072-0.062zM21.378 15.242h-1.358c0.059-0.353 0.2-0.678 0.402-0.956zM20.959 13.759c0.278-0.195 0.601-0.329 0.951-0.383v1.334zM20.021 15.995h1.358l-0.955 0.955c-0.202-0.278-0.343-0.603-0.402-0.955zM21.91 16.527v1.333c-0.349-0.054-0.672-0.188-0.95-0.382zM22.257 18.639c1.666 0 3.021-1.355 3.021-3.021s-1.355-3.021-3.021-3.021c-1.666 0-3.021 1.355-3.021 3.021 0 0.767 0.288 1.468 0.761 2.002-0.106-0.041-0.219-0.073-0.338-0.094-0.033-0.006-0.066-0.011-0.1-0.015-0.377-0.536-0.6-1.189-0.6-1.893 0-1.818 1.479-3.297 3.297-3.297s3.297 1.479 3.297 3.297c0 1.818-1.479 3.297-3.297 3.297-0.47 0-0.916-0.099-1.321-0.277-0.028-0.102-0.060-0.193-0.098-0.267-0.022-0.044-0.047-0.086-0.072-0.127 0.44 0.251 0.949 0.395 1.491 0.395zM23.195 15.242l0.921-0.921c0.189 0.27 0.321 0.583 0.377 0.921zM24.493 15.995c-0.057 0.338-0.189 0.651-0.378 0.921l-0.921-0.921zM22.663 14.71v-1.323c0.341 0.062 0.656 0.2 0.926 0.397zM23.589 17.453c-0.27 0.196-0.585 0.335-0.926 0.397v-1.322zM25.113 10.316h-13.379l-0.081-1.863c-0.029-0.669 0.491-1.249 1.16-1.292l14.607-0.942z"></path>
<path fill="#3c122c" d="M18.886 26.605c-0.031-0.301-0.149-0.573-0.326-0.793 0.057-0.269 0.088-0.547 0.088-0.833 0-2.233-1.817-4.050-4.050-4.050s-4.050 1.817-4.050 4.050c0 2.1 1.608 3.83 3.657 4.028l0.003 0.029c0.042 0.404 0.239 0.767 0.554 1.023 0.274 0.222 0.608 0.34 0.956 0.34 0.053 0 0.106-0.003 0.16-0.008l1.853-0.192c0.404-0.042 0.767-0.238 1.023-0.554s0.374-0.711 0.332-1.115zM14.251 26.116c-0.194 0.293-0.28 0.64-0.243 0.994l0.006 0.060c-0.259-0.069-0.5-0.182-0.713-0.331l0.95-0.95v0.228zM13.719 25.356l-0.955 0.955c-0.202-0.278-0.343-0.603-0.402-0.955zM12.361 24.604c0.059-0.353 0.2-0.678 0.402-0.956l0.956 0.956zM14.251 24.071l-0.951-0.951c0.278-0.195 0.601-0.329 0.951-0.383zM14.598 21.958c-1.666 0-3.021 1.355-3.021 3.021 0 1.495 1.091 2.739 2.519 2.978l0.030 0.285c-1.595-0.23-2.825-1.605-2.825-3.263 0-1.818 1.479-3.297 3.297-3.297s3.297 1.479 3.297 3.297c0 0.117-0.006 0.233-0.019 0.348-0.087-0.031-0.178-0.054-0.272-0.068 0.009-0.092 0.014-0.185 0.014-0.279 0-1.666-1.355-3.021-3.021-3.021zM15.536 24.604l0.921-0.921c0.189 0.27 0.321 0.583 0.377 0.921zM16.185 25.356l-0.588 0.061-0.061-0.061zM15.004 24.071v-1.323c0.341 0.062 0.656 0.2 0.926 0.397zM18.169 29.172c-0.129 0.159-0.313 0.259-0.517 0.28l-1.853 0.192c-0.204 0.021-0.404-0.038-0.563-0.168s-0.258-0.313-0.28-0.517l-0.2-1.927c-0.021-0.204 0.038-0.404 0.168-0.563s0.313-0.258 0.517-0.28l1.853-0.192c0.027-0.003 0.053-0.004 0.080-0.004 0.388 0 0.722 0.294 0.763 0.689l0.2 1.927c0.021 0.204-0.038 0.404-0.168 0.563z"></path>
<path fill="#3c122c" d="M26.069 25.562c-0.21-0.29-0.624-0.458-1.232-0.504l0.488-0.64c0.508-0.667 0.378-1.623-0.288-2.131l-1.482-1.129c-0.323-0.246-0.723-0.352-1.125-0.297s-0.76 0.262-1.006 0.586l-1.174 1.541c-0.246 0.323-0.352 0.723-0.297 1.125s0.262 0.76 0.586 1.006l0.862 0.657c-0.629 0.566-0.805 1.686 0.177 3.041 0.682 0.941 1.431 1.316 2.070 1.316 0.339 0 0.647-0.105 0.899-0.288 0.623-0.452 2.246-3.284 1.522-4.284zM20.849 23.444l1.174-1.541c0.151-0.198 0.38-0.302 0.612-0.302 0.162 0 0.326 0.051 0.464 0.157l1.482 1.129c0.337 0.256 0.402 0.739 0.146 1.076l-0.846 1.111c-0.050 0.004-0.1 0.008-0.152 0.014-0.514 0.053-1.114 0.165-1.58 0.312l-1.153-0.878c-0.337-0.257-0.402-0.739-0.146-1.076zM22.187 28.375c-0.024-0.034-0.048-0.067-0.071-0.101l1.497-1.085c0.055-0.040 0.132-0.027 0.171 0.027s0.027 0.132-0.027 0.171l-1.497 1.085c-0.024-0.032-0.049-0.065-0.073-0.098zM25.113 27.623c-0.375 0.848-0.826 1.482-1.008 1.613-0.29 0.21-0.771 0.234-1.322-0.212l1.415-1.026c0.391-0.283 0.478-0.832 0.195-1.223-0.137-0.189-0.34-0.314-0.571-0.351s-0.462 0.018-0.652 0.156l-1.412 1.023c-0.235-0.63-0.101-1.097 0.206-1.319 0.171-0.124 0.924-0.356 1.838-0.449 0.252-0.026 0.473-0.037 0.665-0.037 0.606 0 0.92 0.109 0.99 0.205 0.092 0.128 0.076 0.664-0.346 1.62z"></path>
</svg>
