<!-- Generated by IcoMoon.io -->
<svg version="1.1" xmlns="http://www.w3.org/2000/svg" width="32" height="32" viewBox="0 0 32 32">
<title>smoothie1</title>
<path fill="#c59b8c" d="M26.768 5.028c2.11 2.11 2.11 5.531 0 7.641s-5.531 2.11-7.641 0c-2.11-2.11-2.11-5.531 0-7.641s5.531-2.11 7.641 0z"></path>
<path fill="#a1e8c3" d="M27.197 8.847c0 2.345-1.901 4.245-4.245 4.245s-4.245-1.901-4.245-4.245c0-2.345 1.901-4.245 4.245-4.245s4.245 1.901 4.245 4.245z"></path>
<path fill="#85adc2" d="M25.417 5.39c0.497 0.695 0.789 1.546 0.789 2.465 0 2.345-1.901 4.245-4.245 4.245-0.919 0-1.77-0.292-2.466-0.789 0.77 1.077 2.031 1.78 3.456 1.78 2.345 0 4.245-1.901 4.245-4.245 0-1.425-0.702-2.686-1.78-3.456z"></path>
<path fill="#fff" d="M21.117 31.373h-10.16c-0.941 0-1.712-0.846-1.742-1.912l-0.603-21.006h14.73l-0.482 20.993c-0.025 1.071-0.798 1.925-1.743 1.925z"></path>
<path fill="#e8a284" d="M16.341 27.798c0.078 0 0.157-0.010 0.235-0.031 0.489-0.13 0.781-0.631 0.651-1.12l-6.776-25.588c-0.13-0.489-0.631-0.781-1.12-0.651s-0.781 0.631-0.651 1.121l6.776 25.588c0.109 0.411 0.48 0.682 0.885 0.682z"></path>
<path fill="#ccf3e2" d="M19.584 28.732h-6.981c-0.94 0-1.711-0.868-1.742-1.962l-0.448-16.037h11.272l-0.358 16.024c-0.025 1.099-0.797 1.975-1.742 1.975z"></path>
<path fill="#e1bdfc" d="M19.229 8.455l-0.386 17.536c-0.020 0.895-0.639 1.608-1.396 1.608h-6.956c-0.672 0-1.236-0.562-1.368-1.316l0.091 3.178c0.031 1.066 0.802 1.912 1.742 1.912h10.16c0.945 0 1.718-0.854 1.743-1.925l0.482-20.993z"></path>
<path fill="#b1b6e1" d="M18.843 25.991c-0.020 0.895-0.639 1.608-1.396 1.608h-6.407c0.285 0.672 0.879 1.133 1.564 1.133h6.981c0.945 0 1.718-0.876 1.742-1.975l0.358-16.024h-2.506z"></path>
<path fill="#efc5b4" d="M3.505 4.32l0.514 1.446c0.022 0.062 0.066 0.111 0.121 0.136l1.285 0.579c0.181 0.082 0.181 0.371 0 0.453l-1.285 0.579c-0.055 0.025-0.099 0.074-0.121 0.136l-0.514 1.446c-0.073 0.204-0.33 0.204-0.402 0l-0.514-1.446c-0.022-0.062-0.066-0.111-0.121-0.136l-1.285-0.579c-0.181-0.082-0.181-0.371 0-0.453l1.285-0.579c0.055-0.025 0.099-0.074 0.121-0.136l0.514-1.446c0.073-0.204 0.33-0.204 0.402 0z"></path>
<path fill="#e8a284" d="M18.602 1.308c0 0.62-0.503 1.123-1.123 1.123s-1.123-0.503-1.123-1.123 0.503-1.123 1.123-1.123c0.62 0 1.123 0.503 1.123 1.123z"></path>
<path fill="#e8a284" d="M30.54 14.484c0.264 0.043 0.443 0.292 0.401 0.556s-0.292 0.443-0.556 0.401c-0.264-0.043-0.443-0.292-0.401-0.556s0.292-0.443 0.556-0.401z"></path>
<path fill="#efc5b4" d="M27.871 17.357l0.381 1.073c0.016 0.046 0.049 0.082 0.090 0.101l0.953 0.429c0.135 0.061 0.135 0.275 0 0.336l-0.953 0.429c-0.041 0.018-0.073 0.055-0.090 0.101l-0.381 1.073c-0.054 0.152-0.244 0.152-0.298 0l-0.381-1.073c-0.016-0.046-0.049-0.082-0.090-0.101l-0.953-0.429c-0.135-0.061-0.135-0.275 0-0.336l0.953-0.429c0.041-0.018 0.073-0.055 0.090-0.101l0.381-1.073c0.054-0.152 0.244-0.152 0.298 0z"></path>
<path fill="#3c122c" d="M27.608 12.265c0.705-0.958 1.124-2.14 1.124-3.418 0-3.187-2.593-5.78-5.78-5.78-2.84 0-5.207 2.058-5.69 4.762h-4.628l-1.818-6.866c-0.088-0.334-0.301-0.613-0.6-0.787s-0.647-0.22-0.981-0.132c-0.334 0.088-0.613 0.301-0.787 0.6s-0.22 0.647-0.132 0.98l1.643 6.204h-1.347c-0.169 0-0.332 0.069-0.45 0.19s-0.182 0.286-0.177 0.455l0.603 21.006c0.041 1.414 1.081 2.521 2.369 2.521h10.16c1.296 0 2.337-1.115 2.369-2.537l0.342-14.904c0.857-0.131 1.652-0.45 2.342-0.914l0.332 0.332c0.073 0.073 0.17 0.11 0.266 0.11s0.193-0.037 0.266-0.11c0.147-0.147 0.147-0.385-0-0.532l-0.264-0.264c0.122-0.107 0.239-0.22 0.351-0.337l0.274 0.274c0.073 0.073 0.17 0.11 0.266 0.11s0.193-0.037 0.266-0.11c0.147-0.147 0.147-0.385 0-0.532zM9.043 1.431c-0.037-0.139-0.017-0.285 0.055-0.41s0.189-0.214 0.329-0.251c0.046-0.012 0.093-0.018 0.139-0.018 0.094 0 0.187 0.025 0.271 0.073 0.125 0.073 0.214 0.189 0.251 0.329l1.767 6.673h-1.118zM21.228 11.052l-0.35 15.639c-0.020 0.886-0.633 1.607-1.366 1.607h-6.981c-0.729 0-1.341-0.716-1.366-1.596l-0.438-15.65zM11.391 10.3l-0.322-1.218h1.118l0.322 1.218zM22.233 29.434c-0.017 0.724-0.517 1.312-1.116 1.312h-10.16c-0.595 0-1.095-0.585-1.116-1.303l-0.584-20.361h1.034l0.322 1.218h-0.272c-0.102 0-0.199 0.041-0.27 0.114s-0.109 0.171-0.106 0.273l0.448 16.037c0.037 1.305 0.967 2.327 2.118 2.327h6.981c1.158 0 2.089-1.029 2.118-2.343l0.358-16.024c0.002-0.101-0.036-0.199-0.107-0.271s-0.168-0.113-0.269-0.113h-8.325l-0.322-1.218h9.735zM21.893 7.828c0.012-0.009 0.024-0.017 0.034-0.028 0.147-0.147 0.147-0.385-0-0.532l-0.677-0.676c-0.147-0.147-0.385-0.147-0.532 0s-0.147 0.385 0 0.532l0.677 0.676c0.011 0.011 0.023 0.019 0.034 0.028h-2.21c0.448-1.641 1.951-2.851 3.731-2.851 2.134 0 3.869 1.736 3.869 3.869 0 1.815-1.258 3.341-2.947 3.756l0.050-2.171 0.671 0.671c0.073 0.073 0.17 0.11 0.266 0.11s0.193-0.037 0.266-0.11c0.147-0.147 0.147-0.385-0-0.532l-0.677-0.677c-0.141-0.141-0.366-0.145-0.513-0.015l0.032-1.409c0.004-0.169-0.060-0.332-0.178-0.453s-0.28-0.189-0.448-0.189h-1.449zM23.856 13.378c2.117-0.422 3.717-2.293 3.717-4.532 0-2.548-2.073-4.622-4.622-4.622-2.198 0-4.041 1.543-4.507 3.603h-0.415c0.472-2.285 2.498-4.009 4.921-4.009 2.772 0 5.028 2.255 5.028 5.028 0 2.467-1.786 4.523-4.133 4.947z"></path>
<path fill="#3c122c" d="M24.377 8.787c0 0.208 0.168 0.376 0.376 0.376h0.957c0.208 0 0.376-0.168 0.376-0.376s-0.168-0.376-0.376-0.376h-0.957c-0.208 0-0.376 0.168-0.376 0.376z"></path>
<path fill="#3c122c" d="M22.967 5.674c-0.208 0-0.376 0.168-0.376 0.376v0.957c0 0.208 0.168 0.376 0.376 0.376s0.376-0.168 0.376-0.376v-0.957c0-0.208-0.168-0.376-0.376-0.376z"></path>
<path fill="#3c122c" d="M24.183 7.91c0.096 0 0.193-0.037 0.266-0.11l0.677-0.676c0.147-0.147 0.147-0.385 0-0.532s-0.385-0.147-0.532 0l-0.677 0.676c-0.147 0.147-0.147 0.385-0 0.532 0.073 0.073 0.17 0.11 0.266 0.11z"></path>
<path fill="#3c122c" d="M19.438 15.066c-0.208 0-0.376-0.168-0.376-0.376v-0.69c0-0.208 0.168-0.376 0.376-0.376s0.376 0.168 0.376 0.376v0.69c0 0.208-0.168 0.376-0.376 0.376z"></path>
<path fill="#3c122c" d="M16.919 17.778c-0.208 0-0.376-0.168-0.376-0.376v-0.69c0-0.208 0.168-0.376 0.376-0.376s0.376 0.168 0.376 0.376v0.69c0 0.208-0.168 0.376-0.376 0.376z"></path>
<path fill="#3c122c" d="M18.645 21.592c-0.208 0-0.376-0.168-0.376-0.376v-0.69c0-0.208 0.168-0.376 0.376-0.376s0.376 0.168 0.376 0.376v0.69c0 0.208-0.168 0.376-0.376 0.376z"></path>
<path fill="#3c122c" d="M13.625 20.477c-0.208 0-0.376-0.168-0.376-0.376v-0.69c0-0.208 0.168-0.376 0.376-0.376s0.376 0.168 0.376 0.376v0.69c0 0.208-0.168 0.376-0.376 0.376z"></path>
<path fill="#3c122c" d="M16.088 23.126c-0.208 0-0.376-0.168-0.376-0.376v-0.69c0-0.208 0.168-0.376 0.376-0.376s0.376 0.168 0.376 0.376v0.69c0 0.208-0.168 0.376-0.376 0.376z"></path>
<path fill="#3c122c" d="M14.182 26.194c-0.208 0-0.376-0.168-0.376-0.376v-0.69c0-0.208 0.168-0.376 0.376-0.376s0.376 0.168 0.376 0.376v0.69c0 0.208-0.168 0.376-0.376 0.376z"></path>
<path fill="#3c122c" d="M18.692 26.403c-0.208 0-0.376-0.168-0.376-0.376v-0.69c0-0.208 0.168-0.376 0.376-0.376s0.376 0.168 0.376 0.376v0.69c0 0.208-0.168 0.376-0.376 0.376z"></path>
<path fill="#fff" d="M12.601 18.154c-0.344 0-0.624-0.277-0.627-0.622l-0.018-2.337c-0.003-0.346 0.276-0.629 0.622-0.632 0.002-0 0.003-0 0.005-0 0.344 0 0.624 0.277 0.627 0.622l0.018 2.337c0.003 0.346-0.276 0.629-0.622 0.632-0.002 0-0.003 0-0.005 0z"></path>
<path fill="#fff" d="M12.53 13.884c-0.341 0-0.621-0.274-0.627-0.617l-0.009-0.569c-0.006-0.346 0.27-0.632 0.616-0.637 0.004-0 0.007-0 0.011-0 0.341 0 0.621 0.274 0.627 0.617l0.009 0.569c0.006 0.346-0.27 0.632-0.616 0.637-0.004 0-0.007 0-0.011 0z"></path>
</svg>
