<!-- Generated by IcoMoon.io -->
<svg version="1.1" xmlns="http://www.w3.org/2000/svg" width="32" height="32" viewBox="0 0 32 32">
<title>smoothie</title>
<path fill="#a1e8c3" d="M22.698 3.947c-0.034-0.596-0.632-1.060-1.218-0.946-1.071 0.208-2.691 0.716-3.704 1.944 0.010-0.123 0.016-0.248 0.015-0.373-0.020-1.528-0.968-2.861-1.664-3.637-0.371-0.414-1.077-0.404-1.437 0.019-0.675 0.794-1.587 2.152-1.567 3.68 0.032 2.421 2.393 4.353 2.393 4.353s0.608-0.526 1.195-1.365c-0.183 1.429 0.082 2.666 0.082 2.666s3.27-0.126 4.865-2.177c1.006-1.295 1.105-3.047 1.040-4.163z"></path>
<path fill="#85adc2" d="M14.696 0.761c-0.697 0.82-1.002 2.003-0.562 1.366 0.234-0.34 0.938-0.23 1.181 0.104 0.456 0.625 1.078 1.699 1.094 2.928 0.026 1.947-1.016 3.657-1.016 3.657s-0.54-0.434-1.094-1.106c0.622 0.832 1.249 1.345 1.249 1.345s2.383-2.059 2.35-4.559c-0.021-1.578-1-2.954-1.719-3.755-0.383-0.427-1.112-0.417-1.484 0.020z"></path>
<path fill="#85adc2" d="M21.614 2.844c-1.134 0.22-2.181 1.008-1.386 0.768 0.424-0.128 0.94 0.436 0.921 0.878-0.036 0.83-0.234 2.146-1.044 3.188-1.282 1.65-3.301 2.386-3.301 2.386s-0.162-0.726-0.177-1.66c-0.035 1.114 0.146 1.965 0.146 1.965s3.377-0.13 5.023-2.248c1.039-1.337 1.141-3.146 1.074-4.299-0.035-0.615-0.653-1.095-1.257-0.977z"></path>
<path fill="#9781dd" d="M16.439 5.991c1.261 0.298 2.042 1.562 1.744 2.823s-1.562 2.042-2.823 1.744c-1.261-0.298-2.042-1.562-1.744-2.823s1.562-2.042 2.823-1.744z"></path>
<path fill="#e8a284" d="M13.799 6.781c0.916 0.916 0.916 2.402 0 3.318s-2.402 0.916-3.318 0c-0.916-0.916-0.916-2.402 0-3.318s2.402-0.916 3.318 0z"></path>
<path fill="#c1e5ef" d="M23.622 16.741c-0.050 0-0.101 0-0.151 0.001-0.131-0.72-0.544-1.364-1.142-1.853 0.003-0.037 0.005-3.639 0.005-3.639 0-0.908-0.889-1.645-1.986-1.645h-10.764c-1.097 0-1.986 0.736-1.986 1.645 0 0 0.002 3.602 0.005 3.639-0.733 0.598-1.187 1.429-1.187 2.349v10.834c0 1.822 1.784 3.299 3.985 3.299h9.132c2.201 0 3.985-1.477 3.985-3.299v-0.629c0.035 0.001 0.070 0.002 0.106 0.002 2.995 0 5.422-2.884 5.422-6.441s-2.427-4.262-5.422-4.262zM23.517 25.473v-6.763c1.862 0.011 3.361 0.471 3.361 2.693s-1.499 4.027-3.361 4.069z"></path>
<path fill="#a6aaed" d="M22.33 14.888c0.003-0.037 0.005-0.074 0.005-0.111v-3.528c0-0.908-0.889-1.645-1.986-1.645h-2.524c0.898 0 1.627 0.63 1.627 1.408v1.138h-8.989c-0.683 0-1.236 0.554-1.236 1.236s0.554 1.236 1.236 1.236h8.988c-0 0.109-0 0.224-0.001 0.338-0.001 0.432 0.135 0.856 0.402 1.194 0.358 0.453 0.567 1.001 0.567 1.591v7.664c0 1.559-1.461 2.824-3.263 2.824h-7.478c-1.802 0-3.263-1.264-3.263-2.824v2.662c0 1.822 1.784 3.299 3.985 3.299h9.132c2.201 0 3.985-1.477 3.985-3.299v-10.834c0-0.919-0.455-1.751-1.187-2.349z"></path>
<path fill="#d789b9" d="M20.619 15.777c0.002-0.022 0.003-2.973 0.003-4.706h-11.313c0.001 1.734 0.002 4.685 0.004 4.706-0.563 0.503-0.911 1.203-0.911 1.976v9.115c0 1.533 1.37 2.776 3.059 2.776h7.011c1.69 0 3.059-1.243 3.059-2.776v-9.115c0-0.773-0.349-1.473-0.911-1.976z"></path>
<path fill="#c668b9" d="M21.531 26.868v-9.115c0-0.773-0.349-1.473-0.912-1.976 0.002-0.022 0.003-2.973 0.003-4.706h-1.172v1.080h-8.989c-0.525 0-0.973 0.328-1.152 0.79 0 0.304 0 0.606 0.001 0.894 0.179 0.461 0.627 0.789 1.152 0.789h8.988c-0 0.109-0 0.224-0.001 0.338-0.001 0.431 0.135 0.856 0.402 1.194 0.358 0.453 0.567 1.001 0.567 1.591v7.664c0 1.559-1.461 2.824-3.263 2.824h-7.478c-0.332 0-0.651-0.043-0.953-0.123 0.503 0.909 1.538 1.533 2.735 1.533h7.011c1.69 0 3.059-1.243 3.059-2.776z"></path>
<path fill="#e8c2d8" d="M4.512 1.548l0.539 1.516c0.023 0.065 0.069 0.116 0.126 0.142l1.347 0.607c0.19 0.086 0.19 0.389 0 0.475l-1.347 0.607c-0.058 0.026-0.103 0.077-0.126 0.142l-0.539 1.516c-0.076 0.214-0.346 0.214-0.422 0l-0.539-1.516c-0.023-0.065-0.069-0.116-0.126-0.142l-1.347-0.607c-0.19-0.086-0.19-0.389 0-0.475l1.347-0.607c0.058-0.026 0.103-0.077 0.126-0.142l0.539-1.516c0.076-0.214 0.346-0.214 0.422-0z"></path>
<path fill="#d789b9" d="M28.719 2.529c0 0.65-0.527 1.177-1.177 1.177s-1.177-0.527-1.177-1.177c0-0.65 0.527-1.177 1.177-1.177s1.177 0.527 1.177 1.177z"></path>
<path fill="#d789b9" d="M30.065 7.153c0 0.275-0.223 0.499-0.499 0.499s-0.499-0.223-0.499-0.499c0-0.275 0.223-0.499 0.499-0.499s0.499 0.223 0.499 0.499z"></path>
<path fill="#e8c2d8" d="M27.743 8.084l0.4 1.125c0.017 0.048 0.051 0.086 0.094 0.106l0.999 0.45c0.141 0.064 0.141 0.288 0 0.352l-0.999 0.45c-0.043 0.019-0.077 0.057-0.094 0.106l-0.4 1.125c-0.056 0.159-0.256 0.159-0.313 0l-0.4-1.125c-0.017-0.048-0.051-0.086-0.094-0.106l-0.999-0.45c-0.141-0.064-0.141-0.288 0-0.352l0.999-0.45c0.043-0.019 0.077-0.057 0.094-0.106l0.4-1.125c0.056-0.159 0.256-0.159 0.313 0z"></path>
<path fill="#3c122c" d="M27.793 17.006c-0.906-0.573-2.131-0.859-3.836-0.891-0.192-0.556-0.528-1.068-0.993-1.506v-3.359c0-0.901-0.605-1.681-1.481-2.049 0.241-0.208 0.468-0.442 0.671-0.704 1.105-1.422 1.247-3.278 1.172-4.586-0.027-0.465-0.262-0.903-0.644-1.2s-0.865-0.417-1.322-0.328c-0.912 0.177-2.065 0.529-3.053 1.226-0.284-1.278-1.051-2.359-1.712-3.096-0.294-0.327-0.722-0.513-1.177-0.513-0.007 0-0.015 0-0.022 0-0.464 0.006-0.896 0.205-1.185 0.545-0.796 0.935-1.739 2.405-1.717 4.096 0.004 0.293 0.037 0.579 0.093 0.856-0.145-0.022-0.294-0.034-0.445-0.034-1.641 0-2.976 1.335-2.976 2.976 0 0.191 0.019 0.377 0.053 0.558-1.27 0.155-2.251 1.105-2.251 2.252 0.001 2.055 0.002 2.955 0.004 3.355-0.767 0.722-1.186 1.646-1.186 2.633v10.834c0 2.166 2.070 3.928 4.614 3.928h9.132c2.544 0 4.614-1.762 4.614-3.928v-0.026c3.092-0.311 5.528-3.351 5.528-7.043 0-1.862-0.633-3.207-1.881-3.997zM21.6 3.618c0.020-0.004 0.040-0.006 0.060-0.006 0.084 0 0.172 0.032 0.249 0.092 0.096 0.075 0.154 0.176 0.16 0.279 0.052 0.894 0.002 2.569-0.909 3.741-0.44 0.566-1.037 0.967-1.65 1.251h-0.723c0.055-0.227 0.085-0.463 0.085-0.706 0-0.33-0.055-0.648-0.155-0.945 0.358-0.562 0.844-1.13 1.505-1.628 0.166-0.126 0.2-0.362 0.074-0.529s-0.362-0.2-0.529-0.074c-0.601 0.454-1.072 0.954-1.443 1.459-0.142-0.201-0.309-0.383-0.496-0.543 0.104-0.204 0.226-0.401 0.369-0.586 0.911-1.172 2.522-1.633 3.401-1.804zM14.744 6.997c0.305-0.277 0.709-0.446 1.153-0.446 0.947 0 1.718 0.771 1.718 1.718 0 0.252-0.055 0.491-0.153 0.706h-2.393c0.032-0.174 0.049-0.353 0.049-0.536 0-0.523-0.136-1.014-0.374-1.442zM15.169 1.361c0.053-0.063 0.144-0.101 0.243-0.102h0.005c0.097 0 0.187 0.036 0.241 0.096 0.554 0.617 1.485 1.855 1.503 3.225 0.001 0.044-0.001 0.088-0.002 0.131-0.168 0.224-0.313 0.458-0.438 0.699-0.262-0.076-0.539-0.117-0.825-0.117-0.242 0-0.478 0.030-0.704 0.085-0.027-0.53 0.016-1.11 0.174-1.725 0.052-0.202-0.070-0.408-0.272-0.459s-0.408 0.070-0.459 0.272c-0.204 0.799-0.242 1.541-0.184 2.204-0.147 0.083-0.287 0.178-0.418 0.283-0.166-0.416-0.275-0.864-0.281-1.328-0.018-1.369 0.88-2.633 1.417-3.264zM12.142 6.722c0.947 0 1.718 0.771 1.718 1.718 0 0.187-0.030 0.367-0.086 0.536h-3.264c-0.056-0.169-0.086-0.349-0.086-0.536-0-0.947 0.77-1.718 1.718-1.718zM22.888 28.072c0 1.472-1.505 2.67-3.356 2.67h-9.132c-1.85 0-3.356-1.198-3.356-2.67v-10.834c0-0.697 0.34-1.358 0.956-1.861 0.152-0.124 0.237-0.312 0.231-0.507-0.002-0.144-0.004-2.237-0.005-3.619 0-0.55 0.621-1.015 1.357-1.015h10.764c0.736 0 1.357 0.465 1.357 1.015v3.528c0 0.016-0.001 0.035-0.003 0.061-0.017 0.206 0.069 0.407 0.229 0.538 0.616 0.503 0.956 1.164 0.956 1.861zM24.146 19.114c1.681 0.135 2.354 0.812 2.354 2.29 0 1.747-1.006 3.213-2.354 3.596zM24.146 26.779v-1.004c1.767-0.384 3.109-2.197 3.109-4.372 0-2.375-1.616-2.938-3.109-3.047v-0.976c3.060 0.103 4.269 1.146 4.269 3.623 0 2.99-1.872 5.459-4.269 5.777z"></path>
<path fill="#3c122c" d="M19.106 13.268h-8.281c-0.209 0-0.378-0.169-0.378-0.378s0.169-0.378 0.378-0.378h8.281c0.209 0 0.378 0.169 0.378 0.378s-0.169 0.378-0.378 0.378z"></path>
<path fill="#3c122c" d="M19.106 14.882h-8.281c-0.209 0-0.378-0.169-0.378-0.378s0.169-0.378 0.378-0.378h8.281c0.209 0 0.378 0.169 0.378 0.378s-0.169 0.378-0.378 0.378z"></path>
<path fill="#fff" d="M10.153 22.911c-0.348 0-0.629-0.282-0.629-0.629v-0.54c0-0.348 0.282-0.629 0.629-0.629s0.629 0.282 0.629 0.629v0.54c0 0.348-0.282 0.629-0.629 0.629z"></path>
<path fill="#fff" d="M10.114 19.976c-0.342 0-0.623-0.274-0.629-0.618-0.009-0.498 0.014-1.146 0.273-1.744 0.742-1.714 2.665-1.593 3.938-1.512l0.037 0.002c0.347 0.022 0.61 0.321 0.588 0.668s-0.321 0.611-0.668 0.588l-0.037-0.002c-1.31-0.083-2.342-0.079-2.704 0.756-0.162 0.374-0.177 0.827-0.169 1.221 0.006 0.348-0.27 0.634-0.618 0.64-0.004 0-0.008 0-0.012 0z"></path>
<path fill="#3c122c" d="M15.848 25.956c-0.209 0-0.378-0.169-0.378-0.378v-0.905c0-0.209 0.169-0.378 0.378-0.378s0.378 0.169 0.378 0.378v0.905c-0 0.209-0.169 0.378-0.378 0.378z"></path>
<path fill="#3c122c" d="M17.879 22.972c-0.209 0-0.378-0.169-0.378-0.378v-0.905c0-0.209 0.169-0.378 0.378-0.378s0.378 0.169 0.378 0.378v0.905c0 0.209-0.169 0.378-0.378 0.378z"></path>
<path fill="#3c122c" d="M19.399 25.429c-0.209 0-0.378-0.169-0.378-0.378v-0.905c0-0.209 0.169-0.378 0.378-0.378s0.378 0.169 0.378 0.378v0.905c-0 0.209-0.169 0.378-0.378 0.378z"></path>
<path fill="#3c122c" d="M21.925 19.853c-0.004-0.788-0.008-1.604-0.008-2.41 0-0.702-0.396-1.185-0.745-1.611-0.054-0.066-0.107-0.13-0.157-0.193 0-1.413-0-2.997-0.014-4.387-0.002-0.207-0.17-0.373-0.377-0.374h-11.355c-0.207 0-0.375 0.167-0.377 0.374-0.014 1.39-0.014 2.974-0.014 4.387-0.050 0.063-0.102 0.127-0.157 0.193-0.349 0.426-0.745 0.909-0.745 1.611 0 0.806-0.004 1.622-0.008 2.41-0.012 2.349-0.024 4.778 0.073 7.199-0.039 1.541 1.459 2.881 2.945 2.883h7.922c1.486-0.002 2.984-1.342 2.945-2.883 0.097-2.421 0.084-4.85 0.073-7.199zM18.879 29.18h-7.865c-1.099 0.004-2.262-1.002-2.219-2.151-0.096-2.406-0.084-4.829-0.072-7.172 0.004-0.789 0.008-1.605 0.008-2.414 0-0.432 0.266-0.756 0.574-1.132 0.084-0.102 0.17-0.207 0.252-0.317 0.049-0.065 0.076-0.145 0.076-0.226 0-1.319 0.011-4.135 0.011-4.135h10.605s0.011 2.816 0.011 4.135c0 0.082 0.026 0.161 0.076 0.226 0.082 0.11 0.169 0.215 0.252 0.317 0.308 0.375 0.574 0.7 0.574 1.132 0 0.808 0.004 1.624 0.008 2.414 0.012 2.343 0.024 4.766-0.072 7.172 0.043 1.149-1.12 2.155-2.219 2.151z"></path>
</svg>
