<!-- Generated by IcoMoon.io -->
<svg version="1.1" xmlns="http://www.w3.org/2000/svg" width="32" height="32" viewBox="0 0 32 32">
<title>soda1</title>
<path fill="#fff" d="M20.554 28.419c0.078 0.006 0.158 0.003 0.238-0.012 0.501-0.090 0.834-0.57 0.743-1.071l-4.727-26.201c-0.090-0.501-0.57-0.834-1.071-0.743s-0.834 0.57-0.743 1.071l4.727 26.201c0.076 0.42 0.426 0.723 0.832 0.755z"></path>
<path fill="#c1e5ef" d="M23.305 8.721h-0.316c0.020-0.084 0.032-0.171 0.032-0.261v-0.714c0-0.611-0.495-1.107-1.107-1.107h-10.296c-0.611 0-1.107 0.495-1.107 1.107v0.714c0 0.090 0.012 0.177 0.032 0.261h-0.316c-0.611 0-1.107 0.495-1.107 1.107v1.365c0 0.601 0.48 1.090 1.078 1.105l0.407 18.181c0.011 0.497 0.394 0.893 0.863 0.893h10.532c0.467 0 0.85-0.394 0.863-0.889l0.488-18.186c0.588-0.026 1.057-0.51 1.057-1.104v-1.365c0-0.611-0.495-1.107-1.107-1.107z"></path>
<path fill="#a6aaed" d="M20.42 12.26l-0.371 15.438c-0.010 0.431-0.308 0.774-0.672 0.774h-8.2c-0.285 0-0.529-0.211-0.627-0.51l0.056 2.517c0.011 0.497 0.394 0.893 0.863 0.893h10.532c0.467 0 0.85-0.394 0.863-0.889l0.489-18.223h-2.935z"></path>
<path fill="#faf1a9" d="M20.621 29.698h-7.744c-0.345 0-0.627-0.254-0.635-0.571l-0.338-13.139c-0.008-0.328 0.278-0.599 0.635-0.599h8.488c0.358 0 0.645 0.272 0.635 0.602l-0.406 13.139c-0.010 0.317-0.291 0.568-0.635 0.568z"></path>
<path fill="#dfb5a7" d="M21.027 15.389h-0.681l-0.296 12.309c-0.010 0.431-0.308 0.774-0.672 0.774h-7.152l0.017 0.656c0.008 0.318 0.29 0.571 0.635 0.571h7.744c0.344 0 0.625-0.252 0.635-0.568l0.406-13.139c0.010-0.329-0.277-0.602-0.635-0.602z"></path>
<path fill="#faf1a9" d="M3.332 4.658l0.517 1.455c0.022 0.062 0.066 0.112 0.121 0.137l1.292 0.582c0.183 0.082 0.183 0.373 0 0.455l-1.292 0.582c-0.055 0.025-0.099 0.074-0.121 0.137l-0.517 1.454c-0.073 0.206-0.332 0.206-0.405 0l-0.517-1.454c-0.022-0.062-0.066-0.112-0.121-0.137l-1.292-0.582c-0.183-0.082-0.183-0.373 0-0.455l1.292-0.582c0.055-0.025 0.099-0.074 0.121-0.137l0.517-1.454c0.073-0.205 0.332-0.205 0.405 0z"></path>
<path fill="#f6e06e" d="M26.311 2.335c0.607 0.144 0.982 0.753 0.838 1.36s-0.753 0.982-1.36 0.838c-0.607-0.144-0.982-0.753-0.838-1.36s0.753-0.982 1.36-0.838z"></path>
<path fill="#f6e06e" d="M9.559 2.371c0.103 0.249-0.016 0.534-0.265 0.636s-0.534-0.016-0.636-0.265c-0.103-0.249 0.016-0.534 0.265-0.636s0.534 0.016 0.636 0.265z"></path>
<path fill="#faf1a9" d="M29.607 11.925l0.384 1.079c0.016 0.046 0.049 0.083 0.090 0.101l0.959 0.432c0.135 0.061 0.135 0.277 0 0.338l-0.959 0.432c-0.041 0.018-0.074 0.055-0.090 0.101l-0.384 1.079c-0.054 0.152-0.246 0.152-0.3 0l-0.384-1.079c-0.016-0.046-0.049-0.083-0.090-0.101l-0.959-0.432c-0.135-0.061-0.135-0.277 0-0.338l0.959-0.432c0.041-0.018 0.074-0.055 0.090-0.101l0.384-1.079c0.054-0.152 0.246-0.152 0.3 0z"></path>
<path fill="#3c122c" d="M20.621 30.075h-7.744c-0.554 0-0.998-0.412-1.011-0.938l-0.338-13.139c-0.007-0.252 0.089-0.493 0.269-0.677 0.191-0.196 0.461-0.308 0.742-0.308h8.488c0.282 0 0.553 0.113 0.744 0.31 0.18 0.186 0.275 0.427 0.267 0.68l-0.406 13.139c-0.016 0.523-0.46 0.933-1.011 0.933zM12.539 15.765c-0.079 0-0.153 0.029-0.203 0.081-0.026 0.027-0.057 0.072-0.055 0.132l0.338 13.139c0.003 0.113 0.119 0.204 0.258 0.204h7.744c0.139 0 0.255-0.091 0.258-0.203l0.406-13.139c0.002-0.061-0.029-0.105-0.055-0.132-0.050-0.051-0.124-0.081-0.203-0.081h-8.488z"></path>
<path fill="#3c122c" d="M23.649 8.128v-0.382c0-0.956-0.778-1.734-1.734-1.734h-3.844l-0.892-4.943c-0.061-0.341-0.252-0.638-0.537-0.836s-0.63-0.273-0.971-0.211c-0.341 0.062-0.638 0.252-0.836 0.537s-0.273 0.63-0.211 0.971l0.809 4.482h-3.813c-0.956 0-1.734 0.778-1.734 1.734v0.382c-0.792 0.16-1.39 0.861-1.39 1.7v1.365c0 0.728 0.451 1.353 1.089 1.609l0.396 17.691c0.019 0.845 0.674 1.507 1.491 1.507h10.532c0.813 0 1.468-0.659 1.491-1.5l0.475-17.705c0.628-0.261 1.071-0.881 1.071-1.602v-1.365c-0-0.838-0.598-1.54-1.39-1.7zM15.365 1.396c-0.026-0.143 0.006-0.288 0.089-0.408s0.208-0.2 0.351-0.226c0.143-0.026 0.288 0.006 0.408 0.089s0.2 0.208 0.226 0.351l0.868 4.809h-1.108zM11.619 7.267h10.296c0.264 0 0.479 0.215 0.479 0.479v0.348h-11.253v-0.348c0-0.264 0.215-0.479 0.479-0.479zM9.751 9.827c0-0.264 0.215-0.479 0.479-0.479h13.076c0.264 0 0.479 0.215 0.479 0.479v1.365c0 0.264-0.215 0.479-0.479 0.479h-13.076c-0.264 0-0.479-0.215-0.479-0.479zM22.003 30.744h-10.532c-0.127 0-0.232-0.125-0.236-0.28l-0.392-17.538h11.866l-0.471 17.539c-0.004 0.153-0.11 0.278-0.236 0.278z"></path>
<path fill="#3c122c" d="M17.863 20.788c-0.713 0-1.294-0.581-1.294-1.294s0.581-1.294 1.294-1.294 1.294 0.581 1.294 1.294-0.581 1.294-1.294 1.294zM17.863 18.954c-0.298 0-0.541 0.242-0.541 0.541s0.243 0.541 0.541 0.541 0.541-0.242 0.541-0.541c0-0.298-0.242-0.541-0.541-0.541z"></path>
<path fill="#3c122c" d="M15.723 24.665c-0.713 0-1.294-0.581-1.294-1.294s0.581-1.294 1.294-1.294 1.294 0.58 1.294 1.294-0.581 1.294-1.294 1.294zM15.723 22.83c-0.298 0-0.541 0.242-0.541 0.541s0.242 0.541 0.541 0.541 0.541-0.242 0.541-0.541c-0-0.298-0.243-0.541-0.541-0.541z"></path>
<path fill="#3c122c" d="M19.439 25.132c-0.208 0-0.377-0.169-0.377-0.377v-0.773c0-0.208 0.169-0.377 0.377-0.377s0.377 0.169 0.377 0.377v0.773c0 0.208-0.169 0.377-0.377 0.377z"></path>
<path fill="#3c122c" d="M18.306 27.159c-0.208 0-0.377-0.169-0.377-0.377v-0.773c0-0.208 0.169-0.377 0.377-0.377s0.377 0.169 0.377 0.377v0.773c0 0.208-0.169 0.377-0.377 0.377z"></path>
<path fill="#fff" d="M13.646 22.015c-0.337 0-0.615-0.267-0.627-0.606l-0.065-1.864c-0.012-0.346 0.259-0.637 0.605-0.649s0.637 0.259 0.649 0.605l0.065 1.864c0.012 0.346-0.259 0.637-0.605 0.649-0.007 0-0.015 0-0.022 0z"></path>
<path fill="#fff" d="M13.528 18.456c-0.337 0-0.616-0.267-0.627-0.607l-0.018-0.553c-0.012-0.346 0.26-0.637 0.607-0.648 0.347-0.014 0.637 0.26 0.648 0.607l0.018 0.553c0.012 0.346-0.26 0.637-0.607 0.648-0.007 0-0.014 0-0.021 0z"></path>
</svg>
