<!-- Generated by IcoMoon.io -->
<svg version="1.1" xmlns="http://www.w3.org/2000/svg" width="32" height="32" viewBox="0 0 32 32">
<title>tea</title>
<path fill="#fff" d="M30.461 14.309c-0.908-1.086-2.329-1.552-3.844-1.411 0.071-0.571 0.109-1.154 0.109-1.747 0-7.007-23.041-7.007-23.041 0 0 3.345 1.176 6.387 3.096 8.653 0.379 0.447 0.491 1.080 0.625 1.65-2.848 0.729-4.672 1.847-4.672 3.102 0 2.196 2.975 6.228 12.472 6.228s12.472-4.033 12.472-6.228c0-0.545-0.344-1.064-0.967-1.537 0.76-0.275 1.507-0.698 2.191-1.269 2.529-2.114 3.228-5.446 1.559-7.442zM27.281 19.948c-1.322 1.105-3.040 1.263-4.007 0.423 0.094-0.203 0.21-0.394 0.356-0.567 1.133-1.337 2.006-2.944 2.532-4.723 0.822-0.078 1.584 0.167 2.066 0.743 0.906 1.083 0.481 2.93-0.947 4.124z"></path>
<path fill="#e1bdfc" d="M24.48 25.371c0 1.802-4.223 3.263-9.432 3.263s-9.432-1.461-9.432-3.263c0-1.802 4.223-3.263 9.432-3.263s9.432 1.461 9.432 3.263z"></path>
<path fill="#f4dab5" d="M24.215 13.658c0-4.939-18.018-4.939-18.018 0 0 2.357 1.174 4.192 2.676 5.79 0.369 0.392 0.343 1.186 0.501 1.646l0.005 0.021c0.437 1.715 1.807 3.026 3.59 3.026h4.473c1.791 0 3.289-1.221 3.718-2.946v-0.019c0.077-0.529 0.241-1.349 0.609-1.741 1.502-1.598 2.445-3.419 2.445-5.776z"></path>
<path fill="#dba2b3" d="M19.274 23.67c1.387-0.63 2.017-2.269 2.332-3.909 0.189-1.072 1.576-1.45 1.891-2.522 0.631-1.779 1.314-4.080-0.28-5.382-0.282 2.259-1.198 4.295-2.544 5.884-0.402 0.474-0.538 1.108-0.623 1.747-0.467 2.085-2.166 3.55-4.117 3.55h-1.458c-0.073 0.374-0.202 0.728-0.374 1.061 1.796 0.192 3.602 0.354 5.172-0.431z"></path>
<path fill="#e1bdfc" d="M14.318 5.91c4.618 0.157 8.993 1.644 8.993 4.462 0 0.504-0.032 1-0.093 1.486 1.594 1.302 0.911 3.603 0.28 5.382-0.315 1.072-1.702 1.45-1.891 2.522-0.315 1.639-0.946 3.278-2.332 3.909-1.57 0.785-3.376 0.623-5.172 0.431-0.388 0.752-0.997 1.397-1.685 1.923h5.649c2.29 0 4.284-1.72 4.833-4.168 0.099-0.751 0.26-1.495 0.731-2.052 1.921-2.267 3.096-5.309 3.096-8.653-0-3.684-6.368-5.431-12.409-5.241z"></path>
<path fill="#a1e8c3" d="M8.809 25.697c-0.556 0.874-3.048 1.067-5.458-0.695s-2.721-5.436-2.721-5.436 3.596-0.817 6.006 0.945c2.41 1.762 2.73 4.313 2.173 5.187z"></path>
<path fill="#85adc2" d="M6.636 20.51c-2.383-1.742-5.925-0.963-6.004-0.945 0.077-0.017 2.53-0.55 4.183 0.659 1.679 1.228 1.902 3.005 1.514 3.615s-2.124 0.743-3.803-0.485c-1.679-1.228-1.896-3.788-1.896-3.788s0.311 3.674 2.721 5.436 4.901 1.57 5.458 0.695 0.236-3.425-2.174-5.187z"></path>
<path fill="#a1e8c3" d="M7.255 26.216c-0.703-0.761-0.253-3.219 2.067-5.099s5.951-1.242 5.951-1.242-0.128 3.685-2.448 5.565-4.867 1.537-5.57 0.776z"></path>
<path fill="#85adc2" d="M9.761 20.8c1.727-1.072 4.078-0.66 4.078-0.66s-0.096 2.762-1.834 4.171c-1.738 1.409-3.648 1.152-4.175 0.582-0.524-0.568-0.192-2.394 1.523-3.8-0.010 0.008-0.021 0.016-0.031 0.025-2.319 1.88-2.77 4.338-2.067 5.099s3.251 1.104 5.57-0.776c2.319-1.88 2.448-5.565 2.448-5.565s-3.201-0.562-5.512 0.925z"></path>
<path fill="#faf1a9" d="M4.139 0.74l0.518 1.456c0.022 0.062 0.066 0.112 0.121 0.137l1.294 0.583c0.183 0.082 0.183 0.374 0 0.456l-1.294 0.583c-0.055 0.025-0.099 0.074-0.121 0.137l-0.518 1.456c-0.073 0.206-0.332 0.206-0.405 0l-0.518-1.456c-0.022-0.062-0.066-0.112-0.121-0.137l-1.294-0.583c-0.183-0.082-0.183-0.374 0-0.456l1.294-0.583c0.055-0.025 0.099-0.074 0.121-0.137l0.518-1.456c0.073-0.206 0.332-0.206 0.405 0z"></path>
<path fill="#f6e06e" d="M21.777 1.313c0.531 0.329 0.696 1.026 0.367 1.557s-1.026 0.696-1.557 0.368c-0.531-0.329-0.696-1.026-0.367-1.557s1.026-0.696 1.557-0.367z"></path>
<path fill="#f6e06e" d="M9.702 1.172c0 0.269-0.218 0.488-0.488 0.488s-0.488-0.218-0.488-0.488c0-0.269 0.218-0.488 0.488-0.488s0.488 0.218 0.488 0.488z"></path>
<path fill="#faf1a9" d="M29.616 5.193l0.384 1.080c0.016 0.046 0.049 0.083 0.090 0.101l0.96 0.432c0.136 0.061 0.136 0.277 0 0.338l-0.96 0.432c-0.041 0.019-0.074 0.055-0.090 0.101l-0.384 1.080c-0.054 0.153-0.246 0.153-0.3 0l-0.384-1.080c-0.016-0.046-0.049-0.083-0.090-0.101l-0.96-0.432c-0.136-0.061-0.136-0.277 0-0.338l0.96-0.432c0.041-0.019 0.074-0.055 0.090-0.101l0.384-1.080c0.054-0.153 0.246-0.153 0.3 0z"></path>
<path fill="#3c122c" d="M30.945 13.904c-0.866-1.036-2.146-1.617-3.629-1.659 0.027-0.363 0.041-0.728 0.041-1.095 0-1.326-0.693-3.187-3.994-4.526-2.163-0.877-5.060-1.36-8.157-1.36s-5.994 0.483-8.157 1.36c-3.301 1.338-3.994 3.2-3.994 4.526 0 2.941 0.877 5.763 2.488 8.075-2.359-0.867-4.922-0.305-5.053-0.275-0.307 0.070-0.515 0.355-0.488 0.668 0.012 0.142 0.284 3.091 2.106 5.104 0.075 1.516 1.166 3.11 2.952 4.297 2.36 1.567 5.868 2.396 10.146 2.396s7.786-0.829 10.146-2.396c1.851-1.23 2.956-2.898 2.956-4.463 0-0.47-0.165-0.916-0.488-1.335 0.52-0.268 1.019-0.598 1.485-0.987 1.332-1.113 2.243-2.576 2.567-4.12 0.335-1.598 0.005-3.094-0.928-4.21zM26.707 15.458c0.511 0.051 0.94 0.261 1.232 0.609 0.36 0.431 0.475 1.032 0.323 1.693-0.161 0.699-0.595 1.373-1.223 1.898s-1.369 0.833-2.085 0.867c-0.355 0.017-0.68-0.036-0.962-0.152 0.037-0.056 0.076-0.11 0.119-0.161 1.173-1.384 2.051-3.004 2.596-4.754zM7.522 7.794c2.016-0.817 4.745-1.268 7.683-1.268s5.667 0.45 7.683 1.268c1.463 0.593 3.207 1.657 3.207 3.357 0 3.075-1.046 6.003-2.947 8.246-0.579 0.684-0.767 1.568-0.871 2.348-0.493 2.15-2.222 3.649-4.212 3.649h-4.622c0.276-0.271 0.518-0.566 0.73-0.874h3.269c1.932 0 3.612-1.33 4.085-3.233 0.007-0.027 0.010-0.054 0.011-0.082 0.15-1.004 0.381-1.377 0.507-1.511 1.738-1.849 2.548-3.766 2.548-6.036 0-0.447-0.127-0.983-0.549-1.521 0.541-0.39 0.852-0.841 0.852-1.351 0-2.041-4.993-3.142-9.69-3.142s-9.69 1.101-9.69 3.142c0 0.51 0.311 0.961 0.852 1.351-0.422 0.538-0.549 1.074-0.549 1.521 0 2.772 1.586 4.78 2.779 6.049 0.164 0.175 0.227 0.555 0.283 0.891 0.020 0.119 0.039 0.233 0.062 0.343-0.176 0.149-0.34 0.301-0.494 0.455-0.167-0.217-0.353-0.429-0.558-0.636-0.118-0.467-0.283-0.955-0.628-1.362-1.9-2.242-2.947-5.171-2.947-8.246-0-1.7 1.744-2.764 3.207-3.357zM26.582 23.729c0.306 0.284 0.465 0.565 0.465 0.827s-0.056 0.565-0.18 0.892c-0.54 0.567-1.564 1.114-2.958 1.558-2.32 0.739-5.411 1.147-8.704 1.147s-6.384-0.407-8.704-1.147c-0.111-0.035-0.218-0.071-0.324-0.108 0.319 0.052 0.622 0.076 0.901 0.076 0.215 0 0.416-0.014 0.601-0.040 0.419 0.173 0.939 0.269 1.502 0.269 0.090 0 0.181-0.002 0.272-0.007 0.583-0.031 1.368-0.17 2.233-0.585 0.216 0.028 0.436 0.043 0.658 0.043h5.72c1.995 0 3.78-1.136 4.778-2.909 0.547 0.187 1.143 0.286 1.775 0.286 0.058 0 0.117-0.001 0.176-0.002 0.597-0.017 1.198-0.119 1.786-0.299zM9.56 21.411c1.293-1.048 3.057-1.259 4.267-1.259 0.433 0 0.796 0.027 1.040 0.052-0.098 0.929-0.524 3.519-2.28 4.942-1.228 0.995-2.404 1.253-3.173 1.295-0.636 0.034-1.159-0.076-1.508-0.234l4.341-3.49c0.163-0.131 0.189-0.369 0.058-0.532s-0.369-0.189-0.532-0.058l-4.391 3.53c-0.046-0.168-0.062-0.377-0.046-0.607 0.068-0.944 0.688-2.395 2.224-3.64zM23.505 11.59c-0.458-0.379-1.096-0.744-1.976-1.065-1.674-0.612-3.92-0.949-6.324-0.949s-4.649 0.337-6.324 0.949c-0.88 0.321-1.517 0.687-1.976 1.065-0.416-0.274-0.635-0.552-0.635-0.804 0-0.996 3.399-2.386 8.934-2.386s8.934 1.39 8.934 2.386c0 0.252-0.219 0.53-0.635 0.804zM22.769 11.98c-1.483 0.65-4.106 1.191-7.563 1.191s-6.080-0.542-7.563-1.191c0.456-0.317 0.998-0.562 1.499-0.745 1.593-0.582 3.747-0.903 6.064-0.903s4.47 0.321 6.064 0.903c0.501 0.183 1.043 0.428 1.499 0.745zM7.024 12.528c1.835 0.918 5.073 1.401 8.182 1.401s6.347-0.483 8.182-1.401c0.275 0.323 0.449 0.698 0.449 1.13 0 2.065-0.744 3.818-2.342 5.517-0.338 0.359-0.569 0.996-0.708 1.946-0.001 0.007-0.002 0.014-0.002 0.021-0.402 1.545-1.771 2.622-3.341 2.622h-2.817c0.94-1.817 1.021-3.762 1.025-3.875 0.007-0.189-0.127-0.353-0.313-0.386-0.144-0.025-3.322-0.559-5.717 0.938-0.072-0.434-0.159-0.918-0.473-1.252-1.78-1.893-2.574-3.599-2.574-5.531-0-0.432 0.173-0.807 0.449-1.131zM6.264 21.019c0.605 0.442 1.039 0.916 1.35 1.365-0.28 0.399-0.498 0.796-0.659 1.175l-2.714-1.851c-0.173-0.118-0.408-0.073-0.526 0.099s-0.073 0.408 0.099 0.526l2.886 1.968c-0.064 0.249-0.103 0.483-0.118 0.695-0.018 0.25-0.006 0.484 0.034 0.696-0.823-0.090-1.846-0.435-2.892-1.2-1.606-1.175-2.188-3.368-2.38-4.407 1.047-0.134 3.307-0.246 4.92 0.933zM24.654 27.969c-1.501 0.997-4.358 2.185-9.448 2.185s-7.947-1.188-9.448-2.185c-0.415-0.276-0.767-0.562-1.063-0.849 0.461 0.217 0.987 0.42 1.578 0.609 2.392 0.762 5.564 1.182 8.934 1.182s6.542-0.42 8.934-1.182c0.59-0.188 1.116-0.392 1.576-0.608-0.296 0.288-0.647 0.573-1.062 0.849zM30.638 17.856c-0.266 1.267-1.026 2.479-2.141 3.411s-2.442 1.465-3.737 1.502c-0.505 0.014-0.978-0.050-1.409-0.184 0.062-0.192 0.117-0.389 0.162-0.59 0.004-0.018 0.007-0.037 0.010-0.056 0.039-0.295 0.088-0.592 0.166-0.87 0.34 0.142 0.722 0.216 1.133 0.216 0.055 0 0.11-0.001 0.166-0.004 0.88-0.042 1.78-0.412 2.534-1.042s1.278-1.45 1.475-2.309c0.206-0.897 0.036-1.731-0.48-2.348-0.395-0.473-0.952-0.768-1.605-0.861 0.101-0.401 0.186-0.807 0.253-1.218 1.167 0.006 2.161 0.432 2.811 1.21 0.68 0.814 0.915 1.93 0.661 3.143z"></path>
<path fill="#3c122c" d="M10.375 15.246c0.882 0.178 1.808 0.3 2.83 0.373 0.009 0.001 0.018 0.001 0.027 0.001 0.197 0 0.363-0.152 0.377-0.351 0.015-0.208-0.142-0.389-0.35-0.404-0.99-0.071-1.884-0.189-2.734-0.36-0.205-0.041-0.404 0.091-0.446 0.296s0.091 0.404 0.296 0.446z"></path>
<path fill="#3c122c" d="M16.451 15.662c0.001 0 0.003 0 0.004-0 2.075-0.021 4.171-0.425 6.061-1.168 0.195-0.076 0.29-0.296 0.214-0.49s-0.296-0.29-0.49-0.214c-1.805 0.709-3.808 1.095-5.792 1.115-0.209 0.002-0.377 0.173-0.374 0.382 0.002 0.208 0.171 0.374 0.378 0.374z"></path>
<path fill="#fff" d="M12.963 12.13c-0.311 0-0.581-0.23-0.624-0.546-0.047-0.345 0.195-0.663 0.54-0.709 1.123-0.152 2.215-0.153 3.248-0.004 0.345 0.050 0.583 0.37 0.534 0.714s-0.37 0.583-0.714 0.534c-0.916-0.133-1.892-0.131-2.898 0.005-0.029 0.004-0.057 0.006-0.085 0.006z"></path>
<path fill="#fff" d="M11.087 12.522c-0.276 0-0.529-0.182-0.607-0.46-0.094-0.335 0.102-0.683 0.437-0.777 0.098-0.027 0.196-0.054 0.294-0.079 0.336-0.087 0.681 0.115 0.768 0.452s-0.115 0.681-0.452 0.768c-0.090 0.023-0.18 0.048-0.27 0.073-0.057 0.016-0.114 0.024-0.17 0.024z"></path>
</svg>
