<!-- Generated by IcoMoon.io -->
<svg version="1.1" xmlns="http://www.w3.org/2000/svg" width="32" height="32" viewBox="0 0 32 32">
<title>astronaut</title>
<path fill="#96b4eb" d="M29.684 17.977h-0.454c-0.932 0-1.687-0.755-1.687-1.687v-3.115c0-0.932 0.755-1.687 1.687-1.687h0.454c0.932 0 1.687 0.755 1.687 1.687v3.115c0 0.932-0.756 1.687-1.687 1.687z"></path>
<path fill="#96b4eb" d="M2.771 17.977h-0.454c-0.932 0-1.687-0.755-1.687-1.687v-3.115c0-0.932 0.755-1.687 1.687-1.687h0.454c0.932 0 1.687 0.755 1.687 1.687v3.115c0 0.932-0.756 1.687-1.687 1.687z"></path>
<path fill="#fff" d="M18.042 3.25h-4.083c-6.141 0-11.119 4.978-11.119 11.119v0.725c0 4.472 2.64 8.326 6.446 10.091-0.688 1.162-1.083 2.517-1.083 3.965v2.108h15.594v-2.108c0-1.448-0.395-2.803-1.083-3.965 3.806-1.765 6.446-5.62 6.446-10.091v-0.725c0-6.141-4.978-11.119-11.118-11.119z"></path>
<path fill="#e1bdfc" d="M18.042 3.122h-1.968c5.346 0 9.679 4.333 9.679 9.679v0.631c0 5.346-4.333 9.679-9.679 9.679h-3.554c-5.214 0-9.465-4.123-9.67-9.287-0.005 0.138-0.009 0.277-0.009 0.416v0.725c0 6.141 4.978 11.119 11.119 11.119h4.083c0.184 0 0.367-0.005 0.549-0.014 0.331 0.646 0.52 1.389 0.52 2.18v0.451c0 0.702-0.569 1.272-1.272 1.272h-7.043v1.285h10.409v-1.992c0-1.277-0.461-2.446-1.224-3.352 5.216-0.917 9.18-5.471 9.18-10.95v-0.725c0-6.141-4.978-11.119-11.119-11.119z"></path>
<path fill="#c1e5ef" d="M17.338 22.254h-2.675c-4.023 0-7.285-3.262-7.285-7.285v-0.475c0-4.023 3.261-7.285 7.285-7.285h2.675c4.023 0 7.285 3.262 7.285 7.285v0.475c-0 4.023-3.261 7.285-7.285 7.285z"></path>
<path fill="#a6aaed" d="M17.338 7.209h-1.461c3.433 0 6.216 2.783 6.216 6.216v0.406c0 3.433-2.783 6.216-6.216 6.216h-2.283c-3.325 0-6.040-2.611-6.208-5.894-0.005 0.113-0.008 0.227-0.008 0.341v0.475c0 4.023 3.261 7.285 7.285 7.285h2.675c4.023 0 7.285-3.262 7.285-7.285v-0.475c-0-4.023-3.262-7.285-7.285-7.285z"></path>
<path fill="#96b4eb" d="M22.639 27.072h-13.662c-0.635 0-1.151-0.515-1.151-1.151s0.515-1.151 1.151-1.151h13.662c0.635 0 1.151 0.515 1.151 1.151s-0.515 1.151-1.151 1.151z"></path>
<path fill="#c1e5ef" d="M17.064 30.579h-2.127c-0.392 0-0.709-0.317-0.709-0.709v-0.709c0-0.392 0.317-0.709 0.709-0.709h2.127c0.392 0 0.709 0.317 0.709 0.709v0.709c0 0.392-0.317 0.709-0.709 0.709z"></path>
<path fill="#c1e5ef" d="M2.645 0.284l0.517 1.453c0.022 0.062 0.066 0.111 0.121 0.136l1.291 0.581c0.182 0.082 0.182 0.373 0 0.455l-1.291 0.582c-0.055 0.025-0.099 0.074-0.121 0.136l-0.517 1.453c-0.073 0.205-0.331 0.205-0.404 0l-0.517-1.453c-0.022-0.062-0.066-0.111-0.121-0.136l-1.291-0.582c-0.182-0.082-0.182-0.373 0-0.455l1.291-0.582c0.055-0.025 0.099-0.074 0.121-0.136l0.517-1.453c0.073-0.205 0.331-0.205 0.404 0z"></path>
<path fill="#c1e5ef" d="M28.485 0.122l0.383 1.078c0.016 0.046 0.049 0.083 0.090 0.101l0.957 0.431c0.135 0.061 0.135 0.276 0 0.337l-0.957 0.431c-0.041 0.018-0.073 0.055-0.090 0.101l-0.383 1.078c-0.054 0.152-0.246 0.152-0.3 0l-0.383-1.078c-0.016-0.046-0.049-0.083-0.090-0.101l-0.957-0.431c-0.135-0.061-0.135-0.276 0-0.337l0.957-0.431c0.041-0.018 0.073-0.055 0.090-0.101l0.383-1.078c0.054-0.152 0.246-0.152 0.3 0z"></path>
<path fill="#96b4eb" d="M4.185 25.609c0.239 0.576-0.035 1.236-0.61 1.474s-1.236-0.035-1.474-0.61c-0.239-0.576 0.035-1.236 0.61-1.474s1.236 0.035 1.474 0.61z"></path>
<path fill="#96b4eb" d="M30.478 5.373c0 0.269-0.218 0.487-0.487 0.487s-0.487-0.218-0.487-0.487c0-0.269 0.218-0.487 0.487-0.487s0.487 0.218 0.487 0.487z"></path>
<path fill="#3c122c" d="M17.338 22.883h-2.675c-4.364 0-7.914-3.55-7.914-7.914v-0.475c0-4.364 3.55-7.914 7.914-7.914h2.675c4.364 0 7.914 3.55 7.914 7.914v0.475c0 4.364-3.55 7.914-7.914 7.914zM14.662 7.838c-3.67 0-6.656 2.986-6.656 6.656v0.475c0 3.67 2.986 6.656 6.656 6.656h2.675c3.67 0 6.656-2.986 6.656-6.656v-0.475c0-3.67-2.986-6.656-6.656-6.656z"></path>
<path fill="#3c122c" d="M17.029 20.206c-0.001 0-0.001 0-0.002 0-0.208-0-0.377-0.169-0.377-0.378s0.169-0.377 0.377-0.377h0.002c0.58 0 1.17-0.114 1.707-0.328 0.194-0.077 0.413 0.017 0.491 0.21s-0.017 0.413-0.21 0.491c-0.626 0.25-1.313 0.382-1.988 0.382z"></path>
<path fill="#3c122c" d="M20.361 18.919c-0.102 0-0.204-0.041-0.278-0.122-0.141-0.154-0.131-0.392 0.023-0.533 0.224-0.206 0.43-0.437 0.612-0.687 0.645-0.887 0.966-1.959 0.903-3.020-0.012-0.208 0.146-0.387 0.354-0.399 0.206-0.012 0.387 0.146 0.399 0.354 0.074 1.235-0.298 2.481-1.046 3.509-0.211 0.29-0.451 0.559-0.712 0.799-0.073 0.067-0.164 0.099-0.255 0.099z"></path>
<path fill="#3c122c" d="M29.684 10.858h-0.431c-1.496-4.768-5.956-8.236-11.211-8.236h-4.083c-5.255 0-9.715 3.468-11.211 8.236h-0.431c-1.277 0-2.316 1.039-2.316 2.316v3.115c0 1.277 1.039 2.316 2.316 2.316h0.431c0.845 2.691 2.634 4.968 4.978 6.441-0.174 0.248-0.276 0.549-0.276 0.875 0 0.403 0.157 0.77 0.414 1.044-0.188 0.697-0.289 1.43-0.289 2.186v2.108c0 0.347 0.282 0.629 0.629 0.629s0.629-0.282 0.629-0.629v-2.108c0-0.586 0.072-1.156 0.205-1.702h1.678c-0.192 0.564-0.298 1.167-0.298 1.795v2.253c0 0.208 0.169 0.377 0.377 0.377s0.377-0.169 0.377-0.377v-2.253c0-0.634 0.125-1.24 0.349-1.795h4.101v0.626h-0.686c-0.599 0-1.086 0.487-1.086 1.086v0.709c0 0.599 0.487 1.086 1.086 1.086h0.686v0.658c0 0.208 0.169 0.377 0.377 0.377s0.377-0.169 0.377-0.377v-0.658h0.686c0.599 0 1.086-0.487 1.086-1.086v-0.709c0-0.599-0.487-1.086-1.086-1.086h-0.686v-0.626h4.101c0.224 0.555 0.349 1.16 0.349 1.795v2.253c0 0.208 0.169 0.377 0.377 0.377s0.377-0.169 0.377-0.377v-2.253c0-0.628-0.105-1.231-0.298-1.795h1.355c0.108 0 0.213-0.011 0.315-0.033 0.139 0.556 0.214 1.137 0.214 1.735v2.108c0 0.347 0.282 0.629 0.629 0.629s0.629-0.282 0.629-0.629v-2.108c0-0.899-0.142-1.766-0.405-2.579 0.093-0.198 0.146-0.418 0.146-0.651 0-0.254-0.063-0.493-0.173-0.704 2.481-1.465 4.38-3.814 5.258-6.611h0.431c1.277 0 2.316-1.039 2.316-2.316v-3.115c-0-1.277-1.039-2.316-2.317-2.316zM17.395 29.161v0.709c0 0.183-0.149 0.332-0.332 0.332h-2.127c-0.183 0-0.332-0.149-0.332-0.332v-0.709c0-0.183 0.149-0.332 0.332-0.332h2.127c0.183 0 0.332 0.149 0.332 0.332zM2.316 17.348c-0.584 0-1.058-0.475-1.058-1.058v-3.115c0-0.584 0.475-1.059 1.058-1.059h0.112c-0.142 0.73-0.218 1.483-0.218 2.253v0.725c0 0.771 0.076 1.524 0.218 2.253zM8.977 26.694c-0.426 0-0.773-0.347-0.773-0.773s0.347-0.773 0.773-0.773h13.662c0.426 0 0.773 0.347 0.773 0.773s-0.347 0.773-0.773 0.773zM28.531 15.094c0 4.048-2.305 7.567-5.672 9.315-0.072-0.010-0.145-0.016-0.22-0.016h-13.529c-3.35-1.754-5.641-5.263-5.641-9.299v-0.725c0-5.784 4.706-10.49 10.49-10.49h4.083c5.784 0 10.49 4.706 10.49 10.49zM30.742 16.289c0 0.584-0.475 1.058-1.058 1.058h-0.113c0.142-0.73 0.218-1.483 0.218-2.253v-0.725c0-0.771-0.075-1.524-0.218-2.253h0.112c0.584 0 1.058 0.475 1.058 1.059v3.115z"></path>
<path fill="#fff" d="M12.705 10.721c-0.231 0-0.453-0.127-0.563-0.347-0.155-0.311-0.030-0.688 0.281-0.844 0.153-0.077 0.312-0.146 0.472-0.206 0.325-0.121 0.688 0.044 0.809 0.37s-0.044 0.688-0.37 0.809c-0.118 0.044-0.235 0.095-0.348 0.152-0.090 0.045-0.187 0.067-0.281 0.067z"></path>
<path fill="#fff" d="M10.026 15.196c-0.006 0-0.011-0-0.017-0-0.347-0.009-0.621-0.298-0.612-0.646 0.033-1.244 0.458-2.475 1.196-3.466 0.207-0.279 0.601-0.336 0.88-0.129s0.336 0.601 0.129 0.88c-0.584 0.784-0.921 1.76-0.947 2.748-0.009 0.342-0.289 0.612-0.628 0.612z"></path>
</svg>
