<!-- Generated by IcoMoon.io -->
<svg version="1.1" xmlns="http://www.w3.org/2000/svg" width="32" height="32" viewBox="0 0 32 32">
<title>cat</title>
<path fill="#96b4eb" d="M5.393 31.396c0-0.741-0.2-1.129-1.324-1.833-1.716-1.075-1.804-2.241-1.804-4.055 0-0.607 0.492-1.099 1.099-1.099s1.099 0.492 1.099 1.099c0 1.653 0.076 1.756 0.772 2.191 1.414 0.885 2.355 1.853 2.355 3.696z"></path>
<path fill="#96b4eb" d="M23.114 31.372v-2.105c0-4.3-3.486-7.787-7.787-7.787s-7.787 3.486-7.787 7.787v2.105z"></path>
<path fill="#8286ea" d="M15.873 24.177c1.503 0.676 2.561 2.281 2.561 4.154v0.451c0 0.701-0.569 1.27-1.27 1.27h-7.034v1.284h10.396v-1.989c0-2.686-2.038-4.897-4.652-5.169z"></path>
<path fill="#efc5b4" d="M27.359 15.905c0.036-0.341 0.054-0.688 0.054-1.039v-0c0-5.461-4.427-9.888-9.888-9.888h-4.395c-5.461 0-9.888 4.427-9.888 9.888v0c0 0.351 0.019 0.697 0.054 1.039-1.074 0.311-1.86 1.302-1.86 2.476 0 1.424 1.155 2.579 2.579 2.579 0.406 0 0.79-0.094 1.131-0.261 1.799 2.458 4.705 4.055 7.984 4.055h4.395c3.279 0 6.186-1.597 7.984-4.055 0.342 0.167 0.725 0.261 1.131 0.261 1.424 0 2.579-1.154 2.579-2.579 0-1.175-0.786-2.165-1.86-2.476z"></path>
<path fill="#d994b3" d="M17.525 4.964h-1.268c4.427 0 8.017 3.589 8.017 8.016v0.681c0 4.427-3.589 8.017-8.017 8.017h-4.998c-4.237 0-7.706-3.287-7.996-7.45-0.013 0.207-0.020 0.415-0.020 0.624v0c0 5.461 4.427 9.888 9.888 9.888h4.395c5.461 0 9.888-4.427 9.888-9.888v-0c0-5.461-4.427-9.888-9.888-9.888z"></path>
<path fill="#96b4eb" d="M26.505 8.424c0.111-2.628 0.084-7.124-1.34-7.722-1.196-0.502-3.665 1.628-5.49 3.46-0.627-0.112-1.272-0.171-1.931-0.171h-4.833c-0.659 0-1.304 0.059-1.931 0.171-1.825-1.832-4.295-3.962-5.49-3.46-1.423 0.597-1.45 5.093-1.34 7.722-1.328 1.803-2.114 4.031-2.114 6.442v0c0 1.36 1.335 2.498 1.389 2.402 1.863-3.315 5.412-5.554 9.485-5.554h4.833c4.065 0 7.609 2.231 9.475 5.535 0.267 0.472 1.4-1.023 1.4-2.383v-0c0-2.411-0.785-4.639-2.113-6.442z"></path>
<path fill="#f6e06e" d="M16.871 26.039c0.441 0.858 0.103 1.911-0.755 2.352s-1.911 0.103-2.352-0.755c-0.441-0.858-0.103-1.911 0.755-2.352s1.911-0.103 2.352 0.755z"></path>
<path fill="#dda86a" d="M15.328 25.097c-0.089 0-0.176 0.007-0.261 0.019 0.6 0.102 1.058 0.623 1.058 1.253 0 0.703-0.57 1.272-1.272 1.272-0.63 0-1.151-0.458-1.253-1.058-0.013 0.085-0.019 0.172-0.019 0.261 0 0.965 0.782 1.748 1.748 1.748s1.748-0.782 1.748-1.748c-0-0.965-0.782-1.748-1.748-1.748z"></path>
<path fill="#c1e5ef" d="M27.542 23.552l0.516 1.451c0.022 0.062 0.066 0.111 0.121 0.136l1.289 0.581c0.182 0.082 0.182 0.372 0 0.454l-1.289 0.581c-0.055 0.025-0.099 0.074-0.121 0.136l-0.516 1.451c-0.073 0.205-0.331 0.205-0.404 0l-0.516-1.451c-0.022-0.062-0.066-0.111-0.121-0.136l-1.289-0.581c-0.182-0.082-0.182-0.372 0-0.454l1.289-0.581c0.055-0.025 0.099-0.074 0.121-0.136l0.516-1.451c0.073-0.205 0.331-0.205 0.404 0z"></path>
<path fill="#96b4eb" d="M30.249 29.668c0.605 0.143 0.98 0.75 0.837 1.355s-0.75 0.98-1.355 0.837c-0.605-0.143-0.98-0.75-0.837-1.355s0.75-0.98 1.355-0.837z"></path>
<path fill="#96b4eb" d="M31.192 23.527c0 0.268-0.218 0.486-0.486 0.486s-0.486-0.218-0.486-0.486c0-0.268 0.218-0.486 0.486-0.486s0.486 0.218 0.486 0.486z"></path>
<path fill="#8286ea" d="M17.68 3.868h-1.793c5.32 0 9.633 3.575 9.633 7.984-0.012 0.695-0.672 0.476-0.984 0.151-1.837-1.914-5.048-2.466-8.649-2.466h-4.281c-3.608 0-6.144 2.196-8.403 4.078-0.52 0.433-0.888-0.033-1.079-0.687-0.099 0.59-0.151 1.196-0.151 1.814 0 1.36 1.335 2.497 1.389 2.402 1.863-3.315 5.412-5.554 9.485-5.554h4.833c4.065 0 7.609 2.231 9.475 5.535 0.267 0.472 1.4-1.023 1.4-2.383 0-6.006-4.869-10.874-10.874-10.874z"></path>
<path fill="#3c122c" d="M28.988 16.2c0.161-0.436 0.259-0.902 0.259-1.334 0-2.465-0.78-4.752-2.105-6.626 0.027-0.721 0.042-1.562 0.023-2.424-0.077-3.414-0.635-5.223-1.756-5.693s-2.803 0.399-5.293 2.735c-0.225 0.211-0.444 0.423-0.657 0.633-0.56-0.084-1.132-0.128-1.715-0.128h-4.833c-0.583 0-1.155 0.044-1.715 0.128-0.212-0.21-0.432-0.422-0.657-0.633-2.49-2.336-4.172-3.205-5.293-2.735s-1.679 2.279-1.756 5.693c-0.019 0.862-0.004 1.703 0.023 2.424-1.325 1.874-2.105 4.161-2.105 6.626 0 0.48 0.127 0.92 0.298 1.295-0.555 0.577-0.898 1.359-0.898 2.221 0 1.768 1.438 3.207 3.207 3.207 0.321 0 0.631-0.048 0.923-0.136 0.966 1.2 2.19 2.184 3.587 2.867-0.825 1.131-1.375 2.475-1.551 3.933-0.429-0.449-0.938-0.813-1.461-1.141-0.324-0.203-0.362-0.248-0.391-0.325-0.080-0.215-0.086-0.754-0.086-1.334 0-0.952-0.775-1.727-1.727-1.727s-1.727 0.775-1.727 1.727c0 1.977 0.146 3.364 2.098 4.587 1.029 0.644 1.029 0.864 1.029 1.301 0 0.347 0.281 0.628 0.628 0.628s0.628-0.281 0.628-0.628c0-1.036-0.378-1.589-1.619-2.365-1.445-0.905-1.509-1.782-1.509-3.522 0-0.26 0.211-0.471 0.471-0.471s0.471 0.211 0.471 0.471c0 1.719 0.085 2.109 1.067 2.724 1.305 0.817 2.061 1.597 2.061 3.164 0 0.047 0.006 0.093 0.016 0.137 0.050 0.297 0.308 0.523 0.619 0.523 0.347 0 0.628-0.281 0.628-0.628v-2.105c0-1.681 0.583-3.227 1.556-4.45 0.587 0.201 1.197 0.352 1.826 0.447-1.105 1.019-1.798 2.478-1.798 4.096v2.25c0 0.208 0.169 0.377 0.377 0.377s0.377-0.169 0.377-0.377v-2.25c0-1.658 0.842-3.122 2.12-3.99 0.167 0.008 0.334 0.012 0.503 0.012h0.659c-0.363 0.381-0.586 0.896-0.586 1.462 0 1.171 0.953 2.125 2.124 2.125s2.125-0.953 2.125-2.125c0-0.566-0.223-1.081-0.586-1.462h0.658c0.169 0 0.338-0.004 0.505-0.012 1.277 0.868 2.119 2.332 2.119 3.99v2.25c0 0.208 0.169 0.377 0.377 0.377s0.377-0.169 0.377-0.377v-2.25c0-1.618-0.693-3.077-1.798-4.096 0.628-0.095 1.239-0.246 1.826-0.448 0.974 1.223 1.556 2.77 1.556 4.45v2.105c0 0.347 0.281 0.628 0.628 0.628s0.628-0.281 0.628-0.628v-2.105c0-1.848-0.599-3.558-1.613-4.948 1.397-0.683 2.621-1.667 3.587-2.867 0.293 0.088 0.602 0.136 0.923 0.136 1.768 0 3.207-1.439 3.207-3.207-0-0.842-0.327-1.609-0.86-2.181zM15.704 28.163v-1.12c0-0.208-0.169-0.377-0.377-0.377s-0.377 0.169-0.377 0.377v1.12c-0.573-0.164-0.994-0.693-0.994-1.318 0-0.756 0.615-1.371 1.371-1.371s1.371 0.615 1.371 1.371c0 0.625-0.421 1.154-0.994 1.318zM20.982 3.768c2.964-2.78 3.849-2.524 3.94-2.486s0.893 0.491 0.986 4.553c0.007 0.319 0.009 0.635 0.008 0.944-1.363-1.377-3.071-2.413-4.982-2.965 0.016-0.015 0.032-0.031 0.049-0.046zM4.747 5.845c0.092-4.071 0.895-4.525 0.986-4.563 0.018-0.007 0.065-0.023 0.152-0.023 0.361 0 1.399 0.269 3.788 2.509 0.016 0.015 0.032 0.031 0.049 0.046-1.911 0.552-3.619 1.588-4.982 2.966-0.002-0.306 0.001-0.62 0.008-0.935zM12.911 4.62h4.833c5.65 0 10.246 4.597 10.246 10.246 0 0.592-0.278 1.213-0.522 1.576-2.101-3.319-5.775-5.357-9.724-5.357h-4.833c-3.897 0-7.523 1.983-9.638 5.223-0.286-0.352-0.608-0.887-0.608-1.442 0-5.65 4.596-10.246 10.246-10.246zM4.015 20.332c-1.075 0-1.951-0.875-1.951-1.951 0-0.421 0.134-0.811 0.362-1.13 0.167 0.188 0.385 0.405 0.601 0.533 0.261 0.903 0.641 1.757 1.12 2.543-0.044 0.003-0.088 0.005-0.133 0.005zM23.268 22.125c-0.020-0.003-0.041-0.006-0.063-0.006h-3.082c-0.208 0-0.377 0.169-0.377 0.377s0.169 0.377 0.377 0.377h2.049c-1.367 0.796-2.954 1.253-4.647 1.253h-4.395c-1.693 0-3.28-0.457-4.647-1.253h2.049c0.208 0 0.377-0.169 0.377-0.377s-0.169-0.377-0.377-0.377h-3.082c-0.021 0-0.042 0.002-0.063 0.006-1.546-1.226-2.692-2.934-3.211-4.894 1.859-3.026 5.169-4.889 8.734-4.889h4.833c3.563 0 6.875 1.864 8.735 4.889-0.518 1.961-1.665 3.669-3.211 4.894zM26.64 20.332c-0.044 0-0.088-0.002-0.132-0.005 0.453-0.742 0.817-1.545 1.076-2.392 0.25-0.068 0.504-0.265 0.736-0.543 0.172 0.29 0.27 0.628 0.27 0.989 0 1.075-0.875 1.951-1.951 1.951z"></path>
<path fill="#3c122c" d="M8.704 16.018c0.003-0.002 0.333-0.164 0.724-0.164s0.721 0.162 0.723 0.163c0.055 0.028 0.113 0.041 0.171 0.041 0.137 0 0.269-0.075 0.336-0.206 0.095-0.185 0.021-0.412-0.164-0.507-0.049-0.025-0.498-0.246-1.066-0.246s-1.016 0.22-1.066 0.246c-0.185 0.094-0.258 0.32-0.164 0.505s0.32 0.26 0.505 0.167z"></path>
<path fill="#3c122c" d="M20.503 16.018c0.003-0.002 0.333-0.164 0.724-0.164s0.721 0.162 0.723 0.163c0.055 0.028 0.113 0.041 0.171 0.041 0.137 0 0.269-0.075 0.336-0.206 0.095-0.185 0.021-0.412-0.164-0.507-0.049-0.025-0.497-0.246-1.066-0.246s-1.016 0.22-1.066 0.246c-0.185 0.094-0.258 0.32-0.164 0.505s0.32 0.26 0.505 0.167z"></path>
<path fill="#3c122c" d="M16.431 18.572c-0.208 0-0.377 0.169-0.377 0.377 0 0.401-0.326 0.727-0.727 0.727s-0.727-0.326-0.727-0.727c0-0.208-0.169-0.377-0.377-0.377s-0.377 0.169-0.377 0.377c0 0.816 0.664 1.481 1.481 1.481s1.481-0.664 1.481-1.481c0-0.208-0.169-0.377-0.377-0.377z"></path>
<path fill="#3c122c" d="M10.532 20.891h-3.082c-0.208 0-0.377 0.169-0.377 0.377s0.169 0.377 0.377 0.377h3.082c0.208 0 0.377-0.169 0.377-0.377s-0.169-0.377-0.377-0.377z"></path>
<path fill="#3c122c" d="M23.205 20.891h-3.082c-0.208 0-0.377 0.169-0.377 0.377s0.169 0.377 0.377 0.377h3.082c0.208 0 0.377-0.169 0.377-0.377s-0.169-0.377-0.377-0.377z"></path>
<path fill="#3c122c" d="M21.577 9.241c0.208 0 0.377-0.169 0.377-0.377v-0.692c0-0.208-0.169-0.377-0.377-0.377s-0.377 0.169-0.377 0.377v0.692c0 0.208 0.169 0.377 0.377 0.377z"></path>
<path fill="#3c122c" d="M23.719 10.955c0.208 0 0.377-0.169 0.377-0.377v-0.692c0-0.208-0.169-0.377-0.377-0.377s-0.377 0.169-0.377 0.377v0.692c0 0.208 0.169 0.377 0.377 0.377z"></path>
<path fill="#fff" d="M8.789 7.991c-0.203 0-0.402-0.098-0.523-0.28-0.192-0.289-0.114-0.679 0.174-0.871 0.106-0.071 0.435-0.276 0.673-0.373 0.321-0.131 0.688 0.024 0.818 0.345s-0.024 0.688-0.345 0.818c-0.097 0.040-0.322 0.169-0.45 0.255-0.107 0.071-0.228 0.106-0.348 0.106z"></path>
<path fill="#fff" d="M5.808 10.786c-0.115 0-0.231-0.032-0.336-0.098-0.293-0.186-0.38-0.574-0.194-0.867 0.571-0.901 1.233-1.54 1.687-1.918 0.267-0.222 0.663-0.185 0.885 0.082s0.185 0.663-0.082 0.884c-0.385 0.32-0.946 0.862-1.429 1.625-0.12 0.189-0.323 0.292-0.531 0.292z"></path>
<path fill="#3c122c" d="M10.206 18.168c0.431 0.431 0.431 1.13 0 1.561s-1.13 0.431-1.561 0c-0.431-0.431-0.431-1.13 0-1.561s1.13-0.431 1.561 0z"></path>
<path fill="#3c122c" d="M21.481 17.885c0.593 0.14 0.96 0.735 0.82 1.328s-0.735 0.96-1.328 0.82c-0.593-0.14-0.96-0.735-0.82-1.328s0.735-0.96 1.328-0.82z"></path>
</svg>
