<!-- Generated by IcoMoon.io -->
<svg version="1.1" xmlns="http://www.w3.org/2000/svg" width="32" height="32" viewBox="0 0 32 32">
<title>clown</title>
<path fill="#a1e8c3" d="M23.798 27.682c0-0.205-0.008-0.407-0.024-0.608h-2.585c-0.071-0.96-0.401-1.848-0.922-2.593h2.846c-1.222-2.711-3.947-4.598-7.113-4.598s-5.892 1.887-7.113 4.598h2.846c-0.521 0.745-0.852 1.632-0.922 2.593h-2.585c-0.015 0.201-0.024 0.403-0.024 0.608v0.648h2.593v1.49h10.411v-1.49h2.593v-0.648z"></path>
<path fill="#96b4eb" d="M23.7 26.445c-0.073-0.459-0.186-0.905-0.336-1.334h-14.727c-0.15 0.429-0.263 0.875-0.336 1.334h2.845l-0.241 0.672h10.052l-0.175-0.672z"></path>
<path fill="#96b4eb" d="M20.977 28.959v-0.035h-10.263v0.035h-2.512v0.831h15.597v-0.831z"></path>
<path fill="#d789b9" d="M19.869 5.969c-0.308-1.741 0.854-3.403 2.595-3.711 1.253-0.222 2.465 0.318 3.161 1.287 0.146-0.041 0.296-0.076 0.448-0.103 2.454-0.434 4.795 1.203 5.229 3.657 0.229 1.294-0.118 2.556-0.857 3.524 0.254 1.72-0.905 3.341-2.629 3.646-1.755 0.31-3.429-0.86-3.739-2.615-0.014-0.082-0.025-0.163-0.033-0.244-0.828-0.661-1.429-1.614-1.628-2.739-0.007-0.040-0.012-0.080-0.018-0.12-1.257-0.25-2.293-1.245-2.529-2.583z"></path>
<path fill="#d789b9" d="M12.131 5.969c0.308-1.741-0.854-3.403-2.595-3.711-1.253-0.222-2.465 0.318-3.161 1.287-0.146-0.041-0.296-0.076-0.448-0.103-2.454-0.434-4.795 1.203-5.229 3.657-0.229 1.294 0.118 2.556 0.857 3.524-0.254 1.72 0.905 3.341 2.629 3.646 1.755 0.31 3.429-0.86 3.739-2.615 0.014-0.082 0.025-0.163 0.033-0.244 0.828-0.661 1.429-1.614 1.628-2.739 0.007-0.040 0.012-0.080 0.018-0.12 1.257-0.25 2.293-1.245 2.529-2.583z"></path>
<path fill="#efc5b4" d="M28.049 14.301c0.036-0.342 0.054-0.689 0.054-1.040v-0c0-5.469-4.434-9.903-9.903-9.903h-4.401c-5.469 0-9.903 4.434-9.903 9.903v0c0 0.351 0.019 0.698 0.054 1.040-1.076 0.312-1.863 1.304-1.863 2.48 0 1.426 1.156 2.582 2.583 2.582 0.406 0 0.791-0.094 1.133-0.261 1.802 2.462 4.712 4.061 7.996 4.061h4.401c3.284 0 6.195-1.599 7.996-4.061 0.342 0.167 0.726 0.261 1.133 0.261 1.426 0 2.582-1.156 2.582-2.582-0-1.177-0.787-2.169-1.863-2.48z"></path>
<path fill="#fff" d="M18.438 21.413h-4.876c-3.848 0-6.968-3.12-6.968-6.968s3.12-6.968 6.968-6.968h4.876c3.848 0 6.968 3.12 6.968 6.968s-3.12 6.968-6.968 6.968z"></path>
<path fill="#d994b3" d="M18.201 3.693h-1.27c4.434 0 8.028 3.594 8.028 8.028v0.682c0 4.434-3.594 8.028-8.028 8.028h-5.006c-4.243 0-7.717-3.292-8.008-7.461-0.013 0.207-0.020 0.415-0.020 0.625v0c0 5.469 4.434 9.903 9.903 9.903h4.401c5.469 0 9.903-4.434 9.903-9.903v-0c0-5.469-4.434-9.903-9.903-9.903z"></path>
<path fill="#e1bdfc" d="M24.959 12.403c0 4.434-3.594 8.028-8.028 8.028h-5.006c-0.889 0-1.744-0.145-2.543-0.412 1.164 0.875 2.612 1.393 4.18 1.393h4.876c3.848 0 6.968-3.12 6.968-6.968 0-0.866-0.158-1.694-0.447-2.459v0.417z"></path>
<path fill="#d789b9" d="M16.521 15.774c1.046 0.317 1.637 1.422 1.32 2.467s-1.422 1.637-2.467 1.32c-1.046-0.317-1.637-1.422-1.32-2.467s1.422-1.637 2.467-1.32z"></path>
<path fill="#c668b9" d="M16.243 15.706c0.48 0.238 0.81 0.733 0.81 1.305 0 0.804-0.652 1.456-1.456 1.456s-1.456-0.652-1.456-1.456c0-0.063 0.005-0.125 0.012-0.186-0.119 0.255-0.186 0.538-0.186 0.838 0 1.093 0.886 1.979 1.979 1.979s1.979-0.886 1.979-1.979c0-0.992-0.729-1.813-1.681-1.956z"></path>
<path fill="#f6e06e" d="M16.171 23.836c0.6 0.097 1.008 0.663 0.911 1.263s-0.663 1.008-1.263 0.911c-0.6-0.097-1.008-0.663-0.911-1.263s0.663-1.008 1.263-0.911z"></path>
<path fill="#f6e06e" d="M17.101 28.222c0 0.608-0.493 1.101-1.101 1.101s-1.101-0.493-1.101-1.101c0-0.608 0.493-1.101 1.101-1.101s1.101 0.493 1.101 1.101z"></path>
<path fill="#dda86a" d="M15.365 29.107c0.313 0.188 0.625 0.25 1 0.188 0.322-0.121 0.644-0.423 0.799-0.79h-2.201c0.079 0.23 0.202 0.442 0.402 0.602z"></path>
<path fill="#85adc2" d="M16.546 22.622c1.506 0.677 2.565 2.284 2.565 4.16v0.451c0 0.703-0.57 1.272-1.272 1.272h-0.675c-0.155 0.367-0.477 0.669-0.799 0.79-0.375 0.063-0.688 0-1-0.188-0.2-0.16-0.323-0.372-0.402-0.602h-4.168v1.285h10.411v-1.992c-0-2.69-2.041-4.904-4.659-5.177z"></path>
<path fill="#8286ea" d="M19.111 27.041h2.039c-0.097-0.666-0.321-1.291-0.645-1.85h-1.662c0.173 0.495 0.268 1.031 0.268 1.591z"></path>
<path fill="#8286ea" d="M10.795 29.072h10.411v0.718h-10.411z"></path>
<path fill="#e8c2d8" d="M3.295 22.584l0.517 1.453c0.022 0.062 0.066 0.111 0.121 0.136l1.291 0.582c0.182 0.082 0.182 0.373 0 0.455l-1.291 0.582c-0.055 0.025-0.099 0.074-0.121 0.136l-0.517 1.453c-0.073 0.205-0.331 0.205-0.404 0l-0.517-1.453c-0.022-0.062-0.066-0.111-0.121-0.136l-1.291-0.581c-0.182-0.082-0.182-0.373 0-0.455l1.291-0.582c0.055-0.025 0.099-0.074 0.121-0.136l0.517-1.453c0.073-0.205 0.331-0.205 0.404-0z"></path>
<path fill="#e8c2d8" d="M30.421 21.029l0.383 1.078c0.016 0.046 0.049 0.083 0.090 0.101l0.958 0.431c0.135 0.061 0.135 0.276 0 0.337l-0.958 0.431c-0.041 0.018-0.073 0.055-0.090 0.101l-0.383 1.078c-0.054 0.152-0.246 0.152-0.3 0l-0.383-1.078c-0.016-0.046-0.049-0.083-0.090-0.101l-0.958-0.431c-0.135-0.061-0.135-0.276 0-0.337l0.958-0.431c0.041-0.018 0.073-0.055 0.090-0.101l0.383-1.078c0.054-0.152 0.246-0.152 0.3 0z"></path>
<path fill="#d789b9" d="M27.129 26.476c0.265 0.043 0.445 0.293 0.402 0.558s-0.293 0.445-0.558 0.402c-0.265-0.043-0.445-0.293-0.402-0.558s0.293-0.445 0.558-0.402z"></path>
<path fill="#3c122c" d="M15.945 20.018c-1.299 0-2.356-1.057-2.356-2.356s1.057-2.356 2.356-2.356c1.299 0 2.356 1.057 2.356 2.356s-1.057 2.356-2.356 2.356zM15.945 16.061c-0.883 0-1.601 0.718-1.601 1.601s0.718 1.601 1.601 1.601c0.883 0 1.601-0.718 1.601-1.601s-0.718-1.601-1.601-1.601z"></path>
<path fill="#3c122c" d="M10.987 14.455c-0.058 0-0.116-0.013-0.171-0.041-0.002-0.001-0.332-0.163-0.724-0.163s-0.722 0.163-0.726 0.164c-0.186 0.093-0.413 0.018-0.506-0.167s-0.020-0.411 0.165-0.506c0.049-0.025 0.498-0.246 1.067-0.246s1.018 0.221 1.067 0.246c0.186 0.095 0.259 0.322 0.165 0.508-0.067 0.131-0.199 0.206-0.336 0.206z"></path>
<path fill="#3c122c" d="M22.803 14.455c-0.058 0-0.116-0.013-0.171-0.041-0.002-0.001-0.332-0.163-0.724-0.163s-0.722 0.163-0.726 0.164c-0.186 0.093-0.413 0.018-0.506-0.167s-0.020-0.411 0.165-0.506c0.049-0.025 0.498-0.246 1.067-0.246s1.018 0.221 1.067 0.246c0.186 0.095 0.259 0.322 0.165 0.508-0.067 0.131-0.199 0.206-0.336 0.206z"></path>
<path fill="#3c122c" d="M30.383 13.344c0.537-0.746 0.786-1.642 0.715-2.55 0.759-1.107 1.059-2.479 0.824-3.805-0.239-1.352-0.991-2.53-2.116-3.317s-2.49-1.089-3.842-0.849c-0.033 0.006-0.067 0.012-0.1 0.019-0.876-0.965-2.21-1.433-3.509-1.203-0.878 0.155-1.657 0.6-2.231 1.267-0.624-0.116-1.267-0.177-1.923-0.177h-4.401c-0.658 0-1.302 0.061-1.927 0.177-0.556-0.644-1.326-1.108-2.227-1.267-1.299-0.23-2.633 0.238-3.509 1.203-0.033-0.007-0.067-0.013-0.1-0.019-1.352-0.239-2.717 0.062-3.842 0.849s-1.877 1.965-2.116 3.318c-0.235 1.326 0.066 2.698 0.825 3.805-0.072 0.907 0.178 1.804 0.715 2.55 0.278 0.386 0.618 0.712 1.004 0.967-0.71 0.589-1.162 1.478-1.162 2.471 0 1.771 1.441 3.212 3.212 3.212 0.321 0 0.631-0.049 0.924-0.137 0.968 1.202 2.194 2.188 3.594 2.872-1.015 1.392-1.615 3.104-1.615 4.955v2.108c0 0.347 0.282 0.629 0.629 0.629s0.629-0.282 0.629-0.629v-0.781h1.586v1.020c0 0.208 0.169 0.377 0.377 0.377s0.377-0.169 0.377-0.377v-0.628h3.937c0.248 0.188 0.557 0.3 0.891 0.3s0.643-0.112 0.891-0.3h3.937v0.628c0 0.208 0.169 0.377 0.377 0.377s0.377-0.169 0.377-0.377v-1.020h1.586v0.781c0 0.347 0.282 0.629 0.629 0.629s0.629-0.282 0.629-0.629v-2.108c0-1.851-0.6-3.563-1.615-4.955 1.399-0.684 2.625-1.67 3.593-2.871 0.293 0.088 0.603 0.136 0.925 0.136 1.771 0 3.212-1.441 3.212-3.212 0-0.993-0.453-1.882-1.163-2.471 0.387-0.255 0.728-0.58 1.005-0.966zM2.055 10.241c-0.657-0.862-0.926-1.967-0.738-3.033 0.181-1.021 0.748-1.911 1.598-2.506 0.66-0.461 1.428-0.702 2.217-0.702 0.227 0 0.456 0.020 0.685 0.060 0.13 0.023 0.26 0.053 0.386 0.089 0.255 0.072 0.528-0.023 0.682-0.238 0.574-0.8 1.572-1.206 2.54-1.035 0.369 0.065 0.706 0.207 0.998 0.406-4.148 1.407-7.143 5.333-7.156 9.948-0.791-0.543-1.241-1.5-1.091-2.517 0.025-0.168-0.019-0.338-0.122-0.473zM4.67 18.734c-1.077 0-1.954-0.876-1.954-1.953 0-0.619 0.29-1.171 0.74-1.529 0.24 1.251 0.703 2.425 1.345 3.477-0.044 0.003-0.087 0.005-0.132 0.005zM12.217 23.673c-0.266 0.246-0.508 0.517-0.723 0.809-0.014-0.002-0.028-0.002-0.042-0.002h-1.866c0.224-0.447 0.493-0.867 0.802-1.255 0.588 0.202 1.199 0.353 1.829 0.448zM18.201 23.792c0.169 0 0.337-0.004 0.505-0.012 0.44 0.299 0.828 0.668 1.148 1.092h-2.376c-0.016-0.433-0.218-0.819-0.529-1.080zM23.048 26.367h-1.645c-0.103-0.396-0.249-0.775-0.433-1.132h1.769c0.133 0.365 0.237 0.743 0.309 1.132zM16.724 28.222c0 0.399-0.325 0.724-0.724 0.724s-0.724-0.325-0.724-0.724 0.325-0.724 0.724-0.724c0.399 0 0.724 0.325 0.724 0.724zM16.214 26.759c-0.070-0.010-0.141-0.016-0.214-0.016s-0.144 0.006-0.214 0.016h-4.506c0.086-0.398 0.22-0.777 0.398-1.132h3.020c0.25 0.463 0.74 0.778 1.302 0.778s1.052-0.315 1.302-0.778h3.004c0.005 0 0.011-0.001 0.016-0.001 0.177 0.355 0.313 0.735 0.398 1.133zM9.262 25.235h1.769c-0.183 0.357-0.329 0.736-0.432 1.132h-1.645c0.072-0.389 0.176-0.768 0.309-1.132zM16 25.65c-0.399 0-0.724-0.325-0.724-0.724s0.325-0.724 0.724-0.724 0.724 0.325 0.724 0.724-0.325 0.724-0.724 0.724zM14.523 24.872h-2.376c0.32-0.424 0.708-0.793 1.148-1.092 0.167 0.008 0.335 0.012 0.505 0.012h1.253c-0.311 0.261-0.514 0.647-0.53 1.080zM8.831 28.254v-0.572c0-0.189 0.008-0.375 0.022-0.56h1.603c-0.025 0.214-0.038 0.432-0.038 0.654v0.479zM11.172 27.775c0-0.088 0.003-0.175 0.008-0.262h3.523c-0.115 0.21-0.181 0.452-0.181 0.708 0 0.147 0.022 0.29 0.062 0.424h-3.412v-0.871zM17.416 28.646c0.040-0.134 0.062-0.277 0.062-0.424 0-0.256-0.066-0.498-0.181-0.708h3.523c0.005 0.087 0.008 0.174 0.008 0.262v0.871zM21.583 28.254v-0.479c0-0.221-0.013-0.439-0.038-0.654h1.602c0.014 0.185 0.022 0.372 0.022 0.56v0.572zM22.413 24.48h-1.862c-0.015 0-0.030 0.001-0.045 0.003-0.215-0.293-0.457-0.564-0.723-0.81 0.629-0.095 1.241-0.247 1.829-0.448 0.309 0.388 0.578 0.808 0.802 1.255zM18.201 22.534h-4.401c-5.114 0-9.274-4.16-9.274-9.274s4.16-9.274 9.274-9.274h4.401c5.114 0 9.274 4.16 9.274 9.274s-4.16 9.274-9.274 9.274zM27.33 18.734c-0.044 0-0.088-0.002-0.132-0.005 0.642-1.052 1.104-2.226 1.345-3.477 0.45 0.358 0.74 0.91 0.74 1.528 0 1.077-0.876 1.954-1.953 1.954zM28.732 13.231c-0.013-4.615-3.008-8.542-7.157-9.948 0.297-0.202 0.635-0.341 0.999-0.406 0.969-0.172 1.966 0.235 2.54 1.035 0.155 0.215 0.427 0.311 0.682 0.238 0.127-0.036 0.257-0.066 0.387-0.089 1.021-0.181 2.052 0.047 2.902 0.642s1.418 1.484 1.598 2.506c0.189 1.066-0.080 2.171-0.738 3.032-0.103 0.135-0.147 0.306-0.122 0.473 0.15 1.016-0.3 1.974-1.091 2.517z"></path>
<path fill="#3c122c" d="M29.369 8.556c-0.208 0-0.377-0.169-0.377-0.377v-0.693c0-0.208 0.169-0.377 0.377-0.377s0.377 0.169 0.377 0.377v0.693c0 0.208-0.169 0.377-0.377 0.377z"></path>
<path fill="#3c122c" d="M27.754 6.878c-0.208 0-0.377-0.169-0.377-0.377v-0.693c0-0.208 0.169-0.377 0.377-0.377s0.377 0.169 0.377 0.377v0.693c0 0.208-0.169 0.377-0.377 0.377z"></path>
<path fill="#3c122c" d="M10.521 16.332c0.564 0.234 0.832 0.881 0.598 1.445s-0.881 0.832-1.445 0.598c-0.564-0.234-0.832-0.881-0.598-1.445s0.881-0.832 1.445-0.598z"></path>
<path fill="#3c122c" d="M22.079 16.257c0.603 0.098 1.012 0.665 0.914 1.268s-0.665 1.012-1.268 0.914c-0.603-0.098-1.012-0.665-0.914-1.268s0.665-1.012 1.268-0.914z"></path>
<path fill="#fff" d="M10.138 6.941c-0.203 0-0.403-0.098-0.524-0.28-0.193-0.289-0.115-0.68 0.174-0.872 0.107-0.071 0.435-0.277 0.674-0.374 0.322-0.131 0.689 0.024 0.82 0.346s-0.024 0.689-0.346 0.82c-0.098 0.040-0.322 0.17-0.45 0.255-0.107 0.072-0.228 0.106-0.348 0.106z"></path>
<path fill="#fff" d="M7.153 9.739c-0.115 0-0.232-0.032-0.336-0.098-0.293-0.186-0.381-0.575-0.195-0.868 0.572-0.902 1.234-1.543 1.69-1.921 0.267-0.222 0.664-0.185 0.886 0.082s0.185 0.664-0.082 0.886c-0.386 0.321-0.947 0.863-1.431 1.627-0.12 0.189-0.324 0.292-0.532 0.292z"></path>
</svg>
