<!-- Generated by IcoMoon.io -->
<svg version="1.1" xmlns="http://www.w3.org/2000/svg" width="32" height="32" viewBox="0 0 32 32">
<title>cowboy</title>
<path fill="#c1e5ef" d="M24.136 31.297v-2.133c0-4.358-3.533-7.891-7.891-7.891s-7.891 3.533-7.891 7.891v2.133z"></path>
<path fill="#c49a8b" d="M13.484 24.796c-1.504 0.927-2.507 2.589-2.507 4.486v2.016h2.507z"></path>
<path fill="#c49a8b" d="M19.088 24.848v6.449h2.424v-2.016c0-1.862-0.967-3.496-2.424-4.433z"></path>
<path fill="#b2748a" d="M16.798 24.075c1.524 0.685 2.595 2.312 2.595 4.209v0.457c0 0.711-0.576 1.287-1.287 1.287h-7.128v1.301h10.535v-2.016c0-2.723-2.065-4.962-4.715-5.238z"></path>
<path fill="#a6aaed" d="M18.92 29.895c-0.179 0.084-0.381 0.133-0.594 0.133h-4.788v1.301h5.382z"></path>
<path fill="#f3d4d2" d="M28.437 15.623c0.036-0.346 0.055-0.697 0.055-1.053 0-5.534-4.486-10.021-10.021-10.021h-4.454c-5.534 0-10.021 4.486-10.021 10.021 0 0.356 0.019 0.707 0.055 1.053-1.089 0.315-1.885 1.319-1.885 2.51 0 1.443 1.17 2.613 2.613 2.613 0.411 0 0.8-0.095 1.146-0.265 1.823 2.491 4.768 4.109 8.091 4.109h4.454c3.323 0 6.268-1.618 8.091-4.109 0.346 0.169 0.735 0.265 1.146 0.265 1.443 0 2.613-1.17 2.613-2.613-0-1.19-0.796-2.194-1.885-2.51z"></path>
<path fill="#da9fd0" d="M18.472 4.605h-1.285c4.487 0 8.124 3.637 8.124 8.124v0.69c0 4.487-3.637 8.124-8.124 8.124h-5.065c-4.294 0-7.809-3.331-8.103-7.55-0.013 0.209-0.020 0.42-0.020 0.633v0c0 5.534 4.486 10.021 10.021 10.021h4.454c5.534 0 10.021-4.486 10.021-10.021v-0c0-5.534-4.486-10.021-10.021-10.021z"></path>
<path fill="#a07575" d="M3.823 10.522s-1.73 5.218 1.851 9.42l1.819-0.254c0.082-0.533-0.592-6.556-0.804-8.078-0.331-2.38-2.866-1.088-2.866-1.088z"></path>
<path fill="#a07575" d="M28.667 10.522s1.73 5.218-1.851 9.42l-1.819-0.254c-0.082-0.533 0.592-6.556 0.804-8.078 0.331-2.38 2.866-1.088 2.866-1.088z"></path>
<path fill="#c49a8b" d="M26.040 6.303c-0.961-2.516-3.341-5.666-6.771-5.666-1.173 0.014-2.004 0.809-3.024 1.633-1.046-0.764-1.674-1.6-2.997-1.633-3.464 0-6.045 3.138-7.008 5.674-3.1 0.123-5.054 0.621-5.054 2.206 0 2.944 6.742 5.331 15.059 5.331s15.059-2.387 15.059-5.331c0-1.62-2.042-2.105-5.264-2.214z"></path>
<path fill="#d789b9" d="M6.498 5.586c-0.297 0.771-0.688 2.171-0.668 2.731 0.121 3.362 20.798 3.245 20.683 0-0.020-0.549-0.512-2.009-0.812-2.788 0.009 3.154-19.193 3.21-19.203 0.057z"></path>
<path fill="#c668b9" d="M25.345 6.264c-0.792 0.423-1.609 0.795-2.464 1.077-2.145 2.042-16.579 1.931-16.671-0.555-0.005-0.145 0.004-0.304 0.027-0.472-0.285 0.753-0.428 1.453-0.409 2.002 0.121 3.362 20.798 3.246 20.683 0-0.020-0.55-0.186-1.272-0.488-2.052z"></path>
<path fill="#b2748a" d="M23.008 7.201h0.351c0.911-0.224 1.728-0.743 2.514-1.309-1.053-2.435-3.358-5.255-6.603-5.255-0.307 0.004-0.59 0.061-0.859 0.158 2.942 0.789 4.677 4.346 4.737 5.993 0.005 0.146-0.044 0.284-0.14 0.414z"></path>
<path fill="#d789b9" d="M23.452 23.197c-4.62 0.55-9.368 0.839-14.471-0.14-0.342 1.112-0.492 1.914-0.089 2.685 1.429 0.297 3.574 0.469 5 0.577 0 0 6.816 3.831 7.865 3.481s1.276-2.898 1.486-4.087c0.21-1.189 0.21-2.517 0.21-2.517z"></path>
<path fill="#c668b9" d="M21.124 23.445c-0.017 0.287-0.059 0.73-0.166 1.145-0.177 0.686-0.369 2.157-1.253 2.359s-6.634-2.010-6.634-2.010c-1.202-0.062-3.012-0.161-4.217-0.333-0.083-0.109-0.138-0.218-0.17-0.331-0.075 0.539-0.032 1.008 0.207 1.466 1.429 0.297 3.574 0.469 5 0.577 0 0 6.816 3.831 7.865 3.481s1.276-2.898 1.486-4.087 0.21-2.517 0.21-2.517c-0.772 0.092-1.548 0.176-2.328 0.249z"></path>
<path fill="#e8c2d8" d="M2.559 23.416l0.523 1.47c0.022 0.063 0.067 0.113 0.123 0.138l1.306 0.588c0.185 0.083 0.185 0.377 0 0.46l-1.306 0.588c-0.056 0.025-0.1 0.075-0.123 0.138l-0.523 1.47c-0.074 0.208-0.335 0.208-0.409 0l-0.523-1.47c-0.022-0.063-0.067-0.113-0.123-0.138l-1.306-0.588c-0.185-0.083-0.185-0.377 0-0.46l1.306-0.588c0.056-0.025 0.1-0.075 0.123-0.138l0.523-1.47c0.074-0.208 0.335-0.208 0.409 0z"></path>
<path fill="#e8c2d8" d="M28.491 26.633l0.388 1.091c0.017 0.047 0.049 0.084 0.091 0.102l0.969 0.436c0.137 0.062 0.137 0.28 0 0.341l-0.969 0.436c-0.041 0.019-0.074 0.056-0.091 0.102l-0.388 1.091c-0.055 0.154-0.249 0.154-0.303 0l-0.388-1.091c-0.017-0.047-0.049-0.084-0.091-0.102l-0.969-0.436c-0.137-0.062-0.137-0.28 0-0.341l0.969-0.436c0.041-0.019 0.074-0.056 0.091-0.102l0.388-1.091c0.055-0.154 0.249-0.154 0.303 0z"></path>
<path fill="#d789b9" d="M30.97 22.414c0.615 0.137 1.003 0.747 0.867 1.362s-0.747 1.003-1.362 0.867c-0.615-0.137-1.003-0.747-0.867-1.362s0.747-1.003 1.362-0.867z"></path>
<path fill="#d789b9" d="M5.82 29.409c0 0.272-0.221 0.492-0.492 0.492s-0.492-0.221-0.492-0.492c0-0.272 0.221-0.492 0.492-0.492s0.492 0.221 0.492 0.492z"></path>
<path fill="#3c122c" d="M29.563 15.466c0.099-0.586 0.153-1.188 0.158-1.805 0.006-0.735-0.056-1.389-0.136-1.919 1.535-0.935 2.355-2.042 2.355-3.226 0-0.614-0.217-1.138-0.645-1.558-0.86-0.844-2.526-1.17-4.818-1.275-0.341-0.801-0.816-1.652-1.433-2.462-1.582-2.077-3.633-3.221-5.775-3.221-0.002 0-0.005 0-0.007 0-1.239 0.014-2.114 0.707-3.029 1.457-0.088-0.071-0.174-0.142-0.259-0.212-0.725-0.597-1.476-1.214-2.71-1.245-0.005-0-0.011-0-0.016-0-2.41 0-4.211 1.342-5.297 2.468-0.902 0.935-1.656 2.093-2.147 3.225-2.185 0.116-3.775 0.447-4.609 1.265-0.428 0.42-0.645 0.944-0.645 1.558 0 1.184 0.82 2.291 2.355 3.226-0.080 0.531-0.142 1.184-0.136 1.919 0.005 0.616 0.058 1.219 0.158 1.805-0.843 0.588-1.396 1.563-1.396 2.666 0 1.792 1.458 3.25 3.25 3.25 0.326 0 0.64-0.049 0.937-0.138 0.764 0.948 1.686 1.762 2.727 2.403-0.117 0.664-0.077 1.25 0.122 1.811-0.544 1.121-0.849 2.378-0.849 3.706v2.133c0 0.352 0.285 0.637 0.637 0.637s0.636-0.285 0.636-0.637v-2.133c0-1.116 0.254-2.173 0.706-3.118 0.609-0.055 1.241-0.015 1.852 0.078-0.601 0.897-0.952 1.975-0.952 3.134v2.28c0 0.211 0.171 0.382 0.382 0.382s0.382-0.171 0.382-0.382v-2.28c0-1.119 0.38-2.151 1.015-2.975 0.228 0.052 0.449 0.11 0.661 0.17v5.165c0 0.211 0.171 0.382 0.382 0.382s0.382-0.171 0.382-0.382v-4.913c0.384 0.211 1.883 1.031 3.462 1.809 0.501 0.247 0.946 0.458 1.341 0.638v2.466c0 0.211 0.171 0.382 0.382 0.382s0.382-0.171 0.382-0.382v-2.129c0.846 0.359 1.397 0.538 1.764 0.62v1.43c0 0.211 0.171 0.382 0.382 0.382s0.382-0.171 0.382-0.382v-1.422c0.813-0.285 1.193-1.412 1.425-2.558 0.117 0.517 0.18 1.053 0.18 1.605v2.133c0 0.352 0.285 0.637 0.637 0.637s0.637-0.285 0.637-0.637v-2.133c0-1.484-0.382-2.879-1.052-4.096 0.056-0.484 0.084-0.941 0.099-1.284 1.134-0.661 2.135-1.524 2.954-2.541 0.297 0.090 0.611 0.139 0.936 0.139 1.792 0 3.25-1.458 3.25-3.25 0-1.103-0.553-2.079-1.396-2.667zM28.448 13.695c-0.026 2.134-0.664 4.005-1.897 5.568l-0.909-0.127c0.071-1.159 0.372-4.010 0.605-5.968 0.295-0.090 0.581-0.184 0.859-0.282 0.456-0.162 0.882-0.333 1.277-0.513 0.043 0.392 0.071 0.838 0.065 1.322zM6.846 6.515c0.582 0.562 1.681 1.006 3.287 1.328 1.66 0.332 3.79 0.512 5.994 0.512 0.438 0 0.88-0.007 1.321-0.021 1.665-0.054 6.428-0.336 8.016-1.764 0.253 0.67 0.395 1.288 0.412 1.77 0.005 0.136-0.374 0.623-2.118 1.069-1.487 0.38-3.598 0.636-5.942 0.72-2.881 0.103-5.782-0.059-7.958-0.444-2.76-0.489-3.385-1.169-3.393-1.39-0.017-0.465 0.115-1.091 0.38-1.778zM8.867 3.352c0.914-0.947 2.414-2.076 4.373-2.079 0.792 0.023 1.268 0.414 1.926 0.956 0.219 0.18 0.446 0.367 0.704 0.555 0.233 0.17 0.551 0.162 0.775-0.019 0.11-0.089 0.218-0.178 0.325-0.265 0.827-0.679 1.481-1.216 2.304-1.227 2.741 0.002 4.818 2.361 5.86 4.527-0.508 0.797-3.166 1.622-7.71 1.771-2.603 0.085-5.206-0.088-7.141-0.476-1.694-0.339-2.806-0.835-3.091-1.361 0.406-0.811 0.972-1.652 1.675-2.381zM1.822 8.517c0-0.27 0.081-0.471 0.264-0.649 0.518-0.508 1.689-0.758 3.269-0.871-0.119 0.479-0.177 0.935-0.162 1.343 0.044 1.227 1.497 2.076 4.443 2.598 1.817 0.322 4.11 0.494 6.481 0.494 0.579 0 1.163-0.010 1.745-0.031 2.432-0.087 4.638-0.356 6.211-0.758 0.774-0.198 3.131-0.8 3.076-2.348v-0c-0.013-0.369-0.085-0.816-0.218-1.312 1.683 0.106 2.933 0.355 3.473 0.885 0.182 0.179 0.264 0.379 0.264 0.65 0 2.22-5.923 4.694-14.422 4.694s-14.422-2.474-14.422-4.694zM5.384 12.886c0.278 0.098 0.565 0.193 0.859 0.282 0.232 1.958 0.533 4.808 0.605 5.967l-0.909 0.127c-1.233-1.562-1.871-3.434-1.897-5.567-0.006-0.484 0.022-0.929 0.065-1.322 0.395 0.18 0.821 0.351 1.277 0.513zM2.804 18.133c0-0.481 0.173-0.922 0.46-1.265 0.371 1.178 0.947 2.266 1.715 3.23-0.065 0.007-0.131 0.011-0.198 0.011-1.090 0-1.977-0.887-1.977-1.977zM22.866 25.647c-0.030 0.169-0.060 0.364-0.092 0.57-0.16 1.032-0.457 2.954-1.137 3.181-0.094 0.024-0.735 0.061-4.076-1.588-1.791-0.884-3.468-1.816-3.485-1.825-0.020-0.011-0.041-0.021-0.063-0.028-1.016-0.344-2.393-0.699-3.752-0.699-0.313 0-0.625 0.019-0.931 0.061-0.223-0.547-0.247-1.117-0.075-1.822 5.007 0.908 9.587 0.617 13.805 0.131-0.017 0.478-0.064 1.281-0.194 2.020zM22.815 22.886c-4.106 0.468-8.554 0.736-13.388-0.135-1.049-0.591-1.973-1.377-2.723-2.309l0.876-0.122c0.278-0.039 0.498-0.256 0.541-0.534 0.078-0.506-0.289-3.948-0.557-6.256 2.541 0.621 5.542 0.955 8.681 0.955s6.14-0.334 8.681-0.955c-0.268 2.309-0.635 5.751-0.557 6.256 0.043 0.278 0.263 0.495 0.541 0.534l0.877 0.122c-0.809 1.005-1.82 1.841-2.971 2.445zM27.709 20.11c-0.067 0-0.133-0.004-0.198-0.011 0.768-0.964 1.344-2.052 1.715-3.23 0.286 0.343 0.46 0.783 0.46 1.264-0 1.090-0.887 1.977-1.977 1.977z"></path>
<path fill="#fff" d="M8.922 5.724c0.111 0.077 0.238 0.114 0.363 0.114 0.201 0 0.399-0.095 0.523-0.273 0.31-0.446 0.666-0.844 1.058-1.185 0.265-0.231 0.294-0.633 0.063-0.898s-0.633-0.294-0.898-0.063c-0.472 0.41-0.899 0.887-1.269 1.419-0.201 0.289-0.13 0.685 0.159 0.886z"></path>
<path fill="#fff" d="M11.777 3.653c0.093 0 0.188-0.021 0.277-0.064 0.087-0.042 0.176-0.082 0.264-0.118 0.325-0.134 0.48-0.506 0.346-0.831s-0.506-0.48-0.831-0.346c-0.112 0.046-0.224 0.096-0.334 0.149-0.316 0.153-0.449 0.534-0.295 0.85 0.11 0.227 0.337 0.359 0.573 0.359z"></path>
<path fill="#3c122c" d="M11.346 15.057c-0.050-0.025-0.504-0.249-1.080-0.249s-1.030 0.223-1.080 0.249c-0.187 0.096-0.261 0.324-0.167 0.512s0.324 0.263 0.512 0.169c0.003-0.002 0.338-0.166 0.734-0.166s0.731 0.165 0.733 0.165c0.056 0.028 0.115 0.042 0.173 0.042 0.139 0 0.273-0.076 0.341-0.208 0.096-0.188 0.021-0.418-0.167-0.514z"></path>
<path fill="#3c122c" d="M23.303 15.057c-0.050-0.025-0.504-0.249-1.080-0.249s-1.030 0.223-1.080 0.249c-0.188 0.096-0.262 0.326-0.167 0.514s0.326 0.262 0.514 0.167c0.003-0.002 0.335-0.165 0.733-0.165 0.396 0 0.731 0.165 0.733 0.165 0.056 0.028 0.115 0.042 0.173 0.042 0.139 0 0.273-0.076 0.34-0.208 0.096-0.188 0.021-0.418-0.167-0.514z"></path>
<path fill="#3c122c" d="M17.363 18.326c-0.211 0-0.382 0.171-0.382 0.382 0 0.406-0.331 0.737-0.737 0.737s-0.737-0.331-0.737-0.737c0-0.211-0.171-0.382-0.382-0.382s-0.382 0.171-0.382 0.382c0 0.827 0.673 1.501 1.501 1.501s1.501-0.673 1.501-1.501c0-0.211-0.171-0.382-0.382-0.382z"></path>
<path fill="#3c122c" d="M21.203 28.19c0.211 0 0.382-0.171 0.382-0.382v-0.721c0-0.211-0.171-0.382-0.382-0.382s-0.382 0.171-0.382 0.382v0.721c0 0.211 0.171 0.382 0.382 0.382z"></path>
<path fill="#3c122c" d="M18.279 26.813c0.211 0 0.382-0.171 0.382-0.382v-0.721c0-0.211-0.171-0.382-0.382-0.382s-0.382 0.171-0.382 0.382v0.721c0 0.211 0.171 0.382 0.382 0.382z"></path>
<path fill="#3c122c" d="M20.275 26.263c0.211 0 0.382-0.171 0.382-0.382v-0.721c0-0.211-0.171-0.382-0.382-0.382s-0.382 0.171-0.382 0.382v0.721c0 0.211 0.171 0.382 0.382 0.382z"></path>
<path fill="#3c122c" d="M10.267 17.589c-0.618 0-1.119 0.501-1.119 1.119s0.501 1.119 1.119 1.119 1.119-0.501 1.119-1.119-0.501-1.119-1.119-1.119z"></path>
<path fill="#3c122c" d="M22.223 17.589c-0.618 0-1.119 0.501-1.119 1.119s0.501 1.119 1.119 1.119 1.119-0.501 1.119-1.119c0-0.618-0.501-1.119-1.119-1.119z"></path>
</svg>
