<!-- Generated by IcoMoon.io -->
<svg version="1.1" xmlns="http://www.w3.org/2000/svg" width="32" height="32" viewBox="0 0 32 32">
<title>fairy</title>
<path fill="#c1e5ef" d="M11.55 26.386c-0.045-0.103-0.227-0.217-0.511-0.317-0.615-0.932-1.823-2.17-3.493-2.852-2.637-1.077-5.35-0.54-5.61 0.096-0.23 0.564 0.97 2.419 3.079 3.584-2.035 1.215-3.16 3.060-2.92 3.612 0.275 0.63 3 1.103 5.611-0.035 1.704-0.743 2.904-2.065 3.478-3.019 0.164-0.081 0.269-0.165 0.3-0.241 0.026-0.064 0.018-0.17-0.021-0.305 0.097-0.242 0.128-0.427 0.087-0.521z"></path>
<path fill="#c1e5ef" d="M26.851 26.897c2.11-1.165 3.31-3.020 3.079-3.584-0.26-0.637-2.973-1.173-5.61-0.096-1.67 0.682-2.878 1.92-3.493 2.852-0.285 0.1-0.466 0.214-0.511 0.317-0.041 0.094-0.010 0.279 0.087 0.521-0.039 0.135-0.048 0.241-0.021 0.305 0.031 0.076 0.136 0.16 0.3 0.241 0.574 0.954 1.774 2.276 3.478 3.019 2.611 1.138 5.336 0.665 5.611 0.035 0.241-0.552-0.885-2.397-2.92-3.612z"></path>
<path fill="#efc5b4" d="M27.998 15.84c0.036-0.342 0.054-0.69 0.054-1.042 0-5.476-4.439-9.916-9.916-9.916h-4.407c-5.476 0-9.916 4.439-9.916 9.916 0 0.352 0.019 0.699 0.054 1.042-1.077 0.312-1.865 1.305-1.865 2.483 0 1.428 1.158 2.586 2.586 2.586 0.407 0 0.792-0.094 1.134-0.262 1.104 1.509 2.624 2.693 4.391 3.385-1.237 1.381-1.989 3.206-1.989 5.206v2.111h15.617v-2.111c0-2-0.753-3.825-1.989-5.206 1.767-0.692 3.287-1.877 4.391-3.385 0.343 0.167 0.727 0.262 1.134 0.262 1.428 0 2.586-1.158 2.586-2.586 0-1.178-0.788-2.171-1.865-2.483z"></path>
<path fill="#d789b9" d="M11.197 27.252v-0.073c-0.305 0.662-0.476 1.399-0.476 2.176v1.994h10.424v-1.994c0-0.749-0.159-1.46-0.443-2.103l-1.718 0.769-1.538-0.769-1.538 0.744-1.587-0.744-1.587 0.694z"></path>
<path fill="#d994b3" d="M18.137 4.926h-1.272c4.44 0 8.039 3.599 8.039 8.039v0.683c0 4.44-3.599 8.039-8.039 8.039h-5.012c-4.249 0-7.727-3.296-8.018-7.471-0.013 0.207-0.020 0.416-0.020 0.626v0c0 5.476 4.439 9.916 9.916 9.916h3.661c1.007 0.823 1.657 2.129 1.657 3.6v0.452c0 0.703-0.57 1.274-1.274 1.274h-7.054v1.287h10.424v-1.994c0-2.008-1.136-3.751-2.801-4.621 5.38-0.111 9.708-4.506 9.708-9.913v-0c0-5.476-4.439-9.916-9.916-9.916z"></path>
<path fill="#c668b9" d="M20.633 27.127c-0.512 0.424-1.013 0.863-1.586 1.186 0 0.015 0.001 0.029 0.001 0.044v0.452c0 0.703-0.57 1.274-1.274 1.274h-7.054v1.287h10.424v-1.994c0-0.805-0.183-1.567-0.509-2.248z"></path>
<path fill="#e8c2d8" d="M27.186 18.762c1.184-0.733 2.199-1.861 2.328-3.791v-1.163c0-6.443-5.223-11.666-11.666-11.666h-3.831c-6.443 0-11.666 5.223-11.666 11.666v1.163c0.082 2.043 1.304 3.133 2.168 3.847l2.366-7.529 2.806 1.967 3.059-2.32 3.182 2.339 3.305-2.533 3.388 2.55 2.295-2.113z"></path>
<path fill="#e8c2d8" d="M2.473 0.215l0.517 1.455c0.022 0.062 0.066 0.112 0.121 0.137l1.292 0.582c0.183 0.082 0.183 0.373 0 0.455l-1.292 0.582c-0.055 0.025-0.099 0.074-0.121 0.137l-0.517 1.455c-0.073 0.205-0.332 0.205-0.405 0l-0.517-1.455c-0.022-0.062-0.066-0.112-0.121-0.137l-1.292-0.582c-0.183-0.082-0.183-0.373 0-0.456l1.292-0.582c0.055-0.025 0.099-0.074 0.121-0.137l0.517-1.455c0.073-0.205 0.332-0.205 0.405 0z"></path>
<path fill="#e8c2d8" d="M30.466 2.873l0.384 1.079c0.016 0.046 0.049 0.083 0.090 0.101l0.959 0.432c0.135 0.061 0.135 0.277 0 0.338l-0.959 0.432c-0.041 0.019-0.074 0.055-0.090 0.101l-0.384 1.079c-0.054 0.152-0.246 0.152-0.3 0l-0.384-1.079c-0.016-0.046-0.049-0.083-0.090-0.101l-0.959-0.432c-0.135-0.061-0.135-0.277 0-0.338l0.959-0.432c0.041-0.019 0.074-0.055 0.090-0.101l0.384-1.079c0.054-0.152 0.246-0.152 0.3 0z"></path>
<path fill="#d789b9" d="M6.961 0.508c0 0.269-0.218 0.487-0.487 0.487s-0.487-0.218-0.487-0.487 0.218-0.487 0.487-0.487c0.269 0 0.487 0.218 0.487 0.487z"></path>
<path fill="#3c122c" d="M28.191 26.92c0.658-0.482 1.13-0.961 1.414-1.285 0.528-0.603 1.362-1.743 1.012-2.601s-1.744-1.089-2.543-1.149c-0.489-0.037-1.292-0.048-2.252 0.128 0.184-0.196 0.361-0.4 0.53-0.61 0.293 0.089 0.603 0.138 0.925 0.138 1.773 0 3.216-1.443 3.216-3.216 0-0.658-0.2-1.271-0.541-1.781 0.164-0.473 0.265-0.98 0.302-1.521 0.001-0.016 0.002-0.033 0.002-0.049v-1.163c0-6.841-5.566-12.407-12.407-12.407h-3.831c-6.841 0-12.407 5.566-12.407 12.407v1.163c0 0.010 0 0.020 0.001 0.030 0.024 0.583 0.131 1.1 0.29 1.559-0.334 0.506-0.528 1.112-0.528 1.763 0 1.773 1.443 3.216 3.216 3.216 0.322 0 0.633-0.048 0.926-0.137 0.169 0.21 0.346 0.413 0.53 0.609-0.959-0.176-1.762-0.165-2.252-0.128-0.799 0.061-2.193 0.291-2.543 1.149s0.483 1.998 1.012 2.601c0.284 0.324 0.756 0.804 1.414 1.286-0.608 0.477-1.043 0.942-1.309 1.26-0.514 0.615-1.321 1.774-0.95 2.624s1.769 1.047 2.57 1.090c0.12 0.006 0.258 0.011 0.413 0.011 0.742 0 1.861-0.099 3.097-0.55 0.003 0.346 0.283 0.625 0.63 0.625 0.348 0 0.63-0.282 0.63-0.63v-2.111c0-1.685 0.584-3.236 1.56-4.463 0.589 0.202 1.201 0.353 1.831 0.449-1.108 1.022-1.803 2.485-1.803 4.107v2.257c0 0.209 0.169 0.378 0.378 0.378s0.378-0.169 0.378-0.378v-2.257c0-0.589 0.107-1.153 0.3-1.676l1.217 0.693c0.116 0.066 0.258 0.066 0.374 0l1.362-0.775 1.362 0.775c0.058 0.033 0.122 0.049 0.187 0.049s0.129-0.017 0.187-0.049l1.362-0.775 1.362 0.775c0.116 0.066 0.258 0.066 0.374 0l1.272-0.724c0.201 0.531 0.311 1.106 0.311 1.707v2.257c0 0.209 0.169 0.378 0.378 0.378s0.378-0.169 0.378-0.378v-2.257c0-1.623-0.695-3.085-1.803-4.108 0.63-0.095 1.242-0.246 1.831-0.448 0.976 1.226 1.56 2.777 1.56 4.463v2.111c0 0.348 0.282 0.63 0.63 0.63 0.346 0 0.627-0.28 0.63-0.625 1.236 0.451 2.354 0.55 3.097 0.55 0.155 0 0.293-0.004 0.413-0.011 0.801-0.042 2.199-0.239 2.57-1.090s-0.436-2.009-0.951-2.624c-0.266-0.318-0.701-0.783-1.309-1.26zM13.73 24.084c-3.713 0-6.923-2.19-8.407-5.347l1.968-6.259 1.977 1.386c0.264 0.185 0.617 0.178 0.873-0.016l2.618-1.986 2.736 2.012c0.266 0.195 0.628 0.192 0.89-0.009l2.858-2.191 2.939 2.212c0.286 0.215 0.684 0.195 0.948-0.047l1.423-1.31 1.907 6.383c-1.52 3.061-4.678 5.172-8.321 5.172zM29.233 18.323c0 1.079-0.877 1.956-1.956 1.956-0.045 0-0.089-0.002-0.133-0.005 0.183-0.3 0.351-0.61 0.504-0.928 0.628-0.399 1.145-0.865 1.548-1.395 0.023 0.12 0.037 0.244 0.037 0.372zM3.093 13.808c0-6.024 4.901-10.925 10.925-10.925h3.831c6.024 0 10.925 4.901 10.925 10.925v1.138c-0.076 1.063-0.456 1.903-1.182 2.584l-1.96-6.561c-0.073-0.245-0.267-0.435-0.514-0.502-0.065-0.018-0.131-0.027-0.196-0.027-0.184 0-0.363 0.068-0.502 0.196l-1.841 1.695-2.895-2.179c-0.266-0.2-0.632-0.198-0.896 0.004l-2.863 2.195-2.734-2.010c-0.264-0.194-0.625-0.192-0.887 0.007l-2.628 1.994-2.363-1.657c-0.193-0.136-0.44-0.171-0.664-0.095s-0.398 0.254-0.469 0.479l-2.016 6.413c-0.566-0.616-1.022-1.399-1.071-2.525zM4.589 20.279c-1.079 0-1.956-0.877-1.956-1.956 0-0.113 0.011-0.224 0.029-0.331 0.483 0.652 1.026 1.101 1.386 1.398 0.077 0.064 0.165 0.109 0.258 0.137 0.129 0.255 0.267 0.505 0.415 0.747-0.044 0.003-0.088 0.005-0.132 0.005zM2.835 30.186c0.159-0.482 0.922-1.566 2.217-2.435 0.174 0.085 0.354 0.167 0.542 0.244 0.672 0.275 1.331 0.434 1.932 0.521-0.020 0.238-0.031 0.479-0.031 0.722v0.515c-0.029 0.013-0.056 0.027-0.085 0.040-2.016 0.879-3.987 0.662-4.574 0.392zM7.782 27.055c-0.525-0.073-1.077-0.207-1.627-0.432-2.036-0.831-3.255-2.395-3.471-3.005 0.581-0.283 2.546-0.547 4.582 0.285 0.572 0.233 1.076 0.538 1.513 0.867-0.439 0.7-0.778 1.468-0.997 2.285zM20.132 26.94l-1.135 0.646-1.362-0.775c-0.116-0.066-0.258-0.066-0.374 0l-1.362 0.775-1.362-0.775c-0.116-0.066-0.258-0.066-0.374 0l-1.362 0.775-1.085-0.618c0.369-0.655 0.886-1.216 1.506-1.637 0.168 0.008 0.336 0.012 0.505 0.012h4.407c0.169 0 0.338-0.005 0.506-0.012 0.611 0.415 1.122 0.965 1.49 1.609zM23.087 24.769c0.437-0.329 0.943-0.633 1.514-0.867 2.036-0.831 4.001-0.568 4.582-0.285-0.217 0.609-1.435 2.173-3.471 3.005-0.55 0.225-1.103 0.359-1.628 0.432-0.219-0.817-0.558-1.586-0.997-2.285zM24.457 29.794c-0.029-0.013-0.057-0.026-0.085-0.039v-0.516c0-0.243-0.011-0.484-0.031-0.722 0.601-0.088 1.26-0.247 1.932-0.521 0.189-0.077 0.368-0.159 0.542-0.244 1.295 0.869 2.058 1.953 2.216 2.435-0.588 0.27-2.558 0.487-4.575-0.392z"></path>
<path fill="#3c122c" d="M11.124 18.892c0 0.611-0.496 1.107-1.107 1.107s-1.107-0.496-1.107-1.107c0-0.611 0.496-1.107 1.107-1.107s1.107 0.496 1.107 1.107z"></path>
<path fill="#3c122c" d="M21.849 17.785c-0.611 0-1.107 0.496-1.107 1.107s0.496 1.107 1.107 1.107 1.107-0.496 1.107-1.107c0-0.611-0.496-1.107-1.107-1.107z"></path>
<path fill="#3c122c" d="M11.086 15.279c-0.049-0.025-0.499-0.246-1.069-0.246s-1.019 0.221-1.069 0.246c-0.185 0.095-0.258 0.321-0.165 0.506s0.321 0.26 0.507 0.168c0.003-0.002 0.334-0.164 0.726-0.164s0.723 0.163 0.725 0.164c0.055 0.028 0.114 0.041 0.171 0.041 0.137-0 0.27-0.075 0.337-0.206 0.095-0.186 0.021-0.413-0.165-0.508z"></path>
<path fill="#3c122c" d="M22.917 15.279c-0.049-0.025-0.499-0.246-1.069-0.246s-1.019 0.221-1.069 0.246c-0.185 0.095-0.258 0.321-0.165 0.506s0.321 0.26 0.507 0.168c0.003-0.002 0.334-0.164 0.727-0.164s0.723 0.163 0.725 0.164c0.055 0.028 0.114 0.041 0.172 0.041 0.137 0 0.27-0.075 0.337-0.206 0.095-0.186 0.021-0.413-0.165-0.508z"></path>
<path fill="#3c122c" d="M17.040 18.514c-0.209 0-0.378 0.169-0.378 0.378 0 0.402-0.327 0.729-0.729 0.729s-0.729-0.327-0.729-0.729c0-0.209-0.169-0.378-0.378-0.378s-0.378 0.169-0.378 0.378c0 0.819 0.666 1.485 1.485 1.485s1.485-0.666 1.485-1.485c0-0.209-0.169-0.378-0.378-0.378z"></path>
<path fill="#3c122c" d="M17.261 28.358c-0.209 0-0.378 0.169-0.378 0.378v0.714c0 0.209 0.169 0.378 0.378 0.378s0.378-0.169 0.378-0.378v-0.714c0-0.209-0.169-0.378-0.378-0.378z"></path>
<path fill="#3c122c" d="M19.096 29.34c-0.209 0-0.378 0.169-0.378 0.378v0.714c0 0.209 0.169 0.378 0.378 0.378s0.378-0.169 0.378-0.378v-0.714c0-0.209-0.169-0.378-0.378-0.378z"></path>
<path fill="#fff" d="M9.487 6.587c-0.204 0-0.403-0.098-0.525-0.28-0.193-0.289-0.115-0.68 0.175-0.873 0.107-0.071 0.436-0.277 0.675-0.374 0.322-0.131 0.69 0.024 0.821 0.347s-0.024 0.69-0.347 0.821c-0.098 0.040-0.322 0.17-0.45 0.255-0.107 0.072-0.229 0.106-0.349 0.106z"></path>
<path fill="#fff" d="M6.498 9.388c-0.115 0-0.232-0.032-0.337-0.098-0.294-0.186-0.381-0.575-0.195-0.869 0.572-0.903 1.236-1.545 1.692-1.924 0.268-0.222 0.665-0.186 0.887 0.082s0.186 0.665-0.082 0.887c-0.386 0.321-0.949 0.864-1.433 1.629-0.12 0.189-0.324 0.293-0.533 0.293z"></path>
</svg>
