<!-- Generated by IcoMoon.io -->
<svg version="1.1" xmlns="http://www.w3.org/2000/svg" width="32" height="32" viewBox="0 0 32 32">
<title>gnome</title>
<path fill="#c1e5ef" d="M23.764 31.357v-2.099c0-4.288-3.476-7.764-7.764-7.764s-7.764 3.476-7.764 7.764v2.099z"></path>
<path fill="#9781dd" d="M10.882 29.793h10.169v1.563h-10.169z"></path>
<path fill="#8962de" d="M18.427 29.927c-0.178 0.095-0.38 0.149-0.596 0.149h-7.014v1.28h10.365v-1.429z"></path>
<path fill="#a6aaed" d="M19.097 28.361v0.449c0 0.347-0.14 0.661-0.366 0.89h2.451v-0.327c0-2.679-2.032-4.882-4.639-5.154 1.499 0.674 2.553 2.274 2.553 4.142z"></path>
<path fill="#efc5b4" d="M27.996 15.935c0.036-0.341 0.054-0.686 0.054-1.036v-0c0-0.213-0.008-0.425-0.021-0.635h-24.059c-0.013 0.21-0.021 0.422-0.021 0.635v0c0 0.35 0.019 0.695 0.054 1.036-1.071 0.31-1.855 1.298-1.855 2.469 0 1.42 1.151 2.571 2.571 2.571 0.405 0 0.787-0.094 1.128-0.26 1.794 2.451 4.691 4.043 7.961 4.043h4.382c3.27 0 6.167-1.592 7.961-4.043 0.341 0.166 0.723 0.26 1.128 0.26 1.42 0 2.571-1.151 2.571-2.571-0-1.171-0.784-2.159-1.855-2.469z"></path>
<path fill="#fff" d="M2.495 12.96v1.157c0.082 2.031 1.152 3.097 2.012 3.807l0.063 2.099c-0.233 4.117 2.152 4.713 3.455 4.047 0 1.552 1.219 2.811 2.723 2.811 1.192 0 2.204-0.791 2.573-1.892 0.209 1.528 1.328 2.695 2.678 2.695s2.469-1.167 2.678-2.695c0.369 1.101 1.381 1.892 2.573 1.892 1.504 0 2.723-1.259 2.723-2.811 1.274 0.391 3.292-0.159 3.455-4.047l0.156-2.144c1.177-0.729 1.791-1.843 1.919-3.762v-1.157h-27.009zM24.873 18.991c0 1.652-1.339 2.991-2.991 2.991s-2.991-1.339-2.991-2.991h0c0-1.597-1.294-2.891-2.891-2.891s-2.891 1.294-2.891 2.891h0c0 1.652-1.339 2.991-2.991 2.991s-2.991-1.339-2.991-2.991c0 0-0.294-2.98 1.473-4.745l15.195 0.117c1.282 1.756 1.078 4.628 1.078 4.628z"></path>
<path fill="#e1bdfc" d="M24.954 14.059c-0.206 0.109-0.463 0.219-0.779 0.415l0.669 3.146c-0.136 3.076-1.116 3.681-2.21 4.143-0.178 0.77-1.088 1.472-2.38 1.472-0.313 0-0.611-0.063-0.884-0.178-0.76-0.32-1.641-0.183-2.269 0.351-0.382 0.325-0.852 0.517-1.359 0.517s-0.976-0.192-1.359-0.517c-0.628-0.534-1.509-0.672-2.269-0.351-0.273 0.115-0.748 0.705-1.061 0.705-0.825 0-1.373 0.055-1.79-0.611-0.334-0.534-0.895-0.893-1.519-0.98-0.622-0.087-2.436 0.080-3.184-2.299l0.008 0.284c-0.279 3.612 1.831 5.263 3.455 4.047 0 1.552 1.219 2.811 2.723 2.811 1.192 0 2.204-0.791 2.573-1.892 0.209 1.528 1.328 2.695 2.678 2.695s2.469-1.167 2.678-2.695c0.369 1.101 1.381 1.892 2.573 1.892 1.504 0 2.723-1.259 2.723-2.811 1.687 0.804 3.246-0.755 3.455-4.047l0.156-2.144c1.177-0.729 1.791-1.843 1.919-3.762v-0.19z"></path>
<path fill="#d789b9" d="M29.319 10.177h-1.459c-0.809-1.412-5.726-9.534-11.861-9.534s-11.052 8.121-11.861 9.534h-1.459c-1.135 0-2.054 0.92-2.054 2.054s0.92 2.054 2.054 2.054h26.639c1.135 0 2.054-0.92 2.054-2.054s-0.92-2.054-2.054-2.054z"></path>
<path fill="#c668b9" d="M16 0.643c-0.632 0-1.251 0.086-1.854 0.242 0.251-0.037 0.506-0.058 0.763-0.058 2.547 0 4.807 1.913 6.393 3.757 1.137 1.322 0.19 3.37-1.554 3.37h-13.602s1.372-2.541 3.524-4.588c-3.415 2.882-5.648 7.019-5.648 7.019h23.955s-5.259-9.742-11.977-9.742z"></path>
<path fill="#f6e06e" d="M17.134 31.594h-2.41c-0.382 0-0.691-0.309-0.691-0.691v-1.067c0-0.382 0.309-0.691 0.691-0.691h2.41c0.382 0 0.691 0.31 0.691 0.691v1.067c0 0.382-0.31 0.691-0.691 0.691z"></path>
<path fill="#e8c2d8" d="M2.57 1.67l0.514 1.447c0.022 0.062 0.066 0.111 0.121 0.136l1.285 0.579c0.182 0.082 0.182 0.371 0 0.453l-1.285 0.579c-0.055 0.025-0.099 0.074-0.121 0.136l-0.514 1.447c-0.073 0.204-0.33 0.204-0.402 0l-0.514-1.447c-0.022-0.062-0.066-0.111-0.121-0.136l-1.285-0.579c-0.182-0.082-0.182-0.371 0-0.453l1.285-0.579c0.055-0.025 0.099-0.074 0.121-0.136l0.514-1.447c0.073-0.204 0.33-0.204 0.402 0z"></path>
<path fill="#e8c2d8" d="M29.998 24.438l0.382 1.073c0.016 0.046 0.049 0.082 0.090 0.101l0.953 0.43c0.135 0.061 0.135 0.275 0 0.336l-0.953 0.43c-0.041 0.018-0.073 0.055-0.090 0.101l-0.382 1.073c-0.054 0.152-0.245 0.152-0.299 0l-0.382-1.073c-0.016-0.046-0.049-0.082-0.090-0.101l-0.953-0.43c-0.135-0.061-0.135-0.275 0-0.336l0.953-0.43c0.041-0.018 0.073-0.055 0.090-0.101l0.382-1.073c0.054-0.152 0.245-0.152 0.299 0z"></path>
<path fill="#d789b9" d="M7.128 1.034c0.268 0 0.485 0.217 0.485 0.485s-0.217 0.485-0.485 0.485-0.485-0.217-0.485-0.485c0-0.268 0.217-0.485 0.485-0.485z"></path>
<path fill="#d789b9" d="M27.15 28.017c0.268 0 0.485 0.217 0.485 0.485s-0.217 0.485-0.485 0.485-0.485-0.217-0.485-0.485c0-0.268 0.217-0.485 0.485-0.485z"></path>
<path fill="#fff" d="M12.047 3.942c-0.818 0.565-1.517 1.228-2.092 1.801-0.245 0.244-0.246 0.641-0.002 0.886 0.122 0.123 0.283 0.184 0.444 0.184s0.32-0.061 0.442-0.183c0.536-0.534 1.184-1.149 1.92-1.658 0.285-0.197 0.356-0.587 0.159-0.871s-0.587-0.356-0.871-0.159z"></path>
<path fill="#fff" d="M14.55 2.801c-0.237 0.053-0.475 0.121-0.708 0.203-0.326 0.115-0.497 0.473-0.382 0.799 0.091 0.257 0.332 0.418 0.591 0.418 0.069 0 0.139-0.012 0.208-0.036 0.186-0.065 0.375-0.12 0.563-0.161 0.338-0.075 0.551-0.409 0.476-0.747s-0.41-0.551-0.747-0.476z"></path>
<path fill="#3c122c" d="M32 12.231c0-1.478-1.203-2.681-2.681-2.681h-1.099c-0.514-0.865-1.648-2.648-3.243-4.451-1.29-1.458-2.614-2.623-3.936-3.462-1.692-1.075-3.388-1.62-5.042-1.62s-3.35 0.545-5.042 1.62c-1.322 0.84-2.646 2.005-3.936 3.462-1.595 1.803-2.729 3.586-3.243 4.451h-1.099c-1.478 0-2.681 1.203-2.681 2.681 0 1.175 0.76 2.175 1.815 2.536 0.083 0.601 0.247 1.122 0.463 1.577-0.47 0.557-0.755 1.275-0.755 2.060 0 1.467 0.994 2.705 2.343 3.080 0.194 1.772 0.948 2.655 1.621 3.093 0.576 0.375 1.263 0.525 1.928 0.44 0.137 0.507 0.382 0.968 0.707 1.357-0.33 0.899-0.511 1.87-0.511 2.883v2.099c0 0.346 0.28 0.626 0.626 0.626s0.626-0.28 0.626-0.626v-2.099c0-0.708 0.104-1.392 0.297-2.038 0.468 0.249 0.998 0.392 1.56 0.397-0.18 0.546-0.277 1.128-0.277 1.733v2.244c0 0.207 0.168 0.376 0.376 0.376s0.376-0.168 0.376-0.376v-1.448h2.464v0.756c0 0.588 0.479 1.067 1.067 1.067h2.41c0.588 0 1.067-0.479 1.067-1.067v-0.756h2.606v1.448c0 0.207 0.168 0.376 0.376 0.376s0.376-0.168 0.376-0.376v-2.244c0-0.605-0.098-1.188-0.277-1.733 0.562-0.005 1.092-0.148 1.56-0.397 0.193 0.646 0.297 1.33 0.297 2.038v2.099c0 0.346 0.28 0.626 0.626 0.626s0.626-0.28 0.626-0.626v-2.099c0-1.013-0.181-1.983-0.511-2.883 0.347-0.416 0.603-0.914 0.734-1.462 0.635 0.013 1.254-0.171 1.778-0.542 0.815-0.576 1.354-1.533 1.611-2.853 1.416-0.328 2.476-1.599 2.476-3.114 0-0.757-0.265-1.453-0.706-2.001 0.196-0.478 0.331-1.020 0.41-1.634 1.057-0.36 1.819-1.361 1.819-2.538zM16 1.27c4.933 0 9.151 5.779 10.746 8.281h-21.492c1.593-2.502 5.807-8.281 10.746-8.281zM1.253 12.231c0-0.787 0.641-1.428 1.428-1.428h26.639c0.787 0 1.428 0.641 1.428 1.428s-0.641 1.428-1.428 1.428h-26.639c-0.787 0-1.428-0.641-1.428-1.428zM24.498 18.965c-0.001 0.009-0.001 0.018-0.001 0.027 0 1.442-1.173 2.615-2.615 2.615-1.438 0-2.609-1.167-2.615-2.604 0-0.004 0-0.007 0-0.011 0-1.801-1.466-3.267-3.267-3.267s-3.267 1.466-3.267 3.267c0 0.004 0 0.009 0 0.013-0.007 1.436-1.177 2.602-2.615 2.602-1.442 0-2.615-1.173-2.615-2.615 0-0.012-0.001-0.024-0.002-0.037-0.003-0.026-0.215-2.406 1.017-4.043h15.186c0.949 1.636 0.796 4.027 0.794 4.052zM2.775 18.404c0-0.333 0.085-0.646 0.233-0.921 0.248 0.299 0.512 0.559 0.773 0.789l0.052 1.741c-0.002 0.040-0.003 0.078-0.005 0.118-0.625-0.324-1.053-0.976-1.053-1.727zM17.45 30.903c0 0.174-0.142 0.316-0.316 0.316h-2.41c-0.174 0-0.316-0.142-0.316-0.316v-1.067c0-0.174 0.142-0.316 0.316-0.316h2.41c0.174 0 0.316 0.142 0.316 0.316zM18.105 29.395c-0.168-0.369-0.54-0.626-0.971-0.626h-2.41c-0.431 0-0.802 0.258-0.971 0.626h-2.56v-0.045c0-0.648 0.129-1.266 0.363-1.831 0.589-0.145 1.127-0.445 1.562-0.865 0.619 1.077 1.683 1.766 2.882 1.766s2.262-0.689 2.882-1.766c0.435 0.419 0.973 0.72 1.562 0.865 0.234 0.565 0.363 1.183 0.363 1.831v0.045zM26.851 17.826l-0.156 2.144c-0.001 0.008-0.001 0.015-0.001 0.023-0.084 2.010-0.674 2.836-1.154 3.176-0.544 0.385-1.124 0.266-1.349 0.197s-0.466-0.027-0.654 0.112c-0.188 0.139-0.299 0.359-0.299 0.593 0 1.144-0.891 2.074-1.986 2.074-0.843 0-1.596-0.558-1.875-1.389-0.109-0.325-0.427-0.531-0.768-0.499s-0.615 0.294-0.661 0.634c-0.161 1.173-0.998 2.058-1.948 2.058s-1.787-0.885-1.948-2.058c-0.046-0.339-0.32-0.602-0.661-0.634-0.023-0.002-0.046-0.003-0.069-0.003-0.314 0-0.597 0.2-0.698 0.503-0.278 0.831-1.032 1.389-1.875 1.389-1.095 0-1.986-0.93-1.986-2.074 0-0.256-0.133-0.495-0.352-0.628s-0.492-0.144-0.72-0.028c-0.334 0.17-0.901 0.254-1.399-0.071-0.728-0.474-1.077-1.638-0.985-3.278 0.001-0.021 0.001-0.042 0.001-0.064l-0.063-2.099c-0.006-0.212-0.104-0.411-0.267-0.546-0.711-0.587-1.384-1.293-1.64-2.444h4.277c-1.035 1.743-0.885 3.853-0.863 4.097 0.010 1.848 1.516 3.349 3.367 3.349 1.857 0 3.367-1.51 3.367-3.367 0-0.004-0-0.009-0-0.013 0.007-1.381 1.133-2.503 2.516-2.503s2.509 1.122 2.516 2.505c-0 0.004-0 0.007-0 0.011 0 1.857 1.51 3.367 3.367 3.367 1.852 0 3.36-1.503 3.367-3.354 0.014-0.215 0.127-2.353-0.697-4.092h4.118c-0.2 1.128-0.653 1.834-1.472 2.341-0.201 0.124-0.33 0.337-0.347 0.573zM29.225 18.404c0 0.755-0.433 1.411-1.063 1.733 0.001-0.024 0.003-0.048 0.004-0.072l0.129-1.775c0.285-0.207 0.535-0.437 0.755-0.693 0.113 0.246 0.176 0.519 0.176 0.807z"></path>
<path fill="#3c122c" d="M8.892 15.881c0.093 0.185 0.319 0.259 0.504 0.167 0.003-0.002 0.332-0.163 0.722-0.163s0.719 0.162 0.721 0.163c0.055 0.028 0.113 0.041 0.171 0.041 0.137 0 0.269-0.075 0.335-0.205 0.094-0.185 0.021-0.411-0.164-0.506-0.049-0.025-0.496-0.245-1.063-0.245s-1.013 0.22-1.062 0.245c-0.184 0.094-0.257 0.319-0.164 0.504z"></path>
<path fill="#3c122c" d="M21.161 16.047c0.003-0.002 0.33-0.163 0.721-0.163 0.39 0 0.719 0.162 0.721 0.163 0.055 0.028 0.113 0.041 0.171 0.041 0.137 0 0.269-0.075 0.335-0.205 0.094-0.185 0.021-0.411-0.164-0.506-0.049-0.025-0.496-0.245-1.062-0.245s-1.013 0.22-1.063 0.245c-0.185 0.094-0.258 0.321-0.164 0.506s0.321 0.258 0.505 0.164z"></path>
<path fill="#3c122c" d="M17.101 18.594c-0.207 0-0.376 0.168-0.376 0.376 0 0.4-0.325 0.725-0.725 0.725s-0.725-0.325-0.725-0.725c0-0.207-0.168-0.376-0.376-0.376s-0.376 0.168-0.376 0.376c0 0.814 0.662 1.476 1.476 1.476s1.476-0.662 1.476-1.476c0-0.207-0.168-0.376-0.376-0.376z"></path>
<path fill="#3c122c" d="M16.61 29.998h-1.219c-0.207 0-0.376 0.168-0.376 0.376s0.168 0.376 0.376 0.376h1.219c0.207 0 0.376-0.168 0.376-0.376s-0.168-0.376-0.376-0.376z"></path>
<path fill="#3c122c" d="M22.528 6.998c-0.207 0-0.376 0.168-0.376 0.376v0.71c0 0.207 0.168 0.376 0.376 0.376s0.376-0.168 0.376-0.376v-0.71c0-0.207-0.168-0.376-0.376-0.376z"></path>
<path fill="#3c122c" d="M20.53 4.769c-0.207 0-0.376 0.168-0.376 0.376v0.71c0 0.207 0.168 0.376 0.376 0.376s0.376-0.168 0.376-0.376v-0.71c0-0.208-0.168-0.376-0.376-0.376z"></path>
<path fill="#3c122c" d="M18.628 6.191c-0.207 0-0.376 0.168-0.376 0.376v0.71c0 0.207 0.168 0.376 0.376 0.376s0.376-0.168 0.376-0.376v-0.71c0-0.207-0.168-0.376-0.376-0.376z"></path>
<path fill="#3c122c" d="M10.118 17.869c-0.608 0-1.101 0.493-1.101 1.101s0.493 1.101 1.101 1.101 1.101-0.493 1.101-1.101c0-0.608-0.493-1.101-1.101-1.101z"></path>
<path fill="#3c122c" d="M21.882 17.869c-0.608 0-1.101 0.493-1.101 1.101s0.493 1.101 1.101 1.101c0.608 0 1.101-0.493 1.101-1.101s-0.493-1.101-1.101-1.101z"></path>
</svg>
