<!-- Generated by IcoMoon.io -->
<svg version="1.1" xmlns="http://www.w3.org/2000/svg" width="32" height="32" viewBox="0 0 32 32">
<title>indian-woman</title>
<path fill="#9781dd" d="M27.164 26.821h-22.341c-1.079 0-1.954-0.875-1.954-1.954v-10.448c0-6.051 4.905-10.956 10.956-10.956h4.337c6.051 0 10.956 4.905 10.956 10.956v10.448c-0 1.079-0.875 1.954-1.954 1.954z"></path>
<path fill="#c49a8b" d="M23.763 31.35v-2.101c0-4.291-3.479-7.77-7.77-7.77s-7.77 3.479-7.77 7.77v2.101z"></path>
<path fill="#a07575" d="M13.714 24.706c-1.721 0.844-2.907 2.613-2.907 4.659v1.985h2.907z"></path>
<path fill="#a07575" d="M18.346 24.743v6.607h2.834v-1.985c-0-2.017-1.152-3.764-2.834-4.622z"></path>
<path fill="#925873" d="M16.538 24.228c1.5 0.675 2.555 2.276 2.555 4.145v0.45c0 0.7-0.567 1.267-1.267 1.267h-7.019v1.281h10.373v-1.985c0-2.681-2.034-4.886-4.642-5.158z"></path>
<path fill="#b2748a" d="M18.365 29.968c-0.164 0.077-0.346 0.122-0.539 0.122h-4.242v1.281h4.782z"></path>
<path fill="#c49a8b" d="M27.999 15.916c0.036-0.341 0.054-0.687 0.054-1.037 0-0.254-0.010-0.506-0.029-0.755h-24.062c-0.019 0.249-0.029 0.501-0.029 0.755 0 0.35 0.019 0.696 0.054 1.037-1.072 0.31-1.856 1.299-1.856 2.471 0 1.421 1.152 2.573 2.573 2.573 0.405 0 0.788-0.094 1.129-0.261 1.795 2.453 4.695 4.046 7.967 4.046h4.385c3.272 0 6.172-1.593 7.967-4.046 0.341 0.167 0.724 0.261 1.129 0.261 1.421 0 2.573-1.152 2.573-2.573 0-1.172-0.784-2.161-1.856-2.471z"></path>
<path fill="#b2748a" d="M24.91 14.125c-0.203 4.237-3.702 7.61-7.99 7.61h-4.988c-4.228 0-7.689-3.28-7.979-7.434-0.013 0.206-0.020 0.414-0.020 0.623 0 5.449 4.418 9.867 9.867 9.867h4.385c5.449 0 9.867-4.418 9.867-9.867 0-0.269-0.011-0.535-0.032-0.799z"></path>
<path fill="#e8a284" d="M28.669 5.336c0 2.601-0.883 4.709-1.972 4.709s-1.972-2.108-1.972-4.709c0-2.601 0.883-4.709 1.972-4.709s1.972 2.108 1.972 4.709z"></path>
<path fill="#a1e8c3" d="M29.275 14.139h-26.564v-3.096c0-1.010 0.819-1.829 1.829-1.829h22.907c1.010 0 1.829 0.819 1.829 1.829z"></path>
<path fill="#f6e06e" d="M7.401 13.544c-1.259-1.365-2.519-2.729-3.778-4.094-0.543 0.324-0.911 0.95-0.911 1.669v3.021h4.139z"></path>
<path fill="#f6e06e" d="M15.208 13.194l-3.296-3.572c-1.39 1.506-2.779 3.012-4.169 4.517h7.347l0.372-0.403c-0.224-0.012-0.418-0.311-0.253-0.543z"></path>
<path fill="#f6e06e" d="M15.981 14.139h8.121c-1.354-1.467-2.707-2.933-4.061-4.4z"></path>
<path fill="#f6e06e" d="M28.664 9.676c-1.298 1.407-2.596 2.813-3.895 4.22l0.021 0.023c0.063 0.069 0.091 0.146 0.093 0.221h4.393v-3.021c0-0.577-0.237-1.094-0.611-1.443z"></path>
<path fill="#ccf3e2" d="M30.243 28.097l0.382 1.074c0.016 0.046 0.049 0.082 0.090 0.101l0.954 0.43c0.135 0.061 0.135 0.276 0 0.336l-0.954 0.43c-0.041 0.018-0.073 0.055-0.090 0.101l-0.382 1.074c-0.054 0.152-0.245 0.152-0.299 0l-0.382-1.074c-0.016-0.046-0.049-0.082-0.090-0.101l-0.954-0.43c-0.135-0.061-0.135-0.276 0-0.336l0.954-0.43c0.041-0.018 0.073-0.055 0.090-0.101l0.382-1.074c0.054-0.152 0.245-0.152 0.299 0z"></path>
<path fill="#a1e8c3" d="M6.319 0.796c0.549 0.289 0.76 0.969 0.471 1.519s-0.969 0.76-1.519 0.471c-0.549-0.289-0.76-0.969-0.471-1.519s0.969-0.76 1.519-0.471z"></path>
<path fill="#ccf3e2" d="M2.056 3.515l0.382 1.074c0.016 0.046 0.049 0.082 0.090 0.101l0.954 0.43c0.135 0.061 0.135 0.276 0 0.336l-0.954 0.43c-0.041 0.018-0.073 0.055-0.090 0.101l-0.382 1.074c-0.054 0.152-0.245 0.152-0.299 0l-0.382-1.074c-0.016-0.046-0.049-0.082-0.090-0.101l-0.954-0.43c-0.135-0.061-0.135-0.276 0-0.336l0.954-0.43c0.041-0.018 0.073-0.055 0.090-0.101l0.382-1.074c0.054-0.152 0.245-0.152 0.299-0z"></path>
<path fill="#3c122c" d="M30.482 18.387c0-0.775-0.277-1.486-0.737-2.040v-1.794c0.098-0.111 0.157-0.255 0.157-0.414v-3.096c0-0.958-0.552-1.79-1.355-2.194 0.451-0.985 0.749-2.255 0.749-3.514 0-1.665-0.527-2.975-0.842-3.608-0.32-0.645-0.974-1.727-1.757-1.727s-1.437 1.082-1.757 1.727c-0.26 0.523-0.665 1.509-0.797 2.776-1.747-1.058-3.794-1.667-5.981-1.667h-4.337c-4.317 0-8.090 2.375-10.082 5.886-0.964 0.332-1.659 1.247-1.659 2.322v3.096c0 0.159 0.060 0.304 0.157 0.414v1.794c-0.46 0.554-0.737 1.265-0.737 2.039s0.277 1.486 0.737 2.040v4.439c0 1.423 1.158 2.581 2.581 2.581h2.969c-0.127 0.581-0.195 1.183-0.195 1.801v2.101c0 0.346 0.281 0.627 0.627 0.627s0.627-0.281 0.627-0.627v-2.101c0-1.677 0.581-3.221 1.552-4.441 0.586 0.201 1.195 0.352 1.822 0.447-1.102 1.017-1.794 2.473-1.794 4.087v2.245c0 0.208 0.168 0.376 0.376 0.376s0.376-0.168 0.376-0.376v-2.245c0-1.655 0.841-3.115 2.116-3.981 0.010 0 0.021 0.001 0.031 0.001v6.245c0 0.208 0.168 0.376 0.376 0.376s0.376-0.168 0.376-0.376v-6.234h3.821v6.251c0 0.208 0.168 0.376 0.376 0.376s0.376-0.168 0.376-0.376v-6.262c0.011-0 0.022-0.001 0.032-0.001 1.276 0.866 2.116 2.326 2.116 3.981v2.245c0 0.208 0.168 0.376 0.376 0.376s0.376-0.168 0.376-0.376v-2.245c0-1.614-0.692-3.070-1.794-4.087 0.627-0.095 1.236-0.245 1.822-0.447 0.971 1.22 1.553 2.764 1.553 4.441v2.101c0 0.346 0.281 0.627 0.627 0.627s0.627-0.281 0.627-0.627v-2.101c0-0.618-0.068-1.221-0.195-1.801h2.969c1.423 0 2.581-1.158 2.581-2.581v-4.439c0.46-0.554 0.737-1.266 0.737-2.040zM18.186 24.12h-4.385c-5.095 0-9.24-4.145-9.24-9.24 0-0.038 0.002-0.075 0.002-0.113h22.861c0 0.038 0.002 0.075 0.002 0.113-0 5.095-4.145 9.24-9.24 9.24zM2.759 18.387c0-0.617 0.289-1.167 0.738-1.524 0.24 1.247 0.7 2.416 1.34 3.465-0.043 0.003-0.087 0.005-0.131 0.005-1.073 0-1.946-0.873-1.946-1.946zM27.447 9.842c0.025 0 0.049 0.002 0.073 0.004-0.005 0.005-0.009 0.009-0.014 0.014l-3.117 3.377-3.133-3.394zM3.338 11.044c0-0.194 0.047-0.378 0.13-0.54l2.777 3.009h-2.907zM22.939 13.513h-5.771l2.885-3.127zM15.853 13.089l-2.997-3.248h5.994zM14.538 13.513h-5.717l2.858-3.097zM7.533 13.060l-2.97-3.218h5.94zM28.491 16.864c0.449 0.357 0.738 0.906 0.738 1.523 0 1.073-0.873 1.946-1.946 1.946-0.044 0-0.088-0.002-0.131-0.005 0.64-1.049 1.1-2.218 1.34-3.465zM28.649 13.513h-2.809l2.587-2.803c0.047-0.051 0.083-0.108 0.11-0.168 0.071 0.153 0.111 0.323 0.111 0.502zM25.964 2.494c0.276-0.612 0.562-0.991 0.733-1.163 0.172 0.172 0.458 0.551 0.733 1.163 0.394 0.876 0.612 1.885 0.612 2.841 0 1.38-0.382 2.525-0.766 3.253h-1.159c-0.384-0.727-0.766-1.873-0.766-3.253-0-0.956 0.217-1.965 0.612-2.841zM13.825 4.089h4.337c2.22 0 4.279 0.705 5.964 1.901 0.073 0.928 0.296 1.834 0.609 2.598h-19.431c1.863-2.715 4.987-4.499 8.521-4.499zM8.173 26.194h-3.35c-0.732 0-1.327-0.596-1.327-1.328v-3.518c0.373 0.153 0.782 0.238 1.209 0.238 0.32 0 0.63-0.048 0.921-0.136 0.965 1.197 2.186 2.179 3.58 2.861-0.42 0.576-0.769 1.208-1.034 1.882zM27.164 26.194h-3.35c-0.264-0.674-0.613-1.306-1.033-1.882 1.394-0.682 2.616-1.664 3.58-2.862 0.292 0.088 0.601 0.137 0.921 0.137 0.428 0 0.836-0.085 1.209-0.238v3.518c0 0.732-0.595 1.328-1.327 1.328z"></path>
<path fill="#3c122c" d="M10.107 17.852c-0.608 0-1.101 0.493-1.101 1.101s0.493 1.102 1.101 1.102 1.101-0.493 1.101-1.102-0.493-1.101-1.101-1.101z"></path>
<path fill="#3c122c" d="M21.88 17.852c-0.608 0-1.102 0.493-1.102 1.101s0.493 1.102 1.102 1.102c0.608 0 1.102-0.493 1.102-1.102s-0.493-1.101-1.102-1.101z"></path>
<path fill="#3c122c" d="M11.17 15.358c-0.049-0.025-0.496-0.245-1.063-0.245s-1.014 0.22-1.063 0.245c-0.185 0.094-0.258 0.321-0.164 0.506s0.321 0.258 0.506 0.164c0.003-0.002 0.33-0.163 0.721-0.163 0.39 0 0.72 0.162 0.721 0.163 0.055 0.028 0.113 0.041 0.171 0.041 0.137 0 0.269-0.075 0.335-0.205 0.095-0.185 0.021-0.411-0.164-0.506z"></path>
<path fill="#3c122c" d="M22.943 15.358c-0.049-0.025-0.496-0.245-1.063-0.245s-1.014 0.22-1.063 0.245c-0.185 0.094-0.258 0.321-0.164 0.506s0.321 0.258 0.506 0.164c0.003-0.002 0.33-0.163 0.721-0.163 0.39 0 0.72 0.162 0.721 0.163 0.055 0.028 0.113 0.041 0.171 0.041 0.137 0 0.269-0.075 0.335-0.205 0.095-0.185 0.021-0.411-0.164-0.506z"></path>
<path fill="#3c122c" d="M17.095 18.577c-0.208 0-0.376 0.168-0.376 0.376 0 0.4-0.325 0.725-0.725 0.725s-0.725-0.325-0.725-0.725c0-0.208-0.168-0.376-0.376-0.376s-0.376 0.168-0.376 0.376c0 0.815 0.663 1.478 1.478 1.478s1.478-0.663 1.478-1.478c0-0.208-0.168-0.376-0.376-0.376z"></path>
<path fill="#fff" d="M11.569 6.879c-0.274 0-0.526-0.181-0.603-0.458-0.093-0.333 0.101-0.679 0.435-0.772 0.843-0.236 1.698-0.347 2.541-0.33 0.346 0.007 0.621 0.293 0.614 0.639s-0.292 0.621-0.639 0.614c-0.72-0.014-1.454 0.082-2.179 0.284-0.056 0.016-0.113 0.023-0.169 0.023z"></path>
<path fill="#fff" d="M9.654 7.666c-0.221 0-0.435-0.117-0.549-0.323-0.168-0.303-0.058-0.684 0.245-0.852 0.085-0.047 0.172-0.094 0.259-0.138 0.308-0.158 0.686-0.037 0.844 0.271s0.037 0.686-0.271 0.844c-0.075 0.039-0.151 0.079-0.225 0.12-0.096 0.053-0.2 0.079-0.303 0.079z"></path>
</svg>
