<!-- Generated by IcoMoon.io -->
<svg version="1.1" xmlns="http://www.w3.org/2000/svg" width="32" height="32" viewBox="0 0 32 32">
<title>little-red-riding-hood</title>
<path fill="#d789b9" d="M27.955 9.832c-1.155-2.334-6.504-9.205-12.464-9.205-5.927 0-11.461 6.939-12.548 9.376-4.621 10.354 5.211 16.459 5.211 16.459l0.081 0c-0.337 0.871-0.522 1.817-0.522 2.807v2.103h4.519l3.195-0.42 3.375 0.42h4.468v-2.103c0-0.986-0.184-1.928-0.518-2.796 0.772-0.506 9.781-6.683 5.204-16.641z"></path>
<path fill="#c1e5ef" d="M18.494 31.368c-0.458-0.916-1.862-3.701-2.915-5.883-1.047 1.933-2.044 3.894-2.972 5.887z"></path>
<path fill="#efc5b4" d="M27.51 15.921c0.036-0.341 0.054-0.687 0.054-1.038 0-5.456-4.423-8.066-9.878-8.066h-4.39c-5.456 0-9.878 2.611-9.878 8.066 0 0.351 0.019 0.697 0.054 1.038-1.073 0.311-1.858 1.3-1.858 2.474 0 1.423 1.153 2.576 2.576 2.576 0.405 0 0.789-0.094 1.13-0.261 1.797 2.456 4.7 4.051 7.976 4.051h4.39c3.276 0 6.179-1.595 7.976-4.051 0.341 0.167 0.725 0.261 1.13 0.261 1.423 0 2.576-1.153 2.576-2.576 0-1.174-0.785-2.163-1.858-2.474z"></path>
<path fill="#d994b3" d="M25.639 9.030c-0.398-0.276-0.807-0.535-1.221-0.779-0.836-0.494-1.758-0.989-2.72-1.253 1.673 1.468 2.73 3.62 2.73 6.020v0.68c0 4.423-3.585 8.008-8.008 8.008h-4.993c-4.233 0-7.698-3.284-7.988-7.442-0.013 0.206-0.020 0.414-0.020 0.624v0c0 5.456 4.423 9.878 9.878 9.878h4.39c0.321 0 0.638-0.016 0.952-0.046 0.31-0.071 0.624-0.125 0.93-0.173 0.089-0.014 0.178-0.027 0.267-0.039 0.492-0.13 0.986-0.254 1.474-0.401-0.006-0.007-0.012-0.014-0.018-0.021 3.673-1.44 6.273-5.016 6.273-9.199v-0c0-2.193-0.716-4.219-1.926-5.858z"></path>
<path fill="#a6aaed" d="M12.559 30.727c-0.099 0.218-0.203 0.433-0.312 0.646h6.442c-0.281-0.422-0.552-0.85-0.783-1.298h-4.951c-0.128 0.22-0.262 0.436-0.396 0.653z"></path>
<path fill="#c668b9" d="M12.89 30.074h-5.177v1.298h4.499c0.224-0.434 0.447-0.869 0.678-1.298z"></path>
<path fill="#c668b9" d="M21.421 24.236h-0.177c-0.146 0.071-0.293 0.141-0.442 0.207-0.432 0.191-0.899 0.388-1.378 0.501 0.508 0.977 0.8 2.103 0.8 3.303v0.264c0 0.863-0.7 1.563-1.563 1.563h-0.81c0.091 0.198 0.182 0.397 0.272 0.596 0.027 0.045 0.055 0.090 0.083 0.136 0.133 0.188 0.264 0.377 0.393 0.567h4.672v-2.103c0-1.92-0.696-3.677-1.849-5.033z"></path>
<path fill="#a07575" d="M26.696 18.076c0.515-0.515 0.721-1.202 0.89-2.213v-0.924c0-5.118-4.66-8.084-10.409-8.084h-3.418c-5.749 0-10.409 2.966-10.409 8.084v0.924c0.098 0.805 0.441 2.007 0.682 2.075 4.588-1.86 11.859-4.659 16.106-8.173 1.501 3.246 4.092 5.731 6.559 8.31z"></path>
<path fill="#e8c2d8" d="M29.326 1.465l0.515 1.449c0.022 0.062 0.066 0.111 0.121 0.136l1.288 0.58c0.182 0.082 0.182 0.372 0 0.454l-1.288 0.58c-0.055 0.025-0.099 0.074-0.121 0.136l-0.515 1.449c-0.073 0.205-0.33 0.205-0.403 0l-0.515-1.449c-0.022-0.062-0.066-0.111-0.121-0.136l-1.288-0.58c-0.182-0.082-0.182-0.372 0-0.454l1.288-0.58c0.055-0.025 0.099-0.074 0.121-0.136l0.515-1.449c0.073-0.205 0.33-0.205 0.403 0z"></path>
<path fill="#e8c2d8" d="M2.441 0.844l0.382 1.075c0.016 0.046 0.049 0.082 0.090 0.101l0.955 0.43c0.135 0.061 0.135 0.276 0 0.337l-0.955 0.43c-0.041 0.018-0.073 0.055-0.090 0.101l-0.382 1.075c-0.054 0.152-0.245 0.152-0.299 0l-0.382-1.075c-0.016-0.046-0.049-0.083-0.090-0.101l-0.955-0.43c-0.135-0.061-0.135-0.276 0-0.337l0.955-0.43c0.041-0.018 0.073-0.055 0.090-0.101l0.382-1.075c0.054-0.152 0.245-0.152 0.299 0z"></path>
<path fill="#d789b9" d="M3.076 26.896c0.605 0.143 0.979 0.749 0.836 1.354s-0.749 0.979-1.354 0.836c-0.605-0.143-0.979-0.749-0.836-1.354s0.749-0.979 1.354-0.836z"></path>
<path fill="#d789b9" d="M24.114 0.645c0 0.268-0.217 0.486-0.485 0.486s-0.485-0.217-0.485-0.486c0-0.268 0.217-0.485 0.485-0.485s0.485 0.217 0.485 0.485z"></path>
<path fill="#3c122c" d="M29.996 18.395c0-0.445-0.092-0.869-0.257-1.255 0.012-0.078 0.023-0.156 0.034-0.234 0.313-2.387-0.107-4.855-1.247-7.336-0.003-0.005-0.005-0.011-0.008-0.016-0.663-1.34-2.377-3.684-4.572-5.665-1.966-1.774-5.028-3.889-8.454-3.889-3.428 0-6.519 2.14-8.509 3.936-2.321 2.094-4.018 4.481-4.612 5.812-1.102 2.47-1.501 4.919-1.184 7.279 0.008 0.062 0.019 0.123 0.028 0.184-0.147 0.367-0.227 0.766-0.227 1.185 0 1.145 0.604 2.151 1.51 2.717 0.237 0.457 0.502 0.908 0.797 1.351 1.529 2.294 3.405 3.752 4.175 4.294-0.249 0.794-0.384 1.638-0.384 2.513v2.103c0 0.346 0.281 0.627 0.627 0.627s0.627-0.281 0.627-0.627v-2.103c0-1.679 0.582-3.224 1.554-4.446 1.067 0.366 2.212 0.566 3.402 0.566h1.647l-3.139 6.039c-0.096 0.184-0.024 0.412 0.16 0.508 0.056 0.029 0.115 0.043 0.173 0.043 0.136 0 0.267-0.074 0.334-0.203l3.018-5.807 3.018 5.807c0.067 0.129 0.198 0.203 0.334 0.203 0.058 0 0.118-0.014 0.173-0.043 0.184-0.096 0.256-0.323 0.16-0.508l-3.139-6.039h1.647c1.19 0 2.334-0.199 3.401-0.566 0.973 1.221 1.555 2.767 1.555 4.446v2.103c0 0.346 0.281 0.627 0.627 0.627s0.627-0.281 0.627-0.627v-2.103c0-0.889-0.139-1.747-0.396-2.552 0.843-0.61 2.656-2.071 4.141-4.3 0.272-0.409 0.519-0.823 0.742-1.243 0.962-0.553 1.612-1.591 1.612-2.779zM3.516 10.259c0.452-1.013 1.972-3.285 4.307-5.391 1.826-1.648 4.64-3.613 7.669-3.613 5.348 0 10.601 6.237 11.898 8.848 0.887 1.933 1.296 3.824 1.228 5.662-0.14-0.098-0.288-0.184-0.444-0.259 0.012-0.206 0.019-0.413 0.019-0.622 0-2.77-1.088-5.045-3.145-6.582-1.851-1.382-4.396-2.112-7.36-2.112h-4.39c-2.965 0-5.51 0.73-7.36 2.112-2.058 1.536-3.145 3.812-3.145 6.582 0 0.209 0.007 0.416 0.019 0.622-0.166 0.080-0.324 0.173-0.473 0.279-0.056-1.79 0.336-3.635 1.18-5.526zM20.908 9.201c-0.099-0.195-0.279-0.336-0.492-0.385s-0.437-0.002-0.611 0.13c-3.945 2.978-9.715 6.028-15.482 8.189-0.181-0.721-0.277-1.474-0.277-2.25 0-5.485 4.779-7.439 9.251-7.439h4.39c4.472 0 9.251 1.954 9.251 7.439 0 0.745-0.089 1.47-0.256 2.165-2.483-2.422-4.223-4.79-5.773-7.848zM2.241 18.395c0-0.617 0.289-1.168 0.739-1.525 0.24 1.248 0.701 2.419 1.341 3.469-0.043 0.003-0.087 0.005-0.131 0.005-1.075 0-1.949-0.874-1.949-1.949zM7.951 25.556c-0.798-0.594-2.346-1.887-3.614-3.788-0.038-0.056-0.074-0.113-0.111-0.169 0.307-0.004 0.604-0.051 0.885-0.135 0.966 1.199 2.188 2.182 3.584 2.865-0.282 0.386-0.531 0.797-0.745 1.229zM13.296 24.134c-3.805 0-7.081-2.31-8.5-5.601 5.577-2.085 11.171-4.994 15.197-7.893 1.595 2.971 3.417 5.333 5.976 7.775 0.062 0.059 0.133 0.105 0.207 0.139-1.423 3.28-4.693 5.581-8.491 5.581h-4.39zM23.011 25.516c-0.209-0.417-0.451-0.815-0.724-1.189 1.395-0.683 2.618-1.666 3.584-2.864 0.257 0.078 0.528 0.124 0.808 0.134-0.019 0.030-0.038 0.060-0.057 0.089-1.239 1.872-2.764 3.183-3.61 3.829zM26.793 20.344c-0.044 0-0.088-0.002-0.131-0.005 0.641-1.050 1.102-2.221 1.341-3.469 0.45 0.357 0.738 0.908 0.738 1.525-0 1.075-0.874 1.949-1.949 1.949z"></path>
<path fill="#fff" d="M10.045 9.208c-0.122 0.039-0.245 0.081-0.365 0.124-0.326 0.117-0.495 0.477-0.378 0.803 0.092 0.256 0.333 0.415 0.59 0.415 0.070 0 0.142-0.012 0.213-0.037 0.105-0.038 0.213-0.074 0.321-0.109 0.33-0.105 0.513-0.458 0.408-0.788s-0.458-0.513-0.788-0.408z"></path>
<path fill="#fff" d="M7.722 10.327c-0.867 0.609-1.532 1.382-1.924 2.238-0.144 0.315-0.006 0.687 0.309 0.832 0.085 0.039 0.173 0.057 0.261 0.057 0.238 0 0.465-0.136 0.571-0.367 0.299-0.653 0.819-1.252 1.504-1.733 0.284-0.199 0.352-0.59 0.153-0.874s-0.59-0.352-0.874-0.153z"></path>
<path fill="#3c122c" d="M22.449 15.363c-0.049-0.025-0.497-0.245-1.065-0.245s-1.015 0.22-1.065 0.245c-0.185 0.094-0.258 0.319-0.164 0.505s0.32 0.259 0.505 0.167c0.003-0.002 0.333-0.164 0.724-0.164s0.721 0.162 0.722 0.163c0.055 0.028 0.113 0.041 0.171 0.041 0.137 0 0.269-0.075 0.336-0.205 0.095-0.185 0.021-0.412-0.164-0.506z"></path>
<path fill="#3c122c" d="M16.594 18.586c-0.208 0-0.377 0.169-0.377 0.377 0 0.4-0.326 0.726-0.726 0.726s-0.726-0.326-0.726-0.726c0-0.208-0.169-0.377-0.377-0.377s-0.377 0.169-0.377 0.377c0 0.816 0.664 1.479 1.479 1.479s1.479-0.664 1.479-1.479c0-0.208-0.169-0.377-0.377-0.377z"></path>
<path fill="#3c122c" d="M19.052 26.437c-0.208 0-0.377 0.169-0.377 0.377v0.711c0 0.208 0.169 0.377 0.377 0.377s0.377-0.169 0.377-0.377v-0.711c0-0.208-0.169-0.377-0.377-0.377z"></path>
<path fill="#3c122c" d="M21.148 27.495c-0.208 0-0.377 0.169-0.377 0.377v0.711c0 0.208 0.169 0.377 0.377 0.377s0.377-0.169 0.377-0.377v-0.711c0-0.208-0.169-0.377-0.377-0.377z"></path>
<path fill="#3c122c" d="M11.025 27.063c-0.208 0-0.377 0.169-0.377 0.377v0.711c0 0.208 0.169 0.377 0.377 0.377s0.377-0.169 0.377-0.377v-0.711c0-0.208-0.169-0.377-0.377-0.377z"></path>
<path fill="#3c122c" d="M9.598 17.86c-0.609 0-1.103 0.494-1.103 1.103s0.494 1.103 1.103 1.103 1.103-0.494 1.103-1.103c0-0.609-0.494-1.103-1.103-1.103z"></path>
<path fill="#3c122c" d="M21.384 17.86c-0.609 0-1.103 0.494-1.103 1.103s0.494 1.103 1.103 1.103c0.609 0 1.103-0.494 1.103-1.103s-0.494-1.103-1.103-1.103z"></path>
</svg>
