<!-- Generated by IcoMoon.io -->
<svg version="1.1" xmlns="http://www.w3.org/2000/svg" width="32" height="32" viewBox="0 0 32 32">
<title>scientist</title>
<path fill="#fff" d="M23.762 31.374v-2.097c0-4.283-3.472-7.755-7.755-7.755s-7.755 3.472-7.755 7.755v2.097z"></path>
<path fill="#e1bdfc" d="M16.55 24.262c1.497 0.673 2.551 2.272 2.551 4.137v0.449c0 0.699-0.566 1.265-1.265 1.265h-7.005v1.278h10.353v-1.981c0-2.676-2.030-4.877-4.633-5.148z"></path>
<path fill="#c49a8b" d="M27.989 15.97c0.035-0.34 0.054-0.685 0.054-1.035 0-5.439-4.409-9.848-9.848-9.848h-4.377c-5.439 0-9.848 4.409-9.848 9.848 0 0.35 0.018 0.695 0.054 1.035-1.070 0.31-1.853 1.296-1.853 2.466 0 1.418 1.15 2.568 2.568 2.568 0.404 0 0.786-0.094 1.127-0.26 1.792 2.448 4.686 4.039 7.952 4.039h4.377c3.266 0 6.16-1.59 7.952-4.039 0.34 0.166 0.722 0.26 1.127 0.26 1.418 0 2.568-1.15 2.568-2.568-0-1.17-0.783-2.157-1.853-2.466z"></path>
<path fill="#b2748a" d="M18.195 5.084h-1.263c4.409 0 7.984 3.575 7.984 7.984v0.678c0 4.409-3.575 7.984-7.984 7.984h-4.978c-4.22 0-7.674-3.274-7.964-7.42-0.013 0.206-0.020 0.413-0.020 0.622 0 5.439 4.409 9.848 9.848 9.848h4.377c5.439 0 9.848-4.409 9.848-9.848s-4.409-9.848-9.848-9.848z"></path>
<path fill="#fff" d="M30.668 1.435c-1.463-1.477-5.604 0.056-8.543 1.437-1.264-0.473-2.632-0.732-4.060-0.732h-3.805c-1.136 0-2.232 0.164-3.269 0.469-1.35-1.242-2.793-2.175-3.811-1.777-0.97 0.378-1.406 1.905-1.577 3.629-1.795-0.635-3.563-0.944-4.367-0.148-1.343 1.33 0.374 5.382 1.557 7.747-0.079 0.545-0.12 1.101-0.12 1.668v1.155c0.082 2.029 1.295 3.112 2.154 3.821l2.35-7.477 2.786 1.954 3.038-2.305 3.161 2.323 3.282-2.516 3.365 2.533 2.28-2.099 2.249 7.53c1.176-0.728 2.184-1.848 2.312-3.765v-1.155c0-1.261-0.202-2.474-0.575-3.611 1.427-2.933 3.080-7.178 1.592-8.681z"></path>
<path fill="#96b4eb" d="M21.882 14.798c-1.205 0-2.281 0.548-2.995 1.407-0.041-0.027-0.084-0.053-0.132-0.074-1.874-0.862-3.73-0.859-5.516 0.009-0.040 0.020-0.077 0.042-0.113 0.066-0.714-0.86-1.79-1.407-2.995-1.407-2.149 0-3.891 1.742-3.891 3.891s1.742 3.891 3.891 3.891 3.891-1.742 3.891-3.891c0-0.387-0.057-0.761-0.163-1.114 0.113-0.015 0.225-0.046 0.33-0.097 1.206-0.586 2.367-0.583 3.653 0.009 0.099 0.046 0.205 0.074 0.311 0.088-0.105 0.353-0.163 0.727-0.163 1.114 0 2.149 1.742 3.891 3.891 3.891s3.891-1.742 3.891-3.891c0-2.149-1.742-3.891-3.891-3.891z"></path>
<path fill="#8286ea" d="M10.131 14.798c-0.132 0-0.262 0.007-0.39 0.020 1.577 0.173 2.805 1.51 2.805 3.133 0 1.741-1.411 3.153-3.153 3.153-1.623 0-2.96-1.227-3.133-2.805-0.013 0.128-0.020 0.259-0.020 0.39 0 2.149 1.742 3.891 3.891 3.891s3.891-1.742 3.891-3.891c0-2.149-1.742-3.891-3.891-3.891z"></path>
<path fill="#8286ea" d="M22.052 14.798c-0.132 0-0.262 0.007-0.39 0.020 1.577 0.173 2.805 1.51 2.805 3.133 0 1.741-1.411 3.153-3.153 3.153-1.623 0-2.96-1.227-3.133-2.805-0.013 0.128-0.020 0.259-0.020 0.39 0 2.149 1.742 3.891 3.891 3.891s3.891-1.742 3.891-3.891c0-2.149-1.742-3.891-3.891-3.891z"></path>
<path fill="#ccf3e2" d="M12.616 18.689c0 1.372-1.112 2.484-2.484 2.484s-2.484-1.112-2.484-2.484c0-1.372 1.112-2.484 2.484-2.484s2.484 1.112 2.484 2.484z"></path>
<path fill="#ccf3e2" d="M24.366 18.689c0 1.372-1.112 2.484-2.484 2.484s-2.484-1.112-2.484-2.484c0-1.372 1.112-2.484 2.484-2.484s2.484 1.112 2.484 2.484z"></path>
<path fill="#c1e5ef" d="M8.167 29.788l-2.458-3.836v-2.969h-2.262v2.969l-2.459 3.836c-0.431 0.686 0.062 1.578 0.872 1.578h5.436c0.81 0 1.303-0.892 0.872-1.578z"></path>
<path fill="#a1e8c3" d="M6.996 27.96h-4.836l-1.172 1.829c-0.431 0.686 0.062 1.578 0.872 1.578h5.436c0.81 0 1.303-0.892 0.872-1.578z"></path>
<path fill="#a6aaed" d="M7.157 28.211l-1.447-2.259v-1.64h-1.709v1.053l1.477 2.846z"></path>
<path fill="#85adc2" d="M7.012 27.985h-1.651l0.237 0.457c0.28 0.55-0.040 1.266-0.567 1.266h-3.533c-0.141 0-0.267-0.052-0.371-0.137l-0.14 0.218c-0.431 0.686 0.062 1.578 0.872 1.578h5.436c0.81 0 1.303-0.892 0.872-1.578z"></path>
<path fill="#c1e5ef" d="M5.95 24.232h-2.754c-0.234 0-0.424-0.19-0.424-0.424v-0.666c0-0.234 0.19-0.424 0.424-0.424h2.754c0.234 0 0.424 0.19 0.424 0.424v0.666c0 0.234-0.19 0.424-0.424 0.424z"></path>
<path fill="#ccf3e2" d="M29.813 22.3l0.514 1.445c0.022 0.062 0.066 0.111 0.12 0.136l1.284 0.578c0.181 0.082 0.181 0.371 0 0.452l-1.284 0.578c-0.055 0.025-0.099 0.074-0.12 0.136l-0.514 1.445c-0.073 0.204-0.329 0.204-0.402 0l-0.514-1.445c-0.022-0.062-0.066-0.111-0.12-0.136l-1.284-0.578c-0.181-0.082-0.181-0.371 0-0.452l1.284-0.578c0.055-0.025 0.099-0.074 0.12-0.136l0.514-1.445c0.073-0.204 0.329-0.204 0.402 0z"></path>
<path fill="#a1e8c3" d="M27.633 28.782c0.603 0.143 0.976 0.747 0.834 1.35s-0.747 0.976-1.35 0.834c-0.603-0.143-0.976-0.747-0.834-1.35s0.747-0.976 1.35-0.834z"></path>
<path fill="#3c122c" d="M16.007 20.477c-0.813 0-1.475-0.662-1.475-1.475 0-0.207 0.168-0.375 0.375-0.375s0.375 0.168 0.375 0.375c0 0.399 0.325 0.724 0.724 0.724s0.724-0.325 0.724-0.724c0-0.207 0.168-0.375 0.375-0.375s0.375 0.168 0.375 0.375c0 0.813-0.661 1.475-1.475 1.475z"></path>
<path fill="#3c122c" d="M17.77 27.718h-0.657c-0.207 0-0.375-0.168-0.375-0.375s0.168-0.375 0.375-0.375h0.657c0.207 0 0.375 0.168 0.375 0.375s-0.168 0.375-0.375 0.375z"></path>
<path fill="#3c122c" d="M17.77 29.407h-0.657c-0.207 0-0.375-0.168-0.375-0.375s0.168-0.375 0.375-0.375h0.657c0.207 0 0.375 0.168 0.375 0.375s-0.168 0.375-0.375 0.375z"></path>
<path fill="#3c122c" d="M17.77 31.096h-0.657c-0.207 0-0.375-0.168-0.375-0.375s0.168-0.375 0.375-0.375h0.657c0.207 0 0.375 0.168 0.375 0.375s-0.168 0.375-0.375 0.375z"></path>
<path fill="#3c122c" d="M10.131 21.553c-1.579 0-2.864-1.285-2.864-2.864s1.285-2.864 2.864-2.864 2.864 1.285 2.864 2.864c0 1.579-1.285 2.864-2.864 2.864zM10.131 16.576c-1.165 0-2.113 0.948-2.113 2.113s0.948 2.113 2.113 2.113 2.113-0.948 2.113-2.113-0.948-2.113-2.113-2.113z"></path>
<path fill="#3c122c" d="M21.882 21.553c-1.579 0-2.864-1.285-2.864-2.864s1.285-2.864 2.864-2.864 2.864 1.285 2.864 2.864c0 1.579-1.285 2.864-2.864 2.864zM21.882 16.576c-1.165 0-2.113 0.948-2.113 2.113s0.948 2.113 2.113 2.113c1.165 0 2.113-0.948 2.113-2.113s-0.948-2.113-2.113-2.113z"></path>
<path fill="#3c122c" d="M10.25 20.508c-0.276 0-0.547-0.081-0.783-0.236-0.318-0.21-0.535-0.531-0.612-0.905-0.065-0.318-0.002-0.643 0.177-0.914s0.453-0.456 0.771-0.521c0.566-0.116 1.121 0.25 1.237 0.817 0.042 0.203-0.089 0.401-0.292 0.443s-0.401-0.089-0.443-0.292c-0.033-0.161-0.19-0.265-0.351-0.232-0.122 0.025-0.227 0.096-0.295 0.2s-0.093 0.228-0.068 0.35c0.036 0.177 0.139 0.329 0.29 0.429s0.331 0.134 0.508 0.098c0.246-0.050 0.457-0.193 0.595-0.403s0.187-0.46 0.136-0.706c-0.14-0.685-0.811-1.128-1.496-0.988-0.907 0.186-1.493 1.074-1.308 1.981 0.042 0.203-0.089 0.401-0.292 0.443s-0.401-0.089-0.443-0.292c-0.269-1.312 0.58-2.598 1.892-2.867 1.090-0.223 2.159 0.482 2.382 1.573 0.091 0.442 0.003 0.893-0.245 1.27s-0.629 0.634-1.071 0.724c-0.096 0.020-0.193 0.029-0.289 0.029z"></path>
<path fill="#3c122c" d="M21.999 20.508c-0.276 0-0.547-0.081-0.783-0.236-0.318-0.21-0.535-0.531-0.612-0.905-0.134-0.657 0.291-1.301 0.948-1.436 0.566-0.116 1.121 0.25 1.237 0.817 0.042 0.203-0.089 0.401-0.292 0.443s-0.401-0.089-0.443-0.292c-0.016-0.078-0.061-0.145-0.128-0.189s-0.146-0.059-0.224-0.043c-0.252 0.052-0.414 0.298-0.363 0.55 0.036 0.177 0.139 0.329 0.29 0.429s0.331 0.134 0.508 0.098c0.246-0.050 0.457-0.193 0.595-0.403s0.187-0.46 0.136-0.706c-0.14-0.685-0.811-1.128-1.496-0.988-0.439 0.090-0.817 0.345-1.064 0.72s-0.334 0.822-0.244 1.261c0.042 0.203-0.089 0.401-0.292 0.443s-0.401-0.089-0.443-0.292c-0.13-0.636-0.005-1.284 0.352-1.825s0.904-0.911 1.54-1.041c1.090-0.224 2.159 0.482 2.382 1.573 0.091 0.442 0.003 0.893-0.245 1.27s-0.629 0.634-1.071 0.724c-0.096 0.020-0.193 0.029-0.289 0.029z"></path>
<path fill="#3c122c" d="M31.191 0.917c-0.857-0.866-2.299-1.046-4.409-0.552-1.324 0.31-2.902 0.886-4.693 1.712-1.293-0.447-2.645-0.673-4.024-0.673h-3.805c-1.041 0-2.075 0.131-3.077 0.388-1.759-1.542-3.159-2.081-4.271-1.647-0.985 0.384-1.619 1.481-1.925 3.342-2.057-0.602-3.458-0.501-4.269 0.302-0.806 0.798-0.924 2.174-0.36 4.205 0.408 1.472 1.117 3.056 1.675 4.19-0.064 0.512-0.097 1.030-0.097 1.542v1.155c0 0.010 0 0.020 0.001 0.030 0.023 0.582 0.131 1.099 0.291 1.557-0.427 0.543-0.682 1.226-0.682 1.969 0 1.761 1.433 3.194 3.194 3.194 0.32 0 0.628-0.048 0.92-0.135 0.176 0.218 0.361 0.43 0.553 0.633-0.084-0.022-0.171-0.034-0.262-0.034h-2.754c-0.579 0-1.049 0.471-1.049 1.049v0.666c0 0.446 0.28 0.827 0.674 0.979v0.981l-2.364 3.687c-0.325 0.518-0.343 1.146-0.047 1.681s0.837 0.855 1.449 0.855h5.436c0.208 0 0.408-0.038 0.594-0.108 0.102 0.073 0.227 0.116 0.363 0.116 0.345 0 0.626-0.28 0.626-0.626v-0.546c0.102-0.323 0.102-0.664 0-0.984v-0.566c0-1.674 0.58-3.215 1.55-4.432 0.585 0.201 1.193 0.351 1.819 0.446-1.1 1.015-1.791 2.468-1.791 4.080v2.241c0 0.207 0.168 0.375 0.375 0.375s0.375-0.168 0.375-0.375v-2.241c0-1.651 0.838-3.109 2.11-3.974 0.167 0.008 0.334 0.012 0.503 0.012h1.626v6.211c0 0.207 0.168 0.375 0.375 0.375s0.375-0.168 0.375-0.375v-6.211h2c0.169 0 0.336-0.004 0.503-0.012 1.272 0.864 2.11 2.323 2.11 3.974v2.241c0 0.207 0.168 0.375 0.375 0.375s0.375-0.168 0.375-0.375v-2.241c0-1.612-0.691-3.064-1.791-4.080 0.626-0.095 1.234-0.245 1.819-0.446 0.97 1.218 1.55 2.759 1.55 4.433v2.097c0 0.345 0.28 0.626 0.626 0.626s0.626-0.28 0.626-0.626v-2.097c0-1.84-0.597-3.543-1.606-4.927 1.391-0.681 2.61-1.661 3.573-2.856 0.291 0.088 0.6 0.136 0.92 0.136 1.761 0 3.194-1.433 3.194-3.194 0-0.626-0.182-1.209-0.494-1.702 0.23-0.551 0.368-1.152 0.411-1.804 0.001-0.016 0.002-0.033 0.002-0.049v-1.155c0-1.21-0.175-2.404-0.521-3.553 0.866-1.811 1.476-3.41 1.813-4.755 0.54-2.152 0.381-3.624-0.488-4.501zM4.74 20.38c-1.071 0-1.943-0.872-1.943-1.943 0-0.229 0.041-0.448 0.114-0.652 0.448 0.631 0.959 1.079 1.33 1.388 0.184 0.415 0.395 0.816 0.63 1.201-0.044 0.003-0.087 0.005-0.132 0.005zM6.615 18.689c0-1.939 1.577-3.516 3.516-3.516s3.516 1.577 3.516 3.516-1.577 3.516-3.516 3.516-3.516-1.577-3.516-3.516zM4.073 25.952v-1.094h1.011v1.094c0 0.12 0.034 0.237 0.099 0.337l0.788 1.23h-2.785l0.788-1.23c0.065-0.101 0.099-0.218 0.099-0.338zM3.399 23.345h2.35v0.262h-2.35zM7.295 30.741h-5.436c-0.215 0-0.319-0.146-0.354-0.209s-0.103-0.228 0.008-0.406l1.19-1.856h3.747l1.187 1.853c0.113 0.182 0.045 0.346 0.010 0.409s-0.139 0.209-0.354 0.209zM7.732 27.949l-1.397-2.18v-0.985c0.389-0.154 0.665-0.532 0.665-0.975v-0.666c0-0.106-0.016-0.208-0.045-0.305 0.687 0.597 1.452 1.108 2.278 1.512-0.761 1.044-1.287 2.27-1.5 3.599zM18.195 24.158h-4.377c-1.757 0-3.401-0.494-4.8-1.351 0.355 0.096 0.728 0.148 1.113 0.148 2.352 0 4.266-1.914 4.266-4.266 0-0.292-0.030-0.578-0.086-0.854 0.014-0.006 0.028-0.012 0.042-0.019 1.112-0.54 2.14-0.536 3.332 0.012 0.005 0.002 0.011 0.004 0.016 0.006-0.056 0.276-0.086 0.562-0.086 0.854 0 2.352 1.914 4.266 4.266 4.266 0.386 0 0.759-0.052 1.114-0.149-1.399 0.857-3.044 1.351-4.801 1.351zM13.693 16.345c1.501-0.643 3.054-0.642 4.624 0.005-0.157 0.238-0.29 0.493-0.397 0.761-0.671-0.298-1.312-0.448-1.944-0.448-0.63 0-1.251 0.149-1.883 0.446-0.108-0.269-0.242-0.525-0.4-0.764zM21.882 22.205c-1.939 0-3.516-1.577-3.516-3.516s1.577-3.516 3.516-3.516 3.516 1.577 3.516 3.516-1.577 3.516-3.516 3.516zM25.979 19.876c0.109-0.377 0.169-0.775 0.169-1.187 0-2.352-1.914-4.266-4.266-4.266-1.21 0-2.302 0.507-3.079 1.318-1.897-0.841-3.777-0.841-5.594-0.002-0.777-0.81-1.869-1.316-3.078-1.316-2.352 0-4.266 1.914-4.266 4.266 0 0.412 0.060 0.809 0.169 1.186-0.189-0.297-0.362-0.605-0.516-0.924 0.003-0.009 0.008-0.019 0.011-0.028l2.049-6.518 1.963 1.377c0.262 0.184 0.613 0.177 0.867-0.016l2.6-1.972 2.718 1.998c0.264 0.194 0.624 0.19 0.884-0.009l2.839-2.176 2.919 2.197c0.284 0.214 0.68 0.194 0.941-0.047l1.413-1.301 1.876 6.281c-0.18 0.395-0.386 0.776-0.618 1.14zM27.274 20.38c-0.044 0-0.088-0.002-0.132-0.005 0.216-0.355 0.412-0.723 0.586-1.103 0.575-0.356 1.057-0.767 1.448-1.231 0.027 0.128 0.041 0.26 0.041 0.396 0 1.071-0.871 1.943-1.943 1.943zM30.251 5.059c-0.329 1.312-0.948 2.905-1.837 4.734-0.084 0.172-0.097 0.369-0.038 0.551 0.357 1.089 0.538 2.227 0.538 3.381v1.13c-0.075 1.056-0.453 1.89-1.174 2.566l-1.947-6.517c-0.073-0.243-0.265-0.432-0.51-0.499-0.064-0.018-0.13-0.026-0.195-0.026-0.182 0-0.361 0.068-0.499 0.194l-1.829 1.684-2.875-2.164c-0.264-0.199-0.628-0.197-0.89 0.004l-2.844 2.18-2.715-1.996c-0.263-0.193-0.621-0.19-0.881 0.007l-2.61 1.98-2.347-1.646c-0.192-0.135-0.437-0.17-0.659-0.094s-0.395 0.252-0.466 0.476l-2.002 6.369c-0.562-0.611-1.015-1.39-1.064-2.507v-1.14c0-0.519 0.038-1.045 0.112-1.562 0.021-0.149-0.003-0.3-0.070-0.434-2.117-4.233-2.237-6.36-1.697-6.895 0.167-0.165 0.919-0.63 3.603 0.319 0.213 0.075 0.449 0.049 0.64-0.073s0.315-0.324 0.338-0.549c0.247-2.493 0.913-2.939 1.112-3.016 0.209-0.082 1.047-0.205 3.045 1.633 0.19 0.175 0.458 0.237 0.706 0.165 0.992-0.291 2.022-0.439 3.062-0.439h3.805c1.308 0 2.587 0.231 3.802 0.685 0.186 0.070 0.392 0.061 0.571-0.023 1.814-0.852 3.388-1.437 4.68-1.74 1.504-0.352 2.58-0.297 3.027 0.155 0.456 0.461 0.494 1.564 0.107 3.107z"></path>
<path fill="#3c122c" d="M21.035 8.689c-0.207 0-0.375-0.168-0.375-0.375v-0.709c0-0.207 0.168-0.375 0.375-0.375s0.375 0.168 0.375 0.375v0.709c0 0.207-0.168 0.375-0.375 0.375z"></path>
<path fill="#3c122c" d="M18.882 7.106c-0.207 0-0.375-0.168-0.375-0.375v-0.709c0-0.207 0.168-0.375 0.375-0.375s0.375 0.168 0.375 0.375v0.709c0 0.207-0.168 0.375-0.375 0.375z"></path>
<path fill="#3c122c" d="M23.218 8.061c-0.207 0-0.375-0.168-0.375-0.375v-0.709c0-0.207 0.168-0.375 0.375-0.375s0.375 0.168 0.375 0.375v0.709c0 0.207-0.168 0.375-0.375 0.375z"></path>
<path fill="#3c122c" d="M10.049 9.39c-0.207 0-0.375-0.168-0.375-0.375v-0.709c0-0.207 0.168-0.375 0.375-0.375s0.375 0.168 0.375 0.375v0.709c0 0.207-0.168 0.375-0.375 0.375z"></path>
</svg>
