<!-- Generated by IcoMoon.io -->
<svg version="1.1" xmlns="http://www.w3.org/2000/svg" width="32" height="32" viewBox="0 0 32 32">
<title>vampire</title>
<path fill="#9781dd" d="M27.77 23.054h-6.681c-1.327-1.031-2.994-1.645-4.805-1.645s-3.478 0.614-4.805 1.645h-6.681l3.647 6.156c-0 0.013-0.001 0.026-0.001 0.038v2.119h15.679v-2.119c0-0.123-0.003-0.245-0.009-0.367z"></path>
<path fill="#d789b9" d="M13.409 25.070h5.751v6.297h-5.751z"></path>
<path fill="#fff" d="M16.284 24.065l-1.757 3.043c-0.411 0.712-0.077 1.624 0.698 1.9 0.661 0.235 1.506 0.23 2.159-0.015 0.754-0.283 1.060-1.187 0.657-1.884z"></path>
<path fill="#e1bdfc" d="M18.041 27.108l-1.757-3.044-0.193 0.334 1.214 2.102c0.322 0.558 0.077 1.282-0.526 1.508-0.523 0.196-1.199 0.2-1.728 0.012-0.316-0.113-0.54-0.358-0.64-0.646-0.206 0.657 0.134 1.39 0.815 1.633 0.661 0.235 1.506 0.23 2.159-0.015 0.753-0.283 1.060-1.187 0.657-1.884z"></path>
<path fill="#f3d4d2" d="M30.794 15.924c-0.433-0.652-1.387-0.767-2.358-0.609 0.010-0.187 0.016-0.375 0.016-0.565v-0c0-5.498-4.457-9.955-9.955-9.955h-4.425c-5.498 0-9.955 4.457-9.955 9.955v0c0 0.188 0.006 0.375 0.016 0.56-0.961-0.151-1.9-0.031-2.329 0.614-0.794 1.194 0.459 3.734 1.654 4.527 0.795 0.528 1.775 0.56 2.575 0.171 1.811 2.475 4.737 4.083 8.039 4.083h4.425c3.307 0 6.236-1.613 8.047-4.094 0.804 0.401 1.795 0.373 2.597-0.16 1.194-0.794 2.447-3.333 1.654-4.527z"></path>
<path fill="#da9fd0" d="M18.497 4.813h-1.277c4.457 0 8.071 3.613 8.071 8.071v0.685c0 4.457-3.613 8.071-8.071 8.071h-5.032c-4.266 0-7.758-3.309-8.051-7.5-0.013 0.208-0.020 0.417-0.020 0.629v0c0 5.498 4.457 9.955 9.955 9.955h4.425c5.498 0 9.955-4.457 9.955-9.955v-0c-0-5.498-4.457-9.955-9.955-9.955z"></path>
<path fill="#fff" d="M14.46 21.485l1.178-1.102-1.681-0.512 0.365 1.571c0.015 0.063 0.091 0.086 0.138 0.042z"></path>
<path fill="#fff" d="M18.112 21.485l-1.178-1.102 1.681-0.512-0.365 1.571c-0.015 0.063-0.091 0.086-0.138 0.042z"></path>
<path fill="#9781dd" d="M12.25 10.341c1.449 0 2.818 1.233 4.034 1.614 1.215-0.381 2.585-1.614 4.034-1.614 3.487 0 6.515 3.362 8.038 5.18 0.062-0.451 0.096-3.033 0.096-3.501v-0c0-5.498-4.457-9.955-9.955-9.955h-4.425c-5.498 0-9.955 4.457-9.955 9.955v0c0 0.468 0.033 3.050 0.096 3.501 1.523-1.818 4.551-5.18 8.038-5.18z"></path>
<path fill="#8962de" d="M19.102 24.951v1.677c0.199 0.528 0.309 1.105 0.309 1.71v0.454c0 0.706-0.573 1.279-1.279 1.279h-7.082v1.292h10.466v-2.003c0-1.852-0.963-3.479-2.415-4.409z"></path>
<path fill="#c668b9" d="M18.133 30.071h-4.591v1.292h5.465v-1.639c-0.229 0.214-0.535 0.346-0.873 0.346z"></path>
<path fill="#e8c2d8" d="M28.581 0.115l0.385 1.083c0.017 0.046 0.049 0.083 0.090 0.102l0.963 0.434c0.136 0.061 0.136 0.278 0 0.339l-0.963 0.434c-0.041 0.019-0.074 0.055-0.090 0.102l-0.385 1.083c-0.054 0.153-0.247 0.153-0.301 0l-0.385-1.083c-0.017-0.046-0.049-0.083-0.090-0.102l-0.963-0.434c-0.136-0.061-0.136-0.278 0-0.339l0.963-0.434c0.041-0.019 0.074-0.055 0.090-0.102l0.385-1.083c0.054-0.153 0.247-0.153 0.301 0z"></path>
<path fill="#e8c2d8" d="M2.187 2.23l0.385 1.083c0.017 0.046 0.049 0.083 0.090 0.102l0.963 0.434c0.136 0.061 0.136 0.278 0 0.339l-0.963 0.434c-0.041 0.019-0.074 0.055-0.090 0.102l-0.385 1.083c-0.054 0.153-0.247 0.153-0.301 0l-0.385-1.083c-0.016-0.046-0.049-0.083-0.090-0.102l-0.963-0.434c-0.136-0.061-0.136-0.278 0-0.339l0.963-0.434c0.041-0.019 0.074-0.055 0.090-0.102l0.385-1.083c0.054-0.153 0.247-0.153 0.301 0z"></path>
<path fill="#d789b9" d="M31.563 6.575c0 0.27-0.219 0.489-0.489 0.489s-0.489-0.219-0.489-0.489c0-0.27 0.219-0.489 0.489-0.489s0.489 0.219 0.489 0.489z"></path>
<path fill="#3c122c" d="M11.456 18.86c0 0.614-0.498 1.111-1.111 1.111s-1.111-0.498-1.111-1.111c0-0.614 0.498-1.111 1.111-1.111s1.111 0.498 1.111 1.111z"></path>
<path fill="#3c122c" d="M23.335 18.86c0 0.614-0.498 1.111-1.111 1.111s-1.111-0.498-1.111-1.111c0-0.614 0.498-1.111 1.111-1.111s1.111 0.498 1.111 1.111z"></path>
<path fill="#3c122c" d="M11.245 15.95c-0.058 0-0.117-0.013-0.172-0.042-0.002-0.001-0.334-0.164-0.728-0.164s-0.726 0.163-0.729 0.165c-0.187 0.093-0.415 0.018-0.509-0.168s-0.021-0.414 0.165-0.508c0.050-0.025 0.501-0.247 1.073-0.247s1.023 0.222 1.073 0.247c0.187 0.095 0.261 0.324 0.165 0.51-0.067 0.131-0.2 0.207-0.338 0.207z"></path>
<path fill="#3c122c" d="M23.124 15.95c-0.058 0-0.117-0.013-0.172-0.042-0.002-0.001-0.334-0.164-0.728-0.164s-0.726 0.163-0.729 0.165c-0.187 0.093-0.415 0.018-0.509-0.168s-0.021-0.414 0.165-0.508c0.050-0.025 0.501-0.247 1.073-0.247s1.023 0.222 1.073 0.247c0.187 0.095 0.261 0.324 0.165 0.51-0.067 0.131-0.2 0.207-0.338 0.207z"></path>
<path fill="#3c122c" d="M16.152 20.458c-0.49 0-1.776-0.052-2.299-0.575-0.148-0.148-0.148-0.388 0-0.537s0.388-0.148 0.537 0c0.263 0.263 1.281 0.365 1.886 0.351 0.005-0 0.010-0 0.015-0 0.613 0.009 1.634-0.097 1.889-0.351 0.148-0.148 0.388-0.148 0.537 0s0.148 0.388 0 0.537c-0.568 0.568-2.106 0.578-2.43 0.574-0.033 0.001-0.078 0.001-0.134 0.001z"></path>
<path fill="#3c122c" d="M31.198 15.448c-0.443-0.556-1.182-0.841-2.116-0.832-0.003-0.213-0.011-0.425-0.026-0.634 0.020-0.896 0.028-1.832 0.028-1.961 0-5.838-4.75-10.588-10.588-10.588h-4.425c-5.838 0-10.588 4.75-10.588 10.588 0 0.129 0.008 1.066 0.028 1.961-0.015 0.21-0.024 0.421-0.027 0.634-0.92-0.002-1.647 0.283-2.086 0.833-0.547 0.686-0.606 1.728-0.165 2.935 0.356 0.973 0.986 1.904 1.646 2.431 0.578 0.461 1.279 0.705 2.007 0.705 0.122 0 0.245-0.007 0.368-0.021 0.195-0.022 0.385-0.062 0.569-0.117 0.296 0.368 0.616 0.716 0.958 1.041h-1.984c-0.227 0-0.437 0.122-0.549 0.319s-0.11 0.44 0.005 0.635l3.558 6.006v1.985c0 0.349 0.283 0.632 0.632 0.632s0.632-0.283 0.632-0.632v-2.119c0-1.692 0.587-3.25 1.567-4.481 0.591 0.203 1.206 0.355 1.838 0.451-1.112 1.026-1.81 2.495-1.81 4.124v2.266c0 0.21 0.17 0.379 0.379 0.379s0.379-0.17 0.379-0.379v-2.266c0-1.451 0.64-2.755 1.653-3.645v5.916c0 0.209 0.17 0.379 0.379 0.379s0.379-0.17 0.379-0.379v-6.279c0.076 0.002 0.153 0.003 0.23 0.003h1.039l-0.912 1.58c-0.253 0.438-0.298 0.961-0.123 1.435s0.547 0.843 1.022 1.012c0.368 0.131 0.777 0.196 1.186 0.196 0.427 0 0.854-0.071 1.233-0.213 0.457-0.172 0.815-0.536 0.981-1 0.17-0.473 0.123-0.994-0.128-1.429l-0.913-1.581h1.040c0.077 0 0.153-0.001 0.23-0.003v6.279c0 0.209 0.17 0.379 0.379 0.379s0.379-0.17 0.379-0.379v-5.916c1.012 0.89 1.653 2.194 1.653 3.645v2.266c0 0.21 0.17 0.379 0.379 0.379s0.379-0.17 0.379-0.379v-2.266c0-1.629-0.698-3.098-1.81-4.124 0.633-0.096 1.247-0.248 1.838-0.451 0.98 1.231 1.567 2.788 1.567 4.481v2.119c0 0.349 0.283 0.632 0.632 0.632s0.632-0.283 0.632-0.632v-2.119c0-0.065-0.001-0.131-0.002-0.196l3.552-5.662c0.122-0.195 0.129-0.441 0.018-0.642s-0.323-0.326-0.553-0.326h-1.985c0.344-0.327 0.666-0.677 0.964-1.048 0.191 0.059 0.389 0.101 0.592 0.123 0.123 0.014 0.246 0.021 0.368 0.021 0.728 0 1.429-0.244 2.007-0.705 0.66-0.526 1.29-1.457 1.646-2.431 0.441-1.207 0.382-2.249-0.165-2.935zM14.072 2.697h4.425c5.141 0 9.323 4.182 9.323 9.323 0 0.337-0.010 1.146-0.027 1.896-0.665-0.72-1.445-1.483-2.332-2.168-1.754-1.354-3.484-2.040-5.142-2.040-1.067 0-2.045 0.538-2.908 1.013-0.399 0.219-0.779 0.428-1.126 0.563-0.347-0.134-0.727-0.344-1.126-0.563-0.863-0.475-1.841-1.013-2.908-1.013-2.988 0-5.571 2.149-7.474 4.21-0.017-0.752-0.027-1.561-0.027-1.898 0-5.141 4.182-9.323 9.323-9.323zM3.67 19.825c-0.977-0.779-1.849-2.876-1.281-3.588 0.186-0.234 0.576-0.358 1.087-0.358 0.022 0 0.046 0.001 0.069 0.001 0.169 1.586 0.69 3.069 1.482 4.369-0.491 0.034-0.97-0.115-1.357-0.424zM8.042 27.288l-2.134-3.602h2.492c0.333 0.212 0.679 0.406 1.036 0.581-0.65 0.892-1.131 1.915-1.394 3.021zM17.712 27.298c0.14 0.242 0.165 0.531 0.071 0.794-0.092 0.257-0.282 0.451-0.534 0.546-0.572 0.215-1.317 0.22-1.898 0.013-0.262-0.093-0.468-0.297-0.564-0.559s-0.072-0.552 0.068-0.794l1.131-1.96h0.594zM26.627 23.687l-2.146 3.42c-0.271-1.037-0.734-1.997-1.349-2.84 0.357-0.174 0.702-0.368 1.035-0.58zM18.497 24.073h-4.425c-4.787 0-8.743-3.627-9.264-8.278 1.127-1.34 4.154-4.821 7.442-4.821 0.742 0 1.533 0.435 2.299 0.856 0.529 0.291 1.030 0.566 1.546 0.728 0.123 0.039 0.255 0.039 0.378 0 0.517-0.162 1.017-0.437 1.546-0.728 0.765-0.421 1.556-0.856 2.298-0.856 3.289 0 6.316 3.482 7.443 4.822-0.521 4.65-4.477 8.278-9.264 8.278zM28.928 19.825c-0.394 0.315-0.884 0.463-1.385 0.421 0.792-1.299 1.312-2.781 1.481-4.366 0.033-0.001 0.066-0.002 0.098-0.002 0.511 0 0.901 0.125 1.087 0.358 0.568 0.712-0.304 2.809-1.281 3.588z"></path>
<path fill="#3c122c" d="M22.133 7.608c-0.21 0-0.379-0.17-0.379-0.379v-0.697c0-0.21 0.17-0.379 0.379-0.379s0.379 0.17 0.379 0.379v0.697c-0 0.21-0.17 0.379-0.379 0.379z"></path>
<path fill="#3c122c" d="M24.148 9.277c-0.21 0-0.379-0.17-0.379-0.379v-0.697c0-0.21 0.17-0.379 0.379-0.379s0.379 0.17 0.379 0.379v0.697c0 0.21-0.17 0.379-0.379 0.379z"></path>
<path fill="#fff" d="M10.714 5.957c-0.204 0-0.405-0.099-0.527-0.282-0.194-0.291-0.115-0.683 0.175-0.877 0.107-0.071 0.438-0.278 0.678-0.376 0.323-0.131 0.692 0.024 0.824 0.348s-0.024 0.692-0.348 0.824c-0.098 0.040-0.324 0.171-0.453 0.256-0.108 0.072-0.23 0.106-0.35 0.106z"></path>
<path fill="#fff" d="M7.713 8.77c-0.116 0-0.233-0.032-0.338-0.098-0.295-0.187-0.383-0.578-0.196-0.873 0.575-0.907 1.241-1.551 1.699-1.931 0.268-0.223 0.667-0.186 0.89 0.082s0.186 0.667-0.082 0.891c-0.388 0.322-0.952 0.868-1.439 1.636-0.12 0.19-0.325 0.294-0.535 0.294z"></path>
</svg>
