<!-- Generated by IcoMoon.io -->
<svg version="1.1" xmlns="http://www.w3.org/2000/svg" width="32" height="32" viewBox="0 0 32 32">
<title>werewolf</title>
<path fill="#a07575" d="M28.722 13.454l-0.854-4.161c1.236-0.842 1.354-3.928 0.88-8.202 0.001-0.587-0.686-0.906-1.134-0.528l-5.063 4.272c-1.307-0.616-2.756-0.959-4.281-0.959h-0.133c-0.864-0.677-1.238-1.454-1.39-2.091-0.16-0.668-1.159-0.881-1.65-0.347-0.779 0.845-0.942 1.762-0.922 2.439h-0.561c-0.568 0-1.125 0.048-1.669 0.139-0.282-0.325-0.481-0.724-0.758-1.169-0.339-0.546-1.264-0.5-1.517 0.079-0.28 0.641-0.432 1.237-0.479 1.79l-4.92-4.151c-0.449-0.379-1.135-0.059-1.134 0.528-0.502 4.225-0.386 7.328 0.956 8.2l-0.875 4.142c-0.5 2.367-0.676 4.791-0.523 7.205l0.5 7.897c0.088 0.38 0.408 0.596 0.648 0.596 0.861 0 0.861-2.507 1.721-2.507s0.861 2.507 1.721 2.507c0.7 0 0.831-1.659 1.318-2.277-0.249 0.762-0.385 1.575-0.385 2.419v2.1h15.538v-2.1c0-0.485-0.045-0.96-0.13-1.42 0.218 0.635 0.433 1.278 0.869 1.278 0.861 0 0.861-2.507 1.721-2.507s0.861 2.507 1.722 2.507c0.305 0 0.665-0.23 0.744-0.704l0.525-7.816c0.161-2.397-0.002-4.804-0.485-7.157z"></path>
<path fill="#925873" d="M20.774 28.962c-0.384-0.467-0.707-0.977-0.891-1.532-0.063-0.102-0.124-0.206-0.179-0.313h-0.49c-0.073 0.089-0.146 0.179-0.22 0.267 0.060 0.304 0.092 0.619 0.092 0.943v0.45c0 0.7-0.567 1.267-1.267 1.267h-7.018v1.281h10.372v-1.847c-0.135-0.156-0.261-0.319-0.38-0.486-0.007-0.009-0.013-0.019-0.020-0.029z"></path>
<path fill="#925873" d="M27.66 0.791l-3.327 2.807c1.015 1.931 1.634 3.66 0.702 4.604-0.44 0.445-0.627 1.081-0.546 1.702 0.852 6.486 1.207 11.803-0.132 13.825-0.236 0.327-0.435 0.631-0.687 0.631-0.711 0-0.711-2.071-1.422-2.071s-0.711 2.071-1.422 2.071c-0.711 0-0.711-2.071-1.422-2.071s-0.711 2.071-1.422 2.071-0.711-2.071-1.422-2.071c-0.711 0-0.711 2.071-1.422 2.071s-0.711-2.071-1.422-2.071c-0.711 0-0.711 2.071-1.421 2.071s-0.711-2.071-1.422-2.071c-0.711 0-0.711 2.071-1.422 2.071s-0.711-2.071-1.422-2.071-0.711 2.071-1.422 2.071-0.711-2.071-1.422-2.071c-0.711 0-0.711 2.071-1.422 2.071-0.198 0-0.462-0.178-0.535-0.492l-0.048-22.556c0 0.002-0 0.005-0 0.007l0.058 27.444c0.088 0.38 0.408 0.596 0.648 0.596 0.861 0 0.861-2.507 1.721-2.507s0.861 2.507 1.721 2.507c0.861 0 0.861-2.507 1.721-2.507s0.861 2.507 1.721 2.507 0.861-2.507 1.721-2.507c0.861 0 0.861 2.507 1.721 2.507s0.86-2.507 1.721-2.507c0.86 0 0.86 2.507 1.721 2.507s0.861-2.507 1.721-2.507c0.861 0 0.861 2.507 1.721 2.507s0.861-2.507 1.721-2.507 0.861 2.507 1.721 2.507c0.861 0 0.861-2.507 1.721-2.507s0.861 2.507 1.722 2.507c0.305 0 0.665-0.23 0.744-0.704l0.066-27.337c0.001-0.587-0.686-0.906-1.134-0.528z"></path>
<path fill="#c49a8b" d="M19.736 21.060c0 2.077-1.684 3.245-3.761 3.245s-3.761-1.168-3.761-3.245 2.646-4.277 3.761-4.277 3.761 2.2 3.761 4.277z"></path>
<path fill="#b2748a" d="M15.976 16.783c-0.127 0-0.274 0.029-0.434 0.082 0.979 0.36 2.546 1.844 2.546 3.257 0 1.622-1.315 2.533-2.936 2.533-1.454 0-2.661-0.734-2.895-2.055-0.027 0.153-0.042 0.306-0.042 0.459 0 2.077 1.684 3.245 3.761 3.245s3.761-1.168 3.761-3.245c-0-2.077-2.647-4.277-3.761-4.277z"></path>
<path fill="#3c122c" d="M10.993 16.095c-0.057 0-0.116-0.013-0.171-0.041-0.002-0.001-0.331-0.163-0.721-0.163s-0.72 0.162-0.723 0.164c-0.185 0.092-0.411 0.018-0.504-0.167s-0.020-0.41 0.164-0.504c0.049-0.025 0.496-0.245 1.063-0.245s1.014 0.22 1.063 0.245c0.185 0.094 0.258 0.321 0.164 0.506-0.066 0.13-0.198 0.205-0.335 0.205z"></path>
<path fill="#3c122c" d="M22.765 16.095c-0.058 0-0.116-0.013-0.171-0.041-0.002-0.001-0.331-0.163-0.721-0.163s-0.72 0.162-0.723 0.164c-0.185 0.092-0.411 0.018-0.504-0.167s-0.020-0.41 0.164-0.504c0.049-0.025 0.496-0.245 1.063-0.245s1.014 0.22 1.063 0.245c0.185 0.094 0.258 0.321 0.164 0.506-0.066 0.13-0.198 0.205-0.335 0.205z"></path>
<path fill="#fff" d="M5.32 16.794c-0.025 0-0.050-0.001-0.075-0.005-0.344-0.041-0.589-0.353-0.548-0.697 0.081-0.678 0.205-1.386 0.369-2.106 0.077-0.338 0.412-0.549 0.75-0.472s0.549 0.412 0.472 0.75c-0.154 0.678-0.271 1.343-0.347 1.977-0.038 0.318-0.309 0.552-0.622 0.552z"></path>
<path fill="#fff" d="M6.113 12.718c-0.040 0-0.080-0.004-0.12-0.012-0.34-0.066-0.562-0.394-0.496-0.734 0.018-0.094 0.036-0.187 0.052-0.281 0.061-0.341 0.387-0.568 0.727-0.507s0.568 0.386 0.507 0.727c-0.018 0.1-0.036 0.199-0.056 0.299-0.058 0.3-0.321 0.508-0.615 0.508z"></path>
<path fill="#3c122c" d="M17.91 21.756c-0.806 0-1.515-0.419-1.922-1.050-0.407 0.631-1.117 1.050-1.922 1.050-0.208 0-0.376-0.168-0.376-0.376s0.168-0.376 0.376-0.376c0.846 0 1.534-0.688 1.534-1.534 0-0.208 0.168-0.376 0.376-0.376h0.025c0.208 0 0.376 0.168 0.376 0.376 0 0.846 0.688 1.534 1.534 1.534 0.208 0 0.376 0.168 0.376 0.376s-0.168 0.376-0.376 0.376z"></path>
<path fill="#3c122c" d="M10.877 18.199c0.43 0.43 0.43 1.127 0 1.557s-1.127 0.43-1.557 0c-0.43-0.43-0.43-1.127 0-1.557s1.127-0.43 1.557 0z"></path>
<path fill="#3c122c" d="M22.127 17.917c0.592 0.14 0.958 0.733 0.818 1.325s-0.733 0.958-1.325 0.818c-0.592-0.14-0.958-0.733-0.818-1.325s0.733-0.958 1.325-0.818z"></path>
<path fill="#3c122c" d="M15.976 24.68c-1.13 0-2.158-0.329-2.896-0.927-0.812-0.658-1.241-1.589-1.241-2.693 0-2.317 2.836-4.653 4.137-4.653s4.137 2.336 4.137 4.653c0 1.104-0.429 2.035-1.241 2.693-0.738 0.598-1.766 0.927-2.896 0.927zM15.976 17.159c-0.871 0-3.385 1.983-3.385 3.901 0 1.982 1.7 2.869 3.385 2.869s3.385-0.887 3.385-2.869c0-1.917-2.513-3.901-3.385-3.901z"></path>
<path fill="#3c122c" d="M29.382 13.557l-0.78-3.802c1.084-1.135 1.336-3.794 0.819-8.475-0.014-0.502-0.302-0.942-0.76-1.155-0.47-0.219-1.008-0.147-1.404 0.187l-4.762 4.018c-1.221-0.521-2.508-0.805-3.835-0.847-0.621-0.447-1.039-0.996-1.244-1.635-0.181-0.564-0.663-1-1.29-1.165-0.696-0.183-1.436-0.013-1.931 0.445-0.618 0.57-1.042 1.438-1.194 2.443-0 0.001-0 0.002-0 0.003-0.52-0.251-0.984-0.602-1.285-1.067-0.298-0.461-0.866-0.721-1.447-0.663-0.552 0.055-0.994 0.374-1.183 0.853-0.138 0.351-0.249 0.69-0.332 1.017l-4.033-3.402c-0.396-0.334-0.934-0.406-1.404-0.187-0.457 0.213-0.745 0.651-0.76 1.152-0.553 4.677-0.28 7.339 0.89 8.486l-0.796 3.769c-0.512 2.422-0.692 4.904-0.535 7.374l0.5 7.897c0.002 0.034 0.007 0.068 0.015 0.102 0.143 0.616 0.684 1.081 1.258 1.081 0.878 0 1.197-0.93 1.453-1.677 0.070-0.203 0.173-0.503 0.268-0.695 0.095 0.192 0.198 0.492 0.268 0.695 0.256 0.747 0.575 1.677 1.453 1.677 0.093 0 0.18-0.011 0.261-0.031v1.418c0 0.346 0.281 0.627 0.627 0.627s0.627-0.281 0.627-0.627v-2.1c0-0.552 0.063-1.090 0.182-1.607 0.008-0.018 0.016-0.036 0.024-0.052 0.095 0.192 0.198 0.492 0.268 0.695 0.219 0.639 0.485 1.411 1.106 1.621v1.68c0 0.208 0.168 0.376 0.376 0.376s0.376-0.168 0.376-0.376v-1.702c0.58-0.237 0.836-0.981 1.049-1.599 0.070-0.203 0.173-0.503 0.268-0.695 0.095 0.192 0.198 0.492 0.268 0.695 0.256 0.747 0.576 1.677 1.453 1.677s1.197-0.93 1.453-1.677c0.070-0.203 0.173-0.503 0.268-0.695 0.095 0.192 0.198 0.492 0.268 0.695 0.256 0.747 0.575 1.677 1.453 1.677s1.197-0.93 1.453-1.677c0.070-0.203 0.173-0.503 0.268-0.695 0.095 0.192 0.198 0.492 0.268 0.695 0.225 0.654 0.497 1.449 1.152 1.636v1.666c0 0.208 0.168 0.376 0.376 0.376s0.376-0.168 0.376-0.376v-1.722c0.548-0.257 0.796-0.977 1.003-1.58 0.070-0.203 0.173-0.503 0.268-0.695 0.078 0.158 0.161 0.387 0.227 0.576 0.054 0.353 0.083 0.714 0.083 1.082v2.1c0 0.346 0.281 0.627 0.627 0.627s0.627-0.281 0.627-0.627v-1.398c0.051 0.007 0.103 0.011 0.158 0.011 0.878 0 1.197-0.93 1.453-1.677 0.070-0.203 0.173-0.503 0.268-0.695 0.095 0.192 0.198 0.492 0.268 0.695 0.256 0.747 0.576 1.677 1.454 1.677 0.575 0 1.227-0.421 1.362-1.227 0.003-0.020 0.006-0.041 0.007-0.062l0.525-7.816c0.165-2.453-0.002-4.917-0.497-7.325zM28.628 20.798l-0.522 7.778c-0.015 0.065-0.040 0.103-0.064 0.126-0.109-0.168-0.242-0.554-0.326-0.799-0.256-0.747-0.576-1.677-1.453-1.677s-1.197 0.93-1.453 1.677c-0.070 0.203-0.173 0.503-0.268 0.695-0.095-0.192-0.198-0.492-0.268-0.695-0.256-0.747-0.576-1.677-1.453-1.677s-1.197 0.93-1.453 1.677c-0.070 0.203-0.173 0.503-0.268 0.695-0.095-0.192-0.198-0.492-0.268-0.695-0.256-0.747-0.576-1.677-1.453-1.677s-1.197 0.93-1.453 1.677c-0.070 0.203-0.173 0.503-0.268 0.695-0.095-0.192-0.198-0.492-0.268-0.695-0.256-0.747-0.575-1.677-1.453-1.677s-1.197 0.93-1.453 1.677c-0.070 0.203-0.173 0.503-0.268 0.695-0.095-0.192-0.198-0.492-0.268-0.695-0.256-0.747-0.576-1.677-1.453-1.677s-1.197 0.93-1.453 1.677c-0.070 0.203-0.173 0.503-0.268 0.695-0.095-0.192-0.198-0.492-0.268-0.695-0.256-0.747-0.575-1.677-1.453-1.677s-1.197 0.93-1.453 1.677c-0.070 0.203-0.173 0.503-0.268 0.695-0.095-0.192-0.198-0.492-0.268-0.695-0.256-0.747-0.576-1.677-1.453-1.677s-1.197 0.93-1.453 1.677c-0.076 0.222-0.193 0.561-0.295 0.747l-0.495-7.823c-0.149-2.357 0.023-4.725 0.511-7.036l0.875-4.142c0.054-0.254-0.054-0.514-0.272-0.655-0.669-0.434-1.328-2.105-0.675-7.6 0.003-0.025 0.004-0.050 0.004-0.075 0-0.014-0-0.040 0.036-0.057s0.056-0 0.067 0.009l4.653 3.925c0.012 0.796 0.231 1.5 0.657 2.107 0.816 1.162 2.234 1.703 3.437 1.953-0.3 0.258-0.552 0.569-0.678 0.933-0.13 0.373-0.185 0.957 0.288 1.626 0.483 0.682 1.125 0.919 1.764 0.919 0.804-0 1.605-0.375 2.080-0.71 0.282-0.199 0.349-0.588 0.151-0.871s-0.588-0.352-0.872-0.155c-0.059 0.041-1.459 0.999-2.101 0.092-0.199-0.281-0.149-0.427-0.127-0.489 0.165-0.475 1.174-0.972 1.804-1.159 0.302-0.089 0.492-0.388 0.443-0.699s-0.322-0.537-0.637-0.529c-0.922 0.027-3.532-0.216-4.526-1.633-0.572-0.814-0.571-1.967 0.004-3.425 0.014-0.035 0.081-0.059 0.141-0.065 0.114-0.011 0.227 0.029 0.27 0.096 1.015 1.569 3.255 2.264 4.942 2.139 0.345-0.026 0.604-0.326 0.579-0.671s-0.325-0.604-0.671-0.579c-0.379 0.028-0.853-0.005-1.344-0.11 0.035-0.063 0.060-0.133 0.072-0.209 0.108-0.714 0.402-1.337 0.805-1.71 0.179-0.165 0.485-0.227 0.762-0.154 0.101 0.027 0.344 0.113 0.415 0.335 0.312 0.973 0.955 1.784 1.912 2.412 0.106 0.070 0.225 0.103 0.343 0.103 0.035 0 0.070-0.004 0.105-0.010 1.303 0.036 2.563 0.335 3.748 0.894 0.222 0.105 0.484 0.070 0.671-0.088l5.063-4.272c0.011-0.009 0.031-0.026 0.067-0.009s0.036 0.043 0.036 0.057c-0 0.023 0.001 0.047 0.004 0.070 0.646 5.825-0.105 7.271-0.61 7.615-0.209 0.142-0.312 0.396-0.261 0.644l0.854 4.161c0.472 2.298 0.631 4.649 0.474 6.99z"></path>
<path fill="#3c122c" d="M23.968 22.795c-0.208 0-0.376-0.168-0.376-0.376v-0.71c0-0.208 0.168-0.376 0.376-0.376s0.376 0.168 0.376 0.376v0.71c0 0.208-0.168 0.376-0.376 0.376z"></path>
<path fill="#3c122c" d="M26.134 21.050c-0.208 0-0.376-0.168-0.376-0.376v-0.71c0-0.208 0.168-0.376 0.376-0.376s0.376 0.168 0.376 0.376v0.71c0 0.208-0.168 0.376-0.376 0.376z"></path>
<path fill="#3c122c" d="M25.619 24.214c-0.208 0-0.376-0.168-0.376-0.376v-0.71c0-0.208 0.168-0.376 0.376-0.376s0.376 0.168 0.376 0.376v0.71c0 0.208-0.168 0.376-0.376 0.376z"></path>
<path fill="#3c122c" d="M6.659 22.929c-0.208 0-0.376-0.168-0.376-0.376v-0.71c0-0.208 0.168-0.376 0.376-0.376s0.376 0.168 0.376 0.376v0.71c0 0.208-0.168 0.376-0.376 0.376z"></path>
<path fill="#3c122c" d="M8.229 24.145c-0.208 0-0.376-0.168-0.376-0.376v-0.71c0-0.208 0.168-0.376 0.376-0.376s0.376 0.168 0.376 0.376v0.71c0 0.208-0.168 0.376-0.376 0.376z"></path>
<path fill="#3c122c" d="M5.92 8.721c-0.144 0-0.281-0.083-0.343-0.222-0.085-0.19-0-0.412 0.189-0.497l0.571-0.256c0.096-0.043 0.132-0.123 0.144-0.167s0.024-0.13-0.035-0.218l-1.072-1.582c-0.116-0.172-0.072-0.406 0.1-0.522s0.406-0.071 0.522 0.1l1.072 1.582c0.168 0.248 0.218 0.556 0.136 0.845s-0.286 0.524-0.56 0.647l-0.571 0.256c-0.050 0.022-0.102 0.033-0.154 0.033z"></path>
<path fill="#3c122c" d="M26.055 8.721c-0.051 0-0.104-0.011-0.154-0.033l-0.571-0.256c-0.274-0.123-0.478-0.359-0.56-0.647s-0.033-0.597 0.136-0.845l1.072-1.582c0.116-0.172 0.35-0.217 0.522-0.1s0.217 0.35 0.1 0.522l-1.072 1.582c-0.059 0.088-0.047 0.174-0.035 0.218s0.048 0.123 0.144 0.167l0.571 0.256c0.189 0.085 0.274 0.307 0.189 0.497-0.063 0.139-0.2 0.222-0.343 0.222z"></path>
</svg>
