<!-- Generated by IcoMoon.io -->
<svg version="1.1" xmlns="http://www.w3.org/2000/svg" width="32" height="32" viewBox="0 0 32 32">
<title>wizard</title>
<path fill="#96b4eb" d="M23.764 31.367v-2.099c0-4.288-3.476-7.764-7.764-7.764s-7.764 3.476-7.764 7.764v2.099z"></path>
<path fill="#8286ea" d="M16.544 24.166c1.499 0.674 2.553 2.274 2.553 4.142v0.449c0 0.699-0.567 1.266-1.266 1.266h-7.014v1.28h10.365v-1.983c0-2.679-2.032-4.882-4.639-5.154z"></path>
<path fill="#efc5b4" d="M27.996 15.945c0.036-0.341 0.054-0.686 0.054-1.036v-0c0-5.445-4.414-9.859-9.859-9.859h-4.382c-5.445 0-9.859 4.414-9.859 9.859v0c0 0.35 0.019 0.695 0.054 1.036-1.071 0.31-1.855 1.298-1.855 2.469 0 1.42 1.151 2.571 2.571 2.571 0.405 0 0.787-0.094 1.128-0.26 1.794 2.451 4.691 4.043 7.961 4.043h4.382c3.27 0 6.167-1.592 7.961-4.043 0.341 0.167 0.723 0.26 1.128 0.26 1.42 0 2.571-1.151 2.571-2.571 0-1.171-0.783-2.159-1.855-2.469z"></path>
<path fill="#fff" d="M23.887 14.363c0.727 1.531 1.088 3.069 0.986 4.618 0 1.652-1.339 2.991-2.991 2.991s-2.991-1.339-2.991-2.991h0c0-1.597-1.294-2.891-2.891-2.891s-2.891 1.294-2.891 2.891h0c0 1.652-1.339 2.991-2.991 2.991s-2.991-1.339-2.991-2.991c-0.131-1.685 0.287-3.272 1.388-4.738h-5.145s0.352 6.958 5.701 9.854c5.35 2.896 4.942 6.434 6.929 6.434 1.973 0 1.673-3.568 6.881-6.364s5.749-9.923 5.749-9.923z"></path>
<path fill="#e1bdfc" d="M26.178 14.243s-0.062 6.418-5.191 8.817c-4.818 2.253-3.89 5.655-5.671 5.655-0.414 0-0.742-0.168-1.061-0.458v0.86c0.545 0.855 0.956 1.414 1.746 1.414 1.973 0 1.673-3.568 6.881-6.364s5.749-9.923 5.749-9.923h-2.453z"></path>
<path fill="#96b4eb" d="M29.319 10.166h-1.459c-0.809-1.413-5.726-9.534-11.861-9.534s-11.052 8.121-11.861 9.534h-1.459c-1.135 0-2.054 0.92-2.054 2.054s0.92 2.054 2.054 2.054h26.639c1.135 0 2.054-0.92 2.054-2.054s-0.92-2.054-2.054-2.054z"></path>
<path fill="#faf1a9" d="M21.622 5.232l0.29 0.587c0.061 0.125 0.18 0.211 0.318 0.231l0.648 0.094c0.346 0.050 0.484 0.476 0.234 0.72l-0.469 0.457c-0.099 0.097-0.145 0.237-0.121 0.374l0.111 0.645c0.059 0.345-0.303 0.608-0.612 0.445l-0.579-0.304c-0.123-0.065-0.27-0.065-0.393 0l-0.579 0.305c-0.31 0.163-0.672-0.1-0.612-0.445l0.111-0.645c0.023-0.137-0.022-0.277-0.121-0.374l-0.469-0.457c-0.25-0.244-0.112-0.67 0.234-0.72l0.648-0.094c0.137-0.020 0.256-0.106 0.318-0.231l0.29-0.587c0.155-0.314 0.602-0.314 0.757 0z"></path>
<path fill="#faf1a9" d="M16.378 2.557l0.29 0.587c0.061 0.125 0.18 0.211 0.318 0.231l0.648 0.094c0.346 0.050 0.484 0.476 0.234 0.72l-0.469 0.457c-0.099 0.097-0.145 0.237-0.121 0.374l0.111 0.645c0.059 0.345-0.303 0.608-0.612 0.445l-0.579-0.304c-0.123-0.065-0.27-0.065-0.393 0l-0.579 0.304c-0.31 0.163-0.672-0.1-0.612-0.445l0.111-0.645c0.024-0.137-0.022-0.277-0.121-0.374l-0.469-0.457c-0.251-0.244-0.112-0.67 0.234-0.72l0.648-0.094c0.137-0.020 0.256-0.106 0.318-0.231l0.29-0.587c0.155-0.314 0.602-0.314 0.757-0z"></path>
<path fill="#faf1a9" d="M11.135 5.232l0.29 0.587c0.062 0.125 0.18 0.211 0.318 0.231l0.648 0.094c0.346 0.050 0.484 0.476 0.234 0.72l-0.469 0.457c-0.1 0.097-0.145 0.237-0.121 0.374l0.111 0.645c0.059 0.345-0.303 0.608-0.612 0.445l-0.579-0.304c-0.123-0.065-0.27-0.065-0.393 0l-0.579 0.305c-0.31 0.163-0.672-0.1-0.612-0.445l0.111-0.645c0.024-0.137-0.022-0.277-0.121-0.374l-0.469-0.457c-0.251-0.244-0.112-0.67 0.234-0.72l0.648-0.094c0.137-0.020 0.256-0.106 0.318-0.231l0.29-0.587c0.155-0.314 0.602-0.314 0.757 0z"></path>
<path fill="#8286ea" d="M16 0.633c-0.632 0-1.251 0.086-1.854 0.242 0.251-0.037 0.506-0.058 0.763-0.058 2.547 0 4.807 1.913 6.393 3.757 0.333 0.387 0.256 0.906 0.495 1.277 1.321 2.046 0.356 2.974-2.049 2.093h-7.579l-1.535 0.412-1.217-0.412h-3.27s1.372-2.541 3.524-4.588c-3.415 2.882-5.648 7.019-5.648 7.019h23.955c0-0-5.259-9.742-11.977-9.742z"></path>
<path fill="#dfb5a7" d="M9.981 8.784l0.579-0.305c0.123-0.065 0.27-0.065 0.393 0l0.579 0.305c0.31 0.163 0.672-0.1 0.612-0.445l-0.068-0.394h-2.641l-0.068 0.394c-0.059 0.345 0.303 0.608 0.612 0.445z"></path>
<path fill="#dfb5a7" d="M20.468 8.784l0.579-0.305c0.123-0.065 0.27-0.065 0.393 0l0.579 0.305c0.31 0.163 0.672-0.1 0.612-0.445l-0.111-0.645c-0.023-0.137 0.022-0.277 0.121-0.374l0.469-0.457c0.25-0.244 0.112-0.67-0.234-0.72l-0.648-0.094c-0.137-0.020-0.256-0.106-0.318-0.231l-0.148-0.299c0.213 1.125-0.579 2.316-1.84 2.418l-0.069 0.402c-0.059 0.345 0.303 0.608 0.612 0.445z"></path>
<path fill="#c1e5ef" d="M29.869 26.545l0.514 1.447c0.022 0.062 0.066 0.111 0.121 0.136l1.285 0.579c0.182 0.082 0.182 0.371 0 0.453l-1.285 0.579c-0.055 0.025-0.099 0.074-0.121 0.136l-0.514 1.447c-0.073 0.204-0.33 0.204-0.402 0l-0.514-1.447c-0.022-0.062-0.066-0.111-0.121-0.136l-1.285-0.579c-0.182-0.082-0.182-0.371 0-0.453l1.285-0.579c0.055-0.025 0.099-0.074 0.121-0.136l0.514-1.447c0.073-0.204 0.33-0.204 0.402 0z"></path>
<path fill="#c1e5ef" d="M2.511 25.607l0.382 1.073c0.016 0.046 0.049 0.082 0.090 0.101l0.953 0.43c0.135 0.061 0.135 0.275 0 0.336l-0.953 0.43c-0.041 0.018-0.073 0.055-0.090 0.101l-0.382 1.073c-0.054 0.152-0.245 0.152-0.299 0l-0.382-1.073c-0.016-0.046-0.049-0.082-0.089-0.101l-0.953-0.43c-0.135-0.061-0.135-0.275 0-0.336l0.953-0.43c0.041-0.018 0.073-0.055 0.089-0.101l0.382-1.073c0.054-0.152 0.245-0.152 0.298 0z"></path>
<path fill="#96b4eb" d="M30.189 4.357c0.238 0.573-0.034 1.231-0.608 1.468s-1.231-0.034-1.468-0.608c-0.238-0.573 0.034-1.231 0.608-1.468s1.231 0.034 1.468 0.608z"></path>
<path fill="#96b4eb" d="M6.1 25.233c0 0.268-0.217 0.485-0.485 0.485s-0.485-0.217-0.485-0.485 0.217-0.485 0.485-0.485 0.485 0.217 0.485 0.485z"></path>
<path fill="#3c122c" d="M8.892 15.892c0.093 0.185 0.319 0.259 0.504 0.167 0.003-0.002 0.332-0.164 0.722-0.164s0.719 0.162 0.721 0.163c0.055 0.028 0.113 0.041 0.171 0.041 0.137 0 0.269-0.075 0.335-0.205 0.094-0.185 0.021-0.411-0.164-0.505-0.049-0.025-0.496-0.245-1.063-0.245s-1.013 0.22-1.063 0.245c-0.184 0.094-0.257 0.319-0.164 0.504z"></path>
<path fill="#3c122c" d="M21.16 16.058c0.003-0.002 0.332-0.164 0.722-0.164s0.719 0.162 0.721 0.163c0.055 0.028 0.113 0.041 0.171 0.041 0.137 0 0.269-0.075 0.335-0.205 0.094-0.185 0.021-0.411-0.164-0.505-0.049-0.025-0.496-0.245-1.063-0.245s-1.013 0.22-1.063 0.245c-0.184 0.094-0.257 0.319-0.164 0.504s0.319 0.259 0.504 0.167z"></path>
<path fill="#3c122c" d="M17.101 18.605c-0.207 0-0.376 0.168-0.376 0.376 0 0.4-0.325 0.725-0.725 0.725s-0.725-0.325-0.725-0.725c0-0.207-0.168-0.376-0.376-0.376s-0.376 0.168-0.376 0.376c0 0.814 0.662 1.476 1.476 1.476s1.476-0.662 1.476-1.476c0-0.207-0.168-0.376-0.376-0.376z"></path>
<path fill="#3c122c" d="M29.319 14.901c1.478 0 2.681-1.203 2.681-2.681s-1.203-2.681-2.681-2.681h-1.099c-0.514-0.865-1.648-2.648-3.243-4.451-1.29-1.458-2.614-2.623-3.936-3.462-1.692-1.075-3.388-1.62-5.042-1.62s-3.35 0.545-5.042 1.62c-1.322 0.84-2.646 2.005-3.936 3.462-1.595 1.803-2.729 3.586-3.243 4.451h-1.099c-1.478 0-2.681 1.203-2.681 2.681s1.202 2.681 2.681 2.681h0.125c0.029 0.233 0.073 0.525 0.135 0.86-0.854 0.575-1.417 1.549-1.417 2.654 0 1.763 1.434 3.197 3.197 3.197 0.203 0 0.402-0.019 0.595-0.056 0.944 1.315 2.109 2.361 3.458 3.090 0.057 0.031 0.112 0.062 0.167 0.093-0.841 1.307-1.33 2.862-1.33 4.529v2.099c0 0.346 0.28 0.626 0.626 0.626s0.626-0.28 0.626-0.626v-2.099c0-1.427 0.423-2.757 1.147-3.874 0.493 0.334 0.918 0.671 1.291 1.005-0.543 0.858-0.858 1.873-0.858 2.962v2.244c0 0.207 0.168 0.376 0.376 0.376s0.376-0.168 0.376-0.376v-2.244c0-0.885 0.242-1.715 0.661-2.427 0.808 0.837 1.314 1.638 1.738 2.308 0.65 1.028 1.211 1.915 2.408 1.915 1.194 0 1.771-0.897 2.439-1.936 0.424-0.66 0.931-1.448 1.72-2.265 0.411 0.708 0.648 1.529 0.648 2.405v2.244c0 0.207 0.168 0.376 0.376 0.376s0.376-0.168 0.376-0.376v-2.244c0-1.079-0.31-2.087-0.844-2.94 0.373-0.335 0.8-0.671 1.294-1.002 0.714 1.111 1.13 2.433 1.13 3.849v2.099c0 0.346 0.28 0.626 0.626 0.626s0.626-0.28 0.626-0.626v-2.099c0-1.653-0.481-3.196-1.31-4.497 0.033-0.018 0.064-0.036 0.097-0.053 1.351-0.725 2.525-1.798 3.483-3.167 0.201 0.040 0.407 0.062 0.62 0.062 1.763 0 3.197-1.434 3.197-3.197 0-1.115-0.574-2.097-1.441-2.669 0.066-0.33 0.113-0.615 0.146-0.844zM16 1.259c4.933 0 9.151 5.779 10.746 8.281h-21.491c1.595-2.502 5.812-8.281 10.745-8.281zM1.253 12.221c0-0.787 0.641-1.428 1.428-1.428h26.639c0.787 0 1.428 0.641 1.428 1.428s-0.641 1.428-1.428 1.428h-26.639c-0.787 0-1.428-0.641-1.428-1.428zM24.498 18.954c-0.001 0.009-0.001 0.018-0.001 0.027 0 1.442-1.173 2.615-2.615 2.615-1.438 0-2.608-1.166-2.615-2.602 0-0.004 0-0.009 0-0.013 0-1.802-1.466-3.267-3.267-3.267s-3.267 1.466-3.267 3.267c0 0.004 0 0.007 0 0.011-0.006 1.437-1.177 2.604-2.615 2.604-1.442 0-2.615-1.173-2.615-2.615 0-0.012-0.001-0.024-0.002-0.037-0.003-0.026-0.215-2.406 1.018-4.043h15.186c0.949 1.637 0.796 4.027 0.794 4.053zM2.775 18.415c0-0.489 0.183-0.936 0.482-1.278 0.102 0.368 0.223 0.757 0.368 1.159 0.263 0.731 0.574 1.418 0.928 2.056-0.995-0.085-1.778-0.921-1.778-1.937zM29.225 18.415c0 1.032-0.809 1.879-1.826 1.941 0.337-0.616 0.637-1.278 0.897-1.983 0.164-0.444 0.3-0.871 0.413-1.273 0.319 0.346 0.515 0.808 0.515 1.316zM22.585 23.614c-3.101 1.665-4.364 3.63-5.2 4.93-0.648 1.008-0.916 1.36-1.385 1.36s-0.713-0.325-1.349-1.332c-0.829-1.312-2.083-3.295-5.281-5.027-2.070-1.12-3.602-3.018-4.553-5.64-0.444-1.223-0.651-2.328-0.746-3.004h3.544c-1.035 1.743-0.885 3.853-0.863 4.097 0.010 1.848 1.516 3.349 3.367 3.349 1.856 0 3.367-1.51 3.367-3.367 0-0.004-0-0.007-0-0.011 0.006-1.382 1.132-2.505 2.516-2.505s2.509 1.122 2.516 2.503c-0 0.004-0 0.009-0 0.013 0 1.856 1.51 3.367 3.367 3.367 1.852 0 3.36-1.503 3.367-3.354 0.014-0.215 0.127-2.353-0.697-4.092h3.362c-0.29 1.808-1.413 6.61-5.328 8.713z"></path>
<path fill="#3c122c" d="M23.373 7.133c0.219-0.213 0.296-0.527 0.202-0.818s-0.341-0.499-0.644-0.543l-0.648-0.094c-0.015-0.002-0.028-0.012-0.035-0.025l-0.29-0.587c-0.135-0.274-0.409-0.445-0.715-0.445s-0.58 0.17-0.715 0.445l-0.29 0.587c-0.007 0.014-0.020 0.023-0.035 0.025l-0.648 0.094c-0.303 0.044-0.55 0.252-0.644 0.543s-0.017 0.604 0.202 0.818l0.469 0.457c0.011 0.011 0.016 0.026 0.013 0.041l-0.111 0.645c-0.052 0.302 0.070 0.601 0.317 0.78 0.14 0.102 0.304 0.153 0.468 0.153 0.127 0 0.254-0.031 0.372-0.092l0.579-0.304c0.013-0.007 0.030-0.007 0.043 0l0.579 0.305c0.271 0.142 0.593 0.119 0.84-0.061s0.369-0.479 0.317-0.78l-0.111-0.645c-0.003-0.015 0.002-0.030 0.013-0.041zM22.849 6.595l-0.469 0.457c-0.188 0.183-0.274 0.447-0.23 0.706l0.111 0.645c0.001 0.008 0.005 0.028-0.018 0.045s-0.041 0.008-0.049 0.004l-0.579-0.305c-0.233-0.122-0.51-0.122-0.743-0l-0.579 0.305c-0.008 0.004-0.026 0.013-0.049-0.004s-0.020-0.037-0.018-0.045l0.111-0.645c0.044-0.259-0.041-0.523-0.23-0.706l-0.469-0.457c-0.006-0.006-0.021-0.020-0.012-0.048s0.029-0.030 0.037-0.032l0.648-0.094c0.26-0.038 0.485-0.201 0.601-0.436l0.29-0.587c0.004-0.008 0.013-0.026 0.041-0.026s0.038 0.018 0.041 0.026c0 0 0 0 0 0l0.29 0.587c0.116 0.236 0.341 0.399 0.601 0.436l0.648 0.094c0.009 0.001 0.029 0.004 0.037 0.032s-0.005 0.042-0.012 0.048z"></path>
<path fill="#3c122c" d="M17.688 3.097l-0.648-0.094c-0.015-0.002-0.028-0.012-0.035-0.025l-0.29-0.587c-0.135-0.274-0.41-0.445-0.716-0.445s-0.58 0.17-0.715 0.445l-0.29 0.587c-0.007 0.014-0.020 0.023-0.035 0.025l-0.648 0.094c-0.303 0.044-0.55 0.252-0.644 0.543s-0.017 0.604 0.202 0.818l0.469 0.457c0.011 0.011 0.016 0.026 0.013 0.041l-0.111 0.645c-0.052 0.301 0.070 0.601 0.317 0.78 0.14 0.102 0.304 0.153 0.468 0.153 0.127 0 0.254-0.031 0.372-0.093l0.579-0.305c0.013-0.007 0.030-0.007 0.043 0l0.579 0.304c0.271 0.142 0.593 0.119 0.84-0.061s0.369-0.479 0.318-0.78l-0.111-0.645c-0.003-0.015 0.002-0.030 0.013-0.041l0.469-0.457c0.219-0.214 0.296-0.527 0.202-0.818s-0.341-0.499-0.644-0.543zM17.605 3.92l-0.469 0.457c-0.188 0.183-0.274 0.447-0.23 0.706l0.111 0.645c0.001 0.008 0.005 0.028-0.018 0.045s-0.041 0.008-0.049 0.003l-0.579-0.304c-0.233-0.122-0.51-0.122-0.743 0l-0.579 0.305c-0.008 0.004-0.025 0.013-0.049-0.004s-0.020-0.037-0.018-0.045l0.111-0.645c0.044-0.259-0.041-0.523-0.229-0.706l-0.469-0.457c-0.006-0.006-0.021-0.020-0.012-0.047s0.029-0.030 0.037-0.031l0.648-0.094c0.26-0.038 0.485-0.201 0.601-0.436l0.29-0.587c0.004-0.008 0.013-0.026 0.041-0.026s0.038 0.018 0.042 0.026l0.29 0.587c0.116 0.236 0.341 0.399 0.601 0.437l0.648 0.094c0.009 0.001 0.029 0.004 0.037 0.031s-0.005 0.041-0.011 0.047z"></path>
<path fill="#3c122c" d="M12.444 5.772l-0.648-0.094c-0.015-0.002-0.028-0.012-0.035-0.025l-0.29-0.587c-0.135-0.274-0.409-0.445-0.715-0.445s-0.58 0.17-0.716 0.445l-0.29 0.587c-0.007 0.014-0.020 0.023-0.035 0.025l-0.648 0.094c-0.303 0.044-0.55 0.252-0.644 0.543s-0.017 0.604 0.202 0.818l0.469 0.457c0.011 0.011 0.016 0.026 0.013 0.041l-0.111 0.645c-0.052 0.302 0.070 0.601 0.317 0.78 0.14 0.102 0.303 0.153 0.468 0.153 0.127 0 0.254-0.031 0.372-0.092l0.579-0.304c0.013-0.007 0.030-0.007 0.043 0l0.579 0.305c0.271 0.142 0.593 0.119 0.84-0.061s0.369-0.479 0.317-0.78l-0.111-0.645c-0.003-0.015 0.002-0.030 0.013-0.041l0.469-0.457c0.219-0.213 0.296-0.527 0.202-0.818s-0.341-0.499-0.644-0.543zM12.362 6.595l-0.469 0.457c-0.188 0.183-0.274 0.447-0.229 0.706l0.111 0.645c0.001 0.008 0.005 0.028-0.018 0.045s-0.041 0.008-0.049 0.004l-0.579-0.305c-0.116-0.061-0.244-0.092-0.371-0.092s-0.255 0.031-0.371 0.092l-0.579 0.305c-0.008 0.004-0.025 0.014-0.049-0.004s-0.020-0.037-0.018-0.045l0.111-0.645c0.044-0.259-0.041-0.523-0.229-0.706l-0.469-0.457c-0.006-0.006-0.021-0.020-0.012-0.047s0.029-0.030 0.037-0.032l0.648-0.094c0.26-0.038 0.484-0.201 0.601-0.436l0.29-0.587c0.004-0.008 0.013-0.026 0.042-0.026s0.038 0.018 0.042 0.026l0.29 0.587c0.116 0.236 0.341 0.399 0.601 0.436l0.648 0.094c0.009 0.001 0.028 0.004 0.037 0.032s-0.005 0.042-0.011 0.048z"></path>
<path fill="#3c122c" d="M19.017 22.982c-0.207 0-0.376 0.168-0.376 0.376v0.71c0 0.207 0.168 0.376 0.376 0.376s0.376-0.168 0.376-0.376v-0.71c0-0.207-0.168-0.376-0.376-0.376z"></path>
<path fill="#3c122c" d="M17.078 24.59c-0.207 0-0.376 0.168-0.376 0.376v0.71c0 0.207 0.168 0.376 0.376 0.376s0.376-0.168 0.376-0.376v-0.71c0-0.207-0.168-0.376-0.376-0.376z"></path>
<path fill="#3c122c" d="M15.525 23.225c-0.207 0-0.376 0.168-0.376 0.376v0.71c0 0.207 0.168 0.376 0.376 0.376s0.376-0.168 0.376-0.376v-0.71c0-0.207-0.168-0.376-0.376-0.376z"></path>
<path fill="#fff" d="M8.503 12.75c-0.549 0-1.1-0.002-1.66-0.006-0.346-0.002-0.624-0.285-0.622-0.63 0.002-0.344 0.282-0.622 0.626-0.622h0.004c1.115 0.007 2.192 0.007 3.293 0h0.004c0.344 0 0.624 0.278 0.626 0.622 0.002 0.346-0.276 0.628-0.622 0.63-0.553 0.004-1.1 0.006-1.649 0.006z"></path>
<path fill="#fff" d="M4.364 12.745h-0.994c-0.346 0-0.626-0.28-0.626-0.626s0.28-0.626 0.626-0.626h0.994c0.346 0 0.626 0.28 0.626 0.626s-0.28 0.626-0.626 0.626z"></path>
<path fill="#3c122c" d="M11.219 18.98c0 0.608-0.493 1.101-1.101 1.101s-1.101-0.493-1.101-1.101c0-0.608 0.493-1.101 1.101-1.101s1.101 0.493 1.101 1.101z"></path>
<path fill="#3c122c" d="M22.983 18.98c0 0.608-0.493 1.101-1.101 1.101s-1.101-0.493-1.101-1.101c0-0.608 0.493-1.101 1.101-1.101s1.101 0.493 1.101 1.101z"></path>
</svg>
