<!-- Generated by IcoMoon.io -->
<svg version="1.1" xmlns="http://www.w3.org/2000/svg" width="32" height="32" viewBox="0 0 32 32">
<title>wrestler</title>
<path fill="#c49a8b" d="M28.221 15.22c0.036-0.346 0.055-0.696 0.055-1.052 0-5.527-4.48-10.007-10.007-10.007h-4.448c-5.527 0-10.007 4.48-10.007 10.007 0 0.355 0.019 0.706 0.055 1.052-1.087 0.315-1.883 1.317-1.883 2.506 0 1.441 1.168 2.61 2.61 2.61 0.411 0 0.799-0.095 1.145-0.264 1.114 1.522 2.648 2.717 4.431 3.416-1.248 1.394-2.008 3.235-2.008 5.254v2.13h15.761v-2.13c0-2.019-0.759-3.86-2.008-5.254 1.783-0.699 3.317-1.894 4.431-3.416 0.346 0.169 0.734 0.264 1.145 0.264 1.441 0 2.61-1.168 2.61-2.61 0-1.189-0.795-2.191-1.883-2.506z"></path>
<path fill="#d789b9" d="M13.223 24.422c-1.466 0.934-2.438 2.572-2.438 4.438v2.013h2.438z"></path>
<path fill="#d789b9" d="M18.908 24.448v6.424h2.397v-2.013c0-1.849-0.954-3.473-2.397-4.412z"></path>
<path fill="#c668b9" d="M16.597 23.623c1.521 0.684 2.592 2.308 2.592 4.204v0.456c0 0.71-0.576 1.285-1.285 1.285h-7.119v1.299h10.521v-2.013c0-2.719-2.063-4.955-4.708-5.231z"></path>
<path fill="#b2748a" d="M17.903 29.568h-4.769v1.299h5.528v-1.549c-0.213 0.156-0.475 0.25-0.759 0.25z"></path>
<path fill="#d789b9" d="M18.269 4.162h-4.448c-5.527 0-10.007 4.48-10.007 10.007s4.48 10.007 10.007 10.007h4.448c5.527 0 10.007-4.48 10.007-10.007s-4.48-10.007-10.007-10.007zM22.015 21.609c-0.35 0-0.687-0.054-1.004-0.155l-0.046-0.014c-1.134-0.307-2.909-0.487-4.921-0.487-1.966 0-3.675 0.162-4.812 0.457l-0.073 0.017c-0.34 0.118-0.705 0.182-1.085 0.182-1.827 0-3.309-1.481-3.309-3.309s1.481-3.309 3.309-3.309c0.964 0 2.16 0.801 2.16 0.801 0.117 0.101 0.192 0.167 0.372 0.289 0.897 0.608 2.102 1 3.439 1 1.276 0 2.693-0.406 3.504-1.002 0.143-0.105 0.247-0.234 0.31-0.287 0.579-0.498 1.333-0.799 2.157-0.799 1.827 0 3.309 1.481 3.309 3.309s-1.481 3.309-3.309 3.309z"></path>
<path fill="#f6e06e" d="M24.912 21.101s0.754-1.857 0.619-3.607c-1.427-3.984-4.818-2.611-6.057-1.4-0.858 0.84-4.727 1.582-6.541 0.188-2.207-1.696-3.445-1.319-4.172-1.184-3.688 1.346-1.857 5.949-1.857 5.949l-2.363-2.746c0-3.051 2.482-5.534 5.534-5.534 1.522 0 2.985 0.901 3.398 1.177 1.156 1.131 3.832 1.226 4.936 0.161 1.002-0.862 2.284-1.337 3.607-1.337 3.051 0 5.534 2.482 5.534 5.534z"></path>
<path fill="#f6e06e" d="M16.546 7.207l0.384 0.777c0.081 0.165 0.239 0.279 0.421 0.306l0.858 0.125c0.459 0.067 0.642 0.63 0.31 0.954l-0.621 0.605c-0.132 0.129-0.192 0.314-0.161 0.495l0.147 0.854c0.078 0.457-0.401 0.805-0.811 0.589l-0.767-0.403c-0.163-0.086-0.357-0.086-0.52 0l-0.767 0.403c-0.41 0.216-0.89-0.133-0.811-0.589l0.147-0.854c0.031-0.181-0.029-0.367-0.161-0.495l-0.621-0.605c-0.332-0.323-0.149-0.887 0.31-0.954l0.858-0.125c0.182-0.026 0.34-0.141 0.421-0.306l0.384-0.777c0.205-0.416 0.798-0.416 1.003 0z"></path>
<path fill="#f6e06e" d="M11.87 8.166s-1.169 0.55-2.070 0.445-1.238-0.452-1.194-0.826 0.451-0.634 1.353-0.529c0.902 0.105 1.912 0.91 1.912 0.91z"></path>
<path fill="#f6e06e" d="M11.867 10.418s-0.999 0.819-1.899 0.937c-0.9 0.118-1.311-0.136-1.36-0.51s0.283-0.725 1.183-0.843c0.9-0.118 2.077 0.416 2.077 0.416z"></path>
<path fill="#f6e06e" d="M20.219 8.166s1.169 0.55 2.070 0.445 1.238-0.452 1.194-0.826-0.451-0.634-1.353-0.529c-0.902 0.105-1.912 0.91-1.912 0.91z"></path>
<path fill="#f6e06e" d="M20.222 10.418s0.999 0.819 1.899 0.937c0.9 0.118 1.311-0.136 1.36-0.51s-0.283-0.725-1.183-0.843c-0.9-0.118-2.077 0.416-2.077 0.416z"></path>
<path fill="#b2748a" d="M18.269 4.179h-1.283c4.481 0 8.113 3.632 8.113 8.113v0.689c0 4.481-3.632 8.113-8.113 8.113h-5.059c-4.288 0-7.798-3.326-8.092-7.54-0.013 0.209-0.020 0.42-0.020 0.632v0c0 5.527 4.48 10.007 10.007 10.007h4.448c5.527 0 10.007-4.48 10.007-10.007v-0c0-5.527-4.48-10.007-10.007-10.007z"></path>
<path fill="#c668b9" d="M28.275 14.178c-0.005-5.523-4.483-9.998-10.007-9.998h-1.283c4.481 0 8.113 3.632 8.113 8.113v0.689c0 1.103-0.22 2.154-0.619 3.112 0.525 0.586 0.845 1.359 0.845 2.207 0 1.827-1.481 3.309-3.309 3.309-0.35 0-0.687-0.054-1.004-0.155l-0.046-0.014c-0.73-0.198-1.727-0.343-2.881-0.421-0.36 0.049-0.727 0.074-1.1 0.074h-3.878c-0.723 0.076-1.358 0.183-1.874 0.317l-0.073 0.017c-0.34 0.118-0.705 0.182-1.085 0.182-1.446 0-2.675-0.928-3.125-2.221-1.767-1.375-2.95-3.464-3.115-5.834-0.013 0.206-0.020 0.414-0.020 0.624 0.005 5.522 4.483 9.997 10.007 9.997h4.448c5.524-0 10.002-4.476 10.007-9.998z"></path>
<path fill="#dda86a" d="M25.067 13.687c-0.064 0.745-0.229 1.462-0.481 2.136 0.363 0.403 0.686 0.948 0.945 1.67 0.135 1.75-0.619 3.607-0.619 3.607l2.323-2.467c0.109-0.22 0.21-0.444 0.303-0.672-0.108-1.784-1.065-3.342-2.471-4.275z"></path>
<path fill="#dda86a" d="M6.462 18.976c-0.688-0.627-1.267-1.372-1.707-2.201-0.109 0.381-0.178 0.778-0.203 1.187 0.104 0.254 0.217 0.504 0.341 0.747l2.011 2.338s-0.368-0.927-0.442-2.070z"></path>
<path fill="#e8c2d8" d="M2.496 1.963l0.522 1.468c0.022 0.063 0.067 0.113 0.122 0.138l1.304 0.588c0.184 0.083 0.184 0.377 0 0.46l-1.304 0.588c-0.056 0.025-0.1 0.075-0.122 0.138l-0.522 1.468c-0.074 0.207-0.335 0.207-0.408 0l-0.522-1.468c-0.022-0.063-0.067-0.113-0.122-0.138l-1.304-0.588c-0.184-0.083-0.184-0.377 0-0.46l1.304-0.588c0.056-0.025 0.1-0.075 0.122-0.138l0.522-1.468c0.074-0.207 0.335-0.207 0.409 0z"></path>
<path fill="#e8c2d8" d="M30.452 4.509l0.387 1.089c0.017 0.047 0.049 0.084 0.091 0.102l0.968 0.436c0.137 0.062 0.137 0.279 0 0.341l-0.968 0.436c-0.041 0.019-0.074 0.056-0.091 0.102l-0.387 1.089c-0.055 0.154-0.248 0.154-0.303 0l-0.387-1.089c-0.017-0.047-0.049-0.084-0.091-0.102l-0.968-0.436c-0.137-0.062-0.137-0.279 0-0.341l0.968-0.436c0.041-0.019 0.074-0.056 0.091-0.102l0.387-1.089c0.055-0.154 0.248-0.154 0.303 0z"></path>
<path fill="#d789b9" d="M25.188 0.529c0.613 0.145 0.992 0.759 0.847 1.372s-0.759 0.992-1.372 0.847c-0.613-0.145-0.992-0.759-0.847-1.372s0.759-0.992 1.372-0.847z"></path>
<path fill="#d789b9" d="M7.924 1.035c0.27 0.033 0.461 0.279 0.428 0.548s-0.279 0.462-0.548 0.428c-0.27-0.033-0.462-0.279-0.428-0.548s0.279-0.462 0.548-0.428z"></path>
<path fill="#3c122c" d="M28.892 14.8c0.012-0.209 0.019-0.419 0.019-0.631 0-5.868-4.774-10.643-10.643-10.643h-4.448c-5.868 0-10.643 4.774-10.643 10.643 0 0.212 0.007 0.422 0.019 0.63-1.091 0.523-1.847 1.639-1.847 2.927 0 1.79 1.456 3.245 3.245 3.245 0.325 0 0.638-0.049 0.934-0.138 0.978 1.214 2.217 2.21 3.631 2.902-1.026 1.406-1.632 3.137-1.632 5.007v2.13c0 0.351 0.285 0.636 0.636 0.636s0.636-0.285 0.636-0.636v-2.13c0-1.701 0.589-3.267 1.574-4.504 0.594 0.204 1.212 0.357 1.848 0.453-1.118 1.032-1.819 2.508-1.819 4.145v2.277c0 0.211 0.171 0.381 0.381 0.381s0.381-0.171 0.381-0.381v-2.277c0-1.459 0.644-2.77 1.663-3.665v5.924c0 0.211 0.171 0.381 0.381 0.381s0.381-0.171 0.381-0.381v-6.287c0.076 0.002 0.153 0.003 0.229 0.003h4.448c0.047 0 0.094-0.001 0.142-0.002v6.286c0 0.211 0.171 0.381 0.381 0.381s0.381-0.171 0.381-0.381v-6c1.069 0.896 1.751 2.24 1.751 3.741v2.277c0 0.211 0.171 0.381 0.381 0.381s0.381-0.171 0.381-0.381v-2.277c0-1.637-0.702-3.114-1.819-4.145 0.636-0.096 1.253-0.249 1.847-0.453 0.985 1.237 1.575 2.803 1.575 4.504v2.13c0 0.351 0.285 0.636 0.636 0.636s0.636-0.285 0.636-0.636v-2.13c0-1.87-0.606-3.601-1.632-5.007 1.414-0.692 2.653-1.688 3.631-2.902 0.296 0.089 0.609 0.139 0.934 0.139 1.79 0 3.245-1.456 3.245-3.245 0-1.289-0.756-2.404-1.847-2.927zM13.821 4.797h4.448c5.167 0 9.371 4.204 9.371 9.371 0 0.624-0.062 1.234-0.179 1.824-0.901-2.118-3.003-3.607-5.446-3.607-1.415 0-2.784 0.508-3.856 1.43-0.86 0.854-3.074 0.849-4.090 0.109-0.107-0.073-0.259-0.227-0.385-0.297-0.435-0.291-1.98-1.241-3.61-1.241-2.443 0-4.545 1.489-5.446 3.607-0.117-0.59-0.179-1.2-0.179-1.824 0-5.167 4.204-9.371 9.371-9.371zM4.596 19.701c-1.088 0-1.974-0.886-1.974-1.974 0-0.625 0.293-1.182 0.748-1.544 0.243 1.264 0.71 2.45 1.359 3.513-0.044 0.003-0.088 0.005-0.133 0.005zM18.269 23.54h-4.448c-2.028 0-3.907-0.648-5.442-1.747 0.46 0.198 0.966 0.308 1.497 0.308 0.42 0 0.832-0.068 1.225-0.202l0.055-0.012c0.004-0.001 0.008-0.002 0.012-0.003 1.143-0.297 2.875-0.46 4.876-0.46 2.020 0 3.837 0.179 4.985 0.49 0.004 0.001 0.008 0.002 0.012 0.003 0.006 0.002 0.013 0.005 0.019 0.007 0.372 0.118 0.759 0.178 1.153 0.178 0.531 0 1.037-0.11 1.497-0.308-1.535 1.099-3.415 1.747-5.443 1.747zM22.214 21.338c-0.315 0-0.625-0.048-0.921-0.142-0.009-0.003-0.019-0.006-0.028-0.008-0.011-0.004-0.023-0.008-0.035-0.011-1.211-0.328-3.101-0.517-5.185-0.517-2.061 0-3.858 0.172-5.062 0.483l-0.070 0.016c-0.014 0.003-0.028 0.007-0.041 0.012-0.319 0.111-0.655 0.167-0.996 0.167-1.675 0-3.038-1.363-3.038-3.038s1.363-3.038 3.038-3.038c0.807 0 1.851 0.654 2.001 0.751 0.116 0.1 0.207 0.177 0.401 0.309 1.045 0.709 2.383 1.099 3.767 1.099 1.398 0 2.945-0.446 3.847-1.11 0.153-0.113 0.241-0.215 0.343-0.315 0.55-0.473 1.253-0.734 1.98-0.734 1.675 0 3.038 1.363 3.038 3.038s-1.363 3.038-3.038 3.038zM25.635 19.956c0.243-0.501 0.38-1.062 0.38-1.655 0-2.096-1.705-3.801-3.801-3.801-0.909 0-1.789 0.326-2.477 0.918-0.099 0.087-0.183 0.196-0.297 0.279-0.77 0.566-2.166 0.962-3.395 0.962-1.234 0-2.42-0.343-3.339-0.967-0.167-0.113-0.231-0.169-0.348-0.271-0.012-0.010-0.025-0.020-0.038-0.029-0.054-0.036-1.344-0.892-2.444-0.892-2.096 0-3.801 1.705-3.801 3.801 0 0.593 0.137 1.155 0.38 1.655-0.611-0.776-1.102-1.65-1.445-2.595 0.443-2.394 2.545-4.213 5.065-4.213 1.414 0 2.796 0.851 3.185 1.112 1.271 1.236 4.209 1.299 5.397 0.133 0.933-0.803 2.126-1.245 3.358-1.245 2.52 0 4.622 1.819 5.065 4.213-0.343 0.945-0.834 1.819-1.445 2.595zM27.494 19.701c-0.045 0-0.089-0.002-0.133-0.005 0.649-1.063 1.116-2.249 1.359-3.513 0.455 0.362 0.748 0.919 0.748 1.545 0 1.088-0.886 1.974-1.974 1.974z"></path>
<path fill="#3c122c" d="M10.399 17.236c0.59 0.179 0.924 0.803 0.745 1.393s-0.803 0.924-1.393 0.745c-0.59-0.179-0.924-0.803-0.745-1.393s0.803-0.924 1.393-0.745z"></path>
<path fill="#3c122c" d="M22.015 17.183c-0.617 0-1.117 0.5-1.117 1.117s0.5 1.117 1.117 1.117c0.617 0 1.117-0.5 1.117-1.117s-0.5-1.117-1.117-1.117z"></path>
<path fill="#3c122c" d="M17.162 17.919c-0.211 0-0.381 0.171-0.381 0.381 0 0.406-0.33 0.736-0.736 0.736s-0.736-0.33-0.736-0.736c0-0.211-0.171-0.381-0.381-0.381s-0.381 0.171-0.381 0.381c0 0.826 0.672 1.498 1.499 1.498s1.498-0.672 1.498-1.498c-0-0.211-0.171-0.381-0.381-0.381z"></path>
<path fill="#3c122c" d="M13.925 10.247c0.042 0.041 0.061 0.1 0.051 0.157l-0.147 0.854c-0.061 0.355 0.082 0.708 0.374 0.92s0.671 0.239 0.991 0.072l0.767-0.403c0.052-0.027 0.114-0.027 0.166 0l0.767 0.403c0.139 0.073 0.289 0.109 0.439 0.109 0.194 0 0.387-0.061 0.552-0.181 0.292-0.212 0.435-0.565 0.374-0.92l-0.147-0.854c-0.010-0.058 0.009-0.117 0.051-0.157l0.621-0.605c0.258-0.252 0.349-0.621 0.238-0.964s-0.402-0.588-0.759-0.64l-0.858-0.125c-0.058-0.008-0.108-0.045-0.134-0.097l-0.384-0.777c-0.16-0.323-0.483-0.524-0.843-0.524s-0.684 0.201-0.844 0.524l-0.384 0.777c-0.026 0.053-0.076 0.089-0.134 0.097l-0.858 0.125c-0.357 0.052-0.648 0.297-0.759 0.64s-0.020 0.712 0.238 0.964zM13.792 8.913c0.010-0.032 0.045-0.107 0.143-0.121l0.858-0.125c0.306-0.045 0.571-0.237 0.708-0.515l0.384-0.777c0.044-0.089 0.126-0.099 0.159-0.099s0.115 0.010 0.159 0.099l0.384 0.777c0.137 0.278 0.402 0.47 0.708 0.515l0.858 0.125c0.099 0.014 0.133 0.089 0.144 0.121s0.026 0.113-0.045 0.182l-0.621 0.605c-0.222 0.216-0.323 0.527-0.27 0.832l0.147 0.854c0.017 0.098-0.044 0.154-0.071 0.174s-0.099 0.060-0.187 0.014l-0.767-0.403c-0.137-0.072-0.287-0.108-0.438-0.108s-0.301 0.036-0.438 0.108l-0.767 0.403c-0.088 0.046-0.16 0.006-0.187-0.014s-0.088-0.076-0.071-0.174l0.147-0.854c0.052-0.305-0.049-0.616-0.271-0.832l-0.621-0.605c-0.072-0.069-0.055-0.151-0.045-0.182z"></path>
<path fill="#3c122c" d="M8.616 8.602c0.261 0.2 0.644 0.331 1.139 0.388 0.092 0.011 0.186 0.016 0.281 0.016 0.934 0 1.949-0.473 1.996-0.495 0.119-0.056 0.201-0.17 0.216-0.301s-0.038-0.26-0.141-0.343c-0.045-0.036-1.107-0.874-2.106-0.991-1.532-0.179-1.747 0.616-1.776 0.864-0.039 0.333 0.1 0.639 0.39 0.861zM8.984 7.829c0.013-0.115 0.205-0.216 0.594-0.216 0.099 0 0.211 0.007 0.336 0.021 0.382 0.045 0.801 0.243 1.129 0.435-0.378 0.114-0.831 0.206-1.199 0.163-0.468-0.055-0.679-0.171-0.764-0.236-0.106-0.081-0.099-0.139-0.096-0.167z"></path>
<path fill="#3c122c" d="M12.025 10.071c-0.052-0.024-1.288-0.577-2.284-0.447-1.53 0.201-1.544 1.024-1.511 1.271 0.029 0.22 0.21 0.871 1.326 0.871 0.139 0 0.292-0.010 0.462-0.032 0.996-0.131 2.047-0.984 2.091-1.021 0.102-0.084 0.153-0.214 0.136-0.345s-0.101-0.243-0.221-0.298zM9.919 10.978c-0.614 0.081-0.914-0.037-0.932-0.181s0.24-0.335 0.854-0.416c0.075-0.010 0.152-0.014 0.231-0.014 0.325 0 0.676 0.075 0.97 0.16-0.325 0.196-0.741 0.401-1.123 0.451z"></path>
<path fill="#3c122c" d="M20.057 8.511c0.047 0.022 1.062 0.495 1.996 0.495 0.095 0 0.189-0.005 0.281-0.016 0.495-0.058 0.879-0.188 1.139-0.388 0.29-0.222 0.428-0.528 0.39-0.861-0.029-0.248-0.243-1.043-1.776-0.864-0.998 0.117-2.061 0.955-2.106 0.991-0.103 0.082-0.157 0.212-0.141 0.343s0.097 0.245 0.216 0.301zM22.176 7.635c0.615-0.072 0.913 0.051 0.93 0.194 0.003 0.028 0.010 0.086-0.096 0.167-0.084 0.065-0.296 0.182-0.764 0.236-0.383 0.045-0.835-0.052-1.199-0.163 0.328-0.192 0.747-0.39 1.129-0.435z"></path>
<path fill="#3c122c" d="M23.482 10.029c-0.258-0.204-0.64-0.34-1.134-0.405-0.996-0.131-2.232 0.423-2.284 0.447-0.12 0.054-0.203 0.167-0.221 0.298s0.034 0.261 0.136 0.345c0.044 0.036 1.095 0.89 2.091 1.021 0.164 0.021 0.318 0.032 0.461 0.032 0.289 0 0.537-0.044 0.738-0.131 0.336-0.145 0.544-0.408 0.588-0.74s-0.090-0.64-0.377-0.866zM23.103 10.797c-0.004 0.028-0.011 0.086-0.134 0.139-0.098 0.042-0.332 0.104-0.799 0.043-0.382-0.050-0.797-0.254-1.122-0.451 0.379-0.108 0.833-0.194 1.201-0.146 0.467 0.061 0.677 0.181 0.761 0.247 0.105 0.083 0.097 0.141 0.093 0.168z"></path>
</svg>
