<!-- Generated by IcoMoon.io -->
<svg version="1.1" xmlns="http://www.w3.org/2000/svg" width="32" height="32" viewBox="0 0 32 32">
<title>beer1</title>
<path d="M29.351 5.908l0.517 1.455c0.022 0.062 0.066 0.112 0.121 0.137l1.292 0.582c0.183 0.082 0.183 0.373 0 0.455l-1.292 0.582c-0.055 0.025-0.099 0.074-0.121 0.137l-0.517 1.455c-0.073 0.206-0.332 0.206-0.405 0l-0.517-1.455c-0.022-0.062-0.066-0.112-0.121-0.137l-1.292-0.582c-0.183-0.082-0.183-0.373 0-0.455l1.292-0.582c0.055-0.025 0.099-0.074 0.121-0.137l0.517-1.455c0.073-0.205 0.331-0.205 0.405 0z"></path>
<path d="M25.907 0.026c0.607 0.145 0.982 0.754 0.837 1.361s-0.754 0.982-1.361 0.837c-0.607-0.145-0.982-0.754-0.837-1.361s0.754-0.982 1.361-0.837z"></path>
<path d="M1.556 7.142c0 0.269-0.218 0.487-0.487 0.487s-0.487-0.218-0.487-0.487c0-0.269 0.218-0.487 0.487-0.487s0.487 0.218 0.487 0.487z"></path>
<path d="M3.678 0.119l0.384 1.079c0.016 0.046 0.049 0.083 0.090 0.101l0.959 0.432c0.135 0.061 0.135 0.277 0 0.338l-0.959 0.432c-0.041 0.018-0.074 0.055-0.090 0.101l-0.384 1.079c-0.054 0.152-0.246 0.152-0.3 0l-0.384-1.079c-0.016-0.046-0.049-0.083-0.090-0.101l-0.959-0.432c-0.135-0.061-0.135-0.277 0-0.338l0.959-0.432c0.041-0.018 0.074-0.055 0.090-0.101l0.384-1.079c0.054-0.152 0.246-0.152 0.3 0z"></path>
<path d="M30.644 18.884c0-2.124-0.718-3.655-2.135-4.552-1.102-0.697-2.622-1.022-4.785-1.022-0.019 0-0.036 0-0.055 0l-0.126-2.647c0.449-0.689 0.709-1.501 0.709-2.37 0-1.188-0.48-2.309-1.353-3.156-0.787-0.765-1.816-1.23-2.925-1.329-1.076-1.373-2.761-2.184-4.571-2.184-1.742 0-3.351 0.74-4.428 2.008-0.657-0.447-1.44-0.688-2.265-0.688-2.161 0-3.92 1.68-3.92 3.745 0 0.622 0.158 1.222 0.46 1.761-0.569 0.665-0.887 1.504-0.887 2.372 0 1.493 0.92 2.785 2.247 3.386l-0.71 15.328c-0.029 0.631 0.199 1.235 0.644 1.7 0.464 0.486 1.125 0.765 1.812 0.765h13.634c0.688 0 1.349-0.279 1.813-0.767 0.444-0.466 0.672-1.070 0.642-1.702l-0.123-2.576c3.538-0.355 6.324-3.84 6.324-8.072zM23.826 16.606c2.365 0.060 3.296 0.845 3.296 2.743 0 2.133-1.28 3.911-2.961 4.276zM5.622 10.821c0-0.696 0.301-1.342 0.847-1.818 0.252-0.219 0.289-0.597 0.084-0.861-0.33-0.426-0.504-0.928-0.504-1.454 0-1.37 1.193-2.485 2.66-2.485 0.738 0 1.425 0.277 1.933 0.779 0.134 0.133 0.321 0.199 0.51 0.178s0.357-0.124 0.46-0.282c0.816-1.25 2.233-1.996 3.791-1.996 1.505 0 2.897 0.709 3.723 1.896 0.114 0.164 0.3 0.265 0.5 0.27 1.887 0.050 3.366 1.475 3.366 3.244 0 1.79-1.554 3.247-3.465 3.247-0.689 0-1.355-0.19-1.926-0.548-0.166-0.104-0.372-0.125-0.556-0.057-0.525 0.196-1.077 0.296-1.643 0.296-0.076 0-0.153-0.002-0.23-0.005-0.247-0.012-0.477 0.121-0.59 0.34-0.442 0.855-1.383 1.407-2.397 1.407-0.496 0-0.98-0.129-1.399-0.372-0.23-0.133-0.519-0.108-0.722 0.064-0.49 0.414-1.123 0.642-1.783 0.642-1.467 0-2.66-1.115-2.66-2.485zM20.779 27.663c0.011 0.283-0.083 0.549-0.258 0.731-0.087 0.090-0.232 0.198-0.431 0.198h-9.839c-0.198 0-0.344-0.108-0.431-0.198-0.175-0.181-0.269-0.448-0.258-0.73l0.516-13.515c0.158-0.078 0.311-0.166 0.457-0.264 0.515 0.228 1.078 0.348 1.65 0.348 1.363 0 2.599-0.659 3.313-1.742 0.58-0.009 1.15-0.102 1.699-0.275 0.709 0.384 1.507 0.585 2.329 0.585 0.226 0 0.448-0.016 0.665-0.046zM22.89 30.364c-0.228 0.239-0.556 0.376-0.901 0.376h-13.634c-0.345 0-0.673-0.137-0.901-0.375-0.204-0.214-0.309-0.488-0.296-0.772l0.697-15.049c0.141 0.015 0.283 0.023 0.428 0.023 0.176 0 0.35-0.012 0.522-0.034l-0.499 13.084c-0.024 0.623 0.198 1.225 0.609 1.651 0.363 0.377 0.838 0.584 1.338 0.584h9.839c0.501 0 0.976-0.208 1.339-0.585 0.411-0.427 0.633-1.030 0.608-1.653l-0.598-15.201c0.321-0.136 0.623-0.304 0.902-0.502l0.844 17.681c0.014 0.284-0.091 0.559-0.296 0.773zM24.26 25.696l-0.062-1.307c2.082-0.38 3.68-2.495 3.68-5.040 0-1.335-0.451-2.297-1.34-2.86-0.647-0.41-1.525-0.615-2.748-0.64l-0.061-1.279c4.070 0.001 5.655 1.211 5.655 4.314 0 3.554-2.254 6.484-5.124 6.812z"></path>
<path d="M13.458 26.697c-0.892 0-1.618-0.726-1.618-1.618s0.726-1.618 1.618-1.618 1.618 0.726 1.618 1.618c-0 0.892-0.726 1.618-1.618 1.618zM13.458 24.218c-0.475 0-0.862 0.387-0.862 0.862s0.387 0.862 0.862 0.862 0.862-0.387 0.862-0.862-0.387-0.862-0.862-0.862z"></path>
<path d="M16.892 21.048c-0.783 0-1.419-0.637-1.419-1.419s0.637-1.419 1.419-1.419 1.419 0.637 1.419 1.419c0 0.783-0.637 1.419-1.419 1.419zM16.892 18.965c-0.366 0-0.664 0.298-0.664 0.664s0.298 0.664 0.664 0.664c0.366 0 0.664-0.298 0.664-0.664s-0.298-0.664-0.664-0.664z"></path>
<path d="M14.382 18.247c-0.783 0-1.419-0.637-1.419-1.419s0.637-1.419 1.419-1.419c0.783 0 1.419 0.637 1.419 1.419s-0.637 1.419-1.419 1.419zM14.382 16.163c-0.366 0-0.664 0.298-0.664 0.664s0.298 0.664 0.664 0.664 0.664-0.298 0.664-0.664-0.298-0.664-0.664-0.664z"></path>
<path d="M14.118 9.562c-0.209 0-0.378-0.169-0.378-0.378 0-0.728-0.592-1.32-1.32-1.32s-1.32 0.592-1.32 1.32c0 0.209-0.169 0.378-0.378 0.378s-0.378-0.169-0.378-0.378c0-1.145 0.931-2.076 2.076-2.076s2.076 0.931 2.076 2.076c-0 0.209-0.169 0.378-0.378 0.378z"></path>
<path d="M17.703 7.665c-0.209 0-0.378-0.169-0.378-0.378 0-0.36-0.293-0.653-0.653-0.653s-0.653 0.293-0.653 0.653c0 0.209-0.169 0.378-0.378 0.378s-0.378-0.169-0.378-0.378c0-0.777 0.632-1.409 1.409-1.409s1.409 0.632 1.409 1.409c0 0.209-0.169 0.378-0.378 0.378z"></path>
<path d="M18.575 15.995c-0.209 0-0.378-0.169-0.378-0.378v-0.773c0-0.209 0.169-0.378 0.378-0.378s0.378 0.169 0.378 0.378v0.773c0 0.209-0.169 0.378-0.378 0.378z"></path>
<path d="M17.349 24.298c-0.209 0-0.378-0.169-0.378-0.378v-0.773c0-0.209 0.169-0.378 0.378-0.378s0.378 0.169 0.378 0.378v0.773c0 0.209-0.169 0.378-0.378 0.378z"></path>
<path d="M19.045 25.43c-0.209 0-0.378-0.169-0.378-0.378v-0.773c0-0.209 0.169-0.378 0.378-0.378s0.378 0.169 0.378 0.378v0.773c0 0.209-0.169 0.378-0.378 0.378z"></path>
<path d="M11.129 22.096c-0.025 0-0.050-0.001-0.075-0.004-0.345-0.041-0.592-0.354-0.552-0.699 0.050-0.425 0.046-0.877 0.043-1.354-0.004-0.495-0.008-1.007 0.051-1.509 0.041-0.345 0.354-0.592 0.699-0.551s0.592 0.354 0.551 0.699c-0.050 0.424-0.046 0.874-0.042 1.351 0.004 0.496 0.008 1.008-0.051 1.513-0.038 0.32-0.31 0.556-0.625 0.556z"></path>
<path d="M11.288 17.189c-0.007 0-0.014-0-0.021-0-0.348-0.011-0.62-0.302-0.609-0.65l0.030-0.909c0.011-0.348 0.302-0.622 0.65-0.609 0.348 0.011 0.62 0.302 0.609 0.65l-0.030 0.909c-0.011 0.341-0.291 0.609-0.629 0.609z"></path>
</svg>
