<!-- Generated by IcoMoon.io -->
<svg version="1.1" xmlns="http://www.w3.org/2000/svg" width="32" height="32" viewBox="0 0 32 32">
<title>beer</title>
<path d="M5.243 15.781l0.519 1.46c0.022 0.063 0.066 0.112 0.122 0.137l1.298 0.585c0.183 0.083 0.183 0.375 0 0.457l-1.298 0.585c-0.056 0.025-0.1 0.075-0.122 0.137l-0.519 1.46c-0.073 0.206-0.333 0.206-0.406 0l-0.519-1.46c-0.022-0.063-0.066-0.112-0.122-0.137l-1.298-0.585c-0.183-0.083-0.183-0.375 0-0.457l1.298-0.585c0.056-0.025 0.1-0.075 0.122-0.137l0.519-1.46c0.073-0.206 0.333-0.206 0.406 0z"></path>
<path d="M29.239 14.407c0 0.626-0.508 1.134-1.134 1.134s-1.134-0.508-1.134-1.134c0-0.626 0.508-1.134 1.134-1.134s1.134 0.508 1.134 1.134z"></path>
<path d="M8.669 6.774c0 0.27-0.219 0.489-0.489 0.489s-0.489-0.219-0.489-0.489c0-0.27 0.219-0.489 0.489-0.489s0.489 0.219 0.489 0.489z"></path>
<path d="M25.458 5.708l0.385 1.083c0.017 0.046 0.049 0.083 0.090 0.102l0.962 0.434c0.136 0.061 0.136 0.278 0 0.339l-0.962 0.434c-0.041 0.019-0.074 0.055-0.090 0.102l-0.385 1.083c-0.054 0.153-0.247 0.153-0.301 0l-0.385-1.083c-0.017-0.046-0.049-0.083-0.090-0.102l-0.962-0.434c-0.136-0.061-0.136-0.278 0-0.339l0.962-0.434c0.041-0.019 0.074-0.055 0.090-0.102l0.385-1.083c0.054-0.153 0.247-0.153 0.301 0z"></path>
<path d="M16.249 28.635c-2.273 0-4.121-1.849-4.121-4.121v-5.084c0-2.272 1.849-4.121 4.121-4.121s4.121 1.849 4.121 4.121v5.084c0 2.273-1.849 4.121-4.121 4.121zM16.249 16.067c-1.854 0-3.363 1.508-3.363 3.363v5.084c0 1.854 1.508 3.363 3.363 3.363s3.363-1.508 3.363-3.363v-5.084c0-1.854-1.508-3.363-3.363-3.363z"></path>
<path d="M17.292 7.089h-2.085c-0.21 0-0.379-0.17-0.379-0.379s0.17-0.379 0.379-0.379h2.085c0.209 0 0.379 0.17 0.379 0.379s-0.17 0.379-0.379 0.379z"></path>
<path d="M17.292 8.714h-2.085c-0.21 0-0.379-0.17-0.379-0.379s0.17-0.379 0.379-0.379h2.085c0.209 0 0.379 0.17 0.379 0.379s-0.17 0.379-0.379 0.379z"></path>
<path d="M16.249 16.871c-1.391 0-2.523 1.132-2.523 2.523v5.157c0 1.391 1.132 2.523 2.523 2.523s2.523-1.132 2.523-2.523v-5.157c0-1.391-1.132-2.523-2.523-2.523zM16.965 24.39c0.4-0.118 0.758-0.333 1.048-0.617v0.617zM15.517 19.558c-0.393 0.119-0.745 0.332-1.031 0.613v-0.613zM16.249 20.208c0.973 0 1.764 0.791 1.764 1.764s-0.791 1.764-1.764 1.764c-0.973 0-1.764-0.791-1.764-1.764s0.791-1.764 1.764-1.764zM16.982 19.558h1.031v0.613c-0.286-0.28-0.639-0.493-1.031-0.613zM15.534 24.39h-1.048v-0.617c0.29 0.284 0.649 0.499 1.048 0.617zM16.249 17.63c0.764 0 1.416 0.489 1.661 1.17h-3.321c0.244-0.681 0.896-1.17 1.661-1.17zM16.249 26.314c-0.762 0-1.413-0.486-1.659-1.165h3.318c-0.246 0.679-0.896 1.165-1.659 1.165z"></path>
<path d="M21.553 12.474l-1.737-1.963-0.367-6.991c0.528-0.341 0.878-0.934 0.878-1.607 0-1.054-0.858-1.912-1.912-1.912h-4.332c-1.054 0-1.912 0.858-1.912 1.912 0 0.668 0.344 1.256 0.864 1.598l-0.373 7.097-1.677 1.852c-0.801 0.884-1.242 2-1.242 3.141v13.967c0 1.341 1.196 2.432 2.666 2.432h7.668c1.469 0 2.665-1.090 2.666-2.43l0.012-13.994c0.001-1.122-0.426-2.224-1.202-3.101zM18.199 3.825l0.054 1.037h-4.022l0.055-1.037zM14.191 5.62h4.102l0.201 3.84h-4.505zM14.083 1.265h4.332c0.357 0 0.648 0.291 0.648 0.648s-0.291 0.648-0.648 0.648h-4.332c-0.357 0-0.648-0.291-0.648-0.648s0.291-0.648 0.648-0.648zM21.478 29.569c-0.001 0.643-0.629 1.167-1.401 1.167h-7.668c-0.773 0-1.401-0.524-1.401-1.168v-13.967c0-0.827 0.325-1.641 0.915-2.292l1.828-2.019c0.098-0.108 0.155-0.246 0.163-0.391l0.036-0.68h4.585l0.030 0.579c0.008 0.143 0.063 0.279 0.158 0.386l1.883 2.129c0.572 0.646 0.886 1.449 0.885 2.262z"></path>
<path d="M12.509 15.759c-0.135 0-0.27-0.043-0.385-0.131-0.277-0.213-0.329-0.61-0.116-0.887l0.931-1.211c0.213-0.277 0.61-0.329 0.887-0.116s0.329 0.61 0.116 0.887l-0.931 1.211c-0.124 0.162-0.312 0.247-0.502 0.247z"></path>
<path d="M14.511 13.312c-0.135 0-0.27-0.043-0.385-0.131-0.277-0.213-0.329-0.61-0.116-0.887l0.186-0.242c0.213-0.277 0.61-0.329 0.887-0.116s0.329 0.61 0.116 0.887l-0.186 0.242c-0.125 0.162-0.312 0.247-0.502 0.247z"></path>
</svg>
