<!-- Generated by IcoMoon.io -->
<svg version="1.1" xmlns="http://www.w3.org/2000/svg" width="32" height="32" viewBox="0 0 32 32">
<title>bubble-tea</title>
<path d="M4.967 9.402l0.383 1.077c0.016 0.046 0.049 0.083 0.090 0.101l0.957 0.431c0.135 0.061 0.135 0.276 0 0.337l-0.957 0.431c-0.041 0.018-0.073 0.055-0.090 0.101l-0.383 1.077c-0.054 0.152-0.245 0.152-0.3 0l-0.383-1.077c-0.016-0.046-0.049-0.083-0.090-0.101l-0.957-0.431c-0.135-0.061-0.135-0.276 0-0.337l0.957-0.431c0.041-0.018 0.073-0.055 0.090-0.101l0.383-1.077c0.054-0.152 0.245-0.152 0.3 0z"></path>
<path d="M30.278 6.697c0.611 0.118 1.012 0.709 0.894 1.32s-0.709 1.012-1.32 0.894c-0.611-0.118-1.012-0.709-0.894-1.32s0.709-1.012 1.32-0.894z"></path>
<path d="M12.139 2.199c0 0.269-0.218 0.486-0.486 0.486s-0.486-0.218-0.486-0.486c0-0.269 0.218-0.486 0.486-0.486s0.486 0.218 0.486 0.486z"></path>
<path d="M3.273 0.315l0.516 1.452c0.022 0.062 0.066 0.111 0.121 0.136l1.29 0.581c0.182 0.082 0.182 0.372 0 0.455l-1.29 0.581c-0.055 0.025-0.099 0.074-0.121 0.136l-0.516 1.452c-0.073 0.205-0.331 0.205-0.404 0l-0.516-1.452c-0.022-0.062-0.066-0.111-0.121-0.136l-1.29-0.581c-0.182-0.082-0.182-0.372 0-0.455l1.29-0.581c0.055-0.025 0.099-0.074 0.121-0.136l0.516-1.452c0.073-0.205 0.331-0.205 0.404 0z"></path>
<path d="M24.913 5.425c-0.294-0.325-0.713-0.512-1.151-0.512h-0.989l0.869-3.283c0.089-0.335 0.042-0.684-0.132-0.984s-0.455-0.513-0.79-0.602c-0.335-0.089-0.684-0.042-0.984 0.132s-0.513 0.455-0.602 0.789l-1.045 3.947h-10.441c-0.44 0-0.86 0.188-1.154 0.515-0.291 0.325-0.433 0.759-0.389 1.192l1.648 21.19c0.001 0.006 0.001 0.013 0.002 0.019 0.257 2.378 2.255 4.171 4.646 4.171h4.667c2.406 0 4.404-1.805 4.649-4.198 0.001-0.006 0.001-0.011 0.002-0.017l1.587-21.173c0.042-0.433-0.101-0.865-0.393-1.188zM21.864 1.159c0.037-0.14 0.127-0.258 0.252-0.33 0.084-0.049 0.177-0.074 0.272-0.074 0.047 0 0.094 0.006 0.14 0.018 0.14 0.037 0.258 0.127 0.33 0.252s0.093 0.272 0.055 0.412l-0.921 3.476h-1.123zM20.537 6.17h1.123l-0.893 3.374h-1.123zM14.995 23.781c0 0.574-0.467 1.041-1.041 1.041s-1.041-0.467-1.041-1.041c0-0.574 0.467-1.041 1.041-1.041s1.041 0.467 1.041 1.041zM14.392 21.095c0-0.574 0.467-1.041 1.041-1.041s1.041 0.467 1.041 1.041c0 0.574-0.467 1.041-1.041 1.041s-1.041-0.467-1.041-1.041zM13.954 25.576c0.354 0 0.683-0.103 0.962-0.28-0 0.012-0.001 0.025-0.001 0.037 0 0.161 0.021 0.316 0.061 0.464-0.178-0.060-0.369-0.092-0.567-0.092-0.838 0-1.544 0.578-1.741 1.356-0.069-0.225-0.118-0.462-0.141-0.71l-0.109-1.641c0.315 0.519 0.886 0.867 1.536 0.867zM14.409 26.459c0.574 0 1.041 0.467 1.041 1.041s-0.467 1.041-1.041 1.041-1.041-0.467-1.041-1.041c-0-0.574 0.467-1.041 1.041-1.041zM16.204 27.5c0-0.161-0.021-0.316-0.061-0.464 0.178 0.060 0.369 0.092 0.567 0.092 0.245 0 0.479-0.050 0.692-0.139-0.034 0.138-0.053 0.282-0.053 0.431 0 0.71 0.414 1.325 1.013 1.616h-3.025c0.519-0.315 0.866-0.885 0.866-1.535zM15.669 25.333c0-0.574 0.467-1.041 1.041-1.041s1.041 0.467 1.041 1.041c0 0.574-0.467 1.041-1.041 1.041s-1.041-0.467-1.041-1.041zM18.104 27.42c0-0.574 0.467-1.041 1.041-1.041s1.041 0.467 1.041 1.041c0 0.574-0.467 1.041-1.041 1.041s-1.041-0.467-1.041-1.041zM19.145 25.625c-0.245 0-0.479 0.050-0.692 0.139 0.034-0.138 0.053-0.282 0.053-0.431 0-0.024-0.001-0.049-0.002-0.073 0.289 0.199 0.639 0.316 1.016 0.316 0.632 0 1.189-0.329 1.509-0.824l-0.102 1.58c-0.016 0.175-0.044 0.345-0.083 0.509-0.241-0.707-0.912-1.216-1.699-1.216zM18.479 23.781c0-0.574 0.467-1.041 1.041-1.041s1.041 0.467 1.041 1.041c0 0.574-0.467 1.041-1.041 1.041s-1.041-0.467-1.041-1.041zM19.52 21.986c-0.99 0-1.795 0.805-1.795 1.795 0 0.024 0.001 0.049 0.002 0.073-0.289-0.199-0.639-0.316-1.016-0.316-0.354 0-0.683 0.103-0.962 0.28 0-0.012 0.001-0.025 0.001-0.037 0-0.325-0.087-0.63-0.239-0.893 0.954-0.041 1.718-0.829 1.718-1.793 0-0.99-0.805-1.795-1.795-1.795s-1.795 0.805-1.795 1.795c0 0.325 0.087 0.63 0.239 0.893-0.702 0.030-1.3 0.465-1.568 1.077l-0.501-7.514h9.811l-0.479 7.459c-0.289-0.605-0.907-1.023-1.62-1.023zM11.758 14.796l-0.3-4.497h10.499l-0.289 4.497zM24.054 6.494c-0.001 0.006-0.001 0.011-0.001 0.017l-1.587 21.172c-0.183 1.745-1.642 3.060-3.398 3.060h-4.667c-1.745 0-3.203-1.306-3.395-3.040l-1.648-21.189c-0.001-0.006-0.001-0.013-0.002-0.019-0.012-0.113 0.041-0.191 0.073-0.228s0.105-0.098 0.219-0.098h10.108l-0.893 3.374h-7.808c-0.104 0-0.204 0.043-0.275 0.119s-0.108 0.179-0.101 0.283l1.097 16.459c0 0.003 0 0.006 0.001 0.010 0.178 1.924 1.584 3.375 3.27 3.375h3.36c1.696 0 3.103-1.46 3.272-3.396 0-0.003 0-0.006 0.001-0.009l1.056-16.44c0.007-0.104-0.030-0.206-0.101-0.282s-0.171-0.119-0.275-0.119h-0.812l0.893-3.374h1.322c0.114 0 0.185 0.061 0.218 0.097s0.086 0.114 0.074 0.227z"></path>
<path d="M19.392 17.711c-0.99 0-1.795 0.805-1.795 1.795s0.805 1.795 1.795 1.795 1.795-0.805 1.795-1.795c0-0.99-0.805-1.795-1.795-1.795zM19.392 20.547c-0.574 0-1.041-0.467-1.041-1.041s0.467-1.041 1.041-1.041c0.574 0 1.041 0.467 1.041 1.041s-0.467 1.041-1.041 1.041z"></path>
<path d="M16.351 8.203c-0.005 0-0.009-0-0.014-0-0.938-0.020-1.874-0.022-2.781-0.006-0.346 0.007-0.634-0.27-0.64-0.617s0.27-0.634 0.617-0.64c0.923-0.017 1.876-0.015 2.831 0.006 0.347 0.008 0.622 0.295 0.615 0.642-0.007 0.342-0.287 0.615-0.628 0.615z"></path>
<path d="M11.314 8.203h-0.708c-0.347 0-0.629-0.281-0.629-0.629s0.281-0.629 0.629-0.629h0.708c0.347 0 0.629 0.281 0.629 0.629s-0.281 0.629-0.629 0.629z"></path>
<path d="M18.103 14.158c-0.208 0-0.377-0.169-0.377-0.377v-0.883c0-0.208 0.169-0.377 0.377-0.377s0.377 0.169 0.377 0.377v0.883c0 0.208-0.169 0.377-0.377 0.377z"></path>
<path d="M19.944 13.654c-0.208 0-0.377-0.169-0.377-0.377v-0.883c0-0.208 0.169-0.377 0.377-0.377s0.377 0.169 0.377 0.377v0.883c0 0.208-0.169 0.377-0.377 0.377z"></path>
</svg>
