<!-- Generated by IcoMoon.io -->
<svg version="1.1" xmlns="http://www.w3.org/2000/svg" width="32" height="32" viewBox="0 0 32 32">
<title>chocolate-milk</title>
<path d="M3.455 5.528l0.534 1.502c0.023 0.064 0.068 0.115 0.125 0.141l1.335 0.601c0.189 0.085 0.189 0.385 0 0.47l-1.335 0.601c-0.057 0.026-0.102 0.077-0.125 0.141l-0.534 1.502c-0.075 0.212-0.342 0.212-0.418 0l-0.534-1.502c-0.023-0.064-0.068-0.115-0.125-0.141l-1.335-0.601c-0.189-0.085-0.189-0.385 0-0.47l1.335-0.601c0.057-0.026 0.102-0.077 0.125-0.141l0.534-1.502c0.075-0.212 0.342-0.212 0.418 0z"></path>
<path d="M21.872 2.138c0.339 0.548 0.169 1.268-0.379 1.607s-1.268 0.169-1.607-0.379c-0.339-0.548-0.169-1.268 0.379-1.607s1.268-0.169 1.607 0.379z"></path>
<path d="M30.479 11.203c0 0.273-0.221 0.494-0.494 0.494s-0.494-0.221-0.494-0.494 0.221-0.494 0.494-0.494c0.273-0 0.494 0.221 0.494 0.494z"></path>
<path d="M29.514 3.886l0.396 1.114c0.017 0.048 0.051 0.085 0.093 0.105l0.99 0.446c0.14 0.063 0.14 0.286 0 0.349l-0.99 0.446c-0.042 0.019-0.076 0.057-0.093 0.105l-0.396 1.114c-0.056 0.157-0.254 0.157-0.31 0l-0.396-1.114c-0.017-0.048-0.051-0.085-0.093-0.105l-0.99-0.446c-0.14-0.063-0.14-0.286 0-0.349l0.99-0.446c0.042-0.019 0.076-0.057 0.093-0.105l0.396-1.114c0.056-0.158 0.254-0.158 0.31 0z"></path>
<path d="M23.975 7.28h-9.52l-1.949-4.104c-0.161-0.339-0.444-0.595-0.8-0.721l-6.79-2.372c-0.354-0.126-0.735-0.107-1.074 0.054s-0.595 0.444-0.721 0.798c-0.126 0.354-0.107 0.735 0.054 1.074s0.444 0.595 0.8 0.722l6.243 2.178 1.126 2.371h-1.353c-1.21 0-2.194 0.984-2.194 2.194v20.332c0 1.21 0.984 2.194 2.194 2.194h13.984c1.21 0 2.194-0.984 2.194-2.194v-20.332c0-1.21-0.984-2.194-2.194-2.194zM4.906 2.256l-0.68-0.237c-0.338-0.121-0.515-0.493-0.394-0.831 0.058-0.164 0.177-0.295 0.334-0.369 0.088-0.042 0.182-0.063 0.278-0.063 0.074 0 0.149 0.013 0.222 0.039l0.24 0.084zM6.594 2.845l-0.934-0.326v-1.377l0.934 0.326zM8.234 3.417l-0.885-0.309v-1.377l1.082 0.378zM9.925 4.007l-0.966-0.337 0.197-1.307 0.966 0.338zM24.64 8.86l-2.206 3.086-2.348-3.336h3.786c0.287 0 0.552 0.094 0.768 0.25zM21.916 13.395c0.117 0.167 0.308 0.266 0.512 0.267h0.002c0.203 0 0.394-0.098 0.512-0.263l1.969-2.755v4.832h-4.747v-4.57zM9.964 8.61h8.366c0.338 0.141 0.576 0.475 0.576 0.864v6.002h-9.851v-6.002c0-0.308 0.151-0.582 0.381-0.752 0.162-0.071 0.34-0.112 0.528-0.112zM9.055 16.231h9.851v2.029h-9.851zM20.164 16.231h4.747v2.029h-4.747zM10.764 4.3l-0.114-0.040 0.197-1.306 0.608 0.212c0.164 0.058 0.295 0.177 0.369 0.334l0.115 0.241-0.976 0.977zM12.283 4.465l0.408 0.86-0.976 0.976-0.408-0.86zM12.058 7.025l0.976-0.976 0.585 1.232h-1.44zM17.959 30.742h-7.968c-0.516 0-0.936-0.42-0.936-0.936v-10.792h9.851v10.792c0 0.516-0.42 0.936-0.936 0.936zM23.975 30.742h-4.021c0.135-0.284 0.21-0.601 0.21-0.936v-10.792h4.747v10.792c0 0.516-0.42 0.936-0.936 0.936z"></path>
<path d="M17.289 23.272l-2.042-1.993c-0.314-0.314-0.732-0.487-1.177-0.487s-0.862 0.173-1.177 0.487l-1.665 1.665c-0.238 0.238-0.395 0.536-0.457 0.86l-0.258 0.258c-0.314 0.314-0.487 0.732-0.487 1.177s0.173 0.862 0.487 1.177l1.816 1.816c0.324 0.324 0.751 0.487 1.177 0.487s0.852-0.162 1.177-0.487l2.606-2.606c0.314-0.314 0.487-0.732 0.487-1.177s-0.173-0.862-0.487-1.177zM11.762 23.478l1.665-1.665c0.172-0.172 0.4-0.266 0.643-0.266s0.471 0.095 0.643 0.266l0.974 0.974c0.172 0.172 0.266 0.4 0.266 0.643s-0.095 0.471-0.266 0.643l-1.665 1.665c-0.172 0.172-0.4 0.266-0.643 0.266s-0.471-0.095-0.643-0.266c0 0 0 0 0-0l-0.974-0.974c-0.172-0.172-0.266-0.4-0.266-0.643s0.095-0.471 0.266-0.643zM16.755 25.092l-2.606 2.606c-0.355 0.355-0.931 0.355-1.286 0v0l-1.816-1.816c-0.172-0.172-0.266-0.4-0.266-0.643 0-0.153 0.038-0.3 0.108-0.431 0.082 0.18 0.196 0.346 0.34 0.49l0.974 0.974c0.314 0.314 0.732 0.487 1.177 0.487s0.862-0.173 1.177-0.487l1.665-1.665c0.242-0.242 0.4-0.546 0.46-0.875l0.074 0.074c0.172 0.172 0.266 0.4 0.266 0.643s-0.095 0.471-0.266 0.643z"></path>
<path d="M11.134 12.434h5.185c0.208 0 0.377-0.169 0.377-0.377s-0.169-0.377-0.377-0.377h-5.185c-0.208 0-0.377 0.169-0.377 0.377s0.169 0.377 0.377 0.377z"></path>
<path d="M9.986 14.773c-0.347 0-0.629-0.282-0.629-0.629v-1.838c0-0.347 0.282-0.629 0.629-0.629s0.629 0.282 0.629 0.629v1.838c0 0.347-0.282 0.629-0.629 0.629z"></path>
<path d="M9.986 11.284c-0.347 0-0.629-0.282-0.629-0.629v-0.298c0-0.347 0.282-0.629 0.629-0.629s0.629 0.282 0.629 0.629v0.298c0 0.347-0.282 0.629-0.629 0.629z"></path>
</svg>
