<!-- Generated by IcoMoon.io -->
<svg version="1.1" xmlns="http://www.w3.org/2000/svg" width="32" height="32" viewBox="0 0 32 32">
<title>cola</title>
<path d="M3.146 6.317c0.235 0.574-0.040 1.229-0.614 1.464s-1.229-0.040-1.464-0.614c-0.235-0.574 0.040-1.229 0.614-1.464s1.229 0.040 1.464 0.614z"></path>
<path d="M30.989 10.251c0.102 0.247-0.015 0.53-0.262 0.633s-0.53-0.015-0.633-0.262c-0.102-0.247 0.015-0.53 0.262-0.633s0.53 0.015 0.633 0.262z"></path>
<path d="M27.959 0.499l0.514 1.445c0.022 0.062 0.066 0.111 0.12 0.136l1.284 0.578c0.181 0.082 0.181 0.371 0 0.452l-1.284 0.578c-0.055 0.025-0.099 0.074-0.12 0.136l-0.514 1.445c-0.073 0.204-0.329 0.204-0.402 0l-0.514-1.445c-0.022-0.062-0.066-0.111-0.12-0.136l-1.284-0.578c-0.181-0.082-0.181-0.371 0-0.452l1.284-0.578c0.055-0.025 0.099-0.074 0.12-0.136l0.514-1.445c0.073-0.204 0.329-0.204 0.402-0z"></path>
<path d="M24.109 7.855l-0.831-1.383c0.357-0.322 0.582-0.789 0.582-1.307 0-0.971-0.79-1.761-1.761-1.761h-2.696l0.442-0.606c0.573-0.784 0.401-1.888-0.383-2.461s-1.888-0.401-2.46 0.383l-1.959 2.683h-6.181c-0.971 0-1.761 0.79-1.761 1.761 0 0.514 0.221 0.977 0.574 1.299l-0.829 1.397c-0.228 0.384-0.348 0.822-0.348 1.268v17.326c0 0.446 0.12 0.884 0.348 1.268l0.761 1.282c-0.313 0.318-0.506 0.753-0.506 1.233 0 0.971 0.79 1.761 1.761 1.761h13.237c0.971 0 1.761-0.79 1.761-1.761 0-0.484-0.196-0.923-0.513-1.241l0.762-1.268c0.232-0.386 0.355-0.829 0.355-1.279v-17.315c0-0.451-0.123-0.893-0.355-1.279zM22.198 28.481c-0.033-0.002-0.065-0.003-0.098-0.003h-13.237c-0.037 0-0.074 0.002-0.111 0.004l-0.829-1.397c-0.016-0.027-0.031-0.055-0.045-0.083h15.204c-0.014 0.028-0.029 0.056-0.045 0.083zM23.213 9.336v0.326c-0.416 0.944-1.506 3.145-3.042 4.262-0.858 0.624-2.13 0.684-3.602 0.754-1.848 0.087-3.942 0.186-5.83 1.457-1.43 0.962-2.376 2.104-2.989 3.088v-9.886zM23.213 15.47c-0.415 1.154-1.038 2.495-1.898 3.375-0.742 0.759-1.985 1.030-3.425 1.345-1.807 0.395-3.856 0.842-5.504 2.41-1.158 1.101-1.956 2.297-2.439 3.652h-2.196v-5.419c0.437-1.021 1.415-2.734 3.408-4.076 1.713-1.153 3.696-1.247 5.446-1.33 1.526-0.072 2.968-0.14 4.008-0.896 1.12-0.814 2.002-2.105 2.6-3.179zM10.748 26.251c0.45-1.139 1.157-2.159 2.154-3.108 1.497-1.423 3.436-1.847 5.147-2.221 1.493-0.326 2.903-0.634 3.802-1.553 0.54-0.552 0.991-1.257 1.361-1.989v8.871zM18.013 1.46c0.080-0.11 0.199-0.182 0.333-0.203s0.269 0.012 0.379 0.092c0.227 0.166 0.277 0.485 0.111 0.712l-0.981 1.344h-1.262zM8.863 4.655h13.237c0.281 0 0.51 0.229 0.51 0.51s-0.229 0.51-0.51 0.51h-13.237c-0.281 0-0.51-0.229-0.51-0.51s0.229-0.51 0.51-0.51zM8.863 6.926h13.229l0.945 1.573c0.017 0.028 0.032 0.057 0.047 0.086h-15.206c0.014-0.029 0.029-0.058 0.046-0.086l0.934-1.574c0.002-0 0.004 0 0.006 0zM22.1 30.749h-13.237c-0.281 0-0.51-0.229-0.51-0.51s0.229-0.51 0.51-0.51h13.237c0.281 0 0.51 0.229 0.51 0.51s-0.229 0.51-0.51 0.51z"></path>
<path d="M12.008 11.876c-0.344 0-0.624-0.278-0.625-0.623s0.277-0.627 0.623-0.629c1.206-0.006 2.326-0.006 3.526 0 0.345 0.002 0.624 0.283 0.622 0.629-0.002 0.344-0.281 0.623-0.625 0.623-0.001 0-0.002 0-0.003 0-1.195-0.006-2.312-0.006-3.514 0-0.001 0-0.002 0-0.003 0z"></path>
<path d="M9.877 11.876h-0.755c-0.345 0-0.626-0.28-0.626-0.626s0.28-0.626 0.626-0.626h0.755c0.345 0 0.626 0.28 0.626 0.626s-0.28 0.626-0.626 0.626z"></path>
<path d="M17.637 23.258c-0.207 0-0.375-0.168-0.375-0.375v-0.689c0-0.207 0.168-0.375 0.375-0.375s0.375 0.168 0.375 0.375v0.689c0 0.207-0.168 0.375-0.375 0.375z"></path>
<path d="M21.565 22.208c-0.207 0-0.375-0.168-0.375-0.375v-0.689c0-0.207 0.168-0.375 0.375-0.375s0.375 0.168 0.375 0.375v0.689c0 0.207-0.168 0.375-0.375 0.375z"></path>
<path d="M19.548 24.327c-0.207 0-0.375-0.168-0.375-0.375v-0.689c0-0.207 0.168-0.375 0.375-0.375s0.375 0.168 0.375 0.375v0.689c0 0.207-0.168 0.375-0.375 0.375z"></path>
</svg>
