<!-- Generated by IcoMoon.io -->
<svg version="1.1" xmlns="http://www.w3.org/2000/svg" width="32" height="32" viewBox="0 0 32 32">
<title>cosmopolitan</title>
<path d="M23.644 20.649l0.536 1.507c0.023 0.065 0.068 0.116 0.126 0.142l1.339 0.603c0.189 0.085 0.189 0.387 0 0.472l-1.339 0.603c-0.057 0.026-0.103 0.077-0.126 0.142l-0.536 1.507c-0.076 0.213-0.344 0.213-0.419 0l-0.536-1.507c-0.023-0.065-0.068-0.116-0.126-0.142l-1.339-0.603c-0.189-0.085-0.189-0.387 0-0.472l1.339-0.603c0.057-0.026 0.103-0.077 0.126-0.142l0.536-1.507c0.076-0.213 0.344-0.213 0.419 0z"></path>
<path d="M4.275 17.739c0 0.646-0.524 1.171-1.171 1.171s-1.171-0.524-1.171-1.171 0.524-1.171 1.171-1.171c0.647 0 1.171 0.524 1.171 1.171z"></path>
<path d="M14.2 3.987c0 0.279-0.226 0.505-0.505 0.505s-0.505-0.226-0.505-0.505c0-0.279 0.226-0.505 0.505-0.505s0.505 0.226 0.505 0.505z"></path>
<path d="M7.838 0.118l0.398 1.118c0.017 0.048 0.051 0.086 0.093 0.105l0.993 0.448c0.14 0.063 0.14 0.287 0 0.35l-0.993 0.448c-0.043 0.019-0.076 0.057-0.093 0.105l-0.398 1.118c-0.056 0.158-0.255 0.158-0.311 0l-0.398-1.118c-0.017-0.048-0.051-0.086-0.093-0.105l-0.993-0.448c-0.14-0.063-0.14-0.287 0-0.35l0.993-0.448c0.043-0.019 0.076-0.057 0.093-0.105l0.398-1.118c0.056-0.158 0.255-0.158 0.311 0z"></path>
<path d="M13.645 18.877c-0.297 0-0.576-0.141-0.766-0.388l-5.472-6.63c-0.088-0.107-0.106-0.254-0.048-0.379s0.185-0.205 0.323-0.205h11.898c0.138 0 0.264 0.080 0.323 0.204s0.041 0.272-0.047 0.379l-5.446 6.63c-0.19 0.247-0.469 0.388-0.766 0.388zM8.439 11.989s5.001 6.059 5.003 6.063c0.055 0.072 0.126 0.112 0.202 0.112s0.147-0.040 0.202-0.112c0.003-0.004 4.979-6.063 4.979-6.063z"></path>
<path d="M25.198 2.694c-2.738 0-4.993 2.099-5.245 4.771h-17.828c-0.232 0-0.443 0.135-0.54 0.346s-0.062 0.459 0.089 0.635l9.925 11.588v7.791l-4.602 2.757c-0.298 0.178-0.436 0.523-0.343 0.858s0.388 0.56 0.735 0.56h12.512c0.347 0 0.643-0.225 0.735-0.559s-0.045-0.68-0.343-0.858c-0-0-0-0-0-0l-4.602-2.757v-7.791l6.584-7.687c0.837 0.561 1.842 0.889 2.923 0.889 2.907 0 5.271-2.365 5.271-5.271s-2.364-5.271-5.271-5.271zM14.645 19.428c-0.092 0.108-0.143 0.245-0.143 0.387v8.348c0 0.209 0.11 0.403 0.289 0.51l3.57 2.138h-9.431l3.569-2.138c0.179-0.107 0.289-0.301 0.289-0.51v-8.348c0-0.142-0.051-0.279-0.143-0.387l-9.228-10.774h20.456zM24.782 11.084c-0.398-0.053-0.772-0.181-1.108-0.369l1.108-1.294zM25.535 8.876l1.581 1.581c-0.448 0.345-0.99 0.573-1.581 0.637zM27.654 9.929l-1.586-1.586h2.253c-0.072 0.595-0.31 1.14-0.667 1.586zM26.068 7.589l1.587-1.587c0.357 0.446 0.595 0.991 0.666 1.587zM25.535 7.057v-2.219c0.592 0.063 1.134 0.292 1.582 0.637zM24.782 7.056l-1.547-1.547c0.436-0.349 0.967-0.585 1.547-0.662zM22.707 6.047l1.418 1.418h-2.033c0.085-0.528 0.301-1.012 0.614-1.418zM25.198 12.483c-0.894 0-1.727-0.262-2.429-0.713l0.405-0.473c0.59 0.36 1.282 0.569 2.023 0.569 2.151 0 3.9-1.75 3.9-3.9s-1.75-3.9-3.9-3.9c-1.981 0-3.62 1.485-3.866 3.4h-0.622c0.25-2.256 2.167-4.018 4.489-4.018 2.491 0 4.517 2.027 4.517 4.517s-2.026 4.517-4.517 4.517z"></path>
<path d="M11.163 10.574c-0.716 0-1.434-0.001-2.153-0.004-0.347-0.001-0.627-0.283-0.626-0.63s0.282-0.626 0.628-0.626h0.002c1.507 0.005 3.016 0.005 4.487-0.001h0.002c0.346 0 0.627 0.28 0.628 0.626s-0.279 0.629-0.626 0.63c-0.772 0.003-1.555 0.004-2.343 0.004z"></path>
<path d="M7.116 10.57h-0.552c-0.347 0-0.628-0.281-0.628-0.628s0.281-0.628 0.628-0.628h0.552c0.347 0 0.628 0.281 0.628 0.628s-0.281 0.628-0.628 0.628z"></path>
<path d="M13.939 16.64c-0.079 0-0.159-0.025-0.227-0.076-0.166-0.126-0.199-0.362-0.073-0.528l0.539-0.713c0.126-0.166 0.362-0.199 0.528-0.073s0.199 0.362 0.073 0.528l-0.539 0.713c-0.074 0.098-0.187 0.149-0.301 0.149z"></path>
<path d="M15.531 14.683c-0.079 0-0.159-0.025-0.227-0.076-0.166-0.126-0.199-0.362-0.073-0.528l0.54-0.713c0.126-0.166 0.362-0.199 0.528-0.073s0.199 0.362 0.073 0.528l-0.54 0.713c-0.074 0.098-0.187 0.149-0.301 0.149z"></path>
</svg>
