<!-- Generated by IcoMoon.io -->
<svg version="1.1" xmlns="http://www.w3.org/2000/svg" width="32" height="32" viewBox="0 0 32 32">
<title>cream-soda</title>
<path d="M27.538 3.017l0.524 1.473c0.022 0.063 0.067 0.113 0.123 0.138l1.308 0.589c0.185 0.083 0.185 0.378 0 0.461l-1.308 0.589c-0.056 0.025-0.1 0.075-0.123 0.138l-0.524 1.473c-0.074 0.208-0.336 0.208-0.41 0l-0.524-1.473c-0.022-0.063-0.067-0.113-0.123-0.138l-1.308-0.589c-0.185-0.083-0.185-0.378 0-0.461l1.308-0.589c0.056-0.025 0.1-0.075 0.123-0.138l0.524-1.473c0.074-0.208 0.336-0.208 0.41 0z"></path>
<path d="M7.357 3.956c0.583 0.243 0.858 0.913 0.615 1.496s-0.913 0.858-1.496 0.615c-0.583-0.243-0.858-0.913-0.615-1.496s0.913-0.858 1.496-0.615z"></path>
<path d="M29.817 11.945c0 0.267-0.217 0.484-0.484 0.484s-0.484-0.217-0.484-0.484c0-0.267 0.217-0.484 0.484-0.484s0.484 0.217 0.484 0.484z"></path>
<path d="M4.040 11.78l0.388 1.092c0.017 0.047 0.050 0.084 0.091 0.103l0.971 0.437c0.137 0.062 0.137 0.28 0 0.342l-0.971 0.437c-0.042 0.019-0.074 0.056-0.091 0.103l-0.388 1.092c-0.055 0.154-0.249 0.154-0.304 0l-0.389-1.092c-0.017-0.047-0.050-0.084-0.091-0.103l-0.97-0.437c-0.137-0.062-0.137-0.28 0-0.342l0.97-0.437c0.042-0.019 0.075-0.056 0.091-0.103l0.389-1.092c0.055-0.154 0.249-0.154 0.304 0z"></path>
<path d="M23.813 9.299c-0.118-0.12-0.279-0.188-0.448-0.188h-0.682c-0.181-0.571-0.523-1.070-0.973-1.445-0.128-1.231-1.018-2.238-2.188-2.541 0.030-0.084 0.057-0.17 0.079-0.258 0.267-1.088-0.263-2.048-1.342-2.533 0.158-0.482 0.474-1.136 1.1-1.675 0.157-0.135 0.175-0.372 0.040-0.53s-0.372-0.175-0.53-0.040c-0.758 0.652-1.137 1.43-1.327 2.012-1.427-0.306-2.578 0.308-2.883 1.551-0.114 0.462-0.095 0.936 0.046 1.378h-0.668c-1.518 0-2.77 1.156-2.923 2.634-0.45 0.374-0.793 0.874-0.974 1.445h-0.682c-0.169 0-0.331 0.068-0.449 0.19s-0.182 0.285-0.177 0.454l0.569 19.833c0.039 1.353 1.036 2.413 2.271 2.413h9.593c1.242 0 2.24-1.067 2.271-2.429l0.455-19.82c0.004-0.168-0.061-0.331-0.178-0.452zM15.388 3.833c0.191-0.78 0.801-1.056 1.451-1.056 0.212 0 0.428 0.029 0.636 0.080 0.842 0.207 1.651 0.796 1.397 1.831-0.029 0.12-0.071 0.235-0.123 0.344h-3.238c-0.178-0.373-0.222-0.792-0.122-1.199zM14.037 5.783h4.75c0.914 0 1.699 0.564 2.025 1.361-0.335-0.125-0.696-0.193-1.074-0.193h-6.653c-0.377 0-0.739 0.068-1.074 0.193 0.327-0.798 1.111-1.362 2.025-1.362zM13.085 7.703h6.653c0.959 0 1.784 0.58 2.144 1.408h-10.941c0.361-0.827 1.185-1.408 2.144-1.408zM22.285 29.542c-0.015 0.665-0.473 1.206-1.020 1.206h-9.593c-0.543 0-1.001-0.537-1.019-1.197l-0.551-19.189h12.623z"></path>
<path d="M13.159 29.202h6.591c1.105 0 1.992-0.98 2.020-2.232l0.338-15.129c0.002-0.101-0.036-0.199-0.107-0.271s-0.167-0.113-0.268-0.113h-10.642c-0.101 0-0.198 0.041-0.269 0.114s-0.109 0.171-0.106 0.272l0.423 15.141c0.035 1.243 0.922 2.217 2.020 2.217zM21.019 26.953c-0.018 0.826-0.588 1.497-1.269 1.497h-6.591c-0.677 0-1.246-0.667-1.269-1.487l-0.182-6.517h9.458zM21.349 12.209l-0.167 7.487h-9.495l-0.209-7.487z"></path>
<path d="M14.728 24.515c-0.745 0-1.35-0.606-1.35-1.35s0.606-1.35 1.35-1.35 1.35 0.606 1.35 1.35c0 0.745-0.606 1.35-1.35 1.35zM14.728 22.565c-0.33 0-0.599 0.269-0.599 0.599s0.269 0.599 0.599 0.599 0.599-0.269 0.599-0.599c0-0.33-0.269-0.599-0.599-0.599z"></path>
<path d="M18.852 23.691c0.3 0.049 0.504 0.332 0.456 0.632s-0.332 0.504-0.632 0.456c-0.3-0.049-0.504-0.332-0.456-0.632s0.332-0.504 0.632-0.456z"></path>
<path d="M17.043 25.697c0.296 0.070 0.48 0.366 0.411 0.663s-0.366 0.48-0.663 0.411c-0.296-0.070-0.48-0.366-0.411-0.663s0.366-0.48 0.663-0.411z"></path>
<path d="M13.124 18.115c-0.341 0-0.621-0.274-0.626-0.617l-0.023-1.596c-0.005-0.346 0.271-0.63 0.617-0.635 0.346-0.007 0.63 0.271 0.635 0.617l0.023 1.596c0.005 0.346-0.271 0.63-0.617 0.635-0.003 0-0.006 0-0.009 0z"></path>
<path d="M13.076 14.746c-0.341 0-0.621-0.274-0.626-0.617l-0.003-0.215c-0.005-0.346 0.271-0.63 0.617-0.635 0.003-0 0.006-0 0.009-0 0.341 0 0.621 0.274 0.626 0.617l0.003 0.215c0.005 0.346-0.271 0.63-0.617 0.635-0.003 0-0.006 0-0.009 0z"></path>
</svg>
