<!-- Generated by IcoMoon.io -->
<svg version="1.1" xmlns="http://www.w3.org/2000/svg" width="32" height="32" viewBox="0 0 32 32">
<title>horchata</title>
<path d="M4.062 1.297l0.516 1.452c0.022 0.062 0.066 0.111 0.121 0.136l1.29 0.581c0.182 0.082 0.182 0.372 0 0.455l-1.29 0.581c-0.055 0.025-0.099 0.074-0.121 0.136l-0.516 1.452c-0.073 0.205-0.331 0.205-0.404 0l-0.516-1.452c-0.022-0.062-0.066-0.111-0.121-0.136l-1.29-0.581c-0.182-0.082-0.182-0.373 0-0.455l1.29-0.581c0.055-0.025 0.099-0.074 0.121-0.136l0.516-1.452c0.073-0.205 0.331-0.205 0.404 0z"></path>
<path d="M29.555 4.908c0.574 0.241 0.844 0.902 0.603 1.476s-0.902 0.844-1.476 0.603c-0.574-0.241-0.844-0.902-0.603-1.476s0.902-0.844 1.476-0.603z"></path>
<path d="M5.167 14.257c0 0.269-0.218 0.486-0.486 0.486s-0.486-0.218-0.486-0.486c0-0.269 0.218-0.486 0.486-0.486s0.486 0.218 0.486 0.486z"></path>
<path d="M28.874 13.563l0.383 1.077c0.016 0.046 0.049 0.083 0.090 0.101l0.957 0.431c0.135 0.061 0.135 0.276 0 0.337l-0.957 0.431c-0.041 0.018-0.073 0.055-0.090 0.101l-0.383 1.077c-0.054 0.152-0.245 0.152-0.3 0l-0.383-1.077c-0.016-0.046-0.049-0.083-0.090-0.101l-0.957-0.431c-0.135-0.061-0.135-0.276 0-0.337l0.957-0.431c0.041-0.018 0.073-0.055 0.090-0.101l0.383-1.077c0.054-0.152 0.245-0.152 0.3 0z"></path>
<path d="M14.988 8.203c-0.005 0-0.009-0-0.014-0l-0.299-0.007c-0.616-0.014-0.616-0.014-1.425 0.001-0.349 0.007-0.634-0.27-0.64-0.617s0.27-0.634 0.617-0.64c0.826-0.015 0.84-0.015 1.476-0.001l0.297 0.007c0.347 0.008 0.622 0.295 0.615 0.642-0.007 0.343-0.287 0.615-0.628 0.615z"></path>
<path d="M11.009 8.203h-0.708c-0.347 0-0.629-0.281-0.629-0.629s0.281-0.629 0.629-0.629h0.708c0.347 0 0.629 0.281 0.629 0.629s-0.281 0.629-0.629 0.629z"></path>
<path d="M17.709 22.432c-0.208 0-0.377-0.169-0.377-0.377v-0.883c0-0.208 0.169-0.377 0.377-0.377s0.377 0.169 0.377 0.377v0.883c0 0.208-0.169 0.377-0.377 0.377z"></path>
<path d="M19.55 21.927c-0.208 0-0.377-0.169-0.377-0.377v-0.883c0-0.208 0.169-0.377 0.377-0.377s0.377 0.169 0.377 0.377v0.883c0 0.208-0.169 0.377-0.377 0.377z"></path>
<path d="M24.608 5.425c-0.294-0.325-0.713-0.512-1.151-0.512h-0.989l0.869-3.283c0.089-0.335 0.042-0.684-0.132-0.984s-0.454-0.513-0.789-0.602c-0.335-0.089-0.685-0.042-0.984 0.132-0.193 0.112-0.35 0.269-0.461 0.456-0.175-0.292-0.451-0.501-0.78-0.588-0.335-0.089-0.684-0.042-0.984 0.132s-0.513 0.455-0.602 0.789l-1.045 3.947h-8.216c-0.44 0-0.86 0.188-1.154 0.515-0.291 0.325-0.433 0.758-0.389 1.192l1.648 21.191c0.001 0.006 0.001 0.013 0.002 0.019 0.257 2.378 2.255 4.171 4.646 4.171h4.667c2.405 0 4.404-1.805 4.649-4.198 0.001-0.006 0.001-0.011 0.002-0.017l1.587-21.173c0.041-0.432-0.101-0.865-0.393-1.188zM21.559 1.159c0.037-0.14 0.127-0.258 0.252-0.33 0.084-0.049 0.177-0.074 0.272-0.074 0.047 0 0.094 0.006 0.14 0.018 0.14 0.037 0.258 0.127 0.33 0.252s0.093 0.272 0.055 0.412l-0.921 3.476h-1.123zM21.583 11.372h-10.358l-0.072-1.074h10.499zM21.534 12.127l-0.912 14.206c-0.137 1.541-1.22 2.703-2.521 2.703h-3.36c-1.293 0-2.375-1.154-2.519-2.685l-0.948-14.224zM18.236 9.544h-1.123l0.893-3.374h1.123zM19.338 9.544l0.893-3.374h1.123l-0.893 3.374zM19.334 1.159c0.037-0.14 0.127-0.258 0.252-0.33 0.084-0.049 0.177-0.074 0.272-0.074 0.047 0 0.094 0.006 0.14 0.018 0.14 0.037 0.258 0.127 0.33 0.252s0.093 0.272 0.055 0.412l-0.921 3.476h-1.123zM23.749 6.494c-0.001 0.006-0.001 0.011-0.002 0.017l-1.587 21.172c-0.183 1.745-1.642 3.060-3.398 3.060h-4.667c-1.745 0-3.203-1.306-3.395-3.040l-1.648-21.189c-0.001-0.006-0.001-0.013-0.002-0.019-0.012-0.113 0.041-0.191 0.073-0.228s0.105-0.098 0.219-0.098h7.883l-0.893 3.374h-5.583c-0.104 0-0.204 0.043-0.275 0.119s-0.108 0.179-0.101 0.283l1.097 16.459c0 0.003 0.001 0.006 0.001 0.010 0.178 1.924 1.584 3.375 3.27 3.375h3.36c1.696 0 3.103-1.46 3.272-3.396 0-0.003 0-0.006 0.001-0.009l1.056-16.44c0.007-0.104-0.030-0.206-0.101-0.282s-0.171-0.119-0.275-0.119h-0.812l0.893-3.374h1.322c0.114 0 0.185 0.061 0.218 0.097s0.086 0.114 0.074 0.227z"></path>
<path d="M15.532 27.456c-0.219 0-0.438-0.048-0.642-0.143l-1.377-0.641c-0.762-0.355-1.093-1.263-0.738-2.024l0.67-1.439c0.172-0.369 0.477-0.649 0.859-0.788s0.796-0.122 1.165 0.050l1.377 0.641c0.762 0.355 1.093 1.263 0.738 2.025l-0.67 1.439c-0.172 0.369-0.477 0.649-0.859 0.788-0.17 0.062-0.347 0.093-0.523 0.093zM14.826 23.082c-0.089 0-0.178 0.016-0.264 0.047-0.193 0.070-0.347 0.212-0.434 0.398l-0.67 1.439c-0.179 0.385-0.012 0.843 0.373 1.022l1.377 0.641c0.186 0.087 0.395 0.096 0.588 0.025s0.347-0.212 0.434-0.398l0.67-1.439c0.179-0.385 0.012-0.843-0.373-1.022l-1.377-0.641c-0.103-0.048-0.214-0.072-0.324-0.072z"></path>
<path d="M16.562 19.291c-0.247 0-0.492-0.061-0.716-0.18-0.359-0.192-0.622-0.512-0.74-0.901l-0.461-1.518c-0.244-0.804 0.211-1.657 1.015-1.901l1.454-0.441c0.389-0.118 0.802-0.078 1.161 0.114s0.622 0.512 0.74 0.901l0.461 1.519c0.118 0.389 0.078 0.802-0.114 1.161s-0.512 0.622-0.901 0.74l-1.453 0.441c-0.146 0.044-0.296 0.066-0.445 0.066zM17.557 15.037c-0.075 0-0.151 0.011-0.225 0.034l-1.454 0.441c-0.406 0.123-0.636 0.554-0.513 0.96l0.461 1.519c0.060 0.197 0.192 0.358 0.374 0.455s0.39 0.117 0.586 0.058l1.453-0.441c0.197-0.060 0.358-0.192 0.455-0.374s0.117-0.389 0.058-0.586l-0.461-1.519c-0.060-0.197-0.192-0.358-0.374-0.455-0.113-0.060-0.237-0.091-0.362-0.091z"></path>
</svg>
