<!-- Generated by IcoMoon.io -->
<svg version="1.1" xmlns="http://www.w3.org/2000/svg" width="32" height="32" viewBox="0 0 32 32">
<title>hot-chocolate</title>
<path d="M2.579 0.26l0.527 1.481c0.023 0.063 0.067 0.114 0.124 0.139l1.316 0.593c0.186 0.084 0.186 0.38 0 0.464l-1.316 0.593c-0.056 0.025-0.101 0.076-0.124 0.139l-0.527 1.481c-0.074 0.209-0.338 0.209-0.412 0l-0.527-1.481c-0.023-0.063-0.067-0.114-0.124-0.139l-1.316-0.593c-0.186-0.084-0.186-0.38 0-0.464l1.316-0.593c0.056-0.025 0.101-0.076 0.124-0.139l0.527-1.481c0.074-0.209 0.338-0.209 0.412 0z"></path>
<path d="M5.162 9.601c0 0.635-0.515 1.15-1.15 1.15s-1.15-0.515-1.15-1.15 0.515-1.15 1.15-1.15c0.635 0 1.15 0.515 1.15 1.15z"></path>
<path d="M29.592 2.229c0 0.274-0.222 0.496-0.496 0.496s-0.496-0.222-0.496-0.496c0-0.274 0.222-0.496 0.496-0.496s0.496 0.222 0.496 0.496z"></path>
<path d="M30.376 11.241l0.391 1.099c0.017 0.047 0.050 0.084 0.092 0.103l0.976 0.44c0.138 0.062 0.138 0.282 0 0.344l-0.976 0.44c-0.042 0.019-0.075 0.056-0.092 0.103l-0.391 1.099c-0.055 0.155-0.25 0.155-0.306 0l-0.391-1.099c-0.017-0.047-0.050-0.084-0.092-0.103l-0.976-0.44c-0.138-0.062-0.138-0.282 0-0.344l0.976-0.44c0.042-0.019 0.075-0.056 0.092-0.103l0.391-1.099c0.055-0.155 0.25-0.155 0.306 0z"></path>
<path d="M27.687 5.837c-0.113-0.536-0.427-0.996-0.885-1.295-0.946-0.618-2.219-0.351-2.837 0.596-0.008 0.012-0.015 0.024-0.022 0.036l-2.278 4.061c-0.104-0.010-0.208-0.015-0.314-0.015-0.382 0-0.755 0.063-1.111 0.187-0.972-0.196-2.079-0.295-3.295-0.295-1.207 0-2.307 0.098-3.274 0.29-0.277-0.1-0.567-0.15-0.865-0.15-0.875 0-1.666 0.434-2.125 1.138-0.049-0.003-0.098-0.004-0.147-0.004-1.394 0-2.528 1.115-2.528 2.486 0 0.406 0.099 0.8 0.288 1.154-0.025 0.129-0.046 0.26-0.063 0.393-0.336 0.38-0.54 0.878-0.54 1.424v0.205c-3.001 0.019-5.437 2.466-5.437 5.472v1.214c0 3.018 2.455 5.473 5.473 5.473h0.729c1.155 2.251 3.501 3.794 6.199 3.794h4.384c3.84 0 6.964-3.124 6.964-6.964v-9.194c0-0.408-0.115-0.789-0.313-1.114-0.089-1.123-0.451-2.103-1.081-2.921-0.045-0.21-0.111-0.411-0.194-0.603l2.951-3.783c0.011-0.014 0.021-0.028 0.031-0.043 0.299-0.458 0.402-1.006 0.29-1.542zM5.765 22.733v-1.214c0-1.070 0.861-1.942 1.927-1.961v5.137c-1.066-0.019-1.927-0.891-1.927-1.961zM7.727 26.951c-2.326 0-4.218-1.892-4.218-4.218v-1.214c0-2.314 1.873-4.198 4.183-4.217v1.001c-1.758 0.019-3.182 1.454-3.182 3.216v1.214c0 1.774 1.443 3.217 3.217 3.217h0.025c0.045 0.342 0.115 0.677 0.208 1.001h-0.233zM24.749 17.177v7.86c0 3.148-2.561 5.709-5.709 5.709h-4.384c-3.148 0-5.709-2.561-5.709-5.709v-8.034c0.265 0.269 0.595 0.519 0.986 0.747v6.493c0 3.065 2.493 5.558 5.558 5.558h2.715c3.065 0 5.558-2.493 5.558-5.558v-6.391c0.382-0.206 0.711-0.432 0.986-0.675zM10.685 18.129c0.747 0.326 1.647 0.59 2.681 0.778 0.269 0.638 1.087 1.078 2.109 1.078 0.511 0 0.992-0.116 1.373-0.322 0.451 0.274 1.008 0.425 1.596 0.425 1.074 0 1.999-0.494 2.398-1.242 0.815-0.166 1.541-0.382 2.168-0.64v6.037c0 2.65-2.156 4.805-4.805 4.805h-2.715c-2.65 0-4.805-2.156-4.805-4.805zM23.538 12.476c0.611 0.742 0.921 1.686 0.921 2.808 0 0.978-1.68 1.94-4.181 2.393-0.241 0.044-0.434 0.223-0.495 0.46-0.089 0.342-0.613 0.697-1.338 0.697-0.462 0-0.892-0.15-1.151-0.4-0.117-0.114-0.274-0.177-0.437-0.177-0.004 0-0.009 0-0.013 0-0.168 0.003-0.327 0.074-0.442 0.195-0.127 0.134-0.471 0.279-0.926 0.279-0.547 0-0.883-0.205-0.946-0.301 0.036-0.331-0.195-0.635-0.527-0.687-2.691-0.419-4.57-1.43-4.57-2.459 0-0.432 0.046-0.843 0.138-1.221 0.042-0.174 0.008-0.358-0.094-0.505-0.141-0.203-0.215-0.44-0.215-0.685 0-0.679 0.571-1.232 1.274-1.232 0.11 0 0.218 0.013 0.323 0.040 0.17 0.043 0.348 0.014 0.495-0.082l0.024-0.015c0.11-0.070 0.195-0.173 0.244-0.293 0.193-0.476 0.658-0.783 1.186-0.783 0.19 0 0.374 0.040 0.545 0.118 0.123 0.057 0.262 0.072 0.394 0.043 0.221-0.048 0.45-0.089 0.688-0.126-0.144 0.192-0.231 0.429-0.231 0.686v0.947c0 0.208 0.168 0.376 0.376 0.376s0.376-0.168 0.376-0.376v-0.947c0-0.217 0.176-0.393 0.393-0.393h0.414c0.217 0 0.393 0.176 0.393 0.393 0 0.208 0.169 0.376 0.376 0.376s0.376-0.168 0.376-0.376c0-0.341-0.151-0.648-0.389-0.857 0.14-0.003 0.282-0.005 0.426-0.005 1.203 0 2.284 0.102 3.212 0.305 0.125 0.027 0.256 0.015 0.375-0.034 0.135-0.056 0.274-0.097 0.416-0.125l-1.471 2.623c-0.027 0.047-0.048 0.096-0.066 0.146-0.652-0.032-1.334 0.049-2.042 0.242-0.334 0.091-0.531 0.436-0.44 0.771s0.436 0.531 0.77 0.44c1.603-0.438 2.968-0.177 4.172 0.799 0.116 0.094 0.256 0.14 0.394 0.14 0.183 0 0.364-0.079 0.488-0.233 0.218-0.269 0.177-0.664-0.093-0.882-0.18-0.146-0.363-0.278-0.55-0.399l1.372-1.759c0.016 0.027 0.034 0.053 0.054 0.077zM26.359 6.674l-5.249 6.729c-0.012-0.001-0.025-0.002-0.039-0.004-0.001-0-0.003-0-0.004-0.001l-0.281-0.031 4.24-7.559c0.116-0.17 0.29-0.286 0.492-0.328 0.208-0.043 0.42-0.004 0.598 0.112 0.361 0.236 0.467 0.716 0.243 1.081z"></path>
<path d="M13.178 12.314c-0.166-0.257-0.423-0.433-0.722-0.497s-0.605-0.007-0.862 0.159l-0.348 0.225c-0.53 0.344-0.681 1.055-0.338 1.585l0.515 0.794c0.113 0.174 0.346 0.224 0.521 0.111s0.224-0.346 0.111-0.521l-0.515-0.794c-0.118-0.182-0.066-0.425 0.116-0.543l0.348-0.225c0.088-0.057 0.193-0.076 0.296-0.055s0.191 0.082 0.248 0.17l0.515 0.794c0.057 0.088 0.076 0.193 0.055 0.296s-0.082 0.191-0.17 0.248c-0.174 0.113-0.224 0.346-0.111 0.521 0.072 0.111 0.193 0.172 0.316 0.172 0.070 0 0.141-0.020 0.204-0.061 0.257-0.166 0.433-0.423 0.497-0.722s0.007-0.605-0.159-0.862z"></path>
<path d="M17.106 15.437c-0.078-0.627-0.652-1.072-1.279-0.995l-0.939 0.117c-0.627 0.078-1.073 0.652-0.995 1.279l0.051 0.411c0.024 0.19 0.186 0.33 0.373 0.33 0.016 0 0.031-0.001 0.047-0.003 0.206-0.026 0.353-0.214 0.327-0.42l-0.051-0.411c-0.027-0.215 0.126-0.412 0.341-0.438l0.939-0.117c0.104-0.013 0.207 0.015 0.29 0.080s0.136 0.157 0.149 0.261l0.051 0.411c0.026 0.206 0.214 0.353 0.42 0.327s0.353-0.214 0.327-0.42z"></path>
<path d="M12.107 24.348c-0.346 0-0.627-0.281-0.627-0.627v-0.889c0-0.346 0.281-0.627 0.627-0.627s0.627 0.281 0.627 0.627v0.889c0 0.346-0.281 0.627-0.627 0.627z"></path>
<path d="M12.107 21.662c-0.346 0-0.627-0.281-0.627-0.627v-0.377c0-0.346 0.281-0.627 0.627-0.627s0.627 0.281 0.627 0.627v0.377c0 0.346-0.281 0.627-0.627 0.627z"></path>
<path d="M19.823 23.761c-0.208 0-0.376-0.169-0.376-0.376v-0.878c0-0.208 0.169-0.376 0.376-0.376s0.376 0.169 0.376 0.376v0.878c0 0.208-0.169 0.376-0.376 0.376z"></path>
<path d="M18.066 26.25c-0.208 0-0.376-0.169-0.376-0.376v-0.878c0-0.208 0.169-0.376 0.376-0.376s0.376 0.169 0.376 0.376v0.878c0 0.208-0.169 0.376-0.376 0.376z"></path>
<path d="M21.085 25.414c-0.208 0-0.376-0.169-0.376-0.376v-0.878c0-0.208 0.169-0.376 0.376-0.376s0.376 0.169 0.376 0.376v0.878c0 0.208-0.169 0.376-0.376 0.376z"></path>
<path d="M12.45 5.985c-0.137 0-0.274-0.044-0.389-0.136-0.271-0.215-0.317-0.61-0.102-0.881 0.135-0.173 0.489-0.727 0.489-1.187 0-0.176-0.045-0.232-0.177-0.399-0.179-0.225-0.448-0.566-0.448-1.178 0-0.979 0.683-1.868 0.761-1.967 0.215-0.272 0.61-0.317 0.881-0.102s0.317 0.608 0.103 0.88c-0.136 0.174-0.491 0.728-0.491 1.189 0 0.176 0.045 0.232 0.177 0.399 0.179 0.225 0.448 0.566 0.448 1.178 0 0.979-0.683 1.869-0.761 1.967-0.124 0.156-0.307 0.237-0.492 0.237z"></path>
<path d="M19.953 5.985c-0.137 0-0.274-0.044-0.389-0.136-0.271-0.215-0.317-0.61-0.102-0.881 0.135-0.173 0.489-0.727 0.489-1.187 0-0.176-0.045-0.232-0.177-0.399-0.178-0.225-0.448-0.566-0.448-1.178 0-0.979 0.683-1.868 0.761-1.967 0.215-0.271 0.61-0.317 0.881-0.102s0.317 0.608 0.103 0.88c-0.137 0.175-0.491 0.728-0.491 1.188 0 0.176 0.044 0.232 0.177 0.399 0.178 0.225 0.448 0.566 0.448 1.178 0 0.979-0.683 1.869-0.761 1.967-0.124 0.156-0.307 0.237-0.492 0.237z"></path>
<path d="M16.201 5.985c-0.137 0-0.274-0.044-0.389-0.136-0.271-0.215-0.317-0.61-0.102-0.881 0.135-0.173 0.489-0.727 0.489-1.187 0-0.176-0.045-0.232-0.177-0.399-0.179-0.225-0.448-0.566-0.448-1.178 0-0.979 0.683-1.868 0.761-1.967 0.215-0.271 0.61-0.317 0.881-0.102s0.317 0.608 0.103 0.88c-0.137 0.175-0.491 0.728-0.491 1.188 0 0.176 0.044 0.232 0.177 0.399 0.178 0.225 0.448 0.566 0.448 1.178 0 0.979-0.683 1.869-0.761 1.967-0.124 0.156-0.307 0.237-0.492 0.237z"></path>
</svg>
