<!-- Generated by IcoMoon.io -->
<svg version="1.1" xmlns="http://www.w3.org/2000/svg" width="32" height="32" viewBox="0 0 32 32">
<title>iced-coffee</title>
<path d="M25.781 1.738l0.513 1.444c0.022 0.062 0.066 0.111 0.12 0.135l1.283 0.578c0.181 0.082 0.181 0.37 0 0.452l-1.283 0.578c-0.055 0.025-0.098 0.074-0.12 0.136l-0.513 1.444c-0.073 0.204-0.329 0.204-0.402 0l-0.513-1.444c-0.022-0.062-0.066-0.111-0.12-0.136l-1.283-0.578c-0.181-0.082-0.181-0.37 0-0.452l1.283-0.578c0.055-0.025 0.098-0.074 0.12-0.135l0.513-1.444c0.073-0.204 0.329-0.204 0.402 0z"></path>
<path d="M4.956 3.365c0.602 0.144 0.974 0.748 0.831 1.351s-0.748 0.974-1.351 0.831c-0.602-0.144-0.974-0.748-0.831-1.351s0.748-0.974 1.351-0.831z"></path>
<path d="M29.33 9.146c0 0.267-0.216 0.484-0.484 0.484s-0.484-0.216-0.484-0.484c0-0.267 0.216-0.484 0.484-0.484s0.484 0.216 0.484 0.484z"></path>
<path d="M4.49 8.788l0.381 1.071c0.016 0.046 0.049 0.082 0.089 0.101l0.951 0.429c0.134 0.061 0.134 0.275 0 0.335l-0.951 0.429c-0.041 0.018-0.073 0.055-0.089 0.101l-0.381 1.071c-0.054 0.151-0.244 0.151-0.298 0l-0.381-1.071c-0.016-0.046-0.049-0.082-0.089-0.101l-0.951-0.429c-0.134-0.061-0.134-0.275 0-0.335l0.951-0.429c0.041-0.018 0.073-0.055 0.089-0.101l0.381-1.071c0.054-0.151 0.244-0.151 0.298 0z"></path>
<path d="M25.631 15.965l-2.708-8.757c-0.081-0.262-0.324-0.441-0.598-0.441h-7.972l-1.534-5.792c-0.089-0.338-0.305-0.621-0.607-0.796s-0.655-0.223-0.993-0.134c-0.338 0.089-0.621 0.305-0.796 0.607s-0.223 0.655-0.134 0.993l1.356 5.122h-1.737c-0.275 0-0.517 0.179-0.598 0.441l-2.708 8.757c-0.902 2.617-1.109 5.438-0.599 8.159 0.511 2.724 1.73 5.281 3.524 7.394l0.222 0.262c0.119 0.14 0.294 0.221 0.477 0.221h11.779c0.184 0 0.358-0.081 0.477-0.221l0.222-0.262c1.794-2.113 3.012-4.67 3.524-7.394 0.511-2.721 0.304-5.542-0.599-8.159zM9.175 11.884l0.036 0.171h-0.089zM9.979 12.054l-0.114-0.537c-0.043-0.2-0.005-0.405 0.107-0.577s0.283-0.29 0.484-0.332l2.426-0.515c0.054-0.011 0.107-0.017 0.161-0.017 0.147 0 0.29 0.042 0.416 0.124 0.172 0.112 0.29 0.283 0.332 0.484l0.291 1.371zM14.944 12.054h-0.093l-0.325-1.528c-0.147-0.693-0.748-1.175-1.425-1.202l-0.346-1.306h1.152l1.046 3.95zM17.083 12.054h-1.383l0.108-0.966c0.023-0.204 0.123-0.386 0.283-0.514 0.137-0.11 0.304-0.168 0.477-0.168 0.029 0 0.058 0.002 0.086 0.005l1.355 0.151-0.844 1.341c-0.031 0.049-0.058 0.1-0.082 0.151zM19.123 10.205c0.146-0.231 0.395-0.358 0.65-0.358 0.14 0 0.281 0.038 0.407 0.118l2.171 1.366c0.173 0.109 0.294 0.279 0.339 0.479 0.018 0.081 0.023 0.164 0.015 0.244h-4.746zM21.863 8.019l0.813 2.629-2.095-1.319c-0.708-0.446-1.648-0.232-2.094 0.476l-0.032 0.051-1.717-0.191c-0.403-0.045-0.799 0.070-1.116 0.323-0.127 0.102-0.235 0.221-0.322 0.353l-0.615-2.322h7.178zM11.016 1.452c-0.038-0.144-0.018-0.294 0.057-0.422s0.195-0.22 0.339-0.259c0.047-0.013 0.096-0.019 0.144-0.019 0.097 0 0.193 0.026 0.279 0.076 0.129 0.075 0.22 0.195 0.258 0.339l1.483 5.6h-1.152zM10.37 8.019h1.607l0.375 1.418-2.053 0.436c-0.218 0.046-0.415 0.138-0.584 0.263zM7.796 16.344l1.094-3.538h14.431c0.007 0 0.015-0.001 0.022-0.001l1.094 3.539c0.002 0.007 0.004 0.013 0.006 0.020 0.162 0.469 0.299 0.943 0.411 1.421h-3.28c-0.207 0-0.376 0.168-0.376 0.376v2.854c0 0.403-0.328 0.731-0.731 0.731s-0.731-0.328-0.731-0.731v-2.854c0-0.207-0.168-0.376-0.376-0.376h-1.98c-0.208 0-0.376 0.168-0.376 0.376v4.019c0 0.403-0.328 0.731-0.731 0.731s-0.731-0.328-0.731-0.731v-4.019c0-0.207-0.168-0.376-0.376-0.376h-3.145c-0.207 0-0.376 0.168-0.376 0.376v0.932c0 0.403-0.328 0.731-0.731 0.731s-0.731-0.328-0.731-0.731v-0.932c0-0.207-0.168-0.376-0.376-0.376h-2.43c0.112-0.478 0.249-0.952 0.411-1.421 0.002-0.007 0.004-0.013 0.006-0.020zM18.194 25.126l2.424-0.251c0.027-0.003 0.053-0.004 0.080-0.004 0.388 0 0.721 0.294 0.762 0.688l0.264 2.551c0.021 0.204-0.038 0.403-0.167 0.562s-0.312 0.258-0.516 0.279l-2.467 0.256c-0.421 0.044-0.798-0.263-0.842-0.684l-0.204-1.968zM17.693 24.423l-1.083 2.325c-0.086 0.186-0.24 0.326-0.432 0.397s-0.401 0.061-0.586-0.025l-2.248-1.047c-0.383-0.178-0.55-0.635-0.371-1.019l1.083-2.325c0.13-0.279 0.407-0.443 0.696-0.443 0.015 0 0.030 0.001 0.045 0.002 0.056 0.767 0.697 1.374 1.478 1.374 0.346 0 0.664-0.119 0.917-0.319l0.131 0.061c0.186 0.086 0.327 0.24 0.397 0.432s0.061 0.401-0.025 0.586zM21.75 30.707l-0.034 0.041h-11.199l-0.034-0.041c-2.872-3.383-4.041-7.899-3.254-12.203 0.046 0.020 0.097 0.032 0.15 0.032h2.054v0.556c0 0.817 0.665 1.482 1.482 1.482s1.482-0.665 1.482-1.483v-0.556h2.394v3c-0.587-0.015-1.155 0.311-1.418 0.876l-1.083 2.325c-0.353 0.759-0.023 1.664 0.736 2.017l2.248 1.047c0.204 0.095 0.421 0.143 0.64 0.143 0.175 0 0.351-0.031 0.521-0.093 0.165-0.060 0.314-0.148 0.446-0.256l0.104 1.006c0.081 0.78 0.742 1.362 1.509 1.362 0.052 0 0.105-0.003 0.158-0.008l2.467-0.256c0.403-0.042 0.766-0.238 1.022-0.553s0.373-0.71 0.332-1.114l-0.264-2.551c-0.086-0.833-0.834-1.44-1.667-1.354l-2.044 0.212c0.041-0.253 0.017-0.513-0.073-0.76-0.137-0.377-0.412-0.678-0.774-0.85 0.068-0.17 0.106-0.355 0.106-0.55v-3.643h1.229v2.478c0 0.817 0.665 1.483 1.483 1.483s1.483-0.665 1.483-1.483v-2.478h2.904c0.053 0 0.104-0.011 0.15-0.032 0.786 4.303-0.383 8.82-3.254 12.202z"></path>
<path d="M8.698 24.714c-0.24 0-0.469-0.139-0.573-0.372-0.303-0.682-0.395-1.424-0.442-1.994-0.028-0.345 0.228-0.647 0.573-0.676s0.647 0.228 0.676 0.573c0.039 0.472 0.112 1.079 0.339 1.589 0.14 0.316-0.002 0.686-0.318 0.826-0.083 0.037-0.169 0.054-0.254 0.054z"></path>
<path d="M8.282 21.319c-0.009 0-0.018-0-0.027-0.001-0.346-0.014-0.614-0.306-0.6-0.652 0.007-0.166 0.016-0.316 0.029-0.461 0.029-0.345 0.332-0.6 0.677-0.571s0.6 0.333 0.571 0.677c-0.011 0.126-0.019 0.259-0.025 0.406-0.014 0.337-0.291 0.6-0.625 0.6z"></path>
<path d="M13.244 14.585h-1.604c-0.346 0-0.626-0.28-0.626-0.626s0.28-0.626 0.626-0.626h1.604c0.346 0 0.626 0.28 0.626 0.626s-0.28 0.626-0.626 0.626z"></path>
<path d="M9.816 14.585h-0.216c-0.346 0-0.626-0.28-0.626-0.626s0.28-0.626 0.626-0.626h0.216c0.346 0 0.626 0.28 0.626 0.626s-0.28 0.626-0.626 0.626z"></path>
</svg>
