<!-- Generated by IcoMoon.io -->
<svg version="1.1" xmlns="http://www.w3.org/2000/svg" width="32" height="32" viewBox="0 0 32 32">
<title>kombucha</title>
<path d="M4.726 3.112l0.532 1.497c0.023 0.064 0.068 0.115 0.125 0.141l1.33 0.599c0.188 0.085 0.188 0.384 0 0.469l-1.33 0.599c-0.057 0.026-0.102 0.076-0.125 0.141l-0.532 1.497c-0.075 0.212-0.341 0.212-0.417 0l-0.532-1.497c-0.023-0.064-0.068-0.115-0.125-0.141l-1.33-0.599c-0.188-0.085-0.188-0.384 0-0.469l1.33-0.599c0.057-0.026 0.102-0.077 0.125-0.141l0.533-1.497c0.075-0.212 0.341-0.212 0.417 0z"></path>
<path d="M26.143 6.995c0.625 0.148 1.012 0.774 0.864 1.399s-0.774 1.012-1.399 0.864c-0.625-0.148-1.012-0.774-0.864-1.399s0.774-1.012 1.399-0.864z"></path>
<path d="M2.936 13.331c0 0.277-0.225 0.502-0.502 0.502s-0.502-0.225-0.502-0.502 0.225-0.502 0.502-0.502 0.502 0.225 0.502 0.502z"></path>
<path d="M28.488 11.509l0.395 1.111c0.017 0.048 0.050 0.085 0.093 0.104l0.987 0.445c0.139 0.063 0.139 0.285 0 0.348l-0.987 0.445c-0.042 0.019-0.076 0.057-0.093 0.104l-0.395 1.111c-0.056 0.157-0.253 0.157-0.309 0l-0.395-1.111c-0.017-0.048-0.050-0.085-0.093-0.104l-0.987-0.445c-0.139-0.063-0.139-0.285 0-0.348l0.987-0.445c0.042-0.019 0.076-0.057 0.093-0.104l0.395-1.111c0.056-0.157 0.253-0.157 0.309 0z"></path>
<path d="M20.572 12.62c-0.005-0.008-0.010-0.015-0.015-0.022l-0.842-1.108c-0.071-0.094-0.182-0.149-0.3-0.149h-7.674c-0.118 0-0.23 0.055-0.301 0.15l-0.882 1.167c-0.005 0.007-0.010 0.014-0.015 0.021-0.752 1.152-1.087 2.16-1.088 3.269l-0.012 11.544c0 1.528 0.161 2.61 2.238 2.61h7.762c2.238 0 2.238-1.268 2.238-2.61l-0.012-11.543c-0.001-1.11-0.36-2.199-1.097-3.329zM11.167 13.102l0.761-1.007h7.299l0.721 0.948c0.036 0.055 0.070 0.11 0.104 0.164h-8.951c0.022-0.035 0.044-0.070 0.067-0.105zM10.681 13.961h9.776c0.148 0.324 0.259 0.645 0.335 0.964-0.025-0.018-0.049-0.036-0.075-0.053l-1.013-0.638c-0.711-0.447-1.654-0.233-2.101 0.478l-0.309 0.49c-0.254-0.19-0.57-0.303-0.91-0.303-0.006 0-0.013 0-0.019 0l-1.197 0.015c-0.402 0.005-0.779 0.165-1.062 0.45l-0.027-0.069c-0.309-0.781-1.196-1.166-1.977-0.857l-1.113 0.44c-0.333 0.132-0.594 0.368-0.759 0.657 0.050-0.525 0.197-1.037 0.452-1.574zM20.556 16.572l-0.605 0.961c-0.11 0.174-0.28 0.295-0.481 0.34s-0.407 0.010-0.581-0.099l-0.974-0.613-0.009-0.756c-0.002-0.202-0.045-0.395-0.119-0.571l0.453-0.72c0.146-0.232 0.397-0.359 0.652-0.359 0.14 0 0.282 0.038 0.409 0.118l1.013 0.638c0.174 0.109 0.295 0.28 0.34 0.481s0.010 0.407-0.099 0.58zM14.496 16.352l-0.049-0.125c0.035-0.121 0.099-0.233 0.189-0.325 0.144-0.147 0.336-0.229 0.541-0.232l1.197-0.015c0.003-0 0.006-0 0.009-0 0.42 0 0.764 0.339 0.769 0.76l0.014 1.136c0.003 0.206-0.075 0.4-0.219 0.547s-0.336 0.23-0.541 0.232l-1.197 0.015c-0.003 0-0.006 0-0.009 0-0.412 0-0.749-0.326-0.768-0.735 0.194-0.377 0.231-0.833 0.064-1.258zM13.785 17.218c-0.082 0.189-0.232 0.334-0.423 0.41l-1.113 0.44c-0.395 0.156-0.842-0.038-0.998-0.433l-0.418-1.056c-0.076-0.191-0.072-0.4 0.010-0.589s0.232-0.334 0.423-0.41l1.113-0.44c0.395-0.156 0.842 0.038 0.998 0.433l0.418 1.056c0.076 0.191 0.072 0.4-0.010 0.589zM19.443 29.347h-7.762c-1.416 0-1.484-0.446-1.484-1.855l0.010-10.443 0.341 0.863c0.236 0.598 0.812 0.964 1.419 0.964 0.186 0 0.375-0.034 0.558-0.107l1.113-0.44c0.067-0.026 0.13-0.057 0.191-0.091 0.247 0.509 0.769 0.861 1.37 0.861 0.006 0 0.013 0 0.019-0l1.197-0.015c0.407-0.005 0.788-0.168 1.072-0.459 0.171-0.175 0.294-0.384 0.365-0.611l0.636 0.4c0.246 0.155 0.525 0.235 0.809 0.235 0.113-0 0.228-0.013 0.341-0.038 0.397-0.090 0.735-0.33 0.952-0.674l0.327-0.519 0.010 10.075c-0 1.35-0 1.855-1.484 1.855z"></path>
<path d="M23.777 15.706c-0.002-1.462-0.485-2.901-1.36-4.054l-1.894-2.492c-0.218-0.287-0.338-0.646-0.338-1.012v-3.298c0.572-0.398 0.947-1.059 0.947-1.807v-0.842c0-1.214-0.988-2.201-2.201-2.201h-6.738c-1.214 0-2.201 0.988-2.201 2.201v0.842c0 0.748 0.375 1.409 0.947 1.807v3.298c0 0.366-0.12 0.725-0.338 1.012l-1.894 2.492c-0.876 1.152-1.359 2.592-1.36 4.053l-0.015 13.126c-0.001 0.86 0.329 1.664 0.93 2.266 0.581 0.582 1.349 0.902 2.162 0.902h10.278c0.83 0 1.609-0.332 2.194-0.934 0.58-0.598 0.899-1.391 0.898-2.233zM11.248 2.201c0-0.521 0.424-0.944 0.944-0.944h6.738c0.521 0 0.944 0.424 0.944 0.944v0.842c0 0.521-0.424 0.944-0.944 0.944h-6.738c-0.521 0-0.944-0.424-0.944-0.944zM21.992 30.19c-0.346 0.357-0.805 0.553-1.292 0.553h-10.278c-0.477 0-0.929-0.189-1.273-0.533-0.363-0.364-0.563-0.852-0.562-1.376l0.015-13.126c0.001-1.189 0.393-2.359 1.104-3.294l1.894-2.492c0.383-0.504 0.594-1.134 0.594-1.773v-2.904h6.733v2.904c0 0.639 0.211 1.268 0.594 1.773l1.894 2.492c0.711 0.935 1.103 2.105 1.104 3.294l0.015 13.126c0 0.513-0.192 0.995-0.543 1.356z"></path>
<path d="M18.186 24.342c-0.208 0-0.377-0.169-0.377-0.377v-0.888c0-0.208 0.169-0.377 0.377-0.377s0.377 0.169 0.377 0.377v0.888c0 0.208-0.169 0.377-0.377 0.377z"></path>
<path d="M16.125 26.8c-0.208 0-0.377-0.169-0.377-0.377v-0.888c0-0.208 0.169-0.377 0.377-0.377s0.377 0.169 0.377 0.377v0.888c0 0.208-0.169 0.377-0.377 0.377z"></path>
<path d="M18.951 27.369c-0.208 0-0.377-0.169-0.377-0.377v-0.888c0-0.208 0.169-0.377 0.377-0.377s0.377 0.169 0.377 0.377v0.888c0 0.208-0.169 0.377-0.377 0.377z"></path>
<path d="M15.946 2.9h-1.643c-0.347 0-0.629-0.281-0.629-0.629s0.281-0.629 0.629-0.629h1.643c0.347 0 0.629 0.281 0.629 0.629s-0.281 0.629-0.629 0.629z"></path>
<path d="M12.611 2.9h-0.322c-0.347 0-0.629-0.281-0.629-0.629s0.281-0.629 0.629-0.629h0.322c0.347 0 0.629 0.281 0.629 0.629s-0.281 0.629-0.629 0.629z"></path>
</svg>
