<!-- Generated by IcoMoon.io -->
<svg version="1.1" xmlns="http://www.w3.org/2000/svg" width="32" height="32" viewBox="0 0 32 32">
<title>latte-macchiato</title>
<path d="M3.595 9.322l0.522 1.467c0.022 0.063 0.067 0.113 0.122 0.138l1.304 0.587c0.184 0.083 0.184 0.377 0 0.459l-1.304 0.587c-0.056 0.025-0.1 0.075-0.122 0.138l-0.522 1.467c-0.074 0.207-0.334 0.207-0.408 0l-0.522-1.467c-0.022-0.063-0.067-0.113-0.122-0.138l-1.304-0.587c-0.184-0.083-0.184-0.376 0-0.459l1.304-0.587c0.056-0.025 0.1-0.075 0.122-0.138l0.522-1.467c0.074-0.207 0.334-0.207 0.408 0z"></path>
<path d="M30.899 3.643c0 0.629-0.51 1.14-1.14 1.14s-1.14-0.51-1.14-1.14c0-0.629 0.51-1.14 1.14-1.14s1.14 0.51 1.14 1.14z"></path>
<path d="M4.227 5.189c0.264 0.062 0.428 0.327 0.365 0.591s-0.327 0.428-0.591 0.365c-0.264-0.062-0.428-0.327-0.365-0.591s0.327-0.428 0.591-0.365z"></path>
<path d="M29.295 9.183l0.387 1.089c0.017 0.047 0.049 0.084 0.091 0.102l0.967 0.436c0.137 0.062 0.137 0.279 0 0.341l-0.967 0.436c-0.041 0.019-0.074 0.056-0.091 0.102l-0.387 1.089c-0.055 0.154-0.248 0.154-0.303 0l-0.387-1.089c-0.017-0.047-0.049-0.084-0.091-0.102l-0.967-0.436c-0.137-0.062-0.137-0.279 0-0.341l0.967-0.436c0.041-0.019 0.074-0.056 0.091-0.102l0.387-1.089c0.055-0.154 0.248-0.154 0.303 0z"></path>
<path d="M25.24 3.913c-0.304-0.337-0.738-0.53-1.192-0.53h-1.108c-0.372-1.314-1.581-2.28-3.013-2.28h-3.385c-0.744-0.704-1.737-1.103-2.767-1.103-2 0-3.664 1.468-3.972 3.383h-0.705c-0.455 0-0.891 0.194-1.195 0.533-0.302 0.336-0.448 0.786-0.403 1.235l1.746 22.445c0.001 0.006 0.001 0.013 0.002 0.019 0.27 2.5 2.37 4.385 4.885 4.385h4.943c2.529 0 4.63-1.897 4.888-4.413 0.001-0.006 0.001-0.011 0.002-0.017l1.681-22.427c0.043-0.448-0.105-0.896-0.407-1.23zM13.775 1.258c0.773 0 1.517 0.328 2.040 0.899 0.119 0.13 0.288 0.204 0.464 0.204h3.648c0.726 0 1.357 0.416 1.667 1.021h-10.508c0.29-1.216 1.385-2.124 2.689-2.124zM24.393 5.024c-0.001 0.006-0.001 0.011-0.002 0.017l-1.681 22.425c-0.195 1.867-1.757 3.275-3.635 3.275h-4.943c-1.867 0-3.428-1.398-3.633-3.253l-1.745-22.444c-0.001-0.006-0.001-0.013-0.002-0.019-0.015-0.134 0.048-0.227 0.087-0.27s0.124-0.115 0.259-0.115h14.949c0.134 0 0.219 0.072 0.258 0.115s0.101 0.135 0.088 0.268z"></path>
<path d="M19.769 26.388c-0.036 0-0.072-0.005-0.108-0.016-0.2-0.059-0.314-0.269-0.255-0.469 0.080-0.268 0.13-0.553 0.151-0.847 0.014-0.208 0.195-0.365 0.403-0.35s0.365 0.195 0.35 0.403c-0.024 0.349-0.085 0.689-0.18 1.010-0.049 0.164-0.199 0.27-0.362 0.27z"></path>
<path d="M17.237 28.294c-0.216 0-0.428-0.009-0.63-0.017-0.178-0.007-0.347-0.014-0.504-0.015-0.209-0.001-0.377-0.171-0.376-0.379s0.17-0.376 0.377-0.376h0.002c0.172 0.001 0.346 0.008 0.532 0.016 0.849 0.035 1.727 0.071 2.208-0.5 0.135-0.159 0.373-0.179 0.532-0.045s0.18 0.373 0.045 0.532c-0.565 0.669-1.402 0.784-2.187 0.784z"></path>
<path d="M22.712 6.28c-0.203-0.221-0.472-0.343-0.758-0.343h-10.761c-0.287 0-0.557 0.123-0.76 0.346-0.233 0.255-0.347 0.609-0.315 0.971l1.257 18.857c0 0.003 0 0.006 0.001 0.010 0.188 2.026 1.668 3.554 3.442 3.554h3.558c1.785 0 3.265-1.538 3.444-3.577 0-0.003 0-0.006 0.001-0.009l1.21-18.841c0.030-0.361-0.085-0.713-0.318-0.966zM18.375 28.919h-3.559c-1.381 0-2.536-1.231-2.69-2.864l-0.443-6.65h9.809l-0.426 6.631c-0.146 1.644-1.302 2.884-2.692 2.884zM21.541 18.649h-9.908l-0.347-5.212h10.59zM22.277 7.186c-0 0.003-0 0.006-0.001 0.009l-0.352 5.488h-10.689l-0.366-5.484c-0-0.003-0-0.006-0.001-0.010-0.014-0.151 0.031-0.299 0.121-0.397 0.041-0.045 0.11-0.099 0.202-0.099h10.761c0.092 0 0.161 0.053 0.202 0.098 0.089 0.098 0.135 0.245 0.122 0.395z"></path>
<path d="M13.538 17.503c-0.209 0-0.377-0.169-0.377-0.378v-0.7c0-0.209 0.169-0.378 0.377-0.378s0.377 0.169 0.377 0.378v0.7c0 0.209-0.169 0.378-0.377 0.378z"></path>
<path d="M15.391 16.123c-0.209 0-0.377-0.169-0.377-0.377v-0.7c0-0.209 0.169-0.377 0.377-0.377s0.377 0.169 0.377 0.377v0.7c0 0.208-0.169 0.377-0.377 0.377z"></path>
<path d="M18.723 16.823c-0.209 0-0.378-0.169-0.378-0.378v-0.7c0-0.209 0.169-0.377 0.378-0.377s0.378 0.169 0.378 0.377v0.7c0 0.208-0.169 0.378-0.378 0.378z"></path>
</svg>
