<!-- Generated by IcoMoon.io -->
<svg version="1.1" xmlns="http://www.w3.org/2000/svg" width="32" height="32" viewBox="0 0 32 32">
<title>matcha</title>
<path d="M29.727 5.424l0.532 1.495c0.023 0.064 0.068 0.115 0.125 0.14l1.329 0.599c0.188 0.085 0.188 0.384 0 0.468l-1.329 0.599c-0.057 0.026-0.102 0.076-0.125 0.14l-0.532 1.495c-0.075 0.211-0.341 0.211-0.416 0l-0.532-1.495c-0.023-0.064-0.068-0.115-0.125-0.14l-1.329-0.599c-0.188-0.085-0.188-0.384 0-0.468l1.329-0.599c0.057-0.026 0.102-0.076 0.125-0.14l0.532-1.495c0.075-0.211 0.341-0.211 0.416 0z"></path>
<path d="M24.682 2.195c0 0.641-0.52 1.161-1.161 1.161s-1.161-0.52-1.161-1.161 0.52-1.161 1.161-1.161c0.641 0 1.161 0.52 1.161 1.161z"></path>
<path d="M11.491 1.968c0 0.277-0.224 0.501-0.501 0.501s-0.501-0.224-0.501-0.501 0.224-0.501 0.501-0.501c0.277-0 0.501 0.224 0.501 0.501z"></path>
<path d="M16.991 3.87l0.395 1.109c0.017 0.048 0.050 0.085 0.093 0.104l0.986 0.444c0.139 0.063 0.139 0.285 0 0.347l-0.986 0.444c-0.042 0.019-0.076 0.057-0.093 0.104l-0.395 1.109c-0.056 0.157-0.253 0.157-0.309 0l-0.395-1.109c-0.017-0.048-0.050-0.085-0.093-0.104l-0.986-0.444c-0.139-0.063-0.139-0.285 0-0.347l0.986-0.444c0.042-0.019 0.076-0.057 0.093-0.104l0.395-1.109c0.056-0.157 0.253-0.157 0.309 0z"></path>
<path d="M28.849 30.913h-9.963c-1.381 0-2.511-1.080-2.572-2.46l-0.576-12.874c-0.022-0.493 0.153-0.96 0.494-1.317s0.8-0.553 1.293-0.553h12.685c0.493 0 0.953 0.196 1.293 0.553s0.516 0.824 0.494 1.317l-0.576 12.874c-0.062 1.379-1.192 2.46-2.572 2.46zM17.525 14.969c-0.146 0-0.282 0.058-0.383 0.164s-0.153 0.244-0.147 0.39l0.576 12.874c0.032 0.705 0.609 1.257 1.315 1.257h9.963c0.706 0 1.283-0.552 1.315-1.257l0.576-12.874c0.007-0.146-0.046-0.285-0.147-0.39s-0.237-0.164-0.383-0.164z"></path>
<path d="M27.511 28.642h-7.286c-0.964 0-1.754-0.669-1.799-1.523l-0.422-8.070c-0.015-0.283 0.089-0.557 0.292-0.771 0.233-0.245 0.573-0.386 0.932-0.386h9.277c0.36 0 0.699 0.141 0.932 0.386 0.203 0.214 0.307 0.488 0.292 0.771l-0.422 8.070c-0.045 0.854-0.835 1.523-1.799 1.523zM19.229 18.648c-0.151 0-0.295 0.056-0.384 0.151-0.042 0.044-0.091 0.117-0.086 0.211l0.422 8.070c0.023 0.445 0.492 0.807 1.044 0.807h7.286c0.552 0 1.021-0.362 1.044-0.807l0.422-8.070c0.005-0.095-0.044-0.167-0.086-0.211-0.090-0.095-0.233-0.151-0.384-0.151z"></path>
<path d="M14.512 24.543c-0.002-0.008-0.005-0.015-0.007-0.023l-3.165-9.12v-6.208c0-1.455-1.184-2.638-2.638-2.638h-2.45c-1.455 0-2.638 1.183-2.638 2.638v6.365l-3.164 8.96c-0.003 0.009-0.006 0.017-0.009 0.026-0.588 1.927-0.588 4.050 0 5.977 0.081 0.265 0.325 0.446 0.602 0.446h12.866c0.277 0 0.521-0.181 0.602-0.446 0.588-1.927 0.588-4.050 0-5.977zM4.872 15.304v-1.318h5.208v1.318zM10.691 29.707h-2.837v-13.428l2.697 8.558c0.478 1.566 0.524 3.275 0.14 4.87zM4.262 29.707c-0.384-1.595-0.338-3.303 0.139-4.867l2.698-8.562v13.428zM6.251 7.813h2.45c0.761 0 1.379 0.619 1.379 1.379v4.039h-5.208v-4.039c0-0.761 0.619-1.379 1.379-1.379zM1.641 24.923l3.13-8.864h1.605l-2.697 8.557c-0.499 1.636-0.564 3.417-0.194 5.091h-1.963c-0.388-1.564-0.348-3.244 0.119-4.784zM13.431 29.707h-1.963c0.37-1.674 0.306-3.455-0.195-5.094l-2.696-8.554h1.659l3.075 8.863c0.468 1.54 0.508 3.221 0.12 4.785z"></path>
<path d="M23.014 21.282c-0.209 0-0.378-0.169-0.378-0.378v-0.91c0-0.209 0.169-0.378 0.378-0.378s0.378 0.169 0.378 0.378v0.91c-0 0.209-0.169 0.378-0.378 0.378z"></path>
<path d="M26.482 21.915c-0.209 0-0.378-0.169-0.378-0.378v-0.909c0-0.209 0.169-0.378 0.378-0.378s0.378 0.169 0.378 0.378v0.909c0 0.209-0.169 0.378-0.378 0.378z"></path>
<path d="M24.406 24.193c-0.209 0-0.378-0.169-0.378-0.378v-0.909c0-0.209 0.169-0.378 0.378-0.378s0.378 0.169 0.378 0.378v0.909c0 0.209-0.169 0.378-0.378 0.378z"></path>
<path d="M26.938 26.168c-0.209 0-0.378-0.169-0.378-0.378v-0.91c0-0.209 0.169-0.378 0.378-0.378s0.378 0.169 0.378 0.378v0.91c0 0.209-0.169 0.378-0.378 0.378z"></path>
<path d="M20.525 25.418c-0.335 0-0.613-0.264-0.628-0.602-0.014-0.323-0.031-0.647-0.048-0.97-0.019-0.374-0.039-0.76-0.055-1.141-0.014-0.347 0.255-0.641 0.603-0.655 0.349-0.014 0.641 0.256 0.655 0.603 0.016 0.375 0.035 0.759 0.054 1.129 0.017 0.326 0.034 0.653 0.048 0.979 0.015 0.347-0.254 0.641-0.601 0.657-0.009 0-0.019 0.001-0.028 0.001z"></path>
<path d="M20.343 21.321c-0.335 0-0.613-0.264-0.628-0.602l-0.021-0.485c-0.015-0.347 0.254-0.641 0.601-0.657 0.35-0.016 0.641 0.254 0.657 0.601l0.021 0.485c0.015 0.347-0.254 0.641-0.601 0.657-0.009 0-0.019 0.001-0.028 0.001z"></path>
</svg>
