<!-- Generated by IcoMoon.io -->
<svg version="1.1" xmlns="http://www.w3.org/2000/svg" width="32" height="32" viewBox="0 0 32 32">
<title>milk</title>
<path d="M5.061 3.479l0.519 1.46c0.022 0.063 0.066 0.112 0.122 0.137l1.297 0.584c0.183 0.083 0.183 0.374 0 0.457l-1.297 0.584c-0.056 0.025-0.099 0.075-0.122 0.137l-0.519 1.46c-0.073 0.206-0.333 0.206-0.406 0l-0.519-1.46c-0.022-0.063-0.066-0.112-0.122-0.137l-1.297-0.584c-0.183-0.083-0.183-0.374 0-0.457l1.297-0.584c0.056-0.025 0.099-0.075 0.122-0.137l0.519-1.46c0.073-0.206 0.333-0.206 0.406 0z"></path>
<path d="M27.816 8.325c0 0.626-0.508 1.133-1.134 1.133s-1.134-0.508-1.134-1.133c0-0.626 0.508-1.133 1.134-1.133s1.134 0.508 1.134 1.133z"></path>
<path d="M2.302 12.172c0 0.27-0.219 0.489-0.489 0.489s-0.489-0.219-0.489-0.489c0-0.27 0.219-0.489 0.489-0.489s0.489 0.219 0.489 0.489z"></path>
<path d="M29.136 14.225l0.385 1.083c0.017 0.046 0.049 0.083 0.090 0.102l0.962 0.433c0.136 0.061 0.136 0.278 0 0.339l-0.962 0.433c-0.041 0.019-0.074 0.055-0.090 0.102l-0.385 1.083c-0.054 0.153-0.247 0.153-0.301 0l-0.385-1.083c-0.017-0.046-0.049-0.083-0.090-0.102l-0.962-0.433c-0.136-0.061-0.136-0.278 0-0.339l0.962-0.433c0.041-0.019 0.074-0.055 0.090-0.102l0.385-1.083c0.054-0.153 0.247-0.153 0.301 0z"></path>
<path d="M23.781 15.707c-0.001-1.462-0.485-2.902-1.361-4.055l-1.893-2.492c-0.218-0.286-0.337-0.645-0.337-1.010v-3.3c0.572-0.401 0.947-1.064 0.947-1.813v-0.824c0-1.22-0.993-2.213-2.213-2.213h-6.719c-1.22 0-2.213 0.993-2.213 2.213v0.824c0 0.749 0.375 1.413 0.947 1.813v3.3c0 0.365-0.12 0.723-0.337 1.010l-1.893 2.492c-0.876 1.153-1.359 2.593-1.361 4.055l-0.015 13.123c-0.001 0.861 0.33 1.666 0.931 2.268 0.582 0.582 1.35 0.903 2.164 0.903h10.276c0.831 0 1.611-0.332 2.196-0.935 0.581-0.598 0.9-1.392 0.899-2.235zM11.254 2.213c0-0.523 0.426-0.949 0.949-0.949h6.719c0.523 0 0.949 0.426 0.949 0.949v0.824c0 0.523-0.426 0.949-0.949 0.949h-6.719c-0.524 0-0.949-0.426-0.949-0.949zM21.99 30.184c-0.345 0.356-0.803 0.552-1.289 0.552h-10.276c-0.476 0-0.927-0.189-1.27-0.532-0.362-0.363-0.562-0.85-0.561-1.373l0.015-13.123c0.001-1.188 0.393-2.357 1.103-3.291l1.893-2.492c0.384-0.505 0.595-1.135 0.595-1.774v-2.9c0.001 0 0.002 0 0.003 0h6.719c0.001 0 0.002-0 0.003-0v2.9c0 0.639 0.211 1.27 0.595 1.774l1.893 2.492c0.71 0.935 1.102 2.103 1.103 3.291l0.015 13.123c0 0.512-0.192 0.993-0.542 1.354z"></path>
<path d="M20.574 12.619c-0.005-0.008-1.526-2.009-1.526-2.009-0.050-0.076-0.107-0.154-0.167-0.236-0.214-0.292-0.479-0.654-0.557-1.12v-1.098c0-0.31-0.119-0.6-0.336-0.816-0.208-0.207-0.482-0.322-0.772-0.322-0.001 0-0.002 0-0.002 0l-3.181 0.007c-0.603 0.001-1.098 0.506-1.105 1.123l-0.016 1.123c-0.11 0.451-0.426 0.85-0.681 1.172-0.096 0.121-0.179 0.226-0.245 0.326 0 0-1.436 1.901-1.441 1.909-0.752 1.152-1.087 2.16-1.088 3.27l-0.012 11.541c0 1.529 0.161 2.611 2.239 2.611h7.761c2.239 0 2.239-1.268 2.239-2.611l-0.012-11.541c-0.001-1.11-0.36-2.199-1.097-3.329zM11.171 13.104l1.425-1.887c0.005-0.007 0.139-0.191 0.227-0.303 0.294-0.371 0.696-0.879 0.836-1.516 0.005-0.025 0.008-0.050 0.009-0.076l0.017-1.165c0.002-0.206 0.159-0.374 0.349-0.375l3.181-0.007c0.088-0.003 0.172 0.035 0.237 0.1 0.073 0.073 0.113 0.172 0.113 0.279v1.128c0 0.019 0.001 0.038 0.004 0.057 0.101 0.662 0.446 1.135 0.699 1.48 0.057 0.078 0.111 0.152 0.152 0.215 0.005 0.008 1.525 2.009 1.525 2.009 0.65 0.999 0.966 1.949 0.967 2.904l0.002 2.051h-1.465c-0.209 0-0.379 0.17-0.379 0.379v3.212c0 0.34-0.276 0.616-0.616 0.616s-0.616-0.276-0.616-0.616v-3.212c0-0.209-0.17-0.379-0.379-0.379l-1.24-0c-0.101 0-0.197 0.040-0.268 0.111s-0.111 0.168-0.111 0.268v1.672c0 0.34-0.277 0.616-0.616 0.616s-0.616-0.276-0.616-0.616v-1.672c0-0.209-0.17-0.379-0.379-0.379h-4.017l0.002-2.051c0.001-0.951 0.296-1.829 0.958-2.845zM15.223 21.426c0.758 0 1.375-0.617 1.375-1.375v-1.293h0.482v2.833c0 0.758 0.617 1.375 1.375 1.375s1.375-0.617 1.375-1.375v-2.833h1.087l0.006 5.779h-10.717l0.006-5.779h3.638v1.293c0 0.758 0.617 1.375 1.375 1.375zM19.444 29.342h-7.761c-1.414 0-1.481-0.445-1.481-1.852l0.002-2.194h10.718l0.002 2.194c-0 1.348-0 1.853-1.481 1.853z"></path>
<path d="M15.948 2.906h-1.643c-0.349 0-0.632-0.283-0.632-0.632s0.283-0.632 0.632-0.632h1.643c0.349 0 0.632 0.283 0.632 0.632s-0.283 0.632-0.632 0.632z"></path>
<path d="M12.614 2.906h-0.322c-0.349 0-0.632-0.283-0.632-0.632s0.283-0.632 0.632-0.632h0.322c0.349 0 0.632 0.283 0.632 0.632s-0.283 0.632-0.632 0.632z"></path>
<path d="M11.782 22.215c-0.209 0-0.379-0.17-0.379-0.379v-0.696c0-0.209 0.17-0.379 0.379-0.379s0.379 0.17 0.379 0.379v0.696c0 0.209-0.17 0.379-0.379 0.379z"></path>
<path d="M13.766 23.48c-0.209 0-0.379-0.17-0.379-0.379v-0.696c0-0.209 0.17-0.379 0.379-0.379s0.379 0.17 0.379 0.379v0.696c0 0.209-0.17 0.379-0.379 0.379z"></path>
</svg>
