<!-- Generated by IcoMoon.io -->
<svg version="1.1" xmlns="http://www.w3.org/2000/svg" width="32" height="32" viewBox="0 0 32 32">
<title>milkshake1</title>
<path d="M5.106 3.045l0.525 1.477c0.022 0.063 0.067 0.113 0.123 0.139l1.312 0.591c0.185 0.083 0.185 0.379 0 0.462l-1.312 0.591c-0.056 0.025-0.101 0.075-0.123 0.139l-0.525 1.477c-0.074 0.209-0.337 0.209-0.411 0l-0.525-1.477c-0.022-0.063-0.067-0.113-0.123-0.139l-1.312-0.591c-0.185-0.083-0.185-0.379 0-0.462l1.312-0.591c0.056-0.025 0.101-0.075 0.123-0.139l0.525-1.477c0.074-0.209 0.337-0.209 0.411 0z"></path>
<path d="M28.886 3.92c0.448 0.448 0.448 1.174 0 1.622s-1.174 0.448-1.622 0c-0.448-0.448-0.448-1.174 0-1.622s1.174-0.448 1.622 0z"></path>
<path d="M8.066 13.997c0 0.268-0.217 0.486-0.486 0.486s-0.486-0.217-0.486-0.486c0-0.268 0.217-0.486 0.486-0.486s0.486 0.217 0.486 0.486z"></path>
<path d="M27.847 9.067l0.39 1.095c0.017 0.047 0.050 0.084 0.091 0.103l0.973 0.438c0.137 0.062 0.137 0.281 0 0.343l-0.973 0.438c-0.042 0.019-0.075 0.056-0.091 0.103l-0.39 1.095c-0.055 0.155-0.25 0.155-0.305 0l-0.39-1.095c-0.017-0.047-0.050-0.084-0.091-0.103l-0.973-0.438c-0.137-0.062-0.137-0.281 0-0.343l0.973-0.438c0.042-0.019 0.075-0.056 0.091-0.103l0.39-1.095c0.055-0.155 0.25-0.155 0.305 0z"></path>
<path d="M16.187 25.266c-0.156 0-0.301-0.097-0.356-0.253-0.834-2.387-1.391-4.369-1.753-6.235-0.040-0.204 0.094-0.402 0.298-0.441s0.402 0.094 0.441 0.298c0.355 1.83 0.903 3.777 1.725 6.13 0.069 0.196-0.035 0.411-0.231 0.48-0.041 0.014-0.083 0.021-0.124 0.021z"></path>
<path d="M17.548 25.266c-0.041 0-0.082-0.007-0.123-0.021-0.197-0.068-0.301-0.282-0.233-0.479 0.817-2.373 1.366-4.322 1.725-6.133 0.041-0.204 0.239-0.337 0.443-0.296s0.337 0.239 0.296 0.443c-0.367 1.846-0.923 3.826-1.752 6.232-0.054 0.156-0.2 0.254-0.356 0.254z"></path>
<path d="M23.087 6.636c0.11-0.251 0.192-0.493 0.239-0.711 0.152-0.706 0.020-1.409-0.318-1.989 0.035-0.041 0.069-0.084 0.102-0.128 0.268-0.355 0.45-0.749 0.512-1.109 0.077-0.442-0.036-0.813-0.309-1.019-0.367-0.277-0.914-0.181-1.425 0.204-0.058-0.151-0.127-0.291-0.207-0.413-0.246-0.375-0.582-0.57-0.921-0.534s-0.628 0.296-0.791 0.714c-0.113 0.29-0.163 0.647-0.148 1.020-0.35 0.103-0.675 0.275-0.957 0.501-0.030-0.345-0.148-0.677-0.35-0.97-0.307-0.445-0.769-0.744-1.3-0.842l-2.147-0.395c-1.098-0.202-2.155 0.527-2.357 1.624-0.078 0.425-0.017 0.844 0.152 1.209-0.021 0.013-0.042 0.027-0.063 0.041-0.035 0.024-0.068 0.049-0.101 0.075l-0.92-2.982c-0.104-0.336-0.332-0.612-0.644-0.777s-0.668-0.198-1.005-0.094c-0.694 0.214-1.085 0.954-0.871 1.648l1.509 4.888c-0.603 0.308-1.018 0.935-1.018 1.657 0 0.565 0.254 1.071 0.653 1.412 0.094 2.343 0.361 5.843 0.966 9.040 0.678 3.583 1.638 6.080 2.868 7.473-0.308 0.312-0.498 0.74-0.498 1.212 0 0.394 0.133 0.758 0.357 1.049-0.827 0.561-1.474 1.263-1.842 1.781-0.242 0.341-0.274 0.783-0.083 1.153 0.2 0.387 0.602 0.628 1.048 0.628h7.291c0.447 0 0.849-0.241 1.049-0.629 0.191-0.37 0.159-0.812-0.084-1.153-0.435-0.61-1.070-1.268-1.833-1.785 0.221-0.29 0.352-0.652 0.352-1.043 0-0.471-0.19-0.898-0.496-1.21 1.229-1.39 2.189-3.879 2.866-7.451 0.602-3.177 0.87-6.671 0.965-9.024 0.426-0.341 0.699-0.865 0.699-1.452 0-0.692-0.38-1.296-0.941-1.616zM22.812 2.269c0.022 0 0.038 0.004 0.048 0.011 0.017 0.013 0.052 0.105 0.020 0.29-0.040 0.233-0.169 0.507-0.352 0.757-0.136-0.13-0.285-0.247-0.447-0.349 0-0.081-0.001-0.162-0.007-0.246 0.312-0.34 0.615-0.463 0.738-0.463zM20.673 1.923c0.068-0.175 0.146-0.235 0.167-0.238 0-0 0.001-0 0.002-0 0.023 0 0.11 0.044 0.211 0.198 0.106 0.161 0.187 0.383 0.233 0.627-0.027 0.037-0.052 0.074-0.077 0.112-0.005-0.001-0.010-0.003-0.015-0.004-0.208-0.045-0.416-0.064-0.62-0.062-0.002-0.238 0.032-0.461 0.099-0.634zM20.606 3.309c0.141 0 0.285 0.015 0.428 0.046 1.094 0.236 1.791 1.318 1.555 2.411-0.043 0.199-0.119 0.416-0.221 0.638-0.066-0.007-0.132-0.011-0.2-0.011h-0.195c-0.094-1.158-1.065-2.072-2.247-2.072h-0.875c0.36-0.619 1.029-1.012 1.754-1.012zM19.727 5.075c0.766 0 1.399 0.577 1.49 1.318h-6.341c0.091-0.742 0.724-1.318 1.49-1.318zM14.701 1.683c0.076 0 0.153 0.007 0.231 0.021l2.147 0.395c0.334 0.061 0.624 0.249 0.817 0.529 0.075 0.109 0.131 0.227 0.169 0.35l-4.338-0.839c0.237-0.283 0.592-0.457 0.974-0.457zM13.436 2.851l4.621 0.893c-0.073 0.225-0.206 0.424-0.388 0.577h-0.113c-0.246-0.183-0.532-0.309-0.842-0.366l-2.398-0.441c-0.253-0.046-0.506-0.044-0.751 0.003-0.1-0.201-0.148-0.43-0.129-0.666zM13.228 4.458c0.215-0.148 0.463-0.225 0.719-0.225 0.077 0 0.155 0.007 0.233 0.021l1.316 0.242c-0.758 0.319-1.306 1.041-1.375 1.896h-0.654l-0.516-1.672c0.078-0.1 0.171-0.189 0.279-0.263zM9.979 1.485c-0.092-0.298 0.076-0.615 0.373-0.706 0.055-0.017 0.111-0.025 0.167-0.025 0.091 0 0.181 0.022 0.263 0.066 0.133 0.071 0.231 0.189 0.276 0.333l1.617 5.241h-1.066c-0.039 0-0.077 0.002-0.115 0.004zM20.3 30.745h-6.87c0.411-0.515 1.125-1.21 1.983-1.63 0.018 0.001 0.036 0.001 0.054 0.001h2.8c0.017 0 0.033-0.001 0.050-0.001 0.856 0.419 1.571 1.115 1.983 1.629zM14.995 27.389c0-0.26 0.212-0.472 0.472-0.472h2.8c0.26 0 0.472 0.212 0.472 0.472s-0.212 0.472-0.472 0.472h-2.8c-0.26 0-0.472-0.212-0.472-0.472zM21.131 18.494c-0.695 3.665-1.696 6.121-2.892 7.168h-2.741c-1.197-1.049-2.199-3.513-2.895-7.191-0.449-2.371-0.707-4.913-0.847-7.003 0.324 0.295 0.755 0.475 1.226 0.475 1.006 0 1.824-0.818 1.824-1.824v-0.006h0.293v2.047c0 1.006 0.818 1.824 1.824 1.824s1.824-0.818 1.824-1.824v-2.047h3.306c-0.108 2.284-0.372 5.469-0.924 8.382zM22.169 8.857h-4.067c-0.186 0-0.362 0.082-0.481 0.225s-0.169 0.33-0.137 0.513c0.007 0.038 0.010 0.071 0.010 0.101v2.464c0 0.314-0.255 0.569-0.569 0.569s-0.569-0.255-0.569-0.569v-2.464c0-0.030 0.003-0.063 0.010-0.101 0.033-0.183-0.017-0.371-0.137-0.513s-0.296-0.225-0.481-0.225h-1.588c-0.186 0-0.362 0.082-0.481 0.225s-0.169 0.33-0.137 0.513c0.007 0.038 0.010 0.070 0.010 0.101v0.422c0 0.314-0.255 0.569-0.569 0.569s-0.569-0.255-0.569-0.569v-0.422c0-0.030 0.003-0.063 0.010-0.101 0.033-0.183-0.017-0.371-0.137-0.513s-0.296-0.225-0.481-0.225h-0.196c-0.333 0-0.604-0.271-0.604-0.604s0.271-0.604 0.604-0.604h10.559c0.333 0 0.604 0.271 0.604 0.604s-0.271 0.604-0.604 0.604z"></path>
<path d="M13.492 17.012c-0.305 0-0.573-0.223-0.62-0.534-0.028-0.183-0.065-0.4-0.104-0.63-0.059-0.344-0.119-0.7-0.156-0.99-0.044-0.344 0.198-0.659 0.542-0.703s0.659 0.198 0.703 0.542c0.034 0.265 0.093 0.609 0.149 0.941 0.040 0.236 0.078 0.458 0.107 0.652 0.052 0.343-0.184 0.663-0.527 0.714-0.032 0.005-0.063 0.007-0.095 0.007z"></path>
<path d="M13.048 13.742c-0.317 0-0.59-0.24-0.623-0.562-0.009-0.088-0.018-0.176-0.027-0.264-0.034-0.345 0.219-0.652 0.563-0.686s0.652 0.219 0.686 0.563c0.008 0.085 0.017 0.17 0.026 0.255 0.036 0.345-0.214 0.654-0.559 0.69-0.022 0.002-0.044 0.004-0.066 0.004z"></path>
</svg>
