<!-- Generated by IcoMoon.io -->
<svg version="1.1" xmlns="http://www.w3.org/2000/svg" width="32" height="32" viewBox="0 0 32 32">
<title>milkshake</title>
<path d="M3.645 5.696l0.518 1.456c0.022 0.062 0.066 0.112 0.121 0.137l1.293 0.583c0.183 0.082 0.183 0.374 0 0.456l-1.293 0.583c-0.055 0.025-0.099 0.074-0.121 0.137l-0.518 1.456c-0.073 0.206-0.332 0.206-0.405 0l-0.518-1.456c-0.022-0.062-0.066-0.112-0.121-0.137l-1.293-0.583c-0.183-0.082-0.183-0.373 0-0.456l1.293-0.583c0.055-0.025 0.099-0.074 0.121-0.137l0.518-1.456c0.073-0.206 0.332-0.206 0.405 0z"></path>
<path d="M30.143 5.352c0.577 0.239 0.851 0.901 0.612 1.478s-0.901 0.851-1.478 0.612c-0.577-0.239-0.851-0.901-0.612-1.478s0.901-0.851 1.478-0.612z"></path>
<path d="M5.739 13.293c0 0.269-0.218 0.488-0.488 0.488s-0.488-0.218-0.488-0.488c0-0.269 0.218-0.488 0.488-0.488s0.488 0.218 0.488 0.488z"></path>
<path d="M28.289 10.972l0.384 1.080c0.016 0.046 0.049 0.083 0.090 0.101l0.959 0.432c0.136 0.061 0.136 0.277 0 0.338l-0.959 0.432c-0.041 0.018-0.074 0.055-0.090 0.101l-0.384 1.080c-0.054 0.153-0.246 0.153-0.3 0l-0.384-1.080c-0.016-0.046-0.049-0.083-0.090-0.101l-0.959-0.432c-0.136-0.061-0.136-0.277 0-0.338l0.959-0.432c0.041-0.018 0.074-0.055 0.090-0.101l0.384-1.080c0.054-0.153 0.246-0.153 0.3 0z"></path>
<path d="M30.408 21.23c0-1.826-0.621-3.145-1.846-3.92-0.887-0.561-2.085-0.841-3.75-0.874-0.189-0.541-0.516-1.040-0.967-1.466v-3.28c0-0.535-0.218-1.027-0.58-1.413 0.018-0.142 0.028-0.287 0.028-0.434 0-0.397-0.070-0.782-0.2-1.144l3.539-4.441c0.503-0.631 0.399-1.555-0.233-2.058-0.306-0.244-0.688-0.354-1.077-0.31s-0.737 0.237-0.981 0.542l-2.377 2.983c-0.393-0.995-1.249-1.772-2.306-2.043-0.152-1.010-0.921-1.813-1.576-2.329-0.642-0.506-1.607-1.044-2.129-1.044s-1.487 0.538-2.129 1.044c-0.675 0.531-1.469 1.367-1.588 2.419-0.707 0.251-1.298 0.729-1.695 1.339l-1.975-3.82c-0.18-0.347-0.484-0.604-0.856-0.723s-0.769-0.085-1.117 0.095c-0.717 0.371-0.999 1.256-0.628 1.973l3.204 6.199c-0.174 0.41-0.268 0.856-0.268 1.317 0 0.094 0.005 0.186 0.013 0.278-0.458 0.404-0.741 0.958-0.741 1.569v3.28c-0.748 0.707-1.156 1.612-1.156 2.577v10.598c0 2.126 2.030 3.855 4.526 3.855h8.932c2.496 0 4.526-1.729 4.526-3.855v-0.013c3.026-0.311 5.407-3.287 5.407-6.901zM24.932 2.903c0.118-0.148 0.287-0.242 0.476-0.263 0.027-0.003 0.054-0.005 0.081-0.005 0.16 0 0.314 0.054 0.441 0.155 0.306 0.244 0.357 0.692 0.113 0.998l-3.324 4.171c-0.164-0.243-0.36-0.466-0.585-0.661 0.043-0.216 0.065-0.436 0.065-0.658 0-0.098-0.004-0.196-0.013-0.292zM6.635 1.981c-0.18-0.348-0.043-0.778 0.305-0.958 0.102-0.053 0.213-0.080 0.325-0.080 0.072 0 0.145 0.011 0.216 0.034 0.181 0.058 0.329 0.182 0.416 0.351l2.243 4.339c-0.093 0.31-0.144 0.637-0.144 0.974 0 0.222 0.022 0.442 0.065 0.658-0.162 0.141-0.308 0.296-0.438 0.462zM11.12 8.069c0.242-0.158 0.345-0.46 0.25-0.733-0.078-0.224-0.118-0.458-0.118-0.696 0-1.017 0.724-1.891 1.722-2.079 0.313-0.059 0.532-0.342 0.51-0.66-0.005-0.067-0.007-0.121-0.007-0.169 0-1.194 1.994-2.357 2.476-2.471 0.483 0.115 2.476 1.277 2.476 2.471 0 0.043-0.001 0.089-0.004 0.139-0.019 0.34 0.236 0.633 0.576 0.661 1.088 0.089 1.941 1.016 1.941 2.109 0 0.237-0.040 0.472-0.118 0.696-0.095 0.273 0.008 0.575 0.25 0.732 0.519 0.339 0.857 0.878 0.941 1.479-0.235-0.062-0.484-0.095-0.742-0.095h-10.529c-0.192 0-0.379 0.019-0.559 0.054 0.094-0.585 0.428-1.107 0.935-1.438zM23.745 28.145c0 1.433-1.467 2.599-3.27 2.599h-8.932c-1.803 0-3.27-1.166-3.27-2.599v-10.598c0-0.678 0.33-1.321 0.93-1.811 0.16-0.131 0.246-0.332 0.229-0.538-0.002-0.024-0.003-0.042-0.003-0.058v-3.451c0-0.532 0.602-0.981 1.315-0.981h10.529c0.713 0 1.315 0.449 1.315 0.981v3.451c0 0.015-0.001 0.034-0.003 0.059-0.017 0.206 0.069 0.406 0.229 0.537 0.6 0.49 0.93 1.133 0.93 1.811zM25.001 19.391c1.63 0.134 2.282 0.795 2.282 2.231 0 1.699-0.975 3.126-2.282 3.505zM25.001 26.867v-0.962c1.726-0.381 3.036-2.155 3.036-4.282 0-2.323-1.576-2.878-3.036-2.988v-0.936c2.976 0.103 4.151 1.121 4.151 3.531 0 2.912-1.819 5.319-4.151 5.636z"></path>
<path d="M13.864 9.027c-0.344 0-0.683-0.162-0.894-0.465l-0.929-1.333c-0.343-0.492-0.222-1.171 0.27-1.514 0.238-0.166 0.527-0.23 0.813-0.178s0.535 0.21 0.701 0.449l0.929 1.333c0.166 0.238 0.23 0.527 0.178 0.813s-0.21 0.535-0.449 0.701c-0.189 0.132-0.406 0.195-0.62 0.195zM12.932 6.273c-0.068 0-0.134 0.021-0.19 0.060-0.151 0.105-0.188 0.314-0.083 0.465l0.929 1.333c0.105 0.151 0.314 0.188 0.465 0.083 0.073-0.051 0.122-0.127 0.138-0.215s-0.004-0.176-0.055-0.25l-0.929-1.333c-0.051-0.073-0.127-0.122-0.215-0.138-0.020-0.003-0.040-0.005-0.059-0.005z"></path>
<path d="M16.135 6.226c-0.156 0-0.315-0.035-0.465-0.108-0.255-0.125-0.446-0.341-0.538-0.609s-0.074-0.556 0.051-0.811l0.688-1.407c0.257-0.526 0.895-0.745 1.421-0.487s0.745 0.895 0.487 1.421l-0.688 1.407c-0.184 0.376-0.563 0.595-0.956 0.595zM16.001 5.441c0.153 0.075 0.338 0.011 0.412-0.141l0.688-1.407c0.075-0.153 0.011-0.338-0.141-0.412s-0.338-0.011-0.412 0.141l-0.688 1.407c-0.036 0.074-0.041 0.158-0.015 0.235s0.082 0.141 0.156 0.177z"></path>
<path d="M19.656 8.948c-0.046 0-0.093-0.003-0.14-0.009l-1.463-0.198c-0.559-0.076-0.952-0.592-0.876-1.151v-0c0.076-0.559 0.593-0.952 1.151-0.876l1.463 0.198c0.271 0.037 0.511 0.177 0.677 0.394s0.236 0.486 0.2 0.757c-0.037 0.271-0.177 0.511-0.394 0.676-0.18 0.137-0.395 0.209-0.617 0.209zM17.924 7.691c-0.020 0.147 0.084 0.283 0.231 0.303l1.463 0.198c0.071 0.010 0.142-0.009 0.199-0.053s0.094-0.107 0.104-0.178c0.010-0.071-0.009-0.142-0.052-0.199s-0.107-0.094-0.178-0.104l-1.463-0.198c-0.147-0.020-0.283 0.083-0.303 0.231z"></path>
<path d="M20.059 13.105h-8.1c-0.208 0-0.377-0.169-0.377-0.377s0.169-0.377 0.377-0.377h8.1c0.208 0 0.377 0.169 0.377 0.377s-0.169 0.377-0.377 0.377z"></path>
<path d="M20.059 15.251h-8.1c-0.208 0-0.377-0.169-0.377-0.377s0.169-0.377 0.377-0.377h8.1c0.208 0 0.377 0.169 0.377 0.377s-0.169 0.377-0.377 0.377z"></path>
<path d="M10.28 23.109c-0.347 0-0.628-0.281-0.628-0.628v-0.528c0-0.347 0.281-0.628 0.628-0.628s0.628 0.281 0.628 0.628v0.528c0 0.347-0.281 0.628-0.628 0.628z"></path>
<path d="M10.242 20.238c-0.342 0-0.622-0.274-0.628-0.617-0.009-0.488 0.014-1.124 0.268-1.711 0.73-1.685 2.616-1.566 3.864-1.487l0.036 0.002c0.346 0.022 0.609 0.32 0.587 0.666s-0.321 0.609-0.666 0.587l-0.036-0.002c-1.277-0.080-2.281-0.078-2.632 0.732-0.157 0.363-0.172 0.805-0.165 1.189 0.006 0.347-0.27 0.633-0.617 0.639-0.004 0-0.008 0-0.012 0z"></path>
</svg>
