<!-- Generated by IcoMoon.io -->
<svg version="1.1" xmlns="http://www.w3.org/2000/svg" width="32" height="32" viewBox="0 0 32 32">
<title>mimosa</title>
<path d="M27.082 1.549l0.522 1.468c0.022 0.063 0.067 0.113 0.122 0.138l1.304 0.588c0.184 0.083 0.184 0.377 0 0.46l-1.304 0.588c-0.056 0.025-0.1 0.075-0.122 0.138l-0.522 1.468c-0.074 0.207-0.335 0.207-0.408 0l-0.522-1.468c-0.022-0.063-0.067-0.113-0.122-0.138l-1.304-0.588c-0.184-0.083-0.184-0.377 0-0.46l1.304-0.588c0.056-0.025 0.1-0.075 0.122-0.138l0.522-1.468c0.074-0.207 0.335-0.207 0.408 0z"></path>
<path d="M27.459 13.102c0.626 0.062 1.084 0.621 1.021 1.247s-0.621 1.084-1.247 1.021c-0.626-0.062-1.084-0.621-1.021-1.247s0.621-1.084 1.247-1.021z"></path>
<path d="M24.686 19.647c0 0.272-0.22 0.492-0.492 0.492s-0.492-0.22-0.492-0.492c0-0.272 0.22-0.492 0.492-0.492s0.492 0.22 0.492 0.492z"></path>
<path d="M4.682 14.14l0.387 1.089c0.017 0.047 0.049 0.084 0.091 0.102l0.968 0.436c0.137 0.062 0.137 0.279 0 0.341l-0.968 0.436c-0.041 0.019-0.074 0.056-0.091 0.102l-0.387 1.089c-0.055 0.154-0.248 0.154-0.303 0l-0.387-1.089c-0.017-0.047-0.049-0.084-0.091-0.102l-0.968-0.436c-0.137-0.062-0.137-0.279 0-0.341l0.968-0.436c0.041-0.019 0.074-0.056 0.091-0.102l0.387-1.089c0.055-0.154 0.248-0.154 0.303 0z"></path>
<path d="M21.205 30.505l-3.262-1.85v-5.459c0.963-0.59 1.709-1.778 2.273-3.615 0.47-1.53 0.808-3.516 1.003-5.903 0.33-4.027 0.14-7.885 0.138-7.923-0.017-0.335-0.293-0.597-0.628-0.597h-6.915l2.397-2.724c0.11-0.125 0.166-0.289 0.155-0.456s-0.087-0.322-0.212-0.432c-2.573-2.264-6.509-2.013-8.773 0.56s-2.013 6.509 0.56 8.773c0.115 0.101 0.263 0.157 0.415 0.157 0.013 0 0.027-0 0.040-0.001 0.166-0.011 0.322-0.087 0.432-0.212l2.293-2.606c-0.007 1.473 0.028 3.446 0.194 5.462 0.196 2.387 0.533 4.372 1.004 5.903 0.565 1.837 1.311 3.025 2.273 3.615v5.459l-3.262 1.85c-0.316 0.179-0.471 0.549-0.379 0.899s0.41 0.596 0.773 0.596h9.085c0.363 0 0.681-0.245 0.773-0.596s-0.063-0.721-0.379-0.899zM8.328 9.49c-1.626-1.844-1.666-4.66-0.001-6.553 0.979-1.112 2.349-1.68 3.725-1.68 0.966 0 1.935 0.28 2.775 0.848l-0.556 0.632c-0.735-0.472-1.597-0.697-2.484-0.64-1.1 0.070-2.106 0.564-2.834 1.391-1.361 1.547-1.353 3.836-0.069 5.37zM11.178 5.756c-0 0.008-0.009 0.193-0.020 0.518l-1.768 2.009c-0.975-1.252-0.957-3.063 0.129-4.296 0.595-0.676 1.417-1.079 2.316-1.137 0.686-0.044 1.352 0.119 1.93 0.462l-1.625 1.847h-0.333c-0.335 0-0.611 0.262-0.628 0.597zM13.463 30.742l2.070-1.174c0.197-0.112 0.319-0.321 0.319-0.547v-6.206c0-0.251-0.15-0.479-0.381-0.578-1.463-0.628-2.493-3.7-2.899-8.65-0.248-3.022-0.197-5.949-0.159-7.172h7.713c0.038 1.223 0.089 4.15-0.159 7.172-0.407 4.951-1.436 8.023-2.899 8.65-0.231 0.099-0.381 0.326-0.381 0.578v6.206c0 0.226 0.122 0.435 0.319 0.547l2.070 1.174z"></path>
<path d="M16.314 15.519c0 0.314-0.254 0.568-0.568 0.568s-0.568-0.254-0.568-0.568 0.254-0.568 0.568-0.568c0.314-0 0.568 0.254 0.568 0.568z"></path>
<path d="M17.723 17.141c0 0.314-0.254 0.568-0.568 0.568s-0.568-0.254-0.568-0.568 0.254-0.568 0.568-0.568 0.568 0.254 0.568 0.568z"></path>
<path d="M19.266 8.585c-0.008-0.203-0.174-0.363-0.377-0.363h-5.24c-0.203 0-0.369 0.16-0.377 0.363-0.001 0.025-0.093 2.571 0.075 5.35 0.23 3.8 0.823 6.22 1.762 7.195 0.34 0.353 0.73 0.532 1.16 0.532s0.819-0.179 1.16-0.532c0.939-0.975 1.532-3.396 1.762-7.195 0.168-2.78 0.076-5.325 0.075-5.35zM14.014 8.976h4.509c0.028 1.033 0.029 2.537-0.046 4.133h-4.418c-0.075-1.596-0.074-3.1-0.046-4.133zM16.885 20.607c-0.195 0.203-0.397 0.301-0.616 0.301s-0.421-0.099-0.616-0.301c-0.947-0.983-1.377-3.912-1.552-6.743h4.336c-0.175 2.831-0.605 5.76-1.552 6.743z"></path>
</svg>
