<!-- Generated by IcoMoon.io -->
<svg version="1.1" xmlns="http://www.w3.org/2000/svg" width="32" height="32" viewBox="0 0 32 32">
<title>orange-juice</title>
<path d="M30.796 4.48c0.637 0.103 1.070 0.704 0.967 1.341s-0.704 1.070-1.341 0.967c-0.637-0.103-1.070-0.704-0.967-1.341s0.704-1.070 1.341-0.967z"></path>
<path d="M25.114 6.264c0 0.279-0.226 0.504-0.504 0.504s-0.504-0.226-0.504-0.504 0.226-0.504 0.504-0.504 0.504 0.226 0.504 0.504z"></path>
<path d="M20.4 0.118l0.397 1.117c0.017 0.048 0.051 0.086 0.093 0.105l0.992 0.447c0.14 0.063 0.14 0.286 0 0.35l-0.992 0.447c-0.043 0.019-0.076 0.057-0.093 0.105l-0.397 1.117c-0.056 0.158-0.255 0.158-0.311 0l-0.397-1.117c-0.017-0.048-0.051-0.086-0.093-0.105l-0.992-0.447c-0.14-0.063-0.14-0.286 0-0.35l0.992-0.447c0.043-0.019 0.076-0.057 0.093-0.105l0.397-1.117c0.056-0.158 0.255-0.158 0.311 0z"></path>
<path d="M4.863 18.884c-0.345 0-0.626-0.277-0.63-0.623l-0.051-4.268c-0.004-0.348 0.275-0.634 0.623-0.638 0.003-0 0.005-0 0.008-0 0.345 0 0.626 0.277 0.63 0.623l0.051 4.268c0.004 0.348-0.275 0.634-0.623 0.638-0.003 0-0.005 0-0.008 0z"></path>
<path d="M4.78 11.885c-0.345 0-0.626-0.277-0.63-0.623l-0.013-1.094c-0.004-0.348 0.275-0.634 0.623-0.638 0.003-0 0.005-0 0.008-0 0.345 0 0.626 0.277 0.63 0.623l0.013 1.094c0.004 0.348-0.275 0.634-0.623 0.638-0.003 0-0.005 0-0.008 0z"></path>
<path d="M18.61 18.097c-0.236 0-0.463-0.134-0.571-0.362-0.148-0.315-0.014-0.691 0.301-0.839 0.086-0.040 0.173-0.079 0.259-0.116 0.321-0.135 0.691 0.015 0.826 0.336s-0.015 0.691-0.336 0.826c-0.070 0.030-0.141 0.061-0.211 0.094-0.087 0.041-0.178 0.060-0.268 0.060z"></path>
<path d="M15.384 21.605c-0.075 0-0.151-0.014-0.226-0.042-0.325-0.125-0.488-0.489-0.363-0.814 0.334-0.871 0.852-1.691 1.499-2.37 0.196-0.205 0.405-0.401 0.623-0.58 0.269-0.221 0.666-0.183 0.887 0.086s0.183 0.666-0.086 0.887c-0.179 0.147-0.351 0.308-0.512 0.476-0.533 0.559-0.96 1.234-1.235 1.951-0.096 0.251-0.335 0.405-0.589 0.405z"></path>
<path d="M30.49 18.942c0.199-0.472 0.189-0.997-0.027-1.439 0-0 0-0 0-0-0.439-0.899-1.125-1.999-2.12-2.834 0.414-0.484 0.742-0.995 0.989-1.449 0.214-0.392 0.245-0.866 0.085-1.301s-0.491-0.776-0.907-0.935c-1.144-0.438-2.84-0.838-4.423-0.255-1.165 0.429-2.029 1.307-2.627 2.14-0.041-0.256-0.087-0.498-0.137-0.714-0.163-0.652-0.582-1.042-1.122-1.042-0.29 0-0.555 0.116-0.747 0.327-0.207 0.229-0.307 0.549-0.275 0.88 0.019 0.192 0.065 0.479 0.123 0.843 0.066 0.415 0.145 0.909 0.202 1.385-1.266 0.263-2.433 0.798-3.437 1.541l0.235-12.166c0.003-0.169-0.062-0.333-0.18-0.454s-0.281-0.189-0.45-0.189h-14.825c-0.17 0-0.333 0.069-0.451 0.19s-0.183 0.286-0.179 0.456l0.607 25.169c0.039 1.63 1.086 2.906 2.384 2.906h10.226c1.053 0 1.937-0.836 2.256-2.020 1.526 1.261 3.481 2.020 5.611 2.020 4.863 0 8.819-3.956 8.819-8.819 0-1.155-0.224-2.259-0.63-3.27 0.446-0.163 0.809-0.513 1.001-0.969zM24.521 11.912c1.28-0.471 2.766-0.046 3.537 0.25h0c0.076 0.029 0.141 0.101 0.175 0.193s0.031 0.19-0.008 0.261c-0.199 0.365-0.515 0.871-0.943 1.344-0.115-0.059-0.233-0.114-0.353-0.165-0.729-0.307-1.489-0.425-2.22-0.431 0.383-0.124 0.803-0.216 1.261-0.256 0.208-0.019 0.362-0.202 0.343-0.41s-0.202-0.361-0.41-0.343c-1.47 0.131-2.592 0.707-3.376 1.292-0.029 0.008-0.059 0.015-0.088 0.023 0.483-0.691 1.175-1.423 2.082-1.757zM20.014 11.947c0.047-0.052 0.11-0.079 0.186-0.079 0.236 0 0.344 0.293 0.387 0.463 0.12 0.514 0.217 1.215 0.265 1.894-0.139 0.062-0.223 0.105-0.243 0.115-0.032 0.017-0.062 0.036-0.090 0.057-0.089 0.008-0.179 0.017-0.267 0.028-0.058-0.48-0.136-0.97-0.202-1.382-0.054-0.338-0.101-0.629-0.117-0.798-0.012-0.118 0.018-0.227 0.082-0.298zM14.556 29.051c-0.018 0.915-0.532 1.688-1.124 1.688h-10.226c-0.587 0-1.101-0.767-1.123-1.676l-0.591-24.524h13.537l-0.245 12.706c-0.238 0.261-0.46 0.537-0.666 0.825l0.192-10.223c0.002-0.101-0.037-0.2-0.108-0.272s-0.168-0.113-0.27-0.113h-11.345c-0.102 0-0.199 0.041-0.271 0.114s-0.11 0.171-0.108 0.273l0.451 19.215c0.036 1.525 0.972 2.72 2.131 2.72h7.026c0.946 0 1.74-0.791 2.022-1.908 0.218 0.345 0.458 0.674 0.72 0.984zM13.336 19.396c-0.548 1.147-0.855 2.431-0.855 3.785 0 1.237 0.256 2.415 0.718 3.484l-0.007 0.369c-0.021 1.1-0.638 1.995-1.375 1.995h-7.026c-0.732 0-1.349-0.889-1.375-1.981l-0.442-18.828h10.572zM21.299 30.739c-4.167 0-7.558-3.39-7.558-7.558 0-3.9 2.969-7.118 6.765-7.515 0.447 1.088 1.621 3.403 3.813 4.326 0.745 0.314 1.523 0.433 2.274 0.433 0.582 0 1.147-0.072 1.669-0.179 0.382 0.903 0.595 1.895 0.595 2.936 0 4.168-3.39 7.558-7.558 7.558zM29.327 18.452c-0.058 0.137-0.16 0.238-0.282 0.279-1.142 0.378-2.803 0.702-4.236 0.098-1.455-0.613-2.389-2.080-2.882-3.086 1.031-0.067 2.989 0.039 4.796 1.448 0.069 0.054 0.151 0.080 0.232 0.080 0.113 0 0.224-0.050 0.299-0.146 0.128-0.165 0.099-0.402-0.066-0.531-1.695-1.322-3.479-1.617-4.691-1.63 1.068-0.316 2.609-0.569 3.942-0.008 1.433 0.603 2.363 2.019 2.89 3.099 0.056 0.115 0.055 0.26-0.002 0.397z"></path>
<path d="M16.405 27.272c-0.209 0-0.378-0.169-0.378-0.378v-0.452c0-0.209 0.169-0.378 0.378-0.378s0.378 0.169 0.378 0.378v0.452c-0 0.209-0.169 0.378-0.378 0.378z"></path>
<path d="M15.097 25.849c-0.209 0-0.378-0.169-0.378-0.378v-0.452c0-0.209 0.169-0.378 0.378-0.378s0.378 0.169 0.378 0.378v0.452c0 0.209-0.169 0.378-0.378 0.378z"></path>
<path d="M16.261 24.821c-0.209 0-0.378-0.169-0.378-0.378v-0.452c0-0.209 0.169-0.378 0.378-0.378s0.378 0.169 0.378 0.378v0.452c0 0.209-0.169 0.378-0.378 0.378z"></path>
</svg>
