<!-- Generated by IcoMoon.io -->
<svg version="1.1" xmlns="http://www.w3.org/2000/svg" width="32" height="32" viewBox="0 0 32 32">
<title>ramune</title>
<path d="M12.002 0.154l0.516 1.45c0.022 0.062 0.066 0.111 0.121 0.136l1.289 0.581c0.182 0.082 0.182 0.372 0 0.454l-1.288 0.581c-0.055 0.025-0.099 0.074-0.121 0.136l-0.516 1.45c-0.073 0.205-0.331 0.205-0.403 0l-0.516-1.45c-0.022-0.062-0.066-0.111-0.121-0.136l-1.289-0.581c-0.182-0.082-0.182-0.372 0-0.454l1.288-0.581c0.055-0.025 0.099-0.074 0.121-0.136l0.516-1.45c0.073-0.205 0.331-0.205 0.403 0z"></path>
<path d="M8.514 8.407c0.605 0.144 0.979 0.752 0.835 1.357s-0.752 0.979-1.357 0.835c-0.605-0.144-0.979-0.752-0.835-1.357s0.752-0.979 1.357-0.835z"></path>
<path d="M19.384 0.804c0.265 0.043 0.445 0.292 0.402 0.557s-0.292 0.445-0.557 0.402c-0.265-0.043-0.445-0.292-0.402-0.557s0.292-0.445 0.557-0.402z"></path>
<path d="M29.496 14.523l0.383 1.076c0.016 0.046 0.049 0.083 0.090 0.101l0.956 0.431c0.135 0.061 0.135 0.276 0 0.337l-0.956 0.431c-0.041 0.018-0.073 0.055-0.090 0.101l-0.383 1.076c-0.054 0.152-0.245 0.152-0.299 0l-0.383-1.076c-0.016-0.046-0.049-0.083-0.090-0.101l-0.956-0.431c-0.135-0.061-0.135-0.276 0-0.337l0.956-0.431c0.041-0.018 0.073-0.055 0.090-0.101l0.383-1.076c0.054-0.152 0.245-0.152 0.299 0z"></path>
<path d="M21.478 14.487c-0.639 0-1.24-0.249-1.692-0.701-0.933-0.933-0.933-2.45 0-3.383 0.452-0.452 1.053-0.701 1.692-0.701s1.24 0.249 1.692 0.701c0.933 0.933 0.933 2.45 0 3.383-0.452 0.452-1.053 0.701-1.692 0.701zM21.478 10.456c-0.438 0-0.849 0.17-1.159 0.48-0.639 0.639-0.639 1.679 0 2.318 0.31 0.309 0.721 0.48 1.159 0.48s0.849-0.17 1.159-0.48c0.639-0.639 0.639-1.679 0-2.318-0.31-0.31-0.721-0.48-1.159-0.48z"></path>
<path d="M31.955 3.82c0-0.618-0.241-1.2-0.678-1.637l-1.413-1.413c-0.437-0.437-1.019-0.678-1.637-0.678s-1.2 0.241-1.637 0.678l-0.59 0.591c-0.488-0.016-0.981 0.161-1.352 0.533l-1.687 1.687c-0.282 0.282-0.452 0.633-0.51 1-0.014-0.014-0.028-0.028-0.042-0.042-1.715-0.265-3.489 0.231-4.763 1.505-0.864 0.864-1.397 1.974-1.54 3.209-0.070 0.6-0.313 1.123-0.702 1.513l-0.546 0.546c-0.32 0.32-0.733 0.545-1.193 0.65-1.815 0.413-3.448 1.306-4.724 2.582l-8.299 8.299c-0.421 0.421-0.631 0.997-0.591 1.621 0.038 0.593 0.301 1.162 0.741 1.602l5.192 5.192c0.493 0.493 1.132 0.744 1.749 0.744 0.546 0 1.076-0.196 1.473-0.594l8.299-8.299c1.276-1.276 2.168-2.909 2.582-4.724 0.105-0.46 0.329-0.873 0.65-1.193h0l0.546-0.546c0.39-0.39 0.913-0.633 1.513-0.702 1.235-0.143 2.345-0.676 3.209-1.54 1.063-1.063 1.623-2.499 1.576-4.044-0.007-0.219-0.027-0.437-0.058-0.652 0.384-0.051 0.754-0.223 1.048-0.518l1.687-1.687c0.42-0.42 0.592-0.994 0.517-1.541l0.504-0.504c0.437-0.437 0.678-1.019 0.678-1.637zM28.227 1.347c0.283 0 0.549 0.11 0.749 0.31l1.413 1.413c0.2 0.2 0.31 0.466 0.31 0.749s-0.11 0.549-0.31 0.749l-0.241 0.241-2.911-2.911 0.241-0.241c0.2-0.2 0.466-0.31 0.749-0.31zM16.616 22.22l-8.299 8.299c-0.358 0.357-1.007 0.29-1.447-0.15l-5.192-5.192c-0.224-0.224-0.357-0.506-0.376-0.795-0.017-0.258 0.064-0.49 0.226-0.652l8.299-8.299c0.884-0.884 1.97-1.557 3.177-1.976l5.588 5.588c-0.419 1.207-1.091 2.293-1.976 3.177zM25.116 13.514c-0.662 0.662-1.515 1.070-2.466 1.181-0.884 0.103-1.664 0.47-2.256 1.062l-0.546 0.546c-0.488 0.488-0.829 1.111-0.986 1.803-0.009 0.038-0.019 0.076-0.028 0.114l-5.005-5.005c0.038-0.009 0.076-0.019 0.114-0.028 0.691-0.157 1.315-0.498 1.803-0.986l0.546-0.546c0.592-0.592 0.959-1.372 1.062-2.256 0.11-0.951 0.519-1.804 1.181-2.466 0.784-0.784 1.837-1.211 2.979-1.211 0.046 0 0.092 0.001 0.139 0.002 0.368 0.011 0.73 0.066 1.081 0.162 0.066 0.099 0.142 0.192 0.229 0.279l3.026 3.026c0.059 0.059 0.121 0.112 0.185 0.161 0.090 0.34 0.142 0.69 0.153 1.046 0.036 1.195-0.393 2.302-1.209 3.118zM29.369 6.614l-1.687 1.687c-0.223 0.223-0.585 0.223-0.807 0l-3.026-3.026c-0.223-0.223-0.223-0.585 0-0.807l1.687-1.687c0.111-0.111 0.257-0.167 0.404-0.167s0.292 0.056 0.404 0.167l3.026 3.026c0.223 0.223 0.223 0.585 0 0.807z"></path>
<path d="M11.42 18.919c-0.303 0-0.607-0.115-0.838-0.346-0.462-0.462-0.462-1.213 0-1.675l1.636-1.636c0.462-0.462 1.213-0.462 1.675 0l1.296 1.296c0.462 0.462 0.462 1.213 0 1.675-0.224 0.224-0.521 0.347-0.838 0.347s-0.614-0.123-0.838-0.347l-0.458-0.458-0.799 0.799c-0.231 0.231-0.534 0.346-0.838 0.346zM13.056 15.667c-0.11 0-0.221 0.042-0.305 0.126l-1.636 1.636c-0.168 0.168-0.168 0.442 0 0.61s0.442 0.168 0.61-0l1.065-1.065c0.071-0.071 0.166-0.11 0.266-0.11s0.196 0.040 0.266 0.11l0.725 0.725c0.081 0.081 0.19 0.126 0.305 0.126s0.223-0.045 0.305-0.126c0.168-0.168 0.168-0.442 0-0.61l-1.296-1.296c-0.084-0.084-0.194-0.126-0.305-0.126z"></path>
<path d="M9.751 24.468c-0.316 0-0.614-0.123-0.838-0.347-0.462-0.462-0.462-1.213 0-1.675l1.636-1.636c0.224-0.224 0.521-0.347 0.838-0.347s0.614 0.123 0.838 0.347c0.224 0.224 0.347 0.521 0.347 0.838s-0.123 0.614-0.347 0.838l-1.636 1.636c-0.224 0.224-0.521 0.347-0.838 0.347zM9.446 23.588c0.081 0.081 0.19 0.126 0.305 0.126s0.223-0.045 0.305-0.126l1.636-1.636c0.081-0.081 0.126-0.19 0.126-0.305s-0.045-0.223-0.126-0.305c-0.081-0.081-0.19-0.126-0.305-0.126s-0.223 0.045-0.305 0.126l-1.636 1.636c-0.168 0.168-0.168 0.442 0 0.61z"></path>
<path d="M6.264 27.955c-0.316 0-0.614-0.123-0.838-0.347s-0.347-0.521-0.347-0.838 0.123-0.614 0.347-0.838l1.636-1.636c0.224-0.224 0.521-0.347 0.838-0.347s0.614 0.123 0.838 0.347c0.224 0.224 0.347 0.521 0.347 0.838s-0.123 0.614-0.347 0.837l-1.636 1.636c-0.224 0.224-0.521 0.347-0.838 0.347zM7.9 24.703c-0.115 0-0.223 0.045-0.305 0.126l-1.636 1.636c-0.081 0.081-0.126 0.19-0.126 0.305s0.045 0.223 0.126 0.305 0.19 0.126 0.305 0.126 0.223-0.045 0.305-0.126l1.636-1.636c0.081-0.081 0.126-0.19 0.126-0.305s-0.045-0.223-0.126-0.305c-0.081-0.081-0.19-0.126-0.305-0.126z"></path>
<path d="M4.324 26.015c-0.316 0-0.614-0.123-0.838-0.347 0-0 0-0 0-0-0.224-0.224-0.347-0.521-0.347-0.838s0.123-0.614 0.347-0.838l1.636-1.636c0.224-0.224 0.521-0.347 0.838-0.347s0.614 0.123 0.838 0.347c0.224 0.224 0.347 0.521 0.347 0.838s-0.123 0.614-0.347 0.838l-1.636 1.636c-0.224 0.224-0.521 0.347-0.838 0.347zM5.96 22.763c-0.115 0-0.223 0.045-0.305 0.126l-1.636 1.636c-0.081 0.081-0.126 0.19-0.126 0.305s0.045 0.223 0.126 0.305c0 0 0 0 0 0 0.081 0.081 0.19 0.126 0.305 0.126s0.223-0.045 0.305-0.126l1.636-1.636c0.081-0.081 0.126-0.19 0.126-0.305s-0.045-0.223-0.126-0.305-0.19-0.126-0.305-0.126z"></path>
<path d="M9.447 21.049c-0.32 0-0.64-0.122-0.884-0.366-0.236-0.236-0.366-0.55-0.366-0.884s0.13-0.648 0.366-0.884c0.236-0.236 0.55-0.366 0.884-0.366s0.648 0.13 0.884 0.366c0.236 0.236 0.366 0.55 0.366 0.884s-0.13 0.648-0.366 0.884c-0.244 0.244-0.564 0.366-0.884 0.366zM9.447 19.303c-0.127 0-0.254 0.048-0.351 0.145-0.194 0.194-0.194 0.509 0 0.702s0.509 0.194 0.702 0c0.194-0.194 0.194-0.509 0-0.702-0.097-0.097-0.224-0.145-0.351-0.145z"></path>
<path d="M10.735 26.343c-0.097 0-0.193-0.037-0.267-0.111-0.147-0.147-0.146-0.386 0.001-0.533l2.625-2.614c0.147-0.147 0.386-0.146 0.533 0.001s0.146 0.386-0.001 0.533l-2.625 2.614c-0.073 0.073-0.17 0.11-0.266 0.11z"></path>
<path d="M8.753 28.335c-0.095 0-0.191-0.036-0.264-0.108-0.148-0.146-0.15-0.384-0.005-0.533l0.73-0.743c0.146-0.148 0.384-0.15 0.533-0.005s0.15 0.384 0.005 0.533l-0.73 0.743c-0.074 0.075-0.171 0.113-0.269 0.113z"></path>
<path d="M7.858 29.23c-0.096 0-0.193-0.037-0.266-0.11-0.147-0.147-0.147-0.386-0-0.533l0.213-0.213c0.147-0.147 0.386-0.147 0.533-0s0.147 0.386 0 0.533l-0.213 0.213c-0.074 0.074-0.17 0.11-0.266 0.11z"></path>
<path d="M21.027 7.497c-0.286 0-0.544-0.196-0.611-0.487-0.078-0.338 0.132-0.675 0.47-0.753 0.14-0.032 0.284-0.059 0.428-0.078 0.344-0.046 0.66 0.195 0.706 0.538s-0.195 0.66-0.538 0.706c-0.105 0.014-0.21 0.033-0.312 0.057-0.048 0.011-0.095 0.016-0.142 0.016z"></path>
<path d="M18.567 9.958c-0.058 0-0.116-0.008-0.174-0.025-0.333-0.096-0.525-0.444-0.429-0.777 0.233-0.806 0.644-1.497 1.188-2 0.255-0.235 0.652-0.219 0.887 0.036s0.219 0.652-0.036 0.887c-0.376 0.347-0.664 0.839-0.833 1.425-0.079 0.275-0.33 0.454-0.603 0.454z"></path>
<path d="M15.621 14.414c-0.148 0-0.289-0.088-0.348-0.233-0.079-0.192 0.012-0.413 0.205-0.492 1.757-0.724 2.115-2.216 2.118-2.231 0.046-0.203 0.248-0.33 0.451-0.284s0.33 0.248 0.284 0.451c-0.017 0.077-0.452 1.89-2.566 2.76-0.047 0.019-0.095 0.028-0.143 0.028z"></path>
</svg>
