<!-- Generated by IcoMoon.io -->
<svg version="1.1" xmlns="http://www.w3.org/2000/svg" width="32" height="32" viewBox="0 0 32 32">
<title>smoothie</title>
<path d="M4.512 1.548l0.539 1.516c0.023 0.065 0.069 0.116 0.126 0.142l1.347 0.607c0.19 0.086 0.19 0.389 0 0.475l-1.347 0.607c-0.058 0.026-0.103 0.077-0.126 0.142l-0.539 1.516c-0.076 0.214-0.346 0.214-0.422 0l-0.539-1.516c-0.023-0.065-0.069-0.116-0.126-0.142l-1.347-0.607c-0.19-0.086-0.19-0.389 0-0.475l1.347-0.607c0.058-0.026 0.103-0.077 0.126-0.142l0.539-1.516c0.076-0.214 0.346-0.214 0.422-0z"></path>
<path d="M28.719 2.529c0 0.65-0.527 1.177-1.177 1.177s-1.177-0.527-1.177-1.177c0-0.65 0.527-1.177 1.177-1.177s1.177 0.527 1.177 1.177z"></path>
<path d="M30.065 7.153c0 0.275-0.223 0.499-0.499 0.499s-0.499-0.223-0.499-0.499c0-0.275 0.223-0.499 0.499-0.499s0.499 0.223 0.499 0.499z"></path>
<path d="M27.743 8.084l0.4 1.125c0.017 0.048 0.051 0.086 0.094 0.106l0.999 0.45c0.141 0.064 0.141 0.288 0 0.352l-0.999 0.45c-0.043 0.019-0.077 0.057-0.094 0.106l-0.4 1.125c-0.056 0.159-0.256 0.159-0.313 0l-0.4-1.125c-0.017-0.048-0.051-0.086-0.094-0.106l-0.999-0.45c-0.141-0.064-0.141-0.288 0-0.352l0.999-0.45c0.043-0.019 0.077-0.057 0.094-0.106l0.4-1.125c0.056-0.159 0.256-0.159 0.313 0z"></path>
<path d="M27.793 17.006c-0.906-0.573-2.131-0.859-3.836-0.891-0.192-0.556-0.528-1.068-0.993-1.506v-3.359c0-0.901-0.605-1.681-1.481-2.049 0.241-0.208 0.468-0.442 0.671-0.704 1.105-1.422 1.247-3.278 1.172-4.586-0.027-0.465-0.262-0.903-0.644-1.2s-0.865-0.417-1.322-0.328c-0.912 0.177-2.065 0.529-3.053 1.226-0.284-1.278-1.051-2.359-1.712-3.096-0.294-0.327-0.722-0.513-1.177-0.513-0.007 0-0.015 0-0.022 0-0.464 0.006-0.896 0.205-1.185 0.545-0.796 0.935-1.739 2.405-1.717 4.096 0.004 0.293 0.037 0.579 0.093 0.856-0.145-0.022-0.294-0.034-0.445-0.034-1.641 0-2.976 1.335-2.976 2.976 0 0.191 0.019 0.377 0.053 0.558-1.27 0.155-2.251 1.105-2.251 2.252 0.001 2.055 0.002 2.955 0.004 3.355-0.767 0.722-1.186 1.646-1.186 2.633v10.834c0 2.166 2.070 3.928 4.614 3.928h9.132c2.544 0 4.614-1.762 4.614-3.928v-0.026c3.092-0.311 5.528-3.351 5.528-7.043 0-1.862-0.633-3.207-1.881-3.997zM21.6 3.618c0.020-0.004 0.040-0.006 0.060-0.006 0.084 0 0.172 0.032 0.249 0.092 0.096 0.075 0.154 0.176 0.16 0.279 0.052 0.894 0.002 2.569-0.909 3.741-0.44 0.566-1.037 0.967-1.65 1.251h-0.723c0.055-0.227 0.085-0.463 0.085-0.706 0-0.33-0.055-0.648-0.155-0.945 0.358-0.562 0.844-1.13 1.505-1.628 0.166-0.126 0.2-0.362 0.074-0.529s-0.362-0.2-0.529-0.074c-0.601 0.454-1.072 0.954-1.443 1.459-0.142-0.201-0.309-0.383-0.496-0.543 0.104-0.204 0.226-0.401 0.369-0.586 0.911-1.172 2.522-1.633 3.401-1.804zM14.744 6.997c0.305-0.277 0.709-0.446 1.153-0.446 0.947 0 1.718 0.771 1.718 1.718 0 0.252-0.055 0.491-0.153 0.706h-2.393c0.032-0.174 0.049-0.353 0.049-0.536 0-0.523-0.136-1.014-0.374-1.442zM15.169 1.361c0.053-0.063 0.144-0.101 0.243-0.102h0.005c0.097 0 0.187 0.036 0.241 0.096 0.554 0.617 1.485 1.855 1.503 3.225 0.001 0.044-0.001 0.088-0.002 0.131-0.168 0.224-0.313 0.458-0.438 0.699-0.262-0.076-0.539-0.117-0.825-0.117-0.242 0-0.478 0.030-0.704 0.085-0.027-0.53 0.016-1.11 0.174-1.725 0.052-0.202-0.070-0.408-0.272-0.459s-0.408 0.070-0.459 0.272c-0.204 0.799-0.242 1.541-0.184 2.204-0.147 0.083-0.287 0.178-0.418 0.283-0.166-0.416-0.275-0.864-0.281-1.328-0.018-1.369 0.88-2.633 1.417-3.264zM12.142 6.722c0.947 0 1.718 0.771 1.718 1.718 0 0.187-0.030 0.367-0.086 0.536h-3.264c-0.056-0.169-0.086-0.349-0.086-0.536-0-0.947 0.77-1.718 1.718-1.718zM22.888 28.072c0 1.472-1.505 2.67-3.356 2.67h-9.132c-1.85 0-3.356-1.198-3.356-2.67v-10.834c0-0.697 0.34-1.358 0.956-1.861 0.152-0.124 0.237-0.312 0.231-0.507-0.002-0.144-0.004-2.237-0.005-3.619 0-0.55 0.621-1.015 1.357-1.015h10.764c0.736 0 1.357 0.465 1.357 1.015v3.528c0 0.016-0.001 0.035-0.003 0.061-0.017 0.206 0.069 0.407 0.229 0.538 0.616 0.503 0.956 1.164 0.956 1.861zM24.146 19.114c1.681 0.135 2.354 0.812 2.354 2.29 0 1.747-1.006 3.213-2.354 3.596zM24.146 26.779v-1.004c1.767-0.384 3.109-2.197 3.109-4.372 0-2.375-1.616-2.938-3.109-3.047v-0.976c3.060 0.103 4.269 1.146 4.269 3.623 0 2.99-1.872 5.459-4.269 5.777z"></path>
<path d="M19.106 13.268h-8.281c-0.209 0-0.378-0.169-0.378-0.378s0.169-0.378 0.378-0.378h8.281c0.209 0 0.378 0.169 0.378 0.378s-0.169 0.378-0.378 0.378z"></path>
<path d="M19.106 14.882h-8.281c-0.209 0-0.378-0.169-0.378-0.378s0.169-0.378 0.378-0.378h8.281c0.209 0 0.378 0.169 0.378 0.378s-0.169 0.378-0.378 0.378z"></path>
<path d="M10.153 22.911c-0.348 0-0.629-0.282-0.629-0.629v-0.54c0-0.348 0.282-0.629 0.629-0.629s0.629 0.282 0.629 0.629v0.54c0 0.348-0.282 0.629-0.629 0.629z"></path>
<path d="M10.114 19.976c-0.342 0-0.623-0.274-0.629-0.618-0.009-0.498 0.014-1.146 0.273-1.744 0.742-1.714 2.665-1.593 3.938-1.512l0.037 0.002c0.347 0.022 0.61 0.321 0.588 0.668s-0.321 0.611-0.668 0.588l-0.037-0.002c-1.31-0.083-2.342-0.079-2.704 0.756-0.162 0.374-0.177 0.827-0.169 1.221 0.006 0.348-0.27 0.634-0.618 0.64-0.004 0-0.008 0-0.012 0z"></path>
<path d="M15.848 25.956c-0.209 0-0.378-0.169-0.378-0.378v-0.905c0-0.209 0.169-0.378 0.378-0.378s0.378 0.169 0.378 0.378v0.905c-0 0.209-0.169 0.378-0.378 0.378z"></path>
<path d="M17.879 22.972c-0.209 0-0.378-0.169-0.378-0.378v-0.905c0-0.209 0.169-0.378 0.378-0.378s0.378 0.169 0.378 0.378v0.905c0 0.209-0.169 0.378-0.378 0.378z"></path>
<path d="M19.399 25.429c-0.209 0-0.378-0.169-0.378-0.378v-0.905c0-0.209 0.169-0.378 0.378-0.378s0.378 0.169 0.378 0.378v0.905c-0 0.209-0.169 0.378-0.378 0.378z"></path>
<path d="M21.925 19.853c-0.004-0.788-0.008-1.604-0.008-2.41 0-0.702-0.396-1.185-0.745-1.611-0.054-0.066-0.107-0.13-0.157-0.193 0-1.413-0-2.997-0.014-4.387-0.002-0.207-0.17-0.373-0.377-0.374h-11.355c-0.207 0-0.375 0.167-0.377 0.374-0.014 1.39-0.014 2.974-0.014 4.387-0.050 0.063-0.102 0.127-0.157 0.193-0.349 0.426-0.745 0.909-0.745 1.611 0 0.806-0.004 1.622-0.008 2.41-0.012 2.349-0.024 4.778 0.073 7.199-0.039 1.541 1.459 2.881 2.945 2.883h7.922c1.486-0.002 2.984-1.342 2.945-2.883 0.097-2.421 0.084-4.85 0.073-7.199zM18.879 29.18h-7.865c-1.099 0.004-2.262-1.002-2.219-2.151-0.096-2.406-0.084-4.829-0.072-7.172 0.004-0.789 0.008-1.605 0.008-2.414 0-0.432 0.266-0.756 0.574-1.132 0.084-0.102 0.17-0.207 0.252-0.317 0.049-0.065 0.076-0.145 0.076-0.226 0-1.319 0.011-4.135 0.011-4.135h10.605s0.011 2.816 0.011 4.135c0 0.082 0.026 0.161 0.076 0.226 0.082 0.11 0.169 0.215 0.252 0.317 0.308 0.375 0.574 0.7 0.574 1.132 0 0.808 0.004 1.624 0.008 2.414 0.012 2.343 0.024 4.766-0.072 7.172 0.043 1.149-1.12 2.155-2.219 2.151z"></path>
</svg>
