<!-- Generated by IcoMoon.io -->
<svg version="1.1" xmlns="http://www.w3.org/2000/svg" width="32" height="32" viewBox="0 0 32 32">
<title>soda</title>
<path d="M20.315 1.741l0.518 1.457c0.022 0.062 0.066 0.112 0.122 0.137l1.294 0.583c0.183 0.082 0.183 0.374 0 0.456l-1.294 0.583c-0.055 0.025-0.099 0.074-0.122 0.137l-0.518 1.457c-0.073 0.206-0.332 0.206-0.405 0l-0.518-1.457c-0.022-0.062-0.066-0.112-0.122-0.137l-1.294-0.583c-0.183-0.082-0.183-0.374 0-0.456l1.294-0.583c0.055-0.025 0.099-0.074 0.122-0.137l0.518-1.457c0.073-0.206 0.332-0.206 0.405 0z"></path>
<path d="M21.2 10.357c0.608 0.144 0.984 0.753 0.841 1.361s-0.753 0.984-1.361 0.841c-0.608-0.144-0.984-0.753-0.841-1.361s0.753-0.984 1.361-0.841z"></path>
<path d="M26.975 5.847c0.062 0.262-0.1 0.525-0.363 0.587s-0.525-0.1-0.587-0.363c-0.062-0.262 0.1-0.525 0.363-0.587s0.525 0.1 0.587 0.363z"></path>
<path d="M27.251 8.633l0.384 1.081c0.016 0.046 0.049 0.083 0.090 0.101l0.96 0.433c0.136 0.061 0.136 0.277 0 0.338l-0.96 0.433c-0.041 0.018-0.074 0.055-0.090 0.101l-0.384 1.081c-0.054 0.153-0.246 0.153-0.301 0l-0.384-1.081c-0.016-0.046-0.049-0.083-0.090-0.101l-0.96-0.433c-0.136-0.061-0.136-0.277 0-0.338l0.96-0.433c0.041-0.018 0.074-0.055 0.090-0.101l0.384-1.081c0.054-0.153 0.246-0.153 0.301 0z"></path>
<path d="M7.316 12.146c-0.683 0-1.239-0.556-1.239-1.239s0.556-1.239 1.239-1.239 1.239 0.556 1.239 1.239-0.556 1.239-1.239 1.239zM7.316 10.425c-0.266 0-0.482 0.216-0.482 0.482s0.216 0.482 0.482 0.482 0.482-0.216 0.482-0.482-0.216-0.482-0.482-0.482z"></path>
<path d="M12.73 27.959c-0.683 0-1.239-0.556-1.239-1.239s0.556-1.239 1.239-1.239 1.239 0.556 1.239 1.239-0.556 1.239-1.239 1.239zM12.73 26.238c-0.266 0-0.482 0.216-0.482 0.482s0.216 0.482 0.482 0.482 0.482-0.216 0.482-0.482-0.216-0.482-0.482-0.482z"></path>
<path d="M10.418 24.207c0.303 0.072 0.491 0.376 0.42 0.679s-0.376 0.491-0.679 0.42c-0.303-0.072-0.491-0.376-0.42-0.679s0.376-0.491 0.679-0.42z"></path>
<path d="M8.101 26.337c0 0.236-0.192 0.428-0.428 0.428s-0.428-0.192-0.428-0.428 0.192-0.428 0.428-0.428 0.428 0.192 0.428 0.428z"></path>
<path d="M12.513 11.898c0 0.236-0.192 0.428-0.428 0.428s-0.428-0.192-0.428-0.428c0-0.236 0.192-0.428 0.428-0.428s0.428 0.192 0.428 0.428z"></path>
<path d="M10.611 15.428c-0.258 0-0.509 0.031-0.749 0.087-0.127-0.133-0.267-0.261-0.421-0.384-1.436-1.138-3.574-0.755-3.664-0.738-0.186 0.035-0.317 0.201-0.309 0.389 0.004 0.092 0.12 2.26 1.556 3.398 0.104 0.082 0.209 0.158 0.317 0.23-0.009 0.099-0.014 0.2-0.014 0.302 0 1.811 1.474 3.285 3.285 3.285s3.285-1.474 3.285-3.285-1.474-3.285-3.285-3.285zM7.494 17.588c-0.86-0.681-1.142-1.896-1.231-2.492 0.6-0.050 1.847-0.053 2.707 0.629 0.036 0.028 0.070 0.057 0.104 0.086-0.263 0.14-0.504 0.314-0.719 0.517l-0.473-0.377c-0.163-0.131-0.402-0.104-0.532 0.060s-0.104 0.401 0.059 0.532l0.458 0.366c-0.143 0.216-0.261 0.451-0.35 0.698-0.008-0.006-0.016-0.012-0.024-0.019zM10.611 21.241c-1.394 0-2.528-1.134-2.528-2.528s1.134-2.528 2.528-2.528 2.528 1.134 2.528 2.528c0 1.394-1.134 2.528-2.528 2.528z"></path>
<path d="M10.611 20.683c-1.086 0-1.97-0.884-1.97-1.97s0.884-1.97 1.97-1.97c1.086 0 1.97 0.884 1.97 1.97s-0.884 1.97-1.97 1.97zM10.611 17.5c-0.669 0-1.213 0.544-1.213 1.213s0.544 1.213 1.213 1.213 1.213-0.544 1.213-1.213-0.544-1.213-1.213-1.213z"></path>
<path d="M24.447 16.297c-0.119-0.121-0.281-0.19-0.451-0.19h-7.541c0.304-1.635 0.277-3.344-0.089-5.032-0.51-2.358-1.524-5.442-3.476-7.041l0.032-2.436c0.005-0.413-0.15-0.802-0.438-1.098s-0.673-0.461-1.086-0.467l-2.437-0.033c-0.854-0.011-1.553 0.672-1.565 1.524l-0.031 2.333c-2.066 1.506-3.182 4.631-3.76 7.041-0.563 2.351-0.477 4.751 0.251 6.942 0.026 0.078 0.052 0.155 0.079 0.232 0.272 0.769 0.415 1.772 0.401 2.825-0.002 0.182-0.003 0.364-0.004 0.543-0.004 0.913-0.008 1.775-0.227 2.343-0.57 1.482-0.87 3.106-0.893 4.828-0.015 1.149 0.644 2.152 1.267 2.708 0.492 0.439 1.030 0.681 1.503 0.681 0.056 0 0.111-0.003 0.166-0.010 0.571-0.073 0.969-0.356 1.26-0.562 0.167-0.119 0.327-0.229 0.417-0.23 0.106 0.001 0.317 0.134 0.503 0.251 0.366 0.23 0.822 0.517 1.426 0.525 0.658 0.010 1.175-0.334 1.552-0.585 0.090-0.060 0.206-0.137 0.281-0.176 0.069 0.035 0.176 0.105 0.26 0.16 0.333 0.217 0.788 0.514 1.426 0.594 0.486 0.061 1.049-0.132 1.568-0.533 0.316 0.351 0.757 0.567 1.248 0.567h6.487c0.954 0 1.719-0.811 1.743-1.845l0.308-13.402c0.004-0.17-0.061-0.334-0.179-0.455zM8.328 4.729l0.291-0.183 0.040-3.005c0.002-0.155 0.129-0.279 0.283-0.279h0.004l2.437 0.032c0.102 0.001 0.168 0.054 0.199 0.085s0.082 0.099 0.080 0.201l-0.041 3.081 0.267 0.192c1 0.718 1.737 1.971 2.269 3.266h-8.329c0.584-1.368 1.398-2.699 2.5-3.391zM4.833 11.193c0.155-0.647 0.382-1.468 0.694-2.316h8.917c0.319 0.906 0.542 1.785 0.689 2.465 0.117 0.54 0.194 1.089 0.233 1.639l-10.811-0.115c0.053-0.557 0.145-1.116 0.278-1.672zM14.171 30.353c-0.314 0.273-0.603 0.379-0.74 0.361-0.35-0.044-0.627-0.225-0.895-0.399-0.283-0.184-0.576-0.375-0.941-0.38-0.369-0.004-0.684 0.202-0.986 0.403-0.28 0.186-0.57 0.377-0.837 0.374-0.25-0.003-0.491-0.155-0.771-0.332-0.327-0.206-0.697-0.439-1.158-0.445-0.502-0.006-0.87 0.254-1.165 0.463-0.231 0.165-0.431 0.307-0.689 0.339-0.076 0.011-0.34-0.066-0.669-0.36-0.415-0.37-0.855-1.025-0.845-1.75 0.021-1.572 0.293-3.050 0.809-4.392 0.141-0.366 0.216-0.773 0.258-1.208l8.572 0.114c0.010 0.128 0.024 0.255 0.042 0.379l0.191 6.645c0 0.005 0.001 0.011 0.001 0.016-0.058 0.062-0.117 0.12-0.176 0.171zM14.592 16.107c-0.17 0-0.334 0.069-0.452 0.191s-0.183 0.287-0.178 0.458l0.142 4.942c-0.006 0.233-0.012 0.462-0.013 0.687l-8.505-0.113c0.007-0.269 0.009-0.545 0.010-0.826 0.001-0.176 0.002-0.354 0.004-0.532 0.016-1.198-0.152-2.357-0.473-3.263-0.024-0.069-0.048-0.138-0.071-0.208-0.404-1.218-0.587-2.511-0.547-3.822l10.889 0.116c0.005 0.802-0.074 1.599-0.232 2.37h-0.572zM23.057 30.126c-0.008 0.338-0.224 0.613-0.482 0.613h-6.487c-0.256 0-0.472-0.273-0.482-0.608l-0.269-9.364h7.934zM23.29 20.009h-7.973l-0.076-2.64h8.109z"></path>
<path d="M17.748 24.062c-0.683 0-1.239-0.556-1.239-1.239s0.556-1.239 1.239-1.239c0.683 0 1.239 0.556 1.239 1.239s-0.556 1.239-1.239 1.239zM17.748 22.341c-0.266 0-0.482 0.216-0.482 0.482s0.216 0.482 0.482 0.482 0.482-0.216 0.482-0.482c-0-0.266-0.216-0.482-0.482-0.482z"></path>
<path d="M20.961 29.655c-0.683 0-1.239-0.556-1.239-1.239s0.556-1.239 1.239-1.239c0.683 0 1.239 0.556 1.239 1.239s-0.556 1.239-1.239 1.239zM20.961 27.933c-0.266 0-0.482 0.216-0.482 0.482s0.216 0.482 0.482 0.482 0.482-0.216 0.482-0.482-0.216-0.482-0.482-0.482z"></path>
<path d="M21.189 24.853c0.119 0.288-0.017 0.619-0.306 0.738s-0.619-0.017-0.738-0.306c-0.119-0.288 0.017-0.619 0.306-0.738s0.619 0.017 0.738 0.306z"></path>
<path d="M18.74 27.266c0 0.236-0.192 0.428-0.428 0.428s-0.428-0.192-0.428-0.428 0.192-0.428 0.428-0.428c0.236 0 0.428 0.192 0.428 0.428z"></path>
<path d="M21.787 22.048c0 0.236-0.192 0.428-0.428 0.428s-0.428-0.192-0.428-0.428 0.192-0.428 0.428-0.428c0.236 0 0.428 0.192 0.428 0.428z"></path>
</svg>
