<!-- Generated by IcoMoon.io -->
<svg version="1.1" xmlns="http://www.w3.org/2000/svg" width="32" height="32" viewBox="0 0 32 32">
<title>tea-pot</title>
<path d="M28.462 5.458l0.529 1.488c0.023 0.064 0.067 0.114 0.124 0.14l1.322 0.595c0.187 0.084 0.187 0.382 0 0.466l-1.322 0.595c-0.057 0.025-0.101 0.076-0.124 0.14l-0.529 1.488c-0.075 0.21-0.339 0.21-0.414 0l-0.529-1.488c-0.023-0.064-0.067-0.114-0.124-0.14l-1.322-0.595c-0.187-0.084-0.187-0.382 0-0.466l1.322-0.595c0.057-0.026 0.101-0.076 0.124-0.14l0.529-1.488c0.075-0.21 0.339-0.21 0.414 0z"></path>
<path d="M2.062 5.287c0.634 0.075 1.087 0.649 1.012 1.282s-0.649 1.087-1.282 1.012c-0.634-0.075-1.087-0.649-1.012-1.282s0.649-1.087 1.282-1.012z"></path>
<path d="M21.028 5.695c0 0.275-0.223 0.498-0.498 0.498s-0.498-0.223-0.498-0.498 0.223-0.498 0.498-0.498 0.498 0.223 0.498 0.498z"></path>
<path d="M8.939 0.216l0.392 1.103c0.017 0.047 0.050 0.085 0.092 0.104l0.98 0.442c0.139 0.062 0.139 0.283 0 0.346l-0.98 0.442c-0.042 0.019-0.075 0.056-0.092 0.104l-0.392 1.103c-0.055 0.156-0.252 0.156-0.307 0l-0.392-1.103c-0.017-0.047-0.050-0.085-0.092-0.104l-0.98-0.442c-0.138-0.062-0.138-0.283 0-0.345l0.98-0.442c0.042-0.019 0.075-0.056 0.092-0.104l0.392-1.103c0.055-0.156 0.252-0.156 0.307 0z"></path>
<path d="M31.982 23.969c0-0.015 0.002-0.029 0.002-0.044 0-0.774-0.452-1.491-1.328-2.132 0.388-0.596 0.604-1.298 0.604-2.029v-1.125c0-0.387-0.315-0.702-0.702-0.702h-7.046c-0.387 0-0.702 0.315-0.702 0.702v0.68c-1.085-0.152-2.227-0.268-3.409-0.343 0.127-0.323 0.241-0.648 0.34-0.971 0.409-0.295 0.727-0.815 0.9-1.505 0.132-0.525 0.449-0.961 0.893-1.227l2.663-1.594c0.149-0.089 0.254-0.235 0.291-0.405s0.002-0.346-0.096-0.489l-1.257-1.833c-0.171-0.25-0.497-0.342-0.774-0.218l-2.189 0.976c-0.318 0.142-0.677 0.239-1.071 0.291-0.127-0.16-0.265-0.312-0.414-0.457 0.044-0.143 0.061-0.28 0.061-0.406 0-0.57-0.35-1.375-2.019-1.97-0.512-0.183-1.101-0.326-1.738-0.428-0.071-1.229-1.093-2.207-2.339-2.207s-2.268 0.978-2.339 2.207c-0.637 0.102-1.226 0.245-1.738 0.428-1.669 0.595-2.019 1.4-2.019 1.97 0 0.125 0.017 0.262 0.061 0.406-0.043 0.042-0.085 0.084-0.126 0.127-0.751-0.325-1.501-0.495-2.214-0.495-1.436 0-2.664 0.65-3.552 1.88-0.63 0.873-0.861 1.984-0.649 3.129 0.288 1.555 1.382 3.086 2.926 4.096 0.207 0.135 0.42 0.257 0.637 0.367-2.34 0.881-3.567 2.002-3.567 3.28 0 0.043 0.002 0.086 0.005 0.128 0.013 0.529 0.225 1.205 0.467 1.973 0.118 0.374 0.229 0.727 0.266 0.932 0.263 1.446 1.948 2.692 4.871 3.602 2.773 0.864 6.448 1.34 10.346 1.34 3.868 0 7.521-0.481 10.287-1.354 1.994-0.63 4.466-1.756 4.922-3.546v-0c0.020-0.077 0.094-0.279 0.166-0.474 0.382-1.035 0.674-1.921 0.579-2.559zM24.064 19.193h5.939v0.571c0 0.816-0.403 1.578-1.078 2.039-0.423 0.289-0.715 0.718-0.828 1.197h-2.105c-0.088-0.473-0.364-0.888-0.774-1.147-0.722-0.456-1.154-1.236-1.154-2.089v-0.571zM24.644 22.998c0.077 0.088 0.123 0.208 0.123 0.334v0.221c0 0.387 0.315 0.702 0.702 0.702h1.020c-0.386 0.206-1.134 0.481-2.578 0.744-0.872 0.158-1.864 0.287-2.939 0.384 0.783-0.701 1.237-1.703 1.237-2.772v-0.014c0.605 0.073 1.175 0.158 1.701 0.254 0.268 0.049 0.511 0.098 0.733 0.147zM18.957 13.279c0.634-0.052 1.214-0.193 1.727-0.422l1.711-0.763 0.583 0.851-2.090 1.251c-0.732 0.438-1.253 1.148-1.466 1.999-0.106 0.423-0.263 0.656-0.38 0.761-0.051-0.272-0.058-0.772-0.063-1.129-0.004-0.287-0.008-0.584-0.024-0.891l-0.001-0.018c-0.035-0.653-0.073-1.385 0.002-1.639zM18.849 20.2c1.472 0.079 2.827 0.217 4.053 0.399 0.119 0.522 0.349 1.009 0.672 1.43-0.432-0.070-0.887-0.134-1.365-0.191v-0.426c0-0.347-0.281-0.628-0.628-0.628h-3.048c0.109-0.191 0.214-0.386 0.315-0.584zM15.015 22.611v-0.571h5.939v0.571c0 0.833-0.416 1.604-1.113 2.063-0.415 0.273-0.698 0.695-0.802 1.173h-2.093c-0.084-0.47-0.361-0.885-0.776-1.146-0.723-0.456-1.155-1.237-1.155-2.089zM15.244 25.587c-2.685-0.034-5.182-0.239-7.098-0.587-2.808-0.51-2.984-1.069-2.984-1.074s0.175-0.564 2.984-1.074c0.006-0.001 0.012-0.002 0.018-0.003 0.583 0.542 1.355 0.849 2.155 0.849h3.6c0.227 0.748 0.686 1.409 1.325 1.889zM12.652 7.788c0.6 0 1.088 0.488 1.088 1.088s-0.488 1.088-1.088 1.088c-0.6 0-1.088-0.488-1.088-1.088s0.488-1.088 1.088-1.088zM8.996 10.35c0.461-0.164 0.998-0.293 1.583-0.383 0.393 0.744 1.175 1.252 2.073 1.252s1.679-0.508 2.073-1.252c0.585 0.090 1.123 0.218 1.583 0.382 0.895 0.319 1.185 0.668 1.185 0.787s-0.29 0.468-1.185 0.787c-0.967 0.345-2.265 0.535-3.656 0.535s-2.689-0.19-3.656-0.535c-0.895-0.319-1.185-0.668-1.185-0.787s0.29-0.468 1.185-0.787zM7.408 12.531c0.289 0.203 0.668 0.399 1.166 0.576 1.099 0.392 2.547 0.607 4.078 0.607s2.979-0.216 4.078-0.607c0.498-0.178 0.878-0.374 1.167-0.577 0.006 0.006 0.011 0.012 0.017 0.018-0.314 0.512-0.272 1.309-0.213 2.435l0.001 0.018c0.015 0.282 0.019 0.567 0.023 0.841 0.013 0.965 0.023 1.728 0.487 2.161 0.052 0.049 0.109 0.091 0.168 0.127-0.332 0.93-0.792 1.863-1.32 2.653h-2.672c-0.347 0-0.628 0.281-0.628 0.628v1.029h-3.44c-0.535 0-1.048-0.227-1.41-0.622-1.372-1.501-2.531-4.428-2.531-6.392-0-1.22 0.339-2.175 1.030-2.896zM1.312 15.955c-0.149-0.804 0.004-1.573 0.432-2.165 0.651-0.902 1.504-1.359 2.535-1.359 0.462 0 0.953 0.099 1.456 0.287-0.105 0.199-0.197 0.408-0.275 0.625-0.401-0.148-0.785-0.223-1.149-0.223-0.808 0-1.503 0.371-2.010 1.072-0.321 0.444-0.429 1.011-0.313 1.637 0.19 1.027 0.987 2.109 2.079 2.823 0.583 0.381 1.252 0.616 1.921 0.688 0.097 0.24 0.2 0.478 0.31 0.711-0.913-0.022-1.812-0.305-2.607-0.825-1.263-0.825-2.152-2.049-2.378-3.273zM5.515 17.964c-0.265-0.085-0.523-0.206-0.762-0.362-0.802-0.524-1.403-1.31-1.531-2.001-0.036-0.196-0.049-0.472 0.096-0.673 0.272-0.376 0.587-0.551 0.992-0.551 0.253 0 0.545 0.070 0.861 0.204-0.033 0.272-0.049 0.554-0.049 0.846-0 0.776 0.143 1.651 0.393 2.537zM5.803 21.279c0.201 0.020 0.404 0.032 0.607 0.032 0.184 0 0.367-0.009 0.549-0.026 0.198 0.323 0.407 0.627 0.625 0.907-0.86 0.174-1.554 0.373-2.064 0.592-0.275 0.118-1.112 0.477-1.112 1.141s0.837 1.023 1.112 1.141c0.592 0.255 1.43 0.481 2.491 0.674 2.071 0.376 4.798 0.589 7.706 0.604v0.131c0 0.347 0.281 0.628 0.628 0.628h3.279c0.347 0 0.628-0.281 0.628-0.628v-0.222c0-0.019 0.002-0.037 0.003-0.055 1.401-0.102 2.689-0.256 3.791-0.456 1.061-0.193 1.898-0.419 2.491-0.674 0.225-0.097 0.826-0.356 1.037-0.811h1.025c0.387 0 0.702-0.315 0.702-0.702v-0.108c0-0.237 0.124-0.463 0.333-0.605 0.056-0.038 0.111-0.079 0.164-0.12 0.61 0.412 0.929 0.826 0.929 1.205 0 1.586-5.592 3.799-14.699 3.799s-14.699-2.213-14.699-3.799c0-0.848 1.598-1.873 4.474-2.646zM25.937 29.349c-2.646 0.836-6.165 1.296-9.908 1.296-3.775 0-7.317-0.456-9.973-1.283-2.344-0.73-3.843-1.713-4.009-2.628-0.017-0.091-0.041-0.192-0.069-0.301 0.782 0.456 1.798 0.867 3.039 1.226 2.95 0.852 6.861 1.321 11.012 1.321s8.062-0.469 11.012-1.321c1.256-0.363 2.281-0.78 3.066-1.242-0.038 0.108-0.068 0.199-0.087 0.274-0.237 0.932-1.764 1.926-4.083 2.658z"></path>
<path d="M8.827 19.172c-0.213 0-0.42-0.108-0.538-0.304-0.39-0.647-0.684-1.293-0.875-1.921-0.101-0.332 0.087-0.683 0.419-0.783s0.683 0.087 0.783 0.419c0.16 0.528 0.412 1.079 0.748 1.637 0.179 0.297 0.083 0.683-0.214 0.862-0.101 0.061-0.213 0.090-0.324 0.090z"></path>
<path d="M7.781 15.935c-0.343 0-0.624-0.277-0.628-0.621-0.005-0.472 0.054-0.851 0.186-1.192 0.125-0.323 0.489-0.484 0.812-0.359s0.484 0.489 0.359 0.812c-0.072 0.187-0.105 0.418-0.101 0.725 0.004 0.347-0.274 0.631-0.621 0.635-0.002 0-0.005 0-0.007 0z"></path>
<path d="M15.563 19.822c-0.208 0-0.377-0.169-0.377-0.377v-0.77c0-0.208 0.169-0.377 0.377-0.377s0.377 0.169 0.377 0.377v0.77c0 0.208-0.169 0.377-0.377 0.377z"></path>
<path d="M13.359 19.398c-0.208 0-0.377-0.169-0.377-0.377v-0.77c0-0.208 0.169-0.377 0.377-0.377s0.377 0.169 0.377 0.377v0.77c0 0.208-0.169 0.377-0.377 0.377z"></path>
<path d="M15.848 16.584c-0.208 0-0.377-0.169-0.377-0.377v-0.771c0-0.208 0.169-0.377 0.377-0.377s0.377 0.169 0.377 0.377v0.771c0 0.208-0.169 0.377-0.377 0.377z"></path>
</svg>
