<!-- Generated by IcoMoon.io -->
<svg version="1.1" xmlns="http://www.w3.org/2000/svg" width="32" height="32" viewBox="0 0 32 32">
<title>water</title>
<path d="M6.318 2.739l0.514 1.445c0.022 0.062 0.066 0.111 0.121 0.136l1.284 0.579c0.181 0.082 0.181 0.371 0 0.452l-1.284 0.579c-0.055 0.025-0.099 0.074-0.121 0.136l-0.514 1.445c-0.073 0.204-0.329 0.204-0.402 0l-0.514-1.445c-0.022-0.062-0.066-0.111-0.121-0.136l-1.284-0.579c-0.181-0.082-0.181-0.371 0-0.452l1.284-0.579c0.055-0.025 0.099-0.074 0.121-0.136l0.514-1.445c0.073-0.204 0.329-0.204 0.402 0z"></path>
<path d="M27.128 7.711c0 0.62-0.503 1.122-1.122 1.122s-1.122-0.502-1.122-1.122c0-0.62 0.503-1.122 1.122-1.122s1.122 0.502 1.122 1.122z"></path>
<path d="M3.401 12.758c0 0.267-0.217 0.484-0.484 0.484s-0.484-0.217-0.484-0.484c0-0.267 0.217-0.484 0.484-0.484s0.484 0.217 0.484 0.484z"></path>
<path d="M28.044 16.371l0.381 1.072c0.016 0.046 0.049 0.082 0.089 0.101l0.953 0.429c0.135 0.061 0.135 0.275 0 0.336l-0.953 0.429c-0.041 0.018-0.073 0.055-0.089 0.101l-0.381 1.072c-0.054 0.151-0.244 0.151-0.298 0l-0.381-1.072c-0.016-0.046-0.049-0.082-0.089-0.101l-0.953-0.429c-0.135-0.061-0.135-0.275 0-0.336l0.953-0.429c0.041-0.018 0.073-0.055 0.089-0.101l0.381-1.072c0.054-0.151 0.244-0.151 0.298 0z"></path>
<path d="M18.702 22.816h-5.972c-0.207 0-0.375-0.168-0.375-0.375s0.168-0.375 0.375-0.375h5.972c0.207 0 0.375 0.168 0.375 0.375s-0.168 0.375-0.375 0.375z"></path>
<path d="M18.702 20.626h-5.972c-0.207 0-0.375-0.168-0.375-0.375s0.168-0.375 0.375-0.375h5.972c0.207 0 0.375 0.168 0.375 0.375s-0.168 0.375-0.375 0.375z"></path>
<path d="M18.702 25.006h-5.972c-0.207 0-0.375-0.168-0.375-0.375s0.168-0.375 0.375-0.375h5.972c0.207 0 0.375 0.168 0.375 0.375s-0.168 0.375-0.375 0.375z"></path>
<path d="M12.887 16.306c-1.083 0-1.963-0.881-1.963-1.963 0-1.58 1.192-2.51 1.557-2.757 0.319-0.216 0.76-0.449 1.052-0.332 0.255 0.102 0.304 0.357 0.384 0.779 0.047 0.246 0.111 0.582 0.205 0.752 0.026 0.046 0.084 0.125 0.145 0.209 0.233 0.317 0.585 0.795 0.585 1.35 0 1.083-0.881 1.963-1.963 1.963zM13.156 12.055c-0.477 0.248-1.481 1.029-1.481 2.288 0 0.669 0.544 1.213 1.213 1.213s1.213-0.544 1.213-1.213c0-0.308-0.254-0.653-0.439-0.905-0.079-0.108-0.147-0.201-0.196-0.289-0.153-0.276-0.227-0.664-0.286-0.977-0.007-0.037-0.015-0.077-0.023-0.117z"></path>
<path d="M21.551 22.078c0.003-0.198 0.006-0.403 0.006-0.614 0-0.986 0.165-1.923 0.465-2.639 0.031-0.073 0.060-0.146 0.089-0.22 0.823-2.093 0.948-4.386 0.361-6.632-0.584-2.235-1.72-5.153-3.838-6.647v-1.654c0.295-0.202 0.49-0.542 0.49-0.926v-1.285c0-0.805-0.655-1.46-1.46-1.46h-3.899c-0.805 0-1.46 0.655-1.46 1.46v1.285c0 0.384 0.194 0.724 0.49 0.926v1.557c-2.196 1.456-3.353 4.44-3.941 6.739-0.577 2.256-0.449 4.551 0.372 6.637 0.029 0.074 0.059 0.147 0.089 0.22 0.3 0.716 0.465 1.653 0.465 2.639 0 0.173 0.002 0.345 0.003 0.516 0.008 0.856 0.016 1.664-0.204 2.189-0.596 1.423-0.898 2.979-0.898 4.624 0 0.865 0.438 1.748 1.203 2.424 0.565 0.499 1.205 0.782 1.752 0.782 0.062 0 0.122-0.004 0.181-0.011 0.587-0.073 0.984-0.329 1.304-0.535 0.237-0.152 0.377-0.239 0.507-0.239 0.147 0 0.368 0.119 0.602 0.245 0.387 0.208 0.868 0.467 1.485 0.467 0.672 0 1.209-0.323 1.601-0.559 0.119-0.072 0.279-0.168 0.357-0.196 0.073 0.023 0.227 0.108 0.343 0.172 0.353 0.197 0.837 0.467 1.499 0.532 0.612 0.061 1.347-0.238 1.967-0.8 0.733-0.664 1.153-1.538 1.153-2.397 0-1.645-0.302-3.201-0.898-4.624-0.209-0.499-0.198-1.184-0.186-1.977zM21.378 16.665h-5.528l1.246-1.667 1.012 0.821c0.083 0.068 0.191 0.096 0.297 0.079s0.199-0.079 0.256-0.17l1.486-2.347 1.384 1.123c0.014 0.012 0.030 0.022 0.045 0.031 0.016 0.719-0.048 1.435-0.191 2.131-0.003 0-0.005-0-0.008-0zM10.066 12.278c0.105-0.409 0.243-0.892 0.419-1.408h10.346c0.181 0.521 0.324 1.009 0.431 1.419 0.105 0.403 0.184 0.811 0.237 1.221l-1.206-0.979c-0.083-0.068-0.191-0.097-0.297-0.079s-0.199 0.079-0.256 0.17l-1.486 2.347-0.987-0.801c-0.079-0.064-0.181-0.094-0.283-0.081s-0.193 0.066-0.254 0.148l-1.816 2.429h-4.965c-0.297-1.42-0.259-2.912 0.118-4.387zM13.556 1.46c0-0.115 0.094-0.209 0.209-0.209h3.899c0.115 0 0.209 0.094 0.209 0.209v1.156h-4.316v-1.156zM13.73 6.121l0.316-0.18v-1.795h3.337v1.867l0.298 0.183c1.343 0.826 2.264 2.428 2.868 3.924h-9.787c0.614-1.543 1.562-3.197 2.968-3.998zM20.641 30.149c-0.397 0.36-0.799 0.502-1.004 0.482-0.403-0.040-0.713-0.213-1.013-0.38-0.295-0.165-0.601-0.335-0.96-0.335-0.364 0-0.671 0.184-0.995 0.38-0.31 0.187-0.631 0.38-0.955 0.38-0.302 0-0.588-0.154-0.892-0.318-0.343-0.185-0.732-0.394-1.195-0.394-0.505 0-0.866 0.233-1.185 0.438-0.256 0.165-0.477 0.307-0.78 0.345-0.144 0.018-0.528-0.093-0.95-0.467-0.488-0.432-0.78-0.987-0.78-1.486 0-1.478 0.27-2.872 0.801-4.141 0.32-0.763 0.311-1.697 0.301-2.685-0.002-0.166-0.003-0.335-0.003-0.504 0-1.148-0.2-2.257-0.562-3.123-0.027-0.065-0.053-0.13-0.079-0.195-0.095-0.241-0.179-0.484-0.252-0.731h11.060c-0.073 0.247-0.157 0.491-0.251 0.73-0.026 0.065-0.052 0.13-0.079 0.195-0.363 0.866-0.562 1.975-0.562 3.123 0 0.202-0.003 0.401-0.006 0.595-0.014 0.895-0.027 1.74 0.283 2.48 0.532 1.269 0.801 2.662 0.801 4.141-0 0.499-0.277 1.049-0.742 1.47z"></path>
<path d="M12.516 10.023c-0.066 0-0.132-0.010-0.198-0.032-0.328-0.109-0.505-0.464-0.396-0.791 0.13-0.392 0.514-1.026 0.905-1.368 0.26-0.228 0.655-0.201 0.883 0.059s0.201 0.655-0.059 0.883c-0.194 0.17-0.47 0.607-0.541 0.822-0.087 0.262-0.332 0.428-0.594 0.428z"></path>
<path d="M14.361 7.892c-0.221 0-0.436-0.118-0.55-0.326-0.166-0.303-0.054-0.683 0.249-0.849 0.073-0.040 0.147-0.076 0.219-0.108 0.316-0.139 0.686 0.005 0.824 0.321s-0.005 0.686-0.321 0.825c-0.040 0.017-0.081 0.038-0.122 0.060-0.095 0.052-0.198 0.077-0.3 0.077z"></path>
</svg>
