<!-- Generated by IcoMoon.io -->
<svg version="1.1" xmlns="http://www.w3.org/2000/svg" width="32" height="32" viewBox="0 0 32 32">
<title>buy</title>
<path fill="#ffbdbc" d="M25.353 11.751v10.547h-18.706v-10.547z"></path>
<path fill="#020288" d="M31.375 24.246h-0.633v-20.087c0-1.229-1-2.229-2.229-2.229h-25.027c-1.229 0-2.229 1-2.229 2.229v20.087h-0.633c-0.345 0-0.625 0.28-0.625 0.625v2.338c0 1.577 1.283 2.86 2.86 2.86h26.28c1.577 0 2.86-1.283 2.86-2.86v-2.338c0-0.345-0.28-0.625-0.625-0.625zM29.492 4.16v2.315c0 0.953-0.775 1.728-1.728 1.728s-1.728-0.775-1.728-1.728v-3.293h2.477c0.54 0 0.979 0.439 0.979 0.979zM24.787 6.474c0 0.953-0.775 1.728-1.728 1.728s-1.728-0.775-1.728-1.728v-3.293h3.456zM20.081 6.474c0 0.953-0.775 1.728-1.728 1.728s-1.728-0.775-1.728-1.728v-3.293h3.456zM15.375 6.474c0 0.953-0.775 1.728-1.728 1.728s-1.728-0.775-1.728-1.728v-3.293h3.456zM10.669 6.474c0 0.953-0.775 1.728-1.728 1.728s-1.728-0.775-1.728-1.728v-3.293h3.456zM2.508 4.16c0-0.54 0.439-0.979 0.979-0.979h2.477v3.293c0 0.953-0.775 1.728-1.728 1.728s-1.728-0.775-1.728-1.728zM2.508 8.898c0.488 0.349 1.084 0.554 1.728 0.554 0.956 0 1.808-0.453 2.353-1.155 0.545 0.702 1.397 1.155 2.353 1.155s1.808-0.453 2.353-1.155c0.545 0.702 1.397 1.155 2.353 1.155s1.808-0.453 2.353-1.155c0.545 0.702 1.397 1.155 2.353 1.155s1.808-0.453 2.353-1.155c0.545 0.702 1.397 1.155 2.353 1.155s1.808-0.453 2.353-1.155c0.545 0.702 1.397 1.155 2.353 1.155 0.644 0 1.24-0.205 1.728-0.554v15.348h-6.79c-0.345 0-0.625 0.28-0.625 0.625v0.783h-12.154v-0.783c0-0.345-0.28-0.625-0.625-0.625h-6.79zM30.75 27.209c0 0.888-0.722 1.61-1.61 1.61h-26.28c-0.888-0-1.61-0.722-1.61-1.61v-1.713h7.423v0.783c0 0.345 0.28 0.625 0.625 0.625h13.404c0.345 0 0.625-0.28 0.625-0.625v-0.783h7.423z"></path>
<path fill="#020288" d="M10.916 19.294h0.003c0 0 0.936-0.004 1.194-0.004 0.865 0 1.57-0.704 1.57-1.57 0-0.435-0.178-0.83-0.465-1.114 0.096-0.192 0.15-0.409 0.15-0.639 0-0.79-0.643-1.432-1.432-1.432h-1.019c-0.345 0-0.625 0.28-0.625 0.625v3.509c0 0.166 0.066 0.326 0.184 0.443s0.276 0.182 0.441 0.182zM12.114 18.040c-0.11 0-0.341 0.001-0.572 0.002v-0.641c0.006 0 0.012-0 0.019-0h0.554c0.176 0 0.32 0.143 0.32 0.32s-0.143 0.32-0.32 0.32zM11.936 15.785c0.101 0 0.182 0.082 0.182 0.182s-0.082 0.182-0.182 0.182c-0.076 0-0.22 0-0.377 0.001h-0.017v-0.366z"></path>
<path fill="#020288" d="M19.347 17.062l-0.004 1.606c-0.001 0.345 0.278 0.626 0.623 0.627h0.002c0.344 0 0.624-0.279 0.625-0.623l0.004-1.608 1.011-1.553c0.188-0.289 0.106-0.676-0.183-0.865s-0.677-0.107-0.865 0.183l-0.589 0.904-0.597-0.914c-0.189-0.289-0.576-0.37-0.865-0.182s-0.37 0.576-0.182 0.865z"></path>
<path fill="#020288" d="M15.073 19.010c0.293 0.188 0.624 0.283 0.983 0.283h0.003c0.307 0 0.596-0.067 0.859-0.199 0.648-0.326 1.005-0.867 1.005-1.523v-2.412c0-0.345-0.28-0.625-0.625-0.625s-0.625 0.28-0.625 0.625v2.412c0 0.092 0 0.246-0.317 0.406-0.088 0.044-0.185 0.066-0.297 0.066h-0.001c-0.118-0-0.22-0.029-0.311-0.087-0.242-0.155-0.262-0.265-0.262-0.383v-2.415c0-0.345-0.28-0.625-0.625-0.625s-0.625 0.28-0.625 0.625v2.415c0 0.597 0.282 1.081 0.839 1.436z"></path>
</svg>
