<!-- Generated by IcoMoon.io -->
<svg version="1.1" xmlns="http://www.w3.org/2000/svg" width="32" height="32" viewBox="0 0 32 32">
<title>buy1</title>
<path fill="#fff59b" d="M14.911 13.474h-6.487c-2.784 0-5.049-2.265-5.049-5.049s2.265-5.049 5.049-5.049h15.151c2.784 0 5.049 2.265 5.049 5.049s-2.265 5.049-5.049 5.049h-6.278z"></path>
<path fill="#020288" d="M32 8.424c0-4.645-3.779-8.424-8.424-8.424h-15.151c-4.645 0-8.424 3.779-8.424 8.424s3.779 8.424 8.424 8.424h5.723l0.005 5.084h-2.033c-1.25 0-2.267 1.017-2.267 2.267s1.017 2.267 2.267 2.267h1.574c0.014 0 0.026 0 0.035 0.001 0.039 0.104 0.067 0.347 0.087 0.514 0.066 0.564 0.157 1.337 0.759 1.971 0.57 0.6 1.471 0.934 2.743 1.013v1.408c0 0.345 0.28 0.625 0.625 0.625h4.011c0.345 0 0.625-0.28 0.625-0.625v-1.363c2.43-0.365 3.662-1.391 3.662-3.056v-6.005c0-0.036-0.001-0.071-0.003-0.106-0.055-1.037-0.898-1.872-1.921-1.901-0.544-0.015-1.043 0.189-1.411 0.534-0.369-0.346-0.847-0.535-1.354-0.535-0.52 0-0.999 0.205-1.355 0.54-0.356-0.335-0.834-0.54-1.354-0.54-0.26 0-0.51 0.051-0.739 0.144-0-0.901-0-1.637-0-2.238h5.474c4.645 0 8.424-3.779 8.424-8.424zM18.114 20.866c0.028-0.378 0.347-0.673 0.727-0.673s0.699 0.296 0.726 0.673c0.024 0.327 0.296 0.579 0.623 0.579h0.009c0.327 0 0.599-0.253 0.623-0.579 0.028-0.378 0.347-0.673 0.727-0.673 0.195 0 0.378 0.076 0.515 0.213 0.124 0.124 0.199 0.287 0.211 0.46 0.024 0.327 0.296 0.579 0.623 0.579h0.009c0.328 0 0.6-0.253 0.623-0.579 0.028-0.388 0.358-0.684 0.747-0.673 0.376 0.011 0.687 0.326 0.708 0.718 0 0 0 0.001 0 0.001 0.001 0.013 0.001 0.026 0.001 0.039v6.005c0 0.428 0 1.566-3.1 1.883-0.319 0.033-0.561 0.301-0.561 0.622v1.29h-2.761v-1.39c0-0.345-0.28-0.625-0.625-0.625-1.229 0-2.057-0.216-2.462-0.642-0.316-0.332-0.368-0.781-0.424-1.256-0.041-0.349-0.080-0.679-0.232-0.973-0.153-0.295-0.474-0.647-1.132-0.647h-1.574c-0.561 0-1.017-0.456-1.017-1.017s0.456-1.017 1.017-1.017h2.658c0.166 0 0.325-0.066 0.442-0.183s0.183-0.276 0.183-0.442l-0.008-8.345c0-0.002 0-0.004 0-0.006 0.014-0.39 0.338-0.7 0.728-0.7 0.007 0 0.014 0 0.021 0 0.372 0.010 0.68 0.319 0.707 0.705 0.001 0.279 0.002 4.391 0.002 6.571 0 0.021 0.001 0.042 0.003 0.064 0.001 0.011 0.002 0.021 0.004 0.032 0.030 0.319 0.298 0.566 0.622 0.566h0.009c0.327-0 0.599-0.253 0.623-0.579zM18.1 14.16c-0.053-1.038-0.897-1.873-1.92-1.902-1.073-0.030-1.983 0.812-2.033 1.882-0.001 0.017-0.002 0.035-0.002 0.053l0.001 1.406h-5.721c-3.956 0-7.174-3.218-7.174-7.174s3.218-7.174 7.174-7.174h15.151c3.956 0 7.174 3.218 7.174 7.174s-3.218 7.174-7.174 7.174h-5.474c-0-1.414-0.001-1.426-0.002-1.439z"></path>
<path fill="#020288" d="M13.218 8.116c0.096-0.192 0.15-0.409 0.15-0.638 0-0.79-0.643-1.433-1.432-1.433h-1.019c-0.345 0-0.625 0.28-0.625 0.625v3.509c0 0.166 0.066 0.326 0.184 0.443s0.276 0.182 0.441 0.182h0.003c0 0 0.936-0.004 1.194-0.004 0.865 0 1.57-0.704 1.57-1.57 0-0.435-0.178-0.83-0.465-1.114zM11.936 7.295c0.101 0 0.182 0.082 0.182 0.183s-0.082 0.182-0.182 0.182c-0.075 0-0.215 0-0.368 0.001h-0.026v-0.366zM12.114 9.55c-0.11 0-0.341 0.001-0.572 0.002v-0.641c0.009-0 0.018-0 0.027-0h0.545c0.176 0 0.32 0.143 0.32 0.32s-0.143 0.319-0.32 0.319z"></path>
<path fill="#020288" d="M21.425 6.155c-0.289-0.188-0.676-0.106-0.865 0.183l-0.589 0.904-0.597-0.914c-0.189-0.289-0.576-0.37-0.865-0.182s-0.37 0.576-0.182 0.865l1.019 1.56-0.004 1.606c-0.001 0.345 0.278 0.626 0.623 0.627h0.002c0.344 0 0.624-0.279 0.625-0.623l0.004-1.608 1.011-1.553c0.188-0.289 0.107-0.676-0.183-0.865z"></path>
<path fill="#020288" d="M17.297 6.045c-0.345 0-0.625 0.28-0.625 0.625v2.412c0 0.092 0 0.246-0.318 0.406-0.088 0.044-0.185 0.066-0.296 0.066h-0.001c-0.118-0-0.22-0.028-0.311-0.087-0.242-0.155-0.262-0.265-0.262-0.383v-2.415c0-0.345-0.28-0.625-0.625-0.625s-0.625 0.28-0.625 0.625v2.415c0 0.597 0.282 1.080 0.839 1.436 0.293 0.187 0.624 0.283 0.983 0.283h0.003c0.307 0 0.596-0.067 0.859-0.199 0.648-0.326 1.005-0.867 1.005-1.523v-2.412c0-0.345-0.28-0.625-0.625-0.625z"></path>
</svg>
