<!-- Generated by IcoMoon.io -->
<svg version="1.1" xmlns="http://www.w3.org/2000/svg" width="32" height="32" viewBox="0 0 32 32">
<title>calendar</title>
<path fill="#ffbdbc" d="M23.882 18.928c0 0.581-0.615 1.085-0.738 1.628-0.128 0.561 0.204 1.281-0.041 1.787-0.249 0.515-1.022 0.703-1.375 1.145-0.355 0.444-0.368 1.238-0.813 1.593-0.443 0.353-1.22 0.19-1.736 0.439-0.507 0.244-0.863 0.955-1.425 1.082-0.544 0.123-1.172-0.36-1.754-0.36s-1.21 0.483-1.754 0.36c-0.562-0.128-0.918-0.838-1.425-1.083-0.515-0.248-1.293-0.086-1.736-0.439-0.445-0.355-0.458-1.149-0.813-1.593-0.354-0.442-1.127-0.63-1.375-1.145-0.245-0.506 0.087-1.226-0.040-1.787-0.124-0.543-0.739-1.047-0.739-1.628s0.615-1.085 0.739-1.628c0.128-0.561-0.204-1.281 0.040-1.787 0.249-0.515 1.022-0.703 1.375-1.145 0.355-0.444 0.368-1.238 0.813-1.593 0.443-0.353 1.22-0.19 1.736-0.439 0.507-0.244 0.863-0.955 1.425-1.082 0.544-0.124 1.172 0.36 1.754 0.36s1.21-0.483 1.754-0.36c0.562 0.128 0.918 0.838 1.425 1.083 0.515 0.248 1.293 0.086 1.736 0.439 0.445 0.355 0.458 1.149 0.813 1.593 0.354 0.442 1.127 0.63 1.375 1.145 0.245 0.506-0.087 1.226 0.041 1.787 0.124 0.544 0.738 1.048 0.738 1.628z"></path>
<path fill="#020288" d="M29.706 4.014h-1.733c-0.006-1.189-0.975-2.155-2.165-2.155s-2.16 0.966-2.165 2.155h-5.477c-0.006-1.189-0.975-2.155-2.165-2.155s-2.16 0.966-2.165 2.155h-5.477c-0.005-1.189-0.975-2.155-2.165-2.155s-2.16 0.966-2.165 2.155h-1.734c-1.265 0-2.294 1.031-2.294 2.299v21.926c0 1.049 0.85 1.902 1.895 1.902h28.21c1.045 0 1.895-0.853 1.895-1.902v-21.926c0-1.268-1.029-2.299-2.294-2.299zM25.807 3.109c0.501 0 0.91 0.405 0.915 0.905h-1.83c0.006-0.5 0.414-0.905 0.915-0.905zM16 3.109c0.501 0 0.91 0.405 0.915 0.905h-1.83c0.005-0.5 0.414-0.905 0.915-0.905zM6.193 3.109c0.501 0 0.91 0.405 0.915 0.905h-1.83c0.005-0.5 0.414-0.905 0.915-0.905zM1.25 6.313c0-0.578 0.468-1.049 1.044-1.049h4.512c-0.162 0.147-0.377 0.236-0.613 0.236-0.345 0-0.625 0.28-0.625 0.625s0.28 0.625 0.625 0.625c0.957 0 1.771-0.624 2.056-1.486h8.364c-0.162 0.147-0.377 0.236-0.613 0.236-0.345 0-0.625 0.28-0.625 0.625s0.28 0.625 0.625 0.625c0.957 0 1.771-0.624 2.056-1.486h8.364c-0.162 0.147-0.377 0.236-0.613 0.236-0.345 0-0.625 0.28-0.625 0.625s0.28 0.625 0.625 0.625c0.957 0 1.771-0.624 2.056-1.486h1.843c0.576 0 1.044 0.471 1.044 1.049v1.402h-29.5zM30.75 28.239c0 0.36-0.289 0.652-0.645 0.652h-28.21c-0.356 0-0.645-0.293-0.645-0.652v-19.274h29.5z"></path>
<path fill="#020288" d="M14.242 23.165c0.079 0.033 0.161 0.049 0.241 0.049 0.244 0 0.476-0.144 0.577-0.384l3.134-7.482c0.133-0.318-0.017-0.685-0.335-0.818s-0.685 0.017-0.818 0.335l-3.134 7.482c-0.133 0.318 0.017 0.685 0.335 0.818z"></path>
<path fill="#020288" d="M13.884 18.608c1.108 0 2.010-1.004 2.010-2.237s-0.902-2.237-2.010-2.237-2.010 1.004-2.010 2.237 0.902 2.237 2.010 2.237zM13.884 15.383c0.412 0 0.76 0.452 0.76 0.987s-0.348 0.987-0.76 0.987-0.76-0.452-0.76-0.987 0.348-0.987 0.76-0.987z"></path>
<path fill="#020288" d="M16.107 21.486c0 1.234 0.902 2.237 2.010 2.237s2.010-1.004 2.010-2.237-0.902-2.237-2.010-2.237-2.010 1.003-2.010 2.237zM18.876 21.486c0 0.535-0.348 0.987-0.76 0.987s-0.76-0.452-0.76-0.987c0-0.535 0.348-0.987 0.76-0.987s0.76 0.452 0.76 0.987z"></path>
</svg>
