<!-- Generated by IcoMoon.io -->
<svg version="1.1" xmlns="http://www.w3.org/2000/svg" width="32" height="32" viewBox="0 0 32 32">
<title>credit-card</title>
<path fill="#a4fcc4" d="M30.343 8.714h-2.014v13.54c0 0.915-0.742 1.657-1.657 1.657h-22.377v2.345c0 0.915 0.742 1.657 1.657 1.657h24.391c0.915 0 1.657-0.742 1.657-1.657v-15.885c-0-0.915-0.742-1.657-1.657-1.657z"></path>
<path fill="#020288" d="M26.673 4.087h-24.391c-1.258 0-2.282 1.024-2.282 2.282v15.885c0 1.258 1.024 2.282 2.282 2.282h24.391c1.258 0 2.282-1.024 2.282-2.282v-15.885c-0-1.258-1.024-2.282-2.282-2.282zM2.282 5.337h24.391c0.569 0 1.032 0.463 1.032 1.032v1.978h-26.454v-1.978c0-0.569 0.463-1.032 1.032-1.032zM27.704 12.1h-26.454v-2.503h26.454zM26.673 23.286h-24.391c-0.569 0-1.032-0.463-1.032-1.032v-8.904h26.454v8.904c0 0.569-0.463 1.032-1.032 1.032z"></path>
<path fill="#020288" d="M6.747 17.36h-3.041c-0.345 0-0.625 0.28-0.625 0.625v3.009c0 0.345 0.28 0.625 0.625 0.625h3.041c0.345 0 0.625-0.28 0.625-0.625v-3.009c0-0.345-0.28-0.625-0.625-0.625zM6.122 20.369h-1.791v-1.759h1.791z"></path>
<path fill="#020288" d="M12.688 17.36h-3.041c-0.345 0-0.625 0.28-0.625 0.625v3.009c0 0.345 0.28 0.625 0.625 0.625h3.041c0.345 0 0.625-0.28 0.625-0.625v-3.009c0-0.345-0.28-0.625-0.625-0.625zM12.063 20.369h-1.791v-1.759h1.791z"></path>
<path fill="#020288" d="M18.724 17.36h-3.041c-0.345 0-0.625 0.28-0.625 0.625v3.009c0 0.345 0.28 0.625 0.625 0.625h3.041c0.345 0 0.625-0.28 0.625-0.625v-3.009c0-0.345-0.28-0.625-0.625-0.625zM18.099 20.369h-1.791v-1.759h1.791z"></path>
<path fill="#020288" d="M25.248 17.36h-3.041c-0.345 0-0.625 0.28-0.625 0.625v3.009c0 0.345 0.28 0.625 0.625 0.625h3.041c0.345 0 0.625-0.28 0.625-0.625v-3.009c0-0.345-0.28-0.625-0.625-0.625zM24.623 20.369h-1.791v-1.759h1.791z"></path>
</svg>
