<!-- Generated by IcoMoon.io -->
<svg version="1.1" xmlns="http://www.w3.org/2000/svg" width="32" height="32" viewBox="0 0 32 32">
<title>dollar</title>
<path fill="#a4fcc4" d="M5.143 9.573c-0.055 0.212-0.162 0.401-0.321 0.559s-0.345 0.267-0.556 0.321l-0.937 0.243 0.002 10.605 0.934 0.244c0.431 0.113 0.769 0.452 0.882 0.885l0.243 0.936h10.606c-4.066-0.003-7.361-3.3-7.361-7.366 0-4.068 3.298-7.366 7.366-7.366h-10.615z"></path>
<path fill="#a4fcc4" d="M28.669 10.699l-0.933-0.244c-0.431-0.113-0.769-0.452-0.882-0.885l-0.243-0.936h-10.61c4.068 0 7.366 3.298 7.366 7.366 0 4.067-3.295 7.364-7.361 7.366h10.611l0.241-0.939c0.055-0.212 0.163-0.401 0.321-0.559s0.345-0.267 0.556-0.321l0.937-0.243z"></path>
<path fill="#020288" d="M31.995 7.444c-0-1.183-0.961-2.146-2.142-2.146l-27.713-0.003c-0.572 0-1.11 0.223-1.514 0.629s-0.626 0.944-0.626 1.517l0.005 17.117c0 1.183 0.961 2.146 2.142 2.146l27.713 0.003c0.572 0 1.11-0.223 1.514-0.629s0.626-0.944 0.626-1.517zM30.489 25.194c-0.168 0.169-0.391 0.261-0.629 0.261l-27.713-0.003c-0.492-0-0.892-0.402-0.892-0.897l-0.005-17.117c-0-0.24 0.093-0.465 0.261-0.634s0.391-0.261 0.629-0.261l27.713 0.003c0.492 0 0.892 0.402 0.892 0.897l0.005 17.117c0 0.24-0.093 0.465-0.261 0.634z"></path>
<path fill="#020288" d="M16 8.009c-4.406 0-7.991 3.585-7.991 7.991s3.585 7.991 7.991 7.991 7.991-3.585 7.991-7.991-3.585-7.991-7.991-7.991zM16 22.741c-3.717 0-6.741-3.024-6.741-6.741s3.024-6.741 6.741-6.741 6.741 3.024 6.741 6.741-3.024 6.741-6.741 6.741z"></path>
<path fill="#020288" d="M16.738 15.482c-0.066-0.023-0.129-0.046-0.191-0.068v-1.503c0.121 0.055 0.207 0.125 0.254 0.193 0.198 0.283 0.588 0.351 0.871 0.153s0.351-0.588 0.153-0.871c-0.252-0.358-0.698-0.661-1.277-0.775v-0.033c0-0.345-0.28-0.625-0.625-0.625s-0.625 0.28-0.625 0.625v0.077c-0.059 0.014-0.118 0.031-0.178 0.049-0.702 0.211-1.232 0.892-1.288 1.655-0.056 0.757 0.345 1.413 1.074 1.757 0.089 0.042 0.224 0.098 0.393 0.165v1.845c-0.207-0.078-0.391-0.192-0.518-0.349-0.217-0.269-0.61-0.311-0.879-0.095s-0.311 0.61-0.095 0.879c0.384 0.477 0.941 0.741 1.491 0.863 0.001 0.344 0.28 0.623 0.625 0.623 0.329 0 0.599-0.254 0.623-0.577 0.974-0.156 1.66-0.791 1.771-1.661 0.127-0.997-0.523-1.954-1.578-2.327zM15.078 14.452c0.013-0.173 0.099-0.339 0.22-0.446v0.898c-0.16-0.115-0.234-0.267-0.22-0.452zM17.077 17.651c-0.033 0.258-0.221 0.447-0.529 0.54v-1.429c0.41 0.23 0.565 0.603 0.529 0.889z"></path>
</svg>
