<!-- Generated by IcoMoon.io -->
<svg version="1.1" xmlns="http://www.w3.org/2000/svg" width="32" height="32" viewBox="0 0 32 32">
<title>download</title>
<path fill="#e2c4ff" d="M10.637 14.785l5.363 7.126 5.363-7.126h-2.986v-5.376h-4.754v5.376z"></path>
<path fill="#020288" d="M23.52 0h-15.040c-1.664 0-3.018 1.349-3.018 3.006v25.982c0 1.661 1.351 3.012 3.012 3.012h15.052c1.661 0 3.012-1.351 3.012-3.012v-25.982c0-1.658-1.354-3.006-3.018-3.006zM6.712 3.006c0-0.969 0.793-1.756 1.768-1.756h15.040c0.975 0 1.768 0.788 1.768 1.756v22.754h-18.576zM25.288 28.988c0 0.972-0.79 1.762-1.762 1.762h-15.052c-0.972 0-1.762-0.79-1.762-1.762v-1.977h18.576v1.977z"></path>
<path fill="#020288" d="M15.583 29.505h0.833c0.345 0 0.625-0.28 0.625-0.625s-0.28-0.625-0.625-0.625h-0.833c-0.345 0-0.625 0.28-0.625 0.625s0.28 0.625 0.625 0.625z"></path>
<path fill="#020288" d="M18.968 2.472h-5.936c-0.345 0-0.625 0.28-0.625 0.625s0.28 0.625 0.625 0.625h5.936c0.345 0 0.625-0.28 0.625-0.625s-0.28-0.625-0.625-0.625z"></path>
</svg>
