<!-- Generated by IcoMoon.io -->
<svg version="1.1" xmlns="http://www.w3.org/2000/svg" width="32" height="32" viewBox="0 0 32 32">
<title>gift-card</title>
<path fill="#a4fcc4" d="M11.589 16.176c1.589 0.316 2.62 1.862 2.304 3.454s-1.861 2.626-3.45 2.311c-1.589-0.316-2.62-1.862-2.304-3.454s1.861-2.626 3.45-2.311z"></path>
<path fill="#a4fcc4" d="M7.582 22.97c0.885-0.547 1.096-1.114 1.649-1.575-0.7-0.537-1.151-1.383-1.151-2.334 0-0.957 0.458-1.808 1.165-2.345-0.564-0.465-0.777-1.032-1.673-1.577-1.541-0.937-3.512 0.177-3.513 1.986l-0.001 1.701-0.001 2.169c-0.001 1.816 1.983 2.928 3.524 1.976z"></path>
<path fill="#a4fcc4" d="M13.945 19.059c-0 0.957-0.458 1.808-1.165 2.345 0.564 0.465 0.777 1.032 1.673 1.577 1.541 0.937 3.512-0.177 3.513-1.986l0.001-1.701 0.001-2.169c0.001-1.816-1.983-2.928-3.524-1.976-0.885 0.547-1.096 1.114-1.649 1.575 0.7 0.537 1.151 1.383 1.151 2.334z"></path>
<path fill="#020288" d="M29.498 4.984h-26.997c-1.379 0-2.502 1.122-2.502 2.502v17.029c0 1.379 1.122 2.502 2.502 2.502h26.997c1.379 0 2.502-1.122 2.502-2.502v-17.029c0-1.38-1.122-2.502-2.502-2.502zM2.502 6.234h26.997c0.69 0 1.252 0.561 1.252 1.252v0.549h-29.5v-0.549c0-0.69 0.562-1.252 1.252-1.252zM30.75 11.157h-29.5v-1.872h29.5zM29.498 25.766h-26.997c-0.69 0-1.252-0.561-1.252-1.252v-12.107h29.5v12.107c0 0.69-0.561 1.252-1.252 1.252z"></path>
<path fill="#020288" d="M25.86 14.832c-0.318-0.133-0.684 0.017-0.818 0.335l-2.995 7.149c-0.133 0.318 0.017 0.685 0.335 0.818 0.079 0.033 0.161 0.049 0.241 0.049 0.244 0 0.476-0.144 0.577-0.384l2.995-7.149c0.133-0.318-0.017-0.685-0.335-0.818z"></path>
<path fill="#020288" d="M23.999 16.616c0-1.194-0.874-2.165-1.948-2.165s-1.948 0.971-1.948 2.165 0.874 2.165 1.948 2.165 1.948-0.971 1.948-2.165zM21.352 16.616c0-0.496 0.32-0.915 0.698-0.915s0.698 0.419 0.698 0.915-0.32 0.915-0.698 0.915-0.698-0.419-0.698-0.915z"></path>
<path fill="#020288" d="M26.095 19.338c-1.074 0-1.948 0.971-1.948 2.165s0.874 2.165 1.948 2.165 1.948-0.971 1.948-2.165-0.874-2.165-1.948-2.165zM26.095 22.419c-0.378 0-0.698-0.419-0.698-0.915s0.32-0.915 0.698-0.915 0.698 0.419 0.698 0.915-0.32 0.915-0.698 0.915z"></path>
</svg>
