<!-- Generated by IcoMoon.io -->
<svg version="1.1" xmlns="http://www.w3.org/2000/svg" width="32" height="32" viewBox="0 0 32 32">
<title>hat</title>
<path fill="#e2c4ff" d="M7.318 13.29h17.363v4.010h-17.363z"></path>
<path fill="#020288" d="M31.856 16.9c-0.119-0.143-0.295-0.225-0.481-0.225h-6.068v-5.298c0-2.934-2.387-5.321-5.321-5.321h-7.972c-2.934 0-5.321 2.387-5.321 5.321v5.298h-6.068c-0.181 0-0.353 0.078-0.472 0.215s-0.172 0.318-0.147 0.497c0.5 3.54 2.349 5.995 5.496 7.299 2.658 1.101 5.63 1.101 7.058 1.101 1.028 0 1.987-0.22 2.907-0.586 0.045 0.025 0.094 0.045 0.147 0.058 1.751 0.447 3.602 0.684 5.352 0.684 2.945 0 5.381-0.692 7.241-2.058 1.982-1.455 3.254-3.632 3.781-6.471 0.034-0.183-0.015-0.371-0.134-0.514zM7.943 11.377c0-2.245 1.826-4.071 4.071-4.071h7.972c2.245 0 4.071 1.826 4.071 4.071v5.298h-16.113zM1.368 17.925h23.438c-2.028 0.914-3.75 2.178-5.346 3.349-2.387 1.751-4.449 3.264-6.898 3.264-4.606-0-9.976-0.77-11.193-6.613zM20.967 24.693c-1.226 0-2.505-0.123-3.76-0.36 1.005-0.594 1.986-1.314 2.991-2.051 2.684-1.97 5.46-4.006 9.38-4.357h1.022c-1.385 5.571-5.959 6.768-9.633 6.768z"></path>
</svg>
