<!-- Generated by IcoMoon.io -->
<svg version="1.1" xmlns="http://www.w3.org/2000/svg" width="32" height="32" viewBox="0 0 32 32">
<title>location-pin</title>
<path fill="#a4fcc4" d="M26.418 32l-2.228-7.104h-6.517l-1.673 2.585-1.673-2.585h-6.517l-2.228 7.104h20.836z"></path>
<path fill="#020288" d="M19.861 8.783h-0.997v-0.744c0-1.573-1.285-2.852-2.863-2.852s-2.863 1.28-2.863 2.852v0.744h-0.997c-0.94 0-1.704 0.764-1.704 1.704v5.775c0 1.579 1.303 2.864 2.905 2.864h5.32c1.602 0 2.905-1.285 2.905-2.864v-5.776c-0-0.94-0.765-1.704-1.704-1.704zM14.387 8.040c0-0.884 0.724-1.602 1.613-1.602s1.613 0.719 1.613 1.602v0.744h-3.227zM20.315 16.263c0 0.89-0.742 1.614-1.655 1.614h-5.32c-0.912 0-1.655-0.724-1.655-1.614v-5.776c0-0.25 0.204-0.454 0.454-0.454h0.997v1.452c0 0.345 0.28 0.625 0.625 0.625s0.625-0.28 0.625-0.625v-1.452h3.227v1.452c0 0.345 0.28 0.625 0.625 0.625s0.625-0.28 0.625-0.625v-1.452h0.997c0.25 0 0.454 0.204 0.454 0.454v5.776z"></path>
<path fill="#020288" d="M24.645 3.574c-2.293-2.291-5.345-3.56-8.594-3.574-0.017 0-0.034-0-0.052-0-3.253 0-6.315 1.266-8.625 3.567-2.308 2.298-3.578 5.346-3.578 8.581 0 5.218 3.335 9.845 8.298 11.512 0.568 0.191 1.055 0.566 1.373 1.056l2.008 3.103c0.115 0.178 0.313 0.285 0.525 0.285s0.41-0.107 0.525-0.285l2.007-3.102c0.317-0.49 0.809-0.867 1.385-1.061 4.956-1.671 8.286-6.296 8.286-11.508 0-3.236-1.264-6.282-3.558-8.574zM19.518 22.472c-0.843 0.284-1.565 0.84-2.035 1.567l-1.483 2.291-1.483-2.292c-0.47-0.727-1.189-1.282-2.024-1.562-4.454-1.497-7.446-5.647-7.447-10.328-0-2.901 1.14-5.634 3.21-7.696 2.075-2.066 4.823-3.203 7.743-3.203 0.015 0 0.031 0 0.046 0 6.014 0.025 10.907 4.913 10.907 10.898 0 4.675-2.988 8.824-7.436 10.324z"></path>
</svg>
