<!-- Generated by IcoMoon.io -->
<svg version="1.1" xmlns="http://www.w3.org/2000/svg" width="32" height="32" viewBox="0 0 32 32">
<title>pay1</title>
<path fill="#fff59b" d="M25.873 31.276h-19.981c-1.039 0-1.882-0.843-1.882-1.882v-1.128h23.98v0.893c0 1.169-0.948 2.117-2.117 2.117z"></path>
<path fill="#fff59b" d="M10.18 10.945h11.258l2.149-7.863h-14.422z"></path>
<path fill="#020288" d="M25.995 18.697h-19.99c-1.445 0-2.62 1.175-2.62 2.62v8.063c0 1.445 1.175 2.62 2.62 2.62h19.99c1.445 0 2.62-1.175 2.62-2.62v-8.063c0-1.445-1.175-2.62-2.62-2.62zM27.365 29.38c0 0.755-0.615 1.37-1.37 1.37h-19.99c-0.755 0-1.37-0.615-1.37-1.37v-8.063c0-0.755 0.615-1.37 1.37-1.37h19.99c0.756 0 1.37 0.615 1.37 1.37z"></path>
<path fill="#020288" d="M5.798 1.25h2.441l1.574 12.195c0.031 0.24 0.195 0.433 0.413 0.51-0.204 0.355-0.321 0.766-0.321 1.204 0 1.333 1.083 2.418 2.415 2.418s2.415-1.085 2.415-2.418c0-0.424-0.109-0.822-0.302-1.169h2.956c-0.192 0.346-0.301 0.745-0.301 1.168 0 1.333 1.083 2.418 2.415 2.418s2.415-1.085 2.415-2.418c0-0.537-0.176-1.034-0.473-1.435 0.071-0.101 0.112-0.224 0.112-0.357 0-0.345-0.28-0.625-0.625-0.625h-9.95l-1.574-12.195c-0.040-0.312-0.306-0.545-0.62-0.545h-2.991c-0.345 0-0.625 0.28-0.625 0.625s0.28 0.625 0.625 0.625zM12.32 16.326c-0.642 0-1.165-0.524-1.165-1.168s0.523-1.168 1.165-1.168c0.642 0 1.165 0.524 1.165 1.168s-0.523 1.168-1.165 1.168zM19.504 16.325c-0.642 0-1.165-0.524-1.165-1.168s0.523-1.168 1.165-1.168c0.642 0 1.165 0.524 1.165 1.168s-0.523 1.168-1.165 1.168z"></path>
<path fill="#020288" d="M16.68 21.684c-0.002-0.006-0.004-0.012-0.007-0.017-0.11-0.268-0.369-0.442-0.66-0.442h-0.001c-0.291 0-0.549 0.174-0.659 0.443-0.002 0.005-0.004 0.009-0.005 0.014l-1.462 3.838c-0.123 0.323 0.039 0.684 0.362 0.806s0.684-0.039 0.806-0.362l0.211-0.553h1.486l0.208 0.552c0.094 0.25 0.332 0.404 0.585 0.404 0.073 0 0.148-0.013 0.221-0.040 0.323-0.122 0.486-0.483 0.364-0.805zM15.741 24.162l0.27-0.71 0.268 0.71z"></path>
<path fill="#020288" d="M21.388 21.336c-0.289-0.188-0.676-0.106-0.865 0.183l-0.71 1.091-0.719-1.102c-0.189-0.289-0.576-0.37-0.865-0.182s-0.37 0.576-0.182 0.865l1.141 1.748-0.004 1.802c-0.001 0.345 0.278 0.626 0.623 0.627h0.002c0.344 0 0.624-0.279 0.625-0.623l0.004-1.804 1.133-1.74c0.188-0.289 0.106-0.676-0.183-0.865z"></path>
<path fill="#020288" d="M12.037 21.225h-1.084c-0.005 0-0.011 0-0.016 0s-0.010 0-0.015 0.001c-0 0-0 0-0.001 0-0.166 0.008-0.315 0.081-0.422 0.194-0 0-0 0-0 0-0.003 0.004-0.007 0.007-0.010 0.011-0 0-0 0-0.001 0.001-0.003 0.004-0.006 0.007-0.010 0.011-0 0-0.001 0.001-0.001 0.001-0.003 0.004-0.006 0.007-0.009 0.011-0 0-0 0-0 0-0.003 0.004-0.006 0.008-0.009 0.012 0 0-0 0-0 0-0.071 0.091-0.117 0.202-0.128 0.323 0 0-0 0-0 0.001-0 0.005-0.001 0.009-0.001 0.014-0 0.002-0 0.003-0 0.004-0 0.003-0 0.007-0.001 0.011s-0 0.006-0 0.008c-0 0.002-0 0.005-0 0.007s-0 0.007-0 0.010c0 0.002-0 0.003-0 0.005v3.893c0 0.345 0.28 0.625 0.625 0.625s0.625-0.28 0.625-0.625v-1.069c0.176-0.001 0.349-0.002 0.459-0.002 0.962 0 1.745-0.773 1.745-1.724s-0.783-1.724-1.745-1.724zM12.037 23.422c-0.109 0-0.28 0.001-0.455 0.001-0.001-0.182-0.001-0.362-0.001-0.475 0-0.097-0-0.282-0.001-0.474h0.457c0.268 0 0.495 0.217 0.495 0.474s-0.227 0.474-0.495 0.474z"></path>
</svg>
