<!-- Generated by IcoMoon.io -->
<svg version="1.1" xmlns="http://www.w3.org/2000/svg" width="32" height="32" viewBox="0 0 32 32">
<title>purse</title>
<path fill="#020288" d="M28.657 15.834h-0.832v-4.009c0-6.52-5.304-11.825-11.825-11.825s-11.824 5.304-11.824 11.824v4.010h-0.832c-0.345 0-0.625 0.28-0.625 0.625v12.177c0 1.855 1.509 3.364 3.364 3.364h19.834c1.855 0 3.364-1.509 3.364-3.364v-12.176c0-0.345-0.28-0.625-0.625-0.625zM28.032 28.636c0 1.166-0.949 2.114-2.114 2.114h-19.834c-1.166 0-2.115-0.949-2.115-2.114v-11.552h2.179c0.345 0 0.625-0.28 0.625-0.625s-0.28-0.625-0.625-0.625h-0.722v-4.009c0-5.831 4.744-10.575 10.574-10.575s10.574 4.744 10.574 10.574v4.010h-0.916c-0.345 0-0.625 0.28-0.625 0.625s0.28 0.625 0.625 0.625h2.373z"></path>
<path fill="#fff59b" d="M24.93 14.977h-17.859c-0.774 0-1.402 0.627-1.402 1.402v7.522h2.382c1.345 0.836 2.845 1.377 4.402 1.596l2.064 0.001c0.001-0.819 0.665-1.482 1.484-1.482s1.484 0.664 1.484 1.483l2.043 0.001c1.564-0.217 3.071-0.759 4.422-1.599h2.382v-7.522c-0-0.774-0.628-1.402-1.402-1.402z"></path>
<path fill="#020288" d="M16 27.608c-1.163 0-2.109-0.946-2.109-2.109s0.946-2.109 2.109-2.109 2.109 0.946 2.109 2.109-0.946 2.109-2.109 2.109zM16 24.64c-0.474 0-0.859 0.385-0.859 0.859s0.385 0.859 0.859 0.859 0.859-0.385 0.859-0.859-0.385-0.859-0.859-0.859z"></path>
</svg>
