<!-- Generated by IcoMoon.io -->
<svg version="1.1" xmlns="http://www.w3.org/2000/svg" width="32" height="32" viewBox="0 0 32 32">
<title>sale</title>
<path fill="#ffbdbc" d="M23.305 8.691c4.066 4.066 4.090 10.635 0.054 14.671s-10.605 4.012-14.671-0.054c-4.066-4.066-4.090-10.635-0.054-14.671s10.605-4.013 14.671 0.054z"></path>
<path fill="#020288" d="M31.377 15.634c-0.227-0.458-0.44-0.89-0.484-1.273-0.043-0.378 0.066-0.843 0.183-1.335 0.17-0.718 0.362-1.531 0.093-2.297-0.264-0.751-0.89-1.243-1.494-1.717-0.406-0.319-0.789-0.62-1-0.954-0.198-0.314-0.3-0.775-0.407-1.263-0.16-0.727-0.342-1.551-0.926-2.135s-1.408-0.766-2.135-0.926c-0.488-0.108-0.949-0.209-1.262-0.407-0.335-0.211-0.636-0.594-0.954-1-0.475-0.605-0.966-1.23-1.717-1.494-0.766-0.269-1.579-0.077-2.297 0.093-0.492 0.116-0.957 0.226-1.336 0.183-0.383-0.044-0.815-0.258-1.273-0.484-0.661-0.327-1.409-0.697-2.209-0.61-0.797 0.087-1.442 0.609-2.012 1.070-0.396 0.32-0.77 0.623-1.136 0.75-0.354 0.123-0.829 0.116-1.331 0.11-0.742-0.010-1.583-0.021-2.274 0.414-0.667 0.418-1.001 1.131-1.324 1.821-0.22 0.468-0.427 0.911-0.71 1.193s-0.725 0.49-1.193 0.71c-0.689 0.323-1.402 0.658-1.821 1.324-0.434 0.692-0.423 1.533-0.414 2.274 0.007 0.503 0.013 0.978-0.11 1.331-0.127 0.366-0.429 0.74-0.75 1.136-0.461 0.569-0.983 1.215-1.070 2.012-0.087 0.8 0.283 1.549 0.61 2.209 0.227 0.458 0.44 0.89 0.484 1.273 0.043 0.378-0.066 0.843-0.183 1.335-0.17 0.718-0.362 1.531-0.093 2.297 0.264 0.751 0.889 1.243 1.494 1.717 0.406 0.319 0.789 0.62 1 0.954 0.198 0.314 0.3 0.775 0.407 1.263 0.16 0.727 0.342 1.551 0.926 2.135s1.408 0.766 2.135 0.926c0.488 0.108 0.949 0.209 1.263 0.407 0.335 0.211 0.636 0.594 0.954 1 0.475 0.605 0.966 1.23 1.717 1.494 0.766 0.269 1.579 0.077 2.297-0.093 0.492-0.116 0.957-0.226 1.335-0.183 0.383 0.044 0.815 0.258 1.273 0.484 0.594 0.294 1.259 0.623 1.969 0.623 0.080 0 0.16-0.004 0.241-0.013 0.797-0.087 1.442-0.609 2.012-1.070 0.396-0.32 0.77-0.623 1.136-0.75 0.354-0.123 0.829-0.116 1.331-0.11 0.742 0.010 1.583 0.021 2.274-0.414 0.667-0.419 1.001-1.131 1.324-1.821 0.22-0.468 0.427-0.911 0.71-1.193s0.725-0.49 1.193-0.71c0.689-0.323 1.402-0.658 1.821-1.324 0.434-0.692 0.423-1.533 0.414-2.274-0.007-0.503-0.013-0.977 0.11-1.331 0.127-0.366 0.429-0.74 0.75-1.136 0.461-0.569 0.983-1.215 1.070-2.012 0.087-0.8-0.283-1.549-0.61-2.209zM30.744 17.708c-0.047 0.432-0.412 0.883-0.799 1.361-0.374 0.462-0.761 0.94-0.959 1.513-0.194 0.56-0.186 1.169-0.179 1.757 0.008 0.624 0.016 1.214-0.222 1.593-0.223 0.355-0.743 0.599-1.293 0.857-0.545 0.256-1.109 0.52-1.546 0.957s-0.702 1.001-0.957 1.546c-0.258 0.55-0.502 1.070-0.857 1.293-0.379 0.238-0.969 0.231-1.593 0.222-0.588-0.008-1.196-0.016-1.757 0.179-0.573 0.198-1.050 0.585-1.513 0.959-0.478 0.387-0.929 0.752-1.361 0.799-0.438 0.048-0.963-0.212-1.519-0.488-0.534-0.264-1.085-0.537-1.684-0.606-0.107-0.012-0.215-0.018-0.322-0.018-0.488 0-0.972 0.114-1.444 0.226-0.604 0.143-1.174 0.278-1.594 0.13-0.408-0.143-0.768-0.602-1.149-1.087-0.37-0.471-0.753-0.959-1.27-1.285-0.498-0.315-1.089-0.445-1.661-0.571-0.614-0.135-1.194-0.263-1.52-0.59s-0.454-0.906-0.59-1.52c-0.126-0.571-0.256-1.162-0.571-1.661-0.327-0.517-0.814-0.9-1.285-1.27-0.485-0.381-0.944-0.741-1.087-1.149-0.148-0.42-0.013-0.991 0.13-1.594 0.136-0.575 0.276-1.17 0.208-1.766-0.069-0.599-0.342-1.151-0.606-1.684-0.275-0.556-0.535-1.082-0.488-1.519 0.047-0.432 0.412-0.883 0.799-1.361 0.374-0.462 0.761-0.94 0.959-1.513 0.194-0.56 0.186-1.169 0.179-1.757-0.008-0.624-0.016-1.214 0.222-1.593 0.223-0.356 0.743-0.599 1.293-0.857 0.545-0.256 1.109-0.52 1.546-0.957s0.702-1.001 0.957-1.546c0.258-0.55 0.502-1.070 0.857-1.293 0.379-0.238 0.969-0.231 1.593-0.222 0.588 0.008 1.196 0.016 1.757-0.179 0.572-0.198 1.050-0.585 1.513-0.959 0.478-0.387 0.929-0.752 1.361-0.799 0.438-0.048 0.963 0.212 1.519 0.488 0.534 0.264 1.085 0.537 1.684 0.606 0.596 0.068 1.191-0.072 1.766-0.208 0.604-0.143 1.174-0.278 1.594-0.13 0.408 0.143 0.768 0.602 1.149 1.087 0.37 0.471 0.753 0.959 1.27 1.285 0.498 0.315 1.089 0.445 1.661 0.571 0.614 0.135 1.194 0.263 1.52 0.59s0.454 0.906 0.59 1.52c0.126 0.571 0.256 1.162 0.571 1.661 0.326 0.517 0.814 0.9 1.285 1.27 0.485 0.381 0.944 0.741 1.087 1.149 0.148 0.42 0.013 0.991-0.13 1.594-0.136 0.575-0.276 1.17-0.208 1.766 0.069 0.599 0.342 1.151 0.606 1.685 0.276 0.556 0.536 1.082 0.488 1.519z"></path>
<path fill="#020288" d="M17.874 16.591l-3.772-1.705c-0.006-0.002-0.011-0.005-0.017-0.007-0.268-0.112-0.575-0.051-0.78 0.155s-0.266 0.512-0.153 0.78c0.002 0.005 0.004 0.009 0.006 0.014l1.696 3.782c0.104 0.232 0.332 0.369 0.571 0.369 0.085 0 0.172-0.018 0.255-0.055 0.315-0.141 0.456-0.511 0.315-0.826l-0.246-0.549 1.066-1.066 0.546 0.247c0.314 0.142 0.685 0.002 0.827-0.312s0.002-0.685-0.312-0.827zM15.201 17.329l-0.323-0.72 0.718 0.325z"></path>
<path fill="#020288" d="M19.455 14.434c-0.178 0.18-0.365 0.369-0.526 0.53l-2.335-2.335c-0.244-0.244-0.64-0.244-0.884 0s-0.244 0.64 0 0.884l2.775 2.775c0.121 0.121 0.281 0.183 0.442 0.183 0.126 0 0.252-0.038 0.361-0.115 0.055-0.039 0.081-0.057 1.056-1.043 0.243-0.245 0.241-0.641-0.005-0.884s-0.641-0.241-0.884 0.005z"></path>
<path fill="#020288" d="M21.77 12.123l-0.718 0.718-0.492-0.492 0.632-0.632c0.244-0.244 0.244-0.64 0-0.884s-0.64-0.244-0.884 0l-0.632 0.632-0.492-0.492 0.718-0.718c0.244-0.244 0.244-0.64 0-0.884s-0.64-0.244-0.884 0l-1.16 1.16c-0.244 0.244-0.244 0.64 0 0.884l2.752 2.752c0.122 0.122 0.282 0.183 0.442 0.183s0.32-0.061 0.442-0.183l1.16-1.16c0.244-0.244 0.244-0.64 0-0.884s-0.64-0.244-0.884 0z"></path>
<path fill="#020288" d="M12.146 19.069c-0.444 0.205-0.877 0.378-1.035 0.44h-0c-0.054 0-0.090-0.032-0.112-0.061-0.056-0.075-0.053-0.184 0.009-0.3 0.241-0.449 0.831-0.517 0.837-0.518 0.316-0.054 0.538-0.341 0.51-0.66l-0.001-0.009c-0.032-0.374-0.39-0.634-0.755-0.546-0.733 0.176-1.348 0.498-1.693 1.141-0.293 0.545-0.258 1.174 0.091 1.64 0.33 0.44 0.867 0.644 1.403 0.531 0.032-0.007 0.064-0.016 0.095-0.028 0.023-0.009 0.58-0.223 1.174-0.497 0.219-0.101 0.485-0.162 0.576-0.031 0.079 0.113 0.084 0.391-0.154 0.63-0.25 0.25-0.589 0.389-0.907 0.374-0.355-0.017-0.653 0.263-0.656 0.62-0.003 0.346 0.289 0.619 0.635 0.63 0.024 0.001 0.047 0.001 0.071 0.001 0.637-0 1.266-0.267 1.741-0.741 0.631-0.631 0.756-1.569 0.296-2.228-0.349-0.501-1.091-0.866-2.125-0.389z"></path>
</svg>
