<!-- Generated by IcoMoon.io -->
<svg version="1.1" xmlns="http://www.w3.org/2000/svg" width="32" height="32" viewBox="0 0 32 32">
<title>shopping-bag4</title>
<path fill="#020288" d="M27.235 5.463h-2.83v-0.045c-0-2.988-2.459-5.418-5.482-5.418-0.831 0-1.619 0.184-2.325 0.512-0.706-0.328-1.495-0.512-2.325-0.512-3.023 0-5.482 2.431-5.482 5.418v0.045h-4.026c-0.345 0-0.625 0.28-0.625 0.625v21.877c0 2.225 1.83 4.034 4.080 4.034h15.561c2.25 0 4.080-1.81 4.080-4.034v-21.877c0-0.345-0.28-0.625-0.625-0.625zM18.923 1.25c2.334 0 4.232 1.87 4.232 4.168v0.045h-3.401v-0.045c0-1.608-0.713-3.055-1.842-4.048 0.324-0.079 0.662-0.12 1.011-0.12zM16.598 1.937c1.148 0.746 1.907 2.028 1.907 3.481v0.045h-3.814v-0.045c0-1.453 0.759-2.735 1.907-3.481zM10.040 5.418c0-2.299 1.899-4.168 4.232-4.168 0.348 0 0.687 0.042 1.011 0.12-1.13 0.993-1.842 2.44-1.842 4.048v0.045h-3.401zM5.39 27.966v-21.252h3.401v4.004c0 0.345 0.28 0.625 0.625 0.625s0.625-0.28 0.625-0.625v-4.004h8.465v4.004c0 0.345 0.28 0.625 0.625 0.625s0.625-0.28 0.625-0.625v-4.004h3.401v24.037h-14.936c-1.56 0-2.83-1.249-2.83-2.784zM26.61 27.966c0 1.324-0.944 2.435-2.205 2.716v-23.968h2.205z"></path>
<path fill="#020288" d="M19.13 27.711h-9.715c-0.345 0-0.625 0.28-0.625 0.625s0.28 0.625 0.625 0.625h9.715c0.345 0 0.625-0.28 0.625-0.625s-0.28-0.625-0.625-0.625z"></path>
<path fill="#ffbdbc" d="M16.849 14.794c-1.159 0-1.892 0.692-2.303 1.272-0.107 0.151-0.197 0.302-0.274 0.444-0.076-0.142-0.167-0.293-0.274-0.444-0.411-0.58-1.145-1.272-2.303-1.272-0.824 0-1.576 0.339-2.118 0.954-0.517 0.587-0.802 1.373-0.802 2.214 0 0.915 0.357 1.766 1.124 2.678 0.685 0.815 4.298 3.438 4.373 3.438s3.688-2.623 4.373-3.438c0.767-0.912 1.124-1.763 1.124-2.678 0-0.84-0.285-1.627-0.802-2.214-0.542-0.615-1.294-0.954-2.118-0.954z"></path>
</svg>
