<!-- Generated by IcoMoon.io -->
<svg version="1.1" xmlns="http://www.w3.org/2000/svg" width="32" height="32" viewBox="0 0 32 32">
<title>shopping-bag</title>
<path fill="#e2c4ff" d="M23.781 31.375h-15.369c-2.014 0-3.647-1.633-3.647-3.647v-9.745h19.016z"></path>
<path fill="#020288" d="M27.235 5.463h-2.83v-0.045c-0-2.988-2.459-5.418-5.482-5.418-0.831 0-1.619 0.184-2.325 0.512-0.706-0.328-1.495-0.512-2.325-0.512-3.023 0-5.482 2.431-5.482 5.418v0.045h-4.026c-0.345 0-0.625 0.28-0.625 0.625v21.877c0 2.225 1.83 4.034 4.080 4.034h15.561c2.25 0 4.080-1.81 4.080-4.034v-21.877c0-0.345-0.28-0.625-0.625-0.625zM18.923 1.25c2.334 0 4.232 1.87 4.232 4.168v0.045h-3.401v-0.045c0-1.608-0.713-3.055-1.842-4.048 0.324-0.078 0.662-0.12 1.011-0.12zM16.598 1.937c1.148 0.746 1.907 2.028 1.907 3.481v0.045h-3.814v-0.045c0-1.453 0.759-2.735 1.907-3.481zM10.040 5.418c0-2.299 1.899-4.168 4.232-4.168 0.348 0 0.687 0.042 1.011 0.12-1.13 0.993-1.842 2.44-1.842 4.048v0.045h-3.401zM5.39 27.966v-21.252h3.401v4.004c0 0.345 0.28 0.625 0.625 0.625s0.625-0.28 0.625-0.625v-4.004h8.465v4.004c0 0.345 0.28 0.625 0.625 0.625s0.625-0.28 0.625-0.625v-4.004h3.401v24.037h-14.936c-1.56 0-2.83-1.249-2.83-2.784zM26.61 27.966c0 1.324-0.944 2.435-2.205 2.716v-23.968h2.205z"></path>
<path fill="#020288" d="M10.56 21.963h-0.006c-0.345 0.003-0.622 0.286-0.619 0.631l0.016 1.647-1.382-2.001c-0.155-0.225-0.439-0.323-0.7-0.241s-0.439 0.323-0.439 0.597v3.617c0 0.345 0.28 0.625 0.625 0.625s0.625-0.28 0.625-0.625v-1.612l1.306 1.892c0.174 0.252 0.479 0.362 0.758 0.274 0.288-0.090 0.474-0.356 0.474-0.683l-0.034-3.501c-0.003-0.343-0.282-0.619-0.625-0.619z"></path>
<path fill="#020288" d="M14.149 23.23c0.345 0 0.625-0.28 0.625-0.625s-0.28-0.625-0.625-0.625h-1.513c-0.345 0-0.625 0.28-0.625 0.625v3.59c0 0.345 0.28 0.625 0.625 0.625h1.513c0.345 0 0.625-0.28 0.625-0.625s-0.28-0.625-0.625-0.625h-0.888v-0.545h0.776c0.345 0 0.625-0.28 0.625-0.625s-0.28-0.625-0.625-0.625h-0.776v-0.545h0.888z"></path>
<path fill="#020288" d="M20.021 21.982c-0.339-0.067-0.668 0.152-0.735 0.491l-0.287 1.442-0.465-1.511c-0.102-0.33-0.451-0.515-0.781-0.413-0.222 0.068-0.379 0.25-0.426 0.461l-0.453 1.463-0.287-1.449c-0.067-0.339-0.396-0.559-0.734-0.492s-0.559 0.396-0.492 0.734l0.706 3.569c0.006 0.030 0.014 0.059 0.024 0.088 0.1 0.282 0.367 0.47 0.666 0.47 0.002 0 0.003-0 0.005-0 0.301-0.002 0.568-0.195 0.664-0.479 0.002-0.005 0.004-0.011 0.005-0.016l0.505-1.631 0.503 1.631c0.003 0.008 0.005 0.017 0.008 0.025 0.1 0.282 0.367 0.47 0.666 0.47 0.002 0 0.003-0 0.005-0 0.301-0.002 0.568-0.195 0.664-0.479 0.009-0.026 0.016-0.052 0.021-0.079l0.709-3.561c0.067-0.338-0.152-0.667-0.491-0.735z"></path>
</svg>
