<!-- Generated by IcoMoon.io -->
<svg version="1.1" xmlns="http://www.w3.org/2000/svg" width="32" height="32" viewBox="0 0 32 32">
<title>shopping-bag1</title>
<path fill="#e2c4ff" d="M14.626 2.419v12.235c0 1.755 1.442 3.178 3.22 3.178h7.514c1.778 0 3.22-1.423 3.22-3.178v-12.235z"></path>
<path fill="#020288" d="M21.603 10.344c2.085 0 3.781-1.696 3.781-3.781v-1.593c0-0.345-0.28-0.625-0.625-0.625s-0.625 0.28-0.625 0.625v1.593c0 1.396-1.136 2.531-2.531 2.531s-2.531-1.135-2.531-2.531v-1.593c0-0.345-0.28-0.625-0.625-0.625s-0.625 0.28-0.625 0.625v1.593c-0 2.085 1.696 3.781 3.781 3.781z"></path>
<path fill="#020288" d="M31.277 20.18c-0.479-0.497-1.122-0.777-1.811-0.788s-1.341 0.247-1.841 0.732l-3.644 3.609c-0.552-1.757-2.192-3.035-4.123-3.035h-3.191c-0.66-1.117-1.869-1.819-3.182-1.819-1.768 0-3.255 1.244-3.615 2.924h-0.858v-0.328c0-0.345-0.28-0.625-0.625-0.625h-7.762c-0.345 0-0.625 0.28-0.625 0.625v6.192c0 0.345 0.28 0.625 0.625 0.625h7.762c0.345 0 0.625-0.28 0.625-0.625v-0.328h1.198c0.676 1.357 2.077 2.242 3.613 2.242h10.512c0.673 0 1.31-0.259 1.797-0.732l5.084-5.014c1.020-0.991 1.047-2.631 0.060-3.655zM7.762 27.042h-6.512v-4.942h6.512zM30.342 22.942l-5.084 5.014c-0.249 0.242-0.577 0.375-0.923 0.375h-10.512c-1.163 0-2.214-0.736-2.616-1.832-0.090-0.246-0.325-0.41-0.587-0.41h-1.609v-3.036h1.404c0.333 0 0.607-0.261 0.624-0.593 0.067-1.307 1.14-2.331 2.444-2.331 0.961 0 1.837 0.569 2.233 1.45 0.101 0.225 0.324 0.369 0.57 0.369h3.57c1.481 0 2.72 1.058 3.009 2.461h-6.309c-0.345 0-0.625 0.28-0.625 0.625s0.28 0.625 0.625 0.625h6.997c0.155 0 0.296-0.056 0.406-0.15 0-0 0.001-0 0.001-0.001 0.003-0.002 0.006-0.005 0.009-0.007 0.001-0.001 0.003-0.002 0.004-0.003s0.003-0.003 0.005-0.005c0.002-0.002 0.005-0.004 0.007-0.006 0.001-0.001 0.001-0.001 0.002-0.002 0.003-0.002 0.005-0.005 0.008-0.007l4.506-4.462c0.255-0.248 0.59-0.382 0.945-0.375 0.354 0.006 0.685 0.15 0.932 0.406 0.511 0.53 0.497 1.378-0.034 1.894z"></path>
</svg>
