<!-- Generated by IcoMoon.io -->
<svg version="1.1" xmlns="http://www.w3.org/2000/svg" width="32" height="32" viewBox="0 0 32 32">
<title>shop</title>
<path fill="#b2f0fb" d="M22.762 16.914h7.084v6.624h-7.084z"></path>
<path fill="#b2f0fb" d="M2.154 16.914h7.084v6.624h-7.084z"></path>
<path fill="#b2f0fb" d="M12.687 16.914h6.626v10.84h-6.626z"></path>
<path fill="#020288" d="M29.629 3.414h-27.257c-1.308 0-2.371 1.064-2.371 2.371v4.563c0 1.15 0.613 2.16 1.529 2.721v14.892c0 0.345 0.28 0.625 0.625 0.625h27.693c0.345 0 0.625-0.28 0.625-0.625v-14.892c0.916-0.561 1.529-1.571 1.529-2.721v-4.563c0-1.308-1.064-2.371-2.371-2.371zM25.625 10.348c0 1.068-0.869 1.937-1.938 1.937s-1.938-0.869-1.938-1.937v-5.684h3.875zM20.5 10.348c0 1.068-0.869 1.937-1.938 1.937s-1.938-0.869-1.938-1.937v-5.684h3.875zM15.375 10.348c0 1.068-0.869 1.937-1.938 1.937s-1.938-0.869-1.938-1.937v-5.684h3.875zM10.25 10.348c0 1.068-0.869 1.937-1.938 1.937s-1.938-0.869-1.938-1.937v-5.684h3.875zM1.25 5.785c0-0.618 0.503-1.121 1.121-1.121h2.754v5.684c0 1.068-0.869 1.937-1.938 1.937s-1.938-0.869-1.938-1.937zM29.221 27.336h-26.443v-13.826c0.134 0.017 0.27 0.026 0.409 0.026 1.049 0 1.981-0.509 2.563-1.294 0.581 0.784 1.514 1.294 2.563 1.294s1.981-0.509 2.563-1.294c0.581 0.784 1.514 1.294 2.563 1.294s1.981-0.509 2.563-1.294c0.581 0.784 1.513 1.294 2.563 1.294s1.981-0.509 2.563-1.294c0.581 0.784 1.514 1.294 2.563 1.294s1.981-0.509 2.563-1.294c0.581 0.784 1.514 1.294 2.563 1.294 0.139 0 0.275-0.009 0.409-0.026zM30.75 10.348c0 1.068-0.869 1.937-1.938 1.937s-1.938-0.869-1.938-1.937v-5.684h2.754c0.618 0 1.121 0.503 1.121 1.121z"></path>
</svg>
