<!-- Generated by IcoMoon.io -->
<svg version="1.1" xmlns="http://www.w3.org/2000/svg" width="32" height="32" viewBox="0 0 32 32">
<title>shopping-cart2</title>
<path fill="#fff59b" d="M16.556 10.614l1.182 8.252h2.307l1.182-8.252z"></path>
<path fill="#fff59b" d="M24.384 10.614l-1.182 8.252h3.053l1.856-8.252z"></path>
<path fill="#fff59b" d="M13.4 10.614h-3.727l1.667 8.252h3.242z"></path>
<path fill="#020288" d="M31.852 7.46c-0.119-0.14-0.293-0.221-0.477-0.221h-24.866l-0.848-4.197c-0.059-0.292-0.315-0.501-0.613-0.501h-4.423c-0.345 0-0.625 0.28-0.625 0.625s0.28 0.625 0.625 0.625h3.912l4.134 20.468c-0.637 0.542-1.043 1.349-1.043 2.25 0 1.627 1.322 2.95 2.947 2.95s2.947-1.324 2.947-2.95c0-0.633-0.2-1.22-0.54-1.7h9.598c-0.34 0.481-0.54 1.068-0.54 1.7 0 1.627 1.322 2.95 2.947 2.95s2.947-1.324 2.947-2.95c0-0.635-0.201-1.224-0.544-1.706 0.307-0.040 0.544-0.302 0.544-0.62 0-0.345-0.28-0.625-0.625-0.625h-17.505l-0.266-1.317h17.253c1.642 0 3.028-1.176 3.297-2.795l1.903-11.479c0.030-0.181-0.021-0.366-0.14-0.506zM12.272 26.509c0 0.938-0.761 1.7-1.697 1.7s-1.697-0.763-1.697-1.7c0-0.938 0.761-1.7 1.697-1.7s1.697 0.763 1.697 1.7zM24.987 28.209c-0.936 0-1.697-0.763-1.697-1.7s0.761-1.7 1.697-1.7c0.936 0 1.697 0.763 1.697 1.7s-0.761 1.7-1.697 1.7zM28.855 19.241c-0.168 1.014-1.036 1.75-2.064 1.75h-17.505l-2.525-12.502h23.877z"></path>
</svg>
