<!-- Generated by IcoMoon.io -->
<svg version="1.1" xmlns="http://www.w3.org/2000/svg" width="32" height="32" viewBox="0 0 32 32">
<title>shopping-basket</title>
<path fill="#ffbdbc" d="M13.859 20.066l1.102 8.559h2.077l1.102-8.559z"></path>
<path fill="#ffbdbc" d="M21.296 20.066l-1.102 8.559h3.273l1.029-8.559z"></path>
<path fill="#ffbdbc" d="M10.704 20.066h-3.2l1.029 8.559h3.273z"></path>
<path fill="#020288" d="M12.329 6.127h1.419v2.863c0 0.345 0.28 0.625 0.625 0.625h3.254c0.345 0 0.625-0.28 0.625-0.625v-2.863h1.419c0.237 0 0.453-0.134 0.559-0.346s0.083-0.466-0.060-0.655l-3.671-4.877c-0.118-0.157-0.303-0.249-0.499-0.249s-0.381 0.092-0.499 0.249l-3.671 4.877c-0.143 0.189-0.166 0.443-0.060 0.655s0.322 0.346 0.559 0.346zM16 1.664l2.418 3.213h-0.791c-0.345 0-0.625 0.28-0.625 0.625v2.863h-2.003v-2.863c0-0.345-0.28-0.625-0.625-0.625h-0.791z"></path>
<path fill="#020288" d="M29.34 13.689h-2.498l-2.658-5.474c-0.514-1.058-1.793-1.501-2.851-0.987s-1.501 1.793-0.987 2.851l1.753 3.611h-12.199l1.753-3.611c0.514-1.058 0.071-2.337-0.987-2.851s-2.337-0.071-2.851 0.988l-2.658 5.474h-2.498c-0.345 0-0.625 0.28-0.625 0.625v3.002c0 0.345 0.28 0.625 0.625 0.625h1.092l1.803 13.517c0.041 0.311 0.306 0.542 0.62 0.542h19.652c0.313 0 0.578-0.232 0.619-0.542l1.803-13.517h1.093c0.345 0 0.625-0.28 0.625-0.625v-3.002c-0-0.345-0.28-0.625-0.625-0.625zM21.88 8.351c0.122-0.059 0.253-0.089 0.385-0.089 0.097 0 0.195 0.016 0.29 0.049 0.223 0.077 0.403 0.237 0.506 0.449l3.234 6.661c0.103 0.212 0.117 0.452 0.040 0.675s-0.237 0.403-0.449 0.506c-0.438 0.213-0.968 0.029-1.181-0.409l-3.234-6.661c-0.213-0.438-0.029-0.968 0.409-1.181zM22.706 14.939l0.851 1.752h-15.114l0.851-1.752zM8.94 8.76c0.153-0.314 0.468-0.498 0.796-0.498 0.129 0 0.261 0.028 0.384 0.089 0.438 0.213 0.622 0.742 0.409 1.181l-3.234 6.661c-0.213 0.438-0.742 0.622-1.181 0.409-0-0-0-0-0-0-0.438-0.213-0.622-0.742-0.409-1.181zM3.285 14.939h1.267c-0.258 0.577-0.237 1.214 0.008 1.752h-1.275v-1.752zM25.279 30.75h-18.557l-1.708-12.809h21.974zM28.715 16.691h-1.274c0.027-0.060 0.052-0.122 0.074-0.186 0.179-0.516 0.154-1.070-0.067-1.567h1.267v1.752z"></path>
</svg>
