<!-- Generated by IcoMoon.io -->
<svg version="1.1" xmlns="http://www.w3.org/2000/svg" width="32" height="32" viewBox="0 0 32 32">
<title>shopping-cart</title>
<path fill="#b2f0fb" d="M16.513 14.574l1.090 7.609h2.127l1.090-7.609z"></path>
<path fill="#b2f0fb" d="M23.731 14.574l-1.090 7.609h2.815l1.711-7.609z"></path>
<path fill="#b2f0fb" d="M13.602 14.574h-3.437l1.537 7.609h2.99z"></path>
<path fill="#020288" d="M30.654 11.634c-0.119-0.14-0.293-0.221-0.477-0.221h-22.89l-0.774-3.832c-0.059-0.292-0.315-0.501-0.613-0.501h-4.079c-0.345 0-0.625 0.28-0.625 0.625s0.28 0.625 0.625 0.625h3.567l3.799 18.807c-0.586 0.508-0.957 1.258-0.957 2.093 0 1.527 1.241 2.769 2.766 2.769s2.766-1.242 2.766-2.769c0-0.561-0.167-1.083-0.454-1.519h8.666c-0.287 0.436-0.454 0.959-0.454 1.519 0 1.527 1.241 2.769 2.766 2.769s2.766-1.242 2.766-2.769c0-0.569-0.172-1.099-0.468-1.539 0.269-0.070 0.468-0.314 0.468-0.605 0-0.345-0.28-0.625-0.625-0.625h-16.102l-0.226-1.118h15.85c1.538 0 2.837-1.101 3.088-2.618l1.755-10.585c0.030-0.181-0.021-0.366-0.14-0.506zM12.514 29.231c0 0.838-0.68 1.519-1.516 1.519s-1.516-0.682-1.516-1.519 0.68-1.519 1.516-1.519 1.516 0.682 1.516 1.519zM24.288 30.75c-0.836 0-1.516-0.682-1.516-1.519s0.68-1.519 1.516-1.519 1.516 0.682 1.516 1.519c-0 0.838-0.68 1.519-1.516 1.519zM27.806 22.521c-0.151 0.911-0.931 1.573-1.855 1.573h-16.102l-2.309-11.431h21.9z"></path>
<path fill="#020288" d="M18.667 9.556c2.635 0 4.778-2.143 4.778-4.778s-2.143-4.778-4.778-4.778-4.778 2.143-4.778 4.778 2.143 4.778 4.778 4.778zM18.667 1.25c1.945 0 3.528 1.583 3.528 3.528s-1.583 3.528-3.528 3.528c-1.945 0-3.528-1.583-3.528-3.528s1.583-3.528 3.528-3.528z"></path>
<path fill="#020288" d="M18.067 6.264c0.118 0.123 0.281 0.192 0.451 0.192 0.007 0 0.014-0 0.021-0 0.177-0.006 0.343-0.087 0.457-0.222l1.774-2.106c0.222-0.264 0.189-0.658-0.076-0.881s-0.658-0.189-0.881 0.075l-1.326 1.575-0.715-0.744c-0.239-0.249-0.635-0.256-0.884-0.017s-0.257 0.635-0.017 0.884z"></path>
</svg>
