<!-- Generated by IcoMoon.io -->
<svg version="1.1" xmlns="http://www.w3.org/2000/svg" width="32" height="32" viewBox="0 0 32 32">
<title>t-shirt1</title>
<path fill="#ffbdbc" d="M5.453 21.799h21.095v3.7h-21.095z"></path>
<path fill="#ffbdbc" d="M21.64 17.295c-1.352 0-2.449-1.096-2.449-2.449v-2.187h4.898v2.187c0 1.352-1.096 2.449-2.449 2.449z"></path>
<path fill="#020288" d="M28.228 3.829h-5.461l-1.217-2.393c-0.001-0.002-0.003-0.005-0.005-0.009-0.108-0.211-0.326-0.345-0.564-0.343-0 0-0 0-0.001 0h-9.963c-0 0-0 0-0.001 0-0.233-0.001-0.447 0.127-0.557 0.333-0.005 0.009-0.008 0.016-0.010 0.019l-1.217 2.393h-5.461c-2.080 0-3.772 1.691-3.772 3.77v7.302c0 0.345 0.28 0.625 0.625 0.625h4.203v14.765c0 0.345 0.28 0.625 0.625 0.625h21.095c0.345 0 0.625-0.28 0.625-0.625v-14.765h4.203c0.345 0 0.625-0.28 0.625-0.625v-7.302c0-2.079-1.692-3.77-3.772-3.77zM16 6.307l-3.582-3.973h7.164zM20.843 2.803l0.814 1.6-2.915 4.229-1.834-1.466zM11.157 2.803l3.934 4.363-1.834 1.466-2.915-4.229zM30.75 14.276h-3.578v-4.599c0-0.345-0.28-0.625-0.625-0.625s-0.625 0.28-0.625 0.625v19.988h-19.845v-19.988c0-0.345-0.28-0.625-0.625-0.625s-0.625 0.28-0.625 0.625v4.599h-3.578v-6.677c0-1.389 1.131-2.52 2.522-2.52h5.519l3.319 4.816c0.098 0.143 0.252 0.238 0.423 0.264 0.030 0.005 0.061 0.007 0.091 0.007 0.141 0 0.279-0.048 0.39-0.137l2.486-1.988 2.486 1.987c0.111 0.089 0.249 0.137 0.39 0.137 0.030 0 0.061-0.002 0.091-0.007 0.172-0.025 0.325-0.121 0.423-0.264l3.319-4.816h5.519c1.39 0 2.522 1.131 2.522 2.52z"></path>
</svg>
