<!-- Generated by IcoMoon.io -->
<svg version="1.1" xmlns="http://www.w3.org/2000/svg" width="32" height="32" viewBox="0 0 32 32">
<title>tie</title>
<path fill="#a4fcc4" d="M11.237 27.324l-0.037 0.281v0l-0.003 0.024 4.803 3.747 4.803-3.747-1.151-8.696z"></path>
<path fill="#a4fcc4" d="M18.558 10.671l-5.885 5.806-0.728 5.496 7.163-7.144z"></path>
<path fill="#020288" d="M21.423 27.546l-1.692-12.784c-0.001-0.011-0.003-0.021-0.004-0.032l-1.169-8.834 1.617-2.764c0.333-0.569 0.318-1.266-0.039-1.82l-0.661-1.026c-0.115-0.179-0.313-0.286-0.525-0.286h-5.895c-0.212 0-0.41 0.108-0.525 0.286l-0.661 1.026c-0.357 0.554-0.372 1.251-0.039 1.82l1.617 2.764-2.866 21.646c-0.030 0.221 0.059 0.441 0.235 0.578l4.803 3.747c0.113 0.088 0.249 0.132 0.384 0.132s0.271-0.044 0.384-0.132l4.803-3.747c0.175-0.136 0.264-0.355 0.235-0.575zM14.639 6.392h2.723l0.048 0.364-3.248 3.239zM13.893 12.029l3.723-3.713 0.833 6.289-5.642 5.627zM12.917 1.99l0.476-0.74h5.213l0.477 0.74c0.101 0.156 0.105 0.352 0.011 0.512l-1.544 2.64h-3.101l-1.544-2.64c-0.094-0.16-0.089-0.356 0.011-0.512zM16 30.582l-4.136-3.227 0.674-5.090 6.117-6.101 1.481 11.191z"></path>
</svg>
