<!-- Generated by IcoMoon.io -->
<svg version="1.1" xmlns="http://www.w3.org/2000/svg" width="32" height="32" viewBox="0 0 32 32">
<title>bubble-tea</title>
<path fill="#c1e5ef" d="M8.731 6.563l1.649 21.199c0.222 2.053 1.956 3.61 4.021 3.61h4.667c2.074 0 3.813-1.569 4.024-3.633l1.588-21.181c0.056-0.544-0.371-1.016-0.918-1.016h-14.114c-0.549 0-0.976 0.476-0.917 1.022z"></path>
<path fill="#f6e06e" d="M15.586 27.908c-0.078 0-0.157-0.010-0.236-0.031-0.491-0.13-0.784-0.634-0.654-1.125l6.803-25.69c0.13-0.491 0.634-0.784 1.125-0.654s0.784 0.634 0.654 1.125l-6.803 25.69c-0.109 0.412-0.482 0.685-0.889 0.685z"></path>
<path fill="#a1e8c3" d="M11.055 9.921l1.097 16.459c0.16 1.725 1.408 3.032 2.895 3.032h3.36c1.493 0 2.745-1.318 2.897-3.052l1.056-16.44z"></path>
<path fill="#fff" d="M11.405 15.173l0.747 11.208c0.16 1.725 1.408 3.032 2.895 3.032h3.36c1.493 0 2.745-1.318 2.897-3.052l0.719-11.188h-10.617z"></path>
<path fill="#9781dd" d="M15.827 27.5c0 0.783-0.635 1.418-1.418 1.418s-1.418-0.635-1.418-1.418c0-0.783 0.635-1.418 1.418-1.418s1.418 0.635 1.418 1.418z"></path>
<path fill="#9781dd" d="M19.845 22.412c0.762 0.18 1.234 0.944 1.054 1.706s-0.944 1.234-1.706 1.054c-0.762-0.18-1.234-0.944-1.054-1.706s0.944-1.234 1.706-1.054z"></path>
<path fill="#9781dd" d="M20.563 27.42c0 0.783-0.635 1.418-1.418 1.418s-1.418-0.635-1.418-1.418c0-0.783 0.635-1.418 1.418-1.418s1.418 0.635 1.418 1.418z"></path>
<path fill="#9781dd" d="M14.177 22.378c0.773 0.125 1.298 0.854 1.173 1.627s-0.854 1.298-1.627 1.173c-0.773-0.125-1.298-0.854-1.173-1.627s0.854-1.298 1.627-1.173z"></path>
<path fill="#9781dd" d="M19.806 18.155c0.75 0.227 1.173 1.019 0.946 1.768s-1.019 1.173-1.768 0.946c-0.75-0.227-1.173-1.019-0.946-1.768s1.019-1.173 1.768-0.946z"></path>
<path fill="#9781dd" d="M16.432 20.092c0.554 0.554 0.554 1.451 0 2.005s-1.451 0.554-2.005 0c-0.554-0.554-0.554-1.451 0-2.005s1.451-0.554 2.005 0z"></path>
<path fill="#9781dd" d="M17.708 24.329c0.554 0.554 0.554 1.451 0 2.005s-1.451 0.554-2.005 0c-0.554-0.554-0.554-1.451 0-2.005s1.451-0.554 2.005 0z"></path>
<path fill="#a6aaed" d="M23.762 5.542h-2.882c0.442 0 0.787 0.404 0.742 0.869l-1.162 16.397c0.782 0.529 0.419 1.535-0.188 2.136-0.337 1.55-1.646 2.681-3.185 2.681h-3.772c-1.473 0-2.737-1.036-3.137-2.486l0.204 2.624c0.222 2.053 1.956 3.61 4.021 3.61h4.667c2.074 0 3.813-1.569 4.024-3.633l1.588-21.181c0.056-0.544-0.371-1.016-0.918-1.016z"></path>
<path fill="#e1bdfc" d="M21 15.173l-0.538 7.59c0.585 0.639 0.547 1.806-0.211 2.266-0.366 1.506-1.655 2.595-3.166 2.595h-3.772c-0.307 0-0.605-0.046-0.888-0.13 0.474 1.144 1.477 1.919 2.621 1.919h3.36c1.493 0 2.745-1.318 2.897-3.052l0.719-11.188h-1.021z"></path>
<path fill="#8962de" d="M13.313 27.624c-0.107 0-0.213-0.006-0.318-0.017 0.055 0.733 0.667 1.311 1.414 1.311 0.741 0 1.349-0.569 1.412-1.294z"></path>
<path fill="#8962de" d="M19.145 28.838c0.783 0 1.418-0.635 1.418-1.418 0-0.56-0.325-1.044-0.796-1.275-0.475 0.718-1.199 1.232-2.033 1.41 0.068 0.72 0.674 1.283 1.412 1.283z"></path>
<path fill="#85adc2" d="M22.029 15.059l0.33-5.138h-0.986l-0.364 5.138z"></path>
<path fill="#c2b2eb" d="M4.967 9.402l0.383 1.077c0.016 0.046 0.049 0.083 0.090 0.101l0.957 0.431c0.135 0.061 0.135 0.276 0 0.337l-0.957 0.431c-0.041 0.018-0.073 0.055-0.090 0.101l-0.383 1.077c-0.054 0.152-0.245 0.152-0.3 0l-0.383-1.077c-0.016-0.046-0.049-0.083-0.090-0.101l-0.957-0.431c-0.135-0.061-0.135-0.276 0-0.337l0.957-0.431c0.041-0.018 0.073-0.055 0.090-0.101l0.383-1.077c0.054-0.152 0.245-0.152 0.3 0z"></path>
<path fill="#9781dd" d="M30.278 6.697c0.611 0.118 1.012 0.709 0.894 1.32s-0.709 1.012-1.32 0.894c-0.611-0.118-1.012-0.709-0.894-1.32s0.709-1.012 1.32-0.894z"></path>
<path fill="#9781dd" d="M12.139 2.199c0 0.269-0.218 0.486-0.486 0.486s-0.486-0.218-0.486-0.486c0-0.269 0.218-0.486 0.486-0.486s0.486 0.218 0.486 0.486z"></path>
<path fill="#c2b2eb" d="M3.273 0.315l0.516 1.452c0.022 0.062 0.066 0.111 0.121 0.136l1.29 0.581c0.182 0.082 0.182 0.372 0 0.455l-1.29 0.581c-0.055 0.025-0.099 0.074-0.121 0.136l-0.516 1.452c-0.073 0.205-0.331 0.205-0.404 0l-0.516-1.452c-0.022-0.062-0.066-0.111-0.121-0.136l-1.29-0.581c-0.182-0.082-0.182-0.372 0-0.455l1.29-0.581c0.055-0.025 0.099-0.074 0.121-0.136l0.516-1.452c0.073-0.205 0.331-0.205 0.404 0z"></path>
<path fill="#3c122c" d="M24.913 5.425c-0.294-0.325-0.713-0.512-1.151-0.512h-0.989l0.869-3.283c0.089-0.335 0.042-0.684-0.132-0.984s-0.455-0.513-0.79-0.602c-0.335-0.089-0.684-0.042-0.984 0.132s-0.513 0.455-0.602 0.789l-1.045 3.947h-10.441c-0.44 0-0.86 0.188-1.154 0.515-0.291 0.325-0.433 0.759-0.389 1.192l1.648 21.19c0.001 0.006 0.001 0.013 0.002 0.019 0.257 2.378 2.255 4.171 4.646 4.171h4.667c2.406 0 4.404-1.805 4.649-4.198 0.001-0.006 0.001-0.011 0.002-0.017l1.587-21.173c0.042-0.433-0.101-0.865-0.393-1.188zM21.864 1.159c0.037-0.14 0.127-0.258 0.252-0.33 0.084-0.049 0.177-0.074 0.272-0.074 0.047 0 0.094 0.006 0.14 0.018 0.14 0.037 0.258 0.127 0.33 0.252s0.093 0.272 0.055 0.412l-0.921 3.476h-1.123zM20.537 6.17h1.123l-0.893 3.374h-1.123zM14.995 23.781c0 0.574-0.467 1.041-1.041 1.041s-1.041-0.467-1.041-1.041c0-0.574 0.467-1.041 1.041-1.041s1.041 0.467 1.041 1.041zM14.392 21.095c0-0.574 0.467-1.041 1.041-1.041s1.041 0.467 1.041 1.041c0 0.574-0.467 1.041-1.041 1.041s-1.041-0.467-1.041-1.041zM13.954 25.576c0.354 0 0.683-0.103 0.962-0.28-0 0.012-0.001 0.025-0.001 0.037 0 0.161 0.021 0.316 0.061 0.464-0.178-0.060-0.369-0.092-0.567-0.092-0.838 0-1.544 0.578-1.741 1.356-0.069-0.225-0.118-0.462-0.141-0.71l-0.109-1.641c0.315 0.519 0.886 0.867 1.536 0.867zM14.409 26.459c0.574 0 1.041 0.467 1.041 1.041s-0.467 1.041-1.041 1.041-1.041-0.467-1.041-1.041c-0-0.574 0.467-1.041 1.041-1.041zM16.204 27.5c0-0.161-0.021-0.316-0.061-0.464 0.178 0.060 0.369 0.092 0.567 0.092 0.245 0 0.479-0.050 0.692-0.139-0.034 0.138-0.053 0.282-0.053 0.431 0 0.71 0.414 1.325 1.013 1.616h-3.025c0.519-0.315 0.866-0.885 0.866-1.535zM15.669 25.333c0-0.574 0.467-1.041 1.041-1.041s1.041 0.467 1.041 1.041c0 0.574-0.467 1.041-1.041 1.041s-1.041-0.467-1.041-1.041zM18.104 27.42c0-0.574 0.467-1.041 1.041-1.041s1.041 0.467 1.041 1.041c0 0.574-0.467 1.041-1.041 1.041s-1.041-0.467-1.041-1.041zM19.145 25.625c-0.245 0-0.479 0.050-0.692 0.139 0.034-0.138 0.053-0.282 0.053-0.431 0-0.024-0.001-0.049-0.002-0.073 0.289 0.199 0.639 0.316 1.016 0.316 0.632 0 1.189-0.329 1.509-0.824l-0.102 1.58c-0.016 0.175-0.044 0.345-0.083 0.509-0.241-0.707-0.912-1.216-1.699-1.216zM18.479 23.781c0-0.574 0.467-1.041 1.041-1.041s1.041 0.467 1.041 1.041c0 0.574-0.467 1.041-1.041 1.041s-1.041-0.467-1.041-1.041zM19.52 21.986c-0.99 0-1.795 0.805-1.795 1.795 0 0.024 0.001 0.049 0.002 0.073-0.289-0.199-0.639-0.316-1.016-0.316-0.354 0-0.683 0.103-0.962 0.28 0-0.012 0.001-0.025 0.001-0.037 0-0.325-0.087-0.63-0.239-0.893 0.954-0.041 1.718-0.829 1.718-1.793 0-0.99-0.805-1.795-1.795-1.795s-1.795 0.805-1.795 1.795c0 0.325 0.087 0.63 0.239 0.893-0.702 0.030-1.3 0.465-1.568 1.077l-0.501-7.514h9.811l-0.479 7.459c-0.289-0.605-0.907-1.023-1.62-1.023zM11.758 14.796l-0.3-4.497h10.499l-0.289 4.497zM24.054 6.494c-0.001 0.006-0.001 0.011-0.001 0.017l-1.587 21.172c-0.183 1.745-1.642 3.060-3.398 3.060h-4.667c-1.745 0-3.203-1.306-3.395-3.040l-1.648-21.189c-0.001-0.006-0.001-0.013-0.002-0.019-0.012-0.113 0.041-0.191 0.073-0.228s0.105-0.098 0.219-0.098h10.108l-0.893 3.374h-7.808c-0.104 0-0.204 0.043-0.275 0.119s-0.108 0.179-0.101 0.283l1.097 16.459c0 0.003 0 0.006 0.001 0.010 0.178 1.924 1.584 3.375 3.27 3.375h3.36c1.696 0 3.103-1.46 3.272-3.396 0-0.003 0-0.006 0.001-0.009l1.056-16.44c0.007-0.104-0.030-0.206-0.101-0.282s-0.171-0.119-0.275-0.119h-0.812l0.893-3.374h1.322c0.114 0 0.185 0.061 0.218 0.097s0.086 0.114 0.074 0.227z"></path>
<path fill="#3c122c" d="M19.392 17.711c-0.99 0-1.795 0.805-1.795 1.795s0.805 1.795 1.795 1.795 1.795-0.805 1.795-1.795c0-0.99-0.805-1.795-1.795-1.795zM19.392 20.547c-0.574 0-1.041-0.467-1.041-1.041s0.467-1.041 1.041-1.041c0.574 0 1.041 0.467 1.041 1.041s-0.467 1.041-1.041 1.041z"></path>
<path fill="#fff" d="M16.351 8.203c-0.005 0-0.009-0-0.014-0-0.938-0.020-1.874-0.022-2.781-0.006-0.346 0.007-0.634-0.27-0.64-0.617s0.27-0.634 0.617-0.64c0.923-0.017 1.876-0.015 2.831 0.006 0.347 0.008 0.622 0.295 0.615 0.642-0.007 0.342-0.287 0.615-0.628 0.615z"></path>
<path fill="#fff" d="M11.314 8.203h-0.708c-0.347 0-0.629-0.281-0.629-0.629s0.281-0.629 0.629-0.629h0.708c0.347 0 0.629 0.281 0.629 0.629s-0.281 0.629-0.629 0.629z"></path>
<path fill="#3c122c" d="M18.103 14.158c-0.208 0-0.377-0.169-0.377-0.377v-0.883c0-0.208 0.169-0.377 0.377-0.377s0.377 0.169 0.377 0.377v0.883c0 0.208-0.169 0.377-0.377 0.377z"></path>
<path fill="#3c122c" d="M19.944 13.654c-0.208 0-0.377-0.169-0.377-0.377v-0.883c0-0.208 0.169-0.377 0.377-0.377s0.377 0.169 0.377 0.377v0.883c0 0.208-0.169 0.377-0.377 0.377z"></path>
</svg>
