<!-- Generated by IcoMoon.io -->
<svg version="1.1" xmlns="http://www.w3.org/2000/svg" width="32" height="32" viewBox="0 0 32 32">
<title>cappuccino</title>
<path fill="#fff" d="M29.587 18.852c-0.427-1.139-2.154-1.704-4.113-1.693 0-0.030 0.001-0.060 0.001-0.090 0-1.77-0.761-3.222-2.010-4.355-0.197-0.517-0.466-1.036-0.832-1.531-0.256-1.775-1.665-3.133-3.365-3.133-0.474 0-0.925 0.106-1.335 0.296-1.169-0.284-2.559-0.448-4.214-0.448-1.647 0-3.032 0.163-4.197 0.444-0.308-0.158-0.652-0.246-1.016-0.246-1.011 0-1.875 0.684-2.226 1.651-0.012 0.008-0.024 0.016-0.035 0.025-0.192-0.054-0.393-0.083-0.6-0.083-1.322 0-2.395 1.169-2.395 2.612 0 0.344 0.061 0.672 0.172 0.973-0.917 1.039-1.458 2.304-1.458 3.796 0 4.537 2.571 8.474 6.336 10.434-0.47 0.267-0.736 0.601-0.736 1.007 0 1.305 2.756 2.862 6.156 2.862s6.156-1.557 6.156-2.862c0-0.406-0.267-0.739-0.736-1.007 1.108-0.576 2.111-1.324 2.977-2.208 1.091 0.361 2.331 0.401 3.557 0.037 2.963-0.881 4.903-3.845 3.914-6.48zM25.249 23.419c-0.576 0.171-1.156 0.188-1.685 0.076 0.86-1.314 1.463-2.811 1.74-4.419 1.035 0.002 1.928 0.291 2.149 0.873 0.529 1.394-0.562 2.983-2.203 3.471z"></path>
<path fill="#e1bdfc" d="M24.271 13.58c0.017 1.376-0.261 2.759-1.017 3.859-0.801 4.824-5.46 8.527-10.753 8.527-5.603 0-10.183-4.149-10.518-9.385-0.013 0.16-0.020 0.323-0.020 0.489 0 6.492 5.263 11.756 11.756 11.756s11.756-5.263 11.756-11.756c0-1.348-0.441-2.511-1.203-3.489z"></path>
<path fill="#c49a8b" d="M12.004 12.29c0 0.492-0.621 0.891-1.386 0.891s-1.386-0.399-1.386-0.891c0-0.492 0.621-0.891 1.386-0.891s1.386 0.399 1.386 0.891z"></path>
<path fill="#c49a8b" d="M8.817 14.45c0.077-0.123 0.12-0.258 0.12-0.399 0-0.589-0.743-1.067-1.66-1.067s-1.66 0.478-1.66 1.067c0 0.527 0.595 0.965 1.377 1.051-0.143 0.173-0.225 0.37-0.225 0.58 0 0.682 0.86 1.235 1.921 1.235s1.921-0.553 1.921-1.235c0-0.655-0.793-1.191-1.795-1.232z"></path>
<path fill="#c49a8b" d="M16.415 11.117c0 0.492-0.621 0.891-1.386 0.891s-1.386-0.399-1.386-0.891c0-0.492 0.621-0.891 1.386-0.891s1.386 0.399 1.386 0.891z"></path>
<path fill="#c49a8b" d="M21.422 13.405c0 0.684-0.863 1.239-1.928 1.239s-1.928-0.555-1.928-1.239c0-0.684 0.863-1.239 1.928-1.239s1.928 0.555 1.928 1.239z"></path>
<path fill="#faf1a9" d="M28.788 6.861l0.517 1.452c0.022 0.062 0.066 0.111 0.121 0.136l1.29 0.581c0.182 0.082 0.182 0.373 0 0.455l-1.29 0.581c-0.055 0.025-0.099 0.074-0.121 0.136l-0.517 1.452c-0.073 0.205-0.331 0.205-0.404 0l-0.517-1.452c-0.022-0.062-0.066-0.111-0.121-0.136l-1.29-0.581c-0.182-0.082-0.182-0.373 0-0.455l1.29-0.581c0.055-0.025 0.099-0.074 0.121-0.136l0.517-1.452c0.073-0.205 0.331-0.205 0.404 0z"></path>
<path fill="#f6e06e" d="M3.402 5.463c0 0.623-0.505 1.128-1.128 1.128s-1.128-0.505-1.128-1.128c0-0.623 0.505-1.128 1.128-1.128s1.128 0.505 1.128 1.128z"></path>
<path fill="#faf1a9" d="M24.475 1.85l0.383 1.077c0.016 0.046 0.049 0.083 0.090 0.101l0.957 0.431c0.135 0.061 0.135 0.276 0 0.337l-0.957 0.431c-0.041 0.018-0.073 0.055-0.090 0.101l-0.383 1.077c-0.054 0.152-0.246 0.152-0.3 0l-0.383-1.077c-0.016-0.046-0.049-0.083-0.090-0.101l-0.957-0.431c-0.135-0.061-0.135-0.276 0-0.337l0.957-0.431c0.041-0.018 0.073-0.055 0.090-0.101l0.383-1.077c0.054-0.152 0.246-0.152 0.3 0z"></path>
<path fill="#3c122c" d="M10.617 13.559c0.989 0 1.764-0.557 1.764-1.269s-0.775-1.269-1.764-1.269-1.764 0.557-1.764 1.269 0.775 1.269 1.764 1.269zM10.617 11.776c0.568 0 1.009 0.276 1.009 0.514s-0.441 0.514-1.009 0.514-1.009-0.276-1.009-0.514c0-0.238 0.441-0.514 1.009-0.514z"></path>
<path fill="#3c122c" d="M9.312 14.127c0.002-0.025 0.003-0.051 0.003-0.076 0-0.81-0.895-1.444-2.037-1.444s-2.037 0.634-2.037 1.444c0 0.585 0.479 1.091 1.194 1.318-0.028 0.102-0.042 0.207-0.042 0.313 0 0.904 1.010 1.613 2.299 1.613s2.299-0.708 2.299-1.613c0-0.749-0.694-1.368-1.678-1.555zM8.691 16.54c-0.91 0-1.544-0.452-1.544-0.858 0-0.114 0.046-0.229 0.138-0.339 0.088-0.107 0.111-0.254 0.059-0.382s-0.17-0.218-0.308-0.233c-0.574-0.063-1.041-0.367-1.041-0.676 0-0.326 0.549-0.69 1.283-0.69s1.283 0.364 1.283 0.69c0 0.065-0.021 0.132-0.063 0.198-0.072 0.114-0.077 0.257-0.014 0.376s0.184 0.196 0.318 0.201c0.858 0.036 1.434 0.471 1.434 0.855-0 0.406-0.634 0.858-1.544 0.858z"></path>
<path fill="#3c122c" d="M15.029 12.385c0.989 0 1.764-0.557 1.764-1.269s-0.775-1.269-1.764-1.269-1.764 0.557-1.764 1.269c0 0.711 0.775 1.269 1.764 1.269zM15.029 10.603c0.568 0 1.009 0.276 1.009 0.514s-0.441 0.514-1.009 0.514-1.009-0.276-1.009-0.514c0-0.238 0.441-0.514 1.009-0.514z"></path>
<path fill="#3c122c" d="M21.799 13.405c0-0.907-1.013-1.617-2.305-1.617s-2.305 0.71-2.305 1.617c0 0.284 0.099 0.549 0.276 0.778-0.24 0.007-0.479 0.050-0.709 0.13-0.483-0.869-1.413-1.431-2.426-1.431-1.528 0-2.772 1.244-2.772 2.772 0 0.208 0.169 0.377 0.377 0.377s0.377-0.169 0.377-0.377c0-1.112 0.905-2.017 2.017-2.017 0.835 0 1.593 0.524 1.888 1.305 0.073 0.195 0.291 0.293 0.486 0.22 0.032-0.012 0.061-0.028 0.087-0.047 0.009-0.004 0.018-0.007 0.028-0.012 0.429-0.212 0.925-0.222 1.361-0.027 0.612 0.275 0.989 0.908 0.937 1.577-0.016 0.208 0.139 0.389 0.347 0.405 0.010 0.001 0.020 0.001 0.029 0.001 0.195 0 0.36-0.15 0.376-0.348 0.048-0.627-0.159-1.232-0.548-1.694 0.057 0.003 0.115 0.005 0.173 0.005 1.293 0 2.305-0.71 2.305-1.617zM19.494 12.543c0.914 0 1.551 0.454 1.551 0.862s-0.637 0.862-1.551 0.862c-0.914 0-1.551-0.454-1.551-0.862s0.637-0.862 1.551-0.862z"></path>
<path fill="#3c122c" d="M30.175 18.631c-0.272-0.725-0.927-1.3-1.895-1.663-0.646-0.242-1.4-0.381-2.198-0.424-0.126-1.605-0.836-3.026-2.087-4.199-0.204-0.503-0.459-0.974-0.765-1.409-0.17-0.944-0.63-1.806-1.307-2.443-0.735-0.691-1.677-1.072-2.654-1.072-0.48 0-0.947 0.089-1.392 0.266-1.224-0.277-2.621-0.417-4.157-0.417-1.525 0-2.913 0.138-4.131 0.412-0.345-0.142-0.708-0.214-1.082-0.214-1.095 0-2.075 0.615-2.611 1.604-0.083-0.007-0.167-0.011-0.251-0.011-1.667 0-3.023 1.454-3.023 3.241 0 0.281 0.034 0.558 0.099 0.825-0.913 1.142-1.385 2.472-1.385 3.944 0 4.448 2.358 8.355 5.888 10.539-0.186 0.259-0.289 0.557-0.289 0.901 0 0.9 0.785 1.805 2.153 2.484 1.31 0.649 2.955 1.007 4.633 1.007s3.323-0.358 4.632-1.007c1.368-0.678 2.153-1.584 2.153-2.484 0-0.344-0.103-0.642-0.289-0.901 0.747-0.462 1.441-1 2.071-1.605 0.533 0.142 1.086 0.213 1.644 0.213 0.639 0 1.287-0.094 1.921-0.282 1.767-0.525 3.285-1.772 4.063-3.335 0.643-1.294 0.736-2.703 0.261-3.969zM25.866 19.486c0.247 0.031 0.476 0.082 0.675 0.158 0.209 0.079 0.475 0.219 0.558 0.438 0.225 0.593 0.065 1.135-0.108 1.485-0.342 0.69-1.033 1.247-1.85 1.49-0.218 0.065-0.437 0.104-0.653 0.12 0.644-1.132 1.115-2.374 1.377-3.691zM5.644 10.317c0.146 0 0.29 0.020 0.43 0.059 0.184 0.052 0.382 0.017 0.538-0.095l0.032-0.023c0.104-0.074 0.183-0.178 0.226-0.298 0.273-0.751 0.915-1.236 1.635-1.236 0.254 0 0.499 0.060 0.729 0.177 0.134 0.069 0.288 0.087 0.434 0.051 1.172-0.283 2.534-0.426 4.050-0.426 1.522 0 2.89 0.145 4.066 0.43 0.139 0.034 0.284 0.019 0.413-0.041 0.339-0.158 0.699-0.238 1.070-0.238 1.372 0 2.525 1.091 2.742 2.594 0.015 0.103 0.055 0.2 0.117 0.284 0.807 1.093 1.217 2.483 1.217 4.131 0 1.53-2.124 2.948-5.411 3.613-0.241 0.049-0.432 0.234-0.488 0.474-0.152 0.657-0.943 1.152-1.838 1.152-0.61 0-1.185-0.228-1.538-0.609-0.119-0.129-0.287-0.202-0.462-0.202-0.004 0-0.009 0-0.013 0-0.18 0.004-0.35 0.084-0.466 0.221-0.188 0.221-0.651 0.445-1.26 0.445-0.815 0-1.356-0.396-1.356-0.658 0-0.004 0-0.013 0.002-0.030 0.044-0.335-0.183-0.645-0.516-0.702-1.807-0.314-3.324-0.848-4.388-1.543-0.691-0.452-1.515-1.194-1.515-2.162 0-0.632 0.061-1.235 0.182-1.79 0.035-0.16 0.006-0.327-0.081-0.466-0.208-0.333-0.317-0.725-0.317-1.133 0-1.093 0.792-1.983 1.766-1.983zM2.592 17.069c0-0.571 0.091-1.090 0.247-1.564-0.001 0.061-0.002 0.122-0.002 0.183 0 1.211 0.721 2.323 2.085 3.215 1.11 0.726 2.621 1.29 4.393 1.643 0.255 0.865 1.285 1.495 2.553 1.495 0.655 0 1.265-0.169 1.733-0.469 0.556 0.395 1.26 0.614 2.006 0.614 1.323 0 2.488-0.706 2.931-1.727 3.805-0.847 6.063-2.616 6.063-4.771 0-0.063-0.002-0.124-0.003-0.186 0.157 0.475 0.247 0.996 0.247 1.567 0 6.135-4.991 11.127-11.127 11.127s-11.127-4.991-11.127-11.127zM19.247 28.509c0 0.306-0.455 0.862-1.454 1.357-1.123 0.557-2.608 0.876-4.074 0.876s-2.951-0.319-4.074-0.876c-0.999-0.495-1.454-1.050-1.454-1.357 0-0.089 0.053-0.184 0.158-0.281 1.625 0.785 3.447 1.225 5.369 1.225s3.744-0.44 5.369-1.226c0.106 0.097 0.158 0.192 0.158 0.281zM28.788 22.040c-0.625 1.256-1.856 2.262-3.295 2.689-0.732 0.217-1.481 0.279-2.203 0.19 0.259-0.315 0.503-0.644 0.73-0.984 0.077 0.005 0.154 0.008 0.231 0.008 0.362 0 0.735-0.052 1.105-0.162 1.014-0.301 1.878-1.003 2.311-1.879 0.339-0.685 0.388-1.426 0.137-2.087-0.145-0.382-0.489-0.685-0.997-0.877-0.246-0.093-0.523-0.158-0.818-0.197 0.042-0.31 0.072-0.623 0.091-0.939 0.643 0.040 1.246 0.153 1.758 0.344 0.43 0.161 0.981 0.453 1.159 0.927 0.351 0.935 0.277 1.989-0.209 2.967z"></path>
<path fill="#3c122c" d="M13.719 27.016c-0.207 0-0.375-0.166-0.377-0.373-0.002-0.208 0.165-0.379 0.373-0.381 1.482-0.015 2.969-0.395 4.184-1.070 0.182-0.101 0.412-0.035 0.513 0.147s0.035 0.412-0.147 0.513c-1.324 0.734-2.937 1.148-4.543 1.164-0.001 0-0.003 0-0.004 0z"></path>
<path fill="#3c122c" d="M19.843 24.636c-0.102 0-0.204-0.041-0.278-0.122-0.141-0.154-0.13-0.392 0.023-0.533 0.266-0.244 0.52-0.507 0.753-0.782 0.135-0.159 0.373-0.178 0.532-0.043s0.178 0.373 0.043 0.532c-0.254 0.298-0.529 0.584-0.818 0.849-0.072 0.066-0.164 0.099-0.255 0.099z"></path>
<path fill="#3c122c" d="M7.788 6.016c-0.137 0-0.275-0.045-0.39-0.136-0.272-0.216-0.318-0.611-0.102-0.883 0.136-0.174 0.493-0.731 0.493-1.195 0-0.178-0.045-0.234-0.178-0.402-0.179-0.226-0.451-0.568-0.451-1.184 0-0.984 0.687-1.878 0.765-1.977 0.216-0.272 0.611-0.318 0.883-0.102s0.318 0.61 0.103 0.882c-0.138 0.176-0.494 0.733-0.494 1.196 0 0.177 0.045 0.234 0.178 0.402 0.179 0.226 0.45 0.568 0.45 1.184 0 0.984-0.687 1.878-0.765 1.977-0.124 0.157-0.308 0.238-0.493 0.238z"></path>
<path fill="#3c122c" d="M17.849 6.016c-0.137 0-0.275-0.045-0.39-0.136-0.272-0.216-0.318-0.611-0.102-0.883 0.136-0.174 0.493-0.731 0.493-1.195 0-0.178-0.045-0.234-0.178-0.402-0.179-0.226-0.451-0.568-0.451-1.184 0-0.984 0.687-1.878 0.765-1.977 0.216-0.272 0.611-0.318 0.883-0.102s0.318 0.61 0.103 0.882c-0.138 0.176-0.494 0.733-0.494 1.196 0 0.177 0.045 0.234 0.178 0.402 0.179 0.226 0.451 0.568 0.451 1.184 0 0.984-0.687 1.878-0.765 1.977-0.124 0.157-0.308 0.238-0.493 0.238z"></path>
<path fill="#3c122c" d="M12.819 6.016c-0.137 0-0.275-0.045-0.39-0.136-0.272-0.216-0.318-0.611-0.102-0.883 0.136-0.174 0.493-0.731 0.493-1.195 0-0.178-0.045-0.234-0.178-0.402-0.179-0.226-0.45-0.568-0.45-1.184 0-0.984 0.687-1.878 0.765-1.977 0.216-0.272 0.611-0.318 0.883-0.102s0.318 0.61 0.103 0.882c-0.138 0.176-0.494 0.733-0.494 1.196 0 0.177 0.045 0.234 0.178 0.402 0.179 0.226 0.45 0.568 0.45 1.184 0 0.984-0.687 1.878-0.765 1.977-0.124 0.157-0.308 0.238-0.493 0.238z"></path>
</svg>
