<!-- Generated by IcoMoon.io -->
<svg version="1.1" xmlns="http://www.w3.org/2000/svg" width="32" height="32" viewBox="0 0 32 32">
<title>cocktail-shaker</title>
<path fill="#96b4eb" d="M30.956 4.096l-3.034-3.034c-0.557-0.557-1.46-0.557-2.017 0l-3.117 3.117c-1.702-0.853-3.808-0.659-5.34 0.626l-2.295 1.926c-0.405-0.275-0.961-0.233-1.321 0.126l-0.186 0.186c-0.344 0.344-0.396 0.868-0.158 1.268l-12.522 13.061c-0.464 0.484-0.456 1.249 0.018 1.723l7.895 7.895c0.473 0.473 1.236 0.482 1.72 0.021l13.108-12.48c0.4 0.237 0.924 0.185 1.267-0.159l0.186-0.186c0.362-0.362 0.401-0.923 0.119-1.329l1.918-2.258c1.304-1.535 1.504-3.657 0.642-5.37l3.116-3.116c0.557-0.557 0.557-1.46-0-2.017z"></path>
<path fill="#8286ea" d="M30.956 4.096l-3.034-3.034c-0.557-0.557-1.46-0.557-2.017 0l-0.157 0.157 2.299 2.299c0.497 0.497 0.497 1.303 0 1.8l-2.031 2.031c0.769 1.529 0.591 3.423-0.573 4.794l-2.463 2.766c0.251 0.363 0.216 0.864-0.107 1.187l-0.166 0.166c-0.307 0.307-0.775 0.354-1.131 0.142l-11.702 11.141c-0.432 0.411-1.114 0.403-1.535-0.019l-6.776-6.776-0.597 0.622c-0.464 0.484-0.456 1.249 0.018 1.723l7.895 7.895c0.473 0.473 1.236 0.482 1.72 0.021l13.108-12.48c0.4 0.237 0.924 0.185 1.267-0.159l0.186-0.186c0.362-0.362 0.401-0.923 0.119-1.329l1.918-2.258c1.304-1.535 1.504-3.657 0.642-5.37l3.116-3.116c0.557-0.557 0.557-1.46 0-2.017z"></path>
<path fill="#c1e5ef" d="M7.404 0.264l0.515 1.449c0.022 0.062 0.066 0.111 0.121 0.136l1.287 0.58c0.182 0.082 0.182 0.372 0 0.454l-1.287 0.58c-0.055 0.025-0.099 0.074-0.121 0.136l-0.515 1.449c-0.073 0.205-0.33 0.205-0.403 0l-0.515-1.449c-0.022-0.062-0.066-0.111-0.121-0.136l-1.288-0.58c-0.182-0.082-0.182-0.372 0-0.454l1.287-0.58c0.055-0.025 0.099-0.074 0.121-0.136l0.515-1.449c0.073-0.205 0.33-0.205 0.403 0z"></path>
<path fill="#96b4eb" d="M4.873 8.706c0.574 0.238 0.847 0.897 0.609 1.471s-0.897 0.847-1.471 0.609c-0.574-0.238-0.847-0.897-0.609-1.471s0.897-0.847 1.471-0.609z"></path>
<path fill="#96b4eb" d="M15.38 1.451c0.266 0.033 0.456 0.275 0.423 0.541s-0.275 0.456-0.541 0.423c-0.266-0.033-0.456-0.275-0.423-0.541s0.275-0.456 0.541-0.423z"></path>
<path fill="#c1e5ef" d="M30.4 18.576l0.382 1.075c0.016 0.046 0.049 0.082 0.090 0.101l0.955 0.43c0.135 0.061 0.135 0.276 0 0.337l-0.955 0.43c-0.041 0.018-0.073 0.055-0.090 0.101l-0.382 1.075c-0.054 0.152-0.245 0.152-0.299 0l-0.382-1.075c-0.016-0.046-0.049-0.082-0.090-0.101l-0.955-0.43c-0.135-0.061-0.135-0.276 0-0.337l0.955-0.43c0.041-0.018 0.073-0.055 0.090-0.101l0.382-1.075c0.054-0.152 0.245-0.152 0.299 0z"></path>
<path fill="#3c122c" d="M31.4 3.653l-3.034-3.034c-0.801-0.801-2.103-0.8-2.904 0l-2.812 2.812c-0.573-0.23-1.185-0.364-1.814-0.392-1.384-0.060-2.73 0.396-3.791 1.287l-1.991 1.671c-0.155-0.047-0.318-0.071-0.485-0.071-0.446 0-0.865 0.174-1.18 0.489l-0.186 0.186c-0.424 0.424-0.571 1.020-0.443 1.565l-12.246 12.773c-0.695 0.724-0.682 1.891 0.027 2.601l7.895 7.895c0.365 0.365 0.839 0.549 1.314 0.549 0.46 0 0.92-0.172 1.282-0.517l12.821-12.206c0.127 0.030 0.256 0.045 0.386 0.045 0.427 0 0.855-0.163 1.18-0.488l0.186-0.186c0.315-0.315 0.489-0.735 0.489-1.18 0-0.17-0.025-0.336-0.074-0.494l1.657-1.951c0.901-1.060 1.366-2.41 1.309-3.8-0.026-0.638-0.162-1.259-0.396-1.839l2.809-2.809c0.801-0.801 0.801-2.103 0-2.904zM10.166 30.556c-0.239 0.228-0.61 0.223-0.844-0.010l-7.895-7.895c-0.231-0.231-0.235-0.61-0.009-0.845l12.055-12.574 9.311 9.311zM24.717 17.742l-0.186 0.186c-0.162 0.162-0.425 0.162-0.586 0l-9.855-9.855c-0.162-0.162-0.162-0.425 0-0.586l0.186-0.186c0.078-0.078 0.182-0.121 0.293-0.121s0.215 0.043 0.293 0.121l9.855 9.855c0.078 0.078 0.121 0.182 0.121 0.293s-0.043 0.215-0.121 0.293zM26.72 14.192l-1.466 1.726-9.159-9.159 1.756-1.473c1.708-1.433 4.185-1.325 5.761 0.252l2.873 2.873c1.56 1.56 1.663 4.1 0.235 5.781zM30.512 5.669l-2.551 2.551c-0.176-0.246-0.372-0.479-0.589-0.696l-2.873-2.873c-0.219-0.219-0.455-0.416-0.703-0.593l2.552-2.552c0.151-0.151 0.351-0.234 0.565-0.234s0.414 0.083 0.565 0.234l3.034 3.034c0.151 0.151 0.234 0.351 0.234 0.565s-0.083 0.414-0.234 0.565z"></path>
<path fill="#fff" d="M13.27 12.358c-0.153 0-0.306-0.055-0.426-0.167-0.254-0.236-0.269-0.633-0.034-0.887l0.26-0.28c0.236-0.254 0.633-0.269 0.887-0.033s0.269 0.633 0.033 0.887l-0.259 0.279c-0.124 0.133-0.292 0.201-0.46 0.201z"></path>
<path fill="#fff" d="M9.531 16.388c-0.153 0-0.306-0.055-0.427-0.167-0.254-0.236-0.269-0.633-0.033-0.887l2.356-2.539c0.236-0.254 0.633-0.269 0.887-0.033s0.269 0.633 0.033 0.887l-2.356 2.539c-0.124 0.133-0.292 0.201-0.46 0.201z"></path>
<path fill="#3c122c" d="M9.686 25.433c-0.096 0-0.193-0.037-0.266-0.11-0.147-0.147-0.147-0.385 0-0.532l0.544-0.544c0.147-0.147 0.385-0.147 0.532-0s0.147 0.385 0 0.532l-0.544 0.544c-0.073 0.073-0.17 0.11-0.266 0.11z"></path>
<path fill="#3c122c" d="M12.627 25.409c-0.096 0-0.193-0.037-0.266-0.11-0.147-0.147-0.147-0.385 0-0.532l0.544-0.544c0.147-0.147 0.385-0.147 0.532 0s0.147 0.385 0 0.532l-0.544 0.544c-0.073 0.073-0.17 0.11-0.266 0.11z"></path>
<path fill="#3c122c" d="M13.688 22.925c-0.096 0-0.193-0.037-0.266-0.11-0.147-0.147-0.147-0.385 0-0.532l0.544-0.544c0.147-0.147 0.385-0.147 0.532 0s0.147 0.385 0 0.532l-0.544 0.544c-0.073 0.073-0.17 0.11-0.266 0.11z"></path>
</svg>
