<!-- Generated by IcoMoon.io -->
<svg version="1.1" xmlns="http://www.w3.org/2000/svg" width="32" height="32" viewBox="0 0 32 32">
<title>cocktail</title>
<path fill="#fff" d="M21.407 31.372h-8.201c-2.645 0-4.822-2.082-4.941-4.724l-0.64-14.288c-0.038-0.852 0.642-1.564 1.496-1.564h16.37c0.853 0 1.534 0.712 1.496 1.564l-0.64 14.288c-0.118 2.643-2.295 4.724-4.941 4.724z"></path>
<path fill="#e1bdfc" d="M25.492 10.796h-4.279c0.649 0 1.166 0.541 1.137 1.19l-0.176 3.927h1.512c0.137 0 0.227 0.072 0.271 0.167 0.094 0.044 0.165 0.134 0.165 0.27v8.175c0 0.185-0.131 0.285-0.273 0.301v3.296h-0.639c0.019 0.169-0.081 0.355-0.301 0.355h-11.159c-0.22 0-0.32-0.185-0.301-0.355l-0.558-0.245-0.327-1.431h-0.467c-0.876 0-1.618-0.591-1.841-1.402l0.112 2.241c0.060 1.342 2.221 3.799 3.564 3.799h10.893c1.343 0 3.357-2.457 3.417-3.799l0.744-14.923c0.038-0.852-0.643-1.564-1.496-1.564z"></path>
<path fill="#a1e8c3" d="M15.522 2.768c0.267 1.379 0.066 2.577-0.447 2.676s-1.147-0.938-1.413-2.316c-0.267-1.379-0.066-2.577 0.447-2.676s1.147 0.938 1.413 2.316z"></path>
<path fill="#a1e8c3" d="M17.24 2.511c0.522 0.032 0.875 1.194 0.788 2.595s-0.581 2.51-1.103 2.478c-0.522-0.032-0.875-1.194-0.788-2.595s0.581-2.51 1.103-2.478z"></path>
<path fill="#a1e8c3" d="M19.738 4.503c0.503 0.144 0.596 1.355 0.209 2.704s-1.109 2.326-1.612 2.181c-0.503-0.144-0.596-1.355-0.209-2.704s1.109-2.326 1.612-2.181z"></path>
<path fill="#a1e8c3" d="M21.904 7.23c0.448 0.27 0.225 1.464-0.5 2.667s-1.675 1.959-2.123 1.689c-0.448-0.27-0.225-1.464 0.5-2.667s1.675-1.959 2.123-1.689z"></path>
<path fill="#a1e8c3" d="M23.896 10.166c0.353 0.386-0.2 1.467-1.236 2.415s-2.162 1.403-2.515 1.017c-0.353-0.386 0.2-1.467 1.236-2.415s2.162-1.403 2.515-1.017z"></path>
<path fill="#a1e8c3" d="M11.772 4.308c1.395 0.154 2.48 0.701 2.422 1.221s-1.235 0.816-2.631 0.662c-1.395-0.154-2.48-0.701-2.422-1.221s1.235-0.816 2.631-0.662z"></path>
<path fill="#a1e8c3" d="M16.013 7.337c0.078 0.517-0.984 1.107-2.373 1.316s-2.577-0.041-2.655-0.558c-0.078-0.517 0.984-1.107 2.373-1.316s2.577 0.041 2.655 0.558z"></path>
<path fill="#a1e8c3" d="M17.392 9.369c0.131 0.506-0.864 1.203-2.223 1.555s-2.567 0.227-2.698-0.279c-0.131-0.506 0.864-1.203 2.223-1.555s2.567-0.227 2.698 0.279z"></path>
<path fill="#a1e8c3" d="M18.948 11.857c0.058 0.52-1.026 1.068-2.421 1.224s-2.574-0.139-2.632-0.66c-0.058-0.52 1.026-1.068 2.421-1.224s2.574 0.139 2.632 0.66z"></path>
<path fill="#85adc2" d="M23.94 10.796h-2.116c-0.045 0.034-0.090 0.069-0.134 0.106 0.406 0.188 0.681 0.607 0.66 1.084l-0.039 0.879c0.115-0.092 0.229-0.189 0.343-0.293 0.666-0.61 1.132-1.275 1.286-1.775z"></path>
<path fill="#f3d4d2" d="M22.008 28.766h-9.403c-0.982 0-1.79-0.662-1.834-1.503l-0.544-10.415c-0.028-0.534 0.47-0.98 1.094-0.98h11.972c0.624 0 1.122 0.446 1.094 0.98l-0.544 10.415c-0.044 0.841-0.852 1.503-1.834 1.503z"></path>
<path fill="#dba2b3" d="M22.168 16.062l-0.383 8.558c-0.046 1.020-0.886 1.824-1.907 1.824h-9.147v1.295c0.266 0.296 0.518 0.604 0.77 0.913h11.46c0.443-0.367 0.456-0.758 0.891-1.145l0.45-11.445h-2.132z"></path>
<path fill="#fff" d="M17.082 20.673l-0.56-1.846c-0.183-0.602-0.82-0.943-1.422-0.76l-1.775 0.539c-0.602 0.183-0.943 0.82-0.76 1.422l0.56 1.846c0.183 0.602 0.82 0.943 1.422 0.76l1.775-0.539c0.602-0.183 0.943-0.82 0.76-1.422z"></path>
<path fill="#cdf4e3" d="M29.227 1.054l0.56 1.575c0.024 0.067 0.071 0.121 0.131 0.148l1.399 0.63c0.198 0.089 0.198 0.404 0 0.493l-1.399 0.63c-0.060 0.027-0.107 0.080-0.131 0.148l-0.56 1.575c-0.079 0.223-0.359 0.223-0.438 0l-0.56-1.575c-0.024-0.067-0.071-0.121-0.131-0.148l-1.399-0.63c-0.198-0.089-0.198-0.404 0-0.493l1.399-0.63c0.060-0.027 0.107-0.080 0.131-0.148l0.56-1.575c0.079-0.223 0.359-0.223 0.438 0z"></path>
<path fill="#a2e9c4" d="M5.753 1.713c0 0.675-0.548 1.223-1.223 1.223s-1.223-0.548-1.223-1.223 0.548-1.223 1.223-1.223c0.675 0 1.223 0.547 1.223 1.223z"></path>
<path fill="#a2e9c4" d="M22.846 0.528c0 0.291-0.236 0.528-0.528 0.528s-0.528-0.236-0.528-0.528 0.236-0.528 0.528-0.528 0.528 0.236 0.528 0.528z"></path>
<path fill="#cdf4e3" d="M2.519 9.489l0.415 1.168c0.018 0.050 0.053 0.090 0.097 0.11l1.038 0.468c0.147 0.066 0.147 0.3 0 0.366l-1.038 0.468c-0.044 0.020-0.080 0.060-0.097 0.11l-0.415 1.168c-0.059 0.165-0.266 0.165-0.325 0l-0.415-1.168c-0.018-0.050-0.053-0.090-0.097-0.11l-1.038-0.468c-0.147-0.066-0.147-0.3 0-0.366l1.038-0.468c0.044-0.020 0.080-0.060 0.097-0.11l0.415-1.168c0.059-0.165 0.266-0.165 0.325 0z"></path>
<path fill="#3c122c" d="M27.028 10.824c-0.405-0.423-0.95-0.656-1.536-0.656h-1.165c-0.034-0.097-0.086-0.187-0.16-0.267-0.201-0.22-0.612-0.414-1.421-0.086-0.218 0.088-0.447 0.208-0.679 0.353h-0.402c0.017-0.027 0.034-0.053 0.050-0.080 0.373-0.619 0.634-1.261 0.736-1.808 0.16-0.858-0.111-1.221-0.366-1.375s-0.704-0.223-1.387 0.321c-0.178 0.142-0.357 0.314-0.532 0.511 0.051-0.143 0.098-0.287 0.139-0.432 0.387-1.351 0.406-2.92-0.468-3.171-0.524-0.15-1.027 0.271-1.429 0.924 0.072-1.383-0.252-2.869-1.145-2.924-0.596-0.037-1.018 0.588-1.264 1.418-0.018-0.275-0.055-0.561-0.11-0.85-0.137-0.71-0.372-1.362-0.662-1.837-0.455-0.745-0.899-0.835-1.192-0.778s-0.672 0.305-0.817 1.166c-0.092 0.549-0.067 1.241 0.070 1.951 0.081 0.417 0.2 0.836 0.352 1.214-0.491-0.237-1.139-0.41-1.834-0.486-1.397-0.154-2.946 0.092-3.046 0.997s1.359 1.482 2.756 1.636c0.26 0.029 0.516 0.043 0.763 0.043 0.035 0 0.070-0.001 0.105-0.001-0.356 0.105-0.679 0.235-0.948 0.385-0.763 0.423-0.871 0.864-0.826 1.159s0.277 0.684 1.131 0.864c0.281 0.059 0.601 0.088 0.943 0.088 0.322 0 0.663-0.026 1.009-0.078 0.005-0.001 0.011-0.002 0.016-0.003-0.711 0.292-1.313 0.693-1.537 1.147h-3.052c-0.586 0-1.131 0.233-1.536 0.656s-0.613 0.979-0.587 1.564l0.64 14.288c0.134 2.986 2.579 5.324 5.568 5.324h8.201c2.989 0 5.434-2.339 5.568-5.324l0.64-14.288c0.026-0.585-0.182-1.14-0.587-1.564zM18.574 11.886c-0.018 0.174-0.749 0.661-2.088 0.811s-2.16-0.162-2.215-0.323c0.018-0.174 0.749-0.661 2.088-0.811 0.248-0.028 0.478-0.040 0.688-0.040 0.928 0 1.482 0.232 1.526 0.363zM18.622 9.753c0.134-0.031 0.265-0.095 0.391-0.187-0.076 0.179-0.143 0.358-0.197 0.533-0.064-0.116-0.128-0.231-0.194-0.345zM20.455 11.594c-0.215 0.261-0.401 0.531-0.54 0.795-0.056-0.137-0.115-0.272-0.173-0.407 0.232-0.061 0.474-0.198 0.713-0.388zM21.629 11.45c0.010-0.009 0.020-0.018 0.030-0.027h1.522c-0.19 0.265-0.446 0.562-0.782 0.869-0.994 0.91-1.841 1.141-1.981 1.043-0.088-0.151 0.216-0.975 1.21-1.885zM20.092 9.111c0.658-1.094 1.364-1.567 1.573-1.567 0.012 0 0.021 0.001 0.030 0.004 0.128 0.12 0.069 0.996-0.625 2.151-0.103 0.171-0.207 0.327-0.31 0.468h-1.171c0.107-0.308 0.268-0.666 0.503-1.056zM18.484 6.782c0.368-1.285 0.963-1.925 1.139-1.925 0.001 0 0.003 0 0.004 0 0.155 0.083 0.325 0.944-0.046 2.239s-0.975 1.934-1.143 1.925c-0.155-0.083-0.325-0.944 0.046-2.239zM17.979 10.168h-0.516c0.124-0.134 0.216-0.276 0.269-0.422 0.084 0.139 0.166 0.28 0.247 0.422zM17.371 7.837c0.056-0.035 0.11-0.075 0.162-0.123-0.011 0.105-0.019 0.209-0.024 0.311-0.045-0.063-0.093-0.125-0.139-0.188zM16.513 5.011c0.084-1.345 0.533-2.099 0.701-2.126 0.169 0.047 0.521 0.852 0.438 2.196s-0.533 2.099-0.701 2.126c-0.169-0.047-0.521-0.852-0.438-2.196zM16.321 7.715c0.232 0.293 0.456 0.593 0.671 0.899-0.473-0.136-1.103-0.129-1.742-0.026 0.108-0.048 0.211-0.098 0.306-0.152 0.443-0.245 0.664-0.497 0.764-0.722zM15.747 5.326c-0.002 0.2 0.004 0.399 0.019 0.594-0.088-0.093-0.177-0.184-0.267-0.275 0.088-0.075 0.173-0.178 0.248-0.319zM14.176 0.827c0.175 0.004 0.718 0.695 0.973 2.017s0.009 2.166-0.147 2.234c-0.175-0.004-0.718-0.694-0.973-2.017s-0.009-2.166 0.147-2.234zM14.523 5.74c0.225 0.216 0.444 0.436 0.658 0.661-0.383-0.072-0.833-0.093-1.311-0.060 0.4-0.172 0.58-0.396 0.653-0.601zM11.6 5.814c-1.339-0.147-2.071-0.632-2.090-0.802 0.045-0.136 0.603-0.371 1.538-0.371 0.208 0 0.434 0.012 0.677 0.038 1.339 0.147 2.071 0.632 2.090 0.802-0.056 0.166-0.876 0.48-2.215 0.333zM13.582 8.277c-1.332 0.201-2.164-0.080-2.226-0.239 0.011-0.175 0.723-0.689 2.056-0.889 0.329-0.050 0.627-0.070 0.89-0.070 0.805 0 1.289 0.189 1.335 0.309-0.011 0.175-0.723 0.689-2.056 0.889zM14.788 9.455c0.532-0.138 0.99-0.188 1.351-0.188 0.523 0 0.842 0.104 0.888 0.194 0.005 0.117-0.288 0.418-0.873 0.706h-2.981c0.317-0.235 0.856-0.515 1.616-0.712zM25.72 26.62c-0.104 2.313-1.998 4.124-4.313 4.124h-8.201c-2.315 0-4.21-1.812-4.313-4.124l-0.64-14.288c-0.011-0.239 0.075-0.466 0.24-0.639s0.389-0.268 0.628-0.268h3.84c0.225 0.054 0.479 0.079 0.752 0.079 0.131 0 0.266-0.006 0.403-0.017-0.533 0.349-0.623 0.711-0.594 0.969 0.083 0.737 1.128 1.035 2.268 1.035 0.258 0 0.522-0.015 0.78-0.044 0.718-0.081 1.387-0.263 1.883-0.514 0.314-0.159 0.522-0.325 0.655-0.486 0.444 1.043 0.826 2.151 1.146 3.331h0.788c-0.151-0.575-0.317-1.132-0.495-1.674 0.198-0.005 0.44-0.054 0.735-0.174 0.516-0.209 1.093-0.592 1.626-1.080 0.469-0.429 0.897-0.936 1.168-1.425h1.416c0.24 0 0.463 0.095 0.628 0.268s0.251 0.4 0.24 0.639z"></path>
<path fill="#3c122c" d="M22.008 29.143h-9.403c-1.185 0-2.156-0.817-2.211-1.86l-0.544-10.415c-0.018-0.334 0.106-0.659 0.347-0.913 0.28-0.295 0.689-0.464 1.123-0.464h11.972c0.434 0 0.843 0.169 1.123 0.464 0.241 0.254 0.364 0.578 0.347 0.913l-0.544 10.415c-0.055 1.043-1.026 1.861-2.211 1.861zM11.321 16.244c-0.228 0-0.438 0.084-0.576 0.229-0.069 0.073-0.149 0.193-0.141 0.355l0.544 10.415c0.034 0.643 0.674 1.146 1.458 1.146h9.403c0.784 0 1.424-0.503 1.458-1.146l0.544-10.415c0.008-0.161-0.072-0.282-0.141-0.355-0.138-0.146-0.348-0.229-0.576-0.229z"></path>
<path fill="#3c122c" d="M14.221 23.059c-0.653 0-1.258-0.424-1.458-1.080l-0.557-1.835c-0.244-0.803 0.211-1.655 1.014-1.899l1.764-0.536c0.389-0.118 0.801-0.078 1.16 0.114s0.621 0.511 0.739 0.901l0.557 1.835c0.244 0.803-0.211 1.655-1.014 1.899l-1.764 0.536c-0.147 0.045-0.295 0.066-0.442 0.066zM15.429 18.396c-0.075 0-0.15 0.011-0.224 0.034l-1.764 0.536c-0.406 0.123-0.636 0.553-0.512 0.959l0.557 1.835c0.123 0.406 0.553 0.636 0.959 0.512l1.764-0.536c0.406-0.123 0.636-0.553 0.512-0.959l-0.557-1.835c-0.060-0.197-0.192-0.358-0.373-0.455-0.113-0.060-0.237-0.091-0.361-0.091z"></path>
<path fill="#3c122c" d="M19.155 25.443c-0.208 0-0.377-0.169-0.377-0.377v-0.958c0-0.208 0.169-0.377 0.377-0.377s0.377 0.169 0.377 0.377v0.958c0 0.208-0.169 0.377-0.377 0.377z"></path>
<path fill="#3c122c" d="M21.259 24.251c-0.208 0-0.377-0.169-0.377-0.377v-0.958c0-0.208 0.169-0.377 0.377-0.377s0.377 0.169 0.377 0.377v0.958c0 0.208-0.169 0.377-0.377 0.377z"></path>
</svg>
