<!-- Generated by IcoMoon.io -->
<svg version="1.1" xmlns="http://www.w3.org/2000/svg" width="32" height="32" viewBox="0 0 32 32">
<title>coffee1</title>
<path fill="#fff" d="M30.495 17.069c0-9.838-23.511-9.838-23.511 0 0 0.030 0.001 0.060 0.001 0.090-1.886 0.022-3.524 0.588-3.939 1.692-0.989 2.635 0.95 5.599 3.914 6.48 1.176 0.349 2.366 0.327 3.423 0.005 0.856 0.866 1.846 1.598 2.936 2.166-0.47 0.267-0.736 0.601-0.736 1.007 0 1.305 2.756 2.862 6.156 2.862s6.156-1.557 6.156-2.862c0-0.406-0.267-0.739-0.736-1.007 3.765-1.959 6.336-5.896 6.336-10.434zM7.383 23.419c-1.641-0.488-2.732-2.076-2.203-3.47 0.208-0.549 1.015-0.837 1.975-0.87 0.279 1.619 0.889 3.125 1.758 4.445-0.486 0.078-1.010 0.050-1.53-0.105z"></path>
<path fill="#e1bdfc" d="M18.121 9.7c5.062 0.153 10.276 2.241 10.276 6.266 0 5.522-5.055 9.999-10.875 9.999-5.603 0-10.183-4.149-10.518-9.385-0.013 0.16-0.020 0.323-0.020 0.489 0 6.492 5.263 11.756 11.756 11.756s11.756-5.263 11.756-11.756c0-5.091-6.297-7.548-12.374-7.369z"></path>
<path fill="#c49a8b" d="M28.409 16.115c0 2.455-4.329 4.215-9.67 4.215s-9.67-1.761-9.67-4.215c0-2.455 4.329-4.673 9.67-4.673s9.67 2.219 9.67 4.673z"></path>
<path fill="#f4dab5" d="M23.412 15.83c-1.027-0.436-2.692-0.436-3.718 0l-0.954 0.405-0.954-0.405c-1.027-0.436-2.691-0.436-3.718 0s-1.027 1.142 0 1.578l3.57 1.515c0.673 0.285 1.532 0.285 2.205 0l3.57-1.515c1.027-0.436 1.027-1.142 0-1.578z"></path>
<path fill="#f4dab5" d="M21.146 12.848c-0.529-0.307-1.387-0.307-1.916 0l-0.492 0.285-0.492-0.285c-0.529-0.307-1.387-0.307-1.916 0s-0.529 0.805 0 1.112l1.839 1.068c0.347 0.201 0.79 0.201 1.136 0l1.839-1.068c0.529-0.307 0.529-0.805-0-1.112z"></path>
<path fill="#faf1a9" d="M3.345 8.033l0.517 1.452c0.022 0.062 0.066 0.111 0.121 0.136l1.29 0.581c0.182 0.082 0.182 0.373 0 0.455l-1.29 0.581c-0.055 0.025-0.099 0.074-0.121 0.136l-0.517 1.452c-0.073 0.205-0.331 0.205-0.404 0l-0.517-1.452c-0.022-0.062-0.066-0.111-0.121-0.136l-1.29-0.581c-0.182-0.082-0.182-0.373 0-0.455l1.29-0.581c0.055-0.025 0.099-0.074 0.121-0.136l0.517-1.452c0.073-0.205 0.331-0.205 0.404 0z"></path>
<path fill="#f6e06e" d="M7.446 3.642c0.606 0.145 0.98 0.753 0.836 1.359s-0.753 0.98-1.359 0.836c-0.606-0.145-0.98-0.753-0.836-1.359s0.753-0.98 1.359-0.836z"></path>
<path fill="#faf1a9" d="M29.122 4.057l0.383 1.077c0.016 0.046 0.049 0.083 0.090 0.101l0.957 0.431c0.135 0.061 0.135 0.276 0 0.337l-0.957 0.431c-0.041 0.018-0.073 0.055-0.090 0.101l-0.383 1.077c-0.054 0.152-0.246 0.152-0.3 0l-0.383-1.077c-0.016-0.046-0.049-0.083-0.090-0.101l-0.957-0.431c-0.135-0.061-0.135-0.276 0-0.337l0.957-0.431c0.041-0.019 0.073-0.055 0.090-0.101l0.383-1.077c0.054-0.152 0.246-0.152 0.3 0z"></path>
<path fill="#3c122c" d="M31.123 17.069c0-2.521-1.382-4.625-3.996-6.083-2.224-1.241-5.203-1.924-8.388-1.924s-6.164 0.683-8.388 1.924c-2.435 1.358-3.8 3.276-3.976 5.57-0.733 0.053-1.424 0.188-2.023 0.412-0.968 0.363-1.623 0.938-1.895 1.663-0.475 1.266-0.383 2.675 0.261 3.969 0.777 1.563 2.296 2.81 4.063 3.335 0.639 0.19 1.282 0.28 1.91 0.28 0.518 0 1.026-0.063 1.513-0.18 0.622 0.593 1.306 1.121 2.040 1.575-0.186 0.259-0.289 0.557-0.289 0.901 0 0.9 0.785 1.805 2.153 2.484 1.31 0.649 2.955 1.007 4.632 1.007s3.323-0.358 4.633-1.007c1.368-0.678 2.153-1.584 2.153-2.484 0-0.344-0.104-0.642-0.289-0.901 3.531-2.184 5.889-6.091 5.889-10.54zM7.958 23.158c-0.156-0.022-0.313-0.055-0.468-0.101-0.816-0.243-1.508-0.8-1.85-1.49-0.173-0.35-0.333-0.892-0.108-1.485 0.083-0.219 0.349-0.359 0.558-0.438 0.153-0.058 0.323-0.101 0.506-0.133 0.261 1.3 0.727 2.528 1.361 3.647zM7.139 24.729c-1.438-0.427-2.67-1.433-3.295-2.689-0.486-0.978-0.56-2.031-0.209-2.967 0.178-0.474 0.728-0.766 1.159-0.927 0.465-0.174 1.006-0.283 1.584-0.331 0.019 0.321 0.051 0.638 0.094 0.952-0.231 0.040-0.449 0.097-0.647 0.172-0.508 0.192-0.852 0.495-0.997 0.877-0.251 0.661-0.202 1.402 0.137 2.087 0.433 0.875 1.297 1.577 2.311 1.879 0.368 0.109 0.742 0.164 1.111 0.164 0.018 0 0.037-0.001 0.055-0.001 0.229 0.343 0.475 0.674 0.737 0.991-0.661 0.061-1.353-0.001-2.041-0.205zM24.267 28.509c0 0.306-0.455 0.862-1.454 1.357-1.123 0.557-2.608 0.876-4.074 0.876s-2.951-0.319-4.074-0.876c-0.999-0.495-1.454-1.050-1.454-1.357 0-0.089 0.052-0.185 0.158-0.281 1.625 0.785 3.447 1.226 5.37 1.226s3.744-0.44 5.369-1.225c0.106 0.097 0.159 0.192 0.159 0.281zM18.739 28.196c-6.135 0-11.127-4.991-11.127-11.127 0-2.575 1.822-4.132 3.351-4.985 2.040-1.138 4.801-1.765 7.776-1.765s5.736 0.627 7.776 1.765c1.529 0.853 3.351 2.41 3.351 4.985 0 6.135-4.991 11.127-11.127 11.127z"></path>
<path fill="#3c122c" d="M18.739 27.016c-0.207 0-0.375-0.166-0.377-0.373-0.002-0.208 0.165-0.379 0.373-0.381 1.482-0.015 2.969-0.395 4.184-1.070 0.182-0.101 0.412-0.035 0.513 0.147s0.035 0.412-0.147 0.513c-1.324 0.734-2.937 1.148-4.543 1.164-0.001 0-0.003 0-0.004 0z"></path>
<path fill="#3c122c" d="M24.863 24.636c-0.102 0-0.204-0.041-0.278-0.122-0.141-0.154-0.13-0.392 0.023-0.533 0.266-0.244 0.519-0.507 0.753-0.782 0.135-0.159 0.373-0.178 0.532-0.043s0.178 0.373 0.043 0.532c-0.254 0.299-0.529 0.584-0.818 0.849-0.072 0.066-0.164 0.099-0.255 0.099z"></path>
<path fill="#3c122c" d="M18.739 20.708c-2.666 0-5.146-0.432-6.986-1.218-1.974-0.843-3.061-2.041-3.061-3.375 0-1.353 1.081-2.63 3.043-3.596 1.906-0.938 4.393-1.455 7.004-1.455s5.098 0.517 7.004 1.455c1.962 0.966 3.043 2.243 3.043 3.596 0 1.334-1.087 2.532-3.061 3.375-1.839 0.785-4.32 1.218-6.986 1.218zM18.739 11.819c-5.476 0-9.292 2.264-9.292 4.296 0 1.012 0.924 1.965 2.603 2.681 1.748 0.746 4.123 1.157 6.689 1.157s4.942-0.411 6.689-1.157c1.679-0.717 2.603-1.669 2.603-2.681 0-2.032-3.816-4.296-9.293-4.296z"></path>
<path fill="#3c122c" d="M12.808 7.778c-0.107 0-0.215-0.027-0.314-0.085-0.301-0.174-0.403-0.559-0.229-0.859 0.005-0.008 0.544-0.96 0.544-1.859 0-0.375-0.091-0.533-0.23-0.772-0.178-0.307-0.399-0.689-0.399-1.402 0-1.241 0.684-2.438 0.713-2.488 0.174-0.301 0.559-0.403 0.859-0.229s0.403 0.558 0.23 0.858c-0.009 0.016-0.545 0.964-0.545 1.859 0 0.375 0.091 0.533 0.23 0.772 0.178 0.307 0.399 0.689 0.399 1.402 0 1.241-0.684 2.438-0.713 2.488-0.117 0.201-0.328 0.314-0.545 0.314z"></path>
<path fill="#3c122c" d="M22.869 7.778c-0.107 0-0.215-0.027-0.314-0.085-0.301-0.174-0.403-0.559-0.229-0.859 0.005-0.008 0.544-0.96 0.544-1.859 0-0.375-0.091-0.533-0.23-0.772-0.178-0.307-0.399-0.689-0.399-1.402 0-1.241 0.684-2.438 0.713-2.488 0.174-0.301 0.559-0.403 0.859-0.229s0.403 0.558 0.23 0.858c-0.009 0.016-0.545 0.964-0.545 1.859 0 0.375 0.091 0.533 0.23 0.772 0.178 0.307 0.399 0.689 0.399 1.402 0 1.241-0.684 2.438-0.713 2.488-0.117 0.201-0.328 0.314-0.545 0.314z"></path>
<path fill="#3c122c" d="M17.838 7.778c-0.107 0-0.215-0.027-0.314-0.085-0.301-0.174-0.403-0.559-0.229-0.859 0.005-0.008 0.544-0.96 0.544-1.859 0-0.375-0.091-0.533-0.23-0.772-0.178-0.307-0.399-0.689-0.399-1.402 0-1.241 0.684-2.438 0.713-2.488 0.174-0.301 0.559-0.403 0.859-0.229s0.403 0.558 0.23 0.858c-0.009 0.016-0.545 0.964-0.545 1.859 0 0.375 0.091 0.533 0.23 0.772 0.178 0.307 0.399 0.689 0.399 1.402 0 1.241-0.684 2.438-0.713 2.488-0.117 0.201-0.328 0.314-0.545 0.314z"></path>
</svg>
