<!-- Generated by IcoMoon.io -->
<svg version="1.1" xmlns="http://www.w3.org/2000/svg" width="32" height="32" viewBox="0 0 32 32">
<title>cola</title>
<path fill="#96b4eb" d="M23.573 8.177l-1.229-2.046c0.443-0.13 0.767-0.54 0.767-1.025 0-0.59-0.479-1.069-1.069-1.069h-4.030l1.224-1.676c0.348-0.477 0.244-1.145-0.233-1.494s-1.145-0.244-1.494 0.233l-2.145 2.937h-6.444c-0.59 0-1.069 0.479-1.069 1.069 0 0.48 0.316 0.886 0.751 1.021l-1.218 2.053c-0.17 0.287-0.26 0.615-0.26 0.949v17.326c0 0.334 0.090 0.662 0.26 0.949l1.076 1.813c-0.36 0.172-0.609 0.538-0.609 0.964 0 0.59 0.479 1.069 1.069 1.069h13.121c0.59 0 1.069-0.479 1.069-1.069 0-0.43-0.255-0.8-0.621-0.97l1.083-1.804c0.174-0.289 0.265-0.62 0.265-0.957v-17.315c0-0.337-0.092-0.668-0.265-0.957z"></path>
<path fill="#d789b9" d="M7.232 8.801h16.434v17.789h-16.434z"></path>
<path fill="#fff" d="M7.195 21.229c0.43-1.256 1.495-3.263 3.754-4.783 3.296-2.218 7.351-0.697 9.443-2.218s3.359-4.88 3.359-4.88l0.050 5.553c-0.395 1.255-1.116 3.080-2.217 4.207-1.808 1.849-6.061 1.027-8.94 3.765-1.259 1.198-1.964 2.396-2.376 3.594h-3.143z"></path>
<path fill="#e1bdfc" d="M22.591 17.438c0.063-0.125 0.188-0.313 0.25-0.438 0.305-0.762 0.656-1.478 0.997-2.19v-4.805c-0.041 0.058-0.081 0.116-0.122 0.177-1.068 1.462-1.985 2.923-3.341 4.022v5.624c0.988-0.438 1.758-1.362 2.215-2.39z"></path>
<path fill="#e1bdfc" d="M9.651 25.265c-0.52 0-1.002-0.274-1.268-0.722l-1.052-1.773c-0.135-0.228-0.206-0.488-0.206-0.752v4.438c0 0.089 0.007 0.177 0.019 0.265l2.996-0.023c0.244-0.47 0.45-0.966 0.682-1.433-0.708 0-1.172 0-1.172 0z"></path>
<path fill="#c668b9" d="M22.841 17c-0.063 0.125-0.188 0.313-0.25 0.438-0.457 1.028-1.227 1.952-2.215 2.39v2.186c0 0.934 0.101 1.799-0.538 2.5s-1.164 0.751-2.004 0.751c-0.629 0-4.903 0-7.012 0-0.232 0.467-0.438 0.962-0.682 1.433l13.692-0.105c0.004-0.047 0.006-0.094 0.006-0.142v-11.64c-0.341 0.712-0.692 1.428-0.997 2.19z"></path>
<path fill="#8286ea" d="M10.141 26.697l-2.996 0.023c0.035 0.241 0.116 0.473 0.241 0.684l1.068 1.8h14.041l1.079-1.797c0.149-0.248 0.238-0.528 0.259-0.816z"></path>
<path fill="#8286ea" d="M23.573 8.177l-1.144-1.905h-3.016l0.753 1.254c0.138 0.229 0.21 0.492 0.21 0.759v0.685l3.451-0.030c-0.028-0.269-0.114-0.53-0.254-0.764z"></path>
<path fill="#c668b9" d="M20.376 8.97v5.233c1.356-1.098 2.273-2.56 3.341-4.022 0.040-0.061 0.081-0.119 0.122-0.177v-0.87c0-0.065-0.004-0.129-0.011-0.194z"></path>
<path fill="#d789b9" d="M3.146 6.317c0.235 0.574-0.040 1.229-0.614 1.464s-1.229-0.040-1.464-0.614c-0.235-0.574 0.040-1.229 0.614-1.464s1.229 0.040 1.464 0.614z"></path>
<path fill="#d789b9" d="M30.989 10.251c0.102 0.247-0.015 0.53-0.262 0.633s-0.53-0.015-0.633-0.262c-0.102-0.247 0.015-0.53 0.262-0.633s0.53 0.015 0.633 0.262z"></path>
<path fill="#e8c2d8" d="M27.959 0.499l0.514 1.445c0.022 0.062 0.066 0.111 0.12 0.136l1.284 0.578c0.181 0.082 0.181 0.371 0 0.452l-1.284 0.578c-0.055 0.025-0.099 0.074-0.12 0.136l-0.514 1.445c-0.073 0.204-0.329 0.204-0.402 0l-0.514-1.445c-0.022-0.062-0.066-0.111-0.12-0.136l-1.284-0.578c-0.181-0.082-0.181-0.371 0-0.452l1.284-0.578c0.055-0.025 0.099-0.074 0.12-0.136l0.514-1.445c0.073-0.204 0.329-0.204 0.402-0z"></path>
<path fill="#3c122c" d="M24.109 7.855l-0.831-1.383c0.357-0.322 0.582-0.789 0.582-1.307 0-0.971-0.79-1.761-1.761-1.761h-2.696l0.442-0.606c0.573-0.784 0.401-1.888-0.383-2.461s-1.888-0.401-2.46 0.383l-1.959 2.683h-6.181c-0.971 0-1.761 0.79-1.761 1.761 0 0.514 0.221 0.977 0.574 1.299l-0.829 1.397c-0.228 0.384-0.348 0.822-0.348 1.268v17.326c0 0.446 0.12 0.884 0.348 1.268l0.761 1.282c-0.313 0.318-0.506 0.753-0.506 1.233 0 0.971 0.79 1.761 1.761 1.761h13.237c0.971 0 1.761-0.79 1.761-1.761 0-0.484-0.196-0.923-0.513-1.241l0.762-1.268c0.232-0.386 0.355-0.829 0.355-1.279v-17.315c0-0.451-0.123-0.893-0.355-1.279zM22.198 28.481c-0.033-0.002-0.065-0.003-0.098-0.003h-13.237c-0.037 0-0.074 0.002-0.111 0.004l-0.829-1.397c-0.016-0.027-0.031-0.055-0.045-0.083h15.204c-0.014 0.028-0.029 0.056-0.045 0.083zM23.213 9.336v0.326c-0.416 0.944-1.506 3.145-3.042 4.262-0.858 0.624-2.13 0.684-3.602 0.754-1.848 0.087-3.942 0.186-5.83 1.457-1.43 0.962-2.376 2.104-2.989 3.088v-9.886zM23.213 15.47c-0.415 1.154-1.038 2.495-1.898 3.375-0.742 0.759-1.985 1.030-3.425 1.345-1.807 0.395-3.856 0.842-5.504 2.41-1.158 1.101-1.956 2.297-2.439 3.652h-2.196v-5.419c0.437-1.021 1.415-2.734 3.408-4.076 1.713-1.153 3.696-1.247 5.446-1.33 1.526-0.072 2.968-0.14 4.008-0.896 1.12-0.814 2.002-2.105 2.6-3.179zM10.748 26.251c0.45-1.139 1.157-2.159 2.154-3.108 1.497-1.423 3.436-1.847 5.147-2.221 1.493-0.326 2.903-0.634 3.802-1.553 0.54-0.552 0.991-1.257 1.361-1.989v8.871zM18.013 1.46c0.080-0.11 0.199-0.182 0.333-0.203s0.269 0.012 0.379 0.092c0.227 0.166 0.277 0.485 0.111 0.712l-0.981 1.344h-1.262zM8.863 4.655h13.237c0.281 0 0.51 0.229 0.51 0.51s-0.229 0.51-0.51 0.51h-13.237c-0.281 0-0.51-0.229-0.51-0.51s0.229-0.51 0.51-0.51zM8.863 6.926h13.229l0.945 1.573c0.017 0.028 0.032 0.057 0.047 0.086h-15.206c0.014-0.029 0.029-0.058 0.046-0.086l0.934-1.574c0.002-0 0.004 0 0.006 0zM22.1 30.749h-13.237c-0.281 0-0.51-0.229-0.51-0.51s0.229-0.51 0.51-0.51h13.237c0.281 0 0.51 0.229 0.51 0.51s-0.229 0.51-0.51 0.51z"></path>
<path fill="#fff" d="M12.008 11.876c-0.344 0-0.624-0.278-0.625-0.623s0.277-0.627 0.623-0.629c1.206-0.006 2.326-0.006 3.526 0 0.345 0.002 0.624 0.283 0.622 0.629-0.002 0.344-0.281 0.623-0.625 0.623-0.001 0-0.002 0-0.003 0-1.195-0.006-2.312-0.006-3.514 0-0.001 0-0.002 0-0.003 0z"></path>
<path fill="#fff" d="M9.877 11.876h-0.755c-0.345 0-0.626-0.28-0.626-0.626s0.28-0.626 0.626-0.626h0.755c0.345 0 0.626 0.28 0.626 0.626s-0.28 0.626-0.626 0.626z"></path>
<path fill="#3c122c" d="M17.637 23.258c-0.207 0-0.375-0.168-0.375-0.375v-0.689c0-0.207 0.168-0.375 0.375-0.375s0.375 0.168 0.375 0.375v0.689c0 0.207-0.168 0.375-0.375 0.375z"></path>
<path fill="#3c122c" d="M21.565 22.208c-0.207 0-0.375-0.168-0.375-0.375v-0.689c0-0.207 0.168-0.375 0.375-0.375s0.375 0.168 0.375 0.375v0.689c0 0.207-0.168 0.375-0.375 0.375z"></path>
<path fill="#3c122c" d="M19.548 24.327c-0.207 0-0.375-0.168-0.375-0.375v-0.689c0-0.207 0.168-0.375 0.375-0.375s0.375 0.168 0.375 0.375v0.689c0 0.207-0.168 0.375-0.375 0.375z"></path>
</svg>
