<!-- Generated by IcoMoon.io -->
<svg version="1.1" xmlns="http://www.w3.org/2000/svg" width="32" height="32" viewBox="0 0 32 32">
<title>dalgona</title>
<path fill="#fff" d="M23.564 11.767h-15.796l-1.241 4.012c-1.816 5.256-0.723 11.081 2.876 15.321l0.227 0.268h12.069l0.227-0.268c3.599-4.24 4.693-10.064 2.876-15.321z"></path>
<path fill="#c49a8b" d="M24.805 15.778l-1.241-4.012h-0.967c-0.011-1.004-0.531-1.884-1.315-2.396 0.104-0.298 0.161-0.619 0.161-0.953 0-1.519-1.169-2.764-2.657-2.886 0.003-0.061 0.005-0.122 0.005-0.183 0-1.809-2.746-3.276-3.276-3.276s-3.276 1.467-3.276 3.276c0 0.075 0.003 0.149 0.008 0.223-1.342 0.253-2.357 1.431-2.357 2.846 0 0.334 0.057 0.654 0.161 0.953-0.784 0.512-1.305 1.393-1.315 2.396h-0.967l-1.241 4.012c-0.12 0.347-0.227 0.696-0.321 1.048h18.919c-0.095-0.351-0.201-0.701-0.321-1.048z"></path>
<path fill="#b2748a" d="M24.805 15.778l-1.241-4.012h-0.966c-0.011-1.004-0.532-1.884-1.316-2.396 0.104-0.298 0.161-0.619 0.161-0.953 0-1.519-1.169-2.764-2.657-2.886 0.003-0.061 0.005-0.122 0.005-0.183 0-1.809-2.746-3.276-3.276-3.276-0.414 0-2.174 0.892-2.93 2.142 0.584-0.466 1.227-0.756 1.434-0.756 0.407 0 2.512 1.125 2.512 2.512 0 0.047-0.002 0.094-0.004 0.14 1.141 0.094 2.050 1.073 2.133 2.235 0.032 0.452-0.143 2.051-0.441 2.042h-8.686c-0.498 0.524-0.804 0.648-0.799 1.429 0.001 0.183 0.021 0.363 0.055 0.536h11.835l0.843 2.726c0.162 0.469 0.295 0.944 0.402 1.422h3.166c-0.071-0.242-0.147-0.483-0.23-0.722z"></path>
<path fill="#e1bdfc" d="M21.993 17.134c0.486 2.841 0.011 5.76-1.338 8.294-0.754 1.415-2.226 2.3-3.83 2.3h-5.805c-1.594 0-3.065-0.871-3.817-2.277-0.892-1.667-1.405-3.502-1.515-5.372-0.211 3.96 1.081 7.915 3.717 11.020l0.227 0.268h12.069l0.227-0.268c3.292-3.878 4.488-9.083 3.277-13.966z"></path>
<path fill="#efc5b4" d="M29.342 0.161l0.541 1.52c0.023 0.065 0.069 0.117 0.127 0.143l1.351 0.609c0.191 0.086 0.191 0.39 0 0.476l-1.351 0.608c-0.058 0.026-0.104 0.078-0.127 0.143l-0.541 1.52c-0.076 0.215-0.346 0.215-0.423 0l-0.541-1.52c-0.023-0.065-0.069-0.117-0.127-0.143l-1.351-0.609c-0.191-0.086-0.191-0.39 0-0.476l1.351-0.609c0.058-0.026 0.104-0.078 0.127-0.143l0.541-1.52c0.076-0.215 0.346-0.215 0.423 0z"></path>
<path fill="#e8a284" d="M5.838 4.543c0 0.652-0.529 1.18-1.18 1.18s-1.18-0.529-1.18-1.18c0-0.652 0.529-1.18 1.18-1.18s1.18 0.529 1.18 1.18z"></path>
<path fill="#e8a284" d="M27.341 7.525c0 0.281-0.228 0.509-0.509 0.509s-0.509-0.228-0.509-0.509 0.228-0.509 0.509-0.509c0.281 0 0.509 0.228 0.509 0.509z"></path>
<path fill="#efc5b4" d="M2.413 9.394l0.401 1.128c0.017 0.048 0.051 0.087 0.094 0.106l1.002 0.451c0.142 0.064 0.142 0.289 0 0.353l-1.002 0.451c-0.043 0.019-0.077 0.058-0.094 0.106l-0.401 1.128c-0.057 0.159-0.257 0.159-0.314 0l-0.401-1.128c-0.017-0.048-0.051-0.087-0.094-0.106l-1.002-0.451c-0.142-0.064-0.142-0.289 0-0.353l1.002-0.451c0.043-0.019 0.077-0.058 0.094-0.106l0.401-1.128c0.057-0.159 0.257-0.159 0.314 0z"></path>
<path fill="#3c122c" d="M25.406 15.582l-1.148-3.711c-0.082-0.265-0.327-0.446-0.605-0.446h-0.443c-0.094-0.895-0.525-1.715-1.207-2.301 0.047-0.232 0.071-0.467 0.071-0.706 0-0.892-0.334-1.743-0.939-2.397-0.472-0.509-1.075-0.864-1.738-1.028-0.153-1.065-0.964-1.914-1.655-2.458-0.674-0.531-1.684-1.095-2.229-1.095s-1.555 0.564-2.229 1.095c-0.711 0.56-1.55 1.443-1.667 2.552-1.396 0.487-2.363 1.815-2.363 3.332 0 0.238 0.024 0.474 0.071 0.706-0.681 0.586-1.112 1.406-1.207 2.301h-0.443c-0.277 0-0.523 0.181-0.604 0.446l-1.147 3.711c-0.924 2.68-1.136 5.569-0.613 8.355 0.524 2.79 1.772 5.408 3.609 7.572l0.227 0.268c0.12 0.142 0.297 0.223 0.482 0.223h12.069c0.186 0 0.362-0.082 0.482-0.223l0.227-0.268c1.837-2.164 3.085-4.782 3.609-7.572 0.523-2.786 0.311-5.675-0.613-8.355zM10.397 9.9c0.243-0.159 0.347-0.463 0.252-0.738-0.084-0.24-0.126-0.49-0.126-0.744 0-1.088 0.775-2.023 1.842-2.224 0.315-0.059 0.536-0.345 0.514-0.664-0.005-0.071-0.007-0.128-0.007-0.181 0-1.291 2.138-2.528 2.644-2.64 0.506 0.112 2.644 1.348 2.644 2.64 0 0.046-0.001 0.094-0.004 0.148-0.019 0.342 0.238 0.638 0.58 0.666 1.164 0.096 2.076 1.086 2.076 2.256 0 0.254-0.042 0.505-0.126 0.745-0.096 0.275 0.008 0.579 0.252 0.738 0.538 0.351 0.895 0.904 0.998 1.524h-12.535c0.103-0.62 0.459-1.173 0.998-1.524zM7.126 15.985c0.002-0.007 0.004-0.013 0.006-0.020l1.013-3.275h15.042l1.013 3.275c0.002 0.007 0.004 0.013 0.006 0.020 0.053 0.153 0.103 0.307 0.151 0.461h-17.382c0.048-0.154 0.098-0.308 0.151-0.461zM21.446 30.69l-0.038 0.045h-11.483l-0.038-0.045c-3.162-3.724-4.31-8.789-3.125-13.484h17.808c1.185 4.695 0.037 9.76-3.125 13.484z"></path>
<path fill="#3c122c" d="M17.28 27.277c-0.21 0-0.38-0.17-0.38-0.38v-0.901c0-0.21 0.17-0.38 0.38-0.38s0.38 0.17 0.38 0.38v0.901c0 0.21-0.17 0.38-0.38 0.38z"></path>
<path fill="#3c122c" d="M20.875 25.51c-0.21 0-0.38-0.17-0.38-0.38v-0.901c0-0.21 0.17-0.38 0.38-0.38s0.38 0.17 0.38 0.38v0.901c-0 0.21-0.17 0.38-0.38 0.38z"></path>
<path fill="#3c122c" d="M18.682 22.372c-0.21 0-0.38-0.17-0.38-0.38v-0.901c0-0.21 0.17-0.38 0.38-0.38s0.38 0.17 0.38 0.38v0.901c0 0.21-0.17 0.38-0.38 0.38z"></path>
<path fill="#fff" d="M12.167 9.968c-0.019 0-0.039-0.001-0.058-0.003-0.348-0.032-0.604-0.339-0.573-0.687 0.041-0.454 0.19-1.031 0.379-1.469 0.138-0.321 0.511-0.469 0.832-0.331s0.469 0.511 0.331 0.832c-0.136 0.316-0.251 0.761-0.281 1.083-0.030 0.328-0.306 0.575-0.629 0.575z"></path>
<path fill="#fff" d="M13.463 7.323c-0.121 0-0.242-0.034-0.35-0.106-0.291-0.194-0.369-0.587-0.176-0.877 0.14-0.211 0.402-0.389 0.491-0.44 0.304-0.173 0.69-0.068 0.863 0.235 0.172 0.302 0.059 0.682-0.23 0.86-0.022 0.015-0.134 0.111-0.155 0.132-0.154 0.148-0.248 0.196-0.443 0.196z"></path>
</svg>
