<!-- Generated by IcoMoon.io -->
<svg version="1.1" xmlns="http://www.w3.org/2000/svg" width="32" height="32" viewBox="0 0 32 32">
<title>energy-drink</title>
<path fill="#c2b2eb" d="M7.847 5.297l1.339-2.513c0.338-0.635 0.952-1.024 1.614-1.024h10.42c0.659 0 1.27 0.385 1.609 1.014l1.359 2.519c0.175 0.325 0.268 0.697 0.268 1.076v19.464c0 0.379-0.093 0.751-0.268 1.076l-1.359 2.519c-0.339 0.629-0.95 1.014-1.609 1.014h-10.42c-0.663 0-1.276-0.389-1.614-1.024l-1.339-2.513c-0.172-0.323-0.263-0.691-0.263-1.067v-19.476c0-0.375 0.091-0.744 0.263-1.067z"></path>
<path fill="#9781dd" d="M7.693 5.995h16.59v19.996h-16.59z"></path>
<path fill="#f6e06e" d="M14.475 23.009l5.69-7.484-2.314-1.135 1.811-4.411-6.182-0.024-1.619 5.886 3.011 1.505z"></path>
<path fill="#ae85ea" d="M23.063 3.205h-3.045l0.731 1.356c0.139 0.258 0.212 0.553 0.212 0.853v0.448h3.438c-0.045-0.199-0.115-0.391-0.211-0.569z"></path>
<path fill="#8962de" d="M24.456 25.716v-19.223h-3.495v14.353c0 1.050 0.102 2.022-0.543 2.81s-1.175 0.844-2.023 0.844-8.261 0-8.261 0c-0.525 0-1.012-0.308-1.28-0.812l-1.062-1.993c-0.136-0.256-0.208-0.548-0.208-0.846v4.865h16.872z"></path>
<path fill="#ae85ea" d="M8.858 28.802h14.31l1.021-1.893c0.095-0.175 0.164-0.365 0.209-0.561h-16.756c0.044 0.195 0.112 0.383 0.205 0.558z"></path>
<path fill="#c2b2eb" d="M22.654 31.228h-13.268c-0.59 0-1.068-0.478-1.068-1.068v-0.267c0-0.59 0.478-1.068 1.068-1.068h13.268c0.59 0 1.068 0.478 1.068 1.068v0.267c0 0.59-0.478 1.068-1.068 1.068z"></path>
<path fill="#c2b2eb" d="M22.654 3.043h-13.268c-0.59 0-1.068-0.478-1.068-1.068v-0.267c0-0.59 0.478-1.068 1.068-1.068h13.268c0.59 0 1.068 0.478 1.068 1.068v0.267c0 0.59-0.478 1.068-1.068 1.068z"></path>
<path fill="#9781dd" d="M2.236 4.533c0.577 0.242 0.848 0.906 0.606 1.483s-0.906 0.848-1.483 0.606c-0.577-0.242-0.848-0.906-0.606-1.483s0.906-0.848 1.483-0.606z"></path>
<path fill="#9781dd" d="M4.112 10.751c0 0.27-0.219 0.489-0.489 0.489s-0.489-0.219-0.489-0.489c0-0.27 0.219-0.489 0.489-0.489s0.489 0.219 0.489 0.489z"></path>
<path fill="#c2b2eb" d="M29.261 1.616l0.519 1.459c0.022 0.062 0.066 0.112 0.122 0.137l1.296 0.584c0.183 0.083 0.183 0.374 0 0.457l-1.296 0.584c-0.055 0.025-0.099 0.074-0.122 0.137l-0.519 1.458c-0.073 0.206-0.332 0.206-0.406 0l-0.519-1.458c-0.022-0.062-0.066-0.112-0.122-0.137l-1.296-0.584c-0.183-0.082-0.183-0.374 0-0.457l1.296-0.584c0.055-0.025 0.099-0.075 0.122-0.137l0.519-1.458c0.073-0.206 0.332-0.206 0.406 0z"></path>
<path fill="#3c122c" d="M24.744 4.994l-0.873-1.619c0.372-0.326 0.608-0.804 0.608-1.337v-0.26c0-0.98-0.797-1.778-1.777-1.778h-13.362c-0.98 0-1.777 0.797-1.777 1.778v0.26c0 0.528 0.232 1.003 0.599 1.329l-0.87 1.634c-0.22 0.414-0.337 0.885-0.337 1.363v19.476c0 0.478 0.117 0.95 0.337 1.363l0.798 1.498c-0.325 0.322-0.527 0.769-0.527 1.261v0.26c0 0.98 0.797 1.777 1.778 1.777h13.362c0.98 0 1.777-0.797 1.777-1.777v-0.26c0-0.497-0.205-0.947-0.535-1.27l0.8-1.484c0.225-0.417 0.344-0.892 0.344-1.376v-19.464c0-0.483-0.119-0.959-0.344-1.376zM8.216 25.653v-19.1h15.609v19.1zM8.316 5.795c0.025-0.069 0.055-0.137 0.089-0.201h-0l0.948-1.779h13.322l0.959 1.778c0.035 0.065 0.065 0.132 0.090 0.202zM8.825 1.778c0-0.284 0.231-0.515 0.515-0.515h13.362c0.284 0 0.515 0.231 0.515 0.515v0.26c0 0.284-0.231 0.515-0.515 0.515h-13.362c-0.284 0-0.515-0.231-0.515-0.515v-0.26zM23.216 30.223c0 0.284-0.231 0.515-0.515 0.515h-13.362c-0.284 0-0.515-0.231-0.515-0.515v-0.26c0-0.284 0.231-0.515 0.515-0.515h13.362c0.284 0 0.515 0.231 0.515 0.515v0.26zM22.702 28.185h-13.362c-0.031 0-0.063 0.001-0.094 0.003l-0.841-1.579c-0.034-0.064-0.063-0.13-0.088-0.198h15.406c-0.025 0.069-0.055 0.135-0.089 0.199l-0.851 1.577c-0.027-0.001-0.053-0.002-0.080-0.002z"></path>
<path fill="#fff" d="M12.544 8.856c-0.347 0-0.63-0.28-0.631-0.628-0.002-0.349 0.279-0.633 0.628-0.635 1.218-0.006 2.349-0.006 3.56 0 0.349 0.002 0.63 0.286 0.628 0.635-0.002 0.348-0.284 0.628-0.631 0.628-0.001 0-0.002 0-0.003 0-1.206-0.006-2.333-0.006-3.547 0-0.001 0-0.002 0-0.003 0z"></path>
<path fill="#fff" d="M10.394 8.856h-0.762c-0.349 0-0.631-0.283-0.631-0.631s0.283-0.631 0.631-0.631h0.762c0.349 0 0.631 0.283 0.631 0.631s-0.283 0.631-0.631 0.631z"></path>
<path fill="#3c122c" d="M18.197 22.202c-0.209 0-0.379-0.17-0.379-0.379v-0.775c0-0.209 0.17-0.379 0.379-0.379s0.379 0.17 0.379 0.379v0.775c0 0.209-0.17 0.379-0.379 0.379z"></path>
<path fill="#3c122c" d="M22.161 21.022c-0.209 0-0.379-0.17-0.379-0.379v-0.775c0-0.209 0.17-0.379 0.379-0.379s0.379 0.17 0.379 0.379v0.775c0 0.209-0.17 0.379-0.379 0.379z"></path>
<path fill="#3c122c" d="M20.126 23.404c-0.209 0-0.379-0.17-0.379-0.379v-0.775c0-0.209 0.17-0.379 0.379-0.379s0.379 0.17 0.379 0.379v0.775c0 0.209-0.17 0.379-0.379 0.379z"></path>
<path fill="#3c122c" d="M14.475 23.387c-0.045 0-0.090-0.008-0.133-0.024-0.157-0.059-0.256-0.214-0.244-0.381l0.379-5.409-2.784-1.392c-0.162-0.081-0.244-0.265-0.196-0.439l1.619-5.886c0.045-0.165 0.195-0.278 0.365-0.278h0.002l6.182 0.024c0.126 0.001 0.244 0.064 0.314 0.168s0.083 0.238 0.035 0.354l-1.676 4.082 1.996 0.978c0.102 0.050 0.176 0.143 0.202 0.253s0.002 0.226-0.067 0.317l-5.69 7.484c-0.073 0.096-0.186 0.15-0.302 0.15zM12.308 15.643l2.732 1.365c0.137 0.069 0.219 0.213 0.209 0.365l-0.308 4.395 4.643-6.107-1.901-0.932c-0.179-0.088-0.259-0.3-0.184-0.484l1.597-3.89-5.33-0.020z"></path>
</svg>
