<!-- Generated by IcoMoon.io -->
<svg version="1.1" xmlns="http://www.w3.org/2000/svg" width="32" height="32" viewBox="0 0 32 32">
<title>juice-box</title>
<path fill="#d789b9" d="M23.214 8.367h-14.094v-3.414c0-0.836 0.677-1.513 1.513-1.513h11.068c0.836 0 1.513 0.677 1.513 1.513z"></path>
<path fill="#e8c2d8" d="M23.214 6.872h-13.979l-0.917 5.661v17.325c0 0.837 0.678 1.515 1.515 1.515h12.669c0.837 0 1.515-0.678 1.515-1.515v-17.325z"></path>
<path fill="#fff" d="M8.318 25.165h15.698v2.287h-15.698z"></path>
<path fill="#d789b9" d="M8.318 27.371v2.487c0 0.837 0.678 1.515 1.515 1.515h12.669c0.837 0 1.515-0.678 1.515-1.515v-2.487z"></path>
<path fill="#c668b9" d="M20.611 4.823v1.681h2.603v-1.545c0-0.839-0.68-1.519-1.52-1.519h-2.338c0.692-0 1.254 0.619 1.254 1.383z"></path>
<path fill="#d392d8" d="M21.273 24.971h2.743v-12.438l-0.765-5.402h-2.567l0.589 4.587z"></path>
<path fill="#e1bdfc" d="M21.273 25.599h2.743v1.446h-2.743z"></path>
<path fill="#c668b9" d="M21.262 27.673c-0.080 0.677-0.604 1.199-1.239 1.199h-10.455c-0.69 0-1.25-0.617-1.25-1.379v2.365c0 0.837 0.678 1.515 1.515 1.515h12.669c0.837 0 1.515-0.678 1.515-1.515v-2.185z"></path>
<path fill="#ccf3e2" d="M16.31 10.427c-0.358 0-0.701-0.202-0.865-0.546l-2.646-5.57-5.949-2.076c-0.498-0.178-0.757-0.725-0.58-1.222s0.725-0.757 1.222-0.58l6.322 2.209c0.239 0.085 0.434 0.262 0.543 0.491l2.815 5.928c0.227 0.477 0.024 1.048-0.454 1.274-0.133 0.063-0.272 0.093-0.41 0.093z"></path>
<path fill="#a1e8c3" d="M19.34 14.538c2.141 1.884 2.349 5.147 0.465 7.288s-5.147 2.349-7.288 0.465z"></path>
<path fill="#d789b9" d="M18.202 15.831c1.427 1.256 1.566 3.43 0.31 4.857s-3.43 1.566-4.857 0.31z"></path>
<path fill="#e8c2d8" d="M28.866 3.467l0.525 1.477c0.023 0.063 0.067 0.113 0.123 0.139l1.312 0.591c0.185 0.083 0.185 0.379 0 0.462l-1.312 0.591c-0.056 0.025-0.101 0.075-0.123 0.139l-0.525 1.477c-0.074 0.209-0.337 0.209-0.411 0l-0.525-1.477c-0.023-0.063-0.067-0.113-0.123-0.139l-1.312-0.591c-0.185-0.083-0.185-0.379 0-0.462l1.312-0.591c0.056-0.025 0.101-0.075 0.123-0.139l0.525-1.477c0.074-0.209 0.337-0.209 0.411 0z"></path>
<path fill="#d789b9" d="M4.878 10.476c0.306 0.554 0.105 1.251-0.45 1.557s-1.251 0.105-1.557-0.45c-0.306-0.554-0.105-1.251 0.45-1.557s1.251-0.105 1.557 0.45z"></path>
<path fill="#d789b9" d="M31.529 11.169c0 0.268-0.217 0.486-0.486 0.486s-0.486-0.217-0.486-0.486c0-0.268 0.217-0.486 0.486-0.486s0.486 0.217 0.486 0.486z"></path>
<path fill="#e8c2d8" d="M2.333 15.68l0.39 1.095c0.017 0.047 0.050 0.084 0.091 0.103l0.973 0.439c0.138 0.062 0.138 0.281 0 0.343l-0.973 0.439c-0.042 0.019-0.075 0.056-0.091 0.103l-0.39 1.095c-0.055 0.155-0.25 0.155-0.305 0l-0.39-1.095c-0.017-0.047-0.050-0.084-0.091-0.103l-0.973-0.439c-0.138-0.062-0.138-0.281 0-0.343l0.973-0.439c0.042-0.019 0.075-0.056 0.091-0.103l0.39-1.095c0.055-0.155 0.25-0.155 0.305 0z"></path>
<path fill="#3c122c" d="M24.637 12.445l-0.796-5.617v-1.869c0-1.184-0.963-2.147-2.147-2.147h-7.087c-0.158-0.242-0.389-0.426-0.668-0.526l-6.319-2.208c-0.335-0.12-0.697-0.102-1.019 0.051s-0.565 0.421-0.684 0.757c-0.12 0.335-0.102 0.697 0.051 1.019s0.421 0.565 0.759 0.685l2.506 0.84c-0.396 0.389-0.642 0.931-0.642 1.529l0.007 1.921-0.899 5.553c-0.005 0.033-0.008 0.067-0.008 0.1v17.325c0 1.181 0.961 2.142 2.142 2.142h12.669c1.181 0 2.142-0.961 2.142-2.142v-17.325c0-0.029-0.002-0.059-0.006-0.088zM14.707 9.203c-0.277 0.159-0.456 0.38-0.456 0.668 0 0.678 0.994 0.987 1.917 0.987s1.917-0.309 1.917-0.987c0-0.293-0.186-0.517-0.471-0.677-0.022-0.101-0.054-0.201-0.099-0.297l-0.664-1.399h5.819l0.672 4.746h-14.341l0.769-4.746h4.129zM23.388 12.999v11.881h-14.443v-11.881zM8.946 25.634h14.443v1.39h-14.443zM22.586 4.959v1.285h-6.333l-1.034-2.177h6.475c0.492 0 0.892 0.4 0.892 0.892zM6.649 1.582c-0.066-0.14-0.074-0.297-0.022-0.443s0.158-0.263 0.298-0.329c0.189-0.079 0.381-0.045 0.446-0.021l6.319 2.208c0.146 0.052 0.263 0.158 0.329 0.297l2.815 5.928c0.067 0.14 0.075 0.297 0.023 0.443s-0.158 0.263-0.298 0.329c-0.079 0.037-0.162 0.056-0.248 0.056-0.223 0-0.429-0.13-0.525-0.331l-2.713-5.713-6.095-2.127c-0.146-0.052-0.263-0.158-0.329-0.298zM12.527 4.614l0.774 1.63h-3.455v-1.285c0-0.492 0.4-0.892 0.892-0.892h0.221zM22.501 30.745h-12.669c-0.489 0-0.887-0.398-0.887-0.887v-2.082h14.443v2.081c-0 0.489-0.398 0.887-0.887 0.887z"></path>
<path fill="#3c122c" d="M12.268 22.574c1.020 0.898 2.463 1.43 4.013 1.37 1.477-0.094 2.829-0.758 3.806-1.869s1.464-2.536 1.37-4.013c-0.094-1.477-0.758-2.829-1.869-3.806-0.156-0.137-0.394-0.122-0.532 0.034l-6.823 7.753c-0.137 0.156-0.122 0.394 0.034 0.531zM18.235 16.363c0.457 0.512 0.73 1.158 0.774 1.854 0.052 0.823-0.219 1.617-0.763 2.236s-1.298 0.989-2.121 1.041c-0.696 0.045-1.371-0.144-1.938-0.532zM13.687 21.532c0.653 0.471 1.842 0.753 2.487 0.715 1.024-0.065 1.961-0.525 2.638-1.295s1.015-1.758 0.95-2.782c-0.057-0.897-0.418-1.728-1.025-2.376l0.628-0.714c0.795 0.817 1.268 1.879 1.342 3.029 0.081 1.276-0.339 2.508-1.184 3.468s-2.013 1.533-3.289 1.615c-1.15 0.073-2.264-0.261-3.175-0.946z"></path>
<path fill="#3c122c" d="M13.304 16.933c0-0.208-0.169-0.377-0.377-0.377h-2.552c-0.208 0-0.377 0.169-0.377 0.377s0.169 0.377 0.377 0.377h2.552c0.208 0 0.377-0.169 0.377-0.377z"></path>
<path fill="#3c122c" d="M10.376 15.481h4.55c0.208 0 0.377-0.169 0.377-0.377s-0.169-0.377-0.377-0.377h-4.55c-0.208 0-0.377 0.169-0.377 0.377s0.169 0.377 0.377 0.377z"></path>
<path fill="#3c122c" d="M16.356 20.971c0.208 0 0.377-0.169 0.377-0.377v-0.77c0-0.208-0.169-0.377-0.377-0.377s-0.377 0.169-0.377 0.377v0.77c0 0.208 0.169 0.377 0.377 0.377z"></path>
<path fill="#3c122c" d="M17.776 19.329c0.208 0 0.377-0.169 0.377-0.377v-0.77c0-0.208-0.169-0.377-0.377-0.377s-0.377 0.169-0.377 0.377v0.77c0 0.208 0.169 0.377 0.377 0.377z"></path>
<path fill="#fff" d="M10.712 11.843c-0.031 0-0.062-0.002-0.094-0.007-0.343-0.051-0.579-0.371-0.528-0.714 0.037-0.246 0.137-0.887 0.174-1.128 0.051-0.343 0.371-0.579 0.714-0.528s0.579 0.371 0.528 0.714c-0.037 0.245-0.137 0.886-0.174 1.128-0.047 0.311-0.314 0.535-0.62 0.535z"></path>
<path fill="#fff" d="M11.245 7.674c0.348 0.031 0.602 0.363 0.568 0.74s-0.344 0.657-0.691 0.626c-0.348-0.031-0.602-0.363-0.568-0.74s0.344-0.657 0.691-0.626z"></path>
</svg>
