<!-- Generated by IcoMoon.io -->
<svg version="1.1" xmlns="http://www.w3.org/2000/svg" width="32" height="32" viewBox="0 0 32 32">
<title>margarita</title>
<path fill="#f6e06e" d="M31.612 8.551c0 2.677-2.17 4.847-4.847 4.847s-4.847-2.17-4.847-4.847c0-2.677 2.17-4.847 4.847-4.847s4.847 2.17 4.847 4.847z"></path>
<path fill="#faf1a9" d="M29.995 7.207c0.738 1.781-0.107 3.823-1.888 4.561s-3.823-0.107-4.561-1.888c-0.738-1.781 0.107-3.823 1.888-4.561s3.823 0.107 4.561 1.888z"></path>
<path fill="#c1e5ef" d="M4.99 8.522v2.405c0 2.267 2.021 4.134 4.62 4.38 0.121 2.522 2.299 4.594 5.151 5.047v7.836l-5.029 2.875c-0.144 0.086-0.083 0.307 0.085 0.307h12.279c0.168 0 0.229-0.221 0.085-0.307l-4.993-2.875v-7.85c2.811-0.479 4.946-2.536 5.066-5.033 2.599-0.246 4.62-2.113 4.62-4.38v-2.405z"></path>
<path fill="#faf1a9" d="M7.421 10.714c0 1.764 2.402 3.216 4.424 3.407 0.107 2.223 1.769 4.351 4.087 4.351s4.055-2.128 4.162-4.351c2.022-0.192 4.349-1.644 4.349-3.407z"></path>
<path fill="#a6aaed" d="M22.648 8.522v1.94c0 1.448-1.022 2.694-2.488 3.249-0.683 0.258-1.229 0.798-1.497 1.477-0.677 1.717-2.589 2.954-4.844 2.954-1.612 0-3.048-0.633-3.984-1.622 0.741 2.263 3.19 3.925 6.097 3.925 3.407 0 6.185-2.281 6.322-5.139 2.599-0.246 4.62-2.113 4.62-4.38v-2.405z"></path>
<path fill="#dfb5a7" d="M20.16 13.711c-0.683 0.258-1.229 0.798-1.497 1.477-0.622 1.578-2.288 2.75-4.304 2.93 0.476 0.226 1.005 0.355 1.574 0.355 2.318 0 4.055-2.128 4.162-4.351 2.022-0.192 4.349-1.644 4.349-3.407h-1.807c-0.111 1.34-1.097 2.474-2.478 2.997z"></path>
<path fill="#faf1a9" d="M2.486 1.382l0.518 1.456c0.022 0.062 0.066 0.112 0.121 0.137l1.293 0.583c0.183 0.082 0.183 0.373 0 0.456l-1.293 0.583c-0.055 0.025-0.099 0.074-0.121 0.137l-0.518 1.455c-0.073 0.206-0.332 0.206-0.405 0l-0.518-1.455c-0.022-0.062-0.066-0.112-0.121-0.137l-1.293-0.583c-0.183-0.082-0.183-0.373 0-0.456l1.293-0.583c0.055-0.025 0.099-0.074 0.121-0.137l0.518-1.456c0.073-0.206 0.332-0.206 0.405 0z"></path>
<path fill="#f6e06e" d="M9.979 0.033c0.607 0.144 0.983 0.752 0.84 1.36s-0.752 0.983-1.36 0.84c-0.607-0.144-0.983-0.752-0.84-1.36s0.752-0.983 1.36-0.84z"></path>
<path fill="#f6e06e" d="M19.547 4.651c0 0.269-0.218 0.488-0.488 0.488s-0.488-0.218-0.488-0.488c0-0.269 0.218-0.488 0.488-0.488s0.488 0.218 0.488 0.488z"></path>
<path fill="#faf1a9" d="M28.097 16.911l0.384 1.080c0.016 0.046 0.049 0.083 0.090 0.101l0.959 0.432c0.136 0.061 0.136 0.277 0 0.338l-0.959 0.432c-0.041 0.018-0.074 0.055-0.090 0.101l-0.384 1.080c-0.054 0.152-0.246 0.152-0.3 0l-0.384-1.080c-0.016-0.046-0.049-0.083-0.090-0.101l-0.959-0.432c-0.136-0.061-0.136-0.277 0-0.338l0.959-0.432c0.041-0.018 0.074-0.055 0.090-0.101l0.384-1.080c0.054-0.153 0.246-0.153 0.3 0z"></path>
<path fill="#3c122c" d="M26.765 3.328c-2.658 0-4.856 1.996-5.18 4.567h-16.594c-0.347 0-0.628 0.281-0.628 0.628v2.405c0 2.421 1.975 4.469 4.673 4.936 0.364 2.44 2.411 4.396 5.098 5.009v6.953l-4.713 2.694c-0.004 0.002-0.007 0.004-0.011 0.006-0.31 0.186-0.453 0.544-0.357 0.892s0.403 0.582 0.764 0.582h12.279c0.361 0 0.668-0.234 0.764-0.582s-0.047-0.706-0.357-0.892c-0.003-0.002-0.006-0.004-0.009-0.006l-4.678-2.694v-6.974c2.646-0.634 4.654-2.575 5.014-4.99 1.528-0.264 2.824-1.037 3.661-2.097 0.091 0.005 0.182 0.008 0.274 0.008 2.88 0 5.224-2.343 5.224-5.224s-2.343-5.224-5.224-5.224zM16.875 28.734l3.492 2.011h-8.809l3.515-2.010c0.195-0.112 0.316-0.32 0.316-0.545v-7.135c0.179 0.012 0.361 0.018 0.544 0.018 0.212 0 0.421-0.008 0.628-0.024v7.141c0 0.224 0.12 0.432 0.314 0.544zM26.247 10.927c0 1.922-1.742 3.537-4.052 3.755-0.311 0.029-0.553 0.283-0.568 0.595-0.123 2.546-2.624 4.541-5.695 4.541s-5.573-1.995-5.695-4.541c-0.015-0.312-0.257-0.565-0.568-0.595-2.31-0.219-4.052-1.833-4.052-3.755v-1.777h20.629v1.777zM23.723 7.894c0.099-0.458 0.298-0.879 0.574-1.238l1.238 1.238zM26.349 7.643l-1.524-1.524c0.43-0.344 0.952-0.576 1.524-0.653zM26.98 13.016c0.107-0.204 0.199-0.415 0.274-0.632 1.901-0.242 3.376-1.868 3.376-3.834 0-2.132-1.734-3.866-3.866-3.866-1.908 0-3.495 1.389-3.808 3.209h-0.611c0.319-2.154 2.178-3.813 4.419-3.813 2.465 0 4.47 2.005 4.47 4.47 0 2.393-1.89 4.352-4.255 4.465zM27.634 8.929h2.219c-0.071 0.586-0.306 1.122-0.658 1.562zM28.659 11.018c-0.351 0.269-0.76 0.465-1.206 0.566 0.032-0.216 0.049-0.435 0.049-0.658v-1.065zM27.634 8.175l1.563-1.563c0.351 0.44 0.586 0.976 0.657 1.563zM27.102 7.643v-2.186c0.582 0.063 1.117 0.288 1.558 0.628z"></path>
<path fill="#3c122c" d="M15.933 18.849c-2.794 0-4.219-2.156-4.44-4.392-2.166-0.325-4.448-1.872-4.448-3.743 0-0.208 0.169-0.377 0.377-0.377h17.023c0.208 0 0.377 0.169 0.377 0.377 0 1.874-2.243 3.419-4.374 3.743-0.225 2.173-1.69 4.392-4.514 4.392zM7.844 11.091c0.325 1.336 2.309 2.492 4.037 2.656 0.187 0.018 0.332 0.17 0.341 0.357 0.096 1.987 1.28 3.993 3.711 3.993 2.482 0 3.69-2.005 3.786-3.993 0.009-0.187 0.154-0.339 0.341-0.357 1.734-0.164 3.656-1.299 3.965-2.656z"></path>
<path fill="#fff" d="M14.593 12.667c-0.708 0-1.418-0.001-2.125-0.003-0.347-0.001-0.627-0.283-0.626-0.63s0.282-0.626 0.628-0.626h0.002c1.483 0.005 2.979 0.005 4.444-0.001h0.002c0.346 0 0.626 0.28 0.628 0.625s-0.279 0.629-0.625 0.63c-0.77 0.003-1.548 0.004-2.327 0.004z"></path>
<path fill="#fff" d="M10.591 12.662h-0.546c-0.347 0-0.628-0.281-0.628-0.628s0.281-0.628 0.628-0.628h0.546c0.347 0 0.628 0.281 0.628 0.628s-0.281 0.628-0.628 0.628z"></path>
<path fill="#3c122c" d="M16.334 17.093c-0.001 0-0.003 0-0.004 0-0.208-0.002-0.375-0.173-0.373-0.381l0.010-0.885c0.002-0.207 0.17-0.373 0.377-0.373h0.004c0.208 0.002 0.375 0.173 0.373 0.381l-0.010 0.885c-0.002 0.207-0.171 0.372-0.377 0.372z"></path>
<path fill="#3c122c" d="M17.823 15.946c-0.001 0-0.003 0-0.004 0-0.208-0.002-0.375-0.173-0.373-0.381l0.010-0.885c0.002-0.207 0.171-0.373 0.377-0.373h0.004c0.208 0.002 0.375 0.173 0.373 0.381l-0.010 0.885c-0.002 0.207-0.171 0.373-0.377 0.373z"></path>
</svg>
