<!-- Generated by IcoMoon.io -->
<svg version="1.1" xmlns="http://www.w3.org/2000/svg" width="32" height="32" viewBox="0 0 32 32">
<title>martini</title>
<path fill="#c1e5ef" d="M21.604 31.044l-5.134-3.075v-8.761l10.567-12.338h-24.182l10.567 12.338v8.761l-5.133 3.075c-0.154 0.092-0.089 0.328 0.091 0.328h13.132c0.179 0 0.245-0.236 0.091-0.328z"></path>
<path fill="#fff" d="M8.689 10.619l5.748 6.964c0.268 0.354 0.752 0.354 1.021 0l5.72-6.964z"></path>
<path fill="#a6aaed" d="M24.388 6.98l-9.774 9.682c-0.458 0.492-1.286 0.492-1.744 0l-9.821-9.682 10.94 12.436c0.51 0.632 1.432 0.632 1.943 0l10.886-12.436z"></path>
<path fill="#e1bdfc" d="M20.715 10.619l-6.101 6.044c-0.176 0.189-0.406 0.305-0.65 0.348l0.472 0.572c0.268 0.354 0.752 0.354 1.021 0l5.72-6.964h-0.462z"></path>
<path fill="#a1e8c3" d="M10.355 4.645c0.93 1.117 0.855 2.712-0.167 3.562s-2.604 0.634-3.533-0.483c-0.93-1.117-0.855-2.712 0.167-3.562s2.604-0.634 3.533 0.483z"></path>
<path fill="#85adc2" d="M10.348 4.642c-0.93-1.116-2.511-1.332-3.532-0.482 0.687-0.572 1.75-0.427 2.375 0.324s0.575 1.823-0.111 2.394c-0.687 0.572-1.75 0.427-2.375-0.324-0.606-0.727-0.578-1.756 0.049-2.339-0.961 0.862-1.013 2.413-0.103 3.506 0.93 1.116 2.511 1.332 3.532 0.482s1.095-2.444 0.166-3.561z"></path>
<path fill="#a1e8c3" d="M14.188 9.247c0.93 1.117 0.855 2.712-0.167 3.562s-2.604 0.634-3.533-0.483c-0.93-1.117-0.855-2.712 0.167-3.562s2.604-0.634 3.533 0.483z"></path>
<path fill="#85adc2" d="M14.179 9.242c-0.909-1.092-2.442-1.322-3.464-0.535 0.71-0.528 1.761-0.364 2.387 0.388 0.646 0.776 0.595 1.884-0.115 2.475s-1.809 0.441-2.455-0.335c-0.646-0.776-0.595-1.884 0.115-2.475-1.021 0.85-1.095 2.444-0.166 3.561s2.511 1.332 3.532 0.482c1.021-0.85 1.095-2.444 0.166-3.561z"></path>
<path fill="#cdf4e3" d="M27.643 12.653l0.533 1.498c0.023 0.064 0.068 0.115 0.125 0.141l1.331 0.599c0.188 0.085 0.188 0.384 0 0.469l-1.331 0.599c-0.057 0.026-0.102 0.076-0.125 0.141l-0.533 1.497c-0.075 0.212-0.341 0.212-0.417 0l-0.533-1.497c-0.023-0.064-0.068-0.115-0.125-0.141l-1.331-0.599c-0.188-0.085-0.188-0.384 0-0.469l1.331-0.599c0.057-0.026 0.102-0.076 0.125-0.141l0.533-1.498c0.075-0.212 0.341-0.212 0.417 0z"></path>
<path fill="#a2e9c4" d="M5.673 17.855c0 0.642-0.521 1.163-1.163 1.163s-1.163-0.521-1.163-1.163c0-0.642 0.521-1.163 1.163-1.163s1.163 0.521 1.163 1.163z"></path>
<path fill="#a2e9c4" d="M23.926 3.062c0.275 0.034 0.471 0.284 0.437 0.559s-0.284 0.471-0.559 0.437c-0.275-0.034-0.471-0.284-0.437-0.559s0.284-0.471 0.559-0.437z"></path>
<path fill="#cdf4e3" d="M18.183 0.418l0.395 1.111c0.017 0.048 0.050 0.085 0.093 0.104l0.987 0.445c0.139 0.063 0.139 0.285 0 0.348l-0.987 0.445c-0.042 0.019-0.076 0.057-0.093 0.104l-0.395 1.111c-0.056 0.157-0.253 0.157-0.309 0l-0.395-1.111c-0.017-0.048-0.050-0.085-0.093-0.104l-0.987-0.445c-0.139-0.063-0.139-0.285 0-0.348l0.987-0.445c0.042-0.019 0.076-0.057 0.093-0.104l0.395-1.111c0.056-0.157 0.253-0.157 0.309 0z"></path>
<path fill="#3c122c" d="M27.515 7.278c0.16-0.186 0.196-0.448 0.093-0.671s-0.325-0.365-0.57-0.365h-15.414c-0.036-0.722-0.312-1.423-0.793-2.001-0.55-0.661-1.306-1.087-2.129-1.199-0.663-0.091-1.307 0.031-1.858 0.341l-2.67-3.16c-0.224-0.265-0.62-0.298-0.885-0.074s-0.298 0.62-0.074 0.885l2.696 3.191c-0.409 0.582-0.586 1.298-0.524 2.016h-2.53c-0.245 0-0.468 0.143-0.571 0.365s-0.066 0.485 0.094 0.671l10.416 12.162v8.173l-4.828 2.892c-0.314 0.188-0.46 0.552-0.362 0.905s0.409 0.59 0.776 0.59h13.132c0.366 0 0.678-0.237 0.776-0.59s-0.048-0.717-0.362-0.905l-4.828-2.892v-8.173zM16.29 14.564l-1.449-1.716c0.371-0.474 0.585-1.059 0.615-1.697 0.002-0.052 0.004-0.104 0.003-0.156h4.922l-5.214 6.348c-0.003 0.004-0.006 0.008-0.009 0.012-0.057 0.075-0.131 0.116-0.21 0.116s-0.153-0.041-0.21-0.116c-0.003-0.004-0.006-0.008-0.010-0.012l-2.864-3.47c0.228 0.051 0.46 0.077 0.69 0.077 0.455 0 0.904-0.101 1.315-0.305l1.462 1.731c0.124 0.147 0.302 0.223 0.48 0.223 0.143 0 0.287-0.049 0.405-0.148 0.265-0.224 0.298-0.62 0.074-0.885zM14.201 11.094c-0.023 0.494-0.232 0.93-0.589 1.227-0.753 0.627-1.941 0.447-2.647-0.401-0.229-0.276-0.385-0.593-0.458-0.924h3.696c0 0.033-0.001 0.065-0.002 0.098zM10.486 10.242c0.068-0.399 0.263-0.748 0.564-0.999 0.294-0.245 0.664-0.374 1.059-0.374 0.084 0 0.169 0.006 0.254 0.017 0.511 0.070 0.985 0.339 1.334 0.758 0.153 0.184 0.273 0.385 0.358 0.598h-3.569zM9.781 7.72c-0.697 0.581-1.766 0.469-2.482-0.223h2.701c-0.065 0.081-0.138 0.156-0.219 0.223zM7.218 4.643c0.294-0.245 0.664-0.374 1.059-0.374 0.084 0 0.169 0.006 0.254 0.017 0.511 0.070 0.985 0.339 1.334 0.758 0.292 0.351 0.464 0.768 0.499 1.197h-3.717c-0.087-0.606 0.106-1.211 0.57-1.598zM16.148 28.507l3.734 2.237h-9.869l3.734-2.237c0.189-0.113 0.305-0.318 0.305-0.539v-8.761c0-0.15-0.054-0.295-0.151-0.409l-9.68-11.301h1.531c0.113 0.218 0.251 0.428 0.416 0.626 0.67 0.804 1.622 1.226 2.554 1.226 0.26 0 0.519-0.033 0.77-0.1-0.145 0.306-0.238 0.64-0.274 0.993h-0.529c-0.146 0-0.279 0.084-0.341 0.216s-0.043 0.288 0.050 0.4l5.743 6.958c0.2 0.259 0.493 0.408 0.805 0.408s0.606-0.149 0.806-0.408l5.716-6.959c0.093-0.113 0.112-0.268 0.049-0.4s-0.195-0.216-0.341-0.216h-5.809c-0.121-0.505-0.36-0.985-0.707-1.401-0.55-0.661-1.306-1.087-2.129-1.199-0.411-0.056-0.814-0.031-1.193 0.070 0.033-0.070 0.063-0.142 0.090-0.215h14.244l-9.68 11.301c-0.098 0.114-0.151 0.259-0.151 0.409v8.762c0 0.221 0.116 0.425 0.305 0.539z"></path>
<path fill="#fff" d="M8.495 5.411c0 0.304-0.247 0.551-0.551 0.551s-0.551-0.247-0.551-0.551c0-0.304 0.247-0.551 0.551-0.551s0.551 0.247 0.551 0.551z"></path>
<path fill="#fff" d="M12.275 10.056c0 0.304-0.247 0.551-0.551 0.551s-0.551-0.247-0.551-0.551 0.247-0.551 0.551-0.551 0.551 0.247 0.551 0.551z"></path>
</svg>
