<!-- Generated by IcoMoon.io -->
<svg version="1.1" xmlns="http://www.w3.org/2000/svg" width="32" height="32" viewBox="0 0 32 32">
<title>mojito</title>
<path fill="#f4dab5" d="M20.743 31.37h-10.073c-1.282 0-2.342-0.999-2.418-2.278l-1.178-19.866h17.265l-1.178 19.866c-0.076 1.28-1.136 2.278-2.418 2.278z"></path>
<path fill="#dba2b3" d="M21.685 11.416c-0.287 0.993-0.571 1.987-0.855 2.981l-0.666 11.755c-0.062 1.090-0.924 1.941-1.967 1.941h-8.197c-0.898 0-1.661-0.631-1.896-1.502l0.148 2.5c0.076 1.28 1.136 2.278 2.418 2.278h10.073c1.282 0 2.342-0.999 2.418-2.278l1.049-17.676z"></path>
<path fill="#a1e8c3" d="M15.29 2.79s-2.79 0.969-3.788 3.182c-0.076-0.073-0.154-0.145-0.236-0.216-1.899-1.631-4.959-1.184-4.959-1.184s0.019 3.093 1.919 4.724c1.319 1.133 2.733 1.48 3.649 1.354 0.042 0.023 0.084 0.043 0.127 0.057 0.826 0.271 2.832-0.517 3.765-2.841s-0.476-5.076-0.476-5.076z"></path>
<path fill="#9781dd" d="M23.554 0.411c-0.515-0.136-1.043 0.171-1.179 0.685l-1.908 7.206h1.995l1.777-6.712c0.136-0.515-0.171-1.043-0.685-1.179z"></path>
<path fill="#9781dd" d="M20.199 16.848l1.452-5.483h-1.995l-1.689 6.377c0.083 0.063 0.166 0.127 0.249 0.19 0.628-0.421 1.296-0.771 1.983-1.084z"></path>
<path fill="#9781dd" d="M18.051 23.086c-0.492 0.277-1.059 0.375-1.55 0.193l-1.257 4.747c-0.136 0.515 0.171 1.043 0.685 1.179 0.083 0.022 0.166 0.032 0.248 0.032 0.427 0 0.817-0.286 0.932-0.718l1.566-5.912c-0.186 0.185-0.392 0.348-0.623 0.477z"></path>
<path fill="#ccf3e2" d="M14.578 27.181c-0.652 0.575-2.704 0.15-4.235-1.831s-0.926-5.014-0.926-5.014 3.087 0.179 4.619 2.16c1.531 1.981 1.195 4.111 0.543 4.685z"></path>
<path fill="#ccf3e2" d="M16.485 22.194c-0.604-0.625-0.273-2.695 1.636-4.314s4.966-1.154 4.966-1.154-0.038 3.092-1.947 4.712c-1.909 1.62-4.052 1.381-4.656 0.756z"></path>
<path fill="#fff" d="M14.472 28.275l-2.455 1.418c-0.545 0.315-1.243 0.128-1.557-0.417l-1.373-2.378c-0.315-0.545-0.128-1.243 0.417-1.557l2.455-1.418c0.545-0.315 1.243-0.128 1.557 0.417l1.373 2.378c0.315 0.545 0.128 1.242-0.417 1.557z"></path>
<path fill="#e1bdfc" d="M12.025 29.688l2.438-1.408c0.091-0.052 0.171-0.116 0.241-0.187h-4.704c-0.079 0-0.156-0.005-0.232-0.015l0.686 1.189c0.318 0.55 1.021 0.738 1.571 0.421z"></path>
<path fill="#a1e8c3" d="M20.927 21.945c1.999 1.759 2.193 4.806 0.434 6.805s-4.806 2.193-6.805 0.434z"></path>
<path fill="#85adc2" d="M20.927 21.945l-0.561 0.637-0.202 3.57c-0.062 1.090-0.924 1.941-1.967 1.941h-2.68l-0.96 1.091c1.999 1.759 5.046 1.565 6.805-0.434s1.565-5.046-0.434-6.805z"></path>
<path fill="#f6e06e" d="M19.864 23.152c1.332 1.172 1.462 3.203 0.289 4.535s-3.203 1.462-4.535 0.289z"></path>
<path fill="#dda86a" d="M20.307 23.628l-0.143 2.523c-0.062 1.090-0.924 1.941-1.967 1.941h-2.439c1.331 1.046 3.263 0.881 4.396-0.405 1.026-1.166 1.055-2.867 0.153-4.059z"></path>
<path fill="#a1e8c3" d="M16.511 17.203c0 2.329-1.888 4.217-4.217 4.217s-4.217-1.888-4.217-4.217c0-2.329 1.888-4.217 4.217-4.217s4.217 1.888 4.217 4.217z"></path>
<path fill="#f6e06e" d="M15.045 17.203c0 1.519-1.231 2.75-2.751 2.75s-2.751-1.231-2.751-2.75c0-1.519 1.231-2.751 2.751-2.751s2.751 1.231 2.751 2.751z"></path>
<path fill="#fff" d="M16.369 23.117l-2.356-1.969c-0.483-0.404-0.548-1.123-0.144-1.606l1.909-2.284c0.404-0.483 1.123-0.548 1.606-0.144l2.356 1.969c0.483 0.404 0.548 1.123 0.144 1.606l-1.909 2.284c-0.404 0.483-1.123 0.548-1.606 0.144z"></path>
<path fill="#fff" d="M23.679 11.383h-15.944c-0.831 0-1.505-0.674-1.505-1.505v-0.087c0-0.831 0.674-1.505 1.505-1.505h15.944c0.831 0 1.505 0.674 1.505 1.505v0.087c0 0.831-0.674 1.505-1.505 1.505z"></path>
<path fill="#b1b6e1" d="M20.695 16.773l-0.294 5.197c0.248-0.149 0.496-0.326 0.74-0.533 1.909-1.62 1.947-4.712 1.947-4.712s-1.1-0.168-2.392 0.048z"></path>
<path fill="#cdf4e3" d="M28.638 3.755l0.528 1.485c0.023 0.064 0.067 0.114 0.124 0.139l1.32 0.595c0.186 0.084 0.186 0.381 0 0.465l-1.32 0.595c-0.056 0.025-0.101 0.076-0.124 0.139l-0.528 1.485c-0.075 0.21-0.338 0.21-0.413 0l-0.528-1.485c-0.023-0.064-0.067-0.114-0.124-0.139l-1.32-0.595c-0.186-0.084-0.186-0.381 0-0.465l1.32-0.595c0.056-0.025 0.101-0.076 0.124-0.139l0.528-1.485c0.075-0.21 0.338-0.21 0.413 0z"></path>
<path fill="#a2e9c4" d="M11.053 1.195c0 0.637-0.516 1.153-1.153 1.153s-1.153-0.516-1.153-1.153c0-0.637 0.516-1.153 1.153-1.153s1.153 0.516 1.153 1.153z"></path>
<path fill="#a2e9c4" d="M30.717 13.083c0 0.275-0.223 0.498-0.497 0.498s-0.497-0.223-0.497-0.498c0-0.275 0.223-0.498 0.497-0.498s0.497 0.223 0.497 0.498z"></path>
<path fill="#cdf4e3" d="M3.124 11.091l0.392 1.102c0.017 0.047 0.050 0.085 0.092 0.103l0.979 0.441c0.138 0.062 0.138 0.283 0 0.345l-0.979 0.441c-0.042 0.019-0.075 0.056-0.092 0.103l-0.392 1.102c-0.055 0.156-0.251 0.156-0.306 0l-0.392-1.102c-0.017-0.047-0.050-0.085-0.092-0.103l-0.979-0.441c-0.138-0.062-0.138-0.283 0-0.345l0.979-0.441c0.042-0.019 0.075-0.056 0.092-0.103l0.392-1.102c0.055-0.156 0.251-0.156 0.306 0z"></path>
<path fill="#3c122c" d="M23.666 7.657h-0.642l1.581-5.97c0.19-0.716-0.239-1.452-0.954-1.642-0.347-0.092-0.708-0.043-1.018 0.137s-0.531 0.47-0.623 0.817l-1.763 6.657h-4.005c0.73-2.365-0.557-4.926-0.615-5.039-0.086-0.168-0.282-0.247-0.461-0.185-0.115 0.040-2.592 0.92-3.777 2.935-2.009-1.605-5.008-1.189-5.138-1.17-0.187 0.027-0.325 0.188-0.324 0.377 0.001 0.096 0.024 1.77 0.795 3.342-0.669 0.364-1.124 1.074-1.124 1.888v0.061c0 0.758 0.395 1.424 0.989 1.807l1.036 17.456c0.096 1.61 1.434 2.871 3.047 2.871h10.073c1.613 0 2.951-1.261 3.047-2.871l1.036-17.456c0.594-0.383 0.989-1.049 0.989-1.807v-0.061c0-1.185-0.964-2.148-2.148-2.148zM22.74 1.193c0.040-0.151 0.137-0.278 0.272-0.357 0.091-0.053 0.191-0.080 0.294-0.080 0.050 0 0.101 0.007 0.151 0.020 0.313 0.083 0.499 0.404 0.417 0.717l-1.632 6.163h-1.213zM15.094 3.277c0.312 0.749 0.982 2.7 0.347 4.379h-1.773l0.62-1.526c0.079-0.194-0.015-0.414-0.208-0.493s-0.414 0.015-0.493 0.208l-0.736 1.811h-1.442c0.060-0.431 0.179-0.898 0.376-1.388 0.681-1.695 2.555-2.662 3.308-2.991zM6.704 4.915c0.821-0.055 2.929-0.061 4.315 1.129 0.011 0.009 0.021 0.019 0.032 0.028-0.215 0.556-0.342 1.089-0.401 1.585h-0.28l-1.224-1.060c-0.158-0.137-0.397-0.12-0.534 0.038s-0.12 0.397 0.038 0.534l0.564 0.488h-1.467c-0.1 0-0.199 0.007-0.295 0.021-0.539-1.052-0.7-2.203-0.748-2.763zM7.871 12.014h11.221l-1.309 4.942-0.15-0.125c-0.237-0.198-0.516-0.311-0.802-0.344-0.345-2.195-2.248-3.879-4.538-3.879-1.891 0-3.518 1.148-4.223 2.783zM13.849 24.16c-0.204-0.354-0.534-0.606-0.928-0.712-0.239-0.064-0.484-0.069-0.718-0.018l-0.413-0.539c-0.127-0.166-0.364-0.197-0.53-0.070s-0.197 0.364-0.070 0.53l0.308 0.402-1.255 0.724c-0.613-1.225-0.6-2.68-0.53-3.475 0.736 0.502 1.625 0.796 2.582 0.796 0.133 0 0.264-0.006 0.394-0.017 0.389 0.252 0.752 0.563 1.048 0.946 0.826 1.068 1.049 2.16 1.001 2.97zM14.274 27.952l-2.438 1.408c-0.368 0.213-0.841 0.086-1.054-0.282l-1.363-2.361c-0.213-0.369-0.086-0.841 0.282-1.054l2.438-1.408c0.119-0.069 0.251-0.104 0.385-0.104 0.067 0 0.134 0.009 0.201 0.027 0.199 0.053 0.366 0.181 0.469 0.36l1.363 2.361c0.213 0.369 0.086 0.841-0.282 1.054zM17.691 22.723c-0.132 0.158-0.318 0.255-0.523 0.274s-0.405-0.044-0.564-0.176l-2.341-1.956c-0.158-0.132-0.255-0.318-0.274-0.523s0.044-0.405 0.176-0.564l1.896-2.269c0.132-0.158 0.318-0.255 0.523-0.274 0.023-0.002 0.047-0.003 0.070-0.003 0.18 0 0.353 0.063 0.493 0.18l2.341 1.956c0.158 0.132 0.255 0.318 0.274 0.523s-0.044 0.405-0.176 0.564zM18.976 22.945c0.239-0.051 0.497-0.125 0.77-0.23l-1.014 1.152zM13.803 19.032c-0.41 0.339-0.936 0.543-1.509 0.543-1.308 0-2.372-1.064-2.372-2.372s1.064-2.372 2.372-2.372 2.372 1.064 2.372 2.372c0 0.421-0.111 0.816-0.304 1.16zM15.481 17.023l-0.062 0.074c-0.056-1.676-1.436-3.023-3.126-3.023-1.725 0-3.129 1.403-3.129 3.129s1.404 3.129 3.129 3.129c0.327 0 0.642-0.051 0.938-0.145-0.004 0.073-0.003 0.148 0.004 0.222 0.015 0.169 0.058 0.331 0.124 0.482-0.339 0.098-0.696 0.151-1.066 0.151-2.117 0-3.839-1.722-3.839-3.839s1.722-3.839 3.839-3.839c1.907 0 3.492 1.398 3.788 3.223-0.226 0.091-0.434 0.237-0.601 0.437zM14.335 22.265c-0.197-0.255-0.416-0.481-0.65-0.683 0.061-0.020 0.122-0.040 0.183-0.063l2.217 1.853-0.58 2.191c0.001-0.069 0.001-0.139-0.001-0.209-0.023-0.749-0.244-1.893-1.169-3.090zM16.775 23.721c0.105 0.023 0.212 0.036 0.322 0.036 0.046 0 0.092-0.002 0.139-0.006 0.311-0.028 0.6-0.148 0.835-0.342l-0.458 1.73-1.735 1.971zM19.895 23.69c0.926 1.062 0.946 2.676-0.010 3.762-0.504 0.573-1.201 0.915-1.962 0.963-0.634 0.040-1.249-0.127-1.768-0.475zM19.2 22.1l0.001-0.003 0.968-1.158c0.262-0.313 0.386-0.71 0.349-1.116-0.013-0.146-0.047-0.288-0.099-0.421l0.225-0.189c0.16-0.135 0.18-0.373 0.046-0.533s-0.373-0.18-0.533-0.046l-0.182 0.153-1.142-0.954c1.36-0.84 3.121-0.821 3.854-0.767-0.075 0.819-0.399 2.903-1.791 4.084-0.568 0.481-1.151 0.781-1.696 0.95zM18.519 17.135l1.356-5.122h1.213l-1.205 4.55c-0.461 0.129-0.926 0.313-1.364 0.572zM8.315 19.498c0.195 0.337 0.432 0.648 0.703 0.924-0.093 0.592-0.332 2.682 0.567 4.435l-0.262 0.151c-0.296 0.171-0.513 0.427-0.639 0.719zM10.67 30.739c-0.947 0-1.732-0.74-1.788-1.685l-0.116-1.955 1.361 2.357c0.283 0.49 0.797 0.764 1.326 0.764 0.259 0 0.521-0.066 0.761-0.204l2.249-1.298-0.191 0.217c-0.138 0.157-0.123 0.396 0.034 0.534 0.828 0.729 1.842 1.166 2.919 1.271zM15.1 29.138l0.552-0.627c0.61 0.434 1.332 0.666 2.084 0.666 0.078 0 0.157-0.003 0.235-0.008 0.963-0.061 1.844-0.494 2.482-1.218 1.232-1.399 1.183-3.492-0.054-4.834l0.552-0.627c1.58 1.647 1.661 4.266 0.127 6.010-0.784 0.891-1.868 1.423-3.053 1.499-1.057 0.068-2.082-0.237-2.924-0.861zM22.531 29.054c-0.056 0.945-0.842 1.685-1.788 1.685h-2.505c1.321-0.126 2.526-0.739 3.406-1.739 0.446-0.507 0.775-1.078 0.989-1.679zM22.807 24.405c-0.221-0.972-0.722-1.889-1.495-2.619 0.024-0.020 0.048-0.040 0.073-0.060 0.96-0.815 1.477-1.956 1.756-2.942zM23.282 16.402c-0.041-0.025-0.087-0.043-0.138-0.050-0.076-0.012-1.15-0.167-2.431 0.033l1.157-4.371h1.672zM24.553 9.866c0 0.489-0.398 0.887-0.887 0.887h-15.918c-0.489 0-0.888-0.398-0.888-0.887v-0.061c0-0.489 0.398-0.887 0.888-0.887h15.918c0.489 0 0.887 0.398 0.887 0.887z"></path>
<path fill="#fff" d="M9.9 20.46c-0.318 0-0.591-0.239-0.626-0.562-0.062-0.569-0.075-1.121-0.089-1.655-0.013-0.52-0.025-1.011-0.078-1.511-0.037-0.346 0.214-0.657 0.56-0.694s0.657 0.213 0.694 0.56c0.059 0.551 0.072 1.092 0.085 1.614 0.013 0.531 0.025 1.033 0.081 1.549 0.038 0.346-0.212 0.657-0.558 0.695-0.023 0.003-0.046 0.004-0.069 0.004z"></path>
<path fill="#fff" d="M9.633 15.375c-0.333 0-0.611-0.261-0.629-0.597l-0.060-1.132c-0.018-0.348 0.249-0.644 0.596-0.663s0.644 0.249 0.663 0.596l0.060 1.132c0.018 0.348-0.249 0.644-0.596 0.663-0.011 0.001-0.023 0.001-0.034 0.001z"></path>
</svg>
