<!-- Generated by IcoMoon.io -->
<svg version="1.1" xmlns="http://www.w3.org/2000/svg" width="32" height="32" viewBox="0 0 32 32">
<title>punch</title>
<path fill="#fff" d="M31.37 12.033h-30.74c0 7.164 4.902 13.184 11.535 14.887l-1.014 3.744h9.699l-1.023-3.742c6.637-1.701 11.543-7.722 11.543-14.889z"></path>
<path fill="#d789b9" d="M1.201 16.195c1.815 6.466 7.753 11.208 14.799 11.208s12.984-4.741 14.799-11.208z"></path>
<path fill="#c668b9" d="M24.803 16.39c-1.767 4.743-6.337 8.121-11.695 8.121-6.784 0-12.303-5.413-12.473-12.155 0.172 8.34 6.985 15.048 15.366 15.048 6.975 0 12.864-4.647 14.743-11.014z"></path>
<path fill="#e1bdfc" d="M30.756 16.343c0.399-1.368 0.613-2.814 0.613-4.31h-5.785c0 1.515-0.27 2.967-0.765 4.31z"></path>
<path fill="#c1e5ef" d="M16.119 22.347c-0.602-0.49-0.693-1.375-0.203-1.977l12.409-15.251c0.49-0.602 1.375-0.693 1.977-0.203s0.693 1.375 0.203 1.977l-12.409 15.251c-0.49 0.602-1.375 0.693-1.977 0.203z"></path>
<path fill="#f6e06e" d="M27.126 18.593c0 2.052-1.664 3.716-3.716 3.716s-3.716-1.664-3.716-3.716c0-2.052 1.664-3.716 3.716-3.716s3.716 1.664 3.716 3.716z"></path>
<path fill="#dda86a" d="M26.401 16.39h-1.598c-0.754 2.023-2.018 3.797-3.635 5.168 0.623 0.472 1.399 0.752 2.241 0.752 2.052 0 3.716-1.664 3.716-3.716 0-0.825-0.269-1.587-0.724-2.204z"></path>
<path fill="#faf1a9" d="M23.656 16.194c1.332 0.133 2.304 1.32 2.171 2.651s-1.32 2.304-2.651 2.171c-1.332-0.133-2.304-1.32-2.171-2.651s1.32-2.304 2.651-2.171z"></path>
<path fill="#dfb5a7" d="M24.736 16.565c-0.598 1.532-1.489 2.917-2.606 4.086 0.371 0.231 0.809 0.365 1.279 0.365 1.338 0 2.424-1.085 2.424-2.424 0-0.849-0.436-1.595-1.097-2.028z"></path>
<path fill="#f6e06e" d="M11.017 18.127c0.766-1.337 0.777-3.044-0.119-4.426l-7.131 4.621c1.244 1.919 3.774 2.501 5.724 1.348 0.369 1.543 1.591 2.816 3.246 3.169 2.295 0.49 4.552-0.973 5.042-3.267z"></path>
<path fill="#faf1a9" d="M9.709 14.472c0.85 1.312 0.476 3.066-0.837 3.916s-3.066 0.476-3.916-0.837z"></path>
<path fill="#faf1a9" d="M16.394 19.276c-0.327 1.529-1.831 2.504-3.361 2.178s-2.504-1.831-2.178-3.361z"></path>
<path fill="#fff" d="M23.141 23.093l-1.929 1.114c-0.545 0.315-1.243 0.128-1.557-0.417l-1.074-1.86c-0.315-0.545-0.128-1.243 0.417-1.557l1.929-1.114c0.545-0.315 1.243-0.128 1.557 0.417l1.074 1.86c0.315 0.545 0.128 1.243-0.417 1.557z"></path>
<path fill="#e1bdfc" d="M19.166 22.943l0.484 0.838c0.317 0.55 1.020 0.738 1.57 0.421l1.913-1.104c0.55-0.317 0.738-1.020 0.421-1.57l-0.866-1.5c-0.981 1.175-2.175 2.166-3.521 2.916z"></path>
<path fill="#fff" d="M10.891 25.248l-2.168-0.511c-0.613-0.144-0.993-0.758-0.848-1.371l0.493-2.091c0.144-0.613 0.758-0.993 1.371-0.848l2.168 0.511c0.613 0.144 0.993 0.758 0.848 1.371l-0.493 2.091c-0.144 0.613-0.758 0.993-1.371 0.848z"></path>
<path fill="#e1bdfc" d="M8.732 24.739l2.149 0.506c0.587 0.138 1.174-0.201 1.356-0.765-1.549-0.107-3.020-0.496-4.362-1.117-0.141 0.616 0.241 1.23 0.857 1.376z"></path>
<path fill="#e8c2d8" d="M3.154 3.807l0.535 1.505c0.023 0.064 0.068 0.115 0.126 0.141l1.337 0.602c0.189 0.085 0.189 0.386 0 0.471l-1.337 0.602c-0.057 0.026-0.103 0.077-0.126 0.141l-0.535 1.505c-0.076 0.213-0.343 0.213-0.419 0l-0.535-1.505c-0.023-0.064-0.068-0.115-0.126-0.141l-1.337-0.602c-0.189-0.085-0.189-0.386 0-0.471l1.337-0.602c0.057-0.026 0.103-0.077 0.126-0.141l0.535-1.505c0.076-0.213 0.343-0.213 0.419 0z"></path>
<path fill="#d789b9" d="M21.58 5.584c0 0.645-0.523 1.169-1.169 1.169s-1.169-0.523-1.169-1.169c0-0.645 0.523-1.169 1.169-1.169s1.169 0.523 1.169 1.169z"></path>
<path fill="#d789b9" d="M10.905 7.265c0.063 0.266-0.102 0.533-0.368 0.595s-0.532-0.102-0.595-0.368c-0.063-0.266 0.102-0.533 0.368-0.595s0.532 0.102 0.595 0.368z"></path>
<path fill="#e8c2d8" d="M12.592 0.823l0.397 1.116c0.017 0.048 0.051 0.086 0.093 0.105l0.992 0.447c0.14 0.063 0.14 0.286 0 0.349l-0.992 0.447c-0.042 0.019-0.076 0.057-0.093 0.105l-0.397 1.116c-0.056 0.158-0.254 0.158-0.31 0l-0.397-1.116c-0.017-0.048-0.051-0.086-0.093-0.105l-0.992-0.447c-0.14-0.063-0.14-0.286 0-0.349l0.992-0.447c0.043-0.019 0.076-0.057 0.093-0.105l0.397-1.116c0.056-0.158 0.254-0.158 0.31 0z"></path>
<path fill="#3c122c" d="M32 12.033c0-0.348-0.282-0.63-0.63-0.63h-3.722l3.346-4.113c0.343-0.422 0.502-0.952 0.446-1.493s-0.318-1.028-0.74-1.371c-0.422-0.343-0.952-0.501-1.493-0.446s-1.028 0.318-1.371 0.74l-5.437 6.682h-21.77c-0.348 0-0.63 0.282-0.63 0.63 0 4.274 1.664 8.292 4.686 11.314 1.902 1.902 4.199 3.266 6.706 4.016l-0.85 3.137c-0.051 0.189-0.011 0.392 0.108 0.548s0.304 0.247 0.501 0.247h9.699c0.196 0 0.382-0.092 0.501-0.248s0.159-0.359 0.107-0.549l-0.856-3.134c2.509-0.749 4.809-2.114 6.713-4.018 3.022-3.022 4.686-7.040 4.686-11.314zM30.726 12.663c-0.048 1.14-0.227 2.247-0.522 3.307h-3.655c-0.438-0.524-1.004-0.936-1.65-1.189l1.723-2.118zM26.747 18.593c0 1.615-1.153 2.965-2.679 3.272-0.028-0.178-0.088-0.351-0.179-0.513 1.317-0.228 2.322-1.378 2.322-2.759 0-0.717-0.271-1.371-0.715-1.867h0.679c0.361 0.533 0.572 1.176 0.572 1.867zM18.105 20.967c-0.019 0.073-0.033 0.146-0.042 0.219l-0.456 0.561c-0.131 0.161-0.316 0.261-0.522 0.282-0.085 0.009-0.169 0.003-0.25-0.015 0.642-0.618 1.114-1.427 1.314-2.362 0.044-0.204-0.087-0.405-0.291-0.449l-0.153-0.033 1.988-2.443h0.073c-0.288 0.56-0.452 1.195-0.452 1.867 0 0.318 0.038 0.627 0.107 0.924l-0.267 0.328-0.337 0.195c-0.354 0.204-0.606 0.533-0.712 0.927zM8.34 24.026c-0.108-0.175-0.142-0.382-0.095-0.583l0.488-2.072c0.084-0.355 0.401-0.595 0.751-0.595 0.058 0 0.118 0.007 0.177 0.021l2.149 0.507c0.414 0.098 0.671 0.514 0.574 0.928l-0.488 2.073c-0.047 0.201-0.17 0.371-0.345 0.479s-0.382 0.142-0.583 0.095l-2.149-0.506c-0.201-0.047-0.371-0.17-0.479-0.345zM11.201 15.97h-0.641c-0.005-0.479-0.118-0.95-0.332-1.384l0.543-0.352c0.285 0.551 0.425 1.146 0.43 1.736zM12.725 20.986c-0.182-0.187-0.414-0.329-0.682-0.404-0.589-0.492-0.932-1.245-0.886-2.039l4.778 1.021c-0.185 0.489-0.519 0.905-0.966 1.194-0.554 0.359-1.215 0.481-1.861 0.343-0.133-0.028-0.261-0.067-0.383-0.115zM10.024 20.105c-0.233-0.588-0.319-1.222-0.246-1.856l0.633 0.135c-0.064 0.683 0.094 1.346 0.42 1.911zM11.571 17.859c0.157-0.363 0.268-0.744 0.329-1.133h6.168l-1.747 2.148zM10.814 17.698l-0.648-0.138c0.141-0.259 0.246-0.538 0.313-0.833h0.654c-0.063 0.335-0.17 0.662-0.319 0.971zM9.588 15.001c0.138 0.306 0.211 0.635 0.216 0.97h-1.712zM9.698 16.726c-0.124 0.397-0.482 0.991-1.022 1.36-0.554 0.359-1.214 0.481-1.86 0.343-0.521-0.111-0.981-0.381-1.328-0.771l1.437-0.931zM4.848 18.072c0.461 0.558 1.091 0.943 1.81 1.096 0.227 0.048 0.455 0.072 0.681 0.072 0.582 0 1.152-0.158 1.66-0.465 0.005 0.235 0.028 0.467 0.067 0.695-1.628 0.817-3.624 0.382-4.761-1.047zM13.121 22.404c0.042-0.178 0.051-0.356 0.030-0.528 0.16 0.024 0.321 0.037 0.48 0.037 0.616 0 1.22-0.177 1.749-0.52 0.617-0.4 1.068-0.984 1.3-1.67l0.633 0.135c-0.27 0.854-0.823 1.581-1.584 2.074-0.788 0.511-1.714 0.713-2.635 0.584zM24.243 16.726c0.713 0.32 1.211 1.036 1.211 1.867 0 1.105-0.881 2.008-1.978 2.044l-0.66-1.142c-0.305-0.527-0.878-0.804-1.448-0.758-0.003-0.047-0.005-0.095-0.005-0.143 0-0.831 0.498-1.547 1.211-1.867h1.669zM20.607 18.593c0 0.135 0.010 0.267 0.029 0.396l-0.494 0.285c-0.046-0.22-0.071-0.448-0.071-0.682 0-0.691 0.211-1.334 0.572-1.867h0.679c-0.444 0.496-0.715 1.15-0.715 1.867zM19.195 20.694l1.913-1.104c0.121-0.070 0.254-0.103 0.384-0.103 0.267 0 0.527 0.138 0.669 0.386l1.065 1.844c0.213 0.368 0.086 0.841-0.282 1.054l-1.913 1.104c-0.368 0.213-0.841 0.086-1.054-0.282l-1.065-1.844c-0.213-0.368-0.086-0.841 0.282-1.054zM24.392 15.97c-0.306-0.115-0.638-0.179-0.984-0.179s-0.677 0.063-0.984 0.179h-1.077c0.568-0.447 1.284-0.715 2.061-0.715s1.493 0.268 2.061 0.715zM28.814 5.517c0.153-0.188 0.377-0.286 0.602-0.286 0.172 0 0.345 0.057 0.488 0.174 0.161 0.131 0.261 0.316 0.282 0.522s-0.039 0.408-0.17 0.568l-3.994 4.908h-1.998zM22.999 12.663h1.998l-1.495 1.838c-0.031-0.001-0.062-0.002-0.093-0.002-1.098 0-2.096 0.435-2.832 1.142zM1.274 12.663h20.101l-2.69 3.307h-6.727c-0.006-0.851-0.246-1.709-0.742-2.474-0.055-0.084-0.14-0.143-0.238-0.164s-0.2-0.002-0.285 0.052l-3.991 2.586h-4.906c-0.294-1.060-0.473-2.166-0.522-3.307zM2.027 16.726h3.507l-1.973 1.279c-0.084 0.055-0.143 0.14-0.164 0.238s-0.002 0.2 0.052 0.285c0.885 1.365 2.373 2.109 3.89 2.109 0.338 0 0.676-0.037 1.011-0.112-0.167 0.185-0.292 0.413-0.353 0.672l-0.488 2.072c-0.066 0.279-0.052 0.565 0.037 0.831-2.548-1.791-4.506-4.367-5.518-7.374zM11.974 30.035l0.639-2.36c1.101 0.236 2.234 0.358 3.387 0.358 1.15 0 2.281-0.122 3.38-0.357l0.644 2.358zM16 26.773c-2.255 0-4.393-0.51-6.306-1.419l1.101 0.259c0.117 0.028 0.236 0.041 0.353 0.041 0.28 0 0.556-0.078 0.801-0.229 0.347-0.215 0.59-0.552 0.683-0.949l0.288-1.222c0.237 0.037 0.472 0.057 0.706 0.057 0.733 0 1.441-0.176 2.074-0.494 0.007 0.006 0.014 0.012 0.021 0.018 0.366 0.298 0.815 0.457 1.281 0.457 0.070 0 0.141-0.004 0.212-0.011 0.514-0.053 0.979-0.293 1.319-0.679l0.79 1.368c0.283 0.49 0.797 0.763 1.325 0.763 0.259 0 0.521-0.066 0.761-0.204l1.913-1.104c0.308-0.178 0.54-0.451 0.664-0.78 1.985-0.281 3.517-1.991 3.517-4.052 0-0.672-0.164-1.307-0.452-1.867h2.922c-1.965 5.833-7.486 10.047-13.973 10.047z"></path>
</svg>
