<!-- Generated by IcoMoon.io -->
<svg version="1.1" xmlns="http://www.w3.org/2000/svg" width="32" height="32" viewBox="0 0 32 32">
<title>soda</title>
<path fill="#fff" d="M15.669 16.738c0.456-1.795 0.475-3.706 0.080-5.53-0.473-2.187-1.487-5.426-3.495-6.867l0.049-3.665-4.264-0.057-0.048 3.575c-2.122 1.333-3.24 4.63-3.773 6.851-0.522 2.177-0.464 4.489 0.236 6.596 0.024 0.074 0.050 0.147 0.075 0.22 0.286 0.807 0.452 1.875 0.437 3.044s0.035 2.305-0.273 3.104c-0.556 1.445-0.83 3.021-0.851 4.61-0.020 1.499 1.412 2.848 2.225 2.744s1.157-0.805 1.765-0.797 1.13 0.766 1.929 0.776 1.402-0.783 1.823-0.777c0.421 0.006 0.894 0.665 1.766 0.774 0.496 0.062 1.164-0.33 1.652-0.955 0.112 0.565 0.556 0.983 1.085 0.983h6.487c0.603 0 1.097-0.545 1.113-1.229l0.308-13.402h-8.326z"></path>
<path fill="#c1e5ef" d="M14.783 20.3c0.006-0.075 0.013-0.149 0.021-0.223h-0.012v-3.43h0.9c0.434-1.768 0.446-3.645 0.057-5.439-0.179-0.828-0.436-1.807-0.795-2.783h-9.933c-0.352 0.918-0.613 1.836-0.801 2.62-0.522 2.177-0.464 4.489 0.236 6.596 0.024 0.074 0.050 0.147 0.075 0.22 0.286 0.807 0.452 1.875 0.437 3.044s0.035 2.305-0.273 3.104c-0.556 1.445-0.83 3.021-0.851 4.61-0.020 1.499 1.412 2.848 2.225 2.744s1.157-0.805 1.765-0.797 1.13 0.766 1.929 0.776 1.402-0.783 1.823-0.777c0.421 0.006 0.894 0.665 1.766 0.774 0.496 0.062 1.164-0.33 1.652-0.955 0.112 0.565 0.556 0.983 1.085 0.983h6.487c0.603 0 1.097-0.545 1.113-1.229l0.226-9.84z"></path>
<path fill="#a6aaed" d="M15.75 11.208c-0.179-0.825-0.434-1.8-0.791-2.772l-1.982 0.047c0.241 0.637 0.419 1.294 0.547 1.94 0.191 0.966 0.261 1.959 0.207 2.941l2.29-0.024c-0.028-0.716-0.119-1.43-0.27-2.131z"></path>
<path fill="#a6aaed" d="M14.727 22.828l-1.8 0.021c0.35 1.087 0.515 1.696 0.498 2.983-0.018 1.324-1.159 2.469-1.866 2.373s-1.090-0.677-1.431-0.682-0.831 0.697-1.479 0.688c-0.648-0.009-1.071-0.677-1.564-0.684s-0.773 0.613-1.433 0.706c-0.51 0.071-1.318-0.624-1.651-1.554-0.096 0.64-0.148 1.289-0.157 1.941-0.020 1.499 1.412 2.848 2.225 2.744s1.158-0.805 1.765-0.797c0.608 0.008 1.13 0.766 1.929 0.776s1.402-0.783 1.823-0.777 0.894 0.665 1.766 0.774c0.871 0.11 2.277-1.185 2.297-2.684 0.021-1.588-0.211-3.171-0.728-4.631-0.127-0.36-0.178-0.761-0.194-1.198z"></path>
<path fill="#e1bdfc" d="M12.255 4.341l0.049-3.665-1.725-0.023v0.305l0.162 0.002-0.056 4.223c1.083 0.846 1.813 2.032 2.292 3.3l1.982-0.047c-0.589-1.604-1.453-3.198-2.704-4.095z"></path>
<path fill="#ccf3e2" d="M14.758 16.372h0.967c0.21-0.801 0.292-1.656 0.038-2.987l-11.693-0.12c-0.412 4.013 0.823 4.073 1.234 9.364l9.254 0.123c-0.006-1.182 0.075-2.115 0.2-2.886v-3.495z"></path>
<path fill="#b1b6e1" d="M14.758 20.724v-4.353h0.998c0.217-0.991 0.304-2.013 0.264-3.032l-2.29 0.024c-0.054 0.98-0.233 1.95-0.539 2.87-0.021 0.064-0.043 0.128-0.066 0.192-0.25 0.706-0.42 2.445-0.434 3.478s-0.094 1.927 0.137 2.64c0.034 0.106 0.067 0.208 0.099 0.305l1.8-0.021c-0.020-0.544 0.014-1.144 0.022-1.792 0.001-0.105 0.005-0.209 0.009-0.312z"></path>
<path fill="#a1e8c3" d="M10.315 18.395c-0.332 0.48-1.739 0.534-3.056-0.51s-1.413-3.119-1.413-3.119 2.041-0.382 3.359 0.662c1.318 1.044 1.442 2.486 1.11 2.966z"></path>
<path fill="#f6e06e" d="M11.278 15.892c1.562 0.369 2.529 1.935 2.159 3.496s-1.935 2.529-3.496 2.159c-1.562-0.369-2.529-1.935-2.159-3.496s1.935-2.529 3.496-2.159z"></path>
<path fill="#faf1a9" d="M12.148 18.713c0 0.849-0.688 1.537-1.537 1.537s-1.537-0.688-1.537-1.537c0-0.849 0.688-1.537 1.537-1.537s1.537 0.688 1.537 1.537z"></path>
<path fill="#e1bdfc" d="M23.671 16.738h-2.438l-0.075 3.678 2.436-0.042z"></path>
<path fill="#a6aaed" d="M21.158 20.416l-0.154 7.518c-0.012 0.571-0.379 1.026-0.828 1.026h-4.123c-0.399 0-0.733-0.359-0.811-0.84l0.054 2.029c0.018 0.68 0.475 1.221 1.033 1.221h6.023c0.56 0 1.018-0.545 1.033-1.229l0.208-9.767z"></path>
<path fill="#c1e5ef" d="M20.315 1.741l0.518 1.457c0.022 0.062 0.066 0.112 0.122 0.137l1.294 0.583c0.183 0.082 0.183 0.374 0 0.456l-1.294 0.583c-0.055 0.025-0.099 0.074-0.122 0.137l-0.518 1.457c-0.073 0.206-0.332 0.206-0.405 0l-0.518-1.457c-0.022-0.062-0.066-0.112-0.122-0.137l-1.294-0.583c-0.183-0.082-0.183-0.374 0-0.456l1.294-0.583c0.055-0.025 0.099-0.074 0.122-0.137l0.518-1.457c0.073-0.206 0.332-0.206 0.405 0z"></path>
<path fill="#96b4eb" d="M21.2 10.357c0.608 0.144 0.984 0.753 0.841 1.361s-0.753 0.984-1.361 0.841c-0.608-0.144-0.984-0.753-0.841-1.361s0.753-0.984 1.361-0.841z"></path>
<path fill="#96b4eb" d="M26.975 5.847c0.062 0.262-0.1 0.525-0.363 0.587s-0.525-0.1-0.587-0.363c-0.062-0.262 0.1-0.525 0.363-0.587s0.525 0.1 0.587 0.363z"></path>
<path fill="#c1e5ef" d="M27.251 8.633l0.384 1.081c0.016 0.046 0.049 0.083 0.090 0.101l0.96 0.433c0.136 0.061 0.136 0.277 0 0.338l-0.96 0.433c-0.041 0.018-0.074 0.055-0.090 0.101l-0.384 1.081c-0.054 0.153-0.246 0.153-0.301 0l-0.384-1.081c-0.016-0.046-0.049-0.083-0.090-0.101l-0.96-0.433c-0.136-0.061-0.136-0.277 0-0.338l0.96-0.433c0.041-0.018 0.074-0.055 0.090-0.101l0.384-1.081c0.054-0.153 0.246-0.153 0.301 0z"></path>
<path fill="#3c122c" d="M7.316 12.146c-0.683 0-1.239-0.556-1.239-1.239s0.556-1.239 1.239-1.239 1.239 0.556 1.239 1.239-0.556 1.239-1.239 1.239zM7.316 10.425c-0.266 0-0.482 0.216-0.482 0.482s0.216 0.482 0.482 0.482 0.482-0.216 0.482-0.482-0.216-0.482-0.482-0.482z"></path>
<path fill="#3c122c" d="M12.73 27.959c-0.683 0-1.239-0.556-1.239-1.239s0.556-1.239 1.239-1.239 1.239 0.556 1.239 1.239-0.556 1.239-1.239 1.239zM12.73 26.238c-0.266 0-0.482 0.216-0.482 0.482s0.216 0.482 0.482 0.482 0.482-0.216 0.482-0.482-0.216-0.482-0.482-0.482z"></path>
<path fill="#3c122c" d="M10.418 24.207c0.303 0.072 0.491 0.376 0.42 0.679s-0.376 0.491-0.679 0.42c-0.303-0.072-0.491-0.376-0.42-0.679s0.376-0.491 0.679-0.42z"></path>
<path fill="#3c122c" d="M8.101 26.337c0 0.236-0.192 0.428-0.428 0.428s-0.428-0.192-0.428-0.428 0.192-0.428 0.428-0.428 0.428 0.192 0.428 0.428z"></path>
<path fill="#3c122c" d="M12.513 11.898c0 0.236-0.192 0.428-0.428 0.428s-0.428-0.192-0.428-0.428c0-0.236 0.192-0.428 0.428-0.428s0.428 0.192 0.428 0.428z"></path>
<path fill="#3c122c" d="M10.611 15.428c-0.258 0-0.509 0.031-0.749 0.087-0.127-0.133-0.267-0.261-0.421-0.384-1.436-1.138-3.574-0.755-3.664-0.738-0.186 0.035-0.317 0.201-0.309 0.389 0.004 0.092 0.12 2.26 1.556 3.398 0.104 0.082 0.209 0.158 0.317 0.23-0.009 0.099-0.014 0.2-0.014 0.302 0 1.811 1.474 3.285 3.285 3.285s3.285-1.474 3.285-3.285-1.474-3.285-3.285-3.285zM7.494 17.588c-0.86-0.681-1.142-1.896-1.231-2.492 0.6-0.050 1.847-0.053 2.707 0.629 0.036 0.028 0.070 0.057 0.104 0.086-0.263 0.14-0.504 0.314-0.719 0.517l-0.473-0.377c-0.163-0.131-0.402-0.104-0.532 0.060s-0.104 0.401 0.059 0.532l0.458 0.366c-0.143 0.216-0.261 0.451-0.35 0.698-0.008-0.006-0.016-0.012-0.024-0.019zM10.611 21.241c-1.394 0-2.528-1.134-2.528-2.528s1.134-2.528 2.528-2.528 2.528 1.134 2.528 2.528c0 1.394-1.134 2.528-2.528 2.528z"></path>
<path fill="#3c122c" d="M10.611 20.683c-1.086 0-1.97-0.884-1.97-1.97s0.884-1.97 1.97-1.97c1.086 0 1.97 0.884 1.97 1.97s-0.884 1.97-1.97 1.97zM10.611 17.5c-0.669 0-1.213 0.544-1.213 1.213s0.544 1.213 1.213 1.213 1.213-0.544 1.213-1.213-0.544-1.213-1.213-1.213z"></path>
<path fill="#3c122c" d="M24.447 16.297c-0.119-0.121-0.281-0.19-0.451-0.19h-7.541c0.304-1.635 0.277-3.344-0.089-5.032-0.51-2.358-1.524-5.442-3.476-7.041l0.032-2.436c0.005-0.413-0.15-0.802-0.438-1.098s-0.673-0.461-1.086-0.467l-2.437-0.033c-0.854-0.011-1.553 0.672-1.565 1.524l-0.031 2.333c-2.066 1.506-3.182 4.631-3.76 7.041-0.563 2.351-0.477 4.751 0.251 6.942 0.026 0.078 0.052 0.155 0.079 0.232 0.272 0.769 0.415 1.772 0.401 2.825-0.002 0.182-0.003 0.364-0.004 0.543-0.004 0.913-0.008 1.775-0.227 2.343-0.57 1.482-0.87 3.106-0.893 4.828-0.015 1.149 0.644 2.152 1.267 2.708 0.492 0.439 1.030 0.681 1.503 0.681 0.056 0 0.111-0.003 0.166-0.010 0.571-0.073 0.969-0.356 1.26-0.562 0.167-0.119 0.327-0.229 0.417-0.23 0.106 0.001 0.317 0.134 0.503 0.251 0.366 0.23 0.822 0.517 1.426 0.525 0.658 0.010 1.175-0.334 1.552-0.585 0.090-0.060 0.206-0.137 0.281-0.176 0.069 0.035 0.176 0.105 0.26 0.16 0.333 0.217 0.788 0.514 1.426 0.594 0.486 0.061 1.049-0.132 1.568-0.533 0.316 0.351 0.757 0.567 1.248 0.567h6.487c0.954 0 1.719-0.811 1.743-1.845l0.308-13.402c0.004-0.17-0.061-0.334-0.179-0.455zM8.328 4.729l0.291-0.183 0.040-3.005c0.002-0.155 0.129-0.279 0.283-0.279h0.004l2.437 0.032c0.102 0.001 0.168 0.054 0.199 0.085s0.082 0.099 0.080 0.201l-0.041 3.081 0.267 0.192c1 0.718 1.737 1.971 2.269 3.266h-8.329c0.584-1.368 1.398-2.699 2.5-3.391zM4.833 11.193c0.155-0.647 0.382-1.468 0.694-2.316h8.917c0.319 0.906 0.542 1.785 0.689 2.465 0.117 0.54 0.194 1.089 0.233 1.639l-10.811-0.115c0.053-0.557 0.145-1.116 0.278-1.672zM14.171 30.353c-0.314 0.273-0.603 0.379-0.74 0.361-0.35-0.044-0.627-0.225-0.895-0.399-0.283-0.184-0.576-0.375-0.941-0.38-0.369-0.004-0.684 0.202-0.986 0.403-0.28 0.186-0.57 0.377-0.837 0.374-0.25-0.003-0.491-0.155-0.771-0.332-0.327-0.206-0.697-0.439-1.158-0.445-0.502-0.006-0.87 0.254-1.165 0.463-0.231 0.165-0.431 0.307-0.689 0.339-0.076 0.011-0.34-0.066-0.669-0.36-0.415-0.37-0.855-1.025-0.845-1.75 0.021-1.572 0.293-3.050 0.809-4.392 0.141-0.366 0.216-0.773 0.258-1.208l8.572 0.114c0.010 0.128 0.024 0.255 0.042 0.379l0.191 6.645c0 0.005 0.001 0.011 0.001 0.016-0.058 0.062-0.117 0.12-0.176 0.171zM14.592 16.107c-0.17 0-0.334 0.069-0.452 0.191s-0.183 0.287-0.178 0.458l0.142 4.942c-0.006 0.233-0.012 0.462-0.013 0.687l-8.505-0.113c0.007-0.269 0.009-0.545 0.010-0.826 0.001-0.176 0.002-0.354 0.004-0.532 0.016-1.198-0.152-2.357-0.473-3.263-0.024-0.069-0.048-0.138-0.071-0.208-0.404-1.218-0.587-2.511-0.547-3.822l10.889 0.116c0.005 0.802-0.074 1.599-0.232 2.37h-0.572zM23.057 30.126c-0.008 0.338-0.224 0.613-0.482 0.613h-6.487c-0.256 0-0.472-0.273-0.482-0.608l-0.269-9.364h7.934zM23.29 20.009h-7.973l-0.076-2.64h8.109z"></path>
<path fill="#3c122c" d="M17.748 24.062c-0.683 0-1.239-0.556-1.239-1.239s0.556-1.239 1.239-1.239c0.683 0 1.239 0.556 1.239 1.239s-0.556 1.239-1.239 1.239zM17.748 22.341c-0.266 0-0.482 0.216-0.482 0.482s0.216 0.482 0.482 0.482 0.482-0.216 0.482-0.482c-0-0.266-0.216-0.482-0.482-0.482z"></path>
<path fill="#3c122c" d="M20.961 29.655c-0.683 0-1.239-0.556-1.239-1.239s0.556-1.239 1.239-1.239c0.683 0 1.239 0.556 1.239 1.239s-0.556 1.239-1.239 1.239zM20.961 27.933c-0.266 0-0.482 0.216-0.482 0.482s0.216 0.482 0.482 0.482 0.482-0.216 0.482-0.482-0.216-0.482-0.482-0.482z"></path>
<path fill="#3c122c" d="M21.189 24.853c0.119 0.288-0.017 0.619-0.306 0.738s-0.619-0.017-0.738-0.306c-0.119-0.288 0.017-0.619 0.306-0.738s0.619 0.017 0.738 0.306z"></path>
<path fill="#3c122c" d="M18.74 27.266c0 0.236-0.192 0.428-0.428 0.428s-0.428-0.192-0.428-0.428 0.192-0.428 0.428-0.428c0.236 0 0.428 0.192 0.428 0.428z"></path>
<path fill="#3c122c" d="M21.787 22.048c0 0.236-0.192 0.428-0.428 0.428s-0.428-0.192-0.428-0.428 0.192-0.428 0.428-0.428c0.236 0 0.428 0.192 0.428 0.428z"></path>
<path fill="#fff" d="M16.625 27.409c-0.344 0-0.626-0.276-0.631-0.622-0.002-0.113-0.003-0.224-0.004-0.333-0.007-0.563-0.013-1.094-0.053-1.658-0.024-0.348 0.237-0.649 0.585-0.674s0.649 0.237 0.674 0.585c0.042 0.601 0.049 1.15 0.056 1.732 0.001 0.109 0.003 0.219 0.004 0.33 0.005 0.348-0.273 0.635-0.622 0.64-0.003 0-0.006 0-0.009 0z"></path>
<path fill="#fff" d="M16.511 23.474c-0.34 0-0.62-0.27-0.63-0.612l-0.017-0.582c-0.010-0.348 0.264-0.639 0.612-0.649s0.639 0.264 0.649 0.612l0.017 0.582c0.010 0.348-0.264 0.639-0.612 0.649-0.006 0-0.013 0-0.019 0z"></path>
</svg>
