<!-- Generated by IcoMoon.io -->
<svg version="1.1" xmlns="http://www.w3.org/2000/svg" width="32" height="32" viewBox="0 0 32 32">
<title>strawberry-milk</title>
<path fill="#d789b9" d="M15.176 11.176c-0.385 0-0.753-0.217-0.929-0.587l-2.843-5.985-6.392-2.23c-0.535-0.191-0.814-0.779-0.623-1.313s0.779-0.814 1.314-0.623l6.793 2.373c0.257 0.091 0.466 0.281 0.583 0.527l3.025 6.37c0.244 0.513 0.025 1.126-0.488 1.369-0.142 0.068-0.293 0.1-0.44 0.1z"></path>
<path fill="#fff" d="M7.888 3.438l-1.695-0.636v-2.225l1.695 0.565z"></path>
<path fill="#fff" d="M11.102 4.568l-1.695-0.636v-2.225l1.695 0.565z"></path>
<path fill="#fff" d="M12.535 6.909l-0.775-1.636 1.548-1.598 0.824 1.585z"></path>
<path fill="#e8c2d8" d="M24.888 7.908h-13.984c-0.865 0-1.565 0.701-1.565 1.565v20.332c0 0.864 0.701 1.565 1.565 1.565h13.984c0.865 0 1.565-0.701 1.565-1.565v-20.332c0-0.865-0.701-1.566-1.565-1.566z"></path>
<path fill="#fff" d="M9.391 15.912h16.955v2.725h-16.955z"></path>
<path fill="#96b4eb" d="M26.476 15.853h-17.289v-6.182c0-0.794 0.644-1.438 1.438-1.438h14.412c0.794 0 1.438 0.644 1.438 1.438z"></path>
<path fill="#8286ea" d="M23.257 9.246v6.714h3.196v-6.463c0-0.878-0.672-1.589-1.501-1.589h-2.916c0.674 0 1.221 0.599 1.221 1.338z"></path>
<path fill="#e1bdfc" d="M23.257 15.889h3.196v2.832h-3.196z"></path>
<path fill="#d392d8" d="M23.257 18.65v7.672c0 0.739-0.547 1.338-1.221 1.338h-11.477c-0.674 0-1.221-0.599-1.221-1.338v3.459c0 0.878 0.672 1.589 1.501 1.589h14.112c0.829 0 1.501-0.711 1.501-1.589v-11.132z"></path>
<path fill="#a1e8c3" d="M17.958 21.716c-0.299-0.44-1.235-0.326-2.091 0.255-0.048 0.033-0.095 0.066-0.14 0.1-0.024-0.064-0.050-0.128-0.079-0.193-0.419-0.946-1.154-1.538-1.64-1.322s-0.541 1.157-0.122 2.103c0.28 0.631 0.7 1.104 1.093 1.285 0.383 0.285 1.209 0.139 1.971-0.379 0.856-0.581 1.308-1.409 1.009-1.85z"></path>
<path fill="#d789b9" d="M12.143 24.334c-0.418 1.337-0.066 4.021 1.271 4.438s3.154-1.588 3.572-2.926c0.418-1.337-0.328-2.76-1.665-3.178s-2.76 0.328-3.178 1.665z"></path>
<path fill="#e8c2d8" d="M3.242 6.372l0.534 1.502c0.023 0.064 0.068 0.115 0.125 0.141l1.335 0.601c0.189 0.085 0.189 0.385 0 0.47l-1.335 0.601c-0.057 0.026-0.102 0.077-0.125 0.141l-0.534 1.502c-0.075 0.212-0.342 0.212-0.418 0l-0.534-1.502c-0.023-0.064-0.068-0.115-0.125-0.141l-1.335-0.601c-0.189-0.085-0.189-0.385 0-0.47l1.335-0.601c0.057-0.026 0.102-0.077 0.125-0.141l0.534-1.502c0.075-0.212 0.343-0.212 0.418 0z"></path>
<path fill="#d789b9" d="M20.339 0.087c0.633 0.122 1.047 0.734 0.925 1.366s-0.733 1.047-1.366 0.925c-0.633-0.122-1.047-0.734-0.925-1.366s0.733-1.047 1.366-0.925z"></path>
<path fill="#d789b9" d="M31.312 7.95c0 0.273-0.221 0.494-0.494 0.494s-0.494-0.221-0.494-0.494 0.221-0.494 0.494-0.494c0.273 0 0.494 0.221 0.494 0.494z"></path>
<path fill="#e8c2d8" d="M29.442 0.789l0.396 1.114c0.017 0.048 0.051 0.085 0.093 0.105l0.99 0.446c0.14 0.063 0.14 0.286 0 0.349l-0.99 0.446c-0.042 0.019-0.076 0.057-0.093 0.105l-0.396 1.115c-0.056 0.157-0.254 0.157-0.31 0l-0.396-1.115c-0.017-0.048-0.051-0.086-0.093-0.105l-0.99-0.446c-0.14-0.063-0.14-0.286 0-0.349l0.99-0.446c0.042-0.019 0.076-0.057 0.093-0.105l0.396-1.114c0.056-0.157 0.254-0.157 0.31 0z"></path>
<path fill="#3c122c" d="M24.888 7.279h-9.519l-1.949-4.104c-0.161-0.339-0.444-0.595-0.8-0.722l-6.79-2.372c-0.73-0.26-1.535 0.122-1.796 0.852s0.122 1.535 0.854 1.797l6.243 2.178 1.126 2.371h-1.353c-1.21 0-2.194 0.984-2.194 2.194v20.332c0 1.21 0.984 2.194 2.194 2.194h13.984c1.21 0 2.195-0.984 2.195-2.194v-20.332c0-1.21-0.984-2.195-2.195-2.195zM5.818 2.255l-0.679-0.237c-0.338-0.121-0.515-0.493-0.394-0.831 0.095-0.266 0.345-0.432 0.613-0.432 0.073 0 0.147 0.012 0.22 0.038l0.24 0.084zM7.507 2.844l-0.934-0.326v-1.377l0.934 0.326zM9.147 3.416l-0.885-0.309v-1.377l1.082 0.378zM10.838 4.007l-0.966-0.337 0.197-1.307 0.966 0.338zM25.553 8.86l-2.205 3.086-2.348-3.336h3.786c0.287-0 0.552 0.093 0.768 0.25zM22.829 13.395c0.117 0.167 0.308 0.266 0.512 0.267h0.002c0.203 0 0.394-0.098 0.512-0.263l1.969-2.755v4.832h-4.747v-4.569zM10.877 8.61h8.365c0.338 0.141 0.577 0.475 0.577 0.864v6.002h-9.851v-6.002c0-0.309 0.151-0.582 0.382-0.753 0.162-0.071 0.34-0.112 0.528-0.112zM9.968 16.23h9.851v2.029h-9.851zM21.077 16.23h4.747v2.029h-4.747zM11.677 4.299l-0.114-0.040 0.197-1.306 0.608 0.212c0.164 0.058 0.295 0.177 0.369 0.334l0.115 0.241-0.976 0.976zM13.196 4.465l0.408 0.86-0.976 0.976-0.408-0.86zM12.971 7.024l0.976-0.976 0.585 1.231h-1.44zM18.614 30.742h-7.71c-0.516 0-0.936-0.42-0.936-0.936v-10.791h9.851v10.791c0 0.516-0.42 0.936-0.936 0.936zM24.888 30.742h-4.021c0.135-0.284 0.21-0.602 0.21-0.936v-10.791h4.747v10.791c0 0.516-0.42 0.936-0.936 0.936z"></path>
<path fill="#3c122c" d="M17.232 12.433h-5.055c-0.208 0-0.377-0.169-0.377-0.377s0.169-0.377 0.377-0.377h5.055c0.208 0 0.377 0.169 0.377 0.377s-0.169 0.377-0.377 0.377z"></path>
<path fill="#fff" d="M10.899 14.773c-0.347 0-0.629-0.282-0.629-0.629v-1.838c0-0.347 0.282-0.629 0.629-0.629s0.629 0.282 0.629 0.629v1.838c0 0.347-0.282 0.629-0.629 0.629z"></path>
<path fill="#fff" d="M10.899 11.284c-0.347 0-0.629-0.282-0.629-0.629v-0.298c0-0.347 0.282-0.629 0.629-0.629s0.629 0.282 0.629 0.629v0.298c0 0.347-0.282 0.629-0.629 0.629z"></path>
<path fill="#3c122c" d="M18.27 21.504c-0.398-0.586-1.392-0.572-2.381 0.006-0.216-0.419-0.495-0.777-0.8-1.023-0.425-0.343-0.864-0.441-1.235-0.277-0.621 0.276-0.796 1.19-0.463 2.214-0.744 0.328-1.348 0.962-1.609 1.797-0.444 1.42-0.116 4.401 1.519 4.911 0.161 0.050 0.325 0.073 0.49 0.073 1.517 0 3.155-1.967 3.554-3.247 0.226-0.724 0.154-1.471-0.146-2.108 1.034-0.719 1.494-1.722 1.070-2.347zM14.16 20.901c0.094-0.042 0.273 0.027 0.456 0.174 0.244 0.196 0.478 0.515 0.652 0.882-0.094 0.082-0.181 0.167-0.261 0.253-0.3-0.046-0.6-0.044-0.89 0.002-0.244-0.73-0.117-1.239 0.044-1.311zM16.626 25.734c-0.35 1.121-1.792 2.717-2.833 2.717-0.092 0-0.181-0.013-0.266-0.039-1.043-0.326-1.405-2.746-1.024-3.966 0.288-0.923 1.143-1.516 2.063-1.516 0.213 0 0.429 0.032 0.643 0.099 1.137 0.355 1.772 1.568 1.417 2.705zM16.793 23.214c-0.259-0.308-0.582-0.565-0.959-0.747 0.075-0.062 0.156-0.123 0.245-0.184 0.801-0.544 1.456-0.52 1.567-0.355 0.109 0.161-0.099 0.752-0.853 1.286z"></path>
<path fill="#3c122c" d="M14.379 24.601c0 0.224-0.182 0.406-0.406 0.406s-0.406-0.182-0.406-0.406 0.182-0.406 0.406-0.406c0.224 0 0.406 0.182 0.406 0.406z"></path>
<path fill="#3c122c" d="M15.427 25.98c0 0.224-0.182 0.406-0.406 0.406s-0.406-0.182-0.406-0.406c0-0.224 0.182-0.406 0.406-0.406s0.406 0.182 0.406 0.406z"></path>
</svg>
