<!-- Generated by IcoMoon.io -->
<svg version="1.1" xmlns="http://www.w3.org/2000/svg" width="32" height="32" viewBox="0 0 32 32">
<title>whiskey</title>
<path fill="#e8a284" d="M27.6 11.876l-3.052-3.633v-7.613h-6.116v7.647l-3.024 3.581c-0.928 1.099-1.435 2.493-1.43 3.931l0.047 12.964c0.005 1.447 1.18 2.617 2.627 2.617h9.722c1.451 0 2.627-1.176 2.627-2.627v-12.991c0-1.416-0.496-2.787-1.402-3.876z"></path>
<path fill="#9781dd" d="M19.070 0.503h4.933v3.721h-4.933z"></path>
<path fill="#8962de" d="M22.43 0.63h2.119v3.505h-2.119z"></path>
<path fill="#d57b84" d="M27.6 11.876l-3.052-3.633v-4.108h-2.119v0.022c0.84 1.283 0.729 2.583 0 3.893-0.462 0.759 0.239 1.426 0.681 1.999l1.759 2.281c0.724 0.948 1.121 2.142 1.121 3.376v9.412c0 1.264-0.94 2.288-2.1 2.288h-7.773c-1.118 0-2.032-0.951-2.096-2.152h-0.007l0.013 3.5c0.005 1.447 1.18 2.617 2.627 2.617h9.722c1.451 0 2.627-1.176 2.627-2.627v-12.991c0-1.416-0.496-2.787-1.402-3.876z"></path>
<path fill="#faf1a9" d="M24.864 16.524c-0.174-1.71-1.618-3.044-3.374-3.044s-3.2 1.334-3.374 3.044h-1.096c-0.525 0-0.951 0.426-0.951 0.951v8.939c0 0.525 0.426 0.951 0.951 0.951h8.939c0.525 0 0.951-0.426 0.951-0.951v-8.939c0-0.525-0.426-0.951-0.951-0.951z"></path>
<path fill="#c2b2eb" d="M23.059 18.52c0.869 0.869 0.869 2.277 0 3.145s-2.277 0.869-3.145 0c-0.869-0.869-0.869-2.277 0-3.145s2.277-0.869 3.145 0z"></path>
<path fill="#c1e5ef" d="M15.057 31.37h-9.741c-1.042 0-1.886-0.844-1.886-1.886v-13.395c0-0.308 0.25-0.557 0.557-0.557h12.398c0.308 0 0.557 0.25 0.557 0.557v13.395c0 1.042-0.844 1.886-1.886 1.886z"></path>
<path fill="#f6e06e" d="M4.764 23.191v4.888c0 0.547 0.443 0.99 0.99 0.99h8.865c0.547 0 0.99-0.443 0.99-0.99v-4.888z"></path>
<path fill="#fff" d="M14.802 25.79l-0.829-1.851c-0.257-0.575-0.932-0.832-1.507-0.574l-1.782 0.798c-0.575 0.257-0.832 0.932-0.574 1.507l0.829 1.851c0.257 0.575 0.932 0.832 1.507 0.574l1.782-0.798c0.575-0.257 0.832-0.932 0.574-1.507z"></path>
<path fill="#fff" d="M9.395 25.303l0.856-1.839c0.266-0.571 0.018-1.249-0.552-1.515l-1.77-0.824c-0.571-0.266-1.249-0.018-1.515 0.552l-0.856 1.839c-0.266 0.571-0.019 1.249 0.552 1.515l1.77 0.824c0.571 0.266 1.249 0.018 1.515-0.552z"></path>
<path fill="#a6aaed" d="M16.386 15.531h-2.722c0.307 0 0.556 0.249 0.556 0.557v11.048c0 1.040-0.843 1.883-1.883 1.883h-7.024c-1.040 0-1.883-0.843-1.883-1.883v2.352c0 1.040 0.843 1.883 1.883 1.883h9.747c1.040 0 1.883-0.843 1.883-1.883v-13.399c0-0.307-0.249-0.556-0.556-0.556z"></path>
<path fill="#dda86a" d="M15.608 28.078v-4.888h-1.388v3.944c0 1.040-0.843 1.883-1.883 1.883h-6.893c0.097 0.032 0.201 0.050 0.309 0.050h8.865c0.547 0 0.99-0.443 0.99-0.99z"></path>
<path fill="#e1bdfc" d="M14.798 25.781l-0.578-1.29v2.644c0 0.057-0.003 0.113-0.008 0.169l0.007-0.003c0.579-0.26 0.839-0.94 0.579-1.519z"></path>
<path fill="#efc5b4" d="M11.81 0.373l0.526 1.478c0.023 0.063 0.067 0.113 0.123 0.139l1.313 0.592c0.186 0.084 0.186 0.379 0 0.463l-1.313 0.592c-0.056 0.025-0.101 0.075-0.123 0.139l-0.526 1.478c-0.074 0.209-0.337 0.209-0.411 0l-0.526-1.478c-0.023-0.063-0.067-0.113-0.123-0.139l-1.313-0.592c-0.186-0.084-0.186-0.379 0-0.463l1.313-0.592c0.056-0.025 0.101-0.075 0.123-0.139l0.526-1.478c0.074-0.209 0.337-0.209 0.411 0z"></path>
<path fill="#e8a284" d="M11.235 9.729c0 0.634-0.514 1.148-1.148 1.148s-1.148-0.514-1.148-1.148c0-0.634 0.514-1.148 1.148-1.148s1.148 0.514 1.148 1.148z"></path>
<path fill="#e8a284" d="M6.73 0.78c0 0.274-0.222 0.495-0.495 0.495s-0.495-0.222-0.495-0.495 0.222-0.495 0.495-0.495 0.495 0.222 0.495 0.495z"></path>
<path fill="#efc5b4" d="M4.232 9.59l0.39 1.097c0.017 0.047 0.050 0.084 0.091 0.103l0.974 0.439c0.138 0.062 0.138 0.281 0 0.343l-0.974 0.439c-0.042 0.019-0.075 0.056-0.091 0.103l-0.39 1.097c-0.055 0.155-0.25 0.155-0.305 0l-0.39-1.097c-0.017-0.047-0.050-0.084-0.091-0.103l-0.974-0.439c-0.138-0.062-0.138-0.281 0-0.343l0.974-0.439c0.042-0.019 0.075-0.056 0.091-0.103l0.39-1.097c0.055-0.155 0.25-0.155 0.305 0z"></path>
<path fill="#3c122c" d="M28.085 11.473c-0.012-0.015-0.025-0.029-0.039-0.043l-3.239-3.237c0.969-1.407 0.897-3.080-0.212-4.295v-3.268c0-0.348-0.282-0.63-0.63-0.63h-4.901c-0.167 0-0.327 0.066-0.446 0.185s-0.185 0.279-0.185 0.446l0 3.339c-0.54 0.641-0.824 1.402-0.825 2.215-0 0.703 0.213 1.395 0.622 2.027l-3.264 3.196c-0.014 0.014-0.028 0.028-0.041 0.044-0.831 0.984-1.355 2.184-1.52 3.45h-9.415c-0.657 0-1.192 0.535-1.192 1.192v13.375c0 1.396 1.136 2.532 2.532 2.532h9.709c0.263 0 0.518-0.041 0.757-0.116 0.273 0.075 0.56 0.116 0.856 0.116h9.722c1.796 0 3.257-1.461 3.257-3.257v-12.992c0-1.56-0.55-3.080-1.547-4.279zM23.335 1.261v2.581h-3.64l-0-2.581zM5.332 30.739c-0.701 0-1.272-0.57-1.272-1.272v-13.307h12.252v13.307c0 0.701-0.57 1.272-1.272 1.272zM17.573 16.903h0.544c0.194 0 0.357-0.147 0.376-0.34 0.157-1.542 1.445-2.704 2.997-2.704s2.841 1.162 2.997 2.704c0.020 0.193 0.182 0.34 0.376 0.34h1.096c0.316 0 0.573 0.257 0.573 0.573v8.939c0 0.316-0.257 0.573-0.573 0.573h-8.387zM28.372 28.743c0 1.101-0.896 1.996-1.997 1.996h-9.146c0.218-0.374 0.344-0.808 0.344-1.272v-1.724h8.387c0.733 0 1.329-0.596 1.329-1.329v-8.939c0-0.733-0.596-1.329-1.329-1.329h-0.77c-0.34-1.758-1.874-3.044-3.7-3.044s-3.36 1.286-3.7 3.044h-0.218v-0.053c0-0.658-0.535-1.192-1.192-1.192h-1.7c0.155-0.957 0.564-1.863 1.191-2.614l3.634-3.559c0.236-0.231 0.254-0.606 0.040-0.858-0.89-1.050-0.901-2.314-0.027-3.221 0.015-0.016 0.029-0.032 0.043-0.050h3.956c0.005 0.005 0.009 0.010 0.014 0.015 0.937 0.888 0.924 2.147-0.034 3.208-0.225 0.249-0.215 0.631 0.022 0.868l3.614 3.612c0.799 0.97 1.238 2.194 1.238 3.451v12.992z"></path>
<path fill="#3c122c" d="M21.49 22.695c1.435 0 2.603-1.168 2.603-2.603s-1.168-2.603-2.603-2.603c-1.435 0-2.603 1.168-2.603 2.603s1.168 2.603 2.603 2.603zM21.49 18.246c1.018 0 1.846 0.828 1.846 1.846s-0.828 1.846-1.846 1.846c-1.018 0-1.846-0.828-1.846-1.846s0.828-1.846 1.846-1.846z"></path>
<path fill="#3c122c" d="M24.656 24.025h-6.331c-0.348 0-0.63 0.282-0.63 0.63s0.282 0.63 0.63 0.63h6.331c0.348 0 0.63-0.282 0.63-0.63s-0.282-0.63-0.63-0.63z"></path>
<path fill="#3c122c" d="M25.231 21.487c-0.209 0-0.378 0.169-0.378 0.378v0.877c0 0.209 0.169 0.378 0.378 0.378s0.378-0.169 0.378-0.378v-0.877c0-0.209-0.169-0.378-0.378-0.378z"></path>
<path fill="#3c122c" d="M23.014 28.136c-0.209 0-0.378 0.169-0.378 0.378v0.877c0 0.209 0.169 0.378 0.378 0.378s0.378-0.169 0.378-0.378v-0.877c0-0.209-0.169-0.378-0.378-0.378z"></path>
<path fill="#3c122c" d="M24.884 28.136c-0.209 0-0.378 0.169-0.378 0.378v0.877c0 0.209 0.169 0.378 0.378 0.378s0.378-0.169 0.378-0.378v-0.877c-0-0.209-0.169-0.378-0.378-0.378z"></path>
<path fill="#3c122c" d="M15.608 22.813h-4.885c-0.014-0.117-0.041-0.234-0.083-0.348-0.14-0.383-0.421-0.689-0.791-0.862l-1.753-0.816c-0.37-0.172-0.785-0.19-1.168-0.050s-0.689 0.421-0.862 0.791l-0.599 1.286h-0.704c-0.209 0-0.378 0.169-0.378 0.378v4.888c0 0.754 0.614 1.368 1.368 1.368h8.865c0.754 0 1.368-0.614 1.368-1.368v-4.888c0-0.209-0.169-0.378-0.378-0.378zM15.23 25.878c-0.021-0.085-0.050-0.169-0.087-0.251l-0.821-1.833c-0.035-0.079-0.078-0.153-0.125-0.224h1.034zM5.905 23.667l0.046-0.098h3.835l-0.729 1.566c-0.087 0.187-0.242 0.329-0.435 0.399s-0.403 0.062-0.59-0.025l-1.753-0.816c-0.187-0.087-0.329-0.241-0.399-0.435s-0.062-0.403 0.025-0.59zM10.59 23.633c0.010-0.021 0.019-0.042 0.028-0.064h0.468l-0.547 0.245c-0.014 0.006-0.028 0.013-0.042 0.020zM10.442 24.934c0.073-0.193 0.217-0.345 0.405-0.429l1.764-0.791c0.101-0.045 0.208-0.068 0.315-0.068 0.093 0 0.186 0.017 0.275 0.051 0.193 0.073 0.345 0.217 0.429 0.405l0.821 1.833c0.174 0.388-0 0.846-0.389 1.020l-1.764 0.791c-0.388 0.174-0.846-0-1.020-0.389l-0.821-1.833c-0.084-0.188-0.090-0.398-0.017-0.59zM6.753 21.846c0.087-0.187 0.242-0.329 0.435-0.399 0.086-0.031 0.176-0.047 0.265-0.047 0.111 0 0.222 0.024 0.325 0.073l1.753 0.816c0.187 0.087 0.329 0.241 0.399 0.435 0.011 0.029 0.019 0.059 0.026 0.089h-3.653zM14.619 28.69h-8.865c-0.337 0-0.611-0.274-0.611-0.611v-3.642c0.008 0.027 0.017 0.053 0.027 0.080 0.14 0.383 0.421 0.689 0.79 0.862l1.753 0.816c0.205 0.096 0.424 0.144 0.644 0.144 0.177 0 0.354-0.031 0.524-0.093 0.341-0.124 0.62-0.361 0.799-0.672 0.022 0.088 0.051 0.175 0.089 0.261l0.821 1.833c0.254 0.567 0.813 0.903 1.397 0.903 0.209 0 0.42-0.043 0.622-0.134l1.764-0.791c0.444-0.199 0.746-0.585 0.856-1.024v1.456c0 0.337-0.274 0.611-0.611 0.611z"></path>
<path fill="#fff" d="M9.059 18.018c-0.568 0-1.131-0.007-1.688-0.020-0.348-0.009-0.623-0.297-0.615-0.645s0.3-0.623 0.645-0.615c1.092 0.027 2.215 0.027 3.337 0 0.35-0.006 0.637 0.267 0.645 0.615s-0.267 0.637-0.615 0.645c-0.571 0.014-1.142 0.020-1.71 0.020z"></path>
<path fill="#fff" d="M5.72 17.998h-0.7c-0.348 0-0.63-0.282-0.63-0.63s0.282-0.63 0.63-0.63h0.7c0.348 0 0.63 0.282 0.63 0.63s-0.282 0.63-0.63 0.63z"></path>
<path fill="#fff" d="M17.169 14.086c-0.137 0-0.275-0.044-0.391-0.136-0.273-0.216-0.319-0.613-0.102-0.885l1.558-1.966c0.216-0.273 0.613-0.319 0.885-0.102s0.319 0.613 0.102 0.885l-1.558 1.966c-0.124 0.157-0.308 0.239-0.494 0.239z"></path>
<path fill="#fff" d="M19.713 10.906c-0.138 0-0.277-0.045-0.393-0.138-0.272-0.217-0.316-0.614-0.098-0.886l0.242-0.303c0.217-0.272 0.614-0.316 0.886-0.098s0.316 0.614 0.098 0.886l-0.242 0.303c-0.124 0.156-0.308 0.237-0.493 0.237z"></path>
</svg>
