<!-- Generated by IcoMoon.io -->
<svg version="1.1" xmlns="http://www.w3.org/2000/svg" width="32" height="32" viewBox="0 0 32 32">
<title>wine</title>
<path fill="#c1e5ef" d="M23.372 7.609c0.557-3.887-0.356-6.892-0.356-6.982 0 0.074-17.017 0-17.017 0 0 0.089-0.913 3.095-0.356 6.982 0.936 6.531 5.056 9.469 7.531 10.329v8.466c0 0.805-0.402 1.557-1.072 2.004l-3.822 2.549c-0.184 0.123-0.098 0.41 0.124 0.411 2.381 0.002 9.84 0.008 12.214 0.003 0.222-0 0.308-0.288 0.124-0.411l-3.827-2.553c-0.67-0.447-1.072-1.199-1.072-2.004v-8.466c2.475-0.86 6.595-3.798 7.531-10.329z"></path>
<path fill="#d789b9" d="M7.654 6.763c0.019 0.409 0.057 0.838 0.121 1.283 0.866 6.042 5.32 8.036 6.733 8.059 1.413-0.023 5.867-2.017 6.733-8.059 0.064-0.445 0.102-0.874 0.121-1.283z"></path>
<path fill="#c668b9" d="M18.587 6.763c-0.015 0.326-0.046 0.668-0.096 1.023-0.69 4.819-4.243 6.409-5.37 6.428-1.127-0.019-4.68-1.608-5.37-6.428-0.051-0.355-0.081-0.697-0.096-1.023 0.019 0.409 0.057 0.838 0.121 1.283 0.866 6.042 5.32 8.036 6.733 8.059 1.413-0.023 5.867-2.017 6.733-8.059 0.064-0.445 0.102-0.874 0.121-1.283z"></path>
<path fill="#e8c2d8" d="M4.192 15.61l0.531 1.493c0.023 0.064 0.068 0.115 0.125 0.14l1.326 0.598c0.187 0.084 0.187 0.383 0 0.467l-1.326 0.598c-0.057 0.026-0.102 0.076-0.125 0.14l-0.531 1.493c-0.075 0.211-0.34 0.211-0.415 0l-0.531-1.493c-0.023-0.064-0.068-0.115-0.125-0.14l-1.326-0.598c-0.187-0.084-0.187-0.383 0-0.467l1.326-0.598c0.057-0.026 0.102-0.076 0.125-0.14l0.531-1.493c0.075-0.211 0.34-0.211 0.415 0z"></path>
<path fill="#d789b9" d="M28.024 11.98c0 0.64-0.519 1.159-1.159 1.159s-1.159-0.519-1.159-1.159c0-0.64 0.519-1.159 1.159-1.159s1.159 0.519 1.159 1.159z"></path>
<path fill="#d789b9" d="M2.246 11.802c0 0.276-0.224 0.5-0.5 0.5s-0.5-0.224-0.5-0.5 0.224-0.5 0.5-0.5c0.276 0 0.5 0.224 0.5 0.5z"></path>
<path fill="#e8c2d8" d="M29.18 1.736l0.394 1.107c0.017 0.047 0.050 0.085 0.092 0.104l0.984 0.443c0.139 0.063 0.139 0.284 0 0.347l-0.984 0.443c-0.042 0.019-0.076 0.057-0.092 0.104l-0.394 1.107c-0.056 0.156-0.252 0.156-0.308 0l-0.394-1.107c-0.017-0.047-0.050-0.085-0.092-0.104l-0.984-0.443c-0.139-0.063-0.139-0.284 0-0.347l0.984-0.443c0.042-0.019 0.076-0.057 0.092-0.104l0.394-1.107c0.056-0.157 0.252-0.157 0.308 0z"></path>
<path fill="#3c122c" d="M17.795 32c-3.233 0-7.737-0.004-9.393-0.005-0.378-0-0.705-0.243-0.814-0.605s0.028-0.745 0.343-0.955l3.822-2.549c0.497-0.331 0.793-0.885 0.793-1.482l-0.024-8.018c-1.491-0.61-2.992-1.709-4.176-3.066-1.772-2.031-2.89-4.595-3.324-7.622-0.336-2.348-0.219-4.8 0.339-7.092 0.008-0.033 0.014-0.058 0.018-0.076 0.021-0.131 0.082-0.252 0.177-0.347 0.118-0.118 0.28-0.18 0.445-0.183 6.426 0.028 16.979 0 17.015 0 0.314 0 0.574 0.23 0.62 0.531 0.004 0.018 0.010 0.043 0.018 0.075 0.558 2.292 0.675 4.744 0.339 7.092-0.433 3.025-1.556 5.588-3.338 7.616-1.544 1.758-3.16 2.638-4.187 3.057v8.033c0 0.597 0.296 1.151 0.793 1.482l3.827 2.553c0.314 0.209 0.452 0.593 0.343 0.955s-0.436 0.605-0.813 0.605c-0.642 0.001-1.649 0.002-2.824 0.002zM20.393 31.482h0.001zM9.733 30.741c2.547 0.002 6.959 0.005 9.554 0.004l-2.722-1.815c-0.846-0.564-1.352-1.509-1.352-2.526v-8.466c0-0.267 0.169-0.505 0.421-0.593 0.678-0.235 2.432-0.985 4.077-2.859 1.618-1.842 2.64-4.186 3.038-6.966h0c0.296-2.065 0.216-4.217-0.23-6.247-0.076 0.001-14.776-0.011-16.023-0.016-0.449 2.035-0.53 4.192-0.234 6.263 0.399 2.783 1.417 5.129 3.027 6.975 1.642 1.882 3.388 2.63 4.063 2.865 0.252 0.087 0.421 0.324 0.421 0.591l0.026 8.452c0 1.019-0.505 1.963-1.351 2.528zM23.644 0.627v0.001c0-0 0-0.001 0-0.001zM22.389 0.627h0.001zM5.372 0.627v0.001c0-0 0-0 0-0.001zM5.372 0.626v0c0-0 0-0 0-0zM23.644 0.626v0c0-0 0-0 0-0z"></path>
<path fill="#3c122c" d="M14.508 16.481c-0.002 0-0.004 0-0.006-0-0.852-0.014-2.411-0.605-3.817-1.869-1.23-1.105-2.798-3.132-3.282-6.513-0.062-0.43-0.103-0.874-0.124-1.319-0.005-0.103 0.033-0.203 0.104-0.277s0.169-0.117 0.272-0.117h13.708c0.103 0 0.201 0.042 0.272 0.117s0.108 0.175 0.104 0.277c-0.021 0.445-0.063 0.888-0.124 1.318-0.484 3.381-2.052 5.408-3.282 6.513-1.407 1.264-2.965 1.855-3.817 1.869-0.002 0-0.004 0-0.006 0zM8.054 7.139c0.022 0.288 0.053 0.574 0.093 0.853 0.452 3.157 1.903 5.038 3.040 6.060 1.344 1.207 2.719 1.663 3.32 1.676 0.602-0.013 1.976-0.469 3.32-1.676 1.137-1.022 2.588-2.903 3.040-6.060 0.040-0.279 0.071-0.565 0.093-0.853z"></path>
<path fill="#fff" d="M12.745 13.811c-0.132 0-0.266-0.042-0.38-0.128-0.848-0.645-1.534-1.424-2.040-2.315-0.171-0.301-0.066-0.684 0.235-0.855s0.684-0.066 0.855 0.235c0.422 0.743 0.998 1.394 1.71 1.936 0.276 0.21 0.329 0.604 0.119 0.879-0.123 0.162-0.31 0.247-0.5 0.247z"></path>
<path fill="#fff" d="M10.209 10.047c-0.281 0-0.536-0.19-0.608-0.474-0.056-0.224-0.134-0.562-0.154-0.919-0.020-0.346 0.244-0.643 0.59-0.663 0.348-0.021 0.643 0.244 0.663 0.59 0.011 0.191 0.049 0.409 0.119 0.686 0.085 0.336-0.119 0.677-0.455 0.762-0.051 0.013-0.103 0.019-0.154 0.019z"></path>
<path fill="#fff" d="M12.072 3.585c-0.001 0-0.001 0-0.002 0-0.468-0.002-0.931-0.005-1.377-0.010-0.347-0.004-0.624-0.288-0.62-0.635 0.004-0.344 0.284-0.62 0.627-0.62h0.008c0.442 0.005 0.902 0.009 1.366 0.010 0.347 0.001 0.626 0.283 0.625 0.63s-0.282 0.625-0.627 0.625z"></path>
<path fill="#fff" d="M8.824 3.575h-0.82c-0.346 0-0.627-0.281-0.627-0.627s0.281-0.627 0.627-0.627h0.82c0.347 0 0.627 0.281 0.627 0.627s-0.281 0.627-0.627 0.627z"></path>
<path fill="#3c122c" d="M16.306 13.434c-0.208 0-0.376-0.169-0.376-0.376v-0.712c0-0.208 0.169-0.376 0.376-0.376s0.376 0.169 0.376 0.376v0.712c0 0.208-0.169 0.376-0.376 0.376z"></path>
<path fill="#3c122c" d="M17.831 11.994c-0.208 0-0.376-0.169-0.376-0.376v-0.712c0-0.208 0.169-0.376 0.376-0.376s0.376 0.169 0.376 0.376v0.712c0 0.208-0.169 0.376-0.376 0.376z"></path>
</svg>
