<!-- Generated by IcoMoon.io -->
<svg version="1.1" xmlns="http://www.w3.org/2000/svg" width="32" height="32" viewBox="0 0 32 32">
<title>wine1</title>
<path fill="#c49a8b" d="M26.343 6.608l-0.99-0.99c-0.434-0.434-0.434-1.138 0-1.573l3.094-3.094c0.434-0.434 1.138-0.434 1.573 0l0.99 0.99c0.434 0.434 0.434 1.138 0 1.573l-3.094 3.094c-0.434 0.434-1.138 0.434-1.573 0z"></path>
<path fill="#a1e8c3" d="M29.722 5.907l-3.555-3.555c-0.191-0.191-0.501-0.191-0.692 0l-1.36 1.36c-0.155 0.155-0.184 0.388-0.088 0.572l-2.722 2.722c-0.614 0.614-1.465 0.917-2.332 0.861-2.279-0.147-4.89 0.792-6.331 2.232l-0.69 0.69-10.652 11.381c-0.855 0.909-0.833 2.332 0.049 3.214l5.306 5.306c0.88 0.88 2.3 0.904 3.209 0.053l11.42-10.622 0.689-0.689c1.441-1.441 2.379-4.051 2.232-6.331-0.056-0.867 0.247-1.718 0.861-2.332l2.722-2.722c0.184 0.096 0.417 0.067 0.572-0.088l1.36-1.36c0.191-0.191 0.191-0.501 0-0.692z"></path>
<path fill="#faf1a9" d="M2.498 20.468l7.030-7.030 8.999 8.999-7.030 7.030z"></path>
<path fill="#dfb5a7" d="M11.598 29.131l6.812-6.335-2.065-2.065-6.327 5.919c-0.163 0.154-0.345 0.276-0.535 0.367z"></path>
<path fill="#85adc2" d="M8.783 27.205c-0.504 0.039-1.006-0.123-1.373-0.49l-4.136-4.136c-0.631-0.631-0.657-1.659-0.094-2.417l-1.879 2.008c-0.855 0.909-0.833 2.332 0.049 3.214l5.306 5.306c0.88 0.88 2.3 0.904 3.209 0.053l1.272-1.183z"></path>
<path fill="#85adc2" d="M27.764 8.074c-0.539-0.423-1.072-0.852-1.595-1.294l-3.107 3.107c-0.52 0.52-0.796 1.223-0.779 1.926 0.042 1.849-0.81 4.004-2.031 5.225l-0.584 0.584-2.863 2.678 2.066 2.066 2.414-2.245 0.689-0.689c1.441-1.441 2.379-4.051 2.232-6.331-0.056-0.867 0.247-1.718 0.861-2.332z"></path>
<path fill="#cdf4e3" d="M8.566 1.894l0.517 1.454c0.022 0.062 0.066 0.112 0.121 0.136l1.292 0.582c0.182 0.082 0.182 0.373 0 0.455l-1.292 0.582c-0.055 0.025-0.099 0.074-0.121 0.136l-0.517 1.454c-0.073 0.205-0.331 0.205-0.404 0l-0.517-1.454c-0.022-0.062-0.066-0.112-0.121-0.136l-1.292-0.582c-0.182-0.082-0.182-0.373 0-0.455l1.292-0.582c0.055-0.025 0.099-0.074 0.121-0.136l0.517-1.454c0.073-0.205 0.331-0.205 0.404 0z"></path>
<path fill="#a2e9c4" d="M28.542 12.948c0.621 0.059 1.077 0.61 1.018 1.23s-0.61 1.077-1.23 1.018c-0.621-0.059-1.077-0.61-1.018-1.23s0.61-1.077 1.23-1.018z"></path>
<path fill="#a2e9c4" d="M6.325 11.515c0 0.269-0.218 0.487-0.487 0.487s-0.487-0.218-0.487-0.487c0-0.269 0.218-0.487 0.487-0.487s0.487 0.218 0.487 0.487z"></path>
<path fill="#cdf4e3" d="M27.46 19.209l0.384 1.078c0.016 0.046 0.049 0.083 0.090 0.101l0.958 0.432c0.135 0.061 0.135 0.277 0 0.338l-0.958 0.432c-0.041 0.018-0.073 0.055-0.090 0.101l-0.384 1.078c-0.054 0.152-0.246 0.152-0.3 0l-0.384-1.078c-0.016-0.046-0.049-0.083-0.090-0.101l-0.958-0.432c-0.135-0.061-0.135-0.277 0-0.338l0.958-0.432c0.041-0.018 0.073-0.055 0.090-0.101l0.384-1.078c0.054-0.152 0.246-0.152 0.3 0z"></path>
<path fill="#d789b9" d="M12.061 21.687c-0.358-0.358-0.877-0.46-1.345-0.314 0.199-0.070 0.387-0.184 0.548-0.344 0.548-0.548 0.569-1.416 0.047-1.939s-1.39-0.502-1.939 0.047c-0.407 0.407-0.522 0.989-0.343 1.476-0.487-0.18-1.069-0.064-1.476 0.343-0.548 0.548-0.569 1.416-0.047 1.939s1.391 0.502 1.939-0.047c0.121-0.122 0.216-0.259 0.285-0.405-0.098 0.437 0.016 0.902 0.345 1.231 0.522 0.523 1.39 0.502 1.939-0.047s0.569-1.416 0.047-1.939zM9.837 22.139c0.057-0.257 0.041-0.524-0.049-0.768 0.28 0.103 0.591 0.109 0.882 0.018-0.199 0.070-0.387 0.184-0.548 0.344-0.121 0.122-0.216 0.259-0.285 0.405z"></path>
<path fill="#3c122c" d="M31.45 1.49l-0.979-0.979c-0.682-0.682-1.792-0.682-2.474 0l-1.391 1.391c-0.437-0.431-1.142-0.429-1.577 0.005l-1.36 1.36c-0.223 0.223-0.331 0.517-0.326 0.81l-2.484 2.484c-0.476 0.476-1.148 0.723-1.846 0.678-2.435-0.157-5.237 0.836-6.816 2.416l-0.69 0.69c-0.005 0.005-0.010 0.010-0.014 0.015l-10.651 11.379c-1.095 1.164-1.067 2.96 0.062 4.090l5.306 5.306c0.576 0.576 1.326 0.865 2.077 0.865 0.718 0 1.437-0.265 2.005-0.796l11.42-10.621c0.006-0.005 0.011-0.011 0.016-0.016l0.689-0.689c1.579-1.579 2.572-4.382 2.416-6.816-0.045-0.697 0.202-1.37 0.678-1.846l2.483-2.483c0.006 0 0.013 0.001 0.019 0.001 0.299 0 0.58-0.116 0.791-0.328l1.36-1.36c0.211-0.211 0.328-0.492 0.328-0.791s-0.116-0.58-0.328-0.791l-0.108-0.108 1.39-1.39c0.682-0.682 0.682-1.792-0-2.474zM9.676 14.143l8.247 8.247-6.704 6.235-7.798-7.799zM9.435 30.284c-0.665 0.622-1.69 0.605-2.334-0.039l-5.306-5.306c-0.646-0.646-0.661-1.673-0.035-2.339l1.144-1.222 7.761 7.762zM24.623 10.325c-0.732 0.732-1.112 1.759-1.044 2.817 0.133 2.066-0.729 4.524-2.049 5.845l-0.681 0.681-2.374 2.208c-0.006-0.007-0.010-0.014-0.017-0.020l-8.265-8.265 2.213-2.364 0.682-0.682c1.321-1.321 3.779-2.183 5.845-2.049 1.058 0.068 2.085-0.312 2.817-1.044l2.261-2.261 2.873 2.873zM28.016 7.416l-3.357-3.357 1.162-1.162 3.357 3.357zM30.559 3.074l-1.39 1.39-1.672-1.672 1.39-1.391c0.096-0.096 0.221-0.143 0.347-0.143s0.251 0.048 0.347 0.143l0.979 0.979c0.191 0.191 0.191 0.502 0 0.694z"></path>
<path fill="#3c122c" d="M14.471 20.452c-0.869-0.453-1.812-0.227-2.475 0.061 0.043-0.147 0.067-0.299 0.071-0.455 0.011-0.471-0.162-0.909-0.489-1.236s-0.765-0.499-1.236-0.489c-0.464 0.011-0.903 0.201-1.237 0.535-0.357 0.357-0.536 0.823-0.535 1.283-0.459 0-0.949 0.201-1.283 0.535s-0.524 0.773-0.535 1.237c-0.011 0.471 0.162 0.909 0.489 1.236s0.757 0.488 1.193 0.488c0.344 0 0.691-0.101 0.994-0.301 0.082 0.22 0.211 0.422 0.381 0.592 0.904 0.864 2.030 0.413 2.473-0.047 0.334-0.334 0.524-0.773 0.535-1.237 0.011-0.471-0.137-0.949-0.66-1.385 0.521-0.251 1.303-0.495 1.965-0.15 0.185 0.097 0.413 0.025 0.509-0.16s0.025-0.413-0.16-0.509zM9.639 19.404c0.463-0.457 1.090-0.367 1.405-0.047 0.179 0.179 0.274 0.422 0.268 0.684-0.006 0.269-0.118 0.525-0.314 0.721-0.194 0.206-0.512 0.318-0.721 0.314-0.073 0.002-0.144-0.005-0.213-0.019-0.077-0.151-0.178-0.291-0.303-0.416-0.124-0.124-0.264-0.226-0.416-0.304-0.063-0.32 0.036-0.675 0.295-0.934zM7.774 22.627c-0.376-0.381-0.322-1.077 0.047-1.405 0.538-0.509 1.147-0.307 1.405-0.047 0.431 0.453 0.291 1.157-0.047 1.405-0.4 0.4-1.030 0.421-1.405 0.047zM11.747 23.359c-0.438 0.395-1.036 0.445-1.405 0.047-0.315-0.266-0.398-0.995 0.047-1.405 0.557-0.517 1.13-0.299 1.405-0.047 0.257 0.209 0.459 0.897-0.047 1.405z"></path>
<path fill="#fff" d="M12.453 14.159c-0.158 0-0.317-0.059-0.439-0.178-0.249-0.242-0.254-0.641-0.012-0.89 0.971-0.998 1.849-1.716 2.763-2.261 0.298-0.178 0.685-0.080 0.863 0.218s0.080 0.685-0.218 0.863c-0.817 0.488-1.614 1.142-2.506 2.058-0.123 0.127-0.287 0.19-0.451 0.19z"></path>
<path fill="#fff" d="M18.157 11.276c-0.072 0-0.146-0.013-0.217-0.039-0.273-0.101-0.536-0.103-0.88-0.010-0.335 0.091-0.681-0.106-0.773-0.442s0.106-0.681 0.442-0.773c0.6-0.164 1.122-0.15 1.646 0.043 0.326 0.12 0.493 0.482 0.373 0.808-0.094 0.254-0.334 0.412-0.591 0.412z"></path>
</svg>
