<!-- Generated by IcoMoon.io -->
<svg version="1.1" xmlns="http://www.w3.org/2000/svg" width="32" height="32" viewBox="0 0 32 32">
<title>apple</title>
<path d="M8.419 0.167l0.555 1.562c0.024 0.067 0.071 0.12 0.13 0.147l1.388 0.625c0.196 0.088 0.196 0.401 0 0.489l-1.388 0.625c-0.059 0.027-0.107 0.080-0.13 0.147l-0.555 1.562c-0.079 0.221-0.356 0.221-0.434 0l-0.555-1.562c-0.024-0.067-0.071-0.12-0.13-0.147l-1.388-0.625c-0.196-0.088-0.196-0.401 0-0.489l1.388-0.625c0.059-0.027 0.106-0.080 0.13-0.147l0.555-1.562c0.079-0.221 0.356-0.221 0.434-0z"></path>
<path d="M1.969 6.584l0.412 1.159c0.018 0.050 0.053 0.089 0.097 0.109l1.029 0.464c0.145 0.066 0.145 0.297 0 0.363l-1.029 0.464c-0.044 0.020-0.079 0.059-0.097 0.109l-0.412 1.159c-0.058 0.164-0.264 0.164-0.322 0l-0.412-1.159c-0.018-0.050-0.053-0.089-0.097-0.109l-1.029-0.464c-0.145-0.066-0.145-0.297 0-0.363l1.029-0.464c0.044-0.020 0.079-0.059 0.097-0.109l0.412-1.159c0.058-0.164 0.264-0.164 0.322 0z"></path>
<path d="M24.070 1.823c0.492 0.060 0.843 0.509 0.782 1.001s-0.509 0.843-1.001 0.782c-0.492-0.061-0.843-0.509-0.782-1.001s0.509-0.843 1.001-0.782z"></path>
<path d="M29.478 7.26c-1.014-0.647-3.106-1.734-5.724-1.734-2.151 0-4.081 0.953-5.517 1.956 0.347-2.203 0.727-3.163 0.733-3.177 0.075-0.181 0.062-0.386-0.035-0.556-0.683-1.198-2.045-1.197-2.67-1.029-0.162 0.044-0.301 0.15-0.384 0.296-0.879 1.531-1.214 3.864-1.322 5.919l-0.17-0.051c-0.784-0.235-1.576-0.332-2.356-0.289-2.111 0.115-4.131 1.098-5.543 2.696-1.424 1.612-2.126 3.684-1.978 5.835 0.015 0.245 0.314 4.916 1.988 8.933 0.844 2.026 1.636 3.582 2.755 4.594 1.005 0.909 2.247 1.344 3.865 1.344 0.262 0 0.535-0.011 0.817-0.034l2.45-0.197 2.611 0.206c1.995 0.158 3.817-0.441 5.267-1.732 1.352-1.204 2.317-2.944 2.789-5.032 0.872-3.856 1.336-8.019 1.34-8.061 0.001-0.008 0.002-0.015 0.002-0.023 0.081-1.114-0.065-2.203-0.42-3.218 0.624-0.277 1.134-0.569 1.501-0.804 1.163-0.743 2.522-1.954 2.522-2.921s-1.359-2.178-2.522-2.922zM16.839 3.908c0.234-0.015 0.581 0.015 0.837 0.262-0.196 0.603-0.582 2.011-0.877 4.455-0.477 0.428-0.82 0.789-1.001 0.987 0.059-1.928 0.303-4.215 1.040-5.705zM27.136 17.021c-0.027 0.244-0.482 4.221-1.315 7.909-0.819 3.624-3.173 5.803-6.208 5.803-0.169 0-0.341-0.007-0.514-0.020l-2.661-0.21c-0.033-0.003-0.067-0.003-0.1 0l-2.501 0.201c-3.31 0.266-4.494-1.113-6.168-5.13-1.599-3.837-1.891-8.479-1.893-8.525-0-0.002-0-0.004-0-0.007-0.126-1.811 0.465-3.556 1.663-4.913 1.189-1.346 2.889-2.174 4.664-2.27 0.096-0.005 0.191-0.008 0.288-0.008 0.541 0 1.091 0.082 1.637 0.246l1.625 0.486c0.002 0.002 0.003 0.005 0.005 0.007 0.147 0.173 3.65 4.246 8.097 4.246 1.125 0 2.153-0.201 3.040-0.481 0.289 0.842 0.408 1.744 0.343 2.665zM28.692 12.103c-0.884 0.549-2.7 1.469-4.939 1.469-3.084 0-5.778-2.408-6.748-3.39 0.97-0.982 3.664-3.39 6.748-3.39 2.239 0 4.055 0.92 4.939 1.469 1.314 0.816 1.975 1.651 2.040 1.921-0.065 0.271-0.726 1.105-2.040 1.921z"></path>
<path d="M8.796 21.146c-0.31 0-0.581-0.228-0.626-0.543-0.252-1.767-0.411-4.055 0.608-6.072 0.157-0.312 0.538-0.437 0.85-0.28s0.437 0.538 0.28 0.85c-0.859 1.702-0.71 3.739-0.485 5.323 0.049 0.346-0.191 0.666-0.537 0.716-0.030 0.004-0.060 0.006-0.090 0.006z"></path>
<path d="M10.988 13.222c-0.172 0-0.343-0.069-0.467-0.206-0.236-0.258-0.217-0.658 0.041-0.894 0.035-0.032 0.070-0.064 0.105-0.097 0.249-0.229 0.531-0.489 0.907-0.712 0.301-0.178 0.689-0.078 0.866 0.223s0.078 0.689-0.223 0.866c-0.261 0.154-0.461 0.339-0.693 0.552-0.037 0.034-0.073 0.067-0.11 0.101-0.121 0.111-0.274 0.165-0.426 0.165z"></path>
<path d="M20.877 21.633c-0.21 0-0.38-0.17-0.38-0.38v-0.765c0-0.21 0.17-0.38 0.38-0.38s0.38 0.17 0.38 0.38v0.765c0 0.21-0.17 0.38-0.38 0.38z"></path>
<path d="M18.872 24.061c-0.21 0-0.38-0.17-0.38-0.38v-0.765c0-0.21 0.17-0.38 0.38-0.38s0.38 0.17 0.38 0.38v0.765c0 0.21-0.17 0.38-0.38 0.38z"></path>
<path d="M22.409 24.31c-0.21 0-0.38-0.17-0.38-0.38v-0.765c0-0.21 0.17-0.38 0.38-0.38s0.38 0.17 0.38 0.38v0.765c0 0.21-0.17 0.38-0.38 0.38z"></path>
</svg>
