<!-- Generated by IcoMoon.io -->
<svg version="1.1" xmlns="http://www.w3.org/2000/svg" width="32" height="32" viewBox="0 0 32 32">
<title>apricot</title>
<path d="M26.889 0.154l0.516 1.451c0.022 0.062 0.066 0.111 0.121 0.136l1.289 0.581c0.182 0.082 0.182 0.372 0 0.454l-1.289 0.581c-0.055 0.025-0.099 0.074-0.121 0.136l-0.516 1.451c-0.073 0.205-0.331 0.205-0.404 0l-0.516-1.451c-0.022-0.062-0.066-0.111-0.121-0.136l-1.289-0.581c-0.182-0.082-0.182-0.372 0-0.454l1.289-0.581c0.055-0.025 0.099-0.074 0.121-0.136l0.516-1.451c0.073-0.205 0.331-0.205 0.404 0z"></path>
<path d="M19.033 0.67c0.614 0.1 1.032 0.678 0.932 1.293s-0.678 1.032-1.293 0.932c-0.614-0.1-1.032-0.678-0.932-1.293s0.678-1.032 1.293-0.932z"></path>
<path d="M31.216 7.321c0.103 0.248-0.015 0.533-0.263 0.635s-0.533-0.015-0.635-0.263c-0.103-0.248 0.015-0.533 0.263-0.635s0.533 0.015 0.635 0.263z"></path>
<path d="M25.042 9.456c-1.661-1.822-4.015-2.786-6.808-2.786-0.763 0-1.513 0.13-2.242 0.387-0.24-0.543-0.549-1.077-0.86-1.526-0.694-1.001-2.23-2.827-4.724-3.809-2.456-0.967-4.874-0.632-6.096-0.347-1.488 0.348-3.139 1.079-3.474 1.929s0.374 2.511 1.225 3.78c0.513 0.765 1.48 1.987 2.928 2.966-1.715 2.212-2.585 5.397-2.585 9.481 0 10.85 6.148 12.47 9.813 12.47 1.033 0 2.043-0.238 3.008-0.707 0.964 0.469 1.974 0.707 3.007 0.707 4.477 0 9.813-2.163 9.813-12.47 0-4.496-1.011-7.885-3.006-10.074zM15.307 7.339c-0.027 0.013-0.054 0.025-0.081 0.038-0.048-0.023-0.096-0.045-0.144-0.068 0.075 0.009 0.15 0.020 0.225 0.030zM3.172 6.48c-0.935-1.359-1.202-2.454-1.163-2.715 0.15-0.218 1.092-0.836 2.703-1.192 1.059-0.235 3.147-0.505 5.236 0.318 2.185 0.861 3.539 2.472 4.152 3.356 0.213 0.308 0.389 0.601 0.532 0.873-0.782-0.298-1.59-0.449-2.412-0.449-2.54 0-4.732 0.839-6.382 2.433-1.312-0.849-2.199-1.945-2.665-2.623zM24.124 28.55c-1.398 1.455-3.38 2.193-5.89 2.193-0.929 0-1.84-0.239-2.708-0.709-0.093-0.051-0.196-0.076-0.299-0.076s-0.206 0.025-0.3 0.076c-0.868 0.471-1.779 0.709-2.708 0.709-3.904 0-8.557-1.945-8.557-11.214 0-4.085 0.902-7.161 2.681-9.143 1.824-2.033 4.202-2.46 5.876-2.46 0.929 0 1.84 0.239 2.708 0.709 0.187 0.101 0.412 0.101 0.599 0 0.868-0.47 1.779-0.709 2.708-0.709 2.465 0 4.442 0.799 5.879 2.376 1.777 1.95 2.678 5.055 2.678 9.228 0 4.145-0.897 7.18-2.666 9.021z"></path>
<path d="M17.655 29.202c-0.835 0-1.651-0.193-2.429-0.573-0.778 0.38-1.594 0.573-2.429 0.573-2.911 0-7.795-1.262-7.795-9.714 0-3.444 0.806-6.066 2.394-7.795 1.338-1.456 3.206-2.226 5.4-2.226 0.835 0 1.651 0.193 2.429 0.573 0.778-0.38 1.594-0.573 2.429-0.573 2.216 0 4.083 0.745 5.398 2.154 1.59 1.704 2.396 4.35 2.396 7.866 0 3.503-0.809 6.1-2.403 7.72-1.302 1.323-3.116 1.994-5.391 1.994zM15.226 27.78l0.176 0.093c0.721 0.382 1.479 0.575 2.252 0.575 4.672 0 7.041-3.014 7.041-8.96 0-3.319-0.738-5.792-2.194-7.352-1.186-1.271-2.817-1.915-4.847-1.915-0.774 0-1.532 0.194-2.252 0.575l-0.176 0.093-0.176-0.093c-0.721-0.382-1.479-0.575-2.252-0.575-1.379 0-3.34 0.344-4.845 1.982-1.457 1.585-2.196 4.036-2.196 7.285 0 7.405 3.829 8.96 7.041 8.96 0.774 0 1.532-0.194 2.252-0.575z"></path>
<path d="M15.226 26.356c-0.837 0-2.095-0.845-3.131-2.104-0.717-0.87-1.919-2.675-1.919-4.987 0-2.274 1.268-4.103 2.023-4.991 1.035-1.216 2.308-2.099 3.026-2.099s1.991 0.883 3.026 2.099c0.756 0.888 2.023 2.717 2.023 4.991 0 2.311-1.202 4.116-1.919 4.987-1.036 1.258-2.294 2.104-3.131 2.104zM15.226 12.929c-0.364 0-1.447 0.653-2.452 1.834-0.688 0.809-1.844 2.47-1.844 4.503 0 2.076 1.094 3.715 1.747 4.508 0.978 1.188 2.043 1.829 2.549 1.829s1.571-0.641 2.549-1.829c0.652-0.792 1.747-2.432 1.747-4.508 0-2.033-1.155-3.694-1.844-4.503-1.005-1.181-2.088-1.834-2.452-1.834z"></path>
<path d="M17.008 18.542c-0.182 0-0.343-0.133-0.372-0.318-0.051-0.326-0.126-0.662-0.223-1-0.057-0.2 0.059-0.409 0.259-0.466s0.409 0.059 0.466 0.259c0.105 0.367 0.187 0.734 0.243 1.090 0.032 0.206-0.108 0.399-0.314 0.431-0.020 0.003-0.040 0.005-0.059 0.005z"></path>
<path d="M15.452 23.754c-0.098 0-0.195-0.038-0.269-0.113-0.146-0.148-0.144-0.387 0.005-0.533 0.769-0.756 1.289-1.777 1.463-2.874 0.033-0.206 0.226-0.346 0.431-0.313s0.346 0.226 0.313 0.431c-0.199 1.256-0.796 2.425-1.679 3.294-0.073 0.072-0.169 0.108-0.264 0.108z"></path>
<path d="M7.005 19.436c-0.335 0-0.614-0.265-0.627-0.603-0.061-1.516 0.23-3.015 0.843-4.334 0.146-0.315 0.52-0.451 0.834-0.305s0.451 0.52 0.305 0.834c-0.521 1.122-0.779 2.456-0.727 3.754 0.014 0.347-0.256 0.639-0.602 0.653-0.009 0-0.017 0-0.026 0z"></path>
<path d="M8.965 13.739c-0.156 0-0.313-0.058-0.434-0.174-0.251-0.24-0.259-0.638-0.019-0.888 0.4-0.418 0.791-0.703 1.27-0.927 0.315-0.147 0.688-0.011 0.835 0.304s0.011 0.688-0.304 0.835c-0.335 0.156-0.603 0.353-0.894 0.657-0.123 0.129-0.289 0.194-0.454 0.194z"></path>
</svg>
