<!-- Generated by IcoMoon.io -->
<svg version="1.1" xmlns="http://www.w3.org/2000/svg" width="32" height="32" viewBox="0 0 32 32">
<title>artichoke</title>
<path d="M7.608 2.293c0 0.269-0.218 0.487-0.487 0.487s-0.487-0.218-0.487-0.487c0-0.269 0.218-0.487 0.487-0.487s0.487 0.218 0.487 0.487z"></path>
<path d="M2.692 1.25l0.517 1.455c0.022 0.062 0.066 0.112 0.121 0.137l1.292 0.582c0.183 0.082 0.183 0.373 0 0.455l-1.292 0.582c-0.055 0.025-0.099 0.074-0.121 0.137l-0.517 1.455c-0.073 0.205-0.332 0.205-0.405 0l-0.517-1.454c-0.022-0.062-0.066-0.112-0.121-0.137l-1.292-0.582c-0.183-0.082-0.183-0.373 0-0.455l1.292-0.582c0.055-0.025 0.099-0.074 0.121-0.137l0.517-1.455c0.073-0.205 0.332-0.205 0.405 0z"></path>
<path d="M30.246 5.75l0.384 1.079c0.016 0.046 0.049 0.083 0.090 0.101l0.959 0.432c0.135 0.061 0.135 0.277 0 0.338l-0.959 0.432c-0.041 0.018-0.074 0.055-0.090 0.101l-0.384 1.079c-0.054 0.152-0.246 0.152-0.3 0l-0.384-1.079c-0.016-0.046-0.049-0.083-0.090-0.101l-0.959-0.432c-0.135-0.061-0.135-0.277 0-0.338l0.959-0.432c0.041-0.019 0.074-0.055 0.090-0.101l0.384-1.079c0.054-0.152 0.246-0.152 0.3 0z"></path>
<path d="M27.306 1.814c0 0.494-0.4 0.894-0.894 0.894s-0.894-0.4-0.894-0.894c0-0.494 0.4-0.894 0.894-0.894s0.894 0.4 0.894 0.894z"></path>
<path d="M26.765 11.884c-0.045-0.034-0.095-0.063-0.147-0.091-0.067-1.575-0.602-3.055-1.004-3.96-0.726-1.633-1.937-3.437-3.006-3.785-0.274-0.089-0.612-0.107-0.989-0.068-0.099-0.116-0.196-0.226-0.288-0.328-1.936-2.15-4.18-3.652-5.456-3.652s-3.52 1.502-5.456 3.651c-0.093 0.103-0.19 0.213-0.29 0.33-0.385-0.041-0.731-0.025-1.010 0.066-1.069 0.348-2.28 2.152-3.006 3.785-0.409 0.921-0.956 2.438-1.007 4.044-0.004 0.003-0.008 0.005-0.012 0.008-0.833 0.619-1.017 2.739-0.922 4.365 0.081 1.384 0.444 4.012 1.963 6.054 1.731 2.327 3.692 3.255 5.447 3.255 0.114 0 0.226-0.005 0.338-0.012v3.23c0 1.778 1.447 3.225 3.225 3.225h1.461c1.778 0 3.225-1.447 3.225-3.225v-3.238c0.147 0.013 0.296 0.021 0.447 0.021 1.754 0 3.716-0.929 5.447-3.255 1.519-2.042 1.881-4.669 1.962-6.054 0.095-1.627-0.089-3.746-0.922-4.365zM21.972 5.215c0.102 0 0.185 0.010 0.246 0.030 0.425 0.139 1.443 1.293 2.245 3.099 0.502 1.129 0.797 2.239 0.876 3.241-0.938 0.035-2.083 0.329-3.020 0.672-0.19 0.069-0.404 0.152-0.634 0.249-0.562-1.202-1.353-2.203-1.92-2.833-0.776-0.861-1.767-1.727-2.675-2.229 0.445-0.361 0.943-0.703 1.488-1.017 1.468-0.846 2.781-1.212 3.394-1.212zM15.93 17.828c-0.279-0.631-0.659-1.283-1.156-1.951-1.051-1.413-2.53-2.376-3.773-2.993 0.388-0.79 0.941-1.595 1.637-2.368 1.323-1.469 2.647-2.251 3.095-2.251s1.772 0.782 3.095 2.251c0.744 0.826 1.324 1.689 1.714 2.53-1.171 0.619-2.494 1.536-3.457 2.831-0.497 0.668-0.877 1.32-1.156 1.951zM15.875 1.26c0.748 0 2.595 1.158 4.345 3.043-0.767 0.256-1.57 0.629-2.271 1.033-0.573 0.33-1.344 0.832-2.085 1.495-0.741-0.663-1.513-1.165-2.085-1.495-0.696-0.401-1.491-0.772-2.254-1.027 1.751-1.889 3.602-3.049 4.35-3.049zM9.51 5.245c0.061-0.020 0.144-0.030 0.246-0.030 0.613 0 1.926 0.366 3.394 1.212 0.503 0.29 0.966 0.603 1.384 0.933-0.949 0.486-2.011 1.402-2.832 2.313-0.546 0.607-1.299 1.558-1.856 2.7-0.107-0.042-0.21-0.081-0.306-0.116-0.982-0.359-2.192-0.665-3.152-0.675 0.080-1.001 0.375-2.11 0.876-3.237 0.803-1.806 1.82-2.961 2.245-3.099zM7.146 21.551c-0.948-1.274-1.571-3.195-1.709-5.269-0.129-1.935 0.205-3.165 0.41-3.386 0.271-0.133 1.545-0.099 3.361 0.581 1.947 0.729 3.608 1.878 4.555 3.152 2.022 2.718 2.029 5.44 0.019 6.935s-4.615 0.705-6.637-2.013zM18.571 28.775c0 1.084-0.882 1.965-1.965 1.965h-1.461c-1.084 0-1.965-0.882-1.965-1.965v-3.485c0.489-0.169 0.945-0.412 1.355-0.716 0.567-0.421 1.047-0.962 1.395-1.598 0.349 0.636 0.829 1.177 1.395 1.598 0.379 0.282 0.798 0.511 1.246 0.677v3.524zM26.423 16.282c-0.139 2.075-0.761 3.995-1.709 5.269-2.022 2.718-4.627 3.508-6.637 2.013s-2.003-4.217 0.019-6.935c0.948-1.274 2.608-2.423 4.555-3.152 1.301-0.487 2.325-0.643 2.9-0.643 0.227 0 0.385 0.024 0.462 0.062 0.205 0.221 0.539 1.451 0.41 3.386z"></path>
<path d="M8.281 19.733c-0.209 0-0.378-0.169-0.378-0.378v-0.754c0-0.209 0.169-0.378 0.378-0.378s0.378 0.169 0.378 0.378v0.754c0 0.209-0.169 0.378-0.378 0.378z"></path>
<path d="M10.306 21.867c-0.209 0-0.378-0.169-0.378-0.378v-0.754c0-0.209 0.169-0.378 0.378-0.378s0.378 0.169 0.378 0.378v0.754c0 0.209-0.169 0.378-0.378 0.378z"></path>
<path d="M12.191 19.624c-0.209 0-0.378-0.169-0.378-0.378v-0.754c0-0.209 0.169-0.378 0.378-0.378s0.378 0.169 0.378 0.378v0.754c0 0.209-0.169 0.378-0.378 0.378z"></path>
<path d="M8.632 11.206c-0.046 0-0.093-0.005-0.14-0.016-0.339-0.077-0.551-0.415-0.474-0.754 0.189-0.829 0.456-1.377 0.786-2.008 0.161-0.308 0.542-0.427 0.85-0.266s0.427 0.542 0.266 0.85c-0.35 0.669-0.531 1.074-0.674 1.703-0.067 0.292-0.326 0.49-0.614 0.49z"></path>
<path d="M10.406 7.742c-0.137 0-0.274-0.044-0.39-0.136-0.273-0.216-0.319-0.612-0.104-0.885 0.124-0.157 0.239-0.292 0.351-0.412 0.237-0.255 0.635-0.269 0.89-0.032s0.269 0.635 0.032 0.89c-0.089 0.095-0.182 0.205-0.285 0.335-0.124 0.157-0.309 0.239-0.495 0.239z"></path>
</svg>
