<!-- Generated by IcoMoon.io -->
<svg version="1.1" xmlns="http://www.w3.org/2000/svg" width="32" height="32" viewBox="0 0 32 32">
<title>asparagus</title>
<path d="M5.065 7.187l0.517 1.453c0.022 0.062 0.066 0.111 0.121 0.136l1.291 0.582c0.182 0.082 0.182 0.373 0 0.455l-1.291 0.582c-0.055 0.025-0.099 0.074-0.121 0.136l-0.517 1.453c-0.073 0.205-0.331 0.205-0.404 0l-0.517-1.453c-0.022-0.062-0.066-0.111-0.121-0.136l-1.291-0.582c-0.182-0.082-0.182-0.373 0-0.455l1.291-0.582c0.055-0.025 0.099-0.074 0.121-0.136l0.517-1.453c0.073-0.205 0.331-0.205 0.404 0z"></path>
<path d="M25.934 26.394l0.383 1.078c0.016 0.046 0.049 0.083 0.090 0.101l0.958 0.431c0.135 0.061 0.135 0.276 0 0.337l-0.958 0.431c-0.041 0.018-0.073 0.055-0.090 0.101l-0.383 1.078c-0.054 0.152-0.246 0.152-0.3 0l-0.383-1.078c-0.016-0.046-0.049-0.083-0.090-0.101l-0.958-0.431c-0.135-0.061-0.135-0.276 0-0.337l0.958-0.431c0.041-0.018 0.073-0.055 0.090-0.101l0.383-1.078c0.054-0.152 0.246-0.152 0.3 0z"></path>
<path d="M29.327 18.858l0.383 1.078c0.016 0.046 0.049 0.083 0.090 0.101l0.958 0.431c0.135 0.061 0.135 0.276 0 0.337l-0.958 0.431c-0.041 0.018-0.073 0.055-0.090 0.101l-0.383 1.078c-0.054 0.152-0.246 0.152-0.3 0l-0.383-1.078c-0.016-0.046-0.049-0.083-0.090-0.101l-0.958-0.431c-0.135-0.061-0.135-0.276 0-0.337l0.958-0.431c0.041-0.018 0.073-0.055 0.090-0.101l0.383-1.078c0.054-0.152 0.246-0.152 0.3 0z"></path>
<path d="M9.194 3.982c0 0.423-0.343 0.767-0.767 0.767s-0.767-0.343-0.767-0.767c0-0.423 0.343-0.767 0.767-0.767s0.767 0.343 0.767 0.767z"></path>
<path d="M21.081 27.314c0 0.329-0.267 0.595-0.595 0.595s-0.595-0.267-0.595-0.595c0-0.329 0.267-0.595 0.595-0.595s0.595 0.267 0.595 0.595z"></path>
<path d="M2.972 25.358c-0.004 0-0.008 0-0.011-0-0.623-0.003-1.208-0.248-1.646-0.691l-0.639-0.645c-0.438-0.443-0.678-1.029-0.675-1.652s0.248-1.208 0.691-1.646l15.529-15.382c0.072-0.072 0.114-0.165 0.119-0.264 0.049-1.156 0.598-2.284 1.585-3.262 1.206-1.195 2.955-1.572 3.89-1.69 1.149-0.145 2.579-0.096 3.148 0.479s0.605 2.005 0.449 3.152c-0.127 0.934-0.52 2.679-1.727 3.874-0.96 0.951-2.062 1.487-3.186 1.55-0.16 0.009-0.306 0.071-0.41 0.174l-15.475 15.329c-0.44 0.436-1.022 0.675-1.641 0.675zM22.866 1.315c-0.293 0-0.629 0.020-0.999 0.072-1.277 0.179-2.391 0.661-3.059 1.322-0.758 0.751-1.178 1.589-1.213 2.422-0.018 0.416-0.192 0.809-0.49 1.104l-15.529 15.382c-0.204 0.202-0.317 0.471-0.318 0.758s0.109 0.557 0.311 0.761l0.639 0.645c0.202 0.204 0.471 0.317 0.758 0.318 0.002 0 0.003 0 0.005 0 0.285 0 0.553-0.11 0.756-0.311l15.475-15.329c0.322-0.319 0.757-0.51 1.224-0.536 0.813-0.046 1.633-0.456 2.371-1.188 0.667-0.661 1.159-1.771 1.351-3.046 0.175-1.166 0.034-1.998-0.083-2.199-0.136-0.081-0.567-0.177-1.199-0.177zM24.081 1.502c0 0 0 0 0 0zM24.055 1.475h0c-0 0-0 0-0 0z"></path>
<path d="M9.482 31.944c-0.601 0-1.202-0.23-1.657-0.69l-0.639-0.645c-0.905-0.914-0.898-2.393 0.016-3.298l15.529-15.382c0.072-0.072 0.114-0.165 0.119-0.264 0.049-1.156 0.598-2.284 1.585-3.262 1.206-1.195 2.955-1.572 3.89-1.69 1.149-0.145 2.579-0.096 3.148 0.479s0.605 2.005 0.449 3.152c-0.127 0.934-0.52 2.679-1.727 3.874-0.96 0.951-2.062 1.487-3.186 1.55-0.16 0.009-0.306 0.071-0.41 0.174l-15.475 15.329c-0.454 0.45-1.048 0.674-1.641 0.674zM29.377 7.902c-0.293 0-0.629 0.021-0.999 0.072-1.277 0.179-2.392 0.661-3.059 1.322-0.758 0.751-1.178 1.588-1.213 2.422-0.018 0.416-0.192 0.809-0.49 1.104l-15.529 15.382c-0.421 0.417-0.424 1.098-0.007 1.519l0.639 0.645c0.417 0.421 1.098 0.424 1.519 0.007l15.475-15.329c0.322-0.319 0.757-0.51 1.224-0.536 0.813-0.046 1.633-0.456 2.371-1.188 0.667-0.661 1.159-1.771 1.351-3.046 0.175-1.166 0.034-1.998-0.083-2.199-0.136-0.081-0.567-0.177-1.199-0.177zM29.751 13.771h0.001zM30.592 8.089c0 0 0 0 0 0s0-0-0-0z"></path>
<path d="M19.054 5.502c-0.097 0-0.193-0.037-0.267-0.111-0.147-0.147-0.147-0.386 0-0.534l0.532-0.532c0.147-0.147 0.386-0.147 0.534 0s0.147 0.386 0 0.534l-0.532 0.532c-0.074 0.074-0.17 0.111-0.267 0.111z"></path>
<path d="M21.371 5.822c-0.097 0-0.193-0.037-0.267-0.111-0.147-0.147-0.147-0.386 0-0.534l0.532-0.532c0.147-0.147 0.386-0.147 0.534 0s0.147 0.386 0 0.534l-0.532 0.532c-0.074 0.074-0.17 0.111-0.267 0.111z"></path>
<path d="M25.39 11.705c-0.097 0-0.193-0.037-0.267-0.111-0.147-0.147-0.147-0.386-0-0.534l0.532-0.533c0.147-0.147 0.387-0.147 0.534 0s0.147 0.386 0 0.534l-0.532 0.532c-0.074 0.074-0.17 0.111-0.267 0.111z"></path>
<path d="M28.084 10.575c-0.097 0-0.193-0.037-0.267-0.111-0.147-0.147-0.147-0.386 0-0.534l0.532-0.532c0.147-0.147 0.386-0.147 0.534 0s0.147 0.386 0 0.534l-0.532 0.532c-0.074 0.074-0.17 0.111-0.267 0.111z"></path>
<path d="M27.5 12.986c-0.097 0-0.193-0.037-0.267-0.111-0.147-0.147-0.147-0.386-0-0.534l0.532-0.532c0.147-0.147 0.387-0.147 0.534 0s0.147 0.386 0 0.534l-0.532 0.532c-0.074 0.074-0.17 0.111-0.267 0.111z"></path>
<path d="M21.521 3.863c-0.097 0-0.193-0.037-0.267-0.111-0.147-0.147-0.147-0.386 0-0.534l0.532-0.532c0.147-0.147 0.386-0.147 0.534 0s0.147 0.386 0 0.534l-0.532 0.532c-0.074 0.074-0.17 0.111-0.267 0.111z"></path>
<path d="M24.929 14.459c-0.097 0-0.193-0.037-0.267-0.111-0.147-0.147-0.147-0.386 0-0.534l0.532-0.532c0.147-0.147 0.386-0.147 0.534 0s0.147 0.386 0 0.534l-0.532 0.532c-0.074 0.074-0.17 0.111-0.267 0.111z"></path>
<path d="M15.069 9.936c-0.151 0-0.303-0.054-0.424-0.164-0.257-0.234-0.275-0.632-0.041-0.889 0.272-0.298 0.6-0.626 0.877-0.877 0.258-0.233 0.655-0.213 0.889 0.044s0.213 0.655-0.044 0.889c-0.245 0.222-0.548 0.525-0.791 0.791-0.124 0.136-0.294 0.205-0.465 0.205z"></path>
<path d="M7.392 17.613c-0.163 0-0.326-0.063-0.449-0.189-0.243-0.248-0.239-0.646 0.008-0.89 0.873-0.857 1.75-1.748 2.598-2.61 1.114-1.133 2.267-2.304 3.44-3.428 0.251-0.24 0.649-0.232 0.889 0.019s0.232 0.649-0.019 0.889c-1.16 1.111-2.306 2.275-3.414 3.402-0.852 0.866-1.733 1.761-2.614 2.626-0.122 0.12-0.282 0.18-0.441 0.18z"></path>
<path d="M21.636 16.503c-0.151 0-0.303-0.054-0.424-0.164-0.257-0.234-0.275-0.632-0.041-0.889 0.272-0.298 0.6-0.626 0.877-0.877 0.258-0.233 0.655-0.213 0.889 0.044s0.213 0.655-0.044 0.889c-0.245 0.222-0.548 0.525-0.791 0.791-0.124 0.136-0.294 0.205-0.465 0.205z"></path>
<path d="M13.96 24.18c-0.163 0-0.326-0.063-0.449-0.189-0.243-0.248-0.24-0.646 0.008-0.89 0.873-0.857 1.75-1.748 2.598-2.61 1.115-1.133 2.267-2.305 3.441-3.428 0.251-0.24 0.649-0.232 0.89 0.019s0.232 0.649-0.019 0.889c-1.16 1.111-2.306 2.275-3.414 3.402-0.852 0.866-1.732 1.761-2.613 2.626-0.122 0.12-0.282 0.18-0.441 0.18z"></path>
</svg>
