<!-- Generated by IcoMoon.io -->
<svg version="1.1" xmlns="http://www.w3.org/2000/svg" width="32" height="32" viewBox="0 0 32 32">
<title>avocado</title>
<path d="M3.37 9.813l0.512 1.439c0.022 0.062 0.065 0.11 0.12 0.135l1.278 0.576c0.181 0.081 0.181 0.369 0 0.45l-1.278 0.576c-0.055 0.025-0.098 0.073-0.12 0.135l-0.512 1.439c-0.072 0.203-0.328 0.203-0.4 0l-0.512-1.439c-0.022-0.062-0.065-0.11-0.12-0.135l-1.278-0.576c-0.181-0.081-0.181-0.369 0-0.45l1.278-0.576c0.055-0.025 0.098-0.073 0.12-0.135l0.512-1.439c0.072-0.203 0.328-0.203 0.4 0z"></path>
<path d="M6.612 0.608l0.38 1.067c0.016 0.046 0.048 0.082 0.089 0.1l0.948 0.427c0.134 0.060 0.134 0.274 0 0.334l-0.948 0.427c-0.041 0.018-0.073 0.054-0.089 0.1l-0.38 1.067c-0.054 0.151-0.243 0.151-0.297 0l-0.38-1.067c-0.016-0.046-0.048-0.082-0.089-0.1l-0.948-0.427c-0.134-0.060-0.134-0.274 0-0.334l0.948-0.427c0.041-0.018 0.073-0.054 0.089-0.1l0.38-1.067c0.054-0.151 0.243-0.151 0.297-0z"></path>
<path d="M27.941 4.223c0 0.617-0.5 1.117-1.117 1.117s-1.117-0.5-1.117-1.117c0-0.617 0.5-1.117 1.117-1.117s1.117 0.5 1.117 1.117z"></path>
<path d="M3.099 3.004c0.263 0.043 0.441 0.29 0.399 0.553s-0.29 0.441-0.553 0.399c-0.263-0.043-0.441-0.29-0.399-0.553s0.29-0.441 0.553-0.399z"></path>
<path d="M29.558 6.81l0.38 1.067c0.016 0.046 0.048 0.082 0.089 0.1l0.948 0.427c0.134 0.060 0.134 0.274 0 0.334l-0.948 0.427c-0.041 0.018-0.073 0.055-0.089 0.1l-0.38 1.067c-0.054 0.151-0.243 0.151-0.297 0l-0.38-1.067c-0.016-0.046-0.048-0.082-0.089-0.1l-0.948-0.427c-0.134-0.060-0.134-0.274 0-0.334l0.948-0.427c0.041-0.018 0.073-0.054 0.089-0.1l0.38-1.067c0.054-0.151 0.243-0.151 0.297 0z"></path>
<path d="M13.292 12.534c-0.042 0-0.085-0.004-0.128-0.013-0.337-0.070-0.553-0.4-0.482-0.737 0.053-0.251 0.111-0.64 0.146-0.968 0.021-0.197 0.041-0.405 0.062-0.621 0.139-1.446 0.312-3.246 0.974-4.585 0.152-0.308 0.526-0.435 0.835-0.282s0.435 0.526 0.282 0.834c-0.561 1.134-0.721 2.807-0.851 4.152-0.021 0.22-0.042 0.432-0.063 0.633-0.030 0.282-0.091 0.737-0.165 1.092-0.061 0.294-0.32 0.496-0.609 0.496z"></path>
<path d="M12.188 14.943c-0.105 0-0.212-0.027-0.31-0.083-0.298-0.172-0.4-0.553-0.229-0.851 0.101-0.176 0.196-0.353 0.283-0.526 0.153-0.308 0.527-0.434 0.835-0.281s0.434 0.527 0.281 0.835c-0.098 0.197-0.205 0.397-0.319 0.595-0.115 0.2-0.325 0.312-0.54 0.312z"></path>
<path d="M15.577 25.582c-2.444 0-4.432-2.212-4.432-4.932s1.988-4.932 4.432-4.932c2.444 0 4.432 2.212 4.432 4.932s-1.988 4.932-4.432 4.932zM15.577 16.466c-2.032 0-3.685 1.877-3.685 4.184s1.653 4.184 3.685 4.184c2.032 0 3.685-1.877 3.685-4.184s-1.653-4.184-3.684-4.184z"></path>
<path d="M15.577 23.988c-0.206 0-0.374-0.167-0.374-0.374s0.167-0.374 0.374-0.374c1.249 0 2.265-1.162 2.265-2.59 0-0.206 0.167-0.374 0.374-0.374s0.374 0.167 0.374 0.374c0 1.84-1.351 3.338-3.013 3.338z"></path>
<path d="M18.315 19.102c0.047 0.246-0.102 0.477-0.332 0.517s-0.456-0.127-0.503-0.373 0.102-0.477 0.332-0.517c0.231-0.040 0.456 0.127 0.503 0.373z"></path>
<path d="M24.464 14.113c-1.133-1.439-1.737-3.231-1.703-5.045 0.001-0.071 0.002-0.142 0.002-0.213 0-2.339-0.731-4.544-2.058-6.209-1.36-1.706-3.181-2.646-5.128-2.646s-3.768 0.94-5.128 2.646c-1.327 1.665-2.058 3.87-2.058 6.209 0 0.071 0.001 0.142 0.002 0.213 0.035 1.814-0.57 3.605-1.703 5.045-1.542 1.959-2.357 4.309-2.357 6.795 0 6.116 5.044 11.092 11.244 11.092s11.244-4.976 11.244-11.092c0-2.486-0.815-4.836-2.357-6.795zM5.579 20.908c0-2.204 0.723-4.287 2.090-6.025v0c1.31-1.665 2.010-3.739 1.969-5.839-0.001-0.063-0.002-0.126-0.002-0.19 0-4.195 2.665-7.609 5.94-7.609s5.941 3.413 5.941 7.609c0 0.063-0.001 0.127-0.002 0.19-0.040 2.101 0.659 4.174 1.969 5.839 1.367 1.738 2.090 3.821 2.090 6.025 0 0.619-0.059 1.224-0.17 1.812-0.631-0.537-1.313-0.888-1.629-1.036 0.038-0.339 0.058-0.684 0.058-1.033 0-2.125-1.006-4.738-2.001-6.221-0.835-1.245-1.604-2.608-1.579-4.137 0.001-0.037 0.001-0.074 0.001-0.111l0-0.059c0.025-2.961-0.524-4.966-1.677-6.129-0.75-0.756-1.76-1.14-3.001-1.14-1.476 0-2.554 0.538-3.298 1.643-0.759 1.129-1.184 2.901-1.301 5.418-0.003 0.054-0.001 0.105 0 0.149l0.001 0.042c0.021 1.319-0.495 2.773-1.534 4.324-1.105 1.649-2.221 4.212-2.221 6.221 0 2.362 0.904 4.539 2.547 6.13 1.551 1.503 3.667 2.365 5.806 2.365 1.392 0 2.733-0.348 3.927-1.002 0.25 0.228 0.766 0.726 1.121 1.26-1.482 0.858-3.208 1.35-5.048 1.35-5.513-0-9.998-4.417-9.998-9.846zM21.257 29.006c-0.338-0.511-0.789-0.978-1.091-1.267 0.382-0.259 0.744-0.552 1.084-0.877 0.211 0.163 0.811 0.637 1.278 1.115-0.394 0.376-0.819 0.72-1.271 1.028zM15.577 28.398c-3.738 0-7.605-2.898-7.605-7.747 0-1.842 1.085-4.3 2.094-5.805 1.126-1.679 1.684-3.278 1.66-4.752l-0.001-0.049c-0.001-0.035-0.002-0.067-0.001-0.094 0.11-2.377 0.495-4.024 1.175-5.036 0.602-0.896 1.453-1.313 2.677-1.313 1.049 0 1.857 0.3 2.47 0.919 0.992 1.001 1.484 2.883 1.461 5.596l-0 0.062c-0 0.034-0 0.069-0.001 0.103-0.028 1.734 0.803 3.219 1.705 4.565 0.931 1.389 1.874 3.829 1.874 5.805 0 4.849-3.818 7.747-7.509 7.747zM23.049 27.442c-0.462-0.47-1.018-0.918-1.28-1.122 0.951-1.093 1.594-2.416 1.886-3.862 0.343 0.176 0.889 0.49 1.369 0.922 0.060 0.054 0.132 0.084 0.207 0.092-0.409 1.493-1.167 2.846-2.181 3.97z"></path>
</svg>
