<!-- Generated by IcoMoon.io -->
<svg version="1.1" xmlns="http://www.w3.org/2000/svg" width="32" height="32" viewBox="0 0 32 32">
<title>banana</title>
<path d="M13.889 1.911l0.521 1.464c0.022 0.063 0.066 0.112 0.122 0.137l1.301 0.586c0.184 0.083 0.184 0.376 0 0.458l-1.301 0.586c-0.056 0.025-0.1 0.075-0.122 0.137l-0.521 1.464c-0.074 0.207-0.334 0.207-0.407 0l-0.521-1.464c-0.022-0.063-0.066-0.112-0.122-0.137l-1.301-0.586c-0.184-0.083-0.184-0.376 0-0.458l1.301-0.586c0.056-0.025 0.1-0.075 0.122-0.137l0.521-1.464c0.074-0.207 0.334-0.207 0.407 0z"></path>
<path d="M3.958 8.257l0.386 1.086c0.017 0.046 0.049 0.083 0.091 0.102l0.965 0.435c0.136 0.061 0.136 0.279 0 0.34l-0.965 0.435c-0.041 0.019-0.074 0.055-0.091 0.102l-0.386 1.086c-0.055 0.153-0.248 0.153-0.302 0l-0.386-1.086c-0.017-0.046-0.049-0.083-0.091-0.102l-0.965-0.435c-0.136-0.061-0.136-0.279 0-0.34l0.965-0.435c0.041-0.019 0.074-0.055 0.091-0.102l0.386-1.086c0.055-0.153 0.247-0.153 0.302 0z"></path>
<path d="M7.173 6.607c0.161 0.391-0.026 0.838-0.417 0.998s-0.838-0.026-0.998-0.417c-0.161-0.391 0.026-0.838 0.417-0.998s0.838 0.026 0.998 0.417z"></path>
<path d="M24.912 5.057c-0.007 0-0.014-0-0.021-0-0.348-0.012-0.62-0.303-0.609-0.651 0.007-0.207 0.010-0.419 0.010-0.628 0-0.348 0.282-0.63 0.63-0.63s0.63 0.282 0.63 0.63c0 0.223-0.004 0.448-0.011 0.67-0.011 0.341-0.291 0.609-0.629 0.609z"></path>
<path d="M20.939 15.272c-0.172 0-0.343-0.070-0.467-0.207-0.233-0.257-0.214-0.655 0.042-0.889 0.028-0.026 2.822-2.635 3.584-7.737 0.051-0.344 0.372-0.581 0.716-0.53s0.581 0.372 0.53 0.716c-0.832 5.571-3.855 8.367-3.983 8.483-0.121 0.109-0.272 0.163-0.423 0.163z"></path>
<path d="M29.092 4.289c-0.978-3.611-4.045-5.904-5.909-2.907-0.549 0.86-1.011 2.068-1.595 3.596-0.888 2.322-2.007 5.245-3.948 8.179-0.889-0.84-2.003-1.574-3.080-1.407-2.209 0.343-8.239 4.576-9.157 6.76-0.267 0.634-0.115 1.058 0.060 1.302 0.818 1.122 2.842 0.605 4.268 0.444 0.466-0.067 0.957-0.137 1.463-0.198-1.946 1.58-3.665 2.661-5.056 3.534-1.326 0.832-2.373 1.49-3.022 2.225-0.77 0.872-0.955 1.818-0.582 2.976 0.449 1.394 1.837 2.427 3.907 2.91 5.001 1.020 10.676-0.658 15.266-3.977 0.383 1.819 0.765 4.053 1.681 4.204 2.602 0.738 4.981-7.034 5.259-8.769 0.090-0.578-0.044-1.434-1.097-2.352 2.497-5.29 2.966-11.524 1.543-16.519zM9.551 19.009c-0.959 0.12-2.479 0.418-3.029 0.105 0.297-1.459 6.556-5.963 8.231-6.118 1.759-0.242 5.249 4.82 4.923 6.111-0.041 0.023-0.215 0.094-0.744 0.072-0.496-0.020-1.144-0.114-1.83-0.212-1.038-0.15-2.214-0.319-3.401-0.329-1.481-0.013-2.899 0.191-4.15 0.371zM14.718 29.874c-3.297 1.101-9.701 1.651-10.986-1.468-0.465-1.443 0.369-2.049 3.075-3.748 1.733-1.088 3.966-2.491 6.518-4.759 1.205-0.029 2.49 0.153 3.597 0.314 0.854 0.123 1.592 0.229 2.2 0.229 0.148-0 0.406 0 0.697-0.064 0.049 1.274 0.426 2.188 0.864 3.625 0.248 0.773 0.512 1.575 0.71 2.378-2.42 1.887-4.872 2.928-6.676 3.493zM27.401 22.967c-0.115 1.367-2.278 7.271-3.602 7.753-0.241-0.34-0.522-1.663-0.73-2.643-0.193-0.91-0.412-1.941-0.698-2.904-0.389-1.344-1.067-3.147-1.248-4.301-0.089-0.589-0.016-0.849 0.074-0.893 0.698-0.338 3.548 0.298 5.234 1.544 0.4 0.296 1.058 0.877 0.97 1.443zM26.503 20.071c-1.705-0.989-4.244-1.7-5.568-1.331-0.152-1.469-1.307-3.326-2.408-4.638 2.113-3.121 3.3-6.222 4.237-8.672 0.537-1.404 1-2.616 1.481-3.368 0.408-0.639 0.724-0.791 1-0.791 1.159 0.121 1.984 1.362 2.643 3.39 1.107 3.6 1.127 10.067-1.385 15.412z"></path>
<path d="M9.041 28.885c-0.168 0-0.322-0.113-0.366-0.284-0.052-0.202 0.070-0.408 0.272-0.46 2.296-0.589 6.53-2.104 9.096-5.64 0.123-0.169 0.359-0.206 0.528-0.084s0.206 0.359 0.084 0.528c-1.178 1.623-2.787 2.998-4.782 4.088-1.432 0.782-3.026 1.401-4.739 1.84-0.031 0.008-0.063 0.012-0.094 0.012z"></path>
<path d="M6.749 29.33c-0.191 0-0.356-0.145-0.376-0.34-0.021-0.208 0.13-0.393 0.337-0.414 0.003-0 0.285-0.030 0.759-0.114 0.206-0.037 0.402 0.101 0.438 0.306s-0.101 0.402-0.306 0.438c-0.504 0.089-0.801 0.12-0.814 0.121s-0.026 0.002-0.039 0.002z"></path>
<path d="M17.631 26.574c-0.112 0-0.223-0.049-0.297-0.144-0.129-0.164-0.101-0.401 0.063-0.531 0.009-0.007 0.883-0.7 1.374-1.371 0.123-0.169 0.36-0.205 0.528-0.082s0.205 0.36 0.082 0.528c-0.552 0.756-1.477 1.488-1.516 1.519-0.069 0.055-0.152 0.081-0.234 0.081z"></path>
<path d="M15.037 28.301c-0.134 0-0.264-0.071-0.332-0.197-0.1-0.183-0.032-0.413 0.151-0.513 0.284-0.154 0.734-0.419 0.849-0.525 0.153-0.142 0.392-0.133 0.534 0.021s0.132 0.392-0.021 0.534c-0.224 0.207-0.873 0.565-1.001 0.634-0.057 0.031-0.119 0.046-0.18 0.046z"></path>
</svg>
