<!-- Generated by IcoMoon.io -->
<svg version="1.1" xmlns="http://www.w3.org/2000/svg" width="32" height="32" viewBox="0 0 32 32">
<title>blueberry</title>
<path d="M2.882 0.163l0.547 1.538c0.023 0.066 0.070 0.118 0.128 0.144l1.366 0.616c0.193 0.087 0.193 0.394 0 0.481l-1.366 0.615c-0.058 0.026-0.105 0.079-0.128 0.144l-0.547 1.538c-0.077 0.217-0.35 0.217-0.428 0l-0.547-1.538c-0.023-0.066-0.070-0.118-0.128-0.144l-1.366-0.616c-0.193-0.087-0.193-0.394 0-0.481l1.366-0.616c0.058-0.026 0.105-0.079 0.128-0.144l0.547-1.538c0.077-0.217 0.351-0.217 0.428 0z"></path>
<path d="M26.454 0.609l0.406 1.141c0.017 0.049 0.052 0.088 0.095 0.107l1.013 0.457c0.143 0.065 0.143 0.293 0 0.357l-1.013 0.457c-0.043 0.020-0.078 0.058-0.095 0.107l-0.406 1.141c-0.057 0.161-0.26 0.161-0.317 0l-0.406-1.141c-0.017-0.049-0.052-0.088-0.095-0.107l-1.013-0.457c-0.143-0.065-0.143-0.293 0-0.357l1.013-0.457c0.043-0.020 0.078-0.058 0.095-0.107l0.406-1.141c0.057-0.161 0.26-0.161 0.317 0z"></path>
<path d="M2.836 20.056c0 0.507-0.411 0.917-0.917 0.917s-0.917-0.411-0.917-0.917c0-0.507 0.411-0.917 0.917-0.917s0.917 0.411 0.917 0.917z"></path>
<path d="M10.862 5.087c0 0.285-0.231 0.515-0.515 0.515s-0.515-0.231-0.515-0.515 0.231-0.515 0.515-0.515 0.515 0.231 0.515 0.515z"></path>
<path d="M31.732 14.698c0-4.161-3.385-7.546-7.546-7.546-0.199 0-0.396 0.008-0.591 0.023-0.208-0.72-0.469-1.319-0.684-1.745-0.814-1.614-1.926-2.774-2.832-2.955-0.983-0.197-2.289 0.586-2.805 0.932-2.026 1.358-3.49 3.477-3.917 5.669-0.071 0.363-0.114 0.719-0.136 1.064-0.34-0.178-0.705-0.34-1.096-0.476-2.071-0.724-4.605-0.526-6.777 0.531-0.571 0.278-1.935 1.029-2.266 1.999-0.3 0.878 0.134 2.428 1.105 3.948 0.463 0.725 1.329 1.861 2.64 2.754-0.629 1.101-0.989 2.375-0.989 3.731 0 4.161 3.385 7.546 7.546 7.546 1.5 0 2.898-0.441 4.074-1.198 1.378 1.836 3.572 3.026 6.038 3.026 4.161 0 7.546-3.385 7.546-7.546 0-1.674-0.548-3.222-1.474-4.475 1.337-1.362 2.163-3.227 2.163-5.282zM30.401 14.698c0 1.658-0.653 3.167-1.716 4.282-1.353-1.283-3.18-2.072-5.188-2.072-1.626 0-3.133 0.517-4.366 1.395-0.728-1.018-1.158-2.262-1.158-3.606 0-3.426 2.788-6.214 6.214-6.214s6.214 2.788 6.214 6.214zM14.663 9.331c0.534-2.744 2.7-4.381 3.351-4.817 0.826-0.553 1.456-0.739 1.727-0.739 0.029 0 0.055 0.002 0.075 0.006 0.299 0.060 1.164 0.781 1.905 2.25 0.172 0.341 0.378 0.809 0.551 1.368-2.845 0.746-5.039 3.116-5.529 6.056-0.044-0.070-0.088-0.14-0.134-0.21-0.389-0.589-1.067-1.463-2.069-2.249-0.022-0.524 0.009-1.084 0.123-1.665zM5.31 15.426c-0.886-1.387-1.067-2.509-0.967-2.801 0.073-0.213 0.568-0.736 1.588-1.232 0.495-0.241 1.885-0.832 3.574-0.832 0.69 0 1.431 0.099 2.181 0.361 2.546 0.89 4.164 3.213 4.644 4.76-0.905-0.385-1.9-0.6-2.944-0.6-2.328 0-4.412 1.060-5.797 2.721-1.126-0.764-1.877-1.749-2.278-2.377zM13.385 28.841c-3.426 0-6.214-2.788-6.214-6.214s2.788-6.214 6.214-6.214c1.491 0 2.862 0.528 3.934 1.407 0.219 0.479 0.487 0.932 0.797 1.352-1.337 1.362-2.163 3.227-2.163 5.282 0 1.218 0.29 2.369 0.805 3.389-0.972 0.631-2.13 0.998-3.372 0.998zM23.497 30.669c-3.426 0-6.214-2.788-6.214-6.214s2.788-6.214 6.214-6.214 6.214 2.788 6.214 6.214-2.788 6.214-6.214 6.214z"></path>
<path d="M23.453 28.315c-0.124 0-0.249-0.039-0.358-0.119-0.244-0.177-0.321-0.49-0.188-0.76 0.421-0.853 0.092-1.868-0.75-2.31-0.267-0.14-0.388-0.438-0.295-0.725s0.366-0.457 0.665-0.413c0.941 0.137 1.805-0.49 1.965-1.428 0.051-0.297 0.297-0.505 0.599-0.505s0.548 0.208 0.599 0.505v0c0.16 0.938 1.023 1.565 1.965 1.428 0.298-0.044 0.572 0.126 0.665 0.413s-0.028 0.585-0.295 0.725c-0.842 0.442-1.172 1.457-0.75 2.31 0.134 0.27 0.056 0.583-0.188 0.76s-0.565 0.154-0.781-0.057c-0.681-0.664-1.748-0.664-2.429 0-0.119 0.116-0.27 0.175-0.423 0.175zM23.062 24.791c0.664 0.601 0.959 1.507 0.775 2.384 0.777-0.446 1.73-0.446 2.507 0-0.184-0.877 0.11-1.783 0.775-2.384-0.891-0.096-1.661-0.656-2.028-1.473-0.366 0.817-1.137 1.377-2.028 1.473zM24.901 22.695c0 0 0 0 0 0s-0-0-0-0z"></path>
<path d="M10.178 26.923c-0.124 0-0.249-0.039-0.358-0.119-0.244-0.177-0.321-0.49-0.188-0.76 0.421-0.853 0.092-1.868-0.751-2.31-0.267-0.14-0.388-0.438-0.295-0.725s0.367-0.457 0.665-0.413c0.942 0.137 1.805-0.49 1.965-1.428 0.051-0.297 0.297-0.505 0.599-0.505s0.548 0.208 0.598 0.505c0.16 0.938 1.023 1.565 1.965 1.428 0.299-0.044 0.572 0.126 0.665 0.413s-0.028 0.585-0.295 0.725c-0.842 0.442-1.172 1.457-0.751 2.31 0.134 0.27 0.056 0.583-0.188 0.76s-0.565 0.154-0.781-0.057c-0.681-0.664-1.748-0.664-2.429 0-0.119 0.116-0.27 0.175-0.422 0.175zM9.787 23.399c0.664 0.601 0.959 1.507 0.775 2.384 0.777-0.446 1.73-0.446 2.507-0-0.184-0.877 0.11-1.783 0.775-2.384-0.891-0.096-1.661-0.656-2.028-1.473-0.367 0.817-1.137 1.377-2.028 1.474zM12.020 21.236l-0.394 0.067z"></path>
<path d="M27.201 16.141c-0.152 0-0.303-0.059-0.422-0.175-0.681-0.664-1.748-0.664-2.429 0-0.216 0.21-0.537 0.234-0.781 0.057s-0.321-0.49-0.188-0.76c0.421-0.853 0.092-1.868-0.75-2.31-0.267-0.14-0.388-0.438-0.295-0.725s0.367-0.457 0.665-0.413c0.941 0.137 1.805-0.49 1.965-1.428 0.051-0.297 0.297-0.505 0.599-0.505s0.548 0.208 0.599 0.505c0.16 0.938 1.023 1.565 1.965 1.428 0.298-0.044 0.572 0.126 0.665 0.413s-0.028 0.585-0.295 0.725c-0.842 0.442-1.172 1.457-0.75 2.31 0.134 0.27 0.056 0.583-0.188 0.76-0.109 0.080-0.234 0.119-0.358 0.119zM23.536 12.617c0.664 0.601 0.959 1.507 0.775 2.384 0.777-0.446 1.73-0.446 2.507 0-0.184-0.877 0.11-1.783 0.775-2.384-0.891-0.096-1.661-0.656-2.028-1.473-0.367 0.817-1.137 1.377-2.028 1.473zM25.375 10.521c0 0 0 0 0 0.001s-0-0-0-0.001z"></path>
<path d="M13.586 18.502c-0.015 0-0.029-0-0.044-0.001-0.163-0.011-0.326-0.013-0.482-0.006-0.368 0.016-0.678-0.269-0.694-0.637s0.269-0.678 0.637-0.694c0.204-0.009 0.415-0.006 0.626 0.008 0.367 0.024 0.645 0.341 0.621 0.708-0.023 0.352-0.316 0.622-0.664 0.622z"></path>
<path d="M8.884 21.56c-0.081 0-0.163-0.015-0.242-0.046-0.342-0.134-0.512-0.52-0.378-0.862 0.287-0.735 0.793-1.47 1.424-2.070 0.311-0.296 0.65-0.55 1.006-0.755 0.319-0.184 0.726-0.074 0.909 0.244s0.074 0.726-0.244 0.909c-0.265 0.153-0.519 0.344-0.754 0.567-0.493 0.468-0.884 1.032-1.101 1.589-0.103 0.263-0.354 0.424-0.62 0.424z"></path>
<path d="M21.219 11.632c-0.187 0-0.373-0.079-0.505-0.232-0.24-0.279-0.208-0.699 0.071-0.939 0.155-0.133 0.322-0.262 0.496-0.382 0.303-0.208 0.718-0.131 0.926 0.172s0.131 0.717-0.172 0.926c-0.135 0.093-0.264 0.192-0.382 0.294-0.126 0.108-0.28 0.161-0.434 0.161z"></path>
<path d="M19.858 16.606c-0.286 0-0.55-0.185-0.637-0.473-0.229-0.755-0.287-1.645-0.162-2.507 0.061-0.425 0.17-0.834 0.323-1.216 0.137-0.341 0.524-0.507 0.865-0.371s0.507 0.524 0.371 0.865c-0.114 0.284-0.195 0.591-0.241 0.912-0.097 0.673-0.055 1.358 0.119 1.93 0.107 0.352-0.092 0.724-0.444 0.83-0.064 0.020-0.13 0.029-0.194 0.029z"></path>
<path d="M21.409 21.22c-0.22 0-0.434-0.108-0.561-0.307-0.198-0.31-0.108-0.721 0.202-0.92 0.172-0.11 0.356-0.214 0.545-0.308 0.329-0.164 0.729-0.029 0.892 0.3s0.029 0.729-0.3 0.892c-0.147 0.073-0.288 0.153-0.42 0.237-0.111 0.071-0.235 0.105-0.358 0.105z"></path>
<path d="M19.362 25.954c-0.323 0-0.606-0.235-0.657-0.564-0.121-0.78-0.053-1.669 0.192-2.505 0.121-0.412 0.286-0.802 0.491-1.159 0.183-0.319 0.59-0.429 0.909-0.245s0.429 0.59 0.245 0.909c-0.152 0.265-0.276 0.558-0.367 0.869-0.191 0.652-0.245 1.337-0.154 1.927 0.056 0.363-0.193 0.704-0.556 0.76-0.035 0.005-0.069 0.008-0.103 0.008z"></path>
</svg>
