<!-- Generated by IcoMoon.io -->
<svg version="1.1" xmlns="http://www.w3.org/2000/svg" width="32" height="32" viewBox="0 0 32 32">
<title>cabbage</title>
<path d="M5.807 0.154l0.516 1.451c0.022 0.062 0.066 0.111 0.121 0.136l1.289 0.581c0.182 0.082 0.182 0.372 0 0.454l-1.289 0.581c-0.055 0.025-0.099 0.074-0.121 0.136l-0.516 1.451c-0.073 0.205-0.331 0.205-0.404 0l-0.516-1.451c-0.022-0.062-0.066-0.111-0.121-0.136l-1.289-0.581c-0.182-0.082-0.182-0.372 0-0.454l1.289-0.581c0.055-0.025 0.099-0.074 0.121-0.136l0.516-1.451c0.073-0.205 0.331-0.205 0.404-0z"></path>
<path d="M1.865 7.747l0.383 1.076c0.016 0.046 0.049 0.083 0.090 0.101l0.956 0.431c0.135 0.061 0.135 0.276 0 0.337l-0.956 0.431c-0.041 0.018-0.073 0.055-0.090 0.101l-0.383 1.076c-0.054 0.152-0.245 0.152-0.299 0l-0.383-1.076c-0.016-0.046-0.049-0.083-0.090-0.101l-0.956-0.431c-0.135-0.061-0.135-0.276 0-0.337l0.956-0.431c0.041-0.018 0.073-0.055 0.090-0.101l0.383-1.076c0.054-0.152 0.245-0.152 0.299 0z"></path>
<path d="M24.329 2.032c0.491 0.041 0.856 0.472 0.815 0.963s-0.472 0.856-0.963 0.815c-0.491-0.041-0.856-0.472-0.815-0.963s0.472-0.856 0.963-0.815z"></path>
<path d="M11.098 14.84c-0.159 0-0.307-0.102-0.359-0.261-0.020-0.061-0.039-0.122-0.058-0.183-0.106-0.339-0.206-0.66-0.391-0.91-0.124-0.167-0.089-0.403 0.079-0.527s0.403-0.089 0.527 0.079c0.261 0.352 0.39 0.767 0.505 1.134 0.018 0.059 0.037 0.118 0.056 0.176 0.064 0.198-0.045 0.41-0.243 0.474-0.038 0.012-0.077 0.018-0.116 0.018z"></path>
<path d="M21.946 22.145c-0.111 0-0.221-0.049-0.296-0.143-0.48-0.607-1.051-1.096-1.696-1.454-0.328-0.182-0.675-0.329-1.031-0.437-0.181-0.055-0.373-0.087-0.576-0.122-0.206-0.035-0.419-0.071-0.633-0.133-0.989-0.288-1.527-1.125-1.994-1.958-0.032-0.057-0.064-0.116-0.096-0.174-0.154-0.283-0.299-0.551-0.506-0.734-0.188-0.166-0.447-0.291-0.768-0.371-0.262-0.065-0.529-0.093-0.812-0.122-0.56-0.058-1.139-0.118-1.696-0.479-0.175-0.113-0.224-0.347-0.111-0.521s0.347-0.224 0.521-0.111c0.404 0.262 0.849 0.308 1.363 0.361 0.296 0.031 0.603 0.062 0.916 0.14 0.441 0.109 0.806 0.29 1.086 0.538 0.306 0.271 0.499 0.625 0.669 0.938 0.030 0.056 0.061 0.111 0.091 0.166 0.406 0.726 0.83 1.394 1.547 1.602 0.172 0.050 0.355 0.081 0.548 0.114 0.217 0.037 0.442 0.075 0.668 0.143 0.407 0.123 0.804 0.292 1.179 0.5 0.732 0.407 1.378 0.96 1.921 1.645 0.129 0.163 0.102 0.4-0.061 0.529-0.069 0.055-0.152 0.081-0.234 0.081z"></path>
<path d="M24.213 25.497c-0.152 0-0.294-0.092-0.352-0.242-0.211-0.55-0.428-1.074-0.763-1.443-0.14-0.154-0.128-0.392 0.026-0.532s0.392-0.128 0.532 0.026c0.423 0.466 0.671 1.060 0.909 1.68 0.075 0.194-0.023 0.412-0.217 0.487-0.044 0.017-0.090 0.025-0.135 0.025z"></path>
<path d="M31.16 18.478c0.454-1.976 0.899-4.546 0.787-5.833-0.058-0.671-0.359-1.206-0.868-1.547-0.722-0.483-1.72-0.468-2.456-0.362 0.039-0.987-0.063-2.482-0.884-3.416-0.497-0.567-1.195-0.853-2.020-0.825-0.476 0.015-1.066 0.248-1.857 1.264-1.904-1.097-4.11-1.725-6.461-1.725-0.194 0-0.386 0.005-0.578 0.013-0.082-0.128-0.167-0.256-0.254-0.384-1.444-2.123-2.815-3.046-4.073-2.744-1.27 0.305-2.067 1.858-2.434 4.748-1.414-0.329-2.548-0.184-3.355 0.446-0.73 0.57-0.491 1.641-0.26 2.677 0.070 0.313 0.206 0.92 0.195 1.2-0.272 0.057-0.853 0.060-1.221 0.062-1.147 0.006-2.138 0.010-2.433 0.777-0.243 0.631 0.116 1.47 0.722 2.787 0.216 0.47 0.617 1.342 0.622 1.596-0.698 4.078 0.573 7.672 3.888 10.986 1.277 1.277 2.755 2.231 4.334 2.864 0.053 0.021 0.107 0.042 0.16 0.063 0.044 0.017 0.087 0.034 0.131 0.050 1.418 0.533 2.953 0.826 4.555 0.826 1.72 0 3.362-0.337 4.866-0.946 0.010-0.004 0.020-0.008 0.030-0.012 0.030-0.012 0.059-0.025 0.089-0.037 1.527-0.633 2.957-1.568 4.197-2.807 0.057-0.057 0.113-0.118 0.168-0.182 1.259-1.308 2.247-2.878 2.873-4.62 0.7-1.455 1.293-3.843 1.539-4.917zM25.761 7.854c0.422-0.014 0.724 0.101 0.954 0.362 0.693 0.787 0.576 2.63 0.473 3.272-0.038 0.233 0.047 0.469 0.226 0.624s0.424 0.206 0.649 0.135c0.507-0.159 1.727-0.374 2.259-0.018 0.11 0.074 0.241 0.201 0.27 0.534 0.17 1.955-1.348 8.893-2.464 10.524-0.223 0.326-0.42 0.669-0.611 1.002-0.038 0.065-0.075 0.131-0.113 0.197-0.097-0.449-0.25-0.939-0.469-1.476-0.134-0.327-0.29-0.665-0.466-1.010 0.848-1.101 2.585-3.824 2.927-8.017 0.017-0.207-0.137-0.389-0.345-0.406s-0.389 0.137-0.406 0.345c-0.298 3.654-1.739 6.166-2.576 7.342-0.184-0.32-0.386-0.647-0.602-0.978-0.174-0.612-0.387-1.274-0.64-1.985 0.99-2.035 1.483-4.795 1.464-8.214-0.001-0.115-0.001-0.234 0.001-0.274 0.029-0.19-0.091-0.374-0.281-0.422-0.202-0.051-0.407 0.072-0.457 0.274-0.018 0.072-0.018 0.14-0.016 0.426 0.016 2.927-0.349 5.341-1.086 7.194-0.707-1.845-1.432-3.401-1.69-3.941 0.052-0.331 0.077-0.648 0.079-0.951 1.998-4.445 2.878-4.536 2.922-4.538zM26.283 9.846c0.002-0.010 0.004-0.019 0.006-0.029-0.002 0.012-0.004 0.022-0.006 0.029zM23.097 8.889c-0.242 0.403-0.499 0.871-0.774 1.416-0.115-0.197-0.25-0.382-0.404-0.555-1.137-1.28-2.994-1.486-3.863-1.509-0.107-0.217-0.256-0.51-0.439-0.845 1.988 0.037 3.854 0.575 5.48 1.494zM11.405 7.867c0.314-2.5 0.932-3.512 1.406-3.626 1.197-0.287 3.213 2.793 4.198 4.965 0.117 0.258 0.382 0.417 0.665 0.398 0.022-0.001 2.187-0.127 3.231 1.053 0.536 0.606 0.698 1.501 0.479 2.658-0.027 0.144-0.007 0.293 0.058 0.425 0.008 0.017 0.658 1.349 1.372 3.104-0.006-0.006-0.011-0.012-0.016-0.019-2.53-2.862-5.744-5.601-8.597-7.326-1.016-0.614-1.958-1.087-2.82-1.419 0.008-0.071 0.016-0.142 0.025-0.213zM25.135 27.691c-0-0.002-0-0.005-0-0.007-0.077 0.069-0.155 0.136-0.233 0.202-1.79-2.729-3.712-4.513-5.87-5.449-0.668-0.29-1.344-0.271-1.998-0.252-0.561 0.016-1.091 0.031-1.529-0.168-0.711-0.323-1.089-0.985-1.455-1.625-0.108-0.188-0.209-0.366-0.318-0.533-0.114-0.174-0.347-0.223-0.522-0.109s-0.223 0.347-0.109 0.522c0.097 0.148 0.193 0.316 0.295 0.494 0.385 0.674 0.864 1.513 1.797 1.937 0.596 0.271 1.24 0.253 1.862 0.235 0.597-0.017 1.162-0.033 1.677 0.19 2.005 0.869 3.88 2.628 5.577 5.228-0.737 0.546-1.54 1.008-2.395 1.37-0.028 0.012-0.056 0.024-0.083 0.035-0.015 0.006-0.029 0.012-0.044 0.018-2.759 1.12-5.863 1.139-8.633 0.056-0.021-0.008-0.042-0.017-0.064-0.025-0.040-0.016-0.079-0.032-0.119-0.048-0.062-0.026-0.124-0.052-0.186-0.078-0.003-0.001-0.005-0.002-0.008-0.003-1.248-0.543-2.383-1.3-3.359-2.223-0.004-0.001-0.008-0.003-0.012-0.004-0.076-0.072-0.151-0.144-0.225-0.218-3.024-3.024-4.139-6.141-3.506-9.808 0.095-0.551-0.215-1.263-0.73-2.381-0.215-0.468-0.55-1.196-0.647-1.589 0.293-0.042 0.798-0.045 1.129-0.046 1.069-0.005 1.992-0.010 2.37-0.63 0.357-0.586 0.172-1.413-0.023-2.289-0.081-0.363-0.246-1.102-0.189-1.339 0.982-0.701 3.184-0.14 5.913 1.51 2.742 1.658 5.838 4.298 8.282 7.063 1.857 2.101 3.204 4.106 3.896 5.797 0.704 1.722 0.685 2.971-0.057 3.712-0.157 0.157-0.319 0.309-0.483 0.455z"></path>
<path d="M10.937 24.979c-0.167 0-0.334-0.063-0.461-0.19-0.401-0.398-0.778-0.817-1.122-1.244-1.336-1.661-2.199-3.506-2.494-5.335-0.058-0.357 0.185-0.693 0.542-0.75s0.693 0.185 0.75 0.542c0.259 1.605 1.028 3.238 2.222 4.723 0.314 0.39 0.658 0.772 1.025 1.137 0.256 0.255 0.258 0.669 0.003 0.925-0.128 0.128-0.296 0.193-0.464 0.193z"></path>
<path d="M7.27 16.667c-0.337 0-0.623-0.259-0.651-0.6-0.034-0.412-0.007-0.767 0.027-1.089 0.038-0.359 0.361-0.62 0.72-0.581s0.62 0.361 0.581 0.72c-0.032 0.298-0.048 0.555-0.024 0.842 0.030 0.36-0.238 0.676-0.598 0.706-0.018 0.002-0.037 0.002-0.055 0.002z"></path>
</svg>
