<!-- Generated by IcoMoon.io -->
<svg version="1.1" xmlns="http://www.w3.org/2000/svg" width="32" height="32" viewBox="0 0 32 32">
<title>carrot</title>
<path d="M11.231 1.454l0.515 1.448c0.022 0.062 0.066 0.111 0.121 0.136l1.286 0.579c0.182 0.082 0.182 0.371 0 0.453l-1.286 0.579c-0.055 0.025-0.099 0.074-0.121 0.136l-0.515 1.447c-0.073 0.205-0.33 0.205-0.403 0l-0.515-1.447c-0.022-0.062-0.066-0.111-0.121-0.136l-1.286-0.579c-0.182-0.082-0.182-0.371 0-0.453l1.286-0.579c0.055-0.025 0.099-0.074 0.121-0.136l0.515-1.448c0.073-0.204 0.33-0.204 0.403 0z"></path>
<path d="M3.788 10.092l0.382 1.074c0.016 0.046 0.049 0.082 0.090 0.101l0.954 0.43c0.135 0.061 0.135 0.275 0 0.336l-0.954 0.43c-0.041 0.018-0.073 0.055-0.090 0.101l-0.382 1.074c-0.054 0.152-0.245 0.152-0.299 0l-0.382-1.074c-0.016-0.046-0.049-0.082-0.090-0.101l-0.954-0.43c-0.135-0.061-0.135-0.275 0-0.336l0.954-0.43c0.041-0.018 0.073-0.055 0.090-0.101l0.382-1.074c0.054-0.152 0.245-0.152 0.299 0z"></path>
<path d="M28.652 15.743c0.61 0.118 1.008 0.708 0.89 1.317s-0.708 1.008-1.317 0.89c-0.61-0.118-1.008-0.708-0.89-1.317s0.708-1.008 1.317-0.89z"></path>
<path d="M4.997 5.802c0 0.268-0.217 0.485-0.485 0.485s-0.485-0.217-0.485-0.485c0-0.268 0.217-0.485 0.485-0.485s0.485 0.217 0.485 0.485z"></path>
<path d="M25.081 21.018l0.515 1.448c0.022 0.062 0.066 0.111 0.121 0.136l1.286 0.579c0.182 0.082 0.182 0.371 0 0.453l-1.286 0.579c-0.055 0.025-0.099 0.074-0.121 0.136l-0.515 1.448c-0.073 0.204-0.33 0.204-0.403 0l-0.515-1.448c-0.022-0.062-0.066-0.111-0.121-0.136l-1.286-0.579c-0.182-0.082-0.182-0.371 0-0.453l1.286-0.579c0.055-0.025 0.099-0.074 0.121-0.136l0.515-1.448c0.073-0.204 0.33-0.204 0.403 0z"></path>
<path d="M16.381 11.365c-0.262 0-0.505-0.165-0.594-0.426-0.111-0.328 0.065-0.684 0.393-0.794 0.116-0.039 0.234-0.076 0.349-0.108 0.333-0.094 0.679 0.1 0.773 0.433s-0.1 0.679-0.433 0.773c-0.095 0.027-0.192 0.057-0.288 0.089-0.067 0.023-0.134 0.033-0.201 0.033z"></path>
<path d="M11.41 14.93c-0.159 0-0.318-0.060-0.441-0.181-0.246-0.243-0.248-0.64-0.005-0.886 0.769-0.778 1.943-1.908 3.251-2.732 0.293-0.185 0.68-0.097 0.864 0.196s0.097 0.68-0.196 0.864c-1.199 0.756-2.302 1.819-3.028 2.553-0.123 0.124-0.284 0.186-0.446 0.186z"></path>
<path d="M31.805 7.831c-0.32-0.921-1.45-1.3-3.124-1.122 0.194-0.344 0.348-0.683 0.461-1.012 0.389-1.137 0.255-2.112-0.376-2.746-0.802-0.805-2.093-0.783-3.544-0.039 0.015-0.208 0.021-0.407 0.018-0.596-0.030-1.601-0.735-2.087-1.153-2.234-1.387-0.488-2.959 1.23-4.103 4.481-0.465 1.322-0.761 2.631-0.847 3.733-1.397-0.652-2.815-0.71-4.332-0.18-1.805 0.631-3.694 2.085-5.776 4.443-2.9 3.284-5.522 7.2-7.195 10.743-1.295 2.743-2.526 6.345-1.038 7.926 0.524 0.557 1.309 0.772 2.207 0.772 1.842 0 4.16-0.903 5.678-1.602 3.62-1.667 7.574-4.335 10.847-7.319 2.377-2.167 3.835-4.047 4.459-5.746 0.552-1.506 0.488-2.908-0.203-4.41-0.024-0.061-0.052-0.123-0.080-0.185 1.075-0.094 2.334-0.38 3.606-0.822 3.256-1.131 4.98-2.697 4.497-4.085zM27.211 3.606c0.287 0 0.515 0.078 0.666 0.23 0.373 0.374 0.209 1.073 0.078 1.456-0.291 0.853-0.987 1.856-1.959 2.825-1.011 1.007-2.114 1.787-3.105 2.196-0.275 0.114-0.534 0.192-0.764 0.237-0.312-0.328-0.648-0.645-0.995-0.938 0.043-0.243 0.127-0.519 0.25-0.814 0.413-0.99 1.198-2.090 2.208-3.097 1.438-1.432 2.784-2.095 3.622-2.095zM21.166 4.979c0.971-2.76 2.069-3.724 2.448-3.724 0.021 0 0.040 0.003 0.056 0.009 0.12 0.042 0.303 0.363 0.316 1.075 0.008 0.423-0.045 0.923-0.154 1.473-0.374 0.292-0.751 0.625-1.127 1-0.965 0.961-1.75 2.014-2.254 3.012 0.105-0.774 0.323-1.731 0.715-2.845zM22.809 16.902c-0.552 1.506-1.902 3.224-4.127 5.252-3.182 2.901-7.018 5.491-10.527 7.106-3.858 1.777-5.884 1.708-6.448 1.11-0.588-0.624-0.565-2.668 1.259-6.532 0.504-1.067 1.097-2.169 1.759-3.278l3.144 2.599c0.117 0.097 0.258 0.144 0.399 0.144 0.18 0 0.359-0.078 0.483-0.227 0.22-0.267 0.183-0.662-0.084-0.882l-3.278-2.709c0.65-1.021 1.353-2.040 2.095-3.033l3.896 3.309c0.118 0.1 0.262 0.149 0.405 0.149 0.178 0 0.354-0.075 0.478-0.221 0.224-0.264 0.192-0.659-0.072-0.883l-3.944-3.35c0.557-0.708 1.132-1.399 1.719-2.064 1.909-2.162 3.676-3.538 5.251-4.089 0.539-0.188 1.060-0.283 1.571-0.283 0.65 0 1.283 0.153 1.91 0.46 1.508 0.726 3.415 2.632 3.923 3.923l0.014 0.034c0.557 1.203 0.61 2.273 0.172 3.468zM26.896 10.732c-1.519 0.528-2.745 0.733-3.615 0.774 0.029-0.012 0.058-0.023 0.088-0.035 1.14-0.471 2.387-1.347 3.511-2.467 0.282-0.281 0.543-0.564 0.78-0.846 1.91-0.443 2.872-0.17 2.96 0.084 0.109 0.314-0.808 1.476-3.725 2.49z"></path>
<path d="M16.163 22.686c-0.027 0-0.054-0.003-0.081-0.009-0.203-0.044-0.331-0.245-0.287-0.448l0.144-0.657c0.044-0.203 0.245-0.331 0.448-0.287s0.331 0.245 0.287 0.448l-0.144 0.657c-0.038 0.176-0.194 0.296-0.367 0.296z"></path>
<path d="M14.047 24.158c-0.027 0-0.054-0.003-0.081-0.009-0.203-0.044-0.331-0.245-0.287-0.448l0.144-0.657c0.044-0.203 0.245-0.331 0.448-0.287s0.331 0.245 0.287 0.448l-0.144 0.657c-0.038 0.176-0.194 0.296-0.367 0.296z"></path>
<path d="M8.583 27.237c-0.027 0-0.054-0.003-0.081-0.009-0.203-0.044-0.331-0.245-0.287-0.448l0.144-0.657c0.044-0.203 0.245-0.331 0.448-0.287s0.331 0.245 0.287 0.448l-0.144 0.657c-0.038 0.176-0.194 0.296-0.367 0.296z"></path>
</svg>
