<!-- Generated by IcoMoon.io -->
<svg version="1.1" xmlns="http://www.w3.org/2000/svg" width="32" height="32" viewBox="0 0 32 32">
<title>cherry</title>
<path d="M29.594 7.378l0.551 1.55c0.024 0.066 0.070 0.119 0.129 0.146l1.377 0.621c0.195 0.088 0.195 0.398 0 0.485l-1.377 0.621c-0.059 0.027-0.106 0.079-0.129 0.146l-0.551 1.55c-0.078 0.219-0.353 0.219-0.431 0l-0.551-1.55c-0.024-0.066-0.070-0.119-0.129-0.146l-1.377-0.621c-0.195-0.088-0.195-0.398 0-0.485l1.377-0.621c0.059-0.027 0.106-0.079 0.129-0.146l0.551-1.55c0.078-0.219 0.353-0.219 0.431 0z"></path>
<path d="M2.871 5.251l0.409 1.15c0.018 0.049 0.052 0.088 0.096 0.108l1.022 0.46c0.144 0.065 0.144 0.295 0 0.36l-1.022 0.46c-0.044 0.020-0.078 0.059-0.096 0.108l-0.409 1.15c-0.058 0.162-0.262 0.162-0.32 0l-0.409-1.15c-0.018-0.049-0.052-0.088-0.096-0.108l-1.022-0.46c-0.144-0.065-0.144-0.295 0-0.36l1.022-0.46c0.044-0.020 0.078-0.059 0.096-0.108l0.409-1.15c0.058-0.162 0.262-0.162 0.32 0z"></path>
<path d="M24.885 6.491c0.060 0.489-0.288 0.934-0.776 0.994s-0.934-0.288-0.994-0.776c-0.060-0.489 0.288-0.934 0.776-0.994s0.934 0.288 0.994 0.776z"></path>
<path d="M28.225 2.411c0 0.287-0.233 0.519-0.519 0.519s-0.519-0.232-0.519-0.519 0.233-0.519 0.519-0.519 0.519 0.232 0.519 0.519z"></path>
<path d="M31.032 17.051c-1.638-2.922-4.723-3.856-8.133-2.588-1.981-2.507-4.476-6.888-5.77-9.606 0.311-0.045 0.556-0.092 0.742-0.172 0.396-0.17 0.561-0.625 0.572-1.57 0.020-1.767-0.497-2.003-0.667-2.081-0.14-0.064-0.242-0.11-2.101-0.119-1.103-0.005-2.482 0.009-3.786 0.037-1.058 0.023-2.576 0.068-3.797 0.147-1.841 0.12-2.107 0.243-2.31 0.516-0.233 0.314-0.299 0.904-0.195 1.751 0.157 1.286 0.499 1.543 0.612 1.627 0.201 0.15 0.345 0.258 3.514 0.253 0.496-0.001 0.99-0.005 1.427-0.010-1.557 1.817-2.962 4.362-4.19 7.592-0.688 1.81-1.153 3.405-1.412 4.379-1.002 0.152-1.911 0.462-2.692 0.929-1.611 0.963-2.58 2.53-2.8 4.532-0.222 2.014 0.354 3.995 1.621 5.576s3.075 2.574 5.089 2.796c0.281 0.031 0.56 0.046 0.837 0.046 3.814 0 7.109-2.88 7.536-6.757 0.22-2.002-0.383-3.742-1.746-5.032-0.99-0.937-2.332-1.597-3.927-1.938 1.002-4.232 2.594-7.571 4.838-10.146 0.627 1.338 1.745 3.375 2.97 5.392 0.746 1.229 1.638 2.628 2.431 3.686-2.749 2.238-3.511 5.304-1.899 8.179 1.39 2.479 3.973 3.876 6.631 3.876 1.255-0 2.527-0.311 3.697-0.967 3.649-2.046 4.954-6.679 2.909-10.328zM13.881 24.192c-0.382 3.47-3.516 5.983-6.987 5.6-1.681-0.185-3.189-1.014-4.247-2.334s-1.538-2.972-1.353-4.653c0.178-1.619 0.917-2.827 2.196-3.591 0.951-0.569 2.151-0.86 3.513-0.86 0.37 0 0.752 0.021 1.144 0.065 1.837 0.202 3.349 0.821 4.372 1.79 1.082 1.024 1.54 2.364 1.362 3.983zM18.338 11.953c-1.496-2.463-2.867-5.026-3.26-6.094-0.074-0.203-0.248-0.353-0.459-0.398s-0.43 0.022-0.581 0.176c-2.767 2.845-4.679 6.627-5.826 11.526-0.459-0.048-0.907-0.068-1.341-0.063 0.769-2.754 2.797-8.943 6.189-12.052 0.193-0.177 0.256-0.454 0.159-0.696s-0.336-0.399-0.596-0.394c-2.304 0.047-4.878 0.047-5.648-0.026-0.114-0.346-0.201-1.070-0.177-1.45 0.539-0.087 2.044-0.211 5.241-0.278 2.412-0.051 4.377-0.040 5.082-0.009 0.072 0.356 0.084 1.026 0.038 1.385-0.158 0.028-0.357 0.053-0.486 0.070-0.469 0.061-0.683 0.088-0.87 0.25-0.208 0.181-0.274 0.476-0.163 0.729 0.927 2.092 3.671 7.233 6.074 10.355-0.138 0.071-0.276 0.145-0.415 0.222-0.202 0.113-0.398 0.23-0.586 0.351-0.599-0.805-1.405-2.004-2.377-3.604zM27.51 26.283c-0.977 0.547-2.038 0.807-3.085 0.807-2.218-0-4.374-1.166-5.534-3.235-1.842-3.287 0.354-6.057 3.024-7.554 1.201-0.673 2.572-1.13 3.884-1.13 1.605 0 3.124 0.684 4.137 2.492 1.707 3.045 0.618 6.912-2.427 8.619z"></path>
<path d="M5.822 20.647c-0.275 0-0.527-0.182-0.604-0.459-0.093-0.334 0.102-0.68 0.436-0.774 0.116-0.032 0.236-0.061 0.356-0.086 0.34-0.070 0.672 0.149 0.741 0.489s-0.149 0.672-0.489 0.741c-0.092 0.019-0.184 0.041-0.271 0.065-0.056 0.016-0.113 0.023-0.169 0.023z"></path>
<path d="M3.033 24.218c-0.003 0-0.006-0-0.009-0-0.347-0.005-0.624-0.29-0.619-0.637 0.012-0.792 0.407-2.24 1.25-2.981 0.26-0.229 0.657-0.204 0.886 0.057s0.204 0.657-0.057 0.886c-0.491 0.432-0.815 1.506-0.823 2.057-0.005 0.344-0.285 0.619-0.628 0.619z"></path>
<path d="M21.208 19.805c-0.138 0-0.278-0.046-0.394-0.139-0.27-0.218-0.312-0.613-0.094-0.883 0.075-0.093 0.156-0.187 0.24-0.277 0.236-0.254 0.633-0.269 0.887-0.033s0.269 0.633 0.033 0.887c-0.064 0.069-0.126 0.14-0.183 0.211-0.124 0.154-0.306 0.234-0.489 0.234z"></path>
<path d="M21.013 24.333c-0.199 0-0.395-0.095-0.517-0.271-0.45-0.651-0.97-2.060-0.714-3.152 0.079-0.338 0.417-0.547 0.754-0.469s0.547 0.417 0.469 0.754c-0.149 0.636 0.211 1.7 0.524 2.152 0.197 0.285 0.126 0.676-0.159 0.874-0.109 0.075-0.233 0.111-0.357 0.111z"></path>
<path d="M27.056 22.584c-0.208 0-0.377-0.169-0.377-0.377v-0.76c0-0.208 0.169-0.377 0.377-0.377s0.377 0.169 0.377 0.377v0.76c0 0.208-0.169 0.377-0.377 0.377z"></path>
<path d="M28.723 21.425c-0.208 0-0.377-0.169-0.377-0.377v-0.76c0-0.208 0.169-0.377 0.377-0.377s0.377 0.169 0.377 0.377v0.76c0 0.208-0.169 0.377-0.377 0.377z"></path>
<path d="M10.283 25.245c-0.208 0-0.377-0.169-0.377-0.377v-0.76c0-0.208 0.169-0.377 0.377-0.377s0.377 0.169 0.377 0.377v0.76c0 0.208-0.169 0.377-0.377 0.377z"></path>
</svg>
