<!-- Generated by IcoMoon.io -->
<svg version="1.1" xmlns="http://www.w3.org/2000/svg" width="32" height="32" viewBox="0 0 32 32">
<title>chili</title>
<path d="M2.738 7.261l0.548 1.542c0.023 0.066 0.070 0.118 0.129 0.145l1.37 0.617c0.194 0.087 0.194 0.396 0 0.483l-1.37 0.617c-0.059 0.026-0.105 0.079-0.129 0.145l-0.548 1.542c-0.077 0.218-0.351 0.218-0.429 0l-0.548-1.542c-0.024-0.066-0.070-0.118-0.129-0.145l-1.37-0.617c-0.194-0.087-0.194-0.396 0-0.483l1.37-0.617c0.059-0.026 0.105-0.079 0.129-0.145l0.548-1.542c0.077-0.218 0.351-0.218 0.429 0z"></path>
<path d="M13.3 0.121l0.407 1.144c0.017 0.049 0.052 0.088 0.095 0.107l1.016 0.458c0.144 0.065 0.144 0.293 0 0.358l-1.016 0.458c-0.043 0.020-0.078 0.058-0.095 0.107l-0.407 1.144c-0.057 0.162-0.261 0.162-0.318 0l-0.407-1.144c-0.017-0.049-0.052-0.088-0.095-0.107l-1.016-0.458c-0.144-0.065-0.144-0.293 0-0.358l1.016-0.458c0.043-0.020 0.078-0.058 0.095-0.107l0.407-1.144c0.057-0.162 0.261-0.162 0.318 0z"></path>
<path d="M11.747 8.429c0 0.285-0.231 0.516-0.516 0.516s-0.516-0.231-0.516-0.516c0-0.285 0.231-0.516 0.516-0.516s0.516 0.231 0.516 0.516z"></path>
<path d="M31.246 9.099c-0.452-0.871-1.107-1.592-1.906-2.117l0.445-1.84c0.119-0.493 0.039-1.003-0.225-1.436s-0.682-0.737-1.174-0.856l-0.090-0.022c-1.018-0.246-2.046 0.382-2.292 1.4l-0.45 1.864c-0.165 0.020-0.328 0.048-0.491 0.083-0.159-0.175-0.331-0.338-0.515-0.489 0.015-0.044 0.028-0.088 0.039-0.134l0.376-1.556c0.213-0.883-0.332-1.776-1.215-1.989s-1.776 0.332-1.989 1.215l-0.338 1.4c-1.972 0.054-3.788 1.338-4.417 3.322-0.119 0.376-0.015 0.641 0.094 0.797 0.031 0.044 0.065 0.084 0.1 0.119-0.17 0.472-0.318 0.974-0.471 1.494-0.585 1.995-1.248 4.256-3.478 6.486-2.307 2.307-5.765 2.476-8.289 2.599-1.823 0.089-3.028 0.148-3.402 1.017-0.319 0.741 0.245 1.55 0.839 2.243 0.406 0.474 0.85 0.906 1.326 1.297-0.567 0.16-0.958 0.42-1.151 0.867-0.365 0.847 0.293 1.787 0.985 2.595 2.372 2.77 5.828 4.378 9.731 4.529 0.201 0.008 0.403 0.012 0.604 0.012 4.366 0 8.761-1.811 11.863-4.913 2.053-2.053 3.859-5.319 4.83-8.735 0.45-1.584 0.695-3.093 0.736-4.456 0.117-0.111 0.225-0.268 0.296-0.493 0.456-1.437 0.325-2.966-0.369-4.304zM30.341 12.505c-0.034-0.021-0.067-0.041-0.098-0.060-0.509-0.315-1.205-0.747-2.043-0.825-0.662-0.061-1.208 0.402-1.689 0.811-0.194 0.165-0.507 0.43-0.67 0.492-0.109-0.148-0.235-0.584-0.305-0.829-0.183-0.639-0.373-1.3-0.938-1.628-0.735-0.425-1.541-0.463-2.13-0.49-0.015-0.001-0.031-0.001-0.047-0.002 0.385-0.856 1.042-1.553 1.888-1.992 0.992-0.514 2.125-0.612 3.191-0.274s1.935 1.070 2.45 2.062c0.442 0.851 0.576 1.807 0.392 2.734zM27.849 4.236c0.034 0 0.068 0.004 0.103 0.012l0.090 0.022c0.114 0.027 0.21 0.098 0.271 0.198s0.080 0.218 0.052 0.332l-0.371 1.536c-0.018-0.006-0.035-0.013-0.053-0.018-0.294-0.093-0.592-0.16-0.891-0.205l0.372-1.541c0.048-0.201 0.229-0.336 0.427-0.336zM23.36 3.211c0.031 0 0.062 0.004 0.094 0.011 0.214 0.052 0.346 0.268 0.294 0.482l-0.316 1.307c-0.145-0.063-0.294-0.119-0.447-0.168-0.104-0.033-0.208-0.061-0.313-0.086l0.3-1.241c0.044-0.183 0.208-0.306 0.388-0.306zM22.607 6.034c0.423 0.134 0.803 0.342 1.13 0.604-0.033 0.016-0.067 0.032-0.1 0.049-1.245 0.646-2.186 1.706-2.678 3.008-0.153-0.533-0.315-1.080-0.788-1.353-0.621-0.359-1.302-0.391-1.799-0.414-0.008-0-0.017-0.001-0.026-0.001 0.726-1.594 2.55-2.434 4.261-1.892zM3.344 21.888c-0.472-0.551-0.59-0.826-0.619-0.93 0.309-0.174 1.45-0.23 2.295-0.271 2.574-0.126 6.464-0.315 9.112-2.963 2.455-2.455 3.197-4.985 3.793-7.018 0.171-0.583 0.325-1.089 0.488-1.527 0.377 0.019 0.789 0.051 1.115 0.233 0.078 0.095 0.177 0.441 0.237 0.65 0.17 0.595 0.382 1.335 1.073 1.554 0.038 0.012 0.075 0.021 0.112 0.029-0.128 0.395-0.248 0.804-0.371 1.222-0.697 2.376-1.487 5.068-4.145 7.726-2.756 2.756-6.875 2.957-9.882 3.104-0.367 0.018-0.712 0.035-1.035 0.056-0.813-0.507-1.545-1.131-2.173-1.864zM24.798 26.131c-2.983 2.983-7.267 4.668-11.459 4.506-3.522-0.136-6.632-1.577-8.756-4.057-0.637-0.744-0.742-1.075-0.759-1.174 0.063-0.041 0.257-0.135 0.772-0.209 0.533-0.076 1.223-0.11 2.022-0.149 3.045-0.149 7.647-0.373 10.772-3.498 2.902-2.902 3.78-5.896 4.486-8.302 0.201-0.684 0.384-1.284 0.58-1.808 0.466 0.022 0.984 0.054 1.392 0.282 0.094 0.112 0.213 0.526 0.285 0.776 0.202 0.703 0.452 1.579 1.266 1.837 0.14 0.044 0.277 0.064 0.41 0.064 0.642 0 1.191-0.466 1.648-0.854 0.189-0.16 0.5-0.424 0.636-0.467 0.486 0.054 0.961 0.348 1.381 0.609 0.166 0.103 0.329 0.204 0.492 0.287-0.163 3.983-2.219 9.21-5.168 12.158z"></path>
<path d="M22.355 26.579c-0.122 0-0.241-0.059-0.313-0.168-0.114-0.173-0.067-0.405 0.106-0.519 1.138-0.753 1.875-1.408 2.546-2.262 0.128-0.163 0.363-0.191 0.526-0.063s0.191 0.363 0.063 0.526c-0.714 0.909-1.527 1.634-2.721 2.424-0.064 0.042-0.135 0.062-0.206 0.062z"></path>
<path d="M14.268 29.482c-1.128 0-2.307-0.139-3.544-0.415-0.202-0.045-0.329-0.245-0.284-0.447s0.245-0.329 0.447-0.284c3.674 0.82 6.8 0.366 9.557-1.39 0.175-0.111 0.406-0.060 0.517 0.115s0.060 0.406-0.115 0.517c-1.998 1.272-4.171 1.904-6.578 1.904z"></path>
<path d="M22.373 18.040c-0.068 0-0.137-0.011-0.205-0.033-0.341-0.113-0.526-0.482-0.412-0.823 0.046-0.138 0.093-0.267 0.139-0.392 0.088-0.24 0.163-0.447 0.212-0.664 0.078-0.351 0.426-0.572 0.776-0.494s0.572 0.425 0.494 0.776c-0.067 0.301-0.165 0.569-0.26 0.829-0.042 0.116-0.086 0.235-0.126 0.355-0.091 0.273-0.345 0.446-0.617 0.446z"></path>
<path d="M17.996 23.914c-0.209 0-0.414-0.1-0.54-0.286-0.201-0.298-0.123-0.702 0.175-0.903 1.116-0.754 1.954-1.529 2.562-2.369 0.196-0.271 0.382-0.552 0.554-0.835 0.186-0.307 0.586-0.405 0.893-0.219s0.405 0.586 0.219 0.893c-0.19 0.314-0.396 0.625-0.613 0.924-0.699 0.966-1.644 1.844-2.887 2.684-0.112 0.075-0.238 0.112-0.364 0.112z"></path>
</svg>
