<!-- Generated by IcoMoon.io -->
<svg version="1.1" xmlns="http://www.w3.org/2000/svg" width="32" height="32" viewBox="0 0 32 32">
<title>coconut</title>
<path d="M6.242 0.412l0.524 1.474c0.022 0.063 0.067 0.113 0.123 0.138l1.309 0.59c0.185 0.083 0.185 0.378 0 0.461l-1.309 0.59c-0.056 0.025-0.1 0.075-0.123 0.138l-0.524 1.474c-0.074 0.208-0.336 0.208-0.41 0l-0.524-1.474c-0.022-0.063-0.067-0.113-0.123-0.138l-1.309-0.59c-0.185-0.083-0.185-0.378 0-0.461l1.309-0.59c0.056-0.025 0.1-0.075 0.123-0.138l0.524-1.474c0.074-0.208 0.336-0.208 0.41 0z"></path>
<path d="M28.050 4.116l0.389 1.093c0.017 0.047 0.050 0.084 0.091 0.103l0.971 0.438c0.137 0.062 0.137 0.28 0 0.342l-0.971 0.438c-0.042 0.019-0.075 0.056-0.091 0.103l-0.389 1.093c-0.055 0.154-0.249 0.154-0.304 0l-0.389-1.093c-0.017-0.047-0.050-0.084-0.091-0.103l-0.971-0.438c-0.137-0.062-0.137-0.28 0-0.342l0.971-0.438c0.042-0.019 0.075-0.056 0.091-0.103l0.389-1.093c0.055-0.154 0.249-0.154 0.304 0z"></path>
<path d="M12.623 4.483c0.483 0.048 0.836 0.479 0.787 0.962s-0.479 0.836-0.961 0.787c-0.483-0.048-0.836-0.479-0.787-0.962s0.479-0.836 0.961-0.787z"></path>
<path d="M15.486 16.915c-3.070 0-5.96-0.279-8.137-0.785-2.404-0.559-3.623-1.31-3.623-2.234s1.219-1.675 3.623-2.234c2.178-0.506 5.068-0.785 8.137-0.785s5.959 0.279 8.137 0.785c2.404 0.559 3.623 1.31 3.623 2.234s-1.219 1.675-3.623 2.234c-2.178 0.506-5.068 0.785-8.137 0.785zM15.486 11.62c-3.015 0-5.845 0.272-7.969 0.766-2.407 0.559-3.049 1.213-3.049 1.51s0.642 0.951 3.049 1.51c2.124 0.494 4.955 0.766 7.969 0.766s5.845-0.272 7.969-0.766c2.407-0.559 3.049-1.213 3.049-1.51s-0.642-0.951-3.049-1.51c-2.124-0.494-4.955-0.766-7.969-0.766z"></path>
<path d="M19.153 27.98c-0.521 0-0.996-0.231-1.244-0.659-0.398-0.69-0.057-1.635 0.761-2.107s1.807-0.295 2.206 0.395v0c0.398 0.69 0.057 1.635-0.761 2.107-0.31 0.179-0.644 0.265-0.962 0.265zM19.637 25.691c-0.192 0-0.402 0.054-0.595 0.166-0.456 0.263-0.68 0.764-0.489 1.093s0.736 0.386 1.191 0.123c0.456-0.263 0.68-0.764 0.489-1.093v0c-0.11-0.19-0.337-0.289-0.596-0.289z"></path>
<path d="M23.093 24.992c-0.366 0-0.695-0.13-0.94-0.375-0.284-0.284-0.414-0.681-0.365-1.118 0.045-0.406 0.242-0.802 0.555-1.115 0.668-0.668 1.669-0.753 2.233-0.19h0c0.563 0.563 0.478 1.565-0.19 2.233-0.313 0.313-0.709 0.51-1.114 0.555-0.060 0.007-0.119 0.010-0.178 0.010zM23.633 22.563c-0.252 0-0.54 0.121-0.765 0.346-0.191 0.191-0.316 0.436-0.342 0.672-0.023 0.208 0.031 0.39 0.152 0.511s0.303 0.175 0.511 0.152c0.236-0.026 0.48-0.151 0.671-0.342 0.372-0.372 0.459-0.913 0.19-1.183-0.106-0.106-0.254-0.157-0.417-0.157z"></path>
<path d="M7.294 22.633c-0.205 0-0.371-0.166-0.371-0.371v-0.937c0-0.205 0.166-0.371 0.371-0.371s0.371 0.166 0.371 0.371v0.937c0 0.205-0.166 0.371-0.371 0.371z"></path>
<path d="M12.176 23.602c-0.205 0-0.371-0.166-0.371-0.371v-0.937c0-0.205 0.166-0.371 0.371-0.371s0.371 0.166 0.371 0.371v0.937c0 0.205-0.166 0.371-0.371 0.371z"></path>
<path d="M9.774 25.655c-0.205 0-0.371-0.166-0.371-0.371v-0.937c0-0.205 0.166-0.371 0.371-0.371s0.371 0.166 0.371 0.371v0.937c0 0.205-0.166 0.371-0.371 0.371z"></path>
<path d="M31.653 20.924l-1.429-0.699c0.491-1.637 0.747-3.364 0.748-5.133 0-1.675-1.042-3.162-3.015-4.301-2.745-1.585-7.406-2.532-12.468-2.532-0.001 0-0.001 0-0.002 0-5.061 0-9.722 0.946-12.469 2.531-1.974 1.139-3.018 2.627-3.019 4.303-0.001 4.439 1.604 8.615 4.519 11.758 2.927 3.156 6.821 4.894 10.967 4.894s8.039-1.738 10.966-4.894c0.678-0.732 1.285-1.52 1.818-2.354l0.782 0.617c0.113 0.090 0.249 0.133 0.383 0.133 0.183 0 0.364-0.081 0.486-0.235 0.212-0.268 0.166-0.657-0.103-0.869l-0.916-0.723c0.35-0.649 0.658-1.321 0.921-2.013l1.287 0.629c0.087 0.043 0.18 0.063 0.271 0.063 0.229 0 0.449-0.128 0.556-0.347 0.15-0.307 0.023-0.678-0.284-0.828zM29.231 13.896c0 1.078-1.415 2.172-3.882 3-2.629 0.883-6.132 1.369-9.864 1.369s-7.235-0.486-9.864-1.369c-2.467-0.828-3.882-1.922-3.882-3 0-0.194 0.046-0.388 0.136-0.581 0.4-0.522 0.988-1.008 1.761-1.454 1.442-0.832 3.473-1.476 5.837-1.881 1.852-0.296 3.895-0.453 6.011-0.453 2.129 0 4.183 0.159 6.044 0.458 2.352 0.405 4.373 1.047 5.809 1.876 0.771 0.445 1.357 0.93 1.756 1.45 0.090 0.194 0.137 0.389 0.137 0.584zM27.907 22.634l-0.754-0.595c-0.268-0.212-0.657-0.166-0.869 0.103s-0.166 0.657 0.103 0.869l0.9 0.71c-2.565 4.092-6.897 6.786-11.8 6.786-3.797 0-7.37-1.597-10.060-4.498-2.702-2.914-4.19-6.791-4.189-10.917 0-0.073 0.003-0.146 0.009-0.219 0.543 1.051 1.965 1.997 4.139 2.727 2.703 0.908 6.29 1.408 10.1 1.408s7.397-0.5 10.1-1.408c2.174-0.73 3.596-1.676 4.139-2.727 0.006 0.072 0.009 0.145 0.009 0.218-0 1.594-0.225 3.132-0.642 4.579l-0.488-0.239c-0.307-0.15-0.677-0.023-0.828 0.284s-0.023 0.677 0.284 0.828l0.639 0.312c-0.23 0.613-0.495 1.207-0.792 1.778z"></path>
<path d="M5.044 22.378c-0.158 0-0.317-0.060-0.438-0.181-0.346-0.346-0.668-0.738-0.982-1.198-0.193-0.282-0.121-0.667 0.161-0.86s0.667-0.121 0.86 0.161c0.271 0.396 0.544 0.73 0.836 1.022 0.242 0.242 0.242 0.633-0 0.875-0.121 0.121-0.279 0.181-0.437 0.181z"></path>
<path d="M3.131 19.476c-0.235 0-0.459-0.134-0.563-0.361s-0.179-0.405-0.245-0.577c-0.122-0.319 0.038-0.677 0.357-0.799s0.677 0.038 0.799 0.357c0.056 0.147 0.122 0.302 0.215 0.504 0.142 0.311 0.006 0.678-0.305 0.82-0.083 0.038-0.171 0.056-0.257 0.056z"></path>
</svg>
