<!-- Generated by IcoMoon.io -->
<svg version="1.1" xmlns="http://www.w3.org/2000/svg" width="32" height="32" viewBox="0 0 32 32">
<title>corn</title>
<path d="M7.499 2.071l0.514 1.446c0.022 0.062 0.066 0.111 0.121 0.136l1.284 0.579c0.181 0.082 0.181 0.371 0 0.453l-1.284 0.579c-0.055 0.025-0.099 0.074-0.121 0.136l-0.514 1.446c-0.073 0.204-0.33 0.204-0.402 0l-0.514-1.446c-0.022-0.062-0.066-0.111-0.121-0.136l-1.284-0.579c-0.181-0.082-0.181-0.371 0-0.453l1.284-0.579c0.055-0.025 0.099-0.074 0.121-0.136l0.514-1.446c0.073-0.204 0.33-0.204 0.402 0z"></path>
<path d="M28.417 7.801l0.381 1.072c0.016 0.046 0.049 0.082 0.089 0.101l0.953 0.429c0.135 0.061 0.135 0.275 0 0.336l-0.953 0.429c-0.041 0.018-0.073 0.055-0.089 0.101l-0.381 1.072c-0.054 0.152-0.244 0.152-0.298 0l-0.381-1.072c-0.016-0.046-0.049-0.082-0.089-0.101l-0.953-0.429c-0.135-0.061-0.135-0.275 0-0.336l0.953-0.429c0.041-0.018 0.073-0.055 0.089-0.101l0.381-1.072c0.054-0.152 0.244-0.152 0.298 0z"></path>
<path d="M3.584 2.627c0 0.421-0.342 0.763-0.763 0.763s-0.763-0.342-0.763-0.763c0-0.421 0.342-0.763 0.763-0.763s0.763 0.342 0.763 0.763z"></path>
<path d="M4.99 18.050c0.032 0.326-0.205 0.616-0.531 0.648s-0.616-0.205-0.648-0.531c-0.032-0.326 0.205-0.616 0.531-0.648s0.616 0.205 0.648 0.531z"></path>
<path d="M20.298 8.429c-0.116 0-0.234-0.015-0.351-0.045l-0.187-0.049c-0.361-0.094-0.663-0.323-0.852-0.644s-0.241-0.697-0.147-1.058l0.157-0.605c0.094-0.361 0.323-0.663 0.644-0.852s0.697-0.241 1.058-0.147l0.187 0.049c0.745 0.194 1.193 0.958 0.999 1.702l-0.157 0.605c-0.163 0.627-0.731 1.044-1.351 1.044zM19.949 7.608l0.187 0.049c0.344 0.090 0.697-0.117 0.786-0.462l0.157-0.605c0.090-0.344-0.118-0.697-0.462-0.786l-0.187-0.049c-0.167-0.043-0.34-0.019-0.489 0.068s-0.254 0.227-0.298 0.394l-0.157 0.605c-0.043 0.167-0.019 0.34 0.068 0.489s0.227 0.254 0.394 0.298z"></path>
<path d="M16.451 12.164c-0.118 0-0.237-0.015-0.354-0.046l-0.187-0.049c-0.361-0.094-0.663-0.323-0.852-0.644s-0.241-0.697-0.147-1.058l0.157-0.605c0.094-0.361 0.323-0.663 0.644-0.852s0.697-0.241 1.058-0.147l0.187 0.049c0.361 0.094 0.663 0.323 0.852 0.644s0.241 0.697 0.147 1.058l-0.157 0.605c-0.094 0.361-0.323 0.663-0.644 0.852-0.217 0.127-0.459 0.193-0.704 0.193zM16.418 9.47c-0.113 0-0.225 0.030-0.325 0.089-0.148 0.087-0.254 0.227-0.297 0.394l-0.157 0.605c-0.043 0.167-0.019 0.34 0.068 0.489s0.227 0.254 0.394 0.298h0l0.187 0.049c0.166 0.043 0.34 0.019 0.489-0.068s0.254-0.227 0.297-0.394l0.157-0.605c0.043-0.167 0.019-0.34-0.068-0.489s-0.227-0.254-0.394-0.298l-0.187-0.049c-0.054-0.014-0.109-0.021-0.163-0.021z"></path>
<path d="M18.655 16.323c-0.116 0-0.234-0.015-0.351-0.045l-0.187-0.049c-0.745-0.194-1.193-0.957-0.999-1.702l0.157-0.605c0.194-0.745 0.958-1.193 1.702-0.999l0.187 0.049c0.745 0.194 1.193 0.957 0.999 1.702l-0.157 0.605c-0.163 0.627-0.731 1.044-1.351 1.044zM18.306 15.502l0.187 0.049c0.344 0.090 0.697-0.117 0.786-0.462l0.157-0.605c0.090-0.344-0.118-0.697-0.462-0.786l-0.187-0.049c-0.344-0.090-0.697 0.117-0.786 0.462l-0.157 0.605c-0.089 0.344 0.118 0.697 0.462 0.786z"></path>
<path d="M15.207 15.696c-0.031 0-0.063-0.004-0.095-0.012-0.201-0.052-0.321-0.257-0.269-0.458l0.177-0.68c0.052-0.201 0.257-0.321 0.458-0.269s0.321 0.257 0.269 0.458l-0.177 0.68c-0.044 0.169-0.196 0.281-0.363 0.281z"></path>
<path d="M19.506 11.616c-0.031 0-0.063-0.004-0.095-0.012-0.201-0.052-0.321-0.257-0.269-0.458l0.177-0.68c0.052-0.201 0.257-0.321 0.458-0.269s0.321 0.257 0.269 0.458l-0.177 0.68c-0.044 0.169-0.196 0.281-0.363 0.281z"></path>
<path d="M21.515 13.66c-0.031 0-0.063-0.004-0.095-0.012-0.201-0.052-0.321-0.257-0.269-0.458l0.177-0.68c0.052-0.201 0.257-0.321 0.458-0.269s0.321 0.257 0.269 0.458l-0.177 0.68c-0.044 0.169-0.196 0.281-0.363 0.281z"></path>
<path d="M28.921 16.721c-0.026-0.246-0.158-0.7-0.755-0.974-1.34-0.615-2.715-0.681-4.057-0.402 0.311-2.594 0.371-5.235 0.15-7.583-0.19-2.019-0.572-3.691-1.135-4.97-0.661-1.502-1.555-2.409-2.656-2.696s-2.323 0.070-3.633 1.059c-1.114 0.842-2.263 2.116-3.413 3.786-1.344 1.951-2.584 4.299-3.579 6.727-1.095-0.926-2.325-1.499-3.681-1.714-0.654-0.103-1.004 0.205-1.155 0.398-0.749 0.96 0.090 3.139 1.456 6.356 0.313 0.737 0.7 1.648 0.753 1.919-0.462 3.054-0.134 5.565 0.975 7.463 0.575 0.985 1.344 1.786 2.297 2.398l-0.238 0.916c-0.12 0.46-0.053 0.939 0.187 1.348s0.626 0.701 1.086 0.821l1.414 0.368c0.15 0.039 0.3 0.057 0.448 0.057 0.79 0 1.513-0.531 1.722-1.331l0.215-0.825c1.231-0.035 2.365-0.388 3.39-1.058 1.734-1.134 3.166-3.201 4.256-6.146 0.183-0.202 0.933-0.758 1.54-1.208 2.667-1.978 4.544-3.473 4.415-4.711zM14.454 5.652c1.929-2.801 3.858-4.397 5.273-4.397 0.148 0 0.291 0.018 0.427 0.053 1.438 0.374 2.507 2.831 2.86 6.572 0.228 2.424 0.146 5.173-0.212 7.845-3.222 1.188-6.11 4.054-7.653 5.587-0.107 0.106-0.218 0.216-0.323 0.32-0.033-0.125-0.067-0.255-0.099-0.38-0.391-1.509-1.046-4.034-2.319-6.337-0.486-0.879-1.018-1.644-1.596-2.295 0.99-2.512 2.26-4.958 3.643-6.967zM9.382 23.166l1.429 3.334c-0.108 0.169-0.206 0.323-0.29 0.459-1.933-1.644-2.642-4.421-2.059-8.197 0.056-0.364-0.11-0.806-0.847-2.541-0.432-1.017-0.921-2.169-1.258-3.191-0.387-1.171-0.395-1.659-0.373-1.835 5.052 0.813 6.788 7.51 7.53 10.371 0.102 0.395 0.183 0.706 0.256 0.94 0.004 0.013 0.008 0.026 0.012 0.040-0.363 0.373-0.735 0.813-1.096 1.276l-1.373-3.514c-0.075-0.193-0.293-0.289-0.486-0.213s-0.289 0.293-0.213 0.486l1.541 3.945c-0.305 0.418-0.593 0.835-0.85 1.22l-1.232-2.875c-0.082-0.191-0.302-0.279-0.493-0.197s-0.279 0.303-0.197 0.493zM13.894 30.354c-0.073 0.281-0.362 0.45-0.642 0.377l-1.414-0.368c-0.136-0.035-0.25-0.122-0.322-0.243s-0.091-0.263-0.056-0.399l0.164-0.63c0.429 0.186 0.884 0.343 1.368 0.47 0.357 0.093 0.708 0.163 1.053 0.211zM26.444 18.317c-0.802 0.714-1.845 1.488-2.684 2.11-1.465 1.086-1.82 1.375-1.947 1.72-1.896 5.17-4.679 7.199-8.505 6.203-0.645-0.168-1.229-0.396-1.752-0.682 0.626-1.005 2.093-3.268 3.312-4.437 0.166-0.080 0.309-0.21 0.435-0.325 0.188-0.171 0.426-0.407 0.727-0.706 2.194-2.179 7.333-7.281 11.614-5.315 0.008 0.004 0.015 0.007 0.021 0.010-0.041 0.134-0.24 0.548-1.221 1.422z"></path>
<path d="M17.99 4.189c-0.189 0-0.375-0.085-0.498-0.246-0.187-0.245-0.165-0.584 0.036-0.803 0.070-0.154 0.186-0.274 0.351-0.364 0.303-0.166 0.684-0.055 0.85 0.249 0.136 0.249 0.086 0.549-0.104 0.74-0.048 0.093-0.125 0.196-0.256 0.296-0.113 0.087-0.247 0.128-0.379 0.128z"></path>
<path d="M12.871 11.563c-0.093 0-0.188-0.021-0.278-0.065-0.31-0.154-0.436-0.529-0.283-0.839 0.972-1.96 2.941-5.26 3.938-6.182 0.254-0.235 0.65-0.219 0.884 0.035s0.219 0.65-0.035 0.885c-0.798 0.737-2.658 3.786-3.666 5.818-0.109 0.22-0.331 0.348-0.561 0.348z"></path>
</svg>
