<!-- Generated by IcoMoon.io -->
<svg version="1.1" xmlns="http://www.w3.org/2000/svg" width="32" height="32" viewBox="0 0 32 32">
<title>cucumber</title>
<path d="M2.098 22.396c0 0.268-0.218 0.486-0.486 0.486s-0.486-0.218-0.486-0.486c0-0.268 0.218-0.486 0.486-0.486s0.486 0.218 0.486 0.486z"></path>
<path d="M25.818 0.301l0.383 1.076c0.016 0.046 0.049 0.083 0.090 0.101l0.956 0.431c0.135 0.061 0.135 0.276 0 0.337l-0.956 0.431c-0.041 0.018-0.073 0.055-0.090 0.101l-0.383 1.076c-0.054 0.152-0.245 0.152-0.299 0l-0.383-1.076c-0.016-0.046-0.049-0.083-0.090-0.101l-0.956-0.431c-0.135-0.061-0.135-0.276 0-0.337l0.956-0.431c0.041-0.018 0.073-0.055 0.090-0.101l0.383-1.076c0.054-0.152 0.245-0.152 0.299-0z"></path>
<path d="M3.357 25.692l0.383 1.076c0.016 0.046 0.049 0.083 0.090 0.101l0.956 0.431c0.135 0.061 0.135 0.276 0 0.337l-0.956 0.431c-0.041 0.018-0.073 0.055-0.090 0.101l-0.383 1.076c-0.054 0.152-0.245 0.152-0.299 0l-0.383-1.076c-0.016-0.046-0.049-0.083-0.090-0.101l-0.956-0.431c-0.135-0.061-0.135-0.276 0-0.337l0.956-0.431c0.041-0.018 0.073-0.055 0.090-0.101l0.383-1.076c0.054-0.152 0.245-0.152 0.299 0z"></path>
<path d="M30.812 6.094c0.189 0.455-0.027 0.977-0.482 1.165s-0.977-0.027-1.165-0.482c-0.189-0.455 0.027-0.977 0.482-1.165s0.977 0.027 1.165 0.482z"></path>
<path d="M14.165 17.591c-0.979 0-1.775-0.796-1.775-1.775s0.796-1.775 1.775-1.775 1.775 0.796 1.775 1.775-0.796 1.775-1.775 1.775zM14.165 14.795c-0.563 0-1.022 0.458-1.022 1.021s0.458 1.022 1.022 1.022 1.022-0.458 1.022-1.021-0.458-1.021-1.022-1.021z"></path>
<path d="M17.069 23.185c-0.979 0-1.775-0.796-1.775-1.775s0.796-1.775 1.775-1.775 1.775 0.796 1.775 1.775-0.796 1.775-1.775 1.775zM17.069 20.388c-0.563 0-1.021 0.458-1.021 1.022s0.458 1.021 1.021 1.021c0.563 0 1.022-0.458 1.022-1.021s-0.458-1.022-1.022-1.022z"></path>
<path d="M24.457 16.76c0-1.033-0.695-1.914-1.643-2.194v-1.722c0.947-0.28 1.643-1.16 1.643-2.194s-0.695-1.914-1.643-2.194v-0.695c0-4.279-3.482-7.761-7.761-7.761-3.789 0-6.99 2.715-7.641 6.394-1.002 0.242-1.749 1.147-1.749 2.223 0 1.024 0.689 1.903 1.629 2.189v5.466c-0.939 0.286-1.629 1.164-1.629 2.189s0.689 1.903 1.629 2.189v3.589c0 4.279 3.482 7.761 7.761 7.761 1.69 0 3.297-0.534 4.646-1.544 1.172-0.877 2.084-2.089 2.606-3.449 1.198-0.070 2.152-1.067 2.152-2.283 0-1.033-0.695-1.914-1.643-2.194v-3.577c0.947-0.28 1.643-1.16 1.643-2.194zM22.18 23.694c0.563 0.005 1.021 0.468 1.021 1.030 0 0.568-0.462 1.031-1.031 1.031-0.062 0-0.126-0.006-0.189-0.018-0.313-0.057-0.62 0.128-0.714 0.431-0.849 2.736-3.346 4.575-6.214 4.575-0.091 0-0.18-0.002-0.27-0.006-1.411-1.192-1.604-3.333-1.596-5.3 0.001-0.208-0.167-0.378-0.375-0.378-0.001 0-0.001 0-0.001 0-0.207 0-0.376 0.168-0.377 0.375-0.007 1.806 0.151 3.752 1.178 5.148-2.895-0.658-5.063-3.252-5.063-6.344v-4.12c0-0.342-0.274-0.622-0.617-0.628-0.558-0.010-1.012-0.472-1.012-1.030s0.454-1.020 1.012-1.030c0.342-0.006 0.617-0.285 0.617-0.628v-6.528c0-0.342-0.274-0.622-0.617-0.628-0.558-0.010-1.012-0.472-1.012-1.030 0-0.567 0.46-1.028 1.026-1.031l0.012 0c0.32 0.002 0.596-0.237 0.632-0.558 0.368-3.291 3.147-5.772 6.464-5.772 3.587 0 6.505 2.918 6.505 6.505v1.23c0 0.345 0.277 0.625 0.622 0.628 0.563 0.005 1.021 0.468 1.021 1.030s-0.458 1.025-1.021 1.030c-0.345 0.003-0.622 0.284-0.622 0.628v2.793c0 0.345 0.277 0.625 0.622 0.628 0.563 0.005 1.021 0.468 1.021 1.030s-0.458 1.025-1.021 1.030c-0.345 0.003-0.622 0.284-0.622 0.628v4.648c-0 0.345 0.277 0.625 0.622 0.628z"></path>
<path d="M12.81 24.333c-0 0-0 0-0.001 0-0.208-0-0.377-0.169-0.376-0.377 0.001-0.334-0-0.729-0.011-1.118-0.006-0.208 0.159-0.381 0.367-0.387 0.207-0.005 0.381 0.159 0.387 0.366 0.011 0.399 0.012 0.8 0.011 1.14-0 0.208-0.169 0.376-0.377 0.376z"></path>
<path d="M18.163 18.427c-0.006 0-0.011-0-0.017-0-0.208-0.009-0.369-0.185-0.36-0.393 0.016-0.359 0.044-0.72 0.072-1.070 0.012-0.158 0.025-0.316 0.036-0.474 0.015-0.208 0.194-0.364 0.403-0.349 0.208 0.015 0.364 0.195 0.349 0.403-0.012 0.16-0.024 0.319-0.037 0.479-0.027 0.343-0.055 0.697-0.070 1.043-0.009 0.202-0.176 0.36-0.376 0.36z"></path>
<path d="M18.386 13.856c-0.007 0-0.014-0-0.021-0.001-0.208-0.011-0.367-0.189-0.356-0.397 0.064-1.172-0.006-2.28-0.216-3.384-0.039-0.204 0.096-0.402 0.3-0.441s0.402 0.095 0.441 0.3c0.221 1.165 0.296 2.332 0.228 3.566-0.011 0.201-0.177 0.356-0.376 0.356z"></path>
<path d="M10.727 12.070c-0.351 0-0.642-0.279-0.653-0.633-0.014-0.418-0.018-0.826-0.011-1.213 0.006-0.361 0.306-0.649 0.665-0.643 0.361 0.006 0.649 0.304 0.643 0.665-0.006 0.366-0.002 0.752 0.011 1.149 0.012 0.361-0.271 0.664-0.632 0.675-0.007 0-0.015 0-0.022 0z"></path>
<path d="M10.93 8.437c-0.039 0-0.077-0.003-0.117-0.011-0.356-0.064-0.592-0.404-0.528-0.76 0.594-3.298 2.087-4.242 3.235-4.452 0.356-0.065 0.696 0.17 0.762 0.525s-0.17 0.696-0.525 0.762c-1.344 0.247-1.929 1.984-2.184 3.397-0.057 0.316-0.333 0.538-0.643 0.538z"></path>
</svg>
