<!-- Generated by IcoMoon.io -->
<svg version="1.1" xmlns="http://www.w3.org/2000/svg" width="32" height="32" viewBox="0 0 32 32">
<title>eggplant</title>
<path d="M21.863 3.815l0.512 1.441c0.022 0.062 0.065 0.111 0.12 0.135l1.28 0.577c0.181 0.082 0.181 0.37 0 0.451l-1.28 0.577c-0.055 0.025-0.098 0.074-0.12 0.135l-0.512 1.441c-0.072 0.204-0.328 0.204-0.401 0l-0.512-1.441c-0.022-0.062-0.065-0.111-0.12-0.135l-1.28-0.577c-0.181-0.082-0.181-0.37 0-0.451l1.28-0.577c0.055-0.025 0.098-0.074 0.12-0.135l0.512-1.441c0.072-0.204 0.328-0.204 0.401-0z"></path>
<path d="M27.745 12.64l0.38 1.069c0.016 0.046 0.049 0.082 0.089 0.1l0.95 0.428c0.134 0.060 0.134 0.274 0 0.335l-0.95 0.428c-0.041 0.018-0.073 0.055-0.089 0.1l-0.38 1.069c-0.054 0.151-0.244 0.151-0.297 0l-0.38-1.069c-0.016-0.046-0.049-0.082-0.089-0.1l-0.95-0.428c-0.134-0.060-0.134-0.274 0-0.335l0.95-0.428c0.041-0.018 0.073-0.055 0.089-0.1l0.38-1.069c0.054-0.151 0.244-0.151 0.297 0z"></path>
<path d="M24.238 12.881c0 0.475-0.385 0.859-0.859 0.859s-0.859-0.385-0.859-0.859c0-0.475 0.385-0.859 0.859-0.859s0.859 0.385 0.859 0.859z"></path>
<path d="M7.737 13.497c-0.308 0-0.576-0.228-0.618-0.542-0.021-0.161-0.040-0.322-0.055-0.477-0.034-0.343 0.217-0.648 0.559-0.682s0.648 0.217 0.682 0.559c0.014 0.141 0.031 0.287 0.051 0.435 0.045 0.342-0.195 0.655-0.536 0.701-0.028 0.004-0.056 0.005-0.083 0.005z"></path>
<path d="M9.598 20.982c-0.267 0-0.513-0.172-0.596-0.44-0.332-1.074-0.617-2.174-0.893-3.237-0.159-0.612-0.323-1.244-0.493-1.861-0.092-0.332 0.103-0.676 0.435-0.767s0.676 0.103 0.767 0.435c0.173 0.626 0.338 1.263 0.498 1.879 0.272 1.050 0.554 2.135 0.877 3.182 0.102 0.329-0.083 0.678-0.412 0.78-0.061 0.019-0.123 0.028-0.184 0.028z"></path>
<path d="M21.367 17.055c-0.902-0.986-1.835-2.006-2.652-3.102-0.81-1.087-1.744-2.55-2.648-3.966-0.348-0.545-0.686-1.074-1.012-1.577 0.022-0.016 0.044-0.033 0.065-0.051 0.179-0.154 0.377-0.444 0.304-0.948-0.208-1.442-1.144-2.852-2.568-3.868-1.404-1.002-3.071-1.475-4.575-1.298-0.309 0.036-0.61 0.092-0.903 0.165l-0.44-1.46c-0.103-0.341-0.332-0.622-0.646-0.791s-0.675-0.205-1.016-0.102l-0.295 0.089c-0.705 0.212-1.105 0.958-0.893 1.663l0.605 2.010c-0.85 0.775-1.438 1.775-1.747 2.98-0.383 1.495-0.255 4.156 0.479 5.22 0.296 0.429 0.641 0.55 0.878 0.577 0.042 0.005 0.082 0.007 0.122 0.008 0.361 1.828 0.893 3.731 1.379 5.467 0.209 0.747 0.407 1.453 0.58 2.113 0.77 2.938 1.758 5.374 2.937 7.239 1.68 2.659 3.749 4.165 6.147 4.476 0.527 0.068 1.051 0.102 1.565 0.102 1.736 0 3.375-0.384 4.727-1.122 1.915-1.045 3.191-2.723 3.689-4.853 0.84-3.588-1.551-6.203-4.083-8.97zM5.34 1.341l0.295-0.089c0.009-0.003 0.018-0.004 0.025-0.004 0.017 0 0.031 0.005 0.041 0.010 0.014 0.008 0.034 0.023 0.042 0.052l0.456 1.513c-0.149 0.069-0.295 0.143-0.437 0.223l-0.481-1.597c-0.014-0.046 0.012-0.095 0.058-0.109zM4.155 7.109c0.525-2.045 2.082-3.366 4.273-3.624 0.162-0.019 0.326-0.028 0.491-0.028 2.292 0 4.744 1.795 5.22 3.863-0.24-0.050-0.563-0.147-0.805-0.22-0.841-0.252-1.71-0.512-2.404-0.287-0.486 0.157-0.562 0.692-0.587 0.868-0.033 0.233-0.044 0.523-0.056 0.829-0.016 0.413-0.033 0.881-0.108 1.261-0.090 0.457-0.214 0.536-0.22 0.539-0.274 0.164-0.761-0.189-1.368-0.668-0.661-0.521-1.41-1.111-2.199-0.762-0.763 0.337-1.144 1.098-1.451 1.71-0.12 0.239-0.337 0.673-0.464 0.755-0.12-0.143-0.343-0.652-0.445-1.627-0.097-0.934-0.050-1.934 0.123-2.609zM24.235 25.741c-0.948 4.046-5.005 5.386-8.607 4.92-4.456-0.577-6.83-6.188-8.038-10.793-0.175-0.669-0.375-1.38-0.585-2.133-0.5-1.784-1.074-3.837-1.428-5.763 0.196-0.26 0.347-0.56 0.478-0.822 0.238-0.474 0.483-0.964 0.831-1.124 0.174 0 0.647 0.373 0.932 0.598 0.737 0.581 1.747 1.375 2.78 0.759 0.847-0.506 0.896-1.791 0.935-2.824 0.007-0.185 0.016-0.413 0.031-0.583 0.382 0.013 0.963 0.187 1.412 0.321 0.221 0.066 0.431 0.129 0.629 0.18 0.468 0.705 0.95 1.46 1.411 2.182 0.915 1.434 1.862 2.918 2.699 4.041 0.855 1.146 1.809 2.189 2.732 3.198 2.403 2.628 4.479 4.897 3.789 7.844z"></path>
<path d="M18.229 23.814c-0.207 0-0.374-0.168-0.374-0.374v-0.67c0-0.207 0.168-0.374 0.374-0.374s0.374 0.168 0.374 0.374v0.67c0 0.207-0.168 0.374-0.374 0.374z"></path>
<path d="M19.94 22.31c-0.207 0-0.374-0.168-0.374-0.374v-0.67c0-0.207 0.168-0.374 0.374-0.374s0.374 0.168 0.374 0.374v0.67c0 0.207-0.168 0.374-0.374 0.374z"></path>
<path d="M20.539 25.197c-0.207 0-0.374-0.168-0.374-0.374v-0.67c0-0.207 0.168-0.374 0.374-0.374s0.374 0.168 0.374 0.374v0.67c0 0.207-0.168 0.374-0.374 0.374z"></path>
</svg>
