<!-- Generated by IcoMoon.io -->
<svg version="1.1" xmlns="http://www.w3.org/2000/svg" width="32" height="32" viewBox="0 0 32 32">
<title>garlic</title>
<path d="M22.947 3.9l0.385 1.081c0.016 0.046 0.049 0.083 0.090 0.101l0.961 0.433c0.136 0.061 0.136 0.277 0 0.339l-0.961 0.433c-0.041 0.019-0.074 0.055-0.090 0.101l-0.385 1.081c-0.054 0.153-0.246 0.153-0.301 0l-0.385-1.081c-0.016-0.046-0.049-0.083-0.090-0.101l-0.961-0.433c-0.136-0.061-0.136-0.277 0-0.339l0.961-0.433c0.041-0.019 0.074-0.055 0.090-0.101l0.385-1.081c0.054-0.153 0.246-0.153 0.301 0z"></path>
<path d="M28.068 3.322c0 0.425-0.344 0.769-0.769 0.769s-0.769-0.344-0.769-0.769c0-0.425 0.344-0.769 0.769-0.769s0.769 0.344 0.769 0.769z"></path>
<path d="M29.971 10.479c0.076 0.321-0.123 0.643-0.444 0.719s-0.643-0.123-0.719-0.444c-0.076-0.321 0.123-0.643 0.444-0.719s0.643 0.123 0.719 0.444z"></path>
<path d="M3.634 0.648l0.518 1.458c0.022 0.062 0.066 0.112 0.122 0.137l1.295 0.583c0.183 0.082 0.183 0.374 0 0.456l-1.295 0.583c-0.055 0.025-0.099 0.074-0.122 0.137l-0.518 1.458c-0.073 0.206-0.332 0.206-0.405 0l-0.518-1.458c-0.022-0.062-0.066-0.112-0.122-0.137l-1.295-0.583c-0.183-0.082-0.183-0.374 0-0.456l1.295-0.583c0.055-0.025 0.099-0.074 0.122-0.137l0.518-1.458c0.073-0.206 0.332-0.206 0.405 0z"></path>
<path d="M24.439 28.2c-0.209 0-0.379-0.17-0.379-0.379v-0.764c0-0.209 0.17-0.379 0.379-0.379s0.379 0.17 0.379 0.379v0.764c-0 0.209-0.17 0.379-0.379 0.379z"></path>
<path d="M26.597 26.854c-0.209 0-0.379-0.17-0.379-0.379v-0.764c0-0.209 0.17-0.379 0.379-0.379s0.379 0.17 0.379 0.379v0.764c-0 0.209-0.17 0.379-0.379 0.379z"></path>
<path d="M27.956 21.219c0.015-0.051 0.031-0.102 0.045-0.153 0.495-1.844 0.198-3.931-0.858-6.034-0.965-1.922-2.904-3.736-5.32-4.977-0.973-0.5-2.187-0.975-3.266-1.161-0.63-0.535-1.020-1.329-1.020-2.19v-2.564c0-1.062-0.864-1.925-1.925-1.925h-2.192c-1.062 0-1.925 0.864-1.925 1.925v2.564c0 0.819-0.352 1.575-0.927 2.108-1.249-0.004-2.903 0.599-4.157 1.243-2.416 1.242-4.355 3.056-5.32 4.977-1.056 2.103-1.352 4.189-0.858 6.034 0.471 1.757 1.65 3.186 3.319 4.024 0.931 0.468 1.919 0.703 2.904 0.703 0.78-0 1.559-0.148 2.306-0.444 0.287-0.114 0.567-0.249 0.839-0.404 1.289 1.375 3.055 2.129 4.994 2.129 0.556 0 1.098-0.063 1.618-0.184 1.198 2.702 4.157 4.618 7.609 4.618 4.509 0 8.178-3.27 8.178-7.288 0-1.589-1.779-2.527-4.044-2.999zM21.247 11.177c2.183 1.122 3.922 2.733 4.769 4.421 0.981 1.955 1.187 3.854 0.685 5.411-0.946-0.123-1.932-0.179-2.878-0.179-0.737 0-1.498 0.034-2.245 0.107 0.156-0.751 0.235-1.553 0.235-2.398 0-2.331-0.991-5.033-2.719-7.414-0.237-0.326-0.502-0.663-0.785-0.993 0.738 0.122 1.761 0.44 2.939 1.045zM12.757 6.703v-2.564c0-0.366 0.298-0.663 0.663-0.663h2.192c0.366 0 0.663 0.298 0.663 0.663v2.564c0 0.668 0.163 1.307 0.454 1.876-0.734-0.587-1.482-0.985-2.135-0.985-0.741 0-1.605 0.512-2.43 1.232 0.377-0.627 0.592-1.356 0.592-2.122zM8.296 24.175c-1.351 0.537-2.835 0.461-4.178-0.213-2.914-1.463-3.677-4.824-1.9-8.363 0.847-1.688 2.586-3.299 4.769-4.421 1.575-0.809 2.871-1.105 3.583-1.105 0.134 0 0.247 0.011 0.337 0.030-0.293 0.34-0.567 0.687-0.811 1.023-1.728 2.381-2.719 5.083-2.719 7.414 0 2.107 0.493 3.949 1.435 5.397-0.169 0.089-0.341 0.169-0.517 0.239zM14.595 25.811c-3.562 0-5.955-2.923-5.955-7.272 0-2.070 0.903-4.503 2.479-6.673 1.49-2.053 2.956-3.010 3.477-3.010s1.986 0.957 3.477 3.010c1.575 2.17 2.479 4.602 2.479 6.673 0 0.929-0.11 1.793-0.316 2.577-2.518 0.432-4.589 1.388-4.589 3.103 0 0.504 0.058 0.996 0.168 1.471-0.388 0.080-0.794 0.121-1.217 0.121zM23.822 30.245c-3.813 0-6.915-2.703-6.915-6.026 0-0.536 0.701-1.071 1.922-1.468 1.288-0.418 3.108-0.659 4.993-0.659s3.705 0.24 4.993 0.659c1.222 0.397 1.922 0.932 1.922 1.468 0 3.323-3.102 6.026-6.916 6.026z"></path>
<path d="M10.744 18.516c-0.017 0-0.035-0.001-0.053-0.002-0.347-0.029-0.606-0.333-0.577-0.681 0.137-1.661 0.56-3.142 1.258-4.404 0.169-0.305 0.553-0.415 0.858-0.247s0.415 0.553 0.247 0.858c-0.611 1.104-0.983 2.415-1.105 3.897-0.027 0.33-0.303 0.579-0.628 0.579z"></path>
<path d="M13.446 12.332c-0.158 0-0.317-0.059-0.439-0.178-0.25-0.243-0.257-0.642-0.014-0.892 0.169-0.175 0.397-0.401 0.658-0.601 0.277-0.212 0.673-0.16 0.885 0.117s0.16 0.673-0.117 0.885c-0.196 0.15-0.381 0.334-0.52 0.478-0.124 0.128-0.288 0.192-0.453 0.192z"></path>
<path d="M3.050 18.485c-0.041 0-0.082-0.004-0.123-0.012-0.341-0.068-0.564-0.398-0.497-0.74 0.022-0.109 0.549-2.697 2.504-4.223 0.275-0.215 0.671-0.166 0.886 0.109s0.166 0.671-0.109 0.886c-1.578 1.232-2.038 3.45-2.042 3.472-0.060 0.3-0.324 0.508-0.618 0.508z"></path>
</svg>
