<!-- Generated by IcoMoon.io -->
<svg version="1.1" xmlns="http://www.w3.org/2000/svg" width="32" height="32" viewBox="0 0 32 32">
<title>ginger</title>
<path d="M13.824 0.115l0.385 1.082c0.017 0.046 0.049 0.083 0.090 0.102l0.961 0.433c0.136 0.061 0.136 0.278 0 0.339l-0.961 0.433c-0.041 0.019-0.074 0.055-0.090 0.102l-0.385 1.082c-0.054 0.153-0.247 0.153-0.301 0l-0.385-1.082c-0.017-0.046-0.049-0.083-0.090-0.102l-0.961-0.433c-0.136-0.061-0.136-0.278 0-0.339l0.961-0.433c0.041-0.019 0.074-0.055 0.090-0.102l0.385-1.082c0.054-0.153 0.247-0.153 0.301 0z"></path>
<path d="M25.911 13.003c0 0.425-0.345 0.77-0.77 0.77s-0.77-0.345-0.77-0.77c0-0.425 0.345-0.77 0.77-0.77s0.77 0.345 0.77 0.77z"></path>
<path d="M15.807 6.414c0.12 0.308-0.032 0.654-0.34 0.774s-0.654-0.032-0.774-0.34c-0.12-0.308 0.032-0.654 0.34-0.774s0.654 0.032 0.774 0.34z"></path>
<path d="M23.45 3.724l0.519 1.459c0.022 0.062 0.066 0.112 0.122 0.137l1.296 0.584c0.183 0.082 0.183 0.374 0 0.457l-1.296 0.584c-0.055 0.025-0.099 0.074-0.122 0.137l-0.519 1.459c-0.073 0.206-0.332 0.206-0.406 0l-0.519-1.459c-0.022-0.062-0.066-0.112-0.122-0.137l-1.296-0.584c-0.183-0.082-0.183-0.374 0-0.457l1.296-0.584c0.055-0.025 0.099-0.074 0.122-0.137l0.519-1.459c0.073-0.206 0.332-0.206 0.406 0z"></path>
<path d="M29.075 19.733c-0.932-0.855-2.173-1.377-3.535-1.377-2.887 0-5.235 2.349-5.235 5.235 0 1.141 0.368 2.196 0.989 3.057 0.821 2.025 2.807 3.457 5.123 3.457 3.048 0 5.527-2.48 5.527-5.527 0-2.085-1.161-3.903-2.87-4.844zM25.541 19.619c2.19 0 3.972 1.782 3.972 3.972s-1.782 3.972-3.972 3.972-3.972-1.782-3.972-3.972 1.782-3.972 3.972-3.972zM26.418 28.842c-0.171 0-0.339-0.011-0.504-0.030 2.383-0.169 4.329-1.937 4.768-4.236 0 0.001 0 0.001 0 0.002 0 2.351-1.913 4.264-4.264 4.264z"></path>
<path d="M18.772 20.941c1.371-1.82 1.842-4.133 1.294-6.345l-0.614-2.478c-0.196-0.79-0.723-1.457-1.447-1.83s-1.573-0.415-2.33-0.115c-1.062 0.42-1.76 1.426-1.783 2.566l-0.205 2.362c-0.005 0.044-0.123 0.898-0.648 1.105-0.779 0.308-0.941 0.164-1.174-0.294-0.003-0.005-0.005-0.010-0.008-0.016-1.387-2.54-1.858-5.146-2.236-7.24-0.268-1.485-0.499-2.767-0.984-3.736-0.434-0.867-1.449-2.899-4.814-1.745-0.028 0.009-0.055 0.021-0.081 0.034l-0.655 0.332c-0.032 0.016-0.062 0.035-0.090 0.056-2.061 1.527-1.988 3.37-1.645 4.972 0.264 1.23 0.781 2.569 1.088 3.306l-0.587 0.291c-1.581 0.783-2.245 2.713-1.48 4.303 0.608 1.265 1.952 1.991 3.343 1.806l0.102-0.013 0.509 3.82c0.005 0.041 0.015 0.081 0.028 0.12 0.54 1.586 2.252 2.303 3.628 2.88 0.165 0.069 0.329 0.138 0.487 0.206l0.186 0.080 1.571 3.97c0.654 1.651 2.242 2.66 3.919 2.66 0.514 0 1.037-0.095 1.544-0.295 1.045-0.414 1.867-1.21 2.314-2.242s0.465-2.176 0.051-3.221l-0.43-1.088c-0.43-1.087-0.261-2.342 0.442-3.275zM16.843 28.961c-0.313 0.722-0.888 1.279-1.619 1.569-1.459 0.578-3.11-0.096-3.759-1.505 0.729-0.042 1.924-0.2 2.821-0.761 0.178-0.111 0.231-0.345 0.12-0.522s-0.345-0.232-0.522-0.12c-0.866 0.541-2.134 0.641-2.72 0.656l-1.187-2.998c0.585-0.054 1.741-0.229 3.212-0.795 0.195-0.075 0.293-0.294 0.218-0.49s-0.294-0.293-0.49-0.218c-1.646 0.633-2.882 0.745-3.247 0.765-0.067-0.1-0.161-0.179-0.273-0.228l-0.426-0.184c-0.163-0.070-0.33-0.141-0.501-0.212-1.213-0.508-2.465-1.033-2.875-2.006 0.817-0.115 2.609-0.434 4.202-1.169 0.19-0.088 0.273-0.313 0.185-0.503s-0.313-0.273-0.503-0.185c-1.496 0.691-3.232 0.997-4.002 1.107l-0.492-3.691c-0.046-0.346-0.364-0.588-0.709-0.543l-0.727 0.096c-0.848 0.112-1.668-0.33-2.038-1.101-0.466-0.969-0.061-2.146 0.903-2.624l1.124-0.557c0.306-0.151 0.436-0.518 0.294-0.828-0.007-0.016-0.569-1.255-0.976-2.588 0.631-0.037 1.885-0.157 3.459-0.551 0.203-0.051 0.327-0.257 0.276-0.46s-0.256-0.326-0.46-0.276c-1.659 0.415-2.967 0.514-3.482 0.537-0.022-0.091-0.043-0.181-0.062-0.271-0.32-1.494-0.243-2.63 1.12-3.662l0.566-0.287c2.285-0.769 2.811 0.283 3.234 1.129 0.404 0.807 0.62 2.007 0.871 3.395 0.147 0.813 0.307 1.7 0.526 2.633-2.131 0.72-2.957 0.503-2.966 0.501l0.008 0.003-0.24 0.719c0.044 0.015 0.237 0.070 0.623 0.070 0.525 0 1.409-0.105 2.759-0.556 0.362 1.361 0.869 2.802 1.655 4.244 0.845 1.643 2.286 1.073 2.76 0.886 1.261-0.499 1.433-2.088 1.44-2.156 0-0.003 0.001-0.005 0.001-0.008l0.207-2.391c0.001-0.016 0.002-0.031 0.002-0.047 0.007-0.636 0.394-1.197 0.985-1.431 0.418-0.165 0.887-0.142 1.287 0.063s0.691 0.574 0.799 1.011l0.614 2.478c0.184 0.744 0.23 1.501 0.144 2.24-1.348-0.139-2.191-0.763-2.206-0.775-0.166-0.127-0.403-0.096-0.531 0.070s-0.097 0.404 0.069 0.531c0.043 0.033 0.991 0.749 2.533 0.921-0.199 0.819-0.564 1.599-1.087 2.294l-0.203 0.269c-2.227 0.585-3.611-0.877-3.671-0.943-0.141-0.154-0.38-0.165-0.535-0.025s-0.166 0.38-0.025 0.535c0.059 0.065 1.236 1.33 3.19 1.33 0.126 0 0.256-0.006 0.388-0.017-0.838 1.257-1.017 2.876-0.458 4.288l0.43 1.088c0.289 0.732 0.277 1.532-0.036 2.255z"></path>
<path d="M5.657 14.045c-0.272 0-0.523-0.177-0.605-0.451-0.215-0.721-0.422-1.447-0.622-2.149-0.231-0.81-0.45-1.576-0.648-2.222-0.103-0.333 0.085-0.687 0.418-0.789s0.687 0.085 0.789 0.418c0.202 0.658 0.422 1.43 0.656 2.246 0.199 0.698 0.405 1.421 0.618 2.135 0.1 0.334-0.091 0.686-0.425 0.786-0.060 0.018-0.121 0.026-0.181 0.026z"></path>
<path d="M4.237 7.387c-0.074 0-0.15-0.013-0.223-0.041-0.326-0.124-0.491-0.488-0.367-0.814 0.022-0.057 0.040-0.132 0.060-0.21 0.059-0.238 0.141-0.563 0.415-0.844 0.244-0.25 0.643-0.255 0.893-0.011s0.255 0.643 0.011 0.893c-0.036 0.037-0.064 0.149-0.094 0.269-0.026 0.105-0.056 0.224-0.104 0.351-0.096 0.253-0.336 0.408-0.591 0.408z"></path>
<path d="M6.868 20.13c-0.282 0-0.538-0.189-0.611-0.475l-0.59-2.297c-0.087-0.338 0.117-0.682 0.455-0.769s0.682 0.117 0.769 0.455l0.59 2.297c0.087 0.338-0.117 0.682-0.455 0.769-0.053 0.014-0.106 0.020-0.157 0.020z"></path>
</svg>
