<!-- Generated by IcoMoon.io -->
<svg version="1.1" xmlns="http://www.w3.org/2000/svg" width="32" height="32" viewBox="0 0 32 32">
<title>grapes</title>
<path d="M9.011 1.888c0 0.267-0.216 0.484-0.484 0.484s-0.484-0.216-0.484-0.484c0-0.267 0.216-0.484 0.484-0.484s0.484 0.216 0.484 0.484z"></path>
<path d="M2.454 0.286l0.513 1.444c0.022 0.062 0.066 0.111 0.12 0.135l1.283 0.578c0.181 0.082 0.181 0.37 0 0.452l-1.283 0.578c-0.055 0.025-0.098 0.074-0.12 0.136l-0.513 1.444c-0.072 0.204-0.329 0.204-0.402 0l-0.513-1.444c-0.022-0.062-0.066-0.111-0.12-0.136l-1.283-0.578c-0.181-0.082-0.181-0.37 0-0.452l1.283-0.578c0.055-0.025 0.098-0.074 0.12-0.135l0.513-1.444c0.073-0.204 0.329-0.204 0.402 0z"></path>
<path d="M30.478 25.596l0.381 1.071c0.016 0.046 0.049 0.082 0.089 0.101l0.951 0.429c0.134 0.061 0.134 0.275 0 0.335l-0.951 0.429c-0.041 0.018-0.073 0.055-0.089 0.101l-0.381 1.071c-0.054 0.151-0.244 0.151-0.298 0l-0.381-1.071c-0.016-0.046-0.049-0.082-0.089-0.101l-0.951-0.429c-0.134-0.061-0.134-0.275 0-0.335l0.951-0.429c0.041-0.018 0.073-0.055 0.089-0.101l0.381-1.071c0.054-0.151 0.244-0.151 0.298 0z"></path>
<path d="M25.49 29.457c0 0.267-0.216 0.484-0.484 0.484s-0.484-0.216-0.484-0.484c0-0.267 0.216-0.484 0.484-0.484s0.484 0.216 0.484 0.484z"></path>
<path d="M29.589 13.988c-0.486-0.214-0.973-0.403-1.354-0.545 0.179-0.308 0.396-0.695 0.602-1.102 0.759-1.503 0.92-2.369 0.536-2.895-0.44-0.603-1.373-0.392-2.836 0.177-1.081 0.42-2.339 1.018-3.204 1.446-0.076 0.037-0.139 0.011-0.17-0.008-0.036-0.022-0.079-0.064-0.081-0.138-0.016-0.672-0.098-1.213-0.248-1.631 1.141-1.957 2.081-4.148 2.811-6.565 0.153-0.507 0.083-1.057-0.193-1.51s-0.734-0.768-1.256-0.864c-0.957-0.176-1.874 0.396-2.134 1.331-0.625 2.249-1.606 4.333-2.962 6.29-0.158-0.719-0.341-1.373-0.378-1.506-0.804-2.833-1.314-3.041-1.559-3.14-0.484-0.197-1.117-0.025-2.921 1.434-0.604 0.488-1.166 0.985-1.501 1.287-0.302-0.141-0.749-0.34-1.236-0.526-1.713-0.654-2.366-0.549-2.708-0.413-0.899 0.358-0.752 1.706-0.254 3.621 0.069 0.265 0.142 0.527 0.215 0.778-0.522-0.201-1.081-0.308-1.657-0.308-1.228 0-2.383 0.478-3.251 1.347s-1.347 2.023-1.347 3.251c0 1.065 0.36 2.074 1.021 2.889-0.322 0.193-0.623 0.426-0.895 0.698-0.868 0.868-1.347 2.023-1.347 3.251 0 1.044 0.347 2.034 0.983 2.84-0.229 0.157-0.447 0.337-0.65 0.54-1.793 1.793-1.793 4.709 0 6.502 0.868 0.868 2.023 1.347 3.251 1.347s2.383-0.478 3.251-1.347c0.202-0.202 0.382-0.419 0.541-0.649 0.807 0.636 1.796 0.983 2.84 0.983 1.228 0 2.383-0.478 3.251-1.347 0.275-0.275 0.507-0.576 0.697-0.895 0.84 0.68 1.865 1.020 2.89 1.020 1.177 0 2.355-0.448 3.251-1.344 0.868-0.868 1.347-2.023 1.347-3.251 0-1.035-0.341-2.017-0.967-2.821 0.568 0.019 1.262 0.036 1.976 0.036 0.090 0 0.181-0 0.271-0.001 3.674-0.022 4.259-0.475 4.52-0.899 0.652-1.060-0.751-2.374-1.212-2.806-0.072-0.067-0.066-0.145-0.056-0.186 0.011-0.047 0.043-0.109 0.129-0.134 3.424-0.989 4.143-1.524 4.272-2.164 0.165-0.819-0.791-1.422-2.276-2.074zM23.265 2.019c0.075-0.27 0.317-0.447 0.589-0.447 0.038 0 0.076 0.003 0.114 0.010 0.175 0.032 0.322 0.134 0.415 0.285s0.115 0.328 0.064 0.497c-1.289 4.266-3.248 7.791-5.836 10.509 0.055-0.652-0.027-1.314-0.249-1.938 2.377-2.702 3.992-5.642 4.903-8.917zM22.020 20.468c-0.333 0.333-0.72 0.58-1.132 0.743-1.111-0.741-2.475-0.947-3.727-0.618 0.329-1.252 0.124-2.616-0.618-3.727 0.163-0.413 0.41-0.799 0.743-1.132 0.632-0.632 1.473-0.98 2.367-0.98s1.735 0.348 2.367 0.98c0.632 0.632 0.981 1.473 0.981 2.367s-0.348 1.735-0.981 2.367zM10.923 11.246c0.166-0.418 0.416-0.803 0.744-1.13 0.632-0.632 1.473-0.98 2.367-0.98s1.735 0.348 2.367 0.98c1.305 1.305 1.305 3.429 0 4.734-0.333 0.333-0.719 0.58-1.13 0.743-0.749-0.503-1.631-0.773-2.553-0.773-0.402 0-0.796 0.052-1.175 0.152 0.328-1.252 0.122-2.615-0.62-3.725zM9.402 6.259c0.214 0.002 0.697 0.065 1.66 0.434 0.798 0.305 1.499 0.657 1.506 0.661 0.233 0.118 0.516 0.078 0.707-0.1 0.007-0.007 0.737-0.684 1.57-1.37 1.085-0.893 1.617-1.204 1.851-1.312 0.184 0.318 0.511 1.105 0.872 2.416 0.286 1.039 0.452 1.89 0.507 2.352-0.112 0.138-0.226 0.276-0.342 0.413-0.134-0.182-0.283-0.356-0.448-0.52-0.868-0.868-2.023-1.347-3.251-1.347s-2.383 0.478-3.251 1.347c-0.222 0.221-0.417 0.462-0.585 0.717-0.112-0.351-0.237-0.764-0.355-1.192-0.436-1.583-0.461-2.249-0.441-2.498zM4.732 11.432c0.632-0.632 1.473-0.981 2.367-0.981s1.735 0.348 2.367 0.981c1.305 1.305 1.305 3.429 0 4.734s-3.429 1.305-4.734 0c-0.632-0.632-0.981-1.473-0.981-2.367s0.348-1.735 0.981-2.367zM7.233 29.636c-0.632 0.632-1.473 0.98-2.367 0.98s-1.735-0.348-2.367-0.98c-1.305-1.305-1.305-3.429 0-4.734 0.212-0.212 0.447-0.389 0.696-0.532 0.799 0.575 1.741 0.863 2.685 0.863 0.394 0 0.788-0.052 1.172-0.152-0.099 0.379-0.152 0.773-0.152 1.175 0 0.978 0.304 1.909 0.866 2.686-0.145 0.251-0.322 0.485-0.533 0.695zM3.512 23.004c-0.632-0.632-0.981-1.473-0.981-2.367s0.348-1.735 0.981-2.367c0.289-0.289 0.623-0.518 0.985-0.682 0.781 0.537 1.691 0.806 2.602 0.806 0.394 0 0.788-0.052 1.172-0.152-0.099 0.379-0.152 0.773-0.152 1.175 0 0.943 0.283 1.843 0.807 2.603-0.161 0.357-0.388 0.691-0.681 0.984-1.305 1.305-3.429 1.305-4.734 0zM13.865 28.623c-0.632 0.632-1.473 0.98-2.367 0.98s-1.735-0.348-2.367-0.98c-0.632-0.632-0.98-1.473-0.98-2.367s0.348-1.735 0.98-2.367c0.293-0.294 0.629-0.519 0.987-0.68 0.78 0.536 1.69 0.805 2.6 0.805 0.396 0 0.791-0.052 1.176-0.153-0.334 1.271-0.116 2.658 0.653 3.777-0.161 0.357-0.388 0.692-0.681 0.985zM10.35 21.785c-0.632-0.632-0.98-1.473-0.98-2.367s0.348-1.735 0.98-2.367c0.632-0.632 1.473-0.981 2.367-0.981s1.735 0.348 2.367 0.981c1.305 1.305 1.305 3.429 0 4.734s-3.429 1.305-4.734 0zM20.703 27.403c-1.305 1.305-3.429 1.305-4.734 0s-1.305-3.429 0-4.734c0.653-0.653 1.51-0.979 2.367-0.979s1.715 0.326 2.367 0.979c0.632 0.632 0.981 1.473 0.981 2.367s-0.348 1.735-0.981 2.367zM27.246 17.025c-0.502 0.145-0.875 0.535-0.997 1.043-0.123 0.511 0.033 1.030 0.417 1.39 0.694 0.65 0.922 1.052 0.973 1.219-0.233 0.098-1.049 0.322-3.66 0.324h-0.040c-0.242 0-0.481-0.002-0.714-0.005 0.664-0.816 1.026-1.828 1.026-2.895 0-1.228-0.478-2.383-1.347-3.251-0.849-0.849-1.973-1.324-3.17-1.345 0.751-0.812 1.45-1.687 2.096-2.627 0.001 0.025 0.002 0.049 0.002 0.075 0.011 0.486 0.267 0.926 0.684 1.178 0.419 0.254 0.932 0.276 1.371 0.059 2.504-1.238 3.835-1.707 4.406-1.824-0.059 0.259-0.222 0.741-0.658 1.581-0.412 0.792-0.853 1.484-0.857 1.491-0.104 0.162-0.127 0.363-0.063 0.545s0.208 0.323 0.391 0.384c1.427 0.478 2.841 1.113 3.368 1.496-0.344 0.205-1.184 0.572-3.227 1.162z"></path>
<path d="M5.424 14.557c-0.047 0-0.094-0.005-0.142-0.016-0.351-0.078-0.572-0.426-0.494-0.777 0.013-0.059 0.34-1.464 1.748-2.246 0.314-0.175 0.711-0.061 0.885 0.253s0.061 0.711-0.253 0.885c-0.888 0.493-1.107 1.382-1.109 1.39-0.067 0.303-0.337 0.51-0.635 0.51z"></path>
<path d="M11.075 20.145c-0.047 0-0.095-0.005-0.143-0.016-0.351-0.078-0.572-0.428-0.494-0.78 0.013-0.059 0.339-1.464 1.748-2.246 0.315-0.175 0.711-0.061 0.885 0.253s0.061 0.711-0.253 0.885c-0.884 0.491-1.102 1.359-1.111 1.396-0.067 0.303-0.335 0.508-0.633 0.508z"></path>
<path d="M3.988 21.916c-0.355 0-0.645-0.285-0.651-0.64-0.011-0.65 0.195-1.338 0.579-1.939 0.194-0.303 0.596-0.392 0.899-0.198s0.392 0.596 0.198 0.899c-0.244 0.382-0.381 0.826-0.374 1.217 0.006 0.36-0.281 0.656-0.64 0.662-0.004 0-0.007 0-0.011 0z"></path>
<path d="M12.706 12.247c-0.123 0-0.248-0.035-0.358-0.108-0.3-0.198-0.383-0.602-0.185-0.902 0.358-0.542 0.916-0.995 1.572-1.274 0.331-0.141 0.713 0.013 0.854 0.344s-0.013 0.713-0.344 0.854c-0.417 0.178-0.78 0.467-0.996 0.794-0.125 0.19-0.332 0.293-0.544 0.293z"></path>
</svg>
