<!-- Generated by IcoMoon.io -->
<svg version="1.1" xmlns="http://www.w3.org/2000/svg" width="32" height="32" viewBox="0 0 32 32">
<title>kiwi</title>
<path d="M29.938 6.861l0.516 1.45c0.022 0.062 0.066 0.111 0.121 0.136l1.288 0.581c0.182 0.082 0.182 0.372 0 0.454l-1.288 0.581c-0.055 0.025-0.099 0.074-0.121 0.136l-0.516 1.45c-0.073 0.205-0.331 0.205-0.403 0l-0.516-1.45c-0.022-0.062-0.066-0.111-0.121-0.136l-1.288-0.581c-0.182-0.082-0.182-0.372 0-0.454l1.288-0.581c0.055-0.025 0.099-0.074 0.121-0.136l0.516-1.45c0.073-0.205 0.331-0.205 0.403 0z"></path>
<path d="M29.667 4.215c0.114 0.479-0.182 0.959-0.661 1.073s-0.959-0.182-1.073-0.661c-0.114-0.479 0.182-0.959 0.661-1.073s0.959 0.182 1.073 0.661z"></path>
<path d="M23.116 0.244l0.516 1.45c0.022 0.062 0.066 0.111 0.121 0.136l1.288 0.581c0.182 0.082 0.182 0.372 0 0.454l-1.288 0.581c-0.055 0.025-0.099 0.074-0.121 0.136l-0.516 1.45c-0.073 0.205-0.331 0.205-0.403 0l-0.516-1.45c-0.022-0.062-0.066-0.111-0.121-0.136l-1.288-0.58c-0.182-0.082-0.182-0.372 0-0.454l1.288-0.581c0.055-0.025 0.099-0.074 0.121-0.136l0.516-1.45c0.073-0.205 0.331-0.205 0.403 0z"></path>
<path d="M20.774 29.675c-4.216 0-7.646-3.43-7.646-7.646s3.43-7.646 7.646-7.646c4.216 0 7.646 3.43 7.646 7.646s-3.43 7.646-7.646 7.646zM20.774 15.137c-3.8 0-6.892 3.092-6.892 6.892s3.092 6.892 6.892 6.892c3.8 0 6.892-3.092 6.892-6.892s-3.092-6.892-6.892-6.892z"></path>
<path d="M20.774 23.94c-1.054 0-1.911-0.857-1.911-1.911s0.857-1.911 1.911-1.911 1.911 0.857 1.911 1.911-0.857 1.911-1.911 1.911zM20.774 20.871c-0.638 0-1.158 0.519-1.158 1.158s0.519 1.158 1.158 1.158 1.158-0.519 1.158-1.158c-0-0.638-0.519-1.158-1.158-1.158z"></path>
<path d="M25.498 22.303h-1.638c-0.208 0-0.377-0.169-0.377-0.377s0.169-0.377 0.377-0.377h1.638c0.208 0 0.377 0.169 0.377 0.377s-0.169 0.377-0.377 0.377z"></path>
<path d="M20.802 19.255c-0.208 0-0.377-0.169-0.377-0.377v-1.638c0-0.208 0.169-0.377 0.377-0.377s0.377 0.169 0.377 0.377v1.638c0 0.208-0.169 0.377-0.377 0.377z"></path>
<path d="M17.688 22.303h-1.638c-0.208 0-0.377-0.169-0.377-0.377s0.169-0.377 0.377-0.377h1.638c0.208 0 0.377 0.169 0.377 0.377s-0.169 0.377-0.377 0.377z"></path>
<path d="M20.802 27.195c-0.208 0-0.377-0.169-0.377-0.377v-1.638c0-0.208 0.169-0.377 0.377-0.377s0.377 0.169 0.377 0.377v1.638c0 0.208-0.169 0.377-0.377 0.377z"></path>
<path d="M17.407 25.811c-0.096 0-0.193-0.037-0.266-0.11-0.147-0.147-0.147-0.386 0-0.533l1.158-1.158c0.147-0.147 0.386-0.147 0.533 0s0.147 0.386 0 0.533l-1.158 1.158c-0.073 0.073-0.17 0.11-0.266 0.11z"></path>
<path d="M24.042 25.811c-0.096 0-0.193-0.037-0.266-0.11l-1.158-1.158c-0.147-0.147-0.147-0.386 0-0.533s0.386-0.147 0.533 0l1.158 1.158c0.147 0.147 0.147 0.386 0 0.533-0.073 0.073-0.17 0.11-0.266 0.11z"></path>
<path d="M22.884 20.158c-0.096 0-0.193-0.037-0.266-0.11-0.147-0.147-0.147-0.386 0-0.533l1.158-1.158c0.147-0.147 0.386-0.147 0.533 0s0.147 0.386 0 0.533l-1.158 1.158c-0.073 0.073-0.17 0.11-0.266 0.11z"></path>
<path d="M18.565 20.158c-0.096 0-0.193-0.037-0.266-0.11l-1.158-1.158c-0.147-0.147-0.147-0.386 0-0.533s0.386-0.147 0.533 0l1.158 1.158c0.147 0.147 0.147 0.386 0 0.533-0.074 0.073-0.17 0.11-0.266 0.11z"></path>
<path d="M6.018 16.672c-0.208 0-0.377-0.169-0.377-0.377v-0.711c0-0.208 0.169-0.377 0.377-0.377s0.377 0.169 0.377 0.377v0.711c0 0.208-0.169 0.377-0.377 0.377z"></path>
<path d="M8.346 18.954c-0.208 0-0.377-0.169-0.377-0.377v-0.711c0-0.208 0.169-0.377 0.377-0.377s0.377 0.169 0.377 0.377v0.711c0 0.208-0.169 0.377-0.377 0.377z"></path>
<path d="M9.588 15.068c-0.208 0-0.377-0.169-0.377-0.377v-0.711c0-0.208 0.169-0.377 0.377-0.377s0.377 0.169 0.377 0.377v0.711c0 0.208-0.169 0.377-0.377 0.377z"></path>
<path d="M7.686 8.406c-0.214 0-0.422-0.109-0.54-0.306-0.178-0.298-0.080-0.683 0.217-0.861 0.165-0.099 0.336-0.195 0.509-0.285 0.307-0.162 0.686-0.044 0.848 0.263s0.044 0.686-0.263 0.848c-0.153 0.080-0.304 0.165-0.45 0.253-0.101 0.060-0.212 0.089-0.321 0.089z"></path>
<path d="M3.457 14.478c-0.038 0-0.076-0.003-0.115-0.011-0.341-0.063-0.566-0.39-0.504-0.731 0.375-2.032 1.334-3.822 2.773-5.178 0.252-0.238 0.65-0.226 0.888 0.027s0.226 0.65-0.027 0.887c-1.244 1.171-2.073 2.724-2.399 4.491-0.056 0.303-0.32 0.514-0.617 0.514z"></path>
<path d="M28.727 27.885c1.211-1.64 1.928-3.666 1.928-5.856 0-5.448-4.433-9.881-9.881-9.881-0.006 0-0.011 0-0.017 0-0.394-1.735-1.239-3.3-2.406-4.565l0.621-0.836c0.207-0.278 0.149-0.672-0.129-0.878s-0.672-0.149-0.878 0.129l-0.528 0.71c-0.363-0.306-0.749-0.587-1.153-0.84l0.651-0.876c0.207-0.278 0.149-0.672-0.129-0.878s-0.672-0.149-0.878 0.129l-0.76 1.022c-1.271-0.585-2.685-0.912-4.174-0.912-5.52 0-10.012 4.491-10.012 10.012v7.299c0 0.82 0.1 1.616 0.286 2.379l-0.79 0.193c-0.337 0.082-0.543 0.422-0.461 0.759 0.070 0.287 0.327 0.479 0.609 0.479 0.049 0 0.1-0.006 0.15-0.018l0.867-0.212c1.444 3.758 5.090 6.432 9.349 6.432 1.697 0 3.296-0.426 4.699-1.175 1.486 0.895 3.225 1.41 5.082 1.41 2.041 0 3.939-0.622 5.515-1.686l0.577 0.577c0.123 0.123 0.283 0.184 0.444 0.184s0.321-0.061 0.444-0.184c0.245-0.245 0.245-0.643 0-0.888l-0.463-0.463c0.217-0.191 0.426-0.39 0.625-0.599l0.479 0.479c0.123 0.123 0.283 0.184 0.444 0.184s0.321-0.061 0.444-0.184c0.245-0.245 0.245-0.643 0-0.888zM10.994 30.419c-3.669 0-6.818-2.269-8.118-5.477l0.392-0.096c0.337-0.082 0.543-0.422 0.461-0.759s-0.422-0.543-0.759-0.461l-0.48 0.118c-0.163-0.667-0.25-1.364-0.25-2.080v-7.299c0-4.828 3.928-8.756 8.756-8.756 1.207 0 2.358 0.246 3.406 0.69l-0.113 0.153c-0.207 0.278-0.149 0.672 0.129 0.878 0.113 0.084 0.244 0.124 0.374 0.124 0.192 0 0.381-0.088 0.504-0.253l0.239-0.321c0.408 0.248 0.794 0.529 1.155 0.838l-0.363 0.488c-0.207 0.278-0.149 0.672 0.129 0.878 0.113 0.084 0.244 0.124 0.374 0.124 0.192 0 0.381-0.088 0.504-0.253l0.256-0.344c0.896 1.025 1.557 2.261 1.898 3.622-4.842 0.633-8.593 4.785-8.593 9.797 0 3.078 1.415 5.832 3.629 7.646-1.080 0.478-2.274 0.744-3.529 0.744zM20.774 30.654c-4.756 0-8.625-3.869-8.625-8.625s3.869-8.625 8.625-8.625 8.625 3.869 8.625 8.625-3.869 8.625-8.625 8.625z"></path>
</svg>
