<!-- Generated by IcoMoon.io -->
<svg version="1.1" xmlns="http://www.w3.org/2000/svg" width="32" height="32" viewBox="0 0 32 32">
<title>leek</title>
<path d="M2.616 10.352l0.515 1.448c0.022 0.062 0.066 0.111 0.121 0.136l1.287 0.58c0.182 0.082 0.182 0.372 0 0.453l-1.287 0.58c-0.055 0.025-0.099 0.074-0.121 0.136l-0.515 1.448c-0.073 0.205-0.33 0.205-0.403 0l-0.515-1.448c-0.022-0.062-0.066-0.111-0.121-0.136l-1.287-0.58c-0.182-0.082-0.182-0.372 0-0.453l1.287-0.58c0.055-0.025 0.099-0.074 0.121-0.136l0.515-1.448c0.073-0.205 0.33-0.205 0.403 0z"></path>
<path d="M12.921 4.336l0.382 1.074c0.016 0.046 0.049 0.082 0.090 0.101l0.954 0.43c0.135 0.061 0.135 0.276 0 0.336l-0.954 0.43c-0.041 0.018-0.073 0.055-0.090 0.101l-0.382 1.074c-0.054 0.152-0.245 0.152-0.299 0l-0.382-1.074c-0.016-0.046-0.049-0.082-0.090-0.101l-0.954-0.43c-0.135-0.061-0.135-0.276 0-0.336l0.954-0.43c0.041-0.018 0.073-0.055 0.090-0.101l0.382-1.074c0.054-0.152 0.245-0.152 0.299 0z"></path>
<path d="M6.567 4.114c0 0.422-0.342 0.764-0.764 0.764s-0.764-0.342-0.764-0.764c0-0.422 0.342-0.764 0.764-0.764s0.764 0.342 0.764 0.764z"></path>
<path d="M25.193 21.909c0 0.328-0.266 0.594-0.594 0.594s-0.594-0.266-0.594-0.594 0.266-0.593 0.594-0.593 0.594 0.266 0.594 0.593z"></path>
<path d="M22.552 23.101l0.515 1.448c0.022 0.062 0.066 0.111 0.121 0.136l1.287 0.58c0.182 0.082 0.182 0.372 0 0.453l-1.287 0.58c-0.055 0.025-0.099 0.074-0.121 0.136l-0.515 1.448c-0.073 0.205-0.33 0.205-0.403 0l-0.515-1.448c-0.022-0.062-0.066-0.111-0.121-0.136l-1.287-0.58c-0.182-0.082-0.182-0.372 0-0.453l1.287-0.58c0.055-0.025 0.099-0.074 0.121-0.136l0.515-1.448c0.073-0.205 0.33-0.205 0.403 0z"></path>
<path d="M31.735 7.373l-0.234-0.406c-0.251-0.436-0.657-0.747-1.143-0.877-0.474-0.127-0.968-0.067-1.396 0.17l-0.864 0.382 2.426-2.396c0.021-0.021 0.041-0.044 0.060-0.068 0.626-0.828 0.461-2.011-0.367-2.637l-1.196-0.904c-0.401-0.303-0.896-0.432-1.395-0.363-0.482 0.067-0.91 0.312-1.212 0.691l-2.585 2.558 0.469-1.035c0.165-0.365 0.172-0.786 0.019-1.155s-0.454-0.664-0.827-0.807l-1.12-0.429c-0.718-0.275-1.53 0.058-1.849 0.756l-5.257 11.495c-0.065 0.066-0.129 0.133-0.195 0.198l-14.27 14.27c-0.507 0.507-0.786 1.18-0.786 1.897s0.279 1.39 0.786 1.897l0.606 0.606c0.523 0.523 1.21 0.784 1.897 0.784s1.374-0.262 1.897-0.784l16.199-16.199c0.887-0.887 2.106-1.484 3.284-2.061 0.186-0.091 0.37-0.181 0.549-0.271 1.434-0.717 5.721-2.694 5.764-2.714 0.017-0.008 0.034-0.017 0.051-0.026 0.899-0.519 1.208-1.673 0.689-2.572zM21.662 1.374c0.045-0.098 0.159-0.145 0.259-0.106l1.12 0.429c0.072 0.028 0.104 0.083 0.116 0.113s0.029 0.092-0.002 0.161l-5.647 12.465-1.248-1.248zM4.312 30.329c-0.557 0.557-1.463 0.557-2.020 0l-0.606-0.606c-0.27-0.27-0.418-0.628-0.418-1.010s0.149-0.74 0.418-1.010l14.012-14.012 2.626 2.626zM30.439 8.846c-0.42 0.194-4.366 2.015-5.769 2.717-0.177 0.088-0.357 0.177-0.54 0.266-1.212 0.593-2.585 1.266-3.619 2.3l-1.655 1.655-0.401-0.401 3.925-8.664 4.944-4.892c0.021-0.021 0.041-0.044 0.059-0.068 0.101-0.134 0.248-0.22 0.415-0.244s0.332 0.020 0.466 0.121l1.196 0.904c0.266 0.201 0.327 0.575 0.145 0.85l-4.824 4.763c-0.215 0.213-0.248 0.549-0.078 0.799s0.495 0.343 0.772 0.22l4.021-1.779c0.020-0.009 0.040-0.019 0.060-0.030 0.145-0.084 0.315-0.106 0.477-0.063s0.298 0.147 0.382 0.293l0.234 0.406c0.169 0.293 0.075 0.668-0.21 0.846z"></path>
<path d="M12.351 20.758c-0.096 0-0.193-0.037-0.266-0.11-0.147-0.147-0.147-0.385 0-0.532l5.196-5.196c0.147-0.147 0.385-0.147 0.532 0s0.147 0.385 0 0.532l-5.196 5.196c-0.073 0.073-0.17 0.11-0.266 0.11z"></path>
<path d="M10.774 22.363c-0.096 0-0.193-0.037-0.266-0.11-0.147-0.147-0.147-0.385 0-0.532l0.758-0.758c0.147-0.147 0.385-0.147 0.532 0s0.147 0.385 0 0.532l-0.758 0.758c-0.073 0.073-0.17 0.11-0.266 0.11z"></path>
<path d="M13.863 17.203c-0.126 0-0.254-0.038-0.364-0.117-0.282-0.201-0.347-0.593-0.145-0.875 0.146-0.204 0.316-0.341 0.453-0.452 0.081-0.066 0.165-0.134 0.19-0.176 0.177-0.298 0.562-0.396 0.859-0.219s0.396 0.562 0.219 0.859c-0.14 0.236-0.329 0.388-0.48 0.511-0.094 0.076-0.175 0.141-0.221 0.206-0.122 0.171-0.315 0.262-0.511 0.262z"></path>
<path d="M7.38 23.686c-0.159 0-0.319-0.060-0.441-0.181-0.246-0.244-0.248-0.641-0.005-0.887 1.67-1.687 3.363-3.38 5.033-5.033 0.246-0.244 0.643-0.242 0.887 0.005s0.242 0.643-0.005 0.887c-1.667 1.65-3.358 3.341-5.024 5.024-0.122 0.124-0.284 0.186-0.446 0.186z"></path>
</svg>
