<!-- Generated by IcoMoon.io -->
<svg version="1.1" xmlns="http://www.w3.org/2000/svg" width="32" height="32" viewBox="0 0 32 32">
<title>lemon</title>
<path d="M6.722 0.115l0.384 1.081c0.016 0.046 0.049 0.083 0.090 0.101l0.96 0.433c0.136 0.061 0.136 0.277 0 0.338l-0.96 0.433c-0.041 0.018-0.074 0.055-0.090 0.102l-0.384 1.081c-0.054 0.153-0.246 0.153-0.301 0l-0.384-1.081c-0.016-0.046-0.049-0.083-0.090-0.102l-0.96-0.433c-0.136-0.061-0.136-0.277 0-0.338l0.96-0.433c0.041-0.018 0.074-0.055 0.090-0.101l0.384-1.081c0.054-0.153 0.246-0.153 0.301 0z"></path>
<path d="M2.866 7.348c0.423 0.035 0.738 0.407 0.703 0.83s-0.407 0.738-0.83 0.703c-0.423-0.035-0.738-0.407-0.703-0.83s0.407-0.738 0.83-0.703z"></path>
<path d="M17.333 3.159c0.126 0.305-0.018 0.654-0.323 0.781s-0.654-0.018-0.781-0.323c-0.126-0.305 0.018-0.654 0.323-0.781s0.654 0.018 0.781 0.323z"></path>
<path d="M31.409 15.408c-1.108-3.089-3.96-5.059-5.811-6.057 0.643-0.619 1.24-1.262 1.681-1.819l0.006-0.007c0.633-0.824 0.699-1.71 0.175-2.368-0.282-0.355-0.682-0.566-1.127-0.595-0.479-0.031-0.967 0.157-1.338 0.517-0.209 0.202-0.504 0.525-0.877 0.934-0.486 0.532-1.080 1.18-1.654 1.746-1.492-0.734-3.34-0.508-4.611 0.679-2.132-0.866-4.513-1.050-6.898-0.531-2.485 0.541-4.781 1.81-6.642 3.67s-3.13 4.157-3.67 6.642c-0.519 2.386-0.335 4.767 0.531 6.899-1.487 1.607-1.449 4.123 0.112 5.684 0.8 0.8 1.85 1.199 2.9 1.199 1 0 2-0.362 2.784-1.088 2.132 0.867 4.514 1.050 6.899 0.531 2.485-0.541 4.781-1.81 6.642-3.67 1.578-1.578 2.73-3.47 3.374-5.524 1.096 1.125 2.364 1.978 3.452 2.584 0.355 0.198 0.756 0.298 1.165 0.298 0.291 0 0.585-0.051 0.87-0.153 0.686-0.246 1.225-0.758 1.479-1.405 0.831-2.119 1.603-5.255 0.559-8.165zM25.049 6.863c0.345-0.377 0.643-0.703 0.824-0.879 0.114-0.11 0.255-0.172 0.378-0.163 0.088 0.006 0.16 0.045 0.22 0.121 0.192 0.242-0.032 0.611-0.186 0.811-0.476 0.6-1.176 1.336-1.901 2.006-0.264-0.115-0.433-0.179-0.47-0.193-0.118-0.044-0.242-0.049-0.358-0.023-0.002-0.002-0.005-0.005-0.007-0.007-0.013-0.013-0.027-0.026-0.041-0.039 0.544-0.547 1.087-1.14 1.539-1.634zM19.619 26.881c-2.327 2.327-5.403 3.585-8.398 3.585-1.345-0-2.675-0.254-3.912-0.779-0.381-0.162-0.818-0.075-1.113 0.22-0 0-0.001 0.001-0.001 0.001-0.536 0.536-1.249 0.832-2.008 0.832s-1.471-0.295-2.008-0.832c-0.536-0.536-0.832-1.249-0.832-2.008s0.295-1.471 0.832-2.008c0.001-0.001 0.003-0.003 0.004-0.004 0.294-0.295 0.379-0.731 0.218-1.111-1.694-3.991-0.566-8.938 2.806-12.31s8.319-4.499 12.31-2.806c0.384 0.163 0.822 0.075 1.116-0.223l0.012-0.012c0.536-0.536 1.249-0.832 2.008-0.832s1.471 0.295 2.008 0.832c0.041 0.041 0.081 0.084 0.119 0.128-0.779 1.611-2.384 5.645-1.063 9.329 0.289 0.805 0.697 1.535 1.177 2.194-0.506 2.114-1.619 4.148-3.273 5.802zM29.675 23.112c-0.121 0.308-0.387 0.555-0.73 0.678s-0.706 0.101-0.995-0.060c-1.799-1.002-4.136-2.73-5.047-5.272-0.995-2.773-0.029-5.909 0.699-7.645 0.41 0.353 0.994 0.912 1.591 1.674 1.003 1.281 2.248 3.416 2.483 6.31 0.016 0.198 0.182 0.348 0.377 0.348 0.010 0 0.021-0 0.031-0.001 0.208-0.017 0.364-0.2 0.347-0.408-0.251-3.095-1.585-5.373-2.66-6.74-0.717-0.911-1.408-1.543-1.846-1.903 0.022-0.045 0.043-0.088 0.063-0.129 1.359 0.616 5.045 2.55 6.235 5.869 0.912 2.541 0.206 5.361-0.546 7.278z"></path>
<path d="M10.276 28.422c-1.004 0-1.632-0.151-1.691-0.165-0.211-0.053-0.34-0.267-0.287-0.478s0.267-0.34 0.478-0.287c0.038 0.009 3.114 0.728 6.718-1.263 0.191-0.105 0.431-0.036 0.536 0.154s0.036 0.43-0.154 0.536c-2.23 1.232-4.253 1.503-5.599 1.503z"></path>
<path d="M17.386 26.068c-0.132 0-0.262-0.067-0.336-0.188-0.114-0.185-0.056-0.428 0.129-0.542 0.333-0.206 1.261-0.881 1.547-1.525 0.088-0.199 0.321-0.289 0.52-0.2s0.289 0.322 0.2 0.52c-0.445 1.001-1.797 1.841-1.855 1.877-0.064 0.040-0.136 0.059-0.206 0.059z"></path>
<path d="M12.283 20.512c-0.209 0-0.379-0.169-0.379-0.378v-0.763c0-0.209 0.169-0.378 0.379-0.378s0.379 0.169 0.379 0.378v0.763c0 0.209-0.169 0.378-0.379 0.378z"></path>
<path d="M14.632 19.626c-0.209 0-0.379-0.169-0.379-0.378v-0.763c0-0.209 0.169-0.378 0.379-0.378s0.379 0.169 0.379 0.378v0.763c0 0.209-0.169 0.378-0.379 0.378z"></path>
<path d="M13.93 23.021c-0.209 0-0.379-0.169-0.379-0.378v-0.763c0-0.209 0.169-0.378 0.379-0.378s0.379 0.169 0.379 0.378v0.763c0 0.209-0.169 0.378-0.379 0.378z"></path>
<path d="M11.632 12.508c-0.28 0-0.54-0.181-0.627-0.463-0.108-0.347 0.086-0.715 0.433-0.823 0.402-0.125 0.818-0.223 1.237-0.293 0.358-0.060 0.697 0.182 0.756 0.54s-0.182 0.697-0.54 0.756c-0.361 0.060-0.718 0.145-1.063 0.252-0.065 0.020-0.131 0.030-0.195 0.030z"></path>
<path d="M4.538 20.071c-0.075 0-0.15-0.013-0.224-0.040-0.341-0.124-0.517-0.501-0.393-0.842 0.774-2.129 1.966-4.019 3.446-5.463 0.447-0.436 0.924-0.835 1.418-1.186 0.296-0.21 0.706-0.141 0.916 0.155s0.141 0.706-0.155 0.916c-0.439 0.312-0.863 0.667-1.262 1.056-1.34 1.308-2.422 3.027-3.129 4.972-0.097 0.267-0.349 0.433-0.618 0.433z"></path>
</svg>
