<!-- Generated by IcoMoon.io -->
<svg version="1.1" xmlns="http://www.w3.org/2000/svg" width="32" height="32" viewBox="0 0 32 32">
<title>lettuce</title>
<path d="M1.859 5.536l0.383 1.078c0.016 0.046 0.049 0.083 0.090 0.101l0.958 0.431c0.135 0.061 0.135 0.277 0 0.338l-0.958 0.431c-0.041 0.019-0.074 0.055-0.090 0.101l-0.383 1.078c-0.054 0.152-0.246 0.152-0.3 0l-0.383-1.078c-0.016-0.046-0.049-0.083-0.090-0.101l-0.958-0.431c-0.135-0.061-0.135-0.277 0-0.338l0.958-0.431c0.041-0.019 0.073-0.055 0.090-0.101l0.383-1.078c0.054-0.152 0.246-0.152 0.3 0z"></path>
<path d="M9.417 0.548c0.189 0.456-0.027 0.978-0.483 1.167s-0.978-0.027-1.167-0.483c-0.189-0.456 0.027-0.978 0.483-1.167s0.978 0.027 1.167 0.483z"></path>
<path d="M4.464 11.814c0.265 0.043 0.446 0.293 0.403 0.558s-0.293 0.446-0.558 0.403c-0.265-0.043-0.446-0.293-0.403-0.558s0.293-0.446 0.558-0.403z"></path>
<path d="M31.375 15.53c-0.35-0.45-0.836-0.761-1.265-0.966 0.297-0.363 0.589-0.791 0.671-1.152 0.043-0.188 0.059-0.472-0.297-1.478-0.219-0.619-0.523-1.346-0.855-2.050-0.636-1.345-1.58-3.041-2.464-3.483-0.794-0.397-1.74-0.182-2.867 0.655-0.233-0.195-0.488-0.367-0.76-0.511l-0.698-0.37c0.143-0.969-0.015-1.697-0.474-2.197-0.805-0.878-2.341-1.389-4.697-1.564-1.834-0.135-3.771-0.031-5.073 0.081-0.516 0.044-0.965 0.298-1.297 0.735-0.54 0.708-0.741 1.897-0.778 3.127-1.275 0.314-2.254 1.356-2.465 2.69l-3.279 16.118-2.037 2.224c-0.756 0.825-0.73 2.093 0.058 2.887l1.088 1.096c0.407 0.407 0.948 0.631 1.523 0.631s1.116-0.224 1.523-0.631l3.005-3.005 4.762-1.372c1.213-0.019 2.517-0.044 3.824-0.075 10.218-0.244 10.556-0.631 10.828-0.941 0.576-0.659 0.893-3.259 0.944-5.344 0.524-0.176 0.768-0.36 0.918-0.523 1.020-1.109 0.955-3.559 0.162-4.579zM12.701 3.746c4.497-0.385 7.762 0.018 8.735 1.079 0.071 0.077 0.191 0.273 0.193 0.706l-0.051-0.027c-0.979-0.519-2.109-0.652-3.181-0.374s-1.995 0.943-2.599 1.873l-0.292 0.449c-0.664-0.875-1.746-1.393-2.889-1.305l-0.835 0.064c0.039-0.966 0.188-1.794 0.514-2.222 0.152-0.198 0.296-0.235 0.404-0.244zM9.432 27.199c-0.102 0.029-0.195 0.084-0.271 0.16l-3.12 3.12c-0.169 0.169-0.394 0.262-0.633 0.262s-0.464-0.093-0.632-0.261l-1.086-1.094c-0.314-0.316-0.324-0.822-0.023-1.15l2.154-2.352c0.077-0.084 0.13-0.188 0.153-0.3l3.317-16.303c0.002-0.010 0.004-0.020 0.005-0.030 0.145-0.945 0.912-1.656 1.865-1.729l1.554-0.12c0.052-0.004 0.104-0.006 0.156-0.006 0.903 0 1.716 0.604 1.967 1.483 0.068 0.237 0.268 0.413 0.512 0.449s0.487-0.073 0.621-0.28l0.884-1.361c0.899-1.385 2.677-1.846 4.135-1.072l1.959 1.039c0.784 0.416 1.342 1.117 1.573 1.974s0.098 1.744-0.373 2.496l-0.841 1.346c-0.135 0.215-0.127 0.491 0.021 0.698s0.405 0.305 0.652 0.249c0.648-0.147 1.326-0.005 1.86 0.391s0.867 1.003 0.915 1.665l0.272 3.782c0.073 1.016-0.543 1.962-1.501 2.306zM28.985 21.706c-0.13 1.811-0.387 3.011-0.548 3.372-0.401 0.114-2.077 0.374-9.034 0.557l6.489-1.87c0.011-0.003 0.023-0.007 0.034-0.011 1.219-0.427 2.087-1.481 2.309-2.711 0.293-0.036 0.557-0.075 0.795-0.115-0.010 0.244-0.025 0.504-0.045 0.777zM30.287 19.255c-0.013 0.013-0.314 0.288-2.035 0.518l-0.244-3.389c-0.074-1.029-0.592-1.972-1.421-2.586-0.474-0.351-1.021-0.574-1.591-0.658l0.218-0.348c0.648-1.037 0.838-2.309 0.521-3.489-0.126-0.468-0.329-0.908-0.594-1.305 0.636-0.454 1.148-0.628 1.46-0.472 0.241 0.121 0.894 0.832 1.812 2.734 0.686 1.422 1.080 2.601 1.126 2.916-0.093 0.23-0.532 0.778-0.97 1.206-0.165 0.161-0.229 0.399-0.167 0.621s0.241 0.392 0.466 0.443c0.267 0.061 1.119 0.349 1.513 0.856 0.445 0.573 0.464 2.346-0.094 2.953z"></path>
<path d="M12.527 24.947c-0.15 0-0.292-0.090-0.351-0.238-0.077-0.194 0.018-0.413 0.211-0.49 0.581-0.231 2.476-1.087 4.149-1.843 1.264-0.571 2.457-1.11 2.951-1.32 0.192-0.082 0.413 0.008 0.495 0.2s-0.008 0.414-0.2 0.495c-0.485 0.206-1.675 0.744-2.935 1.313-1.762 0.796-3.585 1.619-4.181 1.856-0.046 0.018-0.093 0.027-0.139 0.027z"></path>
<path d="M21.697 20.758c-0.132 0-0.261-0.070-0.33-0.194-0.102-0.182-0.037-0.412 0.145-0.514 0.34-0.19 0.69-0.338 1.028-0.481 0.226-0.095 0.459-0.194 0.691-0.306 0.188-0.090 0.413-0.011 0.504 0.177s0.011 0.413-0.176 0.504c-0.249 0.12-0.49 0.222-0.724 0.321-0.334 0.141-0.649 0.274-0.953 0.444-0.058 0.033-0.121 0.048-0.184 0.048z"></path>
<path d="M16.601 19.452c-0.116 0-0.231-0.054-0.305-0.155-0.123-0.168-0.086-0.405 0.082-0.527l5.038-3.677c0.169-0.123 0.405-0.086 0.527 0.082s0.086 0.405-0.082 0.527l-5.038 3.677c-0.067 0.049-0.145 0.073-0.222 0.073z"></path>
<path d="M14.089 21.421c-0.113 0-0.225-0.051-0.3-0.147-0.127-0.165-0.096-0.402 0.069-0.529l1.151-0.885c0.165-0.127 0.402-0.096 0.529 0.069s0.096 0.402-0.069 0.529l-1.151 0.885c-0.069 0.053-0.149 0.078-0.23 0.078z"></path>
<path d="M9.214 18.991c-0.037 0-0.075-0.003-0.113-0.010-0.342-0.062-0.569-0.39-0.507-0.732 0.36-1.977 1.080-4.407 1.881-6.342 0.133-0.321 0.501-0.474 0.822-0.341s0.474 0.501 0.341 0.822c-0.769 1.858-1.461 4.19-1.805 6.086-0.055 0.304-0.32 0.517-0.618 0.517z"></path>
<path d="M12.238 10.788c-0.203 0-0.403-0.098-0.524-0.28-0.193-0.289-0.115-0.68 0.175-0.873 0.152-0.101 0.555-0.37 0.932-0.586 0.302-0.173 0.686-0.068 0.859 0.233s0.068 0.686-0.233 0.859c-0.341 0.195-0.718 0.446-0.86 0.541-0.107 0.071-0.229 0.106-0.348 0.106z"></path>
</svg>
