<!-- Generated by IcoMoon.io -->
<svg version="1.1" xmlns="http://www.w3.org/2000/svg" width="32" height="32" viewBox="0 0 32 32">
<title>lime</title>
<path d="M26.014 2.403l0.381 1.072c0.016 0.046 0.049 0.082 0.089 0.101l0.953 0.429c0.135 0.061 0.135 0.275 0 0.336l-0.953 0.429c-0.041 0.018-0.073 0.055-0.089 0.101l-0.381 1.072c-0.054 0.152-0.244 0.152-0.298 0l-0.381-1.072c-0.016-0.046-0.049-0.082-0.089-0.101l-0.953-0.429c-0.135-0.061-0.135-0.275 0-0.336l0.953-0.429c0.041-0.018 0.073-0.055 0.089-0.101l0.381-1.072c0.054-0.151 0.244-0.151 0.298 0z"></path>
<path d="M5.489 2.268c0 0.421-0.342 0.763-0.763 0.763s-0.763-0.342-0.763-0.763c0-0.421 0.342-0.763 0.763-0.763s0.763 0.342 0.763 0.763z"></path>
<path d="M21.71 1.067c0 0.327-0.265 0.593-0.593 0.593s-0.593-0.265-0.593-0.593c0-0.327 0.265-0.592 0.593-0.592s0.593 0.265 0.593 0.592z"></path>
<path d="M29.085 9.107c0.040 0.325-0.191 0.621-0.516 0.661s-0.621-0.191-0.661-0.516c-0.040-0.325 0.191-0.621 0.516-0.661s0.621 0.191 0.661 0.516z"></path>
<path d="M22.857 10.023c-0.748-1.274-1.72-2.404-2.884-3.338 0.267-0.986 0.124-2.029-0.409-2.957-0.553-0.963-1.462-1.688-2.561-2.040s-2.26-0.293-3.27 0.168c-0.974 0.444-1.697 1.21-2.054 2.166-2.434 0.134-4.756 0.987-6.724 2.47-2.055 1.549-3.56 3.672-4.352 6.138s-0.804 5.068-0.035 7.524c0.736 2.351 2.128 4.396 4.029 5.922-0.273 0.991-0.132 2.041 0.405 2.975 0.553 0.963 1.462 1.688 2.561 2.040 0.472 0.152 0.956 0.227 1.435 0.227 0.634 0 1.259-0.132 1.835-0.395 0.98-0.447 1.706-1.219 2.061-2.183 0.32-0.018 0.638-0.049 0.954-0.092 1.93 1.785 4.508 2.878 7.338 2.878 5.964 0 10.816-4.852 10.816-10.816-0-5.395-3.971-9.88-9.143-10.687zM11.757 28.191l-0.005 0.015c-0.223 0.695-0.735 1.256-1.441 1.578-0.726 0.331-1.566 0.372-2.367 0.115s-1.46-0.78-1.858-1.471c-0.386-0.673-0.476-1.426-0.252-2.123l0.004-0.013c0.131-0.396-0.008-0.838-0.344-1.101-3.638-2.844-5.125-7.738-3.7-12.178s5.483-7.553 10.097-7.748c0.43-0.018 0.791-0.289 0.919-0.69 0-0.001 0.001-0.002 0.001-0.003 0.223-0.695 0.735-1.256 1.441-1.578 0.726-0.331 1.566-0.372 2.367-0.115s1.46 0.78 1.858 1.471c0.386 0.673 0.476 1.426 0.254 2.119-0.001 0.003-0.002 0.005-0.003 0.008-0.128 0.4 0.008 0.829 0.347 1.094 0.858 0.671 1.596 1.457 2.205 2.323-0.032-0-0.065-0.001-0.097-0.001-5.964 0-10.816 4.852-10.816 10.816 0 2.566 0.899 4.926 2.397 6.782-0.029 0.002-0.058 0.004-0.087 0.005-0.427 0.018-0.797 0.297-0.921 0.694zM21.184 30.274c-5.274 0-9.564-4.29-9.564-9.564s4.291-9.564 9.564-9.564 9.564 4.291 9.564 9.564-4.29 9.564-9.564 9.564z"></path>
<path d="M29.851 20.020c-0.144-1.837-0.854-3.55-2.053-4.954-0.161-0.188-0.389-0.308-0.634-0.337-0.029-0.245-0.148-0.473-0.337-0.634-1.404-1.199-3.117-1.909-4.954-2.053-0.248-0.020-0.495 0.057-0.689 0.211-0.194-0.153-0.441-0.23-0.689-0.211-1.837 0.144-3.55 0.854-4.954 2.053-0.188 0.161-0.308 0.389-0.337 0.634-0.245 0.029-0.473 0.148-0.634 0.337h0c-1.199 1.404-1.909 3.117-2.053 4.954-0.020 0.248 0.057 0.495 0.211 0.689-0.154 0.194-0.23 0.441-0.211 0.689 0.144 1.837 0.854 3.55 2.053 4.954 0.161 0.189 0.389 0.308 0.634 0.337 0.029 0.245 0.148 0.473 0.337 0.634v-0c1.404 1.199 3.117 1.909 4.954 2.053 0.026 0.002 0.051 0.003 0.077 0.003 0.222 0 0.439-0.076 0.613-0.214 0.174 0.138 0.391 0.214 0.613 0.214 0.026 0 0.051-0.001 0.077-0.003 1.837-0.144 3.55-0.854 4.953-2.053 0.189-0.161 0.308-0.389 0.337-0.634 0.245-0.029 0.473-0.148 0.634-0.337 1.199-1.404 1.909-3.117 2.053-4.954 0.020-0.248-0.057-0.495-0.211-0.689 0.154-0.194 0.23-0.441 0.211-0.689zM27.227 15.554c1.095 1.282 1.744 2.847 1.875 4.525 0.007 0.090-0.036 0.151-0.062 0.179s-0.084 0.076-0.174 0.076h-6.205c-0.142 0-0.2-0.102-0.218-0.146s-0.049-0.157 0.051-0.258l4.388-4.388c0.059-0.059 0.128-0.070 0.169-0.070 0.003 0 0.006 0 0.009 0 0.038 0.001 0.11 0.014 0.168 0.081zM21.184 21.412c-0.070-0.055-0.148-0.102-0.234-0.137s-0.174-0.058-0.263-0.068c-0.011-0.089-0.033-0.177-0.068-0.263s-0.082-0.164-0.137-0.234c0.055-0.070 0.102-0.148 0.137-0.234s0.058-0.174 0.068-0.263c0.089-0.011 0.177-0.032 0.263-0.068s0.164-0.082 0.234-0.138c0.070 0.055 0.148 0.102 0.234 0.138s0.174 0.057 0.263 0.068c0.011 0.089 0.033 0.177 0.068 0.263s0.082 0.164 0.137 0.234c-0.055 0.070-0.102 0.148-0.137 0.234s-0.058 0.174-0.068 0.263c-0.089 0.011-0.177 0.033-0.263 0.068s-0.164 0.082-0.234 0.137zM21.636 12.854c0.026-0.024 0.081-0.063 0.16-0.063 0.006 0 0.013 0 0.019 0.001 1.677 0.132 3.242 0.78 4.525 1.875 0.067 0.057 0.079 0.13 0.081 0.168s-0.006 0.114-0.070 0.178l-4.388 4.388c-0.101 0.101-0.214 0.069-0.258 0.051s-0.146-0.076-0.146-0.218v-6.205c-0-0.090 0.048-0.148 0.076-0.174zM15.948 14.834c0.002-0.038 0.014-0.111 0.081-0.168 1.282-1.095 2.847-1.744 4.525-1.875 0.007-0.001 0.013-0.001 0.019-0.001 0.079 0 0.133 0.039 0.16 0.063 0.028 0.026 0.076 0.084 0.076 0.174v6.205c0 0.142-0.102 0.2-0.146 0.218s-0.157 0.050-0.258-0.051l-4.388-4.388c-0.064-0.064-0.071-0.139-0.070-0.178zM13.265 20.079c0.132-1.678 0.78-3.242 1.875-4.525h0c0.057-0.067 0.129-0.079 0.168-0.081 0.003-0 0.006-0 0.009-0 0.041 0 0.109 0.010 0.168 0.070l4.388 4.388c0.101 0.101 0.069 0.214 0.051 0.257s-0.076 0.146-0.218 0.146h-6.205c-0.090 0-0.148-0.048-0.174-0.076s-0.069-0.089-0.062-0.179zM15.141 25.865c-1.095-1.282-1.744-2.847-1.875-4.525-0.007-0.090 0.036-0.151 0.062-0.179s0.084-0.076 0.174-0.076h6.205c0.142 0 0.2 0.102 0.218 0.146s0.049 0.157-0.051 0.258l-4.388 4.388c-0.064 0.064-0.139 0.071-0.178 0.070s-0.11-0.014-0.168-0.081zM20.732 28.566c-0.028 0.026-0.089 0.069-0.179 0.062-1.677-0.132-3.242-0.78-4.525-1.875l-0-0c-0.067-0.057-0.079-0.129-0.081-0.167s0.005-0.114 0.070-0.178l4.388-4.388c0.055-0.055 0.113-0.071 0.162-0.071 0.041 0 0.075 0.011 0.095 0.019 0.044 0.018 0.146 0.076 0.146 0.218v6.205c0 0.090-0.048 0.148-0.076 0.174zM26.42 26.585c-0.002 0.038-0.014 0.11-0.081 0.168-1.282 1.095-2.847 1.744-4.525 1.875-0.089 0.007-0.151-0.036-0.179-0.062s-0.076-0.084-0.076-0.174v-6.205c0-0.142 0.102-0.2 0.146-0.218 0.020-0.008 0.054-0.019 0.095-0.019 0.049 0 0.107 0.016 0.162 0.071l4.388 4.388c0.064 0.064 0.071 0.139 0.070 0.178zM29.102 21.34c-0.132 1.677-0.78 3.242-1.875 4.525-0.057 0.067-0.129 0.079-0.168 0.081s-0.114-0.006-0.178-0.070l-4.388-4.388c-0.101-0.101-0.069-0.214-0.051-0.258s0.076-0.146 0.218-0.146h6.205c0.090 0 0.148 0.048 0.174 0.076s0.069 0.089 0.062 0.179z"></path>
<path d="M9.435 9.493c-0.245 0-0.479-0.139-0.591-0.375-0.153-0.326-0.013-0.714 0.313-0.868 0.813-0.382 1.704-0.664 2.647-0.838 0.354-0.066 0.694 0.169 0.76 0.523s-0.169 0.694-0.523 0.76c-0.833 0.154-1.617 0.402-2.329 0.736-0.090 0.042-0.184 0.062-0.277 0.062z"></path>
<path d="M3.91 17.386c-0.025 0-0.050-0.001-0.076-0.004-0.358-0.041-0.614-0.365-0.573-0.723 0.051-0.446 0.15-0.909 0.318-1.503 0.332-1.168 0.816-2.254 1.439-3.229 0.462-0.723 1-1.377 1.597-1.943 0.261-0.248 0.674-0.237 0.922 0.025s0.237 0.674-0.025 0.922c-0.52 0.493-0.99 1.065-1.395 1.699-0.554 0.868-0.986 1.838-1.283 2.883-0.149 0.524-0.234 0.923-0.277 1.296-0.038 0.332-0.32 0.577-0.647 0.577z"></path>
<path d="M5.473 22.004c-0.216 0-0.391-0.175-0.391-0.391v-0.789c0-0.216 0.175-0.391 0.391-0.391s0.391 0.175 0.391 0.391v0.789c0 0.216-0.175 0.391-0.391 0.391z"></path>
<path d="M8.091 19.768c-0.216 0-0.391-0.175-0.391-0.391v-0.789c0-0.216 0.175-0.391 0.391-0.391s0.391 0.175 0.391 0.391v0.789c0 0.216-0.175 0.391-0.391 0.391z"></path>
<path d="M8.738 24.798c-0.216 0-0.391-0.175-0.391-0.391v-0.789c0-0.216 0.175-0.391 0.391-0.391s0.391 0.175 0.391 0.391v0.789c0 0.216-0.175 0.391-0.391 0.391z"></path>
</svg>
