<!-- Generated by IcoMoon.io -->
<svg version="1.1" xmlns="http://www.w3.org/2000/svg" width="32" height="32" viewBox="0 0 32 32">
<title>mango</title>
<path d="M2.918 4.123l0.511 1.438c0.022 0.062 0.065 0.11 0.12 0.135l1.277 0.575c0.18 0.081 0.18 0.369 0 0.45l-1.277 0.575c-0.055 0.025-0.098 0.073-0.12 0.135l-0.511 1.438c-0.072 0.203-0.328 0.203-0.4 0l-0.511-1.438c-0.022-0.062-0.065-0.11-0.12-0.135l-1.277-0.575c-0.18-0.081-0.18-0.369 0-0.45l1.277-0.575c0.055-0.025 0.098-0.073 0.12-0.135l0.511-1.438c0.072-0.203 0.328-0.203 0.4 0z"></path>
<path d="M30.013 26.283l0.379 1.066c0.016 0.046 0.048 0.082 0.089 0.1l0.947 0.427c0.134 0.060 0.134 0.274 0 0.334l-0.947 0.427c-0.041 0.018-0.073 0.054-0.089 0.1l-0.379 1.066c-0.054 0.151-0.243 0.151-0.297 0l-0.379-1.066c-0.016-0.046-0.048-0.082-0.089-0.1l-0.947-0.427c-0.134-0.060-0.134-0.274 0-0.334l0.947-0.427c0.041-0.018 0.073-0.054 0.089-0.1l0.379-1.066c0.054-0.151 0.243-0.151 0.297 0z"></path>
<path d="M28.824 8.245c0.609 0.099 1.022 0.672 0.923 1.28s-0.672 1.022-1.28 0.923c-0.609-0.099-1.022-0.672-0.923-1.28s0.672-1.022 1.28-0.923z"></path>
<path d="M4.303 12.662c0.102 0.246-0.015 0.528-0.261 0.629s-0.528-0.015-0.629-0.261c-0.102-0.246 0.015-0.528 0.26-0.629s0.528 0.015 0.629 0.261z"></path>
<path d="M25.431 12.042c-0.56-0.986-1.288-1.825-2.177-2.516 0.691-1.28 1.341-2.696 1.733-3.789 0.001-0.002 0.002-0.005 0.003-0.007 0.39-1.131 0.192-2.030-0.544-2.467-0.353-0.209-0.77-0.258-1.175-0.137-0.516 0.154-0.969 0.565-1.244 1.127-0.133 0.272-0.317 0.699-0.53 1.198-0.615-1.495-1.645-3.209-3.332-4.272-2.162-1.362-4.822-1.3-6.674-1.008-0.591 0.093-1.121 0.45-1.454 0.979s-0.426 1.161-0.255 1.734c0.492 1.647 1.454 3.824 3.277 5.224-0.315 0.13-0.623 0.276-0.92 0.44-2.021 1.114-3.473 2.954-4.089 5.182-1.39 5.020-2.617 7.548-4.235 8.725-0.413 0.3-0.809 0.558-1.159 0.786-1.313 0.855-2.447 1.594-2.132 3.376 0.408 2.304 4.116 4.535 8.627 5.191 0.758 0.11 1.655 0.192 2.642 0.192 1.81 0 3.925-0.275 6.061-1.157 3.179-1.313 5.622-3.641 7.261-6.921 0.612-1.224 1.383-3.282 1.545-5.057 0.242-2.665-0.171-4.96-1.228-6.823zM22.564 6.12c0.24-0.561 0.447-1.045 0.581-1.321 0.142-0.291 0.342-0.439 0.482-0.481 0.093-0.028 0.147-0.007 0.183 0.015 0.197 0.117 0.144 0.579 0.004 0.987-0.332 0.926-0.883 2.144-1.471 3.269 0.007-0.053 0.007-0.107-0.001-0.162-0.008-0.061-0.076-0.524-0.253-1.203 0.169-0.387 0.329-0.762 0.476-1.104zM10.975 2.527c-0.068-0.229-0.026-0.489 0.116-0.714s0.358-0.376 0.594-0.413c1.641-0.258 3.982-0.324 5.817 0.832 2.332 1.469 3.229 4.576 3.504 5.826-0.021 0.005-0.045 0.010-0.067 0.015-0.239-0.466-0.666-1.203-1.331-2.014-1.013-1.236-2.794-2.887-5.522-3.726-0.197-0.061-0.406 0.050-0.467 0.247s0.050 0.406 0.247 0.467c2.538 0.781 4.199 2.315 5.146 3.464 0.546 0.663 0.925 1.279 1.161 1.713-1.521 0.252-4.017 0.398-5.935-0.81-1.835-1.156-2.787-3.296-3.263-4.887zM25.42 18.752c-0.156 1.713-0.965 3.706-1.419 4.613-4.041 8.081-12.252 7.562-14.672 7.211-1.972-0.287-3.856-0.911-5.303-1.758-1.311-0.768-2.141-1.649-2.277-2.418-0.165-0.93 0.221-1.228 1.586-2.116 0.362-0.236 0.773-0.503 1.212-0.823 1.893-1.377 3.211-4.012 4.703-9.4 0.534-1.93 1.741-3.459 3.491-4.424 0.541-0.299 1.12-0.531 1.724-0.698 1.218 0.537 2.523 0.709 3.697 0.709 0.936 0 1.787-0.109 2.442-0.23 3.527 1.51 5.23 4.781 4.817 9.334z"></path>
<path d="M18.9 24.766c-0.206 0-0.373-0.167-0.373-0.373v-0.753c0-0.206 0.167-0.373 0.373-0.373s0.373 0.167 0.373 0.373v0.753c0 0.206-0.167 0.373-0.373 0.373z"></path>
<path d="M16.448 23.085c-0.206 0-0.373-0.167-0.373-0.373v-0.753c0-0.206 0.167-0.373 0.373-0.373s0.373 0.167 0.373 0.373v0.753c0 0.206-0.167 0.373-0.373 0.373z"></path>
<path d="M14.301 26.61c-0.206 0-0.373-0.167-0.373-0.373v-0.753c0-0.206 0.167-0.373 0.373-0.373s0.373 0.167 0.373 0.373v0.753c0 0.206-0.167 0.373-0.373 0.373z"></path>
<path d="M9.979 20.382c-0.105 0-0.212-0.027-0.31-0.083-0.298-0.172-0.4-0.552-0.228-0.85 0.787-1.365 1.196-2.921 1.464-4.125 0.075-0.336 0.408-0.547 0.743-0.472s0.547 0.407 0.472 0.743c-0.288 1.29-0.73 2.965-1.601 4.476-0.115 0.2-0.325 0.312-0.54 0.312z"></path>
<path d="M12.304 14.061c-0.099 0-0.199-0.024-0.293-0.074-0.303-0.162-0.418-0.539-0.256-0.842 0.258-0.483 0.534-0.885 0.845-1.228 0.231-0.255 0.624-0.275 0.879-0.044s0.274 0.624 0.044 0.879c-0.242 0.267-0.461 0.587-0.67 0.979-0.112 0.21-0.327 0.329-0.55 0.329z"></path>
</svg>
