<!-- Generated by IcoMoon.io -->
<svg version="1.1" xmlns="http://www.w3.org/2000/svg" width="32" height="32" viewBox="0 0 32 32">
<title>mushroom</title>
<path d="M6.499 0.156l0.523 1.471c0.022 0.063 0.067 0.113 0.123 0.138l1.307 0.589c0.185 0.083 0.185 0.377 0 0.46l-1.307 0.589c-0.056 0.025-0.1 0.075-0.123 0.138l-0.523 1.471c-0.074 0.208-0.335 0.208-0.409 0l-0.523-1.471c-0.022-0.063-0.067-0.113-0.123-0.138l-1.307-0.589c-0.185-0.083-0.185-0.377 0-0.46l1.307-0.589c0.056-0.025 0.1-0.075 0.123-0.138l0.523-1.471c0.074-0.208 0.335-0.208 0.409 0z"></path>
<path d="M1.576 7.946c0.623 0.101 1.045 0.687 0.944 1.31s-0.687 1.045-1.31 0.944c-0.623-0.101-1.045-0.687-0.944-1.31s0.687-1.045 1.31-0.944z"></path>
<path d="M30.197 3.335l0.388 1.091c0.017 0.047 0.049 0.084 0.091 0.102l0.969 0.437c0.137 0.062 0.137 0.28 0 0.342l-0.969 0.437c-0.041 0.019-0.074 0.056-0.091 0.102l-0.388 1.091c-0.055 0.154-0.249 0.154-0.303 0l-0.388-1.091c-0.017-0.047-0.049-0.084-0.091-0.102l-0.969-0.437c-0.137-0.062-0.137-0.28 0-0.342l0.969-0.437c0.041-0.019 0.074-0.056 0.091-0.102l0.388-1.091c0.055-0.154 0.249-0.154 0.303 0z"></path>
<path d="M26.981 8.561c-2.606-2.606-6.071-4.041-9.756-4.041s-7.15 1.435-9.756 4.041-4.041 6.071-4.041 9.756c0 1.342 0.699 2.713 1.871 3.665 1.175 0.956 2.664 1.334 4.083 1.039 0.926-0.193 1.305-0.745 1.639-1.232 0.297-0.432 0.602-0.877 1.406-1.242 0.102 1.163-0.263 2.45-0.649 3.81-0.261 0.92-0.53 1.871-0.649 2.802-0.178 1.393 0.214 2.791 1.050 3.741 0.624 0.709 1.441 1.1 2.301 1.1h5.387c0.863 0 1.682-0.393 2.307-1.108 0.838-0.958 1.227-2.365 1.040-3.763-0.115-0.858-0.376-1.742-0.628-2.597-0.398-1.347-0.809-2.74-0.635-4.001 0.006-0.044 0.012-0.087 0.017-0.131 0.983 0.382 1.387 0.887 1.781 1.379 0.403 0.504 0.86 1.075 1.828 1.246 1.271 0.224 2.608-0.157 3.668-1.046 1.113-0.933 1.777-2.302 1.777-3.662-0-3.686-1.435-7.151-4.041-9.757zM28.427 21.003c-0.771 0.647-1.729 0.927-2.628 0.768-0.475-0.084-0.667-0.302-1.056-0.788-0.493-0.616-1.157-1.446-2.858-1.956 0.466-0.647 1.225-1.070 2.082-1.070 1.414 0 2.564 1.15 2.564 2.564 0 0.211 0.171 0.382 0.382 0.382s0.382-0.171 0.382-0.382c0-1.835-1.493-3.328-3.328-3.328-1.311 0-2.571 0.896-2.989 1.866-0.212 0.493-0.291 1.070-0.32 1.579-0.084 1.441 0.297 2.867 0.706 4.253 0.25 0.846 0.485 1.645 0.587 2.405 0.139 1.040-0.136 2.070-0.736 2.756-0.269 0.307-0.721 0.673-1.349 0.673h-5.387c-0.625 0-1.076-0.363-1.345-0.668-0.598-0.679-0.876-1.703-0.743-2.738 0.107-0.837 0.352-1.701 0.611-2.616 0.385-1.36 0.782-2.762 0.702-4.113-0.025-0.451-0.073-0.93-0.255-1.363-0.501-1.197-1.69-2.035-3.067-2.035-1.835 0-3.328 1.493-3.328 3.328 0 0.211 0.171 0.382 0.382 0.382s0.382-0.171 0.382-0.382c0-1.414 1.15-2.564 2.564-2.564 0.905 0 1.702 0.472 2.158 1.183-1.612 0.531-2.164 1.334-2.572 1.928-0.302 0.439-0.44 0.621-0.849 0.706-1.058 0.221-2.13-0.057-3.020-0.78-0.864-0.703-1.401-1.728-1.401-2.677 0-6.906 5.618-12.524 12.524-12.524s12.524 5.618 12.524 12.524c0 0.988-0.494 1.992-1.322 2.686z"></path>
<path d="M14.354 8.633c-0.291 0-0.557-0.193-0.639-0.486-0.098-0.353 0.109-0.718 0.462-0.816 0.641-0.178 1.32-0.302 2.018-0.369 0.364-0.035 0.689 0.232 0.724 0.597s-0.232 0.689-0.597 0.724c-0.622 0.060-1.224 0.17-1.791 0.327-0.059 0.016-0.119 0.024-0.178 0.024z"></path>
<path d="M7.662 15.405c-0.054 0-0.11-0.007-0.165-0.021-0.355-0.091-0.569-0.452-0.478-0.807 0.623-2.435 2.251-4.647 4.465-6.068 0.308-0.198 0.719-0.108 0.917 0.2s0.108 0.719-0.2 0.917c-1.935 1.242-3.355 3.167-3.896 5.281-0.077 0.3-0.346 0.499-0.642 0.499z"></path>
<path d="M19.96 24.738c-0.173 0-0.33-0.118-0.371-0.294-0.076-0.32-0.164-0.645-0.27-0.995-0.061-0.202 0.053-0.415 0.255-0.476s0.415 0.053 0.476 0.255c0.11 0.364 0.202 0.704 0.282 1.040 0.049 0.205-0.078 0.411-0.284 0.46-0.030 0.007-0.059 0.010-0.088 0.010z"></path>
<path d="M18.189 29.58c-0.098 0-0.197-0.006-0.296-0.017-0.21-0.025-0.359-0.215-0.334-0.424s0.215-0.359 0.424-0.334c0.508 0.060 1.037-0.113 1.384-0.454 0.465-0.551 0.622-1.391 0.468-2.495-0.029-0.209 0.116-0.402 0.325-0.431s0.402 0.116 0.431 0.325c0.188 1.338-0.032 2.384-0.654 3.109l-0.020 0.021c-0.448 0.448-1.078 0.7-1.728 0.7z"></path>
<path d="M22.145 14.474c-0.211 0-0.382-0.171-0.382-0.382v-0.77c0-0.211 0.171-0.382 0.382-0.382s0.382 0.171 0.382 0.382v0.77c0 0.211-0.171 0.382-0.382 0.382z"></path>
<path d="M24.487 12.964c-0.211 0-0.382-0.171-0.382-0.382v-0.77c0-0.211 0.171-0.382 0.382-0.382s0.382 0.171 0.382 0.382v0.77c0 0.211-0.171 0.382-0.382 0.382z"></path>
<path d="M26.058 15.805c-0.211 0-0.382-0.171-0.382-0.382v-0.77c0-0.211 0.171-0.382 0.382-0.382s0.382 0.171 0.382 0.382v0.77c0 0.211-0.171 0.382-0.382 0.382z"></path>
</svg>
