<!-- Generated by IcoMoon.io -->
<svg version="1.1" xmlns="http://www.w3.org/2000/svg" width="32" height="32" viewBox="0 0 32 32">
<title>olive</title>
<path d="M2.471 6.407l0.517 1.454c0.022 0.062 0.066 0.112 0.121 0.136l1.291 0.582c0.182 0.082 0.182 0.373 0 0.455l-1.292 0.582c-0.055 0.025-0.099 0.074-0.121 0.136l-0.517 1.454c-0.073 0.205-0.331 0.205-0.404 0l-0.517-1.454c-0.022-0.062-0.066-0.112-0.121-0.136l-1.292-0.582c-0.182-0.082-0.182-0.373 0-0.455l1.292-0.582c0.055-0.025 0.099-0.074 0.121-0.136l0.517-1.454c0.073-0.205 0.331-0.205 0.404 0z"></path>
<path d="M30.005 10.772c0 0.493-0.4 0.893-0.893 0.893s-0.893-0.4-0.893-0.893c0-0.493 0.4-0.893 0.893-0.893s0.893 0.4 0.893 0.893z"></path>
<path d="M9.588 11.947c0 0.269-0.218 0.487-0.487 0.487s-0.487-0.218-0.487-0.487c0-0.269 0.218-0.487 0.487-0.487s0.487 0.218 0.487 0.487z"></path>
<path d="M29.442 6.667c1.411 0 2.558-1.148 2.558-2.558s-1.148-2.558-2.558-2.558h-20.395c-1.411 0-2.558 1.148-2.558 2.558s1.148 2.558 2.558 2.558h7.704c0.087 1.209 0.136 2.869-0.098 4.105-0.433 2.286-1.514 4.347-3.219 6.151-2.369-1.298-5.679-0.714-7.993 1.6-1.306 1.306-2.108 2.966-2.258 4.674-0.154 1.75 0.389 3.342 1.53 4.483 1.041 1.041 2.439 1.55 3.911 1.55 1.815 0 3.741-0.774 5.246-2.279 1.934-1.934 2.66-4.564 2.088-6.759 1.704-1.687 2.99-3.592 3.838-5.688 0.602 0.863 1.055 1.806 1.358 2.822-2.051 1.313-3.261 4.032-2.862 6.956 0.484 3.547 3.169 6.167 6.157 6.167 0.229 0 0.461-0.016 0.693-0.047 3.256-0.444 5.481-3.913 4.959-7.732-0.434-3.178-2.634-5.613-5.238-6.084 0.085-0.008 0.169-0.017 0.255-0.024-0.088-0.306-0.186-0.61-0.294-0.911-0.651-1.815-1.521-3.167-2.137-3.982-0.532-0.705-1.13-1.351-1.781-1.925 0.073-0.92 0.123-2.081 0.149-3.077zM7.746 4.109c0-0.717 0.583-1.3 1.3-1.3h20.395c0.717 0 1.3 0.583 1.3 1.3s-0.583 1.3-1.3 1.3h-20.395c-0.717 0-1.3-0.583-1.3-1.3zM12.977 26.061c-2.235 2.235-5.544 2.562-7.377 0.729-0.873-0.873-1.287-2.11-1.166-3.482 0.125-1.414 0.798-2.798 1.895-3.895 1.262-1.262 2.866-1.915 4.354-1.915 1.147 0 2.225 0.389 3.023 1.187 1.833 1.833 1.506 5.142-0.729 7.377zM28.852 22.841c0.427 3.131-1.314 5.964-3.883 6.315-2.567 0.351-5.005-1.912-5.433-5.043s1.314-5.964 3.883-6.315c0.176-0.024 0.352-0.036 0.526-0.036 2.367-0 4.508 2.163 4.906 5.079zM19.846 10.494c0.675 0.565 1.292 1.215 1.835 1.934 0.533 0.705 1.461 2.118 2.096 4.079-0.175 0.006-0.351 0.020-0.528 0.044-0.328 0.045-0.644 0.12-0.949 0.224-0.371-1.168-0.922-2.251-1.654-3.241-0.183-0.248-0.38-0.491-0.584-0.723-0.121-0.137-0.294-0.213-0.472-0.213-0.043 0-0.085 0.004-0.128 0.013-0.221 0.046-0.401 0.207-0.471 0.422-0.703 2.172-1.893 4.142-3.547 5.882-0.227-0.405-0.509-0.781-0.847-1.12-0.044-0.044-0.089-0.086-0.134-0.128 1.806-1.95 2.956-4.182 3.426-6.66 0.254-1.342 0.213-3.066 0.125-4.339h1.781c-0.025 1.006-0.075 2.239-0.171 3.287-0.019 0.206 0.064 0.408 0.223 0.541z"></path>
<path d="M12.283 23.89c-0.066 0-0.133-0.017-0.194-0.054-0.179-0.107-0.237-0.339-0.129-0.518 0.172-0.287 0.336-0.6 0.487-0.932 0.086-0.19 0.31-0.274 0.5-0.188s0.274 0.31 0.188 0.5c-0.163 0.358-0.34 0.697-0.527 1.008-0.071 0.118-0.196 0.183-0.324 0.183z"></path>
<path d="M8.203 26.608c-0.246 0-0.488-0.024-0.724-0.073-0.204-0.043-0.335-0.243-0.292-0.447s0.243-0.335 0.447-0.292c0.991 0.208 2.204-0.172 3.091-0.968 0.155-0.139 0.394-0.126 0.533 0.029s0.127 0.394-0.029 0.533c-0.871 0.782-1.98 1.219-3.026 1.219z"></path>
<path d="M27.461 24.263c-0.026 0-0.052-0.003-0.079-0.008-0.204-0.043-0.334-0.244-0.291-0.448 0.069-0.327 0.122-0.677 0.156-1.040 0.020-0.208 0.204-0.359 0.411-0.341s0.36 0.204 0.341 0.411c-0.037 0.391-0.094 0.77-0.169 1.125-0.038 0.178-0.194 0.3-0.369 0.3z"></path>
<path d="M23.859 28.313c-0.187 0-0.35-0.139-0.374-0.33-0.026-0.207 0.12-0.396 0.327-0.422 1.004-0.127 2.027-0.883 2.605-1.925 0.101-0.182 0.331-0.248 0.513-0.147s0.248 0.331 0.147 0.513c-0.702 1.265-1.917 2.149-3.171 2.307-0.016 0.002-0.032 0.003-0.048 0.003z"></path>
<path d="M9.974 19.735c-0.295 0-0.563-0.201-0.636-0.5-0.086-0.352 0.129-0.707 0.481-0.793 0.272-0.066 0.553-0.113 0.836-0.14 0.361-0.034 0.68 0.232 0.713 0.592s-0.232 0.68-0.592 0.713c-0.219 0.020-0.437 0.057-0.646 0.108-0.052 0.013-0.105 0.019-0.156 0.019z"></path>
<path d="M6.531 22.763c-0.079 0-0.159-0.014-0.237-0.044-0.338-0.131-0.505-0.511-0.375-0.848 0.335-0.864 0.952-1.697 1.738-2.344 0.279-0.23 0.693-0.19 0.923 0.090s0.19 0.693-0.090 0.923c-0.615 0.506-1.094 1.147-1.349 1.805-0.101 0.26-0.349 0.419-0.612 0.419z"></path>
<path d="M23.205 20.351c-0.203 0-0.403-0.094-0.531-0.271-0.213-0.293-0.147-0.703 0.146-0.916 0.226-0.164 0.469-0.314 0.721-0.446 0.321-0.167 0.717-0.043 0.884 0.279s0.043 0.717-0.279 0.884c-0.195 0.102-0.383 0.218-0.557 0.344-0.116 0.084-0.251 0.125-0.384 0.125z"></path>
<path d="M21.161 24.457c-0.357 0-0.649-0.286-0.655-0.644-0.017-0.927 0.24-1.931 0.722-2.827 0.172-0.319 0.57-0.438 0.888-0.266s0.438 0.57 0.266 0.888c-0.378 0.701-0.579 1.476-0.566 2.181 0.007 0.362-0.282 0.661-0.644 0.668-0.004 0-0.008 0-0.012 0z"></path>
</svg>
