<!-- Generated by IcoMoon.io -->
<svg version="1.1" xmlns="http://www.w3.org/2000/svg" width="32" height="32" viewBox="0 0 32 32">
<title>onion</title>
<path d="M10.838 0.269l0.516 1.452c0.022 0.062 0.066 0.111 0.121 0.136l1.29 0.581c0.182 0.082 0.182 0.373 0 0.455l-1.29 0.581c-0.055 0.025-0.099 0.074-0.121 0.136l-0.516 1.452c-0.073 0.205-0.331 0.205-0.404 0l-0.516-1.452c-0.022-0.062-0.066-0.111-0.121-0.136l-1.29-0.581c-0.182-0.082-0.182-0.373 0-0.455l1.29-0.581c0.055-0.025 0.099-0.074 0.121-0.136l0.516-1.452c0.073-0.205 0.331-0.205 0.404 0z"></path>
<path d="M2.253 10.719l0.383 1.077c0.016 0.046 0.049 0.083 0.090 0.101l0.957 0.431c0.135 0.061 0.135 0.276 0 0.337l-0.957 0.431c-0.041 0.018-0.073 0.055-0.090 0.101l-0.383 1.077c-0.054 0.152-0.245 0.152-0.3 0l-0.383-1.077c-0.016-0.046-0.049-0.083-0.090-0.101l-0.957-0.431c-0.135-0.061-0.135-0.276 0-0.337l0.957-0.431c0.041-0.018 0.073-0.055 0.090-0.101l0.383-1.077c0.054-0.152 0.245-0.152 0.3 0z"></path>
<path d="M28.593 5.483c0.621 0.052 1.082 0.597 1.031 1.218s-0.597 1.082-1.218 1.031c-0.621-0.052-1.082-0.597-1.031-1.218s0.597-1.082 1.218-1.031z"></path>
<path d="M8.273 10.42c0.099 0.25-0.022 0.532-0.272 0.632s-0.532-0.022-0.632-0.272c-0.099-0.25 0.022-0.532 0.272-0.632s0.532 0.022 0.632 0.272z"></path>
<path d="M21.924 24.92c-0.119 0-0.236-0.056-0.31-0.161-0.119-0.171-0.078-0.406 0.093-0.525 2.029-1.417 3.189-3.066 3.448-4.9 0.393-2.791-1.454-5.109-1.473-5.132-0.131-0.162-0.107-0.399 0.055-0.53s0.399-0.107 0.53 0.054c0.085 0.104 2.072 2.585 1.636 5.705-0.287 2.054-1.553 3.878-3.764 5.422-0.066 0.046-0.141 0.068-0.216 0.068z"></path>
<path d="M25.702 24.704c-0.124 0-0.246-0.061-0.318-0.174-0.112-0.175-0.061-0.409 0.114-0.521 0.316-0.203 0.558-0.491 0.867-0.876 0.13-0.163 0.367-0.189 0.53-0.059s0.189 0.368 0.059 0.53c-0.342 0.428-0.637 0.776-1.049 1.040-0.063 0.040-0.134 0.060-0.203 0.060z"></path>
<path d="M28.047 21.931c-0.044 0-0.090-0.008-0.134-0.025-0.195-0.074-0.293-0.292-0.219-0.486 0.497-1.31 0.469-2.877-0.078-4.298-0.075-0.194 0.022-0.413 0.217-0.487s0.413 0.022 0.487 0.217c0.613 1.593 0.641 3.355 0.079 4.837-0.057 0.151-0.201 0.243-0.353 0.243z"></path>
<path d="M16.536 12.91c-0.198 0-0.392-0.093-0.515-0.267-0.2-0.284-0.131-0.676 0.153-0.876 0.596-0.419 1.095-1.076 1.525-2.008 0.145-0.315 0.519-0.453 0.834-0.308s0.453 0.519 0.308 0.834c-0.525 1.139-1.161 1.96-1.944 2.511-0.11 0.077-0.236 0.114-0.361 0.114z"></path>
<path d="M19.030 8.29c-0.041 0-0.082-0.004-0.124-0.012-0.34-0.068-0.561-0.399-0.493-0.74 0.043-0.214 0.070-0.377 0.089-0.528 0.043-0.345 0.357-0.589 0.701-0.546s0.589 0.357 0.546 0.702c-0.023 0.183-0.055 0.374-0.104 0.619-0.060 0.299-0.322 0.505-0.616 0.505z"></path>
<path d="M26.853 11.482c-2.069-1.166-3.439-3.248-3.663-5.568l-0.359-3.719c-0.117-1.21-1.122-2.123-2.338-2.123h-1.216c-1.217 0-2.246 0.95-2.341 2.164l-0.283 3.588c-0.189 2.391-1.525 4.512-3.573 5.673-2.115 1.199-3.667 2.902-4.479 4.832l-7.325 2.407c-0.511 0.168-0.924 0.549-1.132 1.045-0.206 0.491-0.19 1.046 0.045 1.522 1.095 2.219 2.96 3.977 5.249 4.949 1.291 0.548 2.668 0.823 4.048 0.823 0.854 0 1.71-0.106 2.547-0.318 1.379 0.983 2.995 1.687 4.739 2.075l-0.893 1.562c-0.172 0.301-0.068 0.685 0.234 0.858 0.098 0.056 0.206 0.083 0.311 0.083 0.218 0 0.43-0.114 0.546-0.317l1.119-1.957c0.415 0.053 0.836 0.088 1.26 0.106v2.135c0 0.347 0.281 0.629 0.629 0.629s0.629-0.281 0.629-0.629v-2.135c0.38-0.016 0.758-0.046 1.131-0.089l1.11 1.941c0.116 0.203 0.328 0.317 0.546 0.317 0.106 0 0.213-0.027 0.311-0.083 0.301-0.172 0.406-0.556 0.234-0.858l-0.878-1.535c2.008-0.427 3.851-1.271 5.365-2.479 2.304-1.839 3.573-4.296 3.573-6.919 0-3.178-1.924-6.16-5.147-7.977zM12.355 16.417c0.19 1.35-0.625 2.67-1.931 3.099s-2.745-0.15-3.393-1.35zM6.305 18.405c0.001 0.001 0.001 0.003 0.002 0.004 0.617 1.25 1.898 2.002 3.239 2.002 0.371 0 0.747-0.058 1.114-0.178 1.693-0.556 2.735-2.297 2.422-4.050-0-0.002-0.001-0.003-0.001-0.005l1.323-0.435c0.009 0.045 0.017 0.088 0.024 0.126 0.434 2.431-1.012 4.847-3.362 5.62-0.51 0.168-1.031 0.247-1.546 0.247-1.86-0-3.638-1.043-4.494-2.777-0.016-0.033-0.034-0.074-0.052-0.117zM4.255 19.079c0.030 0.075 0.063 0.151 0.095 0.215 0.607 1.231 1.641 2.205 2.911 2.744 0.716 0.304 1.479 0.457 2.245 0.457 0.605 0 1.212-0.096 1.797-0.288 1.324-0.435 2.444-1.335 3.154-2.533 0.703-1.187 0.957-2.585 0.716-3.936-0.012-0.070-0.029-0.152-0.045-0.231l1.267-0.416c0.025 0.119 0.050 0.243 0.069 0.346 0.615 3.45-1.436 6.877-4.77 7.973-0.723 0.238-1.463 0.351-2.194 0.351-2.639-0-5.162-1.48-6.376-3.941-0.045-0.090-0.094-0.211-0.138-0.323zM1.316 20.745c-0.101-0.204-0.051-0.387-0.013-0.479 0.067-0.16 0.2-0.283 0.365-0.337l0.598-0.196c0.053 0.138 0.118 0.298 0.179 0.421 0.828 1.678 2.238 3.007 3.97 3.742 0.976 0.414 2.017 0.623 3.061 0.623 0.826 0 1.653-0.13 2.451-0.392 1.806-0.594 3.334-1.82 4.301-3.455 0.958-1.619 1.305-3.525 0.976-5.367-0.024-0.136-0.059-0.304-0.090-0.45l0.587-0.193c0.165-0.054 0.345-0.034 0.494 0.055 0.085 0.051 0.233 0.169 0.273 0.393 0.791 4.435-1.846 8.842-6.133 10.251-0.93 0.306-1.881 0.451-2.82 0.451-3.392-0-6.636-1.903-8.198-5.067zM19.979 27.921c-2.407 0-4.631-0.625-6.426-1.678 2.027-0.863 3.732-2.35 4.861-4.257 1.267-2.14 1.725-4.661 1.291-7.098-0.093-0.522-0.409-0.979-0.866-1.252-0.462-0.276-1.020-0.338-1.531-0.17l-7.005 2.302c0.771-1.247 1.929-2.347 3.397-3.179 2.412-1.367 3.985-3.86 4.207-6.668l0.283-3.588c0.045-0.564 0.523-1.006 1.088-1.006h1.216c0.565 0 1.032 0.424 1.086 0.987l0.359 3.719c0.263 2.729 1.869 5.175 4.297 6.543 2.822 1.591 4.507 4.163 4.507 6.882 0 4.666-4.829 8.462-10.764 8.462z"></path>
</svg>
