<!-- Generated by IcoMoon.io -->
<svg version="1.1" xmlns="http://www.w3.org/2000/svg" width="32" height="32" viewBox="0 0 32 32">
<title>orange</title>
<path d="M8.032 0.732l0.538 1.512c0.023 0.065 0.069 0.116 0.126 0.142l1.344 0.605c0.19 0.086 0.19 0.388 0 0.473l-1.344 0.605c-0.057 0.026-0.103 0.077-0.126 0.142l-0.538 1.512c-0.076 0.214-0.345 0.214-0.421 0l-0.538-1.512c-0.023-0.065-0.069-0.116-0.126-0.142l-1.343-0.605c-0.19-0.086-0.19-0.388 0-0.473l1.343-0.605c0.058-0.026 0.103-0.077 0.126-0.142l0.538-1.512c0.076-0.214 0.345-0.214 0.421 0z"></path>
<path d="M1.907 6.96l0.399 1.122c0.017 0.048 0.051 0.086 0.094 0.105l0.997 0.449c0.141 0.063 0.141 0.288 0 0.351l-0.997 0.449c-0.043 0.019-0.076 0.057-0.094 0.105l-0.399 1.122c-0.056 0.158-0.256 0.158-0.312 0l-0.399-1.122c-0.017-0.048-0.051-0.086-0.094-0.105l-0.997-0.449c-0.141-0.063-0.141-0.288 0-0.351l0.997-0.449c0.043-0.019 0.077-0.057 0.094-0.105l0.399-1.122c0.056-0.158 0.256-0.158 0.312 0z"></path>
<path d="M3.501 2.377c0 0.382-0.31 0.692-0.692 0.692s-0.692-0.31-0.692-0.692 0.31-0.692 0.692-0.692 0.692 0.31 0.692 0.692z"></path>
<path d="M29.869 20.018c-0.143-1.822-0.847-3.52-2.036-4.913-0.16-0.187-0.386-0.306-0.629-0.334-0.028-0.243-0.147-0.47-0.334-0.629v-0c-1.392-1.189-3.091-1.893-4.913-2.036-0.247-0.020-0.491 0.057-0.684 0.209-0.193-0.152-0.438-0.229-0.684-0.209-1.822 0.143-3.52 0.847-4.913 2.036-0.187 0.16-0.306 0.386-0.334 0.629-0.243 0.028-0.47 0.147-0.629 0.334-1.189 1.392-1.893 3.091-2.036 4.913-0.019 0.246 0.057 0.491 0.209 0.684-0.152 0.193-0.229 0.438-0.209 0.684 0.143 1.822 0.847 3.52 2.036 4.913 0.16 0.187 0.386 0.306 0.629 0.334 0.028 0.243 0.147 0.47 0.334 0.629 1.392 1.189 3.091 1.893 4.913 2.036 0.025 0.002 0.051 0.003 0.076 0.003 0.22 0 0.435-0.075 0.608-0.212 0.173 0.137 0.388 0.212 0.608 0.212 0.025 0 0.051-0.001 0.076-0.003 1.822-0.143 3.52-0.847 4.913-2.036 0.187-0.16 0.306-0.386 0.334-0.629 0.243-0.028 0.47-0.147 0.629-0.334 1.189-1.392 1.893-3.091 2.036-4.913 0.019-0.246-0.057-0.491-0.209-0.684 0.152-0.193 0.229-0.438 0.209-0.684zM27.266 15.589c1.086 1.272 1.729 2.824 1.86 4.487 0.007 0.089-0.036 0.149-0.062 0.178s-0.083 0.076-0.172 0.076h-6.154c-0.141 0-0.198-0.101-0.216-0.145s-0.049-0.155 0.051-0.255l4.352-4.352c0.059-0.059 0.127-0.069 0.167-0.069 0.003 0 0.006 0 0.009 0 0.038 0.001 0.11 0.014 0.166 0.080zM21.273 21.398c-0.070-0.055-0.147-0.101-0.232-0.136s-0.172-0.057-0.261-0.068c-0.011-0.088-0.032-0.176-0.068-0.261s-0.082-0.162-0.136-0.232c0.055-0.070 0.101-0.147 0.136-0.232s0.057-0.173 0.068-0.261c0.088-0.010 0.176-0.032 0.261-0.067s0.162-0.082 0.232-0.136c0.070 0.055 0.147 0.101 0.232 0.136s0.172 0.057 0.261 0.067c0.010 0.088 0.032 0.176 0.068 0.261s0.082 0.162 0.136 0.232c-0.055 0.070-0.101 0.147-0.136 0.232s-0.057 0.172-0.068 0.261c-0.088 0.011-0.176 0.032-0.261 0.068s-0.163 0.082-0.232 0.137zM21.721 12.91c0.026-0.024 0.080-0.062 0.158-0.062 0.006 0 0.013 0 0.019 0.001 1.664 0.131 3.215 0.774 4.487 1.86 0.066 0.057 0.079 0.128 0.080 0.166s-0.005 0.113-0.069 0.176l-4.352 4.352c-0.1 0.1-0.212 0.069-0.255 0.051s-0.145-0.075-0.145-0.216v-6.154c0-0.089 0.047-0.146 0.075-0.172zM16.080 14.874c0.002-0.038 0.014-0.11 0.080-0.166 1.272-1.086 2.824-1.729 4.487-1.86 0.088-0.007 0.149 0.036 0.178 0.062s0.076 0.083 0.076 0.172v6.154c0 0.141-0.101 0.198-0.145 0.216s-0.155 0.049-0.255-0.051l-4.352-4.352c-0.064-0.063-0.070-0.138-0.069-0.176zM13.42 20.076c0.131-1.664 0.774-3.215 1.86-4.487 0.057-0.066 0.128-0.079 0.166-0.080s0.113 0.005 0.176 0.069l4.352 4.352c0.1 0.1 0.069 0.212 0.051 0.255s-0.075 0.145-0.217 0.145h-6.154c-0.089 0-0.146-0.047-0.172-0.076s-0.069-0.089-0.062-0.178zM15.28 25.814c-1.086-1.272-1.729-2.824-1.86-4.487-0.007-0.089 0.036-0.149 0.062-0.178s0.083-0.076 0.172-0.076h6.154c0.141 0 0.198 0.101 0.217 0.145s0.049 0.155-0.051 0.255l-4.352 4.352c-0.064 0.064-0.139 0.071-0.176 0.069s-0.11-0.014-0.166-0.080zM20.825 28.493c-0.028 0.026-0.090 0.069-0.178 0.062-1.664-0.131-3.215-0.774-4.487-1.86-0.066-0.057-0.079-0.128-0.080-0.166s0.005-0.113 0.069-0.176l4.352-4.352c0.054-0.054 0.112-0.070 0.161-0.070 0.041 0 0.075 0.011 0.095 0.019 0.044 0.018 0.145 0.075 0.145 0.216v6.154c0 0.089-0.047 0.146-0.075 0.172zM26.466 26.529c-0.001 0.038-0.014 0.11-0.080 0.166-1.272 1.086-2.824 1.729-4.487 1.86-0.088 0.007-0.149-0.036-0.178-0.062s-0.076-0.083-0.076-0.172v-6.154c0-0.141 0.101-0.198 0.145-0.216 0.020-0.008 0.054-0.019 0.095-0.019 0.048 0 0.106 0.016 0.16 0.070 0 0 0 0 0 0l4.352 4.352c0.064 0.064 0.071 0.138 0.069 0.176zM29.126 21.327c-0.131 1.664-0.774 3.215-1.86 4.487-0.057 0.066-0.128 0.079-0.166 0.080s-0.113-0.005-0.176-0.069l-4.352-4.352c-0.1-0.1-0.069-0.212-0.051-0.255s0.075-0.145 0.216-0.145h6.154c0.089 0 0.146 0.047 0.172 0.076s0.069 0.089 0.062 0.177z"></path>
<path d="M26.661 11.429c-0.173-0.246-0.354-0.485-0.543-0.717 1.604-0.58 2.979-1.564 3.98-2.44 0.48-0.419 0.755-1.042 0.755-1.709s-0.275-1.29-0.755-1.709c-1.537-1.343-3.952-2.944-6.728-2.944-2.792 0-5.208 1.626-6.648 2.869-0.083-0.852-0.211-1.68-0.366-2.343-0.001-0.003-0.001-0.006-0.002-0.009-0.247-0.993-0.889-1.585-1.717-1.585-0.446 0-0.854 0.179-1.148 0.503-0.318 0.351-0.471 0.841-0.421 1.347 0.028 0.284 0.096 0.71 0.182 1.248 0.113 0.704 0.25 1.565 0.334 2.358-5.727 1.232-10.032 6.334-10.032 12.423 0 7.007 5.701 12.708 12.708 12.708 0.895 0 1.768-0.095 2.611-0.271 0.773 0.177 1.577 0.271 2.402 0.271 5.915 0 10.727-4.812 10.727-10.727 0-3.952-2.149-7.412-5.339-9.273zM16.814 6.388c1.078-1.065 3.634-3.236 6.555-3.236 2.392 0 4.535 1.434 5.911 2.637 0.21 0.183 0.33 0.466 0.33 0.774s-0.12 0.591-0.33 0.774c-1.377 1.203-3.52 2.637-5.911 2.637-2.582 0-4.889-1.708-6.132-2.838 0.419-0.233 1.041-0.537 1.819-0.795 1.374-0.455 3.534-0.855 6.027-0.183 0.198 0.053 0.403-0.064 0.457-0.263s-0.064-0.403-0.263-0.457c-2.684-0.724-5.007-0.288-6.483 0.204-0.884 0.295-1.573 0.641-2.020 0.897 0.020-0.049 0.033-0.1 0.040-0.154zM14.476 3.744c-0.079-0.497-0.148-0.926-0.173-1.173-0.015-0.155 0.024-0.302 0.106-0.392 0.058-0.064 0.133-0.095 0.228-0.095 0.304 0 0.451 0.399 0.511 0.64 0.199 0.855 0.354 2.059 0.413 3.171-0.053 0.057-0.097 0.106-0.133 0.146-0.207 0.013-0.412 0.032-0.617 0.055-0.088-0.804-0.224-1.653-0.336-2.352zM16.26 30.187c-6.323 0-11.467-5.144-11.467-11.467 0-6.101 4.79-11.104 10.806-11.447 0.561 0.599 1.92 1.926 3.745 2.875-4.998 0.911-8.798 5.296-8.798 10.553 0 4.108 2.322 7.684 5.722 9.486-0.003-0-0.005 0-0.008 0zM21.273 30.187c-5.23 0-9.486-4.255-9.486-9.486s4.255-9.486 9.486-9.486 9.486 4.255 9.486 9.486-4.255 9.486-9.486 9.486z"></path>
<path d="M9.034 24.574c-0.206 0-0.372-0.167-0.372-0.372v-0.667c0-0.206 0.167-0.372 0.372-0.372s0.372 0.167 0.372 0.372v0.667c0 0.206-0.167 0.372-0.372 0.372z"></path>
<path d="M7.104 22.473c-0.206 0-0.372-0.167-0.372-0.372v-0.667c0-0.206 0.167-0.372 0.372-0.372s0.372 0.167 0.372 0.372v0.667c0 0.206-0.167 0.372-0.372 0.372z"></path>
<path d="M8.822 20.954c-0.206 0-0.372-0.167-0.372-0.372v-0.667c0-0.206 0.167-0.372 0.372-0.372s0.372 0.167 0.372 0.372v0.667c0 0.206-0.167 0.372-0.372 0.372z"></path>
<path d="M12.289 10.905c-0.233 0-0.456-0.132-0.562-0.356-0.146-0.31-0.013-0.68 0.297-0.826 0.122-0.057 0.246-0.113 0.37-0.165 0.316-0.133 0.68 0.015 0.813 0.331s-0.015 0.68-0.331 0.813c-0.108 0.046-0.217 0.094-0.323 0.144-0.085 0.040-0.176 0.059-0.264 0.059z"></path>
<path d="M7.527 16.084c-0.074 0-0.149-0.013-0.222-0.041-0.32-0.123-0.48-0.482-0.358-0.802 0.478-1.248 1.221-2.422 2.148-3.395 0.28-0.294 0.581-0.574 0.893-0.831 0.265-0.218 0.656-0.18 0.874 0.085s0.18 0.656-0.085 0.874c-0.274 0.225-0.537 0.471-0.783 0.729-0.815 0.855-1.467 1.886-1.887 2.983-0.095 0.247-0.33 0.399-0.58 0.399z"></path>
</svg>
