<!-- Generated by IcoMoon.io -->
<svg version="1.1" xmlns="http://www.w3.org/2000/svg" width="32" height="32" viewBox="0 0 32 32">
<title>papaya</title>
<path d="M30.079 19.521l0.392 1.101c0.017 0.047 0.050 0.084 0.092 0.103l0.979 0.441c0.138 0.062 0.138 0.283 0 0.345l-0.979 0.441c-0.042 0.019-0.075 0.056-0.092 0.103l-0.392 1.101c-0.055 0.156-0.251 0.156-0.306 0l-0.392-1.101c-0.017-0.047-0.050-0.084-0.092-0.103l-0.979-0.441c-0.138-0.062-0.138-0.283 0-0.345l0.979-0.441c0.042-0.019 0.075-0.056 0.092-0.103l0.392-1.101c0.055-0.156 0.251-0.156 0.306 0z"></path>
<path d="M10.029 1.162c0.632 0.078 1.082 0.653 1.004 1.286s-0.653 1.082-1.286 1.004c-0.632-0.078-1.082-0.653-1.004-1.286s0.653-1.082 1.286-1.004z"></path>
<path d="M4.5 0.497c0 0.275-0.223 0.497-0.497 0.497s-0.497-0.223-0.497-0.497c0-0.275 0.223-0.497 0.497-0.497s0.497 0.223 0.497 0.497z"></path>
<path d="M2.88 4.483l0.528 1.485c0.023 0.064 0.067 0.114 0.124 0.139l1.319 0.594c0.186 0.084 0.186 0.381 0 0.465l-1.319 0.594c-0.057 0.025-0.101 0.076-0.124 0.139l-0.528 1.485c-0.075 0.21-0.338 0.21-0.413 0l-0.528-1.485c-0.023-0.064-0.067-0.114-0.124-0.139l-1.319-0.594c-0.186-0.084-0.186-0.381 0-0.465l1.319-0.594c0.056-0.025 0.101-0.076 0.124-0.139l0.528-1.485c0.075-0.21 0.338-0.21 0.413 0z"></path>
<path d="M28.066 7.254c-0.4-1.999-1.414-3.613-2.932-4.667-1.436-0.998-2.532-1.607-3.452-1.895-1.488-0.716-3.138-0.679-4.911 0.114-1.582 0.708-3.2 1.99-4.809 3.81-0.496 0.561-2.251 2.473-4.033 3.525-1.665 0.983-3.739 2.396-5.012 4.616-1.392 2.428-1.898 5.509-1.389 8.454 0.515 2.98 1.965 5.42 4.095 6.905 0.939 0.893 2.154 1.784 3.669 2.695 1.31 0.788 2.881 1.188 4.588 1.188 1 0 2.047-0.137 3.115-0.415 1.616-0.42 3.188-1.148 4.546-2.106 1.418-1 2.572-2.233 3.335-3.565 0.845-1.474 0.954-3.030 1.060-4.535 0.048-0.687 0.094-1.336 0.206-1.974 0.335-1.911 1.033-4.639 1.348-5.604 0.765-2.346 0.965-4.61 0.577-6.547zM4.033 13.397c1.116-1.947 2.927-3.19 4.55-4.148 1.945-1.148 3.816-3.184 4.343-3.781 1.45-1.641 3.975-3.998 6.518-3.998 0.656 0 1.314 0.157 1.955 0.524 2.492 1.429 2.95 4.249 1.442 8.875-0.326 0.999-1.047 3.815-1.392 5.78-0.123 0.704-0.173 1.417-0.222 2.106-0.1 1.423-0.194 2.767-0.893 3.986-1.402 2.445-4.235 4.437-7.393 5.198-2.468 0.595-4.739 0.328-6.393-0.75-3.971-2.588-5.17-9.162-2.515-13.793zM26.267 13.402c-0.326 1-1.047 3.815-1.392 5.78-0.123 0.704-0.173 1.417-0.222 2.106-0.1 1.423-0.194 2.767-0.893 3.986-1.339 2.336-4.056 4.278-7.090 5.066-2.553 0.663-4.938 0.44-6.716-0.631-0.117-0.071-0.232-0.141-0.345-0.211 0.276 0.023 0.556 0.036 0.84 0.036 0.896 0 1.833-0.114 2.792-0.345 3.491-0.841 6.636-3.066 8.208-5.808 0.845-1.474 0.954-3.031 1.060-4.536 0.048-0.687 0.094-1.336 0.206-1.974 0.335-1.912 1.033-4.639 1.348-5.604 0.813-2.493 1.084-4.516 0.83-6.184-0.072-0.475-0.189-0.92-0.348-1.336 2.458 1.825 3.104 5.415 1.722 9.654z"></path>
<path d="M10.117 26.688c-1.295 0-2.484-0.344-3.451-1.014-1.622-1.124-2.653-3.074-2.902-5.493-0.237-2.303 0.291-4.726 1.45-6.646 1.058-1.752 2.683-2.891 3.981-3.688h-0c1.427-0.876 2.871-2.439 3.279-2.897 2.976-3.337 5.519-4.405 7.558-3.174 2.226 1.343 2.583 4.098 1.063 8.188-0.289 0.777-0.959 2.97-1.31 4.503-0.067 0.292-0.132 0.598-0.2 0.922-0.328 1.546-0.699 3.298-1.525 4.666-1.329 2.201-3.732 3.907-6.271 4.451-0.57 0.122-1.13 0.182-1.672 0.182zM18.279 4.058c-1.457 0-3.208 1.139-5.229 3.405-0.426 0.478-1.935 2.11-3.451 3.041 0 0 0 0-0 0-1.299 0.797-2.758 1.828-3.724 3.429-2.284 3.785-1.697 9.078 1.231 11.106 1.195 0.828 2.801 1.081 4.523 0.712 2.338-0.501 4.55-2.070 5.772-4.095 0.759-1.257 1.116-2.941 1.431-4.427 0.069-0.327 0.135-0.636 0.203-0.934 0.358-1.563 1.043-3.803 1.338-4.599 1.372-3.693 1.124-6.135-0.739-7.259-0.418-0.252-0.87-0.378-1.354-0.378zM9.397 10.176h0.001z"></path>
<path d="M9.833 21.956c-0.441 0-0.803-0.075-1.037-0.228-0.556-0.364-0.996-1.567-1.096-2.994-0.069-0.987-0.018-2.897 1.104-4.61 1.111-1.696 2.877-2.499 3.831-2.827 1.339-0.46 2.629-0.55 3.137-0.217s0.941 1.551 1.054 2.963c0.080 1.005 0.049 2.945-1.062 4.641-1.122 1.713-2.853 2.523-3.785 2.854-0.78 0.277-1.538 0.419-2.145 0.419zM14.843 11.653c-0.438 0-1.124 0.086-1.958 0.373-0.861 0.296-2.451 1.017-3.436 2.521-0.998 1.523-1.042 3.243-0.98 4.133 0.099 1.416 0.537 2.263 0.749 2.402s1.164 0.202 2.502-0.272c0.841-0.298 2.4-1.026 3.398-2.549 0.985-1.504 1.011-3.25 0.938-4.157-0.113-1.42-0.552-2.277-0.708-2.379-0.059-0.039-0.236-0.072-0.506-0.072z"></path>
<path d="M11.92 14.543c-0.079 0-0.159-0.024-0.227-0.074-0.172-0.126-0.209-0.367-0.084-0.539l0.575-0.786c0.126-0.172 0.367-0.209 0.539-0.084s0.209 0.367 0.084 0.539l-0.575 0.786c-0.075 0.103-0.193 0.158-0.312 0.158z"></path>
<path d="M13.449 16.354c-0.079 0-0.159-0.024-0.227-0.074-0.172-0.126-0.209-0.367-0.084-0.539l0.575-0.786c0.126-0.172 0.367-0.209 0.539-0.084s0.209 0.367 0.084 0.539l-0.575 0.786c-0.075 0.103-0.193 0.158-0.312 0.158z"></path>
<path d="M9.664 16.8c-0.079 0-0.159-0.024-0.227-0.074-0.172-0.126-0.209-0.367-0.084-0.539l0.575-0.786c0.126-0.172 0.367-0.209 0.539-0.084s0.209 0.367 0.084 0.539l-0.575 0.786c-0.075 0.103-0.193 0.158-0.312 0.158z"></path>
<path d="M11.356 17.824c-0.079 0-0.159-0.024-0.227-0.074-0.172-0.126-0.209-0.367-0.084-0.539l0.575-0.786c0.126-0.172 0.367-0.209 0.539-0.084s0.209 0.367 0.084 0.539l-0.575 0.786c-0.075 0.103-0.193 0.158-0.312 0.158z"></path>
<path d="M9.337 19.264c-0.079 0-0.159-0.024-0.227-0.074-0.172-0.126-0.209-0.367-0.084-0.539l0.575-0.786c0.126-0.172 0.367-0.209 0.539-0.084s0.209 0.367 0.084 0.539l-0.575 0.786c-0.075 0.103-0.193 0.158-0.312 0.158z"></path>
<path d="M14.075 13.987c-0.079 0-0.159-0.024-0.227-0.074-0.172-0.126-0.209-0.367-0.084-0.539l0.575-0.786c0.126-0.172 0.367-0.209 0.539-0.084s0.209 0.367 0.084 0.539l-0.575 0.786c-0.075 0.103-0.193 0.158-0.312 0.158z"></path>
<path d="M13.734 18.306c-0.079 0-0.159-0.024-0.227-0.074-0.172-0.126-0.209-0.367-0.084-0.539l0.575-0.786c0.126-0.172 0.367-0.209 0.539-0.084s0.209 0.367 0.084 0.539l-0.575 0.786c-0.075 0.103-0.193 0.158-0.312 0.158z"></path>
<path d="M11.552 20.028c-0.079 0-0.159-0.024-0.227-0.074-0.172-0.126-0.209-0.367-0.084-0.539l0.575-0.786c0.126-0.172 0.367-0.209 0.539-0.084s0.209 0.367 0.084 0.539l-0.575 0.786c-0.075 0.103-0.193 0.158-0.312 0.158z"></path>
<path d="M12.883 10.008c-0.152 0-0.305-0.054-0.427-0.163-0.265-0.236-0.289-0.642-0.053-0.908 1.107-1.243 2.243-2.261 3.378-3.025 0.295-0.198 0.694-0.12 0.892 0.174s0.12 0.694-0.174 0.892c-1.046 0.704-2.101 1.65-3.136 2.813-0.127 0.143-0.303 0.215-0.48 0.215z"></path>
<path d="M17.827 6.225c-0.275 0-0.529-0.177-0.614-0.453-0.105-0.339 0.085-0.699 0.424-0.804 0.157-0.048 0.346-0.1 0.554-0.116 0.353-0.026 0.662 0.239 0.689 0.593s-0.239 0.662-0.593 0.689c-0.080 0.006-0.181 0.035-0.269 0.062-0.063 0.020-0.127 0.029-0.19 0.029z"></path>
</svg>
