<!-- Generated by IcoMoon.io -->
<svg version="1.1" xmlns="http://www.w3.org/2000/svg" width="32" height="32" viewBox="0 0 32 32">
<title>paprika</title>
<path d="M29.967 4.944l0.411 1.156c0.018 0.050 0.052 0.089 0.096 0.109l1.027 0.463c0.145 0.065 0.145 0.297 0 0.362l-1.027 0.463c-0.044 0.020-0.079 0.059-0.096 0.109l-0.411 1.156c-0.058 0.163-0.264 0.163-0.322 0l-0.411-1.156c-0.018-0.050-0.052-0.089-0.096-0.109l-1.027-0.463c-0.145-0.065-0.145-0.297 0-0.362l1.027-0.463c0.044-0.020 0.079-0.059 0.096-0.109l0.411-1.156c0.058-0.163 0.264-0.163 0.322 0z"></path>
<path d="M25.399 2.686c0 0.288-0.234 0.522-0.522 0.522s-0.522-0.234-0.522-0.522c0-0.288 0.234-0.522 0.522-0.522s0.522 0.234 0.522 0.522z"></path>
<path d="M3.039 0.165l0.554 1.558c0.024 0.067 0.071 0.12 0.13 0.146l1.385 0.624c0.196 0.088 0.196 0.4 0 0.488l-1.385 0.624c-0.059 0.027-0.106 0.080-0.13 0.146l-0.554 1.558c-0.078 0.22-0.355 0.22-0.433 0l-0.554-1.558c-0.024-0.067-0.071-0.12-0.13-0.146l-1.385-0.624c-0.196-0.088-0.196-0.4 0-0.488l1.385-0.624c0.059-0.027 0.106-0.080 0.13-0.146l0.554-1.558c0.078-0.22 0.355-0.22 0.433-0z"></path>
<path d="M26.858 10.541c-0.798-1.283-1.994-2.158-3.365-2.464l-2.545-0.568c-0.964-0.988-2.181-1.58-3.476-1.698v-3.394c0-1.206-0.981-2.186-2.186-2.186h-0.568c-1.206 0-2.186 0.981-2.186 2.186v3.569c-0.938 0.263-1.807 0.784-2.532 1.53l-2.419 0.478c-1.376 0.272-2.587 1.116-3.411 2.376-0.947 1.45-1.269 3.281-0.883 5.024l2.553 11.527c0.327 1.476 1.131 2.75 2.265 3.586 0.889 0.655 1.914 0.997 2.961 0.997 0.314 0 0.63-0.031 0.945-0.093l0.275-0.054c0.783 0.42 1.646 0.642 2.535 0.642h1.317c0.871 0 1.718-0.214 2.488-0.618 0.348 0.076 0.697 0.114 1.045 0.114 1.006 0 1.994-0.316 2.861-0.925 1.15-0.809 1.98-2.063 2.335-3.532l2.774-11.461c0.419-1.73 0.134-3.567-0.782-5.038zM13.793 2.417c0-0.509 0.414-0.924 0.924-0.924h0.568c0.509 0 0.924 0.414 0.924 0.924v3.372h-2.244c-0.057 0-0.115 0.001-0.172 0.003v-3.375zM7.071 26.649l-2.553-11.527c-0.313-1.414-0.055-2.894 0.707-4.061 0.636-0.973 1.559-1.622 2.599-1.828l1.086-0.215c-0.604 1.143-0.889 2.474-0.8 3.834l0.853 13.048c0.108 1.649 0.758 3.181 1.832 4.313 0.005 0.005 0.010 0.010 0.015 0.015-1.742-0.133-3.291-1.553-3.74-3.58zM14.819 30.738c-2.396 0-4.415-2.161-4.595-4.92l-0.853-13.048c-0.106-1.626 0.429-3.196 1.469-4.306 0.854-0.911 1.964-1.413 3.126-1.413h3.024c1.162 0 2.272 0.502 3.126 1.413 1.040 1.11 1.576 2.68 1.469 4.306l-0.853 13.048c-0.18 2.759-2.199 4.92-4.595 4.92zM26.413 15.282l-2.774 11.461c-0.455 1.879-1.857 3.206-3.458 3.447 1.061-1.13 1.704-2.651 1.811-4.29l0.853-13.048c0.088-1.347-0.191-2.666-0.784-3.802l1.157 0.258c1.039 0.232 1.951 0.906 2.569 1.899 0.738 1.185 0.966 2.67 0.626 4.073z"></path>
<path d="M16.874 28.997c-0.139 0-0.273-0.077-0.339-0.209-0.094-0.187-0.018-0.415 0.169-0.508 0.006-0.003 0.856-0.46 1.433-1.902 0.509-1.272 0.707-6.458 0.74-8.349 0.004-0.209 0.179-0.378 0.385-0.372 0.209 0.004 0.376 0.176 0.372 0.385-0.005 0.283-0.13 6.956-0.794 8.617-0.692 1.729-1.753 2.275-1.797 2.298-0.054 0.027-0.112 0.040-0.169 0.040z"></path>
<path d="M19.256 16.555c-0.008 0-0.015-0-0.023-0.001-0.209-0.012-0.368-0.192-0.356-0.4l0.099-1.684c0.012-0.209 0.193-0.37 0.4-0.356 0.209 0.012 0.368 0.191 0.356 0.4l-0.099 1.684c-0.012 0.201-0.179 0.357-0.378 0.357z"></path>
<path d="M11.967 18.522c-0.307 0-0.576-0.224-0.623-0.537-0.28-1.856-0.339-3.655-0.175-5.349 0.034-0.347 0.341-0.601 0.689-0.567 0.347 0.034 0.601 0.342 0.567 0.689-0.154 1.59-0.098 3.285 0.167 5.038 0.052 0.345-0.185 0.666-0.53 0.718-0.032 0.005-0.064 0.007-0.095 0.007z"></path>
<path d="M12.391 10.87c-0.103 0-0.207-0.025-0.304-0.079-0.305-0.168-0.416-0.552-0.248-0.858 0.2-0.363 0.45-0.774 0.891-1.063 0.291-0.191 0.683-0.11 0.874 0.182s0.11 0.683-0.182 0.874c-0.2 0.131-0.335 0.357-0.478 0.617-0.115 0.209-0.331 0.327-0.553 0.327z"></path>
</svg>
