<!-- Generated by IcoMoon.io -->
<svg version="1.1" xmlns="http://www.w3.org/2000/svg" width="32" height="32" viewBox="0 0 32 32">
<title>passion-fruit</title>
<path d="M30.75 4.010c0 0.268-0.218 0.486-0.486 0.486s-0.486-0.218-0.486-0.486 0.218-0.486 0.486-0.486 0.486 0.218 0.486 0.486z"></path>
<path d="M20.624 0.178l0.516 1.451c0.022 0.062 0.066 0.111 0.121 0.136l1.289 0.581c0.182 0.082 0.182 0.372 0 0.454l-1.289 0.581c-0.055 0.025-0.099 0.074-0.121 0.136l-0.516 1.451c-0.073 0.205-0.331 0.205-0.404 0l-0.516-1.451c-0.022-0.062-0.066-0.111-0.121-0.136l-1.289-0.581c-0.182-0.082-0.182-0.372 0-0.454l1.289-0.581c0.055-0.025 0.099-0.074 0.121-0.136l0.516-1.451c0.073-0.205 0.331-0.205 0.404 0z"></path>
<path d="M30.47 7.516l0.383 1.076c0.016 0.046 0.049 0.083 0.090 0.101l0.956 0.431c0.135 0.061 0.135 0.276 0 0.337l-0.956 0.431c-0.041 0.018-0.073 0.055-0.090 0.101l-0.383 1.076c-0.054 0.152-0.245 0.152-0.299 0l-0.383-1.076c-0.016-0.046-0.049-0.083-0.090-0.101l-0.956-0.431c-0.135-0.061-0.135-0.276 0-0.337l0.956-0.431c0.041-0.018 0.073-0.055 0.090-0.101l0.383-1.076c0.054-0.152 0.245-0.152 0.299 0z"></path>
<path d="M25.262 7.647c0 0.478-0.387 0.865-0.865 0.865s-0.865-0.387-0.865-0.865c0-0.478 0.387-0.865 0.865-0.865s0.865 0.387 0.865 0.865z"></path>
<path d="M21.363 10.751c-0.281 0-0.56 0.011-0.835 0.033-0.289-0.428-0.602-0.84-0.939-1.23-1.674-1.936-3.778-3.199-6.068-3.674v-3.829c0-1.087-0.885-1.972-1.972-1.972h-0.183c-1.087 0-1.972 0.885-1.972 1.972v3.829c-2.29 0.475-4.394 1.738-6.068 3.674-2.144 2.479-3.324 5.77-3.324 9.266s1.181 6.787 3.324 9.266c2.166 2.505 5.054 3.885 8.132 3.885 1.723 0 3.386-0.434 4.896-1.255 1.493 0.803 3.199 1.259 5.010 1.259 5.852 0 10.613-4.761 10.613-10.613s-4.761-10.613-10.613-10.613zM10.649 2.050c0-0.395 0.321-0.716 0.716-0.716h0.183c0.395 0 0.716 0.321 0.716 0.716v3.65c-0.268-0.021-0.537-0.032-0.807-0.032s-0.54 0.011-0.807 0.032zM11.456 30.715c-5.624 0-10.2-5.336-10.2-11.895s4.576-11.896 10.2-11.896c3.055 0 5.8 1.575 7.671 4.064-4.782 1.030-8.377 5.29-8.377 10.375 0 3.513 1.716 6.632 4.353 8.564-1.133 0.508-2.362 0.788-3.647 0.788zM21.363 30.72c-5.159 0-9.356-4.197-9.356-9.357s4.197-9.356 9.356-9.356 9.357 4.197 9.357 9.356c0 5.159-4.197 9.357-9.357 9.357z"></path>
<path d="M21.363 29.735c-4.616 0-8.372-3.756-8.372-8.372s3.755-8.372 8.372-8.372c4.616 0 8.372 3.755 8.372 8.372s-3.756 8.372-8.372 8.372zM21.363 13.745c-4.201 0-7.618 3.417-7.618 7.618s3.417 7.618 7.618 7.618c4.201 0 7.618-3.417 7.618-7.618s-3.417-7.618-7.618-7.618z"></path>
<path d="M21.363 28.045c-3.684 0-6.682-2.998-6.682-6.682s2.998-6.682 6.682-6.682 6.682 2.998 6.682 6.682c0 3.684-2.997 6.682-6.682 6.682zM21.363 15.435c-3.269 0-5.928 2.659-5.928 5.928s2.659 5.928 5.928 5.928 5.928-2.66 5.928-5.928-2.659-5.928-5.928-5.928z"></path>
<path d="M18.946 20.007c-0.217 0-0.393-0.176-0.393-0.393v-0.792c0-0.217 0.176-0.393 0.393-0.393s0.393 0.176 0.393 0.393v0.792c0 0.217-0.176 0.393-0.393 0.393z"></path>
<path d="M21.614 18.293c-0.217 0-0.393-0.176-0.393-0.393v-0.792c0-0.217 0.176-0.393 0.393-0.393s0.393 0.176 0.393 0.393v0.792c0 0.217-0.176 0.393-0.393 0.393z"></path>
<path d="M23.363 20.943c-0.217 0-0.393-0.176-0.393-0.393v-0.792c0-0.217 0.176-0.393 0.393-0.393s0.393 0.176 0.393 0.393v0.792c0 0.217-0.176 0.393-0.393 0.393z"></path>
<path d="M25.431 23.063c-0.217 0-0.393-0.176-0.393-0.393v-0.792c0-0.217 0.176-0.393 0.393-0.393s0.393 0.176 0.393 0.393v0.792c0 0.217-0.176 0.393-0.393 0.393z"></path>
<path d="M21.137 23.364c-0.217 0-0.393-0.176-0.393-0.393v-0.792c0-0.217 0.176-0.393 0.393-0.393s0.393 0.176 0.393 0.393v0.792c0 0.217-0.176 0.393-0.393 0.393z"></path>
<path d="M17.939 24.053c-0.217 0-0.393-0.176-0.393-0.393v-0.792c0-0.217 0.176-0.393 0.393-0.393s0.393 0.176 0.393 0.393v0.792c0 0.217-0.176 0.393-0.393 0.393z"></path>
<path d="M22.886 25.943c-0.217 0-0.393-0.176-0.393-0.393v-0.792c0-0.217 0.176-0.393 0.393-0.393s0.393 0.176 0.393 0.393v0.792c0 0.217-0.176 0.393-0.393 0.393z"></path>
<path d="M8.229 11.031c-0.198 0-0.392-0.093-0.514-0.267-0.199-0.284-0.131-0.675 0.153-0.875 0.532-0.374 1.1-0.665 1.687-0.866 0.328-0.112 0.685 0.063 0.797 0.392s-0.063 0.685-0.392 0.797c-0.475 0.162-0.936 0.399-1.37 0.704-0.11 0.077-0.236 0.114-0.361 0.114z"></path>
<path d="M3.811 18.719c-0.027 0-0.054-0.002-0.082-0.005-0.344-0.045-0.587-0.36-0.542-0.704 0.289-2.223 1.549-5.021 2.868-6.37 0.242-0.248 0.64-0.252 0.888-0.010s0.252 0.64 0.010 0.888c-1.135 1.161-2.266 3.697-2.52 5.654-0.041 0.317-0.311 0.547-0.622 0.547z"></path>
</svg>
