<!-- Generated by IcoMoon.io -->
<svg version="1.1" xmlns="http://www.w3.org/2000/svg" width="32" height="32" viewBox="0 0 32 32">
<title>peach</title>
<path d="M29.993 3.032l0.502 1.412c0.021 0.060 0.064 0.108 0.118 0.133l1.254 0.565c0.177 0.080 0.177 0.362 0 0.442l-1.254 0.565c-0.054 0.024-0.096 0.072-0.118 0.133l-0.502 1.412c-0.071 0.199-0.322 0.199-0.393 0l-0.502-1.412c-0.021-0.060-0.064-0.108-0.118-0.133l-1.254-0.565c-0.177-0.080-0.177-0.362 0-0.442l1.254-0.565c0.054-0.024 0.096-0.072 0.118-0.133l0.502-1.412c0.071-0.199 0.322-0.199 0.393 0z"></path>
<path d="M26.708 2.458c0 0.497-0.403 0.901-0.901 0.901s-0.901-0.403-0.901-0.901c0-0.497 0.403-0.901 0.901-0.901s0.901 0.403 0.901 0.901z"></path>
<path d="M23.409 5.978c0.006-0.199-0.002-0.4-0.027-0.602-0.137-1.106-0.767-2.096-1.773-2.787-1.315-0.904-3.089-1.169-4.867-0.728-1.836 0.456-2.988 1.624-3.908 2.911-1.427-1.057-3.891-2.211-5.875-1.965-1.629 0.202-3.112 0.84-4.178 1.795-1.129 1.012-1.664 2.261-1.509 3.517 0.051 0.413 0.176 0.806 0.367 1.174-3.423 5.404-1.164 13.473 3.826 17.212 3.267 2.179 5.136 2.87 11.564 3.939 5.929-1.315 11.021-7.37 11.323-13.728 0.376-4.41-1.743-8.548-4.943-10.736zM17.045 3.082c1.429-0.354 2.832-0.156 3.851 0.544 0.602 0.413 1.009 0.967 1.173 1.582-2.494-1.178-5.449-1.228-8.339 0.475 0.753-1.094 1.716-2.204 3.314-2.601zM3.621 5.538c0.876-0.786 2.116-1.312 3.492-1.483 0.133-0.016 0.27-0.024 0.411-0.024 1.269 0 2.818 0.638 3.955 1.342-3.269-0.793-6.719 0.147-8.941 2.703-0.007-0.037-0.013-0.075-0.017-0.113-0.103-0.835 0.287-1.696 1.1-2.425zM27.095 16.652c-0.316 5.744-4.879 11.164-10.094 12.522-6.080-1.059-7.715-1.642-10.765-3.665-6.923-4.966-7.086-18.732 2.926-19.155 5.507 0.059 10.016 5.215 10.76 10.651 0.12 0.816 1.357 0.637 1.246-0.176-0.572-4.112-3.048-8.055-6.606-10.167 6.638-3.689 13.164 3.049 12.533 9.99z"></path>
<path d="M4.509 19.218c-0.26 0-0.503-0.162-0.594-0.421-0.725-2.068-0.757-4.218-0.089-5.897 0.128-0.323 0.494-0.48 0.817-0.352s0.481 0.494 0.352 0.817c-0.549 1.381-0.509 3.256 0.108 5.015 0.115 0.328-0.058 0.687-0.386 0.802-0.069 0.024-0.139 0.036-0.208 0.036z"></path>
<path d="M5.427 11.503c-0.073 0-0.147-0.013-0.22-0.040-0.326-0.121-0.491-0.484-0.37-0.81 0.162-0.434 0.394-0.762 0.731-1.032 0.271-0.217 0.667-0.174 0.885 0.098s0.174 0.667-0.098 0.884c-0.16 0.129-0.255 0.266-0.339 0.49-0.094 0.253-0.335 0.409-0.59 0.409z"></path>
<path d="M8.963 12.296c-0.197 0-0.363-0.153-0.376-0.352l-0.041-0.612c-0.014-0.208 0.143-0.388 0.351-0.402 0.209-0.014 0.388 0.143 0.402 0.351l0.041 0.612c0.014 0.208-0.143 0.388-0.351 0.402-0.009 0.001-0.017 0.001-0.026 0.001z"></path>
<path d="M12.226 13.293c-0.197 0-0.363-0.153-0.376-0.352l-0.041-0.612c-0.014-0.208 0.143-0.388 0.351-0.402s0.388 0.143 0.402 0.351l0.041 0.612c0.014 0.208-0.143 0.388-0.351 0.402-0.009 0.001-0.017 0.001-0.026 0.001z"></path>
<path d="M10.4 14.932c-0.197 0-0.363-0.153-0.376-0.352l-0.041-0.612c-0.014-0.208 0.143-0.388 0.351-0.402 0.209-0.014 0.388 0.143 0.402 0.351l0.041 0.612c0.014 0.208-0.143 0.388-0.351 0.402-0.009 0.001-0.017 0.001-0.026 0.001z"></path>
</svg>
