<!-- Generated by IcoMoon.io -->
<svg version="1.1" xmlns="http://www.w3.org/2000/svg" width="32" height="32" viewBox="0 0 32 32">
<title>pear</title>
<path d="M4.069 6.032l0.514 1.446c0.022 0.062 0.066 0.111 0.121 0.136l1.284 0.579c0.181 0.082 0.181 0.371 0 0.453l-1.284 0.579c-0.055 0.025-0.099 0.074-0.121 0.136l-0.514 1.446c-0.073 0.204-0.329 0.204-0.402 0l-0.514-1.446c-0.022-0.062-0.066-0.111-0.121-0.136l-1.284-0.579c-0.181-0.082-0.181-0.371 0-0.453l1.284-0.579c0.055-0.025 0.099-0.074 0.121-0.136l0.514-1.446c0.073-0.204 0.329-0.204 0.402 0z"></path>
<path d="M11.218 3.345c0 0.491-0.398 0.889-0.889 0.889s-0.889-0.398-0.889-0.889c0-0.491 0.398-0.889 0.889-0.889s0.889 0.398 0.889 0.889z"></path>
<path d="M27.836 16.982c0 0.267-0.217 0.484-0.484 0.484s-0.484-0.217-0.484-0.484c0-0.267 0.217-0.484 0.484-0.484s0.484 0.217 0.484 0.484z"></path>
<path d="M28.877 7.229c-0.697-0.729-2.184-2.031-4.318-2.553-1.687-0.413-3.382-0.067-4.727 0.431 0.868-2.142 1.483-3.008 1.491-3.020 0.115-0.156 0.151-0.356 0.097-0.542-0.358-1.253-1.606-1.557-2.218-1.544-0.166 0.004-0.324 0.073-0.439 0.194-1.271 1.334-2.148 3.729-2.694 5.711-1.287 0.054-2.543 0.606-3.611 1.605-1.288 1.204-2.152 2.921-2.433 4.835-0.009 0.058-0.017 0.117-0.024 0.175-0.184 1.441-0.871 2.79-1.936 3.798-1.496 1.416-2.445 3.24-2.743 5.272-0.292 1.984 0.010 3.94 0.873 5.657 0.872 1.734 2.252 3.095 3.991 3.935 0.538 0.26 1.415 0.272 2.608 0.037 0.18-0.035 0.362-0.015 0.527 0.059 1.067 0.48 1.907 0.722 2.503 0.722 0.106 0 0.205-0.008 0.296-0.023 3.957-0.671 7.003-3.76 7.58-7.686 0.299-2.032-0.085-4.051-1.11-5.838-0.73-1.272-1-2.762-0.761-4.195 0.010-0.058 0.019-0.116 0.027-0.174 0.096-0.656 0.12-1.31 0.074-1.947 0.241 0.092 0.489 0.171 0.746 0.234 0.691 0.169 1.36 0.235 1.98 0.235 1.296 0 2.383-0.285 3.028-0.505 1.161-0.395 2.473-1.109 2.673-1.927s-0.633-2.057-1.48-2.944zM19.475 1.278c0.2 0.039 0.471 0.136 0.636 0.38-0.335 0.545-1.047 1.841-1.905 4.191-0.476 0.258-0.819 0.483-0.983 0.595 0.472-1.771 1.215-3.922 2.253-5.166zM20.617 13.902c-0.007 0.050-0.015 0.1-0.023 0.15-0.286 1.717 0.037 3.501 0.91 5.023 0.884 1.541 1.215 3.282 0.957 5.034-0.498 3.387-3.131 6.053-6.551 6.634-0.244 0.041-0.934-0.093-2.076-0.606-0.276-0.124-0.57-0.187-0.868-0.187-0.138 0-0.277 0.014-0.415 0.041-1.024 0.202-1.621 0.161-1.821 0.064-3.009-1.454-4.685-4.783-4.17-8.283 0.258-1.752 1.076-3.324 2.366-4.545 1.274-1.207 2.097-2.822 2.317-4.549 0.006-0.050 0.013-0.1 0.021-0.151 0.488-3.321 2.983-5.714 5.562-5.335 0.020 0.003 0.040 0.007 0.061 0.011 0.010 0.034 0.023 0.067 0.039 0.1 0.067 0.134 1.346 2.65 3.657 4.146 0.143 0.784 0.158 1.615 0.034 2.454zM27.137 10.963c-0.801 0.256-2.407 0.621-4.163 0.192-2.379-0.582-4.029-2.908-4.652-3.929 1.022-0.618 3.553-1.919 5.94-1.335 1.755 0.43 3.011 1.495 3.604 2.093 0.85 0.856 1.236 1.631 1.268 1.889-0.148 0.213-0.849 0.723-1.998 1.090z"></path>
<path d="M9.797 20.715c-0.068 0-0.138-0.011-0.206-0.035-0.326-0.114-0.498-0.471-0.384-0.797 0.188-0.539 0.532-0.98 0.868-1.386 0.193-0.233 0.396-0.447 0.592-0.653 0.374-0.394 0.728-0.766 0.954-1.216 0.419-0.836 0.658-1.753 0.819-2.458 0.077-0.337 0.412-0.548 0.75-0.47s0.548 0.413 0.47 0.75c-0.177 0.774-0.442 1.784-0.92 2.74-0.309 0.617-0.745 1.075-1.166 1.518-0.19 0.2-0.369 0.388-0.535 0.588-0.263 0.318-0.531 0.658-0.65 1.001-0.090 0.258-0.332 0.42-0.591 0.42z"></path>
<path d="M13.854 12.106c-0.087 0-0.175-0.018-0.259-0.056-0.315-0.143-0.454-0.514-0.31-0.829 0.215-0.473 0.462-0.963 0.898-1.285 0.278-0.205 0.67-0.146 0.875 0.132s0.146 0.67-0.132 0.875c-0.211 0.156-0.393 0.557-0.502 0.796-0.105 0.231-0.332 0.367-0.57 0.367z"></path>
<path d="M17.724 20.595c-0.035 0-0.070-0.005-0.105-0.015-0.199-0.058-0.314-0.266-0.256-0.465l0.197-0.682c0.058-0.199 0.266-0.314 0.465-0.256s0.314 0.266 0.256 0.465l-0.197 0.682c-0.047 0.164-0.198 0.271-0.361 0.271z"></path>
<path d="M19.253 23.909c-0.035 0-0.070-0.005-0.105-0.015-0.199-0.058-0.314-0.266-0.256-0.465l0.197-0.682c0.058-0.199 0.266-0.314 0.465-0.256s0.314 0.266 0.256 0.465l-0.197 0.682c-0.048 0.164-0.198 0.271-0.361 0.271z"></path>
<path d="M17.028 23.571c-0.035 0-0.070-0.005-0.105-0.015-0.199-0.058-0.314-0.266-0.256-0.465l0.197-0.682c0.058-0.199 0.266-0.314 0.465-0.256s0.314 0.266 0.256 0.465l-0.197 0.682c-0.048 0.164-0.198 0.271-0.361 0.271z"></path>
</svg>
