<!-- Generated by IcoMoon.io -->
<svg version="1.1" xmlns="http://www.w3.org/2000/svg" width="32" height="32" viewBox="0 0 32 32">
<title>peas</title>
<path d="M28.279 24.864c0 0.269-0.218 0.487-0.487 0.487s-0.487-0.218-0.487-0.487 0.218-0.487 0.487-0.487c0.269-0 0.487 0.218 0.487 0.487z"></path>
<path d="M2.471 5.497l0.517 1.454c0.022 0.062 0.066 0.112 0.121 0.136l1.291 0.582c0.182 0.082 0.182 0.373 0 0.455l-1.291 0.582c-0.055 0.025-0.099 0.074-0.121 0.136l-0.517 1.453c-0.073 0.205-0.331 0.205-0.404 0l-0.517-1.453c-0.022-0.062-0.066-0.112-0.121-0.136l-1.291-0.582c-0.182-0.082-0.182-0.373 0-0.455l1.291-0.582c0.055-0.025 0.099-0.074 0.121-0.136l0.517-1.454c0.073-0.205 0.331-0.205 0.404 0z"></path>
<path d="M30.467 18.52l0.383 1.078c0.016 0.046 0.049 0.083 0.090 0.101l0.958 0.432c0.135 0.061 0.135 0.277 0 0.338l-0.958 0.432c-0.041 0.018-0.073 0.055-0.090 0.101l-0.383 1.078c-0.054 0.152-0.246 0.152-0.3 0l-0.383-1.078c-0.016-0.046-0.049-0.083-0.090-0.101l-0.958-0.432c-0.135-0.061-0.135-0.277 0-0.338l0.958-0.432c0.041-0.018 0.073-0.055 0.090-0.101l0.383-1.078c0.054-0.152 0.246-0.152 0.3 0z"></path>
<path d="M6.525 1.517c0.060 0.49-0.288 0.936-0.778 0.996s-0.936-0.288-0.996-0.778c-0.060-0.49 0.288-0.936 0.778-0.996s0.936 0.288 0.996 0.778z"></path>
<path d="M29.12 1.795c-0.452-0.452-0.955-0.652-1.495-0.597-0.182 0.019-0.361 0.067-0.541 0.143-1.498-0.403-3.398-0.285-5.515 0.374-2.641 0.822-6.88 2.893-12.080 8.093-5.222 5.222-7.411 9.575-8.328 12.306-0.579 1.725-0.823 3.296-0.726 4.668 0.026 0.368 0.079 0.716 0.155 1.045-0.086 0.195-0.141 0.39-0.161 0.586-0.054 0.539 0.144 1.038 0.589 1.483 0.903 0.903 2.648 1.372 4.844 1.372 1.355 0 2.881-0.179 4.486-0.544 2.795-0.636 8.175-2.394 12.806-7.026 4.624-4.624 6.314-9.939 6.911-12.696 0.893-4.126 0.521-7.741-0.946-9.208zM2.355 22.513c0.874-2.603 2.975-6.767 8.024-11.816 5.018-5.018 9.058-7.001 11.564-7.781 1.175-0.366 2.275-0.546 3.244-0.546 0.189 0 0.372 0.007 0.55 0.021-0.365 0.398-0.744 0.886-1.148 1.453-0.726-0.378-1.551-0.593-2.425-0.593-2.906 0-5.27 2.364-5.27 5.27 0 0.783 0.172 1.526 0.48 2.195-0.792-0.476-1.717-0.751-2.707-0.751-2.906 0-5.27 2.364-5.27 5.27 0 1.174 0.386 2.26 1.038 3.137-0.693-0.336-1.471-0.525-2.292-0.525-2.906 0-5.27 2.364-5.27 5.27 0 0.731 0.15 1.428 0.421 2.061-0.63 0.448-1.171 0.865-1.609 1.264-0.037-1.133 0.183-2.482 0.669-3.93zM4.358 24.445c-0.146-0.416-0.226-0.862-0.226-1.327 0-2.212 1.8-4.012 4.012-4.012 0.987 0 1.891 0.359 2.59 0.952-1.762 1.328-3.481 2.466-5.003 3.473-0.484 0.32-0.943 0.624-1.373 0.914zM12.54 18.634c-1.131-0.71-1.885-1.968-1.885-3.399 0-2.212 1.8-4.012 4.012-4.012 1.432 0 2.69 0.755 3.4 1.887-0.801 0.97-1.668 1.94-2.614 2.887-0.951 0.951-1.93 1.826-2.913 2.637zM19.399 11.422c-0.767-0.731-1.246-1.761-1.246-2.901 0-2.212 1.8-4.012 4.012-4.012 0.609 0 1.187 0.138 1.704 0.382-0.299 0.445-0.612 0.923-0.945 1.431-1.015 1.547-2.165 3.3-3.525 5.101zM28.836 10.737c-0.567 2.622-2.175 7.677-6.571 12.072-4.408 4.408-9.533 6.083-12.195 6.688-4.293 0.977-7.24 0.43-8.162-0.491-0.248-0.249-0.233-0.402-0.226-0.467 0.088-0.877 2.35-2.374 4.744-3.959 2.931-1.94 6.578-4.354 9.917-7.693 3.36-3.36 5.729-6.973 7.633-9.875 1.509-2.301 2.935-4.475 3.777-4.562 0.011-0.001 0.026-0.003 0.044-0.003 0.079 0 0.223 0.028 0.432 0.237 0.93 0.93 1.516 3.846 0.606 8.052z"></path>
<path d="M12.094 15.597c-0.046 0-0.093-0.005-0.14-0.016-0.339-0.077-0.551-0.415-0.474-0.753 0.549-2.405 2.286-2.966 3.126-2.928l-0.059 1.257 0.008 0c-0.14-0.003-1.411 0.030-1.849 1.95-0.066 0.292-0.326 0.489-0.613 0.489z"></path>
<path d="M5.811 22.287c-0.105 0-0.211-0.026-0.308-0.081-0.303-0.171-0.41-0.554-0.24-0.857 0.565-1.004 1.575-1.645 2.583-1.645 0.016 0 0.031 0 0.046 0 0.347 0.007 0.624 0.294 0.617 0.641s-0.294 0.626-0.641 0.617c-0.008-0-0.017-0-0.025-0-0.677 0-1.22 0.538-1.483 1.004-0.115 0.205-0.329 0.321-0.549 0.321z"></path>
<path d="M19.659 9.047c-0.001 0-0.002 0-0.003 0-0.348-0.001-0.628-0.284-0.627-0.632 0.005-1.17 0.591-2.236 1.495-2.717 0.307-0.163 0.688-0.047 0.851 0.26s0.047 0.688-0.26 0.851c-0.608 0.323-0.826 1.070-0.828 1.611-0.001 0.347-0.283 0.627-0.629 0.627z"></path>
<path d="M8.529 26.495c-0.209 0-0.378-0.169-0.378-0.378v-0.733c0-0.209 0.169-0.378 0.378-0.378s0.378 0.169 0.378 0.378v0.733c0 0.209-0.169 0.378-0.378 0.378z"></path>
<path d="M12.726 23.925c-0.209 0-0.378-0.169-0.378-0.378v-0.733c0-0.209 0.169-0.378 0.378-0.378s0.378 0.169 0.378 0.378v0.733c0 0.209-0.169 0.378-0.378 0.378z"></path>
<path d="M11.238 26.982c-0.209 0-0.378-0.169-0.378-0.378v-0.733c0-0.209 0.169-0.378 0.378-0.378s0.378 0.169 0.378 0.378v0.733c0 0.209-0.169 0.378-0.378 0.378z"></path>
</svg>
