<!-- Generated by IcoMoon.io -->
<svg version="1.1" xmlns="http://www.w3.org/2000/svg" width="32" height="32" viewBox="0 0 32 32">
<title>pepper</title>
<path d="M4.681 0.153l0.513 1.441c0.022 0.062 0.065 0.111 0.12 0.135l1.28 0.577c0.181 0.082 0.181 0.37 0 0.451l-1.28 0.577c-0.055 0.025-0.098 0.074-0.12 0.135l-0.513 1.441c-0.072 0.204-0.328 0.204-0.401 0l-0.513-1.441c-0.022-0.062-0.065-0.111-0.12-0.135l-1.28-0.577c-0.181-0.082-0.181-0.37 0-0.451l1.28-0.577c0.055-0.025 0.098-0.074 0.12-0.135l0.513-1.441c0.072-0.204 0.329-0.204 0.401 0z"></path>
<path d="M4.217 11.147l0.38 1.069c0.016 0.046 0.048 0.082 0.089 0.1l0.95 0.428c0.134 0.060 0.134 0.274 0 0.335l-0.95 0.428c-0.041 0.018-0.073 0.055-0.089 0.1l-0.38 1.069c-0.054 0.151-0.244 0.151-0.297 0l-0.38-1.069c-0.016-0.046-0.049-0.082-0.089-0.1l-0.95-0.428c-0.134-0.060-0.134-0.274 0-0.335l0.95-0.428c0.041-0.018 0.073-0.055 0.089-0.1l0.38-1.069c0.054-0.151 0.244-0.151 0.297 0z"></path>
<path d="M12.107 3.765c0 0.489-0.397 0.886-0.886 0.886s-0.886-0.397-0.886-0.886c0-0.489 0.397-0.886 0.886-0.886s0.886 0.397 0.886 0.886z"></path>
<path d="M31.217 12.206c-0.067-0.798-0.329-1.496-0.783-2.091 0.535-0.831 0.732-1.818 0.55-2.795-0.172-0.927-0.665-1.741-1.398-2.32l0.99-1.46c0.306-0.452 0.419-0.996 0.316-1.533s-0.409-1-0.861-1.307l-0.494-0.335c-0.933-0.633-2.207-0.388-2.84 0.545l-0.978 1.442c-0.785-0.44-1.691-0.591-2.587-0.425-0.919 0.171-1.726 0.657-2.305 1.379-2.53-0.472-4.66 0.199-6.496 2.042-1.708 1.714-3.064 4.314-4.501 7.067-0.338 0.649-0.688 1.319-1.049 1.991-0.54 1.005-1.496 2.468-2.509 4.016-1.481 2.265-3.16 4.832-4.271 7.049-0.835 1.665-1.776 4.051-0.861 5.31 0.107 0.139 0.311 0.354 0.514 0.482 0.163 0.103 0.854 0.508 1.498 0.625 0.415 0.075 0.889 0.111 1.411 0.111 4.544 0 12.706-2.72 16.678-5.734 4.214-3.197 10.349-9.58 9.975-14.060zM27.731 1.611c0.247-0.364 0.743-0.459 1.107-0.212l0.494 0.335c0.176 0.119 0.295 0.3 0.335 0.509s-0.004 0.421-0.123 0.597l-0.98 1.446-1.805-1.24zM23.361 3.156c0.687-0.127 1.382 0.020 1.958 0.415l3.348 2.3c0.576 0.395 0.963 0.991 1.090 1.678 0.098 0.526 0.033 1.057-0.18 1.536-0.068-0.109-0.138-0.225-0.212-0.347-0.579-0.963-1.373-2.282-3.418-3.349-0.599-0.313-1.195-0.509-1.791-0.59-0.522-0.469-1.171-0.844-1.943-1.121 0.33-0.263 0.721-0.443 1.147-0.522zM7.318 19.106c1.073-1.64 1.999-3.056 2.564-4.109 0.364-0.679 0.716-1.353 1.056-2.004 1.391-2.666 2.704-5.184 4.278-6.763 1.666-1.672 3.458-2.167 5.81-1.605 0.394 0.094 0.754 0.212 1.081 0.353-0.724 0.223-1.452 0.615-2.191 1.178-1.701 1.296-3.253 3.341-4.753 5.318-0.94 1.239-1.827 2.409-2.74 3.396-0.898 0.972-1.912 2.008-2.987 3.104-1.486 1.517-2.987 3.050-4.306 4.535 0.716-1.152 1.474-2.313 2.187-3.402zM26.973 18.934c-1.736 2.205-4.16 4.574-6.485 6.338-3.546 2.69-10.072 4.88-14.317 5.374-0.042-0.006-0.090 0.001-0.135 0.003-1.267 0.079-3.345-0.197-3.769-0.486-0.296-0.977 0.389-2.562 2.038-4.713 1.605-2.093 3.851-4.386 6.024-6.604 1.081-1.104 2.102-2.146 3.012-3.131 0.953-1.032 1.901-2.281 2.817-3.489 1.45-1.911 2.949-3.887 4.515-5.080 1.65-1.257 3.143-1.465 4.698-0.653 1.734 0.905 2.367 1.958 2.926 2.886 0.22 0.366 0.432 0.717 0.694 1.021 0 0.002 0 0.004 0 0.006 0.007 0.006 0.014 0.012 0.021 0.019 0.095 0.108 0.196 0.209 0.307 0.303 0.386 0.441 0.603 0.964 0.654 1.58 0.139 1.665-0.899 3.955-3.001 6.624z"></path>
<path d="M19.407 11.821c-0.123 0-0.248-0.035-0.358-0.108-0.299-0.198-0.381-0.601-0.183-0.901 0.221-0.333 0.441-0.675 0.653-1.014 0.19-0.304 0.592-0.396 0.896-0.206s0.397 0.591 0.206 0.896c-0.218 0.349-0.444 0.7-0.671 1.042-0.125 0.189-0.332 0.291-0.543 0.291z"></path>
<path d="M12.882 19.445c-0.189 0-0.376-0.082-0.504-0.239-0.227-0.278-0.185-0.688 0.093-0.914 1.61-1.312 2.854-2.797 4.436-4.751 0.226-0.279 0.635-0.322 0.914-0.096s0.322 0.635 0.096 0.914c-1.631 2.016-2.918 3.55-4.625 4.941-0.121 0.098-0.266 0.146-0.41 0.146z"></path>
<path d="M8.447 28.866c-0.449-0.009-0.513-0.649-0.069-0.742 0.167-0.039 0.329-0.096 0.517-0.151 1.58-0.486 3.124-1.124 4.602-1.855 0.185-0.091 0.41-0.016 0.501 0.17s0.016 0.41-0.17 0.502c-1.513 0.748-4.309 1.803-4.693 1.914s-0.468 0.147-0.69 0.163z"></path>
<path d="M15.038 26.094c-0.131 0-0.258-0.069-0.326-0.19-0.102-0.18-0.038-0.408 0.142-0.51 0.384-0.217 0.768-0.456 1.139-0.688 0.438-0.273 0.89-0.556 1.355-0.809 0.182-0.099 0.409-0.032 0.508 0.15s0.032 0.409-0.15 0.508c-0.445 0.243-0.888 0.519-1.317 0.787-0.378 0.236-0.769 0.48-1.168 0.705-0.058 0.033-0.121 0.048-0.184 0.048z"></path>
<path d="M24.887 17.875c-0.081 0-0.163-0.026-0.232-0.081-0.162-0.128-0.19-0.364-0.062-0.526s0.257-0.329 0.38-0.493c0.125-0.165 0.359-0.198 0.524-0.074s0.198 0.359 0.074 0.524c-0.127 0.169-0.259 0.339-0.391 0.506-0.074 0.094-0.183 0.142-0.294 0.142z"></path>
<path d="M26.336 15.861c-0.070 0-0.141-0.020-0.204-0.061-0.173-0.113-0.222-0.345-0.109-0.518 0.797-1.221 1.496-2.515 2.080-3.845 0.083-0.189 0.304-0.275 0.493-0.193s0.276 0.304 0.192 0.493c-0.6 1.368-1.319 2.698-2.138 3.954-0.072 0.11-0.192 0.17-0.314 0.17z"></path>
</svg>
