<!-- Generated by IcoMoon.io -->
<svg version="1.1" xmlns="http://www.w3.org/2000/svg" width="32" height="32" viewBox="0 0 32 32">
<title>pineapple</title>
<path d="M28.365 5.323l0.515 1.449c0.022 0.062 0.066 0.111 0.121 0.136l1.288 0.58c0.182 0.082 0.182 0.372 0 0.454l-1.288 0.58c-0.055 0.025-0.099 0.074-0.121 0.136l-0.515 1.449c-0.073 0.205-0.33 0.205-0.403 0l-0.515-1.449c-0.022-0.062-0.066-0.111-0.121-0.136l-1.287-0.58c-0.182-0.082-0.182-0.372 0-0.454l1.287-0.58c0.055-0.025 0.099-0.074 0.121-0.136l0.515-1.449c0.073-0.205 0.33-0.205 0.403 0z"></path>
<path d="M3.402 11.493l0.382 1.075c0.016 0.046 0.049 0.082 0.090 0.101l0.955 0.43c0.135 0.061 0.135 0.276 0 0.337l-0.955 0.43c-0.041 0.018-0.073 0.055-0.090 0.101l-0.382 1.075c-0.054 0.152-0.245 0.152-0.299 0l-0.382-1.075c-0.016-0.046-0.049-0.082-0.090-0.101l-0.955-0.43c-0.135-0.061-0.135-0.276 0-0.337l0.955-0.43c0.041-0.018 0.073-0.055 0.090-0.101l0.382-1.075c0.054-0.152 0.245-0.152 0.299 0z"></path>
<path d="M7.146 7.57c0.16 0.386-0.023 0.83-0.41 0.99s-0.83-0.023-0.99-0.41c-0.16-0.386 0.023-0.83 0.41-0.99s0.83 0.023 0.99 0.41z"></path>
<path d="M19.657 9.366c0.553-0.798 2.030-2.676 3.076-3.862 0.751-0.851 0.203-1.436 0.085-1.545-0.579-0.536-1.825-0.396-2.515-0.265-0.043 0.008-0.091 0.018-0.143 0.029 0.42-0.516 0.906-1.086 1.427-1.643 0.518-0.554 0.398-1.059 0.323-1.251-0.186-0.472-0.706-0.771-1.425-0.82-1.265-0.086-2.959 0.571-4.143 2.196-0.512-0.696-1.151-1.253-1.88-1.632-0.767-0.399-1.624-0.589-2.352-0.523-0.715 0.065-1.217 0.374-1.378 0.846-0.066 0.193-0.159 0.697 0.397 1.215 0.605 0.563 1.123 1.179 1.537 1.734-0.172-0.043-0.315-0.073-0.407-0.091-0.861-0.167-1.998-0.261-2.53 0.239-0.113 0.106-0.64 0.678 0.096 1.513 1.020 1.156 2.469 3.066 2.999 3.864-3.448 1.012-5.973 4.203-5.973 7.973v6.351c0 4.581 3.727 8.308 8.308 8.308h2.17c4.581 0 8.308-3.727 8.308-8.308v-6.351c-0-3.772-2.528-6.965-5.978-7.975zM24.388 17.341v3.152l-1.359-0.927c-0.127-0.087-0.295-0.087-0.422 0l-1.668 1.138-1.668-1.138c-0.127-0.087-0.295-0.087-0.422 0l-1.668 1.138-1.668-1.138c-0.127-0.087-0.295-0.087-0.422 0l-1.668 1.138-1.668-1.138c-0.127-0.087-0.295-0.087-0.422 0l-1.668 1.138-1.569-1.071v-2.293c0-0.711 0.106-1.397 0.302-2.045l1.056 0.721c0.127 0.087 0.295 0.087 0.422 0l1.668-1.138 1.668 1.138c0.127 0.087 0.295 0.087 0.422 0l1.668-1.138 1.668 1.138c0.127 0.087 0.294 0.087 0.422 0l1.668-1.138 1.668 1.138c0.127 0.087 0.295 0.087 0.422 0l1.668-1.138 1.409 0.961c0.105 0.484 0.161 0.986 0.161 1.501zM8.096 23.692v-3.152l1.358 0.927c0.127 0.087 0.295 0.087 0.422 0l1.668-1.138 1.668 1.138c0.127 0.087 0.295 0.087 0.422 0l1.668-1.138 1.668 1.138c0.127 0.087 0.294 0.087 0.422 0l1.668-1.138 1.668 1.138c0.127 0.087 0.295 0.087 0.422 0l1.668-1.138 1.57 1.071v2.293c0 0.711-0.106 1.397-0.302 2.045l-1.057-0.721c-0.127-0.087-0.295-0.087-0.422 0l-1.668 1.138-1.668-1.138c-0.127-0.087-0.295-0.087-0.422 0l-1.668 1.138-1.668-1.138c-0.127-0.087-0.295-0.087-0.422 0l-1.668 1.138-1.668-1.138c-0.127-0.087-0.295-0.087-0.422 0l-1.668 1.138-1.408-0.961c-0.105-0.484-0.161-0.986-0.161-1.501zM10.925 4.87c0.276-0.008 0.689 0.019 1.224 0.133 0.899 0.192 1.523 0.499 1.741 0.717 0.217 0.217 0.561 0.244 0.809 0.062s0.327-0.517 0.186-0.79c-0.043-0.084-1.062-2.033-2.789-3.685 0.183-0.032 0.462-0.042 0.821 0.027 0.526 0.102 1.847 0.512 2.749 2.12 0.11 0.197 0.318 0.319 0.544 0.319h0.264c0.226 0 0.434-0.122 0.544-0.319 0.933-1.663 2.268-2.067 2.799-2.164 0.367-0.067 0.641-0.047 0.806-0.008-1.631 1.754-2.888 3.559-2.941 3.636-0.185 0.267-0.134 0.631 0.116 0.837s0.618 0.186 0.844-0.047c0.294-0.303 0.994-0.604 1.783-0.768 0.552-0.115 0.973-0.131 1.242-0.112-0.593 0.681-1.385 1.649-2.063 2.523-0.764 0.983-1.1 1.468-1.249 1.745-0.337-0.042-0.68-0.064-1.028-0.064h-2.17c-0.353 0-0.701 0.022-1.043 0.065-0.145-0.279-0.469-0.767-1.2-1.739-0.674-0.897-1.418-1.827-1.989-2.489zM15.157 10.28h2.17c2.957 0 5.495 1.827 6.545 4.412l-0.843-0.575c-0.127-0.087-0.295-0.087-0.422 0l-1.668 1.138-1.668-1.138c-0.127-0.087-0.295-0.087-0.422 0l-1.668 1.138-1.668-1.138c-0.127-0.087-0.295-0.087-0.422 0l-1.668 1.138-1.668-1.138c-0.127-0.087-0.295-0.087-0.422 0l-1.668 1.138-1.003-0.684c1.079-2.52 3.584-4.291 6.494-4.291zM17.327 30.753h-2.17c-2.957 0-5.494-1.827-6.544-4.411l0.842 0.575c0.064 0.043 0.137 0.065 0.211 0.065s0.147-0.022 0.211-0.065l1.668-1.138 1.668 1.138c0.127 0.087 0.295 0.087 0.422 0l1.668-1.138 1.668 1.138c0.127 0.087 0.294 0.087 0.422 0l1.668-1.138 1.668 1.138c0.127 0.087 0.295 0.087 0.422 0l1.668-1.138 1.003 0.684c-1.079 2.52-3.584 4.29-6.494 4.29z"></path>
<path d="M18.288 18.184c-0.207 0-0.374-0.168-0.374-0.374v-0.755c0-0.207 0.168-0.374 0.374-0.374s0.374 0.168 0.374 0.374v0.755c-0 0.207-0.168 0.374-0.374 0.374z"></path>
<path d="M20.771 19.129c-0.207 0-0.374-0.168-0.374-0.374v-0.755c0-0.207 0.168-0.374 0.374-0.374s0.374 0.168 0.374 0.374v0.755c-0 0.207-0.168 0.374-0.374 0.374z"></path>
<path d="M12.331 23.773c-0.207 0-0.374-0.168-0.374-0.374v-0.755c0-0.207 0.168-0.374 0.374-0.374s0.374 0.168 0.374 0.374v0.755c0 0.207-0.168 0.374-0.374 0.374z"></path>
<path d="M10.025 20.064c-0.34 0-0.618-0.273-0.623-0.614-0.007-0.476 0.009-0.945 0.049-1.395 0.17-1.913 0.748-3.499 1.719-4.711 0.215-0.269 0.608-0.312 0.877-0.097s0.312 0.608 0.097 0.877c-0.815 1.018-1.302 2.378-1.45 4.042-0.036 0.407-0.051 0.832-0.044 1.265 0.005 0.344-0.27 0.628-0.614 0.633-0.003 0-0.007 0-0.010 0z"></path>
<path d="M13.35 12.818c-0.242 0-0.472-0.142-0.574-0.379-0.135-0.317 0.011-0.683 0.328-0.819 0.294-0.126 0.55-0.208 0.914-0.226 0.344-0.017 0.637 0.247 0.654 0.591s-0.247 0.637-0.591 0.654c-0.183 0.009-0.298 0.047-0.486 0.127-0.080 0.034-0.163 0.050-0.245 0.050z"></path>
</svg>
