<!-- Generated by IcoMoon.io -->
<svg version="1.1" xmlns="http://www.w3.org/2000/svg" width="32" height="32" viewBox="0 0 32 32">
<title>plum</title>
<path d="M13.541 4.531c0 0.269-0.218 0.487-0.487 0.487s-0.487-0.218-0.487-0.487c0-0.269 0.218-0.487 0.487-0.487s0.487 0.218 0.487 0.487z"></path>
<path d="M5.379 0.154l0.517 1.453c0.022 0.062 0.066 0.111 0.121 0.136l1.291 0.582c0.182 0.082 0.182 0.373 0 0.455l-1.291 0.582c-0.055 0.025-0.099 0.074-0.121 0.136l-0.517 1.453c-0.073 0.205-0.331 0.205-0.404 0l-0.517-1.453c-0.022-0.062-0.066-0.111-0.121-0.136l-1.291-0.582c-0.182-0.082-0.182-0.373 0-0.455l1.291-0.582c0.055-0.025 0.099-0.074 0.121-0.136l0.517-1.453c0.073-0.205 0.331-0.205 0.404 0z"></path>
<path d="M26.762 2.504l0.383 1.078c0.016 0.046 0.049 0.083 0.090 0.101l0.958 0.431c0.135 0.061 0.135 0.277 0 0.337l-0.958 0.431c-0.041 0.019-0.073 0.055-0.090 0.101l-0.383 1.078c-0.054 0.152-0.246 0.152-0.3 0l-0.383-1.078c-0.016-0.046-0.049-0.083-0.090-0.101l-0.958-0.431c-0.135-0.061-0.135-0.277 0-0.337l0.958-0.431c0.041-0.018 0.073-0.055 0.090-0.101l0.383-1.078c0.054-0.152 0.246-0.152 0.3 0z"></path>
<path d="M4.030 10.973c0 0.479-0.388 0.867-0.867 0.867s-0.867-0.388-0.867-0.867c0-0.479 0.388-0.867 0.867-0.867s0.867 0.388 0.867 0.867z"></path>
<path d="M29.645 15.386c-0.263-3.147-1.39-5.485-3.258-6.762-2.032-1.389-4.661-1.13-6.505-0.67l0.149-2.347c0.026-0.403-0.107-0.792-0.374-1.095s-0.636-0.484-1.039-0.51l-0.127-0.008c-0.403-0.025-0.792 0.107-1.095 0.374s-0.484 0.636-0.51 1.039l-0.167 2.642c-1.504-0.518-3.954-0.923-6.646 0.397-1.961 0.962-3.145 2.888-3.519 5.725-0.232 1.76-0.147 3.838 0.252 6.176 0.576 3.375 1.858 6.248 3.708 8.308 1.965 2.188 4.477 3.345 7.263 3.345 2.784 0 5.173-0.96 7.099-2.855 1.755-1.725 3.174-4.286 4.217-7.611 0.405-1.291 0.751-3.765 0.551-6.148zM17.639 5.456c0.013-0.202 0.103-0.387 0.255-0.521s0.347-0.2 0.549-0.188l0.127 0.008c0.202 0.013 0.387 0.103 0.52 0.255s0.2 0.347 0.188 0.549l-0.165 2.609c-0.503 0.155-0.905 0.309-1.162 0.414-0.128-0.069-0.294-0.152-0.495-0.242zM27.893 21.158c-2.024 6.449-5.334 9.584-10.116 9.584-4.886 0-8.615-4.064-9.731-10.606-0.547-3.203-0.938-8.834 2.581-10.56 1.026-0.503 2.094-0.755 3.19-0.755 0.542 0 1.091 0.062 1.646 0.185 1.119 0.249 1.893 0.681 2.069 0.785-0.592 0.946-0.943 2.392-1.046 4.325-0.117 2.176 0.125 4.162 0.135 4.245 0.024 0.191 0.186 0.331 0.374 0.331 0.015 0 0.031-0.001 0.047-0.003 0.207-0.026 0.354-0.214 0.328-0.421-0.245-1.979-0.445-7.023 1.205-8.577 1.189-0.461 4.765-1.626 7.104-0.028 1.952 1.334 2.553 3.905 2.714 5.828 0.213 2.549-0.233 4.821-0.498 5.666z"></path>
<path d="M10.049 17.901c-0.319 0-0.599-0.233-0.647-0.559-0.040-0.27-0.074-0.535-0.1-0.789-0.037-0.36 0.225-0.682 0.585-0.719s0.682 0.225 0.719 0.585c0.024 0.234 0.055 0.479 0.092 0.73 0.053 0.358-0.193 0.692-0.551 0.745-0.033 0.005-0.066 0.007-0.098 0.007z"></path>
<path d="M9.981 14.577c-0.025 0-0.050-0.001-0.075-0.004-0.36-0.041-0.618-0.366-0.577-0.726 0.186-1.623 1.105-2.89 2.458-3.388 0.006-0.002 0.013-0.005 0.019-0.007 0.746-0.249 1.565-0.284 2.19-0.096 0.347 0.105 0.543 0.47 0.438 0.817s-0.47 0.542-0.817 0.438c-0.362-0.109-0.905-0.078-1.387 0.081-0.874 0.326-1.471 1.187-1.599 2.304-0.038 0.334-0.322 0.581-0.65 0.581z"></path>
<path d="M20.678 21.448c-0.217 0-0.393-0.176-0.393-0.393v-0.793c0-0.217 0.176-0.393 0.393-0.393s0.393 0.176 0.393 0.393v0.793c0 0.217-0.176 0.393-0.393 0.393z"></path>
<path d="M23.325 19.532c-0.217 0-0.393-0.176-0.393-0.393v-0.793c0-0.217 0.176-0.393 0.393-0.393s0.393 0.176 0.393 0.393v0.793c0 0.217-0.176 0.393-0.393 0.393z"></path>
<path d="M24.257 23.237c-0.217 0-0.393-0.176-0.393-0.393v-0.793c0-0.217 0.176-0.393 0.393-0.393s0.393 0.176 0.393 0.393v0.793c0 0.217-0.176 0.393-0.393 0.393z"></path>
<path d="M19.16 26.361c-0.217 0-0.393-0.176-0.393-0.393v-0.793c0-0.217 0.176-0.393 0.393-0.393s0.393 0.176 0.393 0.393v0.793c0 0.217-0.176 0.393-0.393 0.393z"></path>
</svg>
