<!-- Generated by IcoMoon.io -->
<svg version="1.1" xmlns="http://www.w3.org/2000/svg" width="32" height="32" viewBox="0 0 32 32">
<title>pomegranate</title>
<path d="M3.195 0.584l0.549 1.544c0.023 0.066 0.070 0.119 0.129 0.145l1.372 0.618c0.194 0.087 0.194 0.396 0 0.483l-1.372 0.618c-0.059 0.027-0.105 0.079-0.129 0.145l-0.549 1.544c-0.078 0.218-0.352 0.218-0.43 0l-0.549-1.544c-0.023-0.066-0.070-0.119-0.129-0.145l-1.372-0.618c-0.194-0.087-0.194-0.396 0-0.483l1.372-0.618c0.059-0.026 0.105-0.079 0.129-0.145l0.549-1.544c0.078-0.218 0.352-0.218 0.43 0z"></path>
<path d="M29.801 5.167l0.407 1.146c0.017 0.049 0.052 0.088 0.096 0.108l1.018 0.459c0.144 0.065 0.144 0.294 0 0.359l-1.018 0.459c-0.044 0.020-0.078 0.059-0.096 0.108l-0.407 1.146c-0.058 0.162-0.261 0.162-0.319 0l-0.407-1.146c-0.017-0.049-0.052-0.088-0.096-0.108l-1.018-0.459c-0.144-0.065-0.144-0.294 0-0.359l1.018-0.459c0.044-0.020 0.078-0.059 0.096-0.108l0.407-1.146c0.058-0.162 0.261-0.162 0.319 0z"></path>
<path d="M25.024 3.309c0 0.286-0.232 0.517-0.517 0.517s-0.517-0.232-0.517-0.517c0-0.286 0.232-0.517 0.517-0.517s0.517 0.232 0.517 0.517z"></path>
<path d="M15.716 32c-2.643 0-5.853-1.314-8.377-3.428-2.933-2.456-4.548-5.602-4.548-8.857 0-2.82 0.195-6.048 1.642-8.606 1.456-2.573 3.951-4.112 7.616-4.694l-0.602-3.638c-0.039-0.237 0.061-0.476 0.258-0.614s0.456-0.151 0.666-0.033l1.48 0.833 1.326-2.619c0.108-0.214 0.33-0.346 0.57-0.343 0.24 0.005 0.456 0.147 0.556 0.365l1.182 2.584 1.593-0.829c0.208-0.109 0.46-0.091 0.652 0.045s0.29 0.368 0.256 0.601l-0.538 3.66c3.64 0.592 6.118 2.135 7.564 4.707 1.436 2.554 1.63 5.772 1.63 8.583 0 3.255-1.615 6.4-4.548 8.857-2.525 2.115-5.735 3.428-8.377 3.428zM12.894 3.859l0.493 2.984c0.028 0.168-0.014 0.34-0.116 0.476s-0.255 0.225-0.424 0.246c-7.333 0.911-8.806 5.324-8.806 12.15 0 2.878 1.456 5.683 4.1 7.898 2.31 1.935 5.212 3.136 7.574 3.136s5.264-1.202 7.574-3.136c2.644-2.215 4.1-5.019 4.1-7.898 0-6.803-1.461-11.207-8.732-12.14-0.166-0.021-0.317-0.109-0.419-0.243s-0.145-0.303-0.12-0.469l0.451-3.069-1.090 0.568c-0.152 0.079-0.33 0.093-0.492 0.037s-0.294-0.176-0.366-0.331l-0.916-2.001-1.034 2.043c-0.077 0.152-0.213 0.266-0.376 0.316s-0.34 0.030-0.489-0.053z"></path>
<path d="M17.006 29.645c-0.377 0-0.745-0.126-1.048-0.366-0.401-0.317-0.638-0.793-0.648-1.304-0.019-0.923-0.059-2.206-0.107-3.692-0.092-2.891-0.206-6.488-0.22-9.452-0.024-4.91 0.234-5.607 0.478-5.875 0.178-0.195 0.53-0.389 1.794-0.34 0.64 0.025 1.222 0.102 1.246 0.105l0.010 0.001c3.209 0.516 5.342 1.839 6.521 4.043 1.086 2.031 1.236 4.567 1.236 7.006 0 2.985-1.61 5.202-2.961 6.536-1.637 1.616-3.859 2.85-5.945 3.3-0.119 0.026-0.238 0.038-0.357 0.038zM16.019 9.463c-0.1 0.189-0.309 1.111-0.284 5.51 0.017 2.926 0.129 6.453 0.219 9.287 0.047 1.488 0.088 2.773 0.107 3.7 0.006 0.287 0.138 0.553 0.363 0.731 0.222 0.175 0.506 0.242 0.781 0.183 3.998-0.862 8.313-4.587 8.313-9.102 0-2.341-0.139-4.767-1.147-6.652-1.061-1.982-3.014-3.178-5.973-3.655-1.055-0.14-2.151-0.14-2.379-0.002z"></path>
<path d="M19.033 26.677c-1.382 0-2.507-1.125-2.507-2.507 0-0.656 0.258-1.28 0.707-1.744-0.449-0.464-0.707-1.088-0.707-1.744 0-0.703 0.286-1.354 0.783-1.822-0.497-0.468-0.783-1.119-0.783-1.822 0-0.701 0.286-1.353 0.784-1.822-0.449-0.463-0.706-1.087-0.706-1.744 0-1.382 1.125-2.507 2.507-2.507 1.191 0 2.205 0.853 2.45 1.98 0.15-0.028 0.303-0.042 0.457-0.042 1.382 0 2.507 1.125 2.507 2.507 0 0.623-0.227 1.211-0.634 1.666 0.407 0.456 0.634 1.044 0.634 1.667 0 0.679-0.274 1.321-0.75 1.788 0.382 0.449 0.595 1.021 0.595 1.622 0 1.382-1.125 2.507-2.507 2.507-0.123 0-0.245-0.009-0.366-0.027-0.219 1.161-1.24 2.042-2.464 2.042zM19.111 11.717c-0.968 0-1.756 0.788-1.756 1.756 0 0.578 0.285 1.12 0.763 1.448 0.104 0.072 0.165 0.191 0.163 0.317s-0.069 0.243-0.176 0.31c-0.518 0.324-0.827 0.881-0.827 1.49 0 0.618 0.316 1.179 0.844 1.501 0.112 0.068 0.18 0.19 0.18 0.32s-0.068 0.252-0.18 0.32c-0.529 0.322-0.844 0.883-0.844 1.501 0 0.571 0.279 1.108 0.747 1.437 0.1 0.070 0.159 0.185 0.159 0.307s-0.059 0.237-0.159 0.307c-0.468 0.329-0.747 0.867-0.747 1.437 0 0.968 0.788 1.756 1.756 1.756 0.967 0 1.755-0.786 1.756-1.753 0-0.001 0-0.003 0-0.004 0-0.121 0.059-0.235 0.158-0.306s0.226-0.089 0.34-0.049c0.186 0.064 0.379 0.097 0.575 0.097 0.968 0 1.756-0.788 1.756-1.756 0-0.527-0.234-1.022-0.642-1.357-0.091-0.075-0.142-0.189-0.137-0.307s0.066-0.227 0.164-0.293c0.482-0.328 0.77-0.871 0.77-1.453 0-0.537-0.241-1.037-0.662-1.373-0.089-0.071-0.141-0.179-0.141-0.293s0.052-0.222 0.141-0.293c0.421-0.336 0.662-0.836 0.662-1.373 0-0.968-0.788-1.756-1.756-1.756-0.22 0-0.435 0.041-0.64 0.121-0.114 0.045-0.243 0.031-0.345-0.037s-0.164-0.181-0.167-0.304c-0.021-0.947-0.808-1.717-1.755-1.717z"></path>
<path d="M20.472 16.657c-0.216 0-0.391-0.175-0.391-0.391v-0.789c0-0.216 0.175-0.391 0.391-0.391s0.391 0.175 0.391 0.391v0.789c0 0.216-0.175 0.391-0.391 0.391z"></path>
<path d="M19.637 21.069c-0.216 0-0.391-0.175-0.391-0.391v-0.789c0-0.216 0.175-0.391 0.391-0.391s0.391 0.175 0.391 0.391v0.789c0 0.216-0.175 0.391-0.391 0.391z"></path>
<path d="M21.725 19.059c-0.216 0-0.391-0.175-0.391-0.391v-0.788c0-0.216 0.175-0.391 0.391-0.391s0.391 0.175 0.391 0.391v0.788c0 0.216-0.175 0.391-0.391 0.391z"></path>
<path d="M6.916 19.925c-0.36 0-0.652-0.292-0.652-0.652-0-2.033 0.057-4.193 0.741-6.286 0.112-0.342 0.48-0.529 0.822-0.417s0.529 0.48 0.417 0.822c-0.624 1.91-0.677 3.953-0.677 5.881 0 0.36-0.292 0.652-0.652 0.652z"></path>
<path d="M8.792 11.738c-0.152 0-0.304-0.053-0.428-0.16-0.271-0.236-0.3-0.648-0.063-0.919l0.072-0.084c0.303-0.352 0.681-0.79 1.28-0.953 0.347-0.094 0.705 0.111 0.8 0.458s-0.11 0.705-0.458 0.8c-0.215 0.059-0.419 0.295-0.636 0.546l-0.077 0.089c-0.129 0.148-0.31 0.224-0.492 0.224z"></path>
</svg>
