<!-- Generated by IcoMoon.io -->
<svg version="1.1" xmlns="http://www.w3.org/2000/svg" width="32" height="32" viewBox="0 0 32 32">
<title>potato</title>
<path d="M25.181 0.154l0.517 1.452c0.022 0.062 0.066 0.111 0.121 0.136l1.29 0.581c0.182 0.082 0.182 0.373 0 0.455l-1.29 0.581c-0.055 0.025-0.099 0.074-0.121 0.136l-0.517 1.452c-0.073 0.205-0.331 0.205-0.404 0l-0.517-1.452c-0.022-0.062-0.066-0.111-0.121-0.136l-1.291-0.581c-0.182-0.082-0.182-0.373 0-0.455l1.291-0.581c0.055-0.025 0.099-0.074 0.121-0.136l0.517-1.452c0.073-0.205 0.331-0.205 0.404 0z"></path>
<path d="M30.501 9.553c0 0.623-0.505 1.128-1.128 1.128s-1.128-0.505-1.128-1.128c0-0.623 0.505-1.128 1.128-1.128s1.128 0.505 1.128 1.128z"></path>
<path d="M13.127 32c-1.391 0-2.722-0.256-3.95-0.767-2.396-0.997-4.368-2.964-5.701-5.689-1.209-2.47-1.87-5.314-1.965-8.454-0.089-2.962 0.36-5.451 0.636-6.672 0.474-2.096 1.183-3.908 2.108-5.385 1.295-2.068 2.987-3.429 5.029-4.044 2.528-0.761 5.279-0.424 7.548 0.926s3.878 3.606 4.416 6.191l0.982 4.724c0.098 0.47 0.238 0.935 0.417 1.381l1.692 4.218c0.984 2.453 0.891 5.225-0.254 7.607s-3.254 4.184-5.785 4.946l-1.497 0.451c-1.25 0.376-2.485 0.564-3.676 0.564zM12 1.849c-0.791 0-1.584 0.114-2.354 0.346-3.859 1.162-5.541 5.265-6.273 8.502-0.548 2.423-1.524 8.665 1.232 14.295 1.844 3.767 4.839 5.764 8.473 5.764 1.070 0 2.194-0.173 3.362-0.524l1.497-0.451c2.193-0.66 4.021-2.223 5.014-4.287s1.073-4.467 0.22-6.593l-1.692-4.218c-0.206-0.515-0.368-1.051-0.481-1.593l-0.982-4.724c-0.466-2.24-1.861-4.196-3.827-5.366-1.276-0.759-2.727-1.149-4.188-1.149z"></path>
<path d="M6.264 15.685c-0.328 0-0.605-0.255-0.627-0.587-0.16-2.418 0.235-4.838 1.142-6.998 0.135-0.32 0.503-0.471 0.823-0.336s0.471 0.503 0.336 0.823c-0.833 1.98-1.195 4.203-1.047 6.427 0.023 0.347-0.239 0.646-0.586 0.669-0.014 0.001-0.028 0.001-0.042 0.001z"></path>
<path d="M8.809 6.518c-0.153 0-0.307-0.056-0.428-0.168-0.254-0.237-0.269-0.635-0.032-0.889 0.101-0.108 0.195-0.227 0.296-0.353 0.221-0.277 0.471-0.591 0.829-0.827 0.29-0.192 0.68-0.112 0.871 0.178s0.112 0.68-0.178 0.871c-0.192 0.127-0.353 0.329-0.539 0.562-0.111 0.139-0.225 0.282-0.358 0.425-0.124 0.133-0.292 0.201-0.461 0.201z"></path>
<path d="M13.511 16.035c-0.208 0-0.377-0.169-0.377-0.377v-0.752c0-0.208 0.169-0.377 0.377-0.377s0.377 0.169 0.377 0.377v0.752c0 0.208-0.169 0.377-0.377 0.377z"></path>
<path d="M17.212 14.535c-0.208 0-0.377-0.169-0.377-0.377v-0.752c0-0.208 0.169-0.377 0.377-0.377s0.377 0.169 0.377 0.377v0.752c0 0.208-0.169 0.377-0.377 0.377z"></path>
<path d="M16.136 17.56c-0.208 0-0.377-0.169-0.377-0.377v-0.753c0-0.208 0.169-0.377 0.377-0.377s0.377 0.169 0.377 0.377v0.753c0 0.208-0.169 0.377-0.377 0.377z"></path>
<path d="M10.261 20.585c-0.208 0-0.377-0.169-0.377-0.377v-0.753c0-0.208 0.169-0.377 0.377-0.377s0.377 0.169 0.377 0.377v0.753c0 0.208-0.169 0.377-0.377 0.377z"></path>
<path d="M14.836 21.886c-0.208 0-0.377-0.169-0.377-0.377v-0.753c0-0.208 0.169-0.377 0.377-0.377s0.377 0.169 0.377 0.377v0.753c0 0.208-0.169 0.377-0.377 0.377z"></path>
<path d="M11.079 10.339c-0.208 0-0.377-0.169-0.377-0.377v-0.752c0-0.208 0.169-0.377 0.377-0.377s0.377 0.169 0.377 0.377v0.752c0 0.208-0.169 0.377-0.377 0.377z"></path>
<path d="M16.436 27.308c-0.137 0-0.27-0.075-0.337-0.206-0.095-0.186-0.020-0.413 0.165-0.507 2.272-1.156 3.651-2.848 4.097-5.030 0.339-1.658-0.006-3.040-0.081-3.233-0.092-0.161-0.053-0.369 0.097-0.485 0.165-0.127 0.402-0.097 0.529 0.068 0.167 0.216 0.611 1.95 0.162 3.949-0.363 1.614-1.432 3.862-4.463 5.404-0.055 0.028-0.113 0.041-0.171 0.041zM20.31 18.375c0 0 0 0 0 0s-0-0-0-0zM20.277 18.322v0s0 0 0-0z"></path>
<path d="M13.448 28.362c-0.184 0-0.345-0.135-0.373-0.322-0.030-0.206 0.112-0.398 0.318-0.428 0.715-0.105 1.335-0.333 1.341-0.336 0.195-0.073 0.412 0.027 0.485 0.223s-0.027 0.413-0.223 0.485c-0.028 0.011-0.701 0.258-1.494 0.375-0.019 0.003-0.037 0.004-0.055 0.004z"></path>
</svg>
