<!-- Generated by IcoMoon.io -->
<svg version="1.1" xmlns="http://www.w3.org/2000/svg" width="32" height="32" viewBox="0 0 32 32">
<title>pumpkin</title>
<path d="M10.97 0.154l0.517 1.454c0.022 0.062 0.066 0.112 0.121 0.137l1.292 0.582c0.182 0.082 0.182 0.373 0 0.455l-1.292 0.582c-0.055 0.025-0.099 0.074-0.121 0.136l-0.517 1.454c-0.073 0.205-0.331 0.205-0.405 0l-0.517-1.454c-0.022-0.062-0.066-0.112-0.121-0.136l-1.292-0.582c-0.182-0.082-0.182-0.373 0-0.455l1.292-0.582c0.055-0.025 0.099-0.074 0.121-0.137l0.517-1.454c0.073-0.205 0.332-0.205 0.405 0z"></path>
<path d="M3.058 7.819l0.384 1.079c0.016 0.046 0.049 0.083 0.090 0.101l0.958 0.432c0.135 0.061 0.135 0.277 0 0.338l-0.958 0.432c-0.041 0.018-0.074 0.055-0.090 0.101l-0.384 1.079c-0.054 0.152-0.246 0.152-0.3 0l-0.384-1.079c-0.016-0.046-0.049-0.083-0.090-0.101l-0.958-0.432c-0.135-0.061-0.135-0.277 0-0.338l0.958-0.432c0.041-0.018 0.074-0.055 0.090-0.101l0.384-1.079c0.054-0.152 0.246-0.152 0.3 0z"></path>
<path d="M29.025 6.69c0.441 0.441 0.441 1.156 0 1.597s-1.156 0.441-1.597 0c-0.441-0.441-0.441-1.156 0-1.597s1.156-0.441 1.597 0z"></path>
<path d="M8.662 5.535c0 0.269-0.218 0.487-0.487 0.487s-0.487-0.218-0.487-0.487c0-0.269 0.218-0.487 0.487-0.487s0.487 0.218 0.487 0.487z"></path>
<path d="M23.13 12.159c-0.329 0-0.654 0.021-0.972 0.061-0.997-0.806-2.234-1.326-3.586-1.433 0.384-1.557 0.941-3.366 1.284-4.478 0.391-1.267 0.431-1.415 0.431-1.579 0-0.317-0.192-0.609-0.57-0.867-0.673-0.46-1.799-0.751-2.796-0.363-0.597 0.232-1.303 1.034-2.011 5.221-0.12 0.71-0.222 1.415-0.306 2.046h-0.043c-1.601 0-3.069 0.578-4.207 1.536-0.481-0.093-0.978-0.143-1.486-0.143-4.334 0-7.86 3.526-7.86 7.86v3.586c0 4.334 3.526 7.86 7.86 7.86 0.829 0 1.627-0.13 2.378-0.369 0.973 0.574 2.106 0.904 3.315 0.904h3.488c1.124 0 2.183-0.285 3.109-0.787 0.63 0.163 1.291 0.251 1.971 0.251 4.334 0 7.86-3.526 7.86-7.86v-3.586c-0-4.334-3.526-7.86-7.86-7.86zM16.125 9.090c0.628-3.792 1.199-4.366 1.269-4.423 0.59-0.22 1.282 0.020 1.581 0.21-0.072 0.251-0.199 0.66-0.322 1.060-0.506 1.641-1.027 3.377-1.369 4.829h-1.409c0.071-0.526 0.154-1.097 0.25-1.675zM8.87 30.206c-3.64 0-6.601-2.961-6.601-6.601v-3.586c0-3.64 2.961-6.601 6.601-6.601 0.142 0 0.283 0.006 0.424 0.015-0.801 1.086-1.276 2.427-1.276 3.877v8.145c0 1.821 0.748 3.471 1.952 4.658-0.358 0.060-0.725 0.092-1.1 0.092zM14.562 30.741c-2.915 0-5.286-2.371-5.286-5.286v-8.145c0-2.915 2.371-5.286 5.286-5.286h3.488c2.915 0 5.286 2.371 5.286 5.286v8.145c0 2.915-2.371 5.286-5.286 5.286zM29.731 23.605c0 3.64-2.961 6.601-6.601 6.601-0.188 0-0.374-0.009-0.557-0.024 1.245-1.192 2.022-2.87 2.022-4.726v-8.145c0-1.456-0.478-2.802-1.285-3.89 3.557 0.096 6.421 3.019 6.421 6.598v3.586z"></path>
<path d="M17.821 29.406c-0.202 0-0.369-0.159-0.377-0.363-0.008-0.208 0.154-0.384 0.362-0.392 0.967-0.039 1.7-0.383 2.241-1.052 1.528-1.89 0.897-5.672 0.89-5.71-0.035-0.206 0.102-0.401 0.308-0.436s0.401 0.102 0.437 0.308c0.029 0.169 0.697 4.156-1.046 6.313-0.676 0.837-1.619 1.286-2.8 1.333-0.005 0-0.010 0-0.015 0z"></path>
<path d="M21.213 20.449c-0.202 0-0.37-0.16-0.377-0.364l-0.049-1.316c-0.008-0.209 0.155-0.384 0.363-0.391s0.384 0.155 0.391 0.363l0.049 1.316c0.008 0.209-0.155 0.384-0.363 0.391-0.005 0-0.009 0-0.014 0z"></path>
<path d="M26.211 27.676c-0.072 0-0.144-0.020-0.208-0.063-0.174-0.115-0.222-0.349-0.107-0.523 1.54-2.33 1.254-5.328 1.251-5.358-0.021-0.207 0.13-0.393 0.337-0.414s0.393 0.129 0.414 0.337c0.014 0.133 0.319 3.293-1.373 5.853-0.073 0.11-0.193 0.169-0.315 0.169z"></path>
<path d="M11.307 22.163c-0.324 0-0.599-0.248-0.627-0.576-0.033-0.385-0.044-0.762-0.052-1.113-0.026-1.202 0.037-2.588 0.7-3.752 0.172-0.302 0.557-0.407 0.859-0.235s0.407 0.557 0.235 0.859c-0.51 0.895-0.559 2.019-0.535 3.101 0.007 0.33 0.018 0.683 0.048 1.034 0.029 0.346-0.227 0.651-0.574 0.681-0.018 0.002-0.036 0.002-0.054 0.002z"></path>
<path d="M12.787 15.751c-0.112 0-0.226-0.030-0.329-0.093-0.296-0.182-0.389-0.57-0.207-0.866 0.211-0.343 0.45-0.627 0.71-0.843 0.267-0.222 0.664-0.186 0.886 0.082s0.186 0.664-0.082 0.886c-0.154 0.128-0.303 0.308-0.442 0.534-0.119 0.193-0.325 0.3-0.537 0.3z"></path>
<path d="M16.196 23.378c-0.209 0-0.378-0.169-0.378-0.378v-0.762c0-0.209 0.169-0.378 0.378-0.378s0.378 0.169 0.378 0.378v0.762c0 0.209-0.169 0.378-0.378 0.378z"></path>
<path d="M18.432 24.465c-0.209 0-0.378-0.169-0.378-0.378v-0.762c0-0.209 0.169-0.378 0.378-0.378s0.378 0.169 0.378 0.378v0.762c-0 0.209-0.169 0.378-0.378 0.378z"></path>
<path d="M16.813 25.946c-0.209 0-0.378-0.169-0.378-0.378v-0.762c0-0.209 0.169-0.378 0.378-0.378s0.378 0.169 0.378 0.378v0.762c0 0.209-0.169 0.378-0.378 0.378z"></path>
</svg>
