<!-- Generated by IcoMoon.io -->
<svg version="1.1" xmlns="http://www.w3.org/2000/svg" width="32" height="32" viewBox="0 0 32 32">
<title>radish</title>
<path d="M3.653 9.989l0.551 1.549c0.024 0.066 0.070 0.119 0.129 0.145l1.376 0.62c0.194 0.088 0.194 0.397 0 0.485l-1.376 0.62c-0.059 0.027-0.106 0.079-0.129 0.145l-0.551 1.549c-0.078 0.219-0.353 0.219-0.431 0l-0.551-1.549c-0.024-0.066-0.070-0.119-0.129-0.145l-1.376-0.62c-0.194-0.088-0.194-0.397 0-0.485l1.376-0.62c0.059-0.027 0.106-0.079 0.129-0.145l0.551-1.549c0.078-0.219 0.353-0.219 0.431 0z"></path>
<path d="M29.346 26.965l0.409 1.149c0.017 0.049 0.052 0.088 0.096 0.108l1.021 0.46c0.144 0.065 0.144 0.295 0 0.36l-1.021 0.46c-0.044 0.020-0.078 0.059-0.096 0.108l-0.409 1.149c-0.058 0.162-0.262 0.162-0.32 0l-0.409-1.149c-0.017-0.049-0.052-0.088-0.096-0.108l-1.021-0.46c-0.144-0.065-0.144-0.295 0-0.36l1.021-0.46c0.044-0.020 0.078-0.059 0.096-0.108l0.409-1.149c0.058-0.162 0.262-0.162 0.32 0z"></path>
<path d="M27.797 14.45c0 0.492-0.399 0.891-0.891 0.891s-0.891-0.399-0.891-0.891c0-0.492 0.399-0.891 0.891-0.891s0.891 0.399 0.891 0.891z"></path>
<path d="M6.153 19.028c0 0.287-0.232 0.519-0.519 0.519s-0.519-0.232-0.519-0.519 0.232-0.519 0.519-0.519 0.519 0.232 0.519 0.519z"></path>
<path d="M20.072 15.29c0.931-1.617 1.893-3.366 2.682-5.026 1.721-3.62 2.154-5.84 1.364-6.986-0.48-0.696-1.322-0.943-2.504-0.735h0c-0.556 0.098-1.262 0.464-2.062 1.905-0.244-1.001-0.607-1.762-0.996-2.338-0.84-1.244-2.085-2.010-3.416-2.102-0.93-0.065-1.456 0.326-1.735 0.664-0.674 0.817-0.694 2.266-0.376 4.145-0.761-0.997-1.551-1.668-2.281-1.906-0.904-0.295-1.719-0.055-2.18 0.642-0.752 1.137-0.48 3.6 1.893 6.32 1.309 1.5 2.217 3.525 2.82 5.295-2.511 1.132-4.246 3.527-4.246 6.291 0 2.416 1.313 4.628 3.513 5.916 0.955 0.559 1.768 1.388 2.35 2.397l1.106 1.916c0.112 0.194 0.319 0.314 0.543 0.314s0.431-0.12 0.543-0.314l1.106-1.916c0.582-1.009 1.395-1.837 2.35-2.397 2.2-1.289 3.513-3.5 3.513-5.916 0-2.668-1.617-4.992-3.987-6.168zM20.001 6.451c0.936-2.345 1.638-2.639 1.831-2.673h0c0.203-0.036 0.384-0.054 0.542-0.054 0.351 0 0.589 0.088 0.711 0.265 0.225 0.326 0.532 1.537-1.464 5.735-0.797 1.677-1.78 3.457-2.727 5.096-0.104-0.032-0.209-0.062-0.315-0.090 1.011-3.344 1.339-5.923 1.277-7.907 0.048-0.128 0.096-0.253 0.144-0.373zM14.372 1.469c0.055-0.067 0.201-0.243 0.68-0.21 0.943 0.065 1.841 0.631 2.463 1.553 0.699 1.035 1.066 2.473 1.093 4.274 0.030 2.069-0.398 4.565-1.273 7.424-0.259-0.025-0.522-0.039-0.789-0.039-0.225 0-0.448 0.010-0.669 0.028 0.142-1.036 0.138-2.805-0.591-5.536-0.649-2.43-1.735-6.497-0.914-7.493zM11.406 9.047c-1.949-2.234-2.221-4.154-1.792-4.803 0.057-0.086 0.209-0.315 0.744-0.141 0.76 0.248 2.033 1.582 3.165 4.005 0.235 0.502 0.452 1.028 0.652 1.571 0.696 2.794 0.534 4.37 0.386 5.040-0.031 0.008-0.061 0.016-0.092 0.024-0.643-1.881-1.624-4.046-3.063-5.696zM17.929 20.211h4.726c0.098 0.402 0.15 0.819 0.15 1.247 0 0.805-0.181 1.582-0.52 2.293h-3.158c-0.208 0-0.376 0.169-0.376 0.376s0.169 0.376 0.376 0.376h2.724c-0.485 0.707-1.141 1.319-1.939 1.787-1.142 0.669-2.111 1.655-2.802 2.852l-0.563 0.974-0.563-0.974c-0.691-1.197-1.66-2.183-2.802-2.852-1.386-0.812-2.345-2.061-2.718-3.484h3.272c0.208 0 0.376-0.169 0.376-0.376s-0.169-0.376-0.376-0.376h-3.412c-0.022-0.197-0.034-0.395-0.034-0.596 0-3.161 2.807-5.733 6.258-5.733 2.683 0 4.977 1.555 5.865 3.733h-4.482c-0.208 0-0.376 0.169-0.376 0.376s0.169 0.377 0.376 0.377z"></path>
<path d="M15.908 17.834c-0.321 0-0.601-0.237-0.647-0.564-0.050-0.358 0.2-0.688 0.558-0.737 0.317-0.044 0.646-0.059 0.977-0.046 0.361 0.015 0.641 0.319 0.626 0.68s-0.321 0.641-0.68 0.626c-0.254-0.010-0.504 0.001-0.745 0.035-0.030 0.004-0.061 0.006-0.090 0.006z"></path>
<path d="M11.973 21.401c-0.062 0-0.125-0.009-0.188-0.028-0.346-0.104-0.542-0.468-0.438-0.814 0.342-1.141 1.013-2.129 1.993-2.936 0.279-0.23 0.691-0.19 0.92 0.089s0.19 0.691-0.089 0.92c-0.776 0.639-1.305 1.414-1.572 2.302-0.085 0.283-0.345 0.466-0.626 0.466z"></path>
</svg>
