<!-- Generated by IcoMoon.io -->
<svg version="1.1" xmlns="http://www.w3.org/2000/svg" width="32" height="32" viewBox="0 0 32 32">
<title>Raspberry</title>
<path d="M21.043 0.165l0.552 1.553c0.024 0.067 0.070 0.119 0.13 0.146l1.38 0.622c0.195 0.088 0.195 0.398 0 0.486l-1.38 0.622c-0.059 0.027-0.106 0.079-0.13 0.146l-0.552 1.553c-0.078 0.219-0.354 0.219-0.432 0l-0.552-1.553c-0.024-0.067-0.070-0.119-0.13-0.146l-1.38-0.622c-0.195-0.088-0.195-0.398 0-0.486l1.38-0.622c0.059-0.027 0.106-0.079 0.13-0.146l0.552-1.553c0.078-0.219 0.354-0.219 0.432 0z"></path>
<path d="M29.351 10.679l0.41 1.152c0.018 0.049 0.052 0.088 0.096 0.108l1.024 0.461c0.145 0.065 0.145 0.296 0 0.361l-1.024 0.461c-0.044 0.020-0.079 0.059-0.096 0.108l-0.41 1.152c-0.058 0.163-0.263 0.163-0.32 0l-0.41-1.152c-0.018-0.049-0.052-0.088-0.096-0.108l-1.024-0.461c-0.145-0.065-0.145-0.296 0-0.361l1.024-0.461c0.044-0.020 0.079-0.059 0.096-0.108l0.41-1.152c0.058-0.163 0.263-0.163 0.32 0z"></path>
<path d="M28.596 4.88c0 0.493-0.4 0.893-0.893 0.893s-0.893-0.4-0.893-0.893c0-0.493 0.4-0.893 0.893-0.893s0.893 0.4 0.893 0.893z"></path>
<path d="M25.815 22.008c-0.261-0.402-0.585-0.754-0.959-1.044 1.338-1.39 1.598-3.575 0.507-5.259-0.649-1.001-1.693-1.675-2.848-1.875 0.289-1.136 0.101-2.364-0.549-3.365-0.556-0.858-1.402-1.486-2.383-1.77-0.819-0.237-1.688-0.222-2.49 0.038-0.264-0.262-0.556-0.484-0.868-0.664 0.028-0.856-0.067-1.67-0.283-2.382-0.397-1.311-1.162-2.149-2.152-2.36-1.777-0.379-3.656 1.451-4.48 4.252l-0.836-1.29c-0.204-0.315-0.518-0.531-0.885-0.61s-0.742-0.009-1.057 0.195l-0.182 0.118c-0.315 0.204-0.531 0.518-0.61 0.885s-0.009 0.742 0.195 1.057l0.837 1.291c-2.894-0.392-5.332 0.575-5.711 2.352-0.211 0.99 0.242 2.030 1.276 2.928 0.61 0.53 1.389 0.977 2.267 1.312 0.041 0.274 0.109 0.546 0.206 0.813-0.626 0.621-1.045 1.424-1.194 2.306-0.178 1.051 0.043 2.123 0.624 3.018 0.649 1.001 1.693 1.675 2.848 1.875-0.289 1.136-0.101 2.364 0.549 3.365 0.617 0.952 1.568 1.607 2.678 1.844 0.857 0.183 1.729 0.1 2.521-0.232 0.113 0.444 0.299 0.868 0.551 1.257 0.813 1.253 2.178 1.936 3.571 1.936 0.791 0 1.592-0.221 2.304-0.682 1.021-0.662 1.697-1.723 1.884-2.899 1.15 0.309 2.395 0.125 3.416-0.536 0.952-0.617 1.607-1.568 1.844-2.678s0.027-2.245-0.59-3.197zM10.353 8.59c0.532-2.491 1.939-4.055 2.976-4.055 0.069 0 0.136 0.007 0.201 0.021 0.514 0.11 0.955 0.655 1.21 1.495 0.141 0.464 0.217 0.986 0.231 1.54-1.060-0.22-2.2-0.034-3.174 0.598-0.659 0.427-1.173 1.022-1.506 1.706-0.042-0.43-0.030-0.869 0.063-1.304zM6.972 7.139c0.006-0.027 0.021-0.065 0.064-0.092l0.182-0.118c0.028-0.018 0.056-0.024 0.079-0.024 0.012 0 0.022 0.001 0.032 0.003 0.027 0.006 0.065 0.021 0.092 0.064l1.589 2.452c-0 0.168 0.008 0.336 0.021 0.501-0.145-0.080-0.295-0.155-0.449-0.224l-1.589-2.452c-0.027-0.042-0.026-0.083-0.020-0.11zM2.293 11.84c0.171-0.803 1.446-1.444 3.228-1.444 0.542 0 1.132 0.059 1.751 0.192 0.37 0.079 0.719 0.213 1.046 0.384-0.64 0.074-1.264 0.291-1.822 0.653-1.029 0.667-1.679 1.709-1.876 2.838-0.56-0.253-1.056-0.559-1.458-0.907-0.663-0.576-0.98-1.201-0.87-1.715zM25.175 24.942c-0.167 0.781-0.628 1.45-1.298 1.885-0.906 0.587-2.064 0.639-3.022 0.135-0.201-0.106-0.444-0.095-0.635 0.029s-0.3 0.341-0.286 0.568c0.069 1.080-0.451 2.116-1.357 2.703-0.67 0.434-1.469 0.582-2.25 0.415s-1.45-0.628-1.885-1.298c-0.306-0.472-0.472-1.019-0.48-1.58-0.003-0.235-0.137-0.448-0.348-0.554-0.089-0.045-0.185-0.067-0.281-0.067-0.131 0-0.261 0.041-0.37 0.12-0.048 0.035-0.092 0.065-0.135 0.093-0.67 0.434-1.469 0.582-2.25 0.415s-1.45-0.628-1.885-1.298c-0.574-0.886-0.636-2.024-0.162-2.969 0.1-0.199 0.087-0.437-0.034-0.624s-0.333-0.296-0.556-0.286c-1.057 0.047-2.070-0.475-2.644-1.36-0.847-1.306-0.563-3.015 0.66-3.975 0.235-0.184 0.308-0.508 0.174-0.776-0.679-1.361-0.227-3.011 1.051-3.84 0.906-0.587 2.064-0.639 3.022-0.135 0.201 0.106 0.444 0.095 0.635-0.029s0.3-0.341 0.286-0.568c-0.069-1.080 0.451-2.116 1.357-2.703 1.287-0.834 2.985-0.566 3.948 0.625 0.18 0.222 0.487 0.295 0.748 0.178 1.333-0.601 2.938-0.128 3.735 1.101 0.574 0.886 0.636 2.024 0.162 2.969-0.1 0.199-0.087 0.437 0.034 0.624s0.334 0.296 0.556 0.286c1.057-0.047 2.070 0.475 2.645 1.36 0.892 1.376 0.502 3.226-0.869 4.126-0.191 0.125-0.299 0.344-0.282 0.571s0.155 0.428 0.361 0.525c0.507 0.237 0.936 0.611 1.242 1.081 0.434 0.67 0.581 1.47 0.415 2.251z"></path>
<path d="M15.454 18.961c-0.124 0-0.245-0.061-0.317-0.172l-0.414-0.639c-0.113-0.175-0.063-0.409 0.111-0.522s0.409-0.063 0.522 0.111l0.414 0.639c0.113 0.175 0.063 0.409-0.111 0.522-0.063 0.041-0.135 0.061-0.205 0.061z"></path>
<path d="M18.28 17.129c-0.124 0-0.245-0.061-0.317-0.172l-0.414-0.639c-0.113-0.175-0.063-0.409 0.111-0.522s0.409-0.063 0.522 0.111l0.414 0.639c0.113 0.175 0.063 0.409-0.111 0.522-0.063 0.041-0.135 0.061-0.205 0.061z"></path>
<path d="M18.871 20.318c-0.124 0-0.245-0.061-0.317-0.172l-0.414-0.639c-0.113-0.175-0.064-0.409 0.111-0.522s0.409-0.063 0.522 0.111l0.414 0.639c0.113 0.175 0.064 0.409-0.111 0.522-0.063 0.041-0.135 0.061-0.205 0.061z"></path>
<path d="M18.599 23.268c-0.124 0-0.245-0.061-0.317-0.172l-0.414-0.639c-0.113-0.175-0.064-0.409 0.111-0.522s0.409-0.063 0.522 0.111l0.414 0.639c0.113 0.175 0.064 0.409-0.111 0.522-0.063 0.041-0.135 0.061-0.205 0.061z"></path>
<path d="M21.992 19.122c-0.124 0-0.245-0.061-0.317-0.172l-0.414-0.639c-0.113-0.175-0.064-0.409 0.111-0.522s0.409-0.063 0.522 0.111l0.414 0.639c0.113 0.175 0.064 0.409-0.111 0.522-0.063 0.041-0.135 0.061-0.205 0.061z"></path>
<path d="M13.296 21.688c-0.124 0-0.245-0.061-0.317-0.172l-0.414-0.639c-0.113-0.175-0.063-0.409 0.111-0.522s0.409-0.064 0.522 0.111l0.414 0.639c0.113 0.175 0.063 0.409-0.111 0.522-0.063 0.041-0.135 0.061-0.205 0.061z"></path>
<path d="M11.304 16.52c-0.124 0-0.245-0.061-0.317-0.172l-0.414-0.639c-0.113-0.175-0.063-0.409 0.111-0.522s0.409-0.063 0.522 0.111l0.414 0.639c0.113 0.175 0.063 0.409-0.111 0.522-0.063 0.041-0.135 0.061-0.205 0.061z"></path>
<path d="M9.134 22.090c-0.143 0-0.288-0.049-0.406-0.148-1.74-1.47-1.434-4.221-1.42-4.338 0.041-0.345 0.354-0.591 0.699-0.55s0.591 0.353 0.55 0.698c-0.002 0.022-0.236 2.199 0.983 3.229 0.265 0.224 0.299 0.621 0.075 0.887-0.124 0.147-0.302 0.223-0.481 0.223z"></path>
<path d="M7.673 15.919c-0.32 0-0.593-0.242-0.625-0.567-0.002-0.018-0.017-0.181-0.025-0.509-0.008-0.347 0.267-0.636 0.614-0.644 0.348-0.009 0.636 0.267 0.644 0.614 0.007 0.28 0.019 0.416 0.019 0.418 0.032 0.345-0.221 0.652-0.566 0.685-0.020 0.002-0.041 0.003-0.061 0.003z"></path>
</svg>
