<!-- Generated by IcoMoon.io -->
<svg version="1.1" xmlns="http://www.w3.org/2000/svg" width="32" height="32" viewBox="0 0 32 32">
<title>strawberry</title>
<path d="M2.578 3.16l0.539 1.516c0.023 0.065 0.069 0.116 0.127 0.142l1.347 0.607c0.19 0.086 0.19 0.389 0 0.475l-1.347 0.607c-0.058 0.026-0.103 0.077-0.127 0.142l-0.539 1.516c-0.076 0.214-0.346 0.214-0.422 0l-0.539-1.516c-0.023-0.065-0.069-0.116-0.127-0.142l-1.347-0.607c-0.19-0.086-0.19-0.389 0-0.475l1.347-0.607c0.058-0.026 0.103-0.077 0.127-0.142l0.539-1.516c0.076-0.214 0.346-0.214 0.422-0z"></path>
<path d="M8.854 0.344l0.4 1.125c0.017 0.048 0.051 0.086 0.094 0.106l0.999 0.45c0.141 0.064 0.141 0.289 0 0.352l-0.999 0.45c-0.043 0.019-0.077 0.057-0.094 0.106l-0.4 1.125c-0.056 0.159-0.256 0.159-0.313 0l-0.4-1.125c-0.017-0.048-0.051-0.086-0.094-0.106l-0.999-0.45c-0.141-0.064-0.141-0.289 0-0.352l0.999-0.45c0.043-0.019 0.077-0.057 0.094-0.106l0.4-1.125c0.056-0.159 0.256-0.159 0.313 0z"></path>
<path d="M4.632 1.693c0 0.281-0.227 0.508-0.508 0.508s-0.508-0.227-0.508-0.508 0.227-0.508 0.508-0.508c0.281 0 0.508 0.228 0.508 0.508z"></path>
<path d="M30.981 14.694c-0.523-0.536-1.268-1.145-2.213-1.812-1.243-0.877-2.492-1.615-3.004-1.909-0.131-0.521-0.45-1.731-0.888-3.025-1.207-3.572-2.093-4.105-2.384-4.28-0.416-0.25-0.782-0.23-1.016-0.169-0.474 0.123-0.858 0.42-1.11 0.859-0.381 0.662-0.419 1.583-0.351 2.382-1.441-0.978-2.878-1.479-4.358-1.522-2.248-0.066-4.514 0.909-6.929 2.983-1.644 1.412-3.066 3.074-4.226 4.939-1.089 1.751-1.899 3.598-2.406 5.489-1.032 3.845-0.663 7.32 1.012 9.536 1.683 2.225 4.919 3.541 8.88 3.608 0.108 0.002 0.216 0.003 0.324 0.003 4.007-0 8.092-1.266 11.539-3.581 2.692-1.808 4.252-3.769 4.771-5.994 0.345-1.477 0.216-3.042-0.395-4.749 0.047 0.018 0.094 0.036 0.143 0.054 1.312 0.48 2.251 0.568 2.87 0.267 0.395-0.192 0.657-0.543 0.739-0.989 0.113-0.613-0.204-1.277-0.997-2.089zM23.15 27.152c-3.242 2.177-7.078 3.368-10.839 3.368-0.101 0-0.203-0.001-0.304-0.003-3.52-0.060-6.473-1.223-7.9-3.111-1.419-1.876-1.718-5.037-0.801-8.454 0.985-3.671 3.259-7.243 6.238-9.801 3.152-2.707 5.916-3.369 8.691-2.004-1.898-0.2-3.174-0.055-3.897 0.44-0.387 0.265-0.624 0.637-0.684 1.074-0.157 1.147 1.066 2.446 3.849 4.087 1.441 0.85 2.883 1.541 3.504 1.829 0.106 0.677 0.375 2.255 0.801 3.874 0.822 3.129 1.751 4.656 2.923 4.805 0.067 0.008 0.133 0.013 0.198 0.013 0.373 0 0.727-0.137 1.033-0.401 0.677-0.584 1.147-1.812 1.435-3.751 0.647 3.123-0.727 5.671-4.247 8.035zM30.744 16.556c-0.012 0.067-0.026 0.073-0.053 0.086-0.478 0.233-2.133-0.314-3.378-0.97-0.192-0.102-0.424-0.096-0.611 0.014s-0.304 0.31-0.309 0.528c-0.040 1.955-0.454 5.018-1.251 5.705-0.112 0.096-0.187 0.102-0.253 0.093-0.326-0.041-1.085-0.903-1.866-3.87-0.534-2.029-0.823-4.061-0.826-4.081-0.030-0.214-0.169-0.398-0.366-0.486-0.019-0.008-1.883-0.841-3.691-1.907-3.322-1.959-3.248-2.8-3.243-2.835 0.008-0.061 0.032-0.129 0.149-0.209 0.852-0.584 3.859-0.223 5.722 0.219 0.216 0.051 0.443-0.016 0.597-0.175s0.212-0.389 0.153-0.603c-0.231-0.833-0.453-2.407-0.064-3.081 0.084-0.146 0.187-0.229 0.331-0.269 0.056 0.017 0.73 0.289 1.788 3.302 0.614 1.746 1.033 3.497 1.037 3.514 0.041 0.171 0.151 0.317 0.305 0.403 0.016 0.009 1.609 0.9 3.138 1.98 2.736 1.932 2.693 2.637 2.692 2.644z"></path>
<path d="M9.311 19.857c-0.114 0-0.226-0.051-0.3-0.149-0.126-0.166-0.093-0.402 0.072-0.527l0.605-0.459c0.166-0.126 0.402-0.093 0.527 0.072s0.093 0.402-0.072 0.527l-0.605 0.459c-0.068 0.052-0.148 0.077-0.227 0.077z"></path>
<path d="M14.603 20.258c-0.114 0-0.226-0.051-0.3-0.149-0.126-0.166-0.093-0.402 0.072-0.527l0.605-0.459c0.166-0.126 0.402-0.093 0.527 0.072s0.093 0.402-0.072 0.527l-0.605 0.459c-0.068 0.052-0.148 0.077-0.227 0.077z"></path>
<path d="M14.401 23.301c-0.114 0-0.226-0.051-0.3-0.149-0.126-0.166-0.093-0.402 0.072-0.527l0.605-0.459c0.166-0.126 0.402-0.093 0.527 0.072s0.093 0.402-0.072 0.527l-0.605 0.459c-0.068 0.052-0.148 0.076-0.227 0.076z"></path>
<path d="M18.358 22.825c-0.114 0-0.226-0.051-0.3-0.149-0.126-0.166-0.093-0.402 0.072-0.527l0.605-0.459c0.166-0.126 0.402-0.093 0.527 0.072s0.093 0.402-0.072 0.527l-0.605 0.459c-0.068 0.052-0.148 0.076-0.227 0.076z"></path>
<path d="M11.977 10.501c-0.217 0-0.428-0.113-0.544-0.314-0.173-0.3-0.070-0.684 0.23-0.857 0.095-0.055 0.192-0.108 0.287-0.159 0.306-0.163 0.686-0.046 0.848 0.26s0.046 0.686-0.26 0.848c-0.082 0.044-0.166 0.090-0.248 0.138-0.099 0.057-0.207 0.084-0.313 0.084z"></path>
<path d="M8.676 13.26c-0.153 0-0.307-0.056-0.428-0.168-0.253-0.236-0.268-0.633-0.031-0.887 0.396-0.425 1.083-1.106 1.576-1.529 0.044-0.038 0.1-0.087 0.118-0.107 0.069-0.075 0.12-0.114 0.269-0.223 0.28-0.205 0.672-0.144 0.877 0.135s0.144 0.672-0.135 0.877c-0.057 0.042-0.085 0.063-0.1 0.074-0.038 0.040-0.089 0.090-0.211 0.195-0.442 0.379-1.097 1.026-1.475 1.432-0.124 0.133-0.291 0.2-0.459 0.2z"></path>
</svg>
