<!-- Generated by IcoMoon.io -->
<svg version="1.1" xmlns="http://www.w3.org/2000/svg" width="32" height="32" viewBox="0 0 32 32">
<title>sweet-potato</title>
<path d="M5.972 1.589l0.517 1.455c0.022 0.062 0.066 0.112 0.121 0.137l1.292 0.582c0.183 0.082 0.183 0.373 0 0.455l-1.292 0.582c-0.055 0.025-0.099 0.074-0.121 0.137l-0.517 1.455c-0.073 0.205-0.332 0.205-0.405 0l-0.517-1.455c-0.022-0.062-0.066-0.112-0.121-0.137l-1.292-0.582c-0.183-0.082-0.183-0.373 0-0.455l1.292-0.582c0.055-0.025 0.099-0.074 0.121-0.137l0.517-1.455c0.073-0.206 0.332-0.206 0.405 0z"></path>
<path d="M14.922 0.616c0.616 0.1 1.034 0.681 0.933 1.297s-0.681 1.034-1.297 0.933c-0.616-0.1-1.034-0.681-0.933-1.297s0.681-1.034 1.297-0.933z"></path>
<path d="M1.834 12.375l0.384 1.079c0.016 0.046 0.049 0.083 0.090 0.101l0.959 0.432c0.135 0.061 0.135 0.277 0 0.338l-0.959 0.432c-0.041 0.018-0.074 0.055-0.090 0.101l-0.384 1.079c-0.054 0.152-0.246 0.152-0.3 0l-0.384-1.079c-0.016-0.046-0.049-0.083-0.090-0.101l-0.959-0.432c-0.135-0.061-0.135-0.277 0-0.338l0.959-0.432c0.041-0.018 0.074-0.055 0.090-0.101l0.384-1.079c0.054-0.152 0.246-0.152 0.3 0z"></path>
<path d="M7.44 21.788c-0.030 0-0.060-0.002-0.090-0.006-0.359-0.049-0.61-0.38-0.561-0.739 0.053-0.387 0.146-0.749 0.229-1.053 0.231-0.838 0.557-1.669 0.969-2.471 0.307-0.597 0.661-1.173 1.052-1.71 0.213-0.293 0.623-0.358 0.917-0.145s0.358 0.623 0.145 0.917c-0.351 0.483-0.669 1.001-0.946 1.538-0.371 0.722-0.664 1.469-0.871 2.22-0.072 0.262-0.152 0.573-0.194 0.883-0.045 0.329-0.326 0.567-0.649 0.567z"></path>
<path d="M16.352 9.419c-0.196 0-0.389-0.087-0.518-0.253-0.222-0.286-0.171-0.698 0.115-0.921 0.043-0.033 1.075-0.827 2.933-1.503 0.341-0.124 0.717 0.052 0.841 0.392s-0.052 0.717-0.392 0.841c-1.666 0.606-2.567 1.299-2.576 1.306-0.12 0.093-0.262 0.138-0.402 0.138z"></path>
<path d="M25.665 15.98c-0.217 0-0.394-0.176-0.394-0.394v-0.697c0-0.217 0.176-0.394 0.394-0.394s0.394 0.176 0.394 0.394v0.697c0 0.217-0.176 0.394-0.394 0.394z"></path>
<path d="M27.704 14.052c-0.217 0-0.394-0.176-0.394-0.394v-0.697c0-0.217 0.176-0.394 0.394-0.394s0.394 0.176 0.394 0.394v0.697c0 0.217-0.176 0.394-0.394 0.394z"></path>
<path d="M25.82 12.944c-0.217 0-0.394-0.176-0.394-0.394v-0.697c0-0.217 0.176-0.394 0.394-0.394s0.394 0.176 0.394 0.394v0.697c0 0.217-0.176 0.394-0.394 0.394z"></path>
<path d="M28.546 9.622c-0.217 0-0.394-0.176-0.394-0.394v-0.697c0-0.217 0.176-0.394 0.394-0.394s0.394 0.176 0.394 0.394v0.697c0 0.217-0.176 0.394-0.394 0.394z"></path>
<path d="M30.869 4.166c-1.134-1.134-4.206-1.452-7.826-0.809-2.445 0.434-7.176 1.7-11.389 5.312l-0.679 0.617c-0.020 0.018-0.040 0.035-0.059 0.053l-0 0-0.005 0.004c-0.006 0.005-0.012 0.011-0.017 0.016-0 0-0 0-0.001 0.001-0.439 0.44-0.751 1.305-0.084 2.993-1.108-0.475-1.965-0.48-2.467-0.059-0.056 0.046-0.272 0.306-0.272 0.306-2.193 3.073-3.696 6.794-4.234 10.478-0.479 3.282-0.091 6.005 1.012 7.108 0.79 0.79 2.416 1.213 4.482 1.213 0.796-0 1.657-0.063 2.56-0.192 3.644-0.52 7.317-2.021 10.402-4.143 0.188-0.129 0.312-0.281 0.372-0.346 0.476-0.516 0.507-1.35 0.016-2.494 0.702 0.277 1.262 0.387 1.708 0.387 0.627 0 1.029-0.213 1.285-0.47 0-0 0-0 0.001-0.001 0.017-0.017 0.034-0.034 0.050-0.052l0.234-0.246 0.010-0.011c3.826-4.219 5.192-9.084 5.667-11.609 0.689-3.67 0.381-6.908-0.767-8.056zM21.77 25.79c-0.029 0.063-0.065 0.144-0.202 0.244-1.118 0.816-2.267 1.434-3.356 1.949-1.449-2.754-3.315-4.518-3.396-4.595-0.159-0.148-0.408-0.14-0.556 0.018s-0.141 0.408 0.018 0.556c0.019 0.018 1.831 1.734 3.216 4.345-0.779 0.336-1.528 0.61-2.228 0.832-0.62-1.249-1.639-2.429-1.685-2.481-0.143-0.164-0.391-0.182-0.555-0.039s-0.182 0.391-0.039 0.555c0.010 0.012 0.931 1.079 1.512 2.194-1.115 0.312-2.074 0.491-2.786 0.592-3.192 0.455-5.334-0.026-5.973-0.665-0.646-0.646-1.127-2.81-0.656-6.036 0.293-2.005 1.195-5.937 3.95-9.839 0 0 0.057-0.099 0.212-0.156s0.9 0.005 2.543 1.054c1.481 0.945 3.214 2.383 4.88 4.049s3.104 3.399 4.049 4.88c1.050 1.645 1.115 2.398 1.053 2.544zM24.788 23.246l-0.007 0.007c-0.181 0.172-0.974 0.24-2.713-0.714-0.163-0.089-0.329-0.186-0.496-0.287-0.988-1.482-2.392-3.155-4.013-4.776s-3.296-3.026-4.778-4.014c-0.101-0.167-0.196-0.333-0.286-0.495-0.948-1.728-0.886-2.522-0.717-2.709l0.027-0.024c0.209-0.161 1.006-0.2 2.696 0.728 1.643 0.902 3.547 2.397 5.361 4.211s3.31 3.718 4.212 5.361c0.954 1.739 0.886 2.532 0.714 2.713zM30.398 11.989c-0.407 2.169-1.509 6.16-4.403 9.858-0.144-0.531-0.402-1.164-0.817-1.92-0.957-1.745-2.529-3.75-4.425-5.646s-3.901-3.468-5.646-4.425c-0.755-0.414-1.388-0.672-1.919-0.816 3.797-2.971 7.894-4.056 10.075-4.443 3.45-0.612 6.035-0.22 6.715 0.46 0.348 0.348 0.616 1.229 0.717 2.356 0.119 1.329 0.016 2.911-0.296 4.577z"></path>
<path d="M12.297 26.208c-0.115 0-0.229-0.050-0.306-0.146l-0.498-0.616c-0.137-0.169-0.11-0.417 0.059-0.554s0.417-0.11 0.554 0.059l0.498 0.616c0.137 0.169 0.11 0.417-0.059 0.554-0.073 0.059-0.16 0.087-0.247 0.087z"></path>
</svg>
