<!-- Generated by IcoMoon.io -->
<svg version="1.1" xmlns="http://www.w3.org/2000/svg" width="32" height="32" viewBox="0 0 32 32">
<title>tangerine</title>
<path d="M8.497 0.154l0.518 1.456c0.022 0.062 0.066 0.112 0.121 0.137l1.294 0.583c0.183 0.082 0.183 0.374 0 0.456l-1.294 0.583c-0.055 0.025-0.099 0.074-0.121 0.137l-0.518 1.456c-0.073 0.206-0.332 0.206-0.405 0l-0.518-1.456c-0.022-0.062-0.066-0.112-0.122-0.137l-1.294-0.583c-0.183-0.082-0.183-0.374 0-0.456l1.294-0.583c0.055-0.025 0.099-0.074 0.122-0.137l0.518-1.456c0.073-0.206 0.332-0.206 0.405 0z"></path>
<path d="M20.707 2.28c0.442 0.442 0.442 1.158 0 1.599s-1.158 0.442-1.599 0c-0.442-0.442-0.442-1.158 0-1.599s1.158-0.442 1.599 0z"></path>
<path d="M2.467 6.914l0.384 1.080c0.016 0.046 0.049 0.083 0.090 0.101l0.96 0.432c0.136 0.061 0.136 0.277 0 0.338l-0.96 0.432c-0.041 0.018-0.074 0.055-0.090 0.101l-0.384 1.080c-0.054 0.153-0.246 0.153-0.3 0l-0.384-1.080c-0.016-0.046-0.049-0.083-0.090-0.101l-0.96-0.432c-0.136-0.061-0.136-0.277 0-0.338l0.96-0.432c0.041-0.018 0.074-0.055 0.090-0.101l0.384-1.080c0.054-0.153 0.246-0.153 0.3 0z"></path>
<path d="M11.976 14.997c-0.223 0-0.439-0.118-0.553-0.328-0.167-0.305-0.056-0.689 0.25-0.856 0.12-0.066 0.243-0.13 0.365-0.191 0.312-0.154 0.69-0.027 0.845 0.285s0.027 0.69-0.285 0.845c-0.107 0.053-0.214 0.109-0.319 0.166-0.096 0.053-0.2 0.078-0.303 0.078z"></path>
<path d="M7.469 20.542c-0.063 0-0.127-0.009-0.189-0.029-0.332-0.105-0.517-0.459-0.412-0.791 0.408-1.295 1.088-2.531 1.968-3.575 0.266-0.316 0.553-0.618 0.854-0.897 0.255-0.237 0.654-0.223 0.891 0.032s0.223 0.654-0.032 0.891c-0.263 0.245-0.515 0.51-0.749 0.787-0.773 0.917-1.371 2.003-1.729 3.141-0.085 0.269-0.333 0.441-0.601 0.441z"></path>
<path d="M30.603 8.932c-1.561-1.364-4.014-2.99-6.834-2.99-2.836 0-5.29 1.652-6.752 2.914-0.085-0.865-0.214-1.707-0.372-2.38-0.001-0.003-0.002-0.006-0.002-0.009-0.251-1.008-0.903-1.61-1.744-1.61-0.453 0-0.868 0.182-1.166 0.511-0.323 0.356-0.479 0.855-0.428 1.368 0.029 0.289 0.098 0.721 0.185 1.268 0.107 0.668 0.236 1.474 0.322 2.233-2.651 0.265-4.73 0.946-6.309 2.061-1.246 0.88-2.203 2.050-2.843 3.476-0.677 1.509-1.020 3.356-1.020 5.49 0 9.461 6.411 10.736 12.682 10.736 4.229 0 7.046-0.592 9.133-1.919 2.693-1.712 4.001-4.597 4.001-8.817 0-2.16-0.343-4.023-1.020-5.538-0.212-0.474-0.46-0.919-0.741-1.334 1.145-0.575 2.136-1.313 2.908-1.988 0.487-0.426 0.767-1.058 0.767-1.736s-0.279-1.31-0.767-1.736zM14.735 7.804c-0.081-0.505-0.15-0.941-0.175-1.192-0.016-0.158 0.025-0.306 0.107-0.398 0.059-0.065 0.135-0.097 0.232-0.097 0.309 0 0.458 0.405 0.519 0.65 0.202 0.868 0.36 2.091 0.419 3.221-0.046 0.050-0.087 0.094-0.12 0.132-0.219 0.006-0.435 0.014-0.647 0.024-0.090-0.802-0.224-1.644-0.335-2.34zM28.195 21.264c0 3.755-1.118 6.291-3.417 7.753-1.873 1.191-4.481 1.722-8.456 1.722-3.885 0-6.418-0.542-8.215-1.756-2.157-1.458-3.205-3.983-3.205-7.719 0-3.759 1.089-6.354 3.329-7.936 1.751-1.236 4.254-1.876 7.636-1.951 0.924 0.99 4.065 4.017 7.904 4.017 0.969 0 1.895-0.192 2.757-0.5 1.136 1.556 1.669 3.659 1.669 6.369zM29.773 11.454c-1.398 1.222-3.575 2.679-6.004 2.679-2.623 0-4.966-1.735-6.228-2.882 0.426-0.237 1.057-0.546 1.848-0.807 1.395-0.462 3.59-0.869 6.121-0.186 0.202 0.054 0.409-0.065 0.464-0.267s-0.065-0.409-0.267-0.464c-2.726-0.735-5.086-0.293-6.585 0.208-0.898 0.3-1.598 0.651-2.052 0.912 0.020-0.049 0.034-0.102 0.041-0.156 1.095-1.081 3.691-3.287 6.658-3.287 2.429 0 4.606 1.457 6.004 2.679 0.213 0.186 0.335 0.473 0.335 0.786s-0.122 0.6-0.335 0.786z"></path>
<path d="M9.208 28.962c-0.209 0-0.378-0.169-0.378-0.378v-0.677c0-0.209 0.169-0.378 0.378-0.378s0.378 0.169 0.378 0.378v0.677c0 0.209-0.169 0.378-0.378 0.378z"></path>
<path d="M7.247 26.828c-0.209 0-0.378-0.169-0.378-0.378v-0.677c0-0.209 0.169-0.378 0.378-0.378s0.378 0.169 0.378 0.378v0.677c0 0.209-0.169 0.378-0.378 0.378z"></path>
<path d="M8.992 25.286c-0.209 0-0.378-0.169-0.378-0.378v-0.677c0-0.209 0.169-0.378 0.378-0.378s0.378 0.169 0.378 0.378v0.677c0 0.209-0.169 0.378-0.378 0.378z"></path>
</svg>
