<!-- Generated by IcoMoon.io -->
<svg version="1.1" xmlns="http://www.w3.org/2000/svg" width="32" height="32" viewBox="0 0 32 32">
<title>tomato</title>
<path d="M29.594 1.978l0.412 1.157c0.018 0.050 0.052 0.089 0.096 0.109l1.028 0.463c0.145 0.065 0.145 0.297 0 0.362l-1.028 0.463c-0.044 0.020-0.079 0.059-0.096 0.109l-0.412 1.157c-0.058 0.163-0.264 0.163-0.322 0l-0.412-1.157c-0.018-0.050-0.052-0.089-0.096-0.109l-1.028-0.463c-0.145-0.065-0.145-0.297 0-0.362l1.028-0.463c0.044-0.020 0.079-0.059 0.096-0.109l0.412-1.157c0.058-0.163 0.264-0.163 0.322 0z"></path>
<path d="M24.527 1.148c0 0.289-0.234 0.522-0.523 0.522s-0.523-0.234-0.523-0.522 0.234-0.522 0.523-0.522 0.523 0.234 0.523 0.522z"></path>
<path d="M3.413 0.165l0.555 1.56c0.024 0.067 0.071 0.12 0.13 0.146l1.386 0.624c0.196 0.088 0.196 0.4 0 0.488l-1.386 0.624c-0.059 0.027-0.106 0.080-0.13 0.146l-0.555 1.56c-0.078 0.22-0.356 0.22-0.434 0l-0.555-1.56c-0.024-0.067-0.071-0.12-0.13-0.146l-1.386-0.624c-0.196-0.088-0.196-0.4 0-0.488l1.386-0.624c0.059-0.027 0.106-0.080 0.13-0.146l0.555-1.56c0.078-0.22 0.356-0.22 0.434 0z"></path>
<path d="M27.625 11.273c-0.872-1.212-1.929-2.172-3.143-2.869 1.107-0.529 0.822-2.219-0.452-2.179-0.694 0.026-5.017 0.089-6.352 0.832 0.098-2.944 0.207-4.183-2.446-4.021-2.050 0.3-1.437 1.872-1.433 4.112-1.323-0.617-5.858-0.854-6.509-0.922-1.324-0.024-1.567 1.656-0.427 2.205-4.026 2.366-5.71 6.797-5.768 11.712 0.416 6.635 6.014 11.084 10.947 11.85 1.755 0.029 3.488-0.233 5.235-0.052 11.123 1.070 16.461-12.434 10.35-20.667zM11.654 7.906c1.136 0.007 2.729 1.197 3.337 0.493 0.182-0.209 0.175-0.187 0.14-0.46-0.136-1.412-0.197-3.139-0.079-3.571 0.137-0.131 1.143-0.089 1.315 0.039 0.112 0.492 0.084 2.441-0.009 3.757 0.337 0.57 0.858 0.494 1.444 0.208 0.411-0.172 1.033-0.433 1.723-0.561 0.945-0.175 3.077-0.271 4.049-0.308-0.498 0.507-2.576 1.481-2.46 2.371-0.122 0.882 1.951 1.861 2.441 2.357-5.858-0.058-4.322-1.634-7.9 2.87-3.576-4.505-2.050-2.927-7.9-2.87 0.498-0.506 2.556-1.468 2.441-2.357 0.121-0.881-1.934-1.849-2.424-2.344 0.965 0.079 2.914 0.244 3.882 0.375zM25.76 27.53c-4.043 4.106-6.965 2.98-11.783 3.144-5.034 0.671-11.239-4.334-11.62-10.531 0-4.18 1.547-8.933 5.626-10.886l0.838 0.618-2.252 1.66c-0.397 0.292-0.551 0.8-0.383 1.264s0.61 0.754 1.103 0.726l5.196-0.305c0.547 0.445 2.302 3.399 3.169 3.238 0.856 0.17 2.638-2.8 3.169-3.238-0-0 5.195 0.305 5.195 0.305 0.492 0.028 0.935-0.263 1.103-0.726 0.567-1.198-2.032-2.292-2.635-2.924l0.862-0.636c6.144 3.191 7.683 13.197 2.41 18.29z"></path>
<path d="M18.734 21.13c-0.209 0-0.379-0.17-0.379-0.379v-0.764c0-0.209 0.17-0.379 0.379-0.379s0.379 0.17 0.379 0.379v0.764c0 0.209-0.17 0.379-0.379 0.379z"></path>
<path d="M21.204 22.537c-0.209 0-0.379-0.17-0.379-0.379v-0.764c0-0.209 0.17-0.379 0.379-0.379s0.379 0.17 0.379 0.379v0.764c0 0.209-0.17 0.379-0.379 0.379z"></path>
<path d="M23.168 19.852c-0.209 0-0.379-0.17-0.379-0.379v-0.764c0-0.209 0.17-0.379 0.379-0.379s0.379 0.17 0.379 0.379v0.764c0 0.209-0.17 0.379-0.379 0.379z"></path>
<path d="M4.408 22.166c-0.294 0-0.558-0.207-0.618-0.506-0.26-1.281-0.258-2.665 0.006-4.115 0.069-0.378 0.157-0.762 0.261-1.14 0.093-0.336 0.44-0.534 0.777-0.442s0.534 0.44 0.442 0.777c-0.094 0.343-0.174 0.69-0.236 1.032-0.235 1.291-0.239 2.514-0.011 3.636 0.069 0.342-0.151 0.675-0.493 0.745-0.042 0.009-0.085 0.013-0.127 0.013z"></path>
<path d="M5.277 15.448c-0.086 0-0.173-0.017-0.256-0.054-0.319-0.141-0.463-0.515-0.322-0.834 0.090-0.203 0.187-0.404 0.287-0.598 0.161-0.31 0.542-0.431 0.852-0.27s0.431 0.542 0.27 0.852c-0.089 0.171-0.174 0.348-0.254 0.528-0.104 0.236-0.336 0.376-0.578 0.376z"></path>
</svg>
