<!-- Generated by IcoMoon.io -->
<svg version="1.1" xmlns="http://www.w3.org/2000/svg" width="32" height="32" viewBox="0 0 32 32">
<title>watermelon</title>
<path d="M6.121 3.031l0.552 1.553c0.024 0.066 0.070 0.119 0.13 0.146l1.38 0.622c0.195 0.088 0.195 0.398 0 0.486l-1.38 0.622c-0.059 0.027-0.106 0.079-0.13 0.146l-0.552 1.553c-0.078 0.219-0.354 0.219-0.432 0l-0.552-1.553c-0.024-0.066-0.070-0.119-0.13-0.146l-1.38-0.622c-0.195-0.088-0.195-0.398 0-0.486l1.38-0.622c0.059-0.027 0.106-0.079 0.13-0.146l0.552-1.553c0.078-0.219 0.354-0.219 0.432 0z"></path>
<path d="M18.194 1.448l0.41 1.152c0.018 0.049 0.052 0.088 0.096 0.108l1.023 0.461c0.145 0.065 0.145 0.296 0 0.361l-1.023 0.461c-0.044 0.020-0.079 0.059-0.096 0.108l-0.41 1.152c-0.058 0.163-0.263 0.163-0.32 0l-0.41-1.152c-0.018-0.049-0.052-0.088-0.096-0.108l-1.023-0.461c-0.145-0.065-0.145-0.296 0-0.361l1.023-0.461c0.044-0.020 0.079-0.059 0.096-0.108l0.41-1.152c0.058-0.163 0.262-0.163 0.32 0z"></path>
<path d="M4.868 13.946c0 0.493-0.4 0.893-0.893 0.893s-0.893-0.4-0.893-0.893c0-0.493 0.4-0.893 0.893-0.893s0.893 0.4 0.893 0.893z"></path>
<path d="M14.378 1.821c0 0.287-0.233 0.52-0.52 0.52s-0.52-0.233-0.52-0.52c0-0.287 0.233-0.52 0.52-0.52s0.52 0.233 0.52 0.52z"></path>
<path d="M29.799 4.187c-0.321-0.585-0.878-1.008-1.527-1.16-0.647-0.151-1.331-0.021-1.876 0.359l-25.39 17.688c-0.545 0.38-0.905 0.976-0.987 1.636-0.082 0.662 0.122 1.331 0.559 1.835 2.88 3.318 6.876 5.452 11.253 6.010 0.757 0.097 1.516 0.144 2.271 0.144 3.64-0 7.203-1.11 10.226-3.216 3.65-2.543 6.211-6.328 7.211-10.658 0.993-4.299 0.376-8.787-1.739-12.638zM24.668 6.249c1.618 2.61 2.209 5.683 1.664 8.729-0.585 3.27-2.408 6.117-5.134 8.016-5.44 3.789-12.879 2.618-16.909-2.547zM23.548 26.366c-2.882 2.008-6.189 2.984-9.469 2.984-4.638-0-9.222-1.952-12.473-5.698-0.188-0.216-0.271-0.491-0.236-0.774 0.035-0.281 0.182-0.524 0.414-0.686l1.885-1.313c2.003 2.587 4.855 4.316 8.099 4.896 0.784 0.14 1.57 0.209 2.35 0.209 2.671 0 5.275-0.812 7.513-2.371 2.891-2.014 4.825-5.034 5.445-8.502 0.58-3.244-0.054-6.518-1.787-9.294l1.885-1.313c0.168-0.117 0.361-0.177 0.559-0.177 0.076 0 0.152 0.009 0.228 0.027 0.278 0.065 0.506 0.239 0.644 0.49 4.076 7.422 1.902 16.675-5.057 21.523z"></path>
<path d="M13.14 22.011c-0.124 0-0.247-0.059-0.323-0.169l-0.493-0.71c-0.124-0.178-0.080-0.423 0.099-0.547s0.423-0.080 0.547 0.099l0.493 0.71c0.124 0.178 0.080 0.423-0.099 0.547-0.068 0.047-0.147 0.070-0.224 0.070z"></path>
<path d="M17.412 22.347c-0.125 0-0.247-0.059-0.323-0.169l-0.493-0.71c-0.124-0.178-0.080-0.423 0.099-0.547s0.423-0.080 0.547 0.099l0.493 0.71c0.124 0.178 0.080 0.423-0.099 0.547-0.068 0.047-0.147 0.070-0.224 0.070z"></path>
<path d="M17.132 18.247c-0.125 0-0.247-0.059-0.323-0.169l-0.493-0.71c-0.124-0.178-0.080-0.423 0.099-0.547s0.423-0.080 0.547 0.099l0.493 0.71c0.124 0.178 0.080 0.423-0.099 0.547-0.068 0.047-0.146 0.070-0.224 0.070z"></path>
<path d="M21.223 18.484c-0.125 0-0.247-0.059-0.323-0.169l-0.493-0.71c-0.124-0.178-0.080-0.423 0.099-0.547s0.423-0.080 0.547 0.099l0.493 0.71c0.124 0.178 0.080 0.423-0.099 0.547-0.068 0.047-0.147 0.070-0.224 0.070z"></path>
<path d="M22.202 12.212c-0.125 0-0.247-0.059-0.323-0.169l-0.493-0.71c-0.124-0.178-0.080-0.423 0.099-0.547s0.423-0.080 0.547 0.099l0.493 0.71c0.124 0.178 0.080 0.423-0.099 0.547-0.068 0.047-0.147 0.070-0.224 0.070z"></path>
<path d="M18.652 12.961c-0.217 0-0.43-0.108-0.555-0.306-0.193-0.306-0.102-0.711 0.204-0.904l0.081-0.051c0.206-0.129 0.399-0.251 0.564-0.388 0.279-0.231 0.692-0.192 0.923 0.087s0.192 0.692-0.087 0.923c-0.231 0.191-0.471 0.342-0.703 0.488l-0.079 0.050c-0.109 0.068-0.23 0.101-0.349 0.101z"></path>
<path d="M7.994 20.253c-0.211 0-0.418-0.102-0.545-0.29-0.202-0.3-0.122-0.708 0.179-0.909 1.429-0.96 2.871-1.956 4.266-2.919 0.719-0.496 1.462-1.010 2.195-1.513 0.683-0.468 1.289-0.881 1.854-1.261 0.3-0.202 0.707-0.123 0.91 0.177s0.123 0.707-0.177 0.91c-0.562 0.379-1.166 0.789-1.845 1.255-0.731 0.501-1.473 1.014-2.191 1.51-1.398 0.966-2.844 1.964-4.28 2.929-0.112 0.075-0.239 0.111-0.365 0.111z"></path>
</svg>
