<!-- Generated by IcoMoon.io -->
<svg version="1.1" xmlns="http://www.w3.org/2000/svg" width="32" height="32" viewBox="0 0 32 32">
<title>zucchini</title>
<path d="M24.68 0.791c0 0.267-0.217 0.484-0.484 0.484s-0.484-0.217-0.484-0.484c0-0.267 0.217-0.484 0.484-0.484s0.484 0.217 0.484 0.484z"></path>
<path d="M19.183 0.484l0.514 1.445c0.022 0.062 0.066 0.111 0.121 0.136l1.284 0.579c0.181 0.082 0.181 0.371 0 0.452l-1.284 0.579c-0.055 0.025-0.099 0.074-0.121 0.136l-0.514 1.445c-0.073 0.204-0.329 0.204-0.402 0l-0.514-1.445c-0.022-0.062-0.066-0.111-0.121-0.136l-1.284-0.579c-0.181-0.082-0.181-0.371 0-0.452l1.284-0.579c0.055-0.025 0.099-0.074 0.121-0.136l0.514-1.445c0.073-0.204 0.329-0.204 0.402 0z"></path>
<path d="M30.231 7.231l0.381 1.072c0.016 0.046 0.049 0.082 0.089 0.101l0.952 0.429c0.135 0.061 0.135 0.275 0 0.336l-0.952 0.429c-0.041 0.018-0.073 0.055-0.089 0.101l-0.381 1.072c-0.054 0.151-0.244 0.151-0.298 0l-0.381-1.072c-0.016-0.046-0.049-0.082-0.089-0.101l-0.952-0.429c-0.135-0.061-0.135-0.275 0-0.336l0.952-0.429c0.041-0.018 0.073-0.055 0.089-0.101l0.381-1.072c0.054-0.152 0.244-0.152 0.298 0z"></path>
<path d="M24.508 10.048c0.487 0.060 0.833 0.504 0.773 0.991s-0.504 0.833-0.991 0.773c-0.487-0.060-0.833-0.504-0.773-0.991s0.504-0.833 0.991-0.773z"></path>
<path d="M5.365 22.436l0.514 1.445c0.022 0.062 0.066 0.111 0.121 0.136l1.284 0.579c0.181 0.082 0.181 0.371 0 0.452l-1.284 0.579c-0.055 0.025-0.099 0.074-0.121 0.136l-0.514 1.445c-0.073 0.204-0.329 0.204-0.402 0l-0.514-1.445c-0.022-0.062-0.066-0.111-0.121-0.136l-1.284-0.578c-0.181-0.082-0.181-0.371 0-0.452l1.284-0.579c0.055-0.025 0.098-0.074 0.121-0.136l0.514-1.445c0.073-0.204 0.329-0.204 0.402 0z"></path>
<path d="M28.173 20.22c-1.633-1.621-3.653-3.431-5.791-5.347-3.797-3.403-7.723-6.921-10.13-9.938-1.31-1.642-2.918-2.64-4.53-2.812-0.271-0.029-0.542-0.033-0.81-0.015l-1.173-1.354c-0.788-0.91-2.17-1.010-3.080-0.222l-1.661 1.438c-0.441 0.382-0.707 0.912-0.749 1.494s0.145 1.145 0.527 1.586l1.176 1.358c-0.358 1.488-0.041 3.147 0.969 4.844 4.449 7.478 9.657 13.905 15.478 19.104 1.146 1.024 2.623 1.607 4.159 1.642 0.049 0.001 0.097 0.002 0.146 0.002 1.485 0 2.93-0.514 4.082-1.455l0.916-0.748c1.415-1.156 2.277-2.865 2.366-4.69 0.088-1.822-0.603-3.603-1.897-4.887zM1.724 4.231c-0.163-0.188-0.243-0.429-0.225-0.677s0.131-0.475 0.32-0.638l1.661-1.438c0.171-0.148 0.385-0.228 0.609-0.228 0.023 0 0.045 0.001 0.068 0.002 0.248 0.018 0.475 0.131 0.638 0.32l0.73 0.844c-0.529 0.203-1.039 0.502-1.518 0.894-0.66 0.539-1.171 1.139-1.534 1.786zM28.82 25.046c-0.071 1.471-0.766 2.85-1.907 3.781l-0.916 0.748c-1.995 1.629-4.839 1.565-6.762-0.152-5.726-5.114-10.852-11.443-15.236-18.811-1.038-1.744-1.741-4.258 0.8-6.334 0.759-0.619 1.57-0.932 2.418-0.932 0.124 0 0.249 0.007 0.374 0.020 1.276 0.136 2.585 0.97 3.684 2.348 2.472 3.098 6.438 6.652 10.273 10.089 2.126 1.905 4.134 3.705 5.745 5.303 1.043 1.035 1.6 2.47 1.529 3.939z"></path>
<path d="M24.088 26.194c-0.071 0-0.142-0.020-0.206-0.061-0.696-0.456-1.414-1.001-2.196-1.666-0.158-0.134-0.177-0.371-0.043-0.529s0.371-0.177 0.529-0.043c0.758 0.644 1.451 1.171 2.121 1.61 0.173 0.114 0.222 0.346 0.108 0.52-0.072 0.11-0.192 0.17-0.314 0.17z"></path>
<path d="M24.316 22.147c-0.083 0-0.167-0.028-0.237-0.084-3.917-3.195-7.517-6.608-10.7-10.144-0.139-0.154-0.126-0.392 0.028-0.53s0.392-0.126 0.53 0.028c3.157 3.508 6.729 6.894 10.616 10.064 0.161 0.131 0.185 0.367 0.054 0.528-0.074 0.091-0.182 0.138-0.291 0.138z"></path>
<path d="M20.51 23.254c-0.075 0-0.151-0.023-0.217-0.069-2.582-1.832-6.526-6.688-6.692-6.894-0.13-0.161-0.106-0.398 0.056-0.528s0.398-0.106 0.528 0.056c0.040 0.050 4.045 4.982 6.543 6.754 0.169 0.12 0.209 0.354 0.089 0.523-0.073 0.103-0.189 0.158-0.306 0.158z"></path>
<path d="M10.687 17.396c-0.155 0-0.31-0.057-0.431-0.172-0.403-0.383-0.874-1.032-1.218-1.506l-0.113-0.156c-1.31-1.795-2.113-2.99-3.069-4.565-0.179-0.295-0.085-0.68 0.21-0.86s0.68-0.085 0.859 0.21c0.947 1.561 1.707 2.691 3.010 4.477l0.115 0.159c0.297 0.41 0.747 1.030 1.067 1.334 0.251 0.238 0.261 0.634 0.023 0.885-0.123 0.129-0.288 0.195-0.454 0.195z"></path>
<path d="M5.22 8.658c-0.252 0-0.489-0.153-0.584-0.402-0.114-0.298-0.247-0.653-0.363-1.019-0.105-0.329 0.078-0.681 0.407-0.786s0.681 0.078 0.786 0.407c0.107 0.335 0.231 0.668 0.339 0.95 0.124 0.323-0.037 0.684-0.36 0.808-0.074 0.028-0.149 0.042-0.224 0.042z"></path>
</svg>
